<?xml version="1.0" encoding="UTF-8" standalone="no"?>
<!DOCTYPE svg PUBLIC "-//W3C//DTD SVG 1.1//EN"
 "http://www.w3.org/Graphics/SVG/1.1/DTD/svg11.dtd">
<!-- Generated by graphviz version 2.50.0 (20220203.2022)
 -->
<!-- Title: include/yaclib/util/detail/atomic_event.hpp Pages: 1 -->
<svg width="368pt" height="151pt"
 viewBox="0.00 0.00 367.82 151.00" xmlns="http://www.w3.org/2000/svg" xmlns:xlink="http://www.w3.org/1999/xlink">
<g id="graph0" class="graph" transform="scale(1 1) rotate(0) translate(4 147)">
<title>include/yaclib/util/detail/atomic_event.hpp</title>
<!-- Node1 -->
<g id="node1" class="node">
<title>Node1</title>
<g id="a_node1"><a xlink:title=" ">
<polygon fill="#bfbfbf" stroke="black" points="41.82,-112.5 41.82,-142.5 163.82,-142.5 163.82,-112.5 41.82,-112.5"/>
<text text-anchor="start" x="49.82" y="-130.5" font-family="Helvetica,sans-Serif" font-size="10.00">include/yaclib/util</text>
<text text-anchor="middle" x="102.82" y="-119.5" font-family="Helvetica,sans-Serif" font-size="10.00">/detail/atomic_event.hpp</text>
</a>
</g>
</g>
<!-- Node2 -->
<g id="node2" class="node">
<title>Node2</title>
<g id="a_node2"><a xlink:title=" ">
<polygon fill="none" stroke="#bfbfbf" points="42.82,-0.5 42.82,-19.5 130.82,-19.5 130.82,-0.5 42.82,-0.5"/>
<text text-anchor="middle" x="86.82" y="-7.5" font-family="Helvetica,sans-Serif" font-size="10.00">yaclib/config.hpp</text>
</a>
</g>
</g>
<!-- Node1&#45;&gt;Node2 -->
<g id="edge1" class="edge">
<title>Node1&#45;&gt;Node2</title>
<path fill="none" stroke="midnightblue" d="M50.9,-112.44C32.78,-104.77 14.35,-93.19 3.82,-76 -10.51,-52.61 20.37,-34.34 48.44,-23.2"/>
<polygon fill="midnightblue" stroke="midnightblue" points="50.04,-26.34 58.18,-19.56 47.58,-19.78 50.04,-26.34"/>
</g>
<!-- Node3 -->
<g id="node3" class="node">
<title>Node3</title>
<g id="a_node3"><a xlink:href="atomic_8hpp.html" target="_top" xlink:title=" ">
<polygon fill="none" stroke="black" points="216.32,-56.5 216.32,-75.5 329.32,-75.5 329.32,-56.5 216.32,-56.5"/>
<text text-anchor="middle" x="272.82" y="-63.5" font-family="Helvetica,sans-Serif" font-size="10.00">yaclib/fault/atomic.hpp</text>
</a>
</g>
</g>
<!-- Node1&#45;&gt;Node3 -->
<g id="edge2" class="edge">
<title>Node1&#45;&gt;Node3</title>
<path fill="none" stroke="midnightblue" d="M143.11,-112.4C172.14,-102.24 210.9,-88.67 238.47,-79.02"/>
<polygon fill="midnightblue" stroke="midnightblue" points="239.8,-82.26 248.08,-75.66 237.49,-75.66 239.8,-82.26"/>
</g>
<!-- Node7 -->
<g id="node7" class="node">
<title>Node7</title>
<g id="a_node7"><a xlink:href="fwd_8hpp.html" target="_top" xlink:title=" ">
<polygon fill="none" stroke="black" points="12.82,-56.5 12.82,-75.5 90.82,-75.5 90.82,-56.5 12.82,-56.5"/>
<text text-anchor="middle" x="51.82" y="-63.5" font-family="Helvetica,sans-Serif" font-size="10.00">yaclib/fwd.hpp</text>
</a>
</g>
</g>
<!-- Node1&#45;&gt;Node7 -->
<g id="edge7" class="edge">
<title>Node1&#45;&gt;Node7</title>
<path fill="none" stroke="midnightblue" d="M90.73,-112.4C83.24,-103.66 73.6,-92.41 65.79,-83.3"/>
<polygon fill="midnightblue" stroke="midnightblue" points="68.4,-80.97 59.24,-75.66 63.09,-85.53 68.4,-80.97"/>
</g>
<!-- Node8 -->
<g id="node8" class="node">
<title>Node8</title>
<g id="a_node8"><a xlink:href="ref_8hpp.html" target="_top" xlink:title=" ">
<polygon fill="none" stroke="black" points="109.32,-56.5 109.32,-75.5 198.32,-75.5 198.32,-56.5 109.32,-56.5"/>
<text text-anchor="middle" x="153.82" y="-63.5" font-family="Helvetica,sans-Serif" font-size="10.00">yaclib/util/ref.hpp</text>
</a>
</g>
</g>
<!-- Node1&#45;&gt;Node8 -->
<g id="edge9" class="edge">
<title>Node1&#45;&gt;Node8</title>
<path fill="none" stroke="midnightblue" d="M114.9,-112.4C122.39,-103.66 132.04,-92.41 139.85,-83.3"/>
<polygon fill="midnightblue" stroke="midnightblue" points="142.55,-85.53 146.4,-75.66 137.23,-80.97 142.55,-85.53"/>
</g>
<!-- Node3&#45;&gt;Node2 -->
<g id="edge3" class="edge">
<title>Node3&#45;&gt;Node2</title>
<path fill="none" stroke="midnightblue" d="M243.35,-56.44C211.65,-47.24 161.09,-32.56 126.04,-22.39"/>
<polygon fill="midnightblue" stroke="midnightblue" points="126.73,-18.94 116.15,-19.52 124.78,-25.67 126.73,-18.94"/>
</g>
<!-- Node4 -->
<g id="node4" class="node">
<title>Node4</title>
<g id="a_node4"><a xlink:title=" ">
<polygon fill="none" stroke="#bfbfbf" points="182.32,-0.5 182.32,-19.5 231.32,-19.5 231.32,-0.5 182.32,-0.5"/>
<text text-anchor="middle" x="206.82" y="-7.5" font-family="Helvetica,sans-Serif" font-size="10.00">cstddef</text>
</a>
</g>
</g>
<!-- Node3&#45;&gt;Node4 -->
<g id="edge4" class="edge">
<title>Node3&#45;&gt;Node4</title>
<path fill="none" stroke="midnightblue" d="M262.21,-56.32C252.36,-48.26 237.47,-36.08 225.6,-26.37"/>
<polygon fill="midnightblue" stroke="midnightblue" points="227.57,-23.46 217.61,-19.83 223.14,-28.88 227.57,-23.46"/>
</g>
<!-- Node5 -->
<g id="node5" class="node">
<title>Node5</title>
<g id="a_node5"><a xlink:title=" ">
<polygon fill="none" stroke="#bfbfbf" points="249.82,-0.5 249.82,-19.5 295.82,-19.5 295.82,-0.5 249.82,-0.5"/>
<text text-anchor="middle" x="272.82" y="-7.5" font-family="Helvetica,sans-Serif" font-size="10.00">cstdint</text>
</a>
</g>
</g>
<!-- Node3&#45;&gt;Node5 -->
<g id="edge5" class="edge">
<title>Node3&#45;&gt;Node5</title>
<path fill="none" stroke="midnightblue" d="M272.82,-56.08C272.82,-49.01 272.82,-38.86 272.82,-29.99"/>
<polygon fill="midnightblue" stroke="midnightblue" points="276.32,-29.75 272.82,-19.75 269.32,-29.75 276.32,-29.75"/>
</g>
<!-- Node6 -->
<g id="node6" class="node">
<title>Node6</title>
<g id="a_node6"><a xlink:title=" ">
<polygon fill="none" stroke="#bfbfbf" points="313.82,-0.5 313.82,-19.5 359.82,-19.5 359.82,-0.5 313.82,-0.5"/>
<text text-anchor="middle" x="336.82" y="-7.5" font-family="Helvetica,sans-Serif" font-size="10.00">atomic</text>
</a>
</g>
</g>
<!-- Node3&#45;&gt;Node6 -->
<g id="edge6" class="edge">
<title>Node3&#45;&gt;Node6</title>
<path fill="none" stroke="midnightblue" d="M283.1,-56.32C292.65,-48.26 307.1,-36.08 318.6,-26.37"/>
<polygon fill="midnightblue" stroke="midnightblue" points="320.96,-28.96 326.35,-19.83 316.45,-23.61 320.96,-28.96"/>
</g>
<!-- Node7&#45;&gt;Node2 -->
<g id="edge8" class="edge">
<title>Node7&#45;&gt;Node2</title>
<path fill="none" stroke="midnightblue" d="M57.6,-56.08C62.49,-48.53 69.65,-37.49 75.65,-28.23"/>
<polygon fill="midnightblue" stroke="midnightblue" points="78.64,-30.05 81.15,-19.75 72.77,-26.24 78.64,-30.05"/>
</g>
<!-- Node8&#45;&gt;Node2 -->
<g id="edge10" class="edge">
<title>Node8&#45;&gt;Node2</title>
<path fill="none" stroke="midnightblue" d="M143.05,-56.32C133.05,-48.26 117.93,-36.08 105.89,-26.37"/>
<polygon fill="midnightblue" stroke="midnightblue" points="107.76,-23.38 97.78,-19.83 103.37,-28.83 107.76,-23.38"/>
</g>
</g>
</svg>
