<?xml version="1.0" encoding="UTF-8" standalone="no"?>
<!DOCTYPE svg PUBLIC "-//W3C//DTD SVG 1.1//EN"
 "http://www.w3.org/Graphics/SVG/1.1/DTD/svg11.dtd">
<!-- Generated by graphviz version 2.50.0 (20220203.2022)
 -->
<!-- Title: include/yaclib/fault/detail/atomic/atomic_reference.hpp Pages: 1 -->
<svg width="446pt" height="486pt"
 viewBox="0.00 0.00 445.50 486.00" xmlns="http://www.w3.org/2000/svg" xmlns:xlink="http://www.w3.org/1999/xlink">
<g id="graph0" class="graph" transform="scale(1 1) rotate(0) translate(4 482)">
<title>include/yaclib/fault/detail/atomic/atomic_reference.hpp</title>
<!-- Node1 -->
<g id="node1" class="node">
<title>Node1</title>
<g id="a_node1"><a xlink:title=" ">
<polygon fill="#bfbfbf" stroke="black" points="0,-436.5 0,-477.5 107,-477.5 107,-436.5 0,-436.5"/>
<text text-anchor="start" x="8" y="-465.5" font-family="Helvetica,sans-Serif" font-size="10.00">include/yaclib/fault</text>
<text text-anchor="start" x="8" y="-454.5" font-family="Helvetica,sans-Serif" font-size="10.00">/detail/atomic/atomic</text>
<text text-anchor="middle" x="53.5" y="-443.5" font-family="Helvetica,sans-Serif" font-size="10.00">_reference.hpp</text>
</a>
</g>
</g>
<!-- Node2 -->
<g id="node2" class="node">
<title>Node2</title>
<g id="a_node2"><a xlink:title=" ">
<polygon fill="none" stroke="#bfbfbf" points="84.5,-0.5 84.5,-19.5 172.5,-19.5 172.5,-0.5 84.5,-0.5"/>
<text text-anchor="middle" x="128.5" y="-7.5" font-family="Helvetica,sans-Serif" font-size="10.00">yaclib/config.hpp</text>
</a>
</g>
</g>
<!-- Node1&#45;&gt;Node2 -->
<g id="edge1" class="edge">
<title>Node1&#45;&gt;Node2</title>
<path fill="none" stroke="midnightblue" d="M44.26,-436.46C32.72,-410.23 14.5,-361.92 14.5,-318.5 14.5,-318.5 14.5,-318.5 14.5,-121 14.5,-74.11 65.05,-40.89 98.83,-23.93"/>
<polygon fill="midnightblue" stroke="midnightblue" points="100.37,-27.07 107.86,-19.58 97.33,-20.77 100.37,-27.07"/>
</g>
<!-- Node3 -->
<g id="node3" class="node">
<title>Node3</title>
<g id="a_node3"><a xlink:href="detail_2atomic_2atomic_8hpp.html" target="_top" xlink:title=" ">
<polygon fill="none" stroke="black" points="43,-369.5 43,-399.5 142,-399.5 142,-369.5 43,-369.5"/>
<text text-anchor="start" x="51" y="-387.5" font-family="Helvetica,sans-Serif" font-size="10.00">yaclib/fault/detail</text>
<text text-anchor="middle" x="92.5" y="-376.5" font-family="Helvetica,sans-Serif" font-size="10.00">/atomic/atomic.hpp</text>
</a>
</g>
</g>
<!-- Node1&#45;&gt;Node3 -->
<g id="edge2" class="edge">
<title>Node1&#45;&gt;Node3</title>
<path fill="none" stroke="midnightblue" d="M64.36,-436.36C69.11,-427.77 74.72,-417.64 79.68,-408.68"/>
<polygon fill="midnightblue" stroke="midnightblue" points="82.76,-410.34 84.54,-399.89 76.64,-406.95 82.76,-410.34"/>
</g>
<!-- Node3&#45;&gt;Node2 -->
<g id="edge3" class="edge">
<title>Node3&#45;&gt;Node2</title>
<path fill="none" stroke="midnightblue" d="M85.16,-369.28C73.62,-345.54 52.5,-296.04 52.5,-251.5 52.5,-251.5 52.5,-251.5 52.5,-121 52.5,-81.28 86.46,-45.5 108.98,-26.15"/>
<polygon fill="midnightblue" stroke="midnightblue" points="111.48,-28.63 116.96,-19.57 107.02,-23.24 111.48,-28.63"/>
</g>
<!-- Node4 -->
<g id="node4" class="node">
<title>Node4</title>
<g id="a_node4"><a xlink:href="atomic__base_8hpp.html" target="_top" xlink:title=" ">
<polygon fill="none" stroke="black" points="120,-302.5 120,-332.5 245,-332.5 245,-302.5 120,-302.5"/>
<text text-anchor="start" x="128" y="-320.5" font-family="Helvetica,sans-Serif" font-size="10.00">yaclib/fault/detail</text>
<text text-anchor="middle" x="182.5" y="-309.5" font-family="Helvetica,sans-Serif" font-size="10.00">/atomic/atomic_base.hpp</text>
</a>
</g>
</g>
<!-- Node3&#45;&gt;Node4 -->
<g id="edge4" class="edge">
<title>Node3&#45;&gt;Node4</title>
<path fill="none" stroke="midnightblue" d="M112.03,-369.4C124.53,-360.37 140.94,-348.51 154.78,-338.52"/>
<polygon fill="midnightblue" stroke="midnightblue" points="156.95,-341.27 163.01,-332.58 152.85,-335.59 156.95,-341.27"/>
</g>
<!-- Node4&#45;&gt;Node2 -->
<g id="edge5" class="edge">
<title>Node4&#45;&gt;Node2</title>
<path fill="none" stroke="midnightblue" d="M163.44,-302.17C136.49,-280.11 90.5,-235.06 90.5,-184.5 90.5,-184.5 90.5,-184.5 90.5,-121 90.5,-86.81 107.1,-49.76 118.36,-28.57"/>
<polygon fill="midnightblue" stroke="midnightblue" points="121.45,-30.22 123.22,-19.77 115.32,-26.83 121.45,-30.22"/>
</g>
<!-- Node5 -->
<g id="node5" class="node">
<title>Node5</title>
<g id="a_node5"><a xlink:href="inject__fault_8hpp.html" target="_top" xlink:title=" ">
<polygon fill="none" stroke="black" points="138,-235.5 138,-265.5 227,-265.5 227,-235.5 138,-235.5"/>
<text text-anchor="start" x="146" y="-253.5" font-family="Helvetica,sans-Serif" font-size="10.00">yaclib/fault/detail</text>
<text text-anchor="middle" x="182.5" y="-242.5" font-family="Helvetica,sans-Serif" font-size="10.00">/inject_fault.hpp</text>
</a>
</g>
</g>
<!-- Node4&#45;&gt;Node5 -->
<g id="edge6" class="edge">
<title>Node4&#45;&gt;Node5</title>
<path fill="none" stroke="midnightblue" d="M182.5,-302.4C182.5,-294.64 182.5,-284.81 182.5,-275.86"/>
<polygon fill="midnightblue" stroke="midnightblue" points="186,-275.58 182.5,-265.58 179,-275.58 186,-275.58"/>
</g>
<!-- Node11 -->
<g id="node11" class="node">
<title>Node11</title>
<g id="a_node11"><a xlink:title=" ">
<polygon fill="none" stroke="#bfbfbf" points="391.5,-112.5 391.5,-131.5 437.5,-131.5 437.5,-112.5 391.5,-112.5"/>
<text text-anchor="middle" x="414.5" y="-119.5" font-family="Helvetica,sans-Serif" font-size="10.00">atomic</text>
</a>
</g>
</g>
<!-- Node4&#45;&gt;Node11 -->
<g id="edge18" class="edge">
<title>Node4&#45;&gt;Node11</title>
<path fill="none" stroke="midnightblue" d="M199.56,-302.27C242.14,-266.76 352.78,-174.48 396.42,-138.08"/>
<polygon fill="midnightblue" stroke="midnightblue" points="398.78,-140.67 404.22,-131.58 394.3,-135.29 398.78,-140.67"/>
</g>
<!-- Node13 -->
<g id="node13" class="node">
<title>Node13</title>
<g id="a_node13"><a xlink:title=" ">
<polygon fill="none" stroke="#bfbfbf" points="326.5,-241 326.5,-260 388.5,-260 388.5,-241 326.5,-241"/>
<text text-anchor="middle" x="357.5" y="-248" font-family="Helvetica,sans-Serif" font-size="10.00">type_traits</text>
</a>
</g>
</g>
<!-- Node4&#45;&gt;Node13 -->
<g id="edge19" class="edge">
<title>Node4&#45;&gt;Node13</title>
<path fill="none" stroke="midnightblue" d="M220.47,-302.4C251.72,-290.79 295.54,-274.51 325.14,-263.52"/>
<polygon fill="midnightblue" stroke="midnightblue" points="326.44,-266.77 334.6,-260.01 324,-260.21 326.44,-266.77"/>
</g>
<!-- Node5&#45;&gt;Node2 -->
<g id="edge7" class="edge">
<title>Node5&#45;&gt;Node2</title>
<path fill="none" stroke="midnightblue" d="M179.28,-235.29C170.01,-194.35 143.23,-76.05 132.76,-29.83"/>
<polygon fill="midnightblue" stroke="midnightblue" points="136.15,-28.93 130.53,-19.95 129.32,-30.47 136.15,-28.93"/>
</g>
<!-- Node6 -->
<g id="node6" class="node">
<title>Node6</title>
<g id="a_node6"><a xlink:href="yielder_8hpp.html" target="_top" xlink:title=" ">
<polygon fill="none" stroke="black" points="181,-168.5 181,-198.5 270,-198.5 270,-168.5 181,-168.5"/>
<text text-anchor="start" x="189" y="-186.5" font-family="Helvetica,sans-Serif" font-size="10.00">yaclib/fault/detail</text>
<text text-anchor="middle" x="225.5" y="-175.5" font-family="Helvetica,sans-Serif" font-size="10.00">/yielder.hpp</text>
</a>
</g>
</g>
<!-- Node5&#45;&gt;Node6 -->
<g id="edge8" class="edge">
<title>Node5&#45;&gt;Node6</title>
<path fill="none" stroke="midnightblue" d="M191.83,-235.4C197.3,-227.13 204.33,-216.51 210.55,-207.1"/>
<polygon fill="midnightblue" stroke="midnightblue" points="213.59,-208.85 216.19,-198.58 207.75,-204.99 213.59,-208.85"/>
</g>
<!-- Node6&#45;&gt;Node2 -->
<g id="edge9" class="edge">
<title>Node6&#45;&gt;Node2</title>
<path fill="none" stroke="midnightblue" d="M212.66,-168.14C204.3,-158.37 193.52,-144.93 185.5,-132 163.97,-97.27 145.11,-53.12 135.42,-28.9"/>
<polygon fill="midnightblue" stroke="midnightblue" points="138.66,-27.58 131.74,-19.56 132.14,-30.15 138.66,-27.58"/>
</g>
<!-- Node7 -->
<g id="node7" class="node">
<title>Node7</title>
<g id="a_node7"><a xlink:href="thread_8hpp.html" target="_top" xlink:title=" ">
<polygon fill="none" stroke="black" points="195,-112.5 195,-131.5 306,-131.5 306,-112.5 195,-112.5"/>
<text text-anchor="middle" x="250.5" y="-119.5" font-family="Helvetica,sans-Serif" font-size="10.00">yaclib/fault/thread.hpp</text>
</a>
</g>
</g>
<!-- Node6&#45;&gt;Node7 -->
<g id="edge10" class="edge">
<title>Node6&#45;&gt;Node7</title>
<path fill="none" stroke="midnightblue" d="M231.42,-168.4C234.87,-160.2 239.25,-149.78 242.94,-140.99"/>
<polygon fill="midnightblue" stroke="midnightblue" points="246.22,-142.23 246.86,-131.66 239.76,-139.52 246.22,-142.23"/>
</g>
<!-- Node6&#45;&gt;Node11 -->
<g id="edge16" class="edge">
<title>Node6&#45;&gt;Node11</title>
<path fill="none" stroke="midnightblue" d="M270.29,-168.4C304.42,-157.65 350.64,-143.1 381.46,-133.4"/>
<polygon fill="midnightblue" stroke="midnightblue" points="382.8,-136.65 391.28,-130.31 380.69,-129.97 382.8,-136.65"/>
</g>
<!-- Node12 -->
<g id="node12" class="node">
<title>Node12</title>
<g id="a_node12"><a xlink:title=" ">
<polygon fill="none" stroke="#bfbfbf" points="324,-112.5 324,-131.5 373,-131.5 373,-112.5 324,-112.5"/>
<text text-anchor="middle" x="348.5" y="-119.5" font-family="Helvetica,sans-Serif" font-size="10.00">random</text>
</a>
</g>
</g>
<!-- Node6&#45;&gt;Node12 -->
<g id="edge17" class="edge">
<title>Node6&#45;&gt;Node12</title>
<path fill="none" stroke="midnightblue" d="M254.65,-168.4C274.92,-158.59 301.74,-145.62 321.52,-136.05"/>
<polygon fill="midnightblue" stroke="midnightblue" points="323.12,-139.16 330.6,-131.66 320.08,-132.86 323.12,-139.16"/>
</g>
<!-- Node7&#45;&gt;Node2 -->
<g id="edge11" class="edge">
<title>Node7&#45;&gt;Node2</title>
<path fill="none" stroke="midnightblue" d="M241.53,-112.48C228.3,-99.97 202.73,-75.93 180.5,-56 169.25,-45.91 156.41,-34.8 146.31,-26.14"/>
<polygon fill="midnightblue" stroke="midnightblue" points="148.44,-23.36 138.56,-19.52 143.89,-28.68 148.44,-23.36"/>
</g>
<!-- Node8 -->
<g id="node8" class="node">
<title>Node8</title>
<g id="a_node8"><a xlink:href="chrono_8hpp.html" target="_top" xlink:title=" ">
<polygon fill="none" stroke="black" points="233,-56.5 233,-75.5 346,-75.5 346,-56.5 233,-56.5"/>
<text text-anchor="middle" x="289.5" y="-63.5" font-family="Helvetica,sans-Serif" font-size="10.00">yaclib/fault/chrono.hpp</text>
</a>
</g>
</g>
<!-- Node7&#45;&gt;Node8 -->
<g id="edge12" class="edge">
<title>Node7&#45;&gt;Node8</title>
<path fill="none" stroke="midnightblue" d="M256.94,-112.08C262.45,-104.46 270.53,-93.26 277.26,-83.94"/>
<polygon fill="midnightblue" stroke="midnightblue" points="280.16,-85.91 283.18,-75.75 274.49,-81.81 280.16,-85.91"/>
</g>
<!-- Node10 -->
<g id="node10" class="node">
<title>Node10</title>
<g id="a_node10"><a xlink:title=" ">
<polygon fill="none" stroke="#bfbfbf" points="364.5,-56.5 364.5,-75.5 408.5,-75.5 408.5,-56.5 364.5,-56.5"/>
<text text-anchor="middle" x="386.5" y="-63.5" font-family="Helvetica,sans-Serif" font-size="10.00">thread</text>
</a>
</g>
</g>
<!-- Node7&#45;&gt;Node10 -->
<g id="edge15" class="edge">
<title>Node7&#45;&gt;Node10</title>
<path fill="none" stroke="midnightblue" d="M272.05,-112.44C294.53,-103.52 329.99,-89.44 355.48,-79.32"/>
<polygon fill="midnightblue" stroke="midnightblue" points="357.05,-82.46 365.05,-75.52 354.47,-75.95 357.05,-82.46"/>
</g>
<!-- Node8&#45;&gt;Node2 -->
<g id="edge13" class="edge">
<title>Node8&#45;&gt;Node2</title>
<path fill="none" stroke="midnightblue" d="M263.99,-56.44C236.9,-47.36 193.91,-32.94 163.63,-22.78"/>
<polygon fill="midnightblue" stroke="midnightblue" points="164.49,-19.38 153.89,-19.52 162.26,-26.01 164.49,-19.38"/>
</g>
<!-- Node9 -->
<g id="node9" class="node">
<title>Node9</title>
<g id="a_node9"><a xlink:title=" ">
<polygon fill="none" stroke="#bfbfbf" points="266.5,-0.5 266.5,-19.5 312.5,-19.5 312.5,-0.5 266.5,-0.5"/>
<text text-anchor="middle" x="289.5" y="-7.5" font-family="Helvetica,sans-Serif" font-size="10.00">chrono</text>
</a>
</g>
</g>
<!-- Node8&#45;&gt;Node9 -->
<g id="edge14" class="edge">
<title>Node8&#45;&gt;Node9</title>
<path fill="none" stroke="midnightblue" d="M289.5,-56.08C289.5,-49.01 289.5,-38.86 289.5,-29.99"/>
<polygon fill="midnightblue" stroke="midnightblue" points="293,-29.75 289.5,-19.75 286,-29.75 293,-29.75"/>
</g>
</g>
</svg>
