<?xml version="1.0" encoding="UTF-8" standalone="no"?>
<!DOCTYPE svg PUBLIC "-//W3C//DTD SVG 1.1//EN"
 "http://www.w3.org/Graphics/SVG/1.1/DTD/svg11.dtd">
<!-- Generated by graphviz version 2.50.0 (20220203.2022)
 -->
<!-- Title: include/yaclib/fault/detail/atomic/atomic_flag.hpp Pages: 1 -->
<svg width="355pt" height="352pt"
 viewBox="0.00 0.00 355.00 352.00" xmlns="http://www.w3.org/2000/svg" xmlns:xlink="http://www.w3.org/1999/xlink">
<g id="graph0" class="graph" transform="scale(1 1) rotate(0) translate(4 348)">
<title>include/yaclib/fault/detail/atomic/atomic_flag.hpp</title>
<!-- Node1 -->
<g id="node1" class="node">
<title>Node1</title>
<g id="a_node1"><a xlink:title=" ">
<polygon fill="#bfbfbf" stroke="black" points="62.5,-302.5 62.5,-343.5 169.5,-343.5 169.5,-302.5 62.5,-302.5"/>
<text text-anchor="start" x="70.5" y="-331.5" font-family="Helvetica,sans-Serif" font-size="10.00">include/yaclib/fault</text>
<text text-anchor="start" x="70.5" y="-320.5" font-family="Helvetica,sans-Serif" font-size="10.00">/detail/atomic/atomic</text>
<text text-anchor="middle" x="116" y="-309.5" font-family="Helvetica,sans-Serif" font-size="10.00">_flag.hpp</text>
</a>
</g>
</g>
<!-- Node2 -->
<g id="node2" class="node">
<title>Node2</title>
<g id="a_node2"><a xlink:title=" ">
<polygon fill="none" stroke="#bfbfbf" points="32,-0.5 32,-19.5 120,-19.5 120,-0.5 32,-0.5"/>
<text text-anchor="middle" x="76" y="-7.5" font-family="Helvetica,sans-Serif" font-size="10.00">yaclib/config.hpp</text>
</a>
</g>
</g>
<!-- Node1&#45;&gt;Node2 -->
<g id="edge1" class="edge">
<title>Node1&#45;&gt;Node2</title>
<path fill="none" stroke="midnightblue" d="M83.38,-302.4C49.07,-279.02 0,-236.5 0,-184.5 0,-184.5 0,-184.5 0,-121 0,-81.28 33.96,-45.5 56.48,-26.15"/>
<polygon fill="midnightblue" stroke="midnightblue" points="58.98,-28.63 64.46,-19.57 54.52,-23.24 58.98,-28.63"/>
</g>
<!-- Node3 -->
<g id="node3" class="node">
<title>Node3</title>
<g id="a_node3"><a xlink:href="inject__fault_8hpp.html" target="_top" xlink:title=" ">
<polygon fill="none" stroke="black" points="71.5,-235.5 71.5,-265.5 160.5,-265.5 160.5,-235.5 71.5,-235.5"/>
<text text-anchor="start" x="79.5" y="-253.5" font-family="Helvetica,sans-Serif" font-size="10.00">yaclib/fault/detail</text>
<text text-anchor="middle" x="116" y="-242.5" font-family="Helvetica,sans-Serif" font-size="10.00">/inject_fault.hpp</text>
</a>
</g>
</g>
<!-- Node1&#45;&gt;Node3 -->
<g id="edge2" class="edge">
<title>Node1&#45;&gt;Node3</title>
<path fill="none" stroke="midnightblue" d="M116,-302.36C116,-294.23 116,-284.7 116,-276.11"/>
<polygon fill="midnightblue" stroke="midnightblue" points="119.5,-275.89 116,-265.89 112.5,-275.89 119.5,-275.89"/>
</g>
<!-- Node9 -->
<g id="node9" class="node">
<title>Node9</title>
<g id="a_node9"><a xlink:title=" ">
<polygon fill="none" stroke="#bfbfbf" points="301,-112.5 301,-131.5 347,-131.5 347,-112.5 301,-112.5"/>
<text text-anchor="middle" x="324" y="-119.5" font-family="Helvetica,sans-Serif" font-size="10.00">atomic</text>
</a>
</g>
</g>
<!-- Node1&#45;&gt;Node9 -->
<g id="edge14" class="edge">
<title>Node1&#45;&gt;Node9</title>
<path fill="none" stroke="midnightblue" d="M136.7,-302.19C177.97,-262.71 269.74,-174.91 307.39,-138.89"/>
<polygon fill="midnightblue" stroke="midnightblue" points="310.16,-141.09 314.96,-131.65 305.32,-136.03 310.16,-141.09"/>
</g>
<!-- Node3&#45;&gt;Node2 -->
<g id="edge3" class="edge">
<title>Node3&#45;&gt;Node2</title>
<path fill="none" stroke="midnightblue" d="M110.85,-235.37C100.56,-206.12 77.9,-136.62 72,-76 70.49,-60.51 71.76,-42.88 73.26,-29.89"/>
<polygon fill="midnightblue" stroke="midnightblue" points="76.75,-30.22 74.57,-19.85 69.81,-29.31 76.75,-30.22"/>
</g>
<!-- Node4 -->
<g id="node4" class="node">
<title>Node4</title>
<g id="a_node4"><a xlink:href="yielder_8hpp.html" target="_top" xlink:title=" ">
<polygon fill="none" stroke="black" points="115.5,-168.5 115.5,-198.5 204.5,-198.5 204.5,-168.5 115.5,-168.5"/>
<text text-anchor="start" x="123.5" y="-186.5" font-family="Helvetica,sans-Serif" font-size="10.00">yaclib/fault/detail</text>
<text text-anchor="middle" x="160" y="-175.5" font-family="Helvetica,sans-Serif" font-size="10.00">/yielder.hpp</text>
</a>
</g>
</g>
<!-- Node3&#45;&gt;Node4 -->
<g id="edge4" class="edge">
<title>Node3&#45;&gt;Node4</title>
<path fill="none" stroke="midnightblue" d="M125.55,-235.4C131.14,-227.13 138.33,-216.51 144.7,-207.1"/>
<polygon fill="midnightblue" stroke="midnightblue" points="147.76,-208.82 150.47,-198.58 141.97,-204.9 147.76,-208.82"/>
</g>
<!-- Node4&#45;&gt;Node2 -->
<g id="edge5" class="edge">
<title>Node4&#45;&gt;Node2</title>
<path fill="none" stroke="midnightblue" d="M133.49,-168.45C119.79,-159.79 104.08,-147.38 95,-132 76.06,-99.9 74.15,-55.05 74.83,-29.94"/>
<polygon fill="midnightblue" stroke="midnightblue" points="78.34,-29.78 75.29,-19.63 71.34,-29.47 78.34,-29.78"/>
</g>
<!-- Node5 -->
<g id="node5" class="node">
<title>Node5</title>
<g id="a_node5"><a xlink:href="thread_8hpp.html" target="_top" xlink:title=" ">
<polygon fill="none" stroke="black" points="104.5,-112.5 104.5,-131.5 215.5,-131.5 215.5,-112.5 104.5,-112.5"/>
<text text-anchor="middle" x="160" y="-119.5" font-family="Helvetica,sans-Serif" font-size="10.00">yaclib/fault/thread.hpp</text>
</a>
</g>
</g>
<!-- Node4&#45;&gt;Node5 -->
<g id="edge6" class="edge">
<title>Node4&#45;&gt;Node5</title>
<path fill="none" stroke="midnightblue" d="M160,-168.4C160,-160.47 160,-150.46 160,-141.86"/>
<polygon fill="midnightblue" stroke="midnightblue" points="163.5,-141.66 160,-131.66 156.5,-141.66 163.5,-141.66"/>
</g>
<!-- Node4&#45;&gt;Node9 -->
<g id="edge12" class="edge">
<title>Node4&#45;&gt;Node9</title>
<path fill="none" stroke="midnightblue" d="M198.87,-168.4C226.92,-158.22 264.39,-144.63 290.99,-134.98"/>
<polygon fill="midnightblue" stroke="midnightblue" points="292.41,-138.19 300.61,-131.48 290.02,-131.6 292.41,-138.19"/>
</g>
<!-- Node10 -->
<g id="node10" class="node">
<title>Node10</title>
<g id="a_node10"><a xlink:title=" ">
<polygon fill="none" stroke="#bfbfbf" points="233.5,-112.5 233.5,-131.5 282.5,-131.5 282.5,-112.5 233.5,-112.5"/>
<text text-anchor="middle" x="258" y="-119.5" font-family="Helvetica,sans-Serif" font-size="10.00">random</text>
</a>
</g>
</g>
<!-- Node4&#45;&gt;Node10 -->
<g id="edge13" class="edge">
<title>Node4&#45;&gt;Node10</title>
<path fill="none" stroke="midnightblue" d="M183.22,-168.4C198.79,-158.95 219.2,-146.56 234.76,-137.11"/>
<polygon fill="midnightblue" stroke="midnightblue" points="237.01,-139.84 243.74,-131.66 233.38,-133.86 237.01,-139.84"/>
</g>
<!-- Node5&#45;&gt;Node2 -->
<g id="edge7" class="edge">
<title>Node5&#45;&gt;Node2</title>
<path fill="none" stroke="midnightblue" d="M153.41,-112.37C139.48,-94.14 106.87,-51.43 88.73,-27.68"/>
<polygon fill="midnightblue" stroke="midnightblue" points="91.41,-25.41 82.56,-19.59 85.85,-29.66 91.41,-25.41"/>
</g>
<!-- Node6 -->
<g id="node6" class="node">
<title>Node6</title>
<g id="a_node6"><a xlink:href="chrono_8hpp.html" target="_top" xlink:title=" ">
<polygon fill="none" stroke="black" points="142.5,-56.5 142.5,-75.5 255.5,-75.5 255.5,-56.5 142.5,-56.5"/>
<text text-anchor="middle" x="199" y="-63.5" font-family="Helvetica,sans-Serif" font-size="10.00">yaclib/fault/chrono.hpp</text>
</a>
</g>
</g>
<!-- Node5&#45;&gt;Node6 -->
<g id="edge8" class="edge">
<title>Node5&#45;&gt;Node6</title>
<path fill="none" stroke="midnightblue" d="M166.44,-112.08C171.95,-104.46 180.03,-93.26 186.76,-83.94"/>
<polygon fill="midnightblue" stroke="midnightblue" points="189.66,-85.91 192.68,-75.75 183.99,-81.81 189.66,-85.91"/>
</g>
<!-- Node8 -->
<g id="node8" class="node">
<title>Node8</title>
<g id="a_node8"><a xlink:title=" ">
<polygon fill="none" stroke="#bfbfbf" points="274,-56.5 274,-75.5 318,-75.5 318,-56.5 274,-56.5"/>
<text text-anchor="middle" x="296" y="-63.5" font-family="Helvetica,sans-Serif" font-size="10.00">thread</text>
</a>
</g>
</g>
<!-- Node5&#45;&gt;Node8 -->
<g id="edge11" class="edge">
<title>Node5&#45;&gt;Node8</title>
<path fill="none" stroke="midnightblue" d="M181.55,-112.44C204.03,-103.52 239.49,-89.44 264.98,-79.32"/>
<polygon fill="midnightblue" stroke="midnightblue" points="266.55,-82.46 274.55,-75.52 263.97,-75.95 266.55,-82.46"/>
</g>
<!-- Node6&#45;&gt;Node2 -->
<g id="edge9" class="edge">
<title>Node6&#45;&gt;Node2</title>
<path fill="none" stroke="midnightblue" d="M179.51,-56.44C159.36,-47.6 127.68,-33.69 104.67,-23.59"/>
<polygon fill="midnightblue" stroke="midnightblue" points="105.96,-20.33 95.4,-19.52 103.15,-26.74 105.96,-20.33"/>
</g>
<!-- Node7 -->
<g id="node7" class="node">
<title>Node7</title>
<g id="a_node7"><a xlink:title=" ">
<polygon fill="none" stroke="#bfbfbf" points="176,-0.5 176,-19.5 222,-19.5 222,-0.5 176,-0.5"/>
<text text-anchor="middle" x="199" y="-7.5" font-family="Helvetica,sans-Serif" font-size="10.00">chrono</text>
</a>
</g>
</g>
<!-- Node6&#45;&gt;Node7 -->
<g id="edge10" class="edge">
<title>Node6&#45;&gt;Node7</title>
<path fill="none" stroke="midnightblue" d="M199,-56.08C199,-49.01 199,-38.86 199,-29.99"/>
<polygon fill="midnightblue" stroke="midnightblue" points="202.5,-29.75 199,-19.75 195.5,-29.75 202.5,-29.75"/>
</g>
</g>
</svg>
