<?xml version="1.0" encoding="UTF-8" standalone="no"?>
<!DOCTYPE svg PUBLIC "-//W3C//DTD SVG 1.1//EN"
 "http://www.w3.org/Graphics/SVG/1.1/DTD/svg11.dtd">
<!-- Generated by graphviz version 2.50.0 (20220203.2022)
 -->
<!-- Title: include/yaclib/util/detail/atomic_counter.hpp Pages: 1 -->
<svg width="310pt" height="151pt"
 viewBox="0.00 0.00 309.50 151.00" xmlns="http://www.w3.org/2000/svg" xmlns:xlink="http://www.w3.org/1999/xlink">
<g id="graph0" class="graph" transform="scale(1 1) rotate(0) translate(4 147)">
<title>include/yaclib/util/detail/atomic_counter.hpp</title>
<!-- Node1 -->
<g id="node1" class="node">
<title>Node1</title>
<g id="a_node1"><a xlink:title=" ">
<polygon fill="#bfbfbf" stroke="black" points="79.5,-112.5 79.5,-142.5 210.5,-142.5 210.5,-112.5 79.5,-112.5"/>
<text text-anchor="start" x="87.5" y="-130.5" font-family="Helvetica,sans-Serif" font-size="10.00">include/yaclib/util</text>
<text text-anchor="middle" x="145" y="-119.5" font-family="Helvetica,sans-Serif" font-size="10.00">/detail/atomic_counter.hpp</text>
</a>
</g>
</g>
<!-- Node2 -->
<g id="node2" class="node">
<title>Node2</title>
<g id="a_node2"><a xlink:title=" ">
<polygon fill="none" stroke="#bfbfbf" points="0,-0.5 0,-19.5 88,-19.5 88,-0.5 0,-0.5"/>
<text text-anchor="middle" x="44" y="-7.5" font-family="Helvetica,sans-Serif" font-size="10.00">yaclib/config.hpp</text>
</a>
</g>
</g>
<!-- Node1&#45;&gt;Node2 -->
<g id="edge1" class="edge">
<title>Node1&#45;&gt;Node2</title>
<path fill="none" stroke="midnightblue" d="M132.62,-112.34C113.84,-90.86 78.25,-50.17 58.37,-27.43"/>
<polygon fill="midnightblue" stroke="midnightblue" points="60.8,-24.89 51.58,-19.67 55.53,-29.5 60.8,-24.89"/>
</g>
<!-- Node3 -->
<g id="node3" class="node">
<title>Node3</title>
<g id="a_node3"><a xlink:href="atomic_8hpp.html" target="_top" xlink:title=" ">
<polygon fill="none" stroke="black" points="131.5,-56.5 131.5,-75.5 244.5,-75.5 244.5,-56.5 131.5,-56.5"/>
<text text-anchor="middle" x="188" y="-63.5" font-family="Helvetica,sans-Serif" font-size="10.00">yaclib/fault/atomic.hpp</text>
</a>
</g>
</g>
<!-- Node1&#45;&gt;Node3 -->
<g id="edge2" class="edge">
<title>Node1&#45;&gt;Node3</title>
<path fill="none" stroke="midnightblue" d="M155.19,-112.4C161.37,-103.84 169.3,-92.87 175.82,-83.86"/>
<polygon fill="midnightblue" stroke="midnightblue" points="178.72,-85.81 181.74,-75.66 173.05,-81.71 178.72,-85.81"/>
</g>
<!-- Node4 -->
<g id="node4" class="node">
<title>Node4</title>
<g id="a_node4"><a xlink:title=" ">
<polygon fill="none" stroke="#bfbfbf" points="105.5,-0.5 105.5,-19.5 154.5,-19.5 154.5,-0.5 105.5,-0.5"/>
<text text-anchor="middle" x="130" y="-7.5" font-family="Helvetica,sans-Serif" font-size="10.00">cstddef</text>
</a>
</g>
</g>
<!-- Node1&#45;&gt;Node4 -->
<g id="edge7" class="edge">
<title>Node1&#45;&gt;Node4</title>
<path fill="none" stroke="midnightblue" d="M136.64,-112.48C131.28,-102.65 124.82,-88.99 122,-76 118.65,-60.55 121.3,-42.7 124.42,-29.63"/>
<polygon fill="midnightblue" stroke="midnightblue" points="127.81,-30.48 127.03,-19.92 121.05,-28.67 127.81,-30.48"/>
</g>
<!-- Node7 -->
<g id="node7" class="node">
<title>Node7</title>
<g id="a_node7"><a xlink:title=" ">
<polygon fill="none" stroke="#bfbfbf" points="262.5,-56.5 262.5,-75.5 301.5,-75.5 301.5,-56.5 262.5,-56.5"/>
<text text-anchor="middle" x="282" y="-63.5" font-family="Helvetica,sans-Serif" font-size="10.00">utility</text>
</a>
</g>
</g>
<!-- Node1&#45;&gt;Node7 -->
<g id="edge8" class="edge">
<title>Node1&#45;&gt;Node7</title>
<path fill="none" stroke="midnightblue" d="M177.47,-112.4C200.49,-102.4 231.1,-89.11 253.24,-79.49"/>
<polygon fill="midnightblue" stroke="midnightblue" points="254.69,-82.68 262.46,-75.48 251.9,-76.26 254.69,-82.68"/>
</g>
<!-- Node3&#45;&gt;Node2 -->
<g id="edge3" class="edge">
<title>Node3&#45;&gt;Node2</title>
<path fill="none" stroke="midnightblue" d="M165.18,-56.44C141.17,-47.44 103.17,-33.19 76.13,-23.05"/>
<polygon fill="midnightblue" stroke="midnightblue" points="77.3,-19.75 66.71,-19.52 74.84,-26.3 77.3,-19.75"/>
</g>
<!-- Node3&#45;&gt;Node4 -->
<g id="edge4" class="edge">
<title>Node3&#45;&gt;Node4</title>
<path fill="none" stroke="midnightblue" d="M178.68,-56.32C170.11,-48.34 157.19,-36.31 146.81,-26.65"/>
<polygon fill="midnightblue" stroke="midnightblue" points="149.19,-24.09 139.49,-19.83 144.42,-29.21 149.19,-24.09"/>
</g>
<!-- Node5 -->
<g id="node5" class="node">
<title>Node5</title>
<g id="a_node5"><a xlink:title=" ">
<polygon fill="none" stroke="#bfbfbf" points="173,-0.5 173,-19.5 219,-19.5 219,-0.5 173,-0.5"/>
<text text-anchor="middle" x="196" y="-7.5" font-family="Helvetica,sans-Serif" font-size="10.00">cstdint</text>
</a>
</g>
</g>
<!-- Node3&#45;&gt;Node5 -->
<g id="edge5" class="edge">
<title>Node3&#45;&gt;Node5</title>
<path fill="none" stroke="midnightblue" d="M189.32,-56.08C190.38,-48.93 191.91,-38.64 193.23,-29.69"/>
<polygon fill="midnightblue" stroke="midnightblue" points="196.7,-30.16 194.7,-19.75 189.78,-29.13 196.7,-30.16"/>
</g>
<!-- Node6 -->
<g id="node6" class="node">
<title>Node6</title>
<g id="a_node6"><a xlink:title=" ">
<polygon fill="none" stroke="#bfbfbf" points="237,-0.5 237,-19.5 283,-19.5 283,-0.5 237,-0.5"/>
<text text-anchor="middle" x="260" y="-7.5" font-family="Helvetica,sans-Serif" font-size="10.00">atomic</text>
</a>
</g>
</g>
<!-- Node3&#45;&gt;Node6 -->
<g id="edge6" class="edge">
<title>Node3&#45;&gt;Node6</title>
<path fill="none" stroke="midnightblue" d="M199.57,-56.32C210.42,-48.18 226.88,-35.84 239.88,-26.09"/>
<polygon fill="midnightblue" stroke="midnightblue" points="242.32,-28.63 248.22,-19.83 238.12,-23.03 242.32,-28.63"/>
</g>
</g>
</svg>
