<?xml version="1.0" encoding="UTF-8" standalone="no"?>
<!DOCTYPE svg PUBLIC "-//W3C//DTD SVG 1.1//EN"
 "http://www.w3.org/Graphics/SVG/1.1/DTD/svg11.dtd">
<!-- Generated by graphviz version 2.50.0 (20220203.2022)
 -->
<!-- Title: include/yaclib/async/detail/base_core.hpp Pages: 1 -->
<svg width="1054pt" height="531pt"
 viewBox="0.00 0.00 1053.69 531.00" xmlns="http://www.w3.org/2000/svg" xmlns:xlink="http://www.w3.org/1999/xlink">
<g id="graph0" class="graph" transform="scale(1 1) rotate(0) translate(4 527)">
<title>include/yaclib/async/detail/base_core.hpp</title>
<!-- Node1 -->
<g id="node1" class="node">
<title>Node1</title>
<g id="a_node1"><a xlink:title=" ">
<polygon fill="#bfbfbf" stroke="black" points="710,-492.5 710,-522.5 819,-522.5 819,-492.5 710,-492.5"/>
<text text-anchor="start" x="718" y="-510.5" font-family="Helvetica,sans-Serif" font-size="10.00">include/yaclib/async</text>
<text text-anchor="middle" x="764.5" y="-499.5" font-family="Helvetica,sans-Serif" font-size="10.00">/detail/base_core.hpp</text>
</a>
</g>
</g>
<!-- Node2 -->
<g id="node2" class="node">
<title>Node2</title>
<g id="a_node2"><a xlink:href="inline__core_8hpp.html" target="_top" xlink:title=" ">
<polygon fill="none" stroke="black" points="555.5,-369.5 555.5,-399.5 651.5,-399.5 651.5,-369.5 555.5,-369.5"/>
<text text-anchor="start" x="563.5" y="-387.5" font-family="Helvetica,sans-Serif" font-size="10.00">yaclib/async/detail</text>
<text text-anchor="middle" x="603.5" y="-376.5" font-family="Helvetica,sans-Serif" font-size="10.00">/inline_core.hpp</text>
</a>
</g>
</g>
<!-- Node1&#45;&gt;Node2 -->
<g id="edge1" class="edge">
<title>Node1&#45;&gt;Node2</title>
<path fill="none" stroke="midnightblue" d="M729.16,-492.41C709.37,-483.58 684.85,-471.04 665.5,-456 647.75,-442.21 631.13,-422.81 619.57,-407.85"/>
<polygon fill="midnightblue" stroke="midnightblue" points="622.19,-405.52 613.38,-399.64 616.6,-409.73 622.19,-405.52"/>
</g>
<!-- Node3 -->
<g id="node3" class="node">
<title>Node3</title>
<g id="a_node3"><a xlink:title=" ">
<polygon fill="none" stroke="#bfbfbf" points="575.5,-0.5 575.5,-19.5 663.5,-19.5 663.5,-0.5 575.5,-0.5"/>
<text text-anchor="middle" x="619.5" y="-7.5" font-family="Helvetica,sans-Serif" font-size="10.00">yaclib/config.hpp</text>
</a>
</g>
</g>
<!-- Node1&#45;&gt;Node3 -->
<g id="edge37" class="edge">
<title>Node1&#45;&gt;Node3</title>
<path fill="none" stroke="midnightblue" d="M819.21,-502.64C886.72,-496.77 996.19,-483.27 1025.5,-456 1049.26,-433.9 1044.5,-417.95 1044.5,-385.5 1044.5,-385.5 1044.5,-385.5 1044.5,-137.5 1044.5,-89.17 1015.21,-78.62 972.5,-56 972.09,-55.78 772.82,-30.46 673.9,-17.9"/>
<polygon fill="midnightblue" stroke="midnightblue" points="674.15,-14.41 663.79,-16.62 673.27,-21.35 674.15,-14.41"/>
</g>
<!-- Node4 -->
<g id="node4" class="node">
<title>Node4</title>
<g id="a_node4"><a xlink:href="task_8hpp.html" target="_top" xlink:title=" ">
<polygon fill="none" stroke="black" points="555,-313.5 555,-332.5 676,-332.5 676,-313.5 555,-313.5"/>
<text text-anchor="middle" x="615.5" y="-320.5" font-family="Helvetica,sans-Serif" font-size="10.00">yaclib/executor/task.hpp</text>
</a>
</g>
</g>
<!-- Node1&#45;&gt;Node4 -->
<g id="edge45" class="edge">
<title>Node1&#45;&gt;Node4</title>
<path fill="none" stroke="midnightblue" d="M743.35,-492.45C730.62,-483.22 714.76,-470.23 703.5,-456 676.74,-422.17 685.64,-404.05 660.5,-369 652.81,-358.28 642.5,-347.76 633.69,-339.6"/>
<polygon fill="midnightblue" stroke="midnightblue" points="635.92,-336.9 626.14,-332.82 631.24,-342.11 635.92,-336.9"/>
</g>
<!-- Node11 -->
<g id="node11" class="node">
<title>Node11</title>
<g id="a_node11"><a xlink:href="atomic_8hpp.html" target="_top" xlink:title=" ">
<polygon fill="none" stroke="black" points="48,-62 48,-81 161,-81 161,-62 48,-62"/>
<text text-anchor="middle" x="104.5" y="-69" font-family="Helvetica,sans-Serif" font-size="10.00">yaclib/fault/atomic.hpp</text>
</a>
</g>
</g>
<!-- Node1&#45;&gt;Node11 -->
<g id="edge46" class="edge">
<title>Node1&#45;&gt;Node11</title>
<path fill="none" stroke="midnightblue" d="M709.78,-502.16C552.36,-488.94 109.5,-446.36 109.5,-385.5 109.5,-385.5 109.5,-385.5 109.5,-204.5 109.5,-164.13 107.14,-116.86 105.66,-91.27"/>
<polygon fill="midnightblue" stroke="midnightblue" points="109.14,-90.92 105.05,-81.14 102.16,-91.34 109.14,-90.92"/>
</g>
<!-- Node16 -->
<g id="node16" class="node">
<title>Node16</title>
<g id="a_node16"><a xlink:href="intrusive__ptr_8hpp.html" target="_top" xlink:title=" ">
<polygon fill="none" stroke="black" points="632,-123.5 632,-153.5 729,-153.5 729,-123.5 632,-123.5"/>
<text text-anchor="start" x="640" y="-141.5" font-family="Helvetica,sans-Serif" font-size="10.00">yaclib/util/intrusive</text>
<text text-anchor="middle" x="680.5" y="-130.5" font-family="Helvetica,sans-Serif" font-size="10.00">_ptr.hpp</text>
</a>
</g>
</g>
<!-- Node1&#45;&gt;Node16 -->
<g id="edge47" class="edge">
<title>Node1&#45;&gt;Node16</title>
<path fill="none" stroke="midnightblue" d="M754.99,-492.3C741.26,-470.37 717.5,-426.52 717.5,-385.5 717.5,-385.5 717.5,-385.5 717.5,-266 717.5,-228.79 702.57,-187.82 691.68,-162.87"/>
<polygon fill="midnightblue" stroke="midnightblue" points="694.77,-161.2 687.46,-153.53 688.39,-164.08 694.77,-161.2"/>
</g>
<!-- Node17 -->
<g id="node17" class="node">
<title>Node17</title>
<g id="a_node17"><a xlink:href="ref_8hpp.html" target="_top" xlink:title=" ">
<polygon fill="none" stroke="black" points="800,-62 800,-81 889,-81 889,-62 800,-62"/>
<text text-anchor="middle" x="844.5" y="-69" font-family="Helvetica,sans-Serif" font-size="10.00">yaclib/util/ref.hpp</text>
</a>
</g>
</g>
<!-- Node1&#45;&gt;Node17 -->
<g id="edge48" class="edge">
<title>Node1&#45;&gt;Node17</title>
<path fill="none" stroke="midnightblue" d="M793.72,-492.5C825.27,-475.56 873.77,-443.77 894.5,-400 946.08,-291.06 879.71,-141.02 853.93,-90.17"/>
<polygon fill="midnightblue" stroke="midnightblue" points="856.95,-88.38 849.23,-81.11 850.73,-91.6 856.95,-88.38"/>
</g>
<!-- Node20 -->
<g id="node20" class="node">
<title>Node20</title>
<g id="a_node20"><a xlink:href="executor_8hpp.html" target="_top" xlink:title=" ">
<polygon fill="none" stroke="black" points="746,-375 746,-394 885,-394 885,-375 746,-375"/>
<text text-anchor="middle" x="815.5" y="-382" font-family="Helvetica,sans-Serif" font-size="10.00">yaclib/executor/executor.hpp</text>
</a>
</g>
</g>
<!-- Node1&#45;&gt;Node20 -->
<g id="edge38" class="edge">
<title>Node1&#45;&gt;Node20</title>
<path fill="none" stroke="midnightblue" d="M770.55,-492.14C779.88,-470 797.77,-427.57 807.94,-403.44"/>
<polygon fill="midnightblue" stroke="midnightblue" points="811.24,-404.63 811.9,-394.05 804.79,-401.91 811.24,-404.63"/>
</g>
<!-- Node21 -->
<g id="node21" class="node">
<title>Node21</title>
<g id="a_node21"><a xlink:href="inline_8hpp.html" target="_top" xlink:title=" ">
<polygon fill="none" stroke="black" points="891,-436.5 891,-455.5 1016,-455.5 1016,-436.5 891,-436.5"/>
<text text-anchor="middle" x="953.5" y="-443.5" font-family="Helvetica,sans-Serif" font-size="10.00">yaclib/executor/inline.hpp</text>
</a>
</g>
</g>
<!-- Node1&#45;&gt;Node21 -->
<g id="edge42" class="edge">
<title>Node1&#45;&gt;Node21</title>
<path fill="none" stroke="midnightblue" d="M809.29,-492.4C841.95,-482.12 885.68,-468.35 916.39,-458.68"/>
<polygon fill="midnightblue" stroke="midnightblue" points="917.79,-461.91 926.27,-455.57 915.69,-455.24 917.79,-461.91"/>
</g>
<!-- Node2&#45;&gt;Node3 -->
<g id="edge2" class="edge">
<title>Node2&#45;&gt;Node3</title>
<path fill="none" stroke="midnightblue" d="M555.13,-381.37C438.52,-374.91 151.5,-350.61 151.5,-268 151.5,-268 151.5,-268 151.5,-204.5 151.5,-121.29 193.24,-97.24 265.5,-56 315.46,-27.49 479.21,-16.66 565.38,-12.87"/>
<polygon fill="midnightblue" stroke="midnightblue" points="565.65,-16.36 575.49,-12.44 565.35,-9.36 565.65,-16.36"/>
</g>
<!-- Node2&#45;&gt;Node4 -->
<g id="edge3" class="edge">
<title>Node2&#45;&gt;Node4</title>
<path fill="none" stroke="midnightblue" d="M606.34,-369.4C607.96,-361.38 610.01,-351.23 611.75,-342.57"/>
<polygon fill="midnightblue" stroke="midnightblue" points="615.21,-343.15 613.75,-332.66 608.35,-341.77 615.21,-343.15"/>
</g>
<!-- Node4&#45;&gt;Node3 -->
<g id="edge4" class="edge">
<title>Node4&#45;&gt;Node3</title>
<path fill="none" stroke="midnightblue" d="M554.88,-316.6C445.75,-305.2 227.5,-273.97 227.5,-206.5 227.5,-206.5 227.5,-206.5 227.5,-137.5 227.5,-124.14 160,-130.38 336.5,-56 411.54,-24.38 506.3,-14.8 564.9,-12"/>
<polygon fill="midnightblue" stroke="midnightblue" points="565.21,-15.49 575.05,-11.57 564.91,-8.5 565.21,-15.49"/>
</g>
<!-- Node5 -->
<g id="node5" class="node">
<title>Node5</title>
<g id="a_node5"><a xlink:href="node_8hpp.html" target="_top" xlink:title=" ">
<polygon fill="none" stroke="black" points="784,-190.5 784,-220.5 867,-220.5 867,-190.5 784,-190.5"/>
<text text-anchor="start" x="792" y="-208.5" font-family="Helvetica,sans-Serif" font-size="10.00">yaclib/util/detail</text>
<text text-anchor="middle" x="825.5" y="-197.5" font-family="Helvetica,sans-Serif" font-size="10.00">/node.hpp</text>
</a>
</g>
</g>
<!-- Node4&#45;&gt;Node5 -->
<g id="edge5" class="edge">
<title>Node4&#45;&gt;Node5</title>
<path fill="none" stroke="midnightblue" d="M631.28,-313.32C665.02,-294.77 744.8,-250.88 790.93,-225.51"/>
<polygon fill="midnightblue" stroke="midnightblue" points="792.89,-228.43 799.96,-220.55 789.51,-222.3 792.89,-228.43"/>
</g>
<!-- Node6 -->
<g id="node6" class="node">
<title>Node6</title>
<g id="a_node6"><a xlink:href="func_8hpp.html" target="_top" xlink:title=" ">
<polygon fill="none" stroke="black" points="536,-257.5 536,-276.5 633,-276.5 633,-257.5 536,-257.5"/>
<text text-anchor="middle" x="584.5" y="-264.5" font-family="Helvetica,sans-Serif" font-size="10.00">yaclib/util/func.hpp</text>
</a>
</g>
</g>
<!-- Node4&#45;&gt;Node6 -->
<g id="edge7" class="edge">
<title>Node4&#45;&gt;Node6</title>
<path fill="none" stroke="midnightblue" d="M610.38,-313.08C606.09,-305.61 599.84,-294.72 594.56,-285.52"/>
<polygon fill="midnightblue" stroke="midnightblue" points="597.54,-283.68 589.52,-276.75 591.47,-287.17 597.54,-283.68"/>
</g>
<!-- Node5&#45;&gt;Node3 -->
<g id="edge6" class="edge">
<title>Node5&#45;&gt;Node3</title>
<path fill="none" stroke="midnightblue" d="M842.15,-190.49C873.45,-162.49 934.82,-98.65 898.5,-56 891.26,-47.5 753.19,-28.33 674.05,-17.96"/>
<polygon fill="midnightblue" stroke="midnightblue" points="674.13,-14.44 663.76,-16.62 673.23,-21.39 674.13,-14.44"/>
</g>
<!-- Node6&#45;&gt;Node3 -->
<g id="edge8" class="edge">
<title>Node6&#45;&gt;Node3</title>
<path fill="none" stroke="midnightblue" d="M585.7,-257.22C590.71,-220.75 609.94,-80.68 616.93,-29.7"/>
<polygon fill="midnightblue" stroke="midnightblue" points="620.41,-30.12 618.3,-19.74 613.47,-29.17 620.41,-30.12"/>
</g>
<!-- Node7 -->
<g id="node7" class="node">
<title>Node7</title>
<g id="a_node7"><a xlink:href="safe__call_8hpp.html" target="_top" xlink:title=" ">
<polygon fill="none" stroke="black" points="454,-123.5 454,-153.5 537,-153.5 537,-123.5 454,-123.5"/>
<text text-anchor="start" x="462" y="-141.5" font-family="Helvetica,sans-Serif" font-size="10.00">yaclib/util/detail</text>
<text text-anchor="middle" x="495.5" y="-130.5" font-family="Helvetica,sans-Serif" font-size="10.00">/safe_call.hpp</text>
</a>
</g>
</g>
<!-- Node6&#45;&gt;Node7 -->
<g id="edge9" class="edge">
<title>Node6&#45;&gt;Node7</title>
<path fill="none" stroke="midnightblue" d="M578.09,-257.43C571.39,-248.42 560.59,-233.8 551.5,-221 537.5,-201.28 521.94,-178.57 510.79,-162.15"/>
<polygon fill="midnightblue" stroke="midnightblue" points="513.59,-160.04 505.08,-153.73 507.79,-163.97 513.59,-160.04"/>
</g>
<!-- Node8 -->
<g id="node8" class="node">
<title>Node8</title>
<g id="a_node8"><a xlink:title=" ">
<polygon fill="none" stroke="#bfbfbf" points="511.5,-62 511.5,-81 573.5,-81 573.5,-62 511.5,-62"/>
<text text-anchor="middle" x="542.5" y="-69" font-family="Helvetica,sans-Serif" font-size="10.00">type_traits</text>
</a>
</g>
</g>
<!-- Node6&#45;&gt;Node8 -->
<g id="edge35" class="edge">
<title>Node6&#45;&gt;Node8</title>
<path fill="none" stroke="midnightblue" d="M582.64,-257.44C576.31,-228.29 555.52,-132.47 546.61,-91.43"/>
<polygon fill="midnightblue" stroke="midnightblue" points="549.97,-90.44 544.43,-81.41 543.13,-91.92 549.97,-90.44"/>
</g>
<!-- Node9 -->
<g id="node9" class="node">
<title>Node9</title>
<g id="a_node9"><a xlink:title=" ">
<polygon fill="none" stroke="#bfbfbf" points="416,-62 416,-81 455,-81 455,-62 416,-62"/>
<text text-anchor="middle" x="435.5" y="-69" font-family="Helvetica,sans-Serif" font-size="10.00">utility</text>
</a>
</g>
</g>
<!-- Node6&#45;&gt;Node9 -->
<g id="edge36" class="edge">
<title>Node6&#45;&gt;Node9</title>
<path fill="none" stroke="midnightblue" d="M566.06,-257.36C534.93,-241.67 472.6,-205.33 444.5,-154 433.85,-134.54 432.83,-108.56 433.66,-91.22"/>
<polygon fill="midnightblue" stroke="midnightblue" points="437.16,-91.46 434.4,-81.23 430.17,-90.94 437.16,-91.46"/>
</g>
<!-- Node10 -->
<g id="node10" class="node">
<title>Node10</title>
<g id="a_node10"><a xlink:href="helper_8hpp.html" target="_top" xlink:title=" ">
<polygon fill="none" stroke="black" points="293.5,-196 293.5,-215 397.5,-215 397.5,-196 293.5,-196"/>
<text text-anchor="middle" x="345.5" y="-203" font-family="Helvetica,sans-Serif" font-size="10.00">yaclib/util/helper.hpp</text>
</a>
</g>
</g>
<!-- Node6&#45;&gt;Node10 -->
<g id="edge13" class="edge">
<title>Node6&#45;&gt;Node10</title>
<path fill="none" stroke="midnightblue" d="M550.26,-257.48C507.93,-246.94 435.82,-228.99 389.45,-217.44"/>
<polygon fill="midnightblue" stroke="midnightblue" points="390.23,-214.03 379.68,-215.01 388.54,-220.82 390.23,-214.03"/>
</g>
<!-- Node6&#45;&gt;Node16 -->
<g id="edge33" class="edge">
<title>Node6&#45;&gt;Node16</title>
<path fill="none" stroke="midnightblue" d="M591.1,-257.31C605.84,-237.88 641.84,-190.44 663.4,-162.04"/>
<polygon fill="midnightblue" stroke="midnightblue" points="666.32,-163.97 669.58,-153.89 660.75,-159.74 666.32,-163.97"/>
</g>
<!-- Node6&#45;&gt;Node17 -->
<g id="edge34" class="edge">
<title>Node6&#45;&gt;Node17</title>
<path fill="none" stroke="midnightblue" d="M596.46,-257.36C622.31,-238.67 685.28,-193 737.5,-154 768.42,-130.91 804,-103.68 825.34,-87.26"/>
<polygon fill="midnightblue" stroke="midnightblue" points="827.52,-90.01 833.31,-81.14 823.25,-84.46 827.52,-90.01"/>
</g>
<!-- Node7&#45;&gt;Node3 -->
<g id="edge10" class="edge">
<title>Node7&#45;&gt;Node3</title>
<path fill="none" stroke="midnightblue" d="M492.53,-123.24C489.71,-105.6 487.82,-75.52 502.5,-56 517.49,-36.06 542.51,-24.96 565.58,-18.77"/>
<polygon fill="midnightblue" stroke="midnightblue" points="566.42,-22.17 575.31,-16.41 564.77,-15.37 566.42,-22.17"/>
</g>
<!-- Node7&#45;&gt;Node8 -->
<g id="edge11" class="edge">
<title>Node7&#45;&gt;Node8</title>
<path fill="none" stroke="midnightblue" d="M505.7,-123.4C512.88,-113.46 522.54,-100.11 530.16,-89.57"/>
<polygon fill="midnightblue" stroke="midnightblue" points="533.19,-91.35 536.21,-81.19 527.52,-87.25 533.19,-91.35"/>
</g>
<!-- Node7&#45;&gt;Node9 -->
<g id="edge12" class="edge">
<title>Node7&#45;&gt;Node9</title>
<path fill="none" stroke="midnightblue" d="M482.48,-123.4C473.03,-113.16 460.23,-99.3 450.38,-88.62"/>
<polygon fill="midnightblue" stroke="midnightblue" points="452.88,-86.17 443.53,-81.19 447.74,-90.92 452.88,-86.17"/>
</g>
<!-- Node10&#45;&gt;Node3 -->
<g id="edge14" class="edge">
<title>Node10&#45;&gt;Node3</title>
<path fill="none" stroke="midnightblue" d="M349.56,-195.99C354.28,-186 362.22,-168.92 368.5,-154 386.63,-110.95 370.91,-86.26 406.5,-56 430.02,-36.01 510.23,-23.21 565.22,-16.56"/>
<polygon fill="midnightblue" stroke="midnightblue" points="565.65,-20.04 575.18,-15.39 564.84,-13.08 565.65,-20.04"/>
</g>
<!-- Node10&#45;&gt;Node11 -->
<g id="edge15" class="edge">
<title>Node10&#45;&gt;Node11</title>
<path fill="none" stroke="midnightblue" d="M328.2,-196C308.33,-186.16 274.83,-169.35 246.5,-154 204.06,-131.01 155.44,-102.66 127.52,-86.18"/>
<polygon fill="midnightblue" stroke="midnightblue" points="129.27,-83.15 118.88,-81.07 125.71,-89.17 129.27,-83.15"/>
</g>
<!-- Node15 -->
<g id="node15" class="node">
<title>Node15</title>
<g id="a_node15"><a xlink:href="atomic__counter_8hpp.html" target="_top" xlink:title=" ">
<polygon fill="none" stroke="black" points="255.5,-123.5 255.5,-153.5 359.5,-153.5 359.5,-123.5 255.5,-123.5"/>
<text text-anchor="start" x="263.5" y="-141.5" font-family="Helvetica,sans-Serif" font-size="10.00">yaclib/util/detail</text>
<text text-anchor="middle" x="307.5" y="-130.5" font-family="Helvetica,sans-Serif" font-size="10.00">/atomic_counter.hpp</text>
</a>
</g>
</g>
<!-- Node10&#45;&gt;Node15 -->
<g id="edge20" class="edge">
<title>Node10&#45;&gt;Node15</title>
<path fill="none" stroke="midnightblue" d="M340.38,-195.73C335.39,-187.2 327.6,-173.87 320.85,-162.33"/>
<polygon fill="midnightblue" stroke="midnightblue" points="323.81,-160.46 315.74,-153.59 317.76,-163.99 323.81,-160.46"/>
</g>
<!-- Node10&#45;&gt;Node16 -->
<g id="edge25" class="edge">
<title>Node10&#45;&gt;Node16</title>
<path fill="none" stroke="midnightblue" d="M389.64,-195.94C449.29,-184.36 555.79,-163.7 622.04,-150.84"/>
<polygon fill="midnightblue" stroke="midnightblue" points="622.77,-154.27 631.92,-148.93 621.43,-147.4 622.77,-154.27"/>
</g>
<!-- Node11&#45;&gt;Node3 -->
<g id="edge16" class="edge">
<title>Node11&#45;&gt;Node3</title>
<path fill="none" stroke="midnightblue" d="M142.7,-61.97C153.28,-59.8 164.8,-57.63 175.5,-56 315.2,-34.71 481.22,-20.91 565.14,-14.74"/>
<polygon fill="midnightblue" stroke="midnightblue" points="565.48,-18.23 575.2,-14.01 564.97,-11.24 565.48,-18.23"/>
</g>
<!-- Node12 -->
<g id="node12" class="node">
<title>Node12</title>
<g id="a_node12"><a xlink:title=" ">
<polygon fill="none" stroke="#bfbfbf" points="0,-0.5 0,-19.5 49,-19.5 49,-0.5 0,-0.5"/>
<text text-anchor="middle" x="24.5" y="-7.5" font-family="Helvetica,sans-Serif" font-size="10.00">cstddef</text>
</a>
</g>
</g>
<!-- Node11&#45;&gt;Node12 -->
<g id="edge17" class="edge">
<title>Node11&#45;&gt;Node12</title>
<path fill="none" stroke="midnightblue" d="M93.04,-61.98C80.33,-52.52 59.59,-37.1 44.25,-25.69"/>
<polygon fill="midnightblue" stroke="midnightblue" points="46.05,-22.67 35.94,-19.51 41.88,-28.29 46.05,-22.67"/>
</g>
<!-- Node13 -->
<g id="node13" class="node">
<title>Node13</title>
<g id="a_node13"><a xlink:title=" ">
<polygon fill="none" stroke="#bfbfbf" points="72.5,-0.5 72.5,-19.5 118.5,-19.5 118.5,-0.5 72.5,-0.5"/>
<text text-anchor="middle" x="95.5" y="-7.5" font-family="Helvetica,sans-Serif" font-size="10.00">cstdint</text>
</a>
</g>
</g>
<!-- Node11&#45;&gt;Node13 -->
<g id="edge18" class="edge">
<title>Node11&#45;&gt;Node13</title>
<path fill="none" stroke="midnightblue" d="M103.21,-61.98C101.94,-53.58 99.96,-40.48 98.32,-29.66"/>
<polygon fill="midnightblue" stroke="midnightblue" points="101.74,-28.87 96.79,-19.51 94.82,-29.92 101.74,-28.87"/>
</g>
<!-- Node14 -->
<g id="node14" class="node">
<title>Node14</title>
<g id="a_node14"><a xlink:title=" ">
<polygon fill="none" stroke="#bfbfbf" points="136.5,-0.5 136.5,-19.5 182.5,-19.5 182.5,-0.5 136.5,-0.5"/>
<text text-anchor="middle" x="159.5" y="-7.5" font-family="Helvetica,sans-Serif" font-size="10.00">atomic</text>
</a>
</g>
</g>
<!-- Node11&#45;&gt;Node14 -->
<g id="edge19" class="edge">
<title>Node11&#45;&gt;Node14</title>
<path fill="none" stroke="midnightblue" d="M112.38,-61.98C120.79,-52.87 134.32,-38.24 144.73,-26.98"/>
<polygon fill="midnightblue" stroke="midnightblue" points="147.42,-29.23 151.63,-19.51 142.28,-24.48 147.42,-29.23"/>
</g>
<!-- Node15&#45;&gt;Node3 -->
<g id="edge21" class="edge">
<title>Node15&#45;&gt;Node3</title>
<path fill="none" stroke="midnightblue" d="M314.73,-123.39C325.08,-104.74 345.94,-72.35 373.5,-56 405.2,-37.19 503.07,-23.54 565.39,-16.47"/>
<polygon fill="midnightblue" stroke="midnightblue" points="565.9,-19.94 575.45,-15.35 565.12,-12.98 565.9,-19.94"/>
</g>
<!-- Node15&#45;&gt;Node9 -->
<g id="edge24" class="edge">
<title>Node15&#45;&gt;Node9</title>
<path fill="none" stroke="midnightblue" d="M335.27,-123.4C357.44,-112.14 388.24,-96.5 409.83,-85.54"/>
<polygon fill="midnightblue" stroke="midnightblue" points="411.42,-88.66 418.75,-81.01 408.25,-82.41 411.42,-88.66"/>
</g>
<!-- Node15&#45;&gt;Node11 -->
<g id="edge22" class="edge">
<title>Node15&#45;&gt;Node11</title>
<path fill="none" stroke="midnightblue" d="M263.45,-123.4C226.73,-111.64 175.05,-95.09 140.7,-84.09"/>
<polygon fill="midnightblue" stroke="midnightblue" points="141.66,-80.72 131.07,-81.01 139.52,-87.39 141.66,-80.72"/>
</g>
<!-- Node15&#45;&gt;Node12 -->
<g id="edge23" class="edge">
<title>Node15&#45;&gt;Node12</title>
<path fill="none" stroke="midnightblue" d="M255.23,-134.57C185.75,-129.56 68.23,-116.83 38.5,-87 23.66,-72.11 21.74,-46.98 22.49,-29.72"/>
<polygon fill="midnightblue" stroke="midnightblue" points="25.98,-29.94 23.25,-19.7 19,-29.4 25.98,-29.94"/>
</g>
<!-- Node16&#45;&gt;Node3 -->
<g id="edge26" class="edge">
<title>Node16&#45;&gt;Node3</title>
<path fill="none" stroke="midnightblue" d="M673.74,-123.48C662.62,-100.41 640.47,-54.48 628.19,-29.03"/>
<polygon fill="midnightblue" stroke="midnightblue" points="631.23,-27.28 623.74,-19.79 624.93,-30.32 631.23,-27.28"/>
</g>
<!-- Node16&#45;&gt;Node8 -->
<g id="edge29" class="edge">
<title>Node16&#45;&gt;Node8</title>
<path fill="none" stroke="midnightblue" d="M650.56,-123.4C626.56,-112.09 593.16,-96.36 569.87,-85.39"/>
<polygon fill="midnightblue" stroke="midnightblue" points="571.1,-82.1 560.56,-81.01 568.12,-88.43 571.1,-82.1"/>
</g>
<!-- Node16&#45;&gt;Node17 -->
<g id="edge27" class="edge">
<title>Node16&#45;&gt;Node17</title>
<path fill="none" stroke="midnightblue" d="M716.09,-123.4C745.12,-111.89 785.72,-95.8 813.45,-84.81"/>
<polygon fill="midnightblue" stroke="midnightblue" points="815.03,-87.95 823.04,-81.01 812.45,-81.44 815.03,-87.95"/>
</g>
<!-- Node18 -->
<g id="node18" class="node">
<title>Node18</title>
<g id="a_node18"><a xlink:href="intrusive__ptr__impl_8hpp.html" target="_top" xlink:title=" ">
<polygon fill="none" stroke="black" points="667.5,-56.5 667.5,-86.5 781.5,-86.5 781.5,-56.5 667.5,-56.5"/>
<text text-anchor="start" x="675.5" y="-74.5" font-family="Helvetica,sans-Serif" font-size="10.00">yaclib/util/detail</text>
<text text-anchor="middle" x="724.5" y="-63.5" font-family="Helvetica,sans-Serif" font-size="10.00">/intrusive_ptr_impl.hpp</text>
</a>
</g>
</g>
<!-- Node16&#45;&gt;Node18 -->
<g id="edge30" class="edge">
<title>Node16&#45;&gt;Node18</title>
<path fill="none" stroke="midnightblue" d="M690.05,-123.4C695.64,-115.13 702.83,-104.51 709.2,-95.1"/>
<polygon fill="midnightblue" stroke="midnightblue" points="712.26,-96.82 714.97,-86.58 706.47,-92.9 712.26,-96.82"/>
</g>
<!-- Node17&#45;&gt;Node3 -->
<g id="edge28" class="edge">
<title>Node17&#45;&gt;Node3</title>
<path fill="none" stroke="midnightblue" d="M812.81,-61.96C805.49,-60 797.72,-57.92 790.5,-56 746.76,-44.37 696.68,-31.21 662.07,-22.14"/>
<polygon fill="midnightblue" stroke="midnightblue" points="662.86,-18.73 652.29,-19.58 661.08,-25.5 662.86,-18.73"/>
</g>
<!-- Node18&#45;&gt;Node3 -->
<g id="edge31" class="edge">
<title>Node18&#45;&gt;Node3</title>
<path fill="none" stroke="midnightblue" d="M699.62,-56.4C682.79,-46.86 660.66,-34.32 643.93,-24.84"/>
<polygon fill="midnightblue" stroke="midnightblue" points="645.2,-21.54 634.78,-19.66 641.75,-27.63 645.2,-21.54"/>
</g>
<!-- Node19 -->
<g id="node19" class="node">
<title>Node19</title>
<g id="a_node19"><a xlink:title=" ">
<polygon fill="none" stroke="#bfbfbf" points="700,-0.5 700,-19.5 749,-19.5 749,-0.5 700,-0.5"/>
<text text-anchor="middle" x="724.5" y="-7.5" font-family="Helvetica,sans-Serif" font-size="10.00">cassert</text>
</a>
</g>
</g>
<!-- Node18&#45;&gt;Node19 -->
<g id="edge32" class="edge">
<title>Node18&#45;&gt;Node19</title>
<path fill="none" stroke="midnightblue" d="M724.5,-56.4C724.5,-48.47 724.5,-38.46 724.5,-29.86"/>
<polygon fill="midnightblue" stroke="midnightblue" points="728,-29.66 724.5,-19.66 721,-29.66 728,-29.66"/>
</g>
<!-- Node20&#45;&gt;Node3 -->
<g id="edge39" class="edge">
<title>Node20&#45;&gt;Node3</title>
<path fill="none" stroke="midnightblue" d="M823.23,-375C859.23,-334.37 1005.08,-157.8 917.5,-56 913.54,-51.4 758.52,-29.79 673.68,-18.27"/>
<polygon fill="midnightblue" stroke="midnightblue" points="674.07,-14.8 663.69,-16.92 673.13,-21.73 674.07,-14.8"/>
</g>
<!-- Node20&#45;&gt;Node4 -->
<g id="edge40" class="edge">
<title>Node20&#45;&gt;Node4</title>
<path fill="none" stroke="midnightblue" d="M786.84,-374.98C751.94,-364.59 692.85,-347.01 654,-335.45"/>
<polygon fill="midnightblue" stroke="midnightblue" points="654.68,-332.01 644.1,-332.51 652.69,-338.72 654.68,-332.01"/>
</g>
<!-- Node20&#45;&gt;Node16 -->
<g id="edge41" class="edge">
<title>Node20&#45;&gt;Node16</title>
<path fill="none" stroke="midnightblue" d="M813.03,-374.81C804.72,-346.44 775.75,-254.69 731.5,-190 724.21,-179.34 714.46,-169.04 705.44,-160.54"/>
<polygon fill="midnightblue" stroke="midnightblue" points="707.54,-157.72 697.79,-153.59 702.83,-162.9 707.54,-157.72"/>
</g>
<!-- Node21&#45;&gt;Node3 -->
<g id="edge43" class="edge">
<title>Node21&#45;&gt;Node3</title>
<path fill="none" stroke="midnightblue" d="M958.57,-436.22C969.33,-416.72 993.5,-368.03 993.5,-324 993.5,-324 993.5,-324 993.5,-137.5 993.5,-94.05 976.25,-79.18 939.5,-56 933.92,-52.48 763.52,-29.8 673.71,-18.05"/>
<polygon fill="midnightblue" stroke="midnightblue" points="674.07,-14.57 663.7,-16.74 673.16,-21.51 674.07,-14.57"/>
</g>
<!-- Node21&#45;&gt;Node20 -->
<g id="edge44" class="edge">
<title>Node21&#45;&gt;Node20</title>
<path fill="none" stroke="midnightblue" d="M933.73,-436.48C910.36,-426.4 871.29,-409.55 844.5,-398"/>
<polygon fill="midnightblue" stroke="midnightblue" points="845.8,-394.75 835.24,-394.01 843.03,-401.18 845.8,-394.75"/>
</g>
</g>
</svg>
