<?xml version="1.0" encoding="UTF-8" standalone="no"?>
<!DOCTYPE svg PUBLIC "-//W3C//DTD SVG 1.1//EN"
 "http://www.w3.org/Graphics/SVG/1.1/DTD/svg11.dtd">
<!-- Generated by graphviz version 2.50.0 (20220203.2022)
 -->
<!-- Title: src/async/base_core.cpp Pages: 1 -->
<svg width="1091pt" height="587pt"
 viewBox="0.00 0.00 1090.67 587.00" xmlns="http://www.w3.org/2000/svg" xmlns:xlink="http://www.w3.org/1999/xlink">
<g id="graph0" class="graph" transform="scale(1 1) rotate(0) translate(4 583)">
<title>src/async/base_core.cpp</title>
<!-- Node1 -->
<g id="node1" class="node">
<title>Node1</title>
<g id="a_node1"><a xlink:title=" ">
<polygon fill="#bfbfbf" stroke="black" points="774,-559.5 774,-578.5 899,-578.5 899,-559.5 774,-559.5"/>
<text text-anchor="middle" x="836.5" y="-566.5" font-family="Helvetica,sans-Serif" font-size="10.00">src/async/base_core.cpp</text>
</a>
</g>
</g>
<!-- Node2 -->
<g id="node2" class="node">
<title>Node2</title>
<g id="a_node2"><a xlink:href="base__core_8hpp.html" target="_top" xlink:title=" ">
<polygon fill="none" stroke="black" points="567.5,-492.5 567.5,-522.5 663.5,-522.5 663.5,-492.5 567.5,-492.5"/>
<text text-anchor="start" x="575.5" y="-510.5" font-family="Helvetica,sans-Serif" font-size="10.00">yaclib/async/detail</text>
<text text-anchor="middle" x="615.5" y="-499.5" font-family="Helvetica,sans-Serif" font-size="10.00">/base_core.hpp</text>
</a>
</g>
</g>
<!-- Node1&#45;&gt;Node2 -->
<g id="edge1" class="edge">
<title>Node1&#45;&gt;Node2</title>
<path fill="none" stroke="midnightblue" d="M804.84,-559.48C770.69,-550.28 715.6,-535.45 673.62,-524.15"/>
<polygon fill="midnightblue" stroke="midnightblue" points="674.36,-520.72 663.8,-521.5 672.54,-527.48 674.36,-520.72"/>
</g>
<!-- Node3 -->
<g id="node3" class="node">
<title>Node3</title>
<g id="a_node3"><a xlink:href="inline__core_8hpp.html" target="_top" xlink:title=" ">
<polygon fill="none" stroke="black" points="902.5,-369.5 902.5,-399.5 998.5,-399.5 998.5,-369.5 902.5,-369.5"/>
<text text-anchor="start" x="910.5" y="-387.5" font-family="Helvetica,sans-Serif" font-size="10.00">yaclib/async/detail</text>
<text text-anchor="middle" x="950.5" y="-376.5" font-family="Helvetica,sans-Serif" font-size="10.00">/inline_core.hpp</text>
</a>
</g>
</g>
<!-- Node1&#45;&gt;Node3 -->
<g id="edge50" class="edge">
<title>Node1&#45;&gt;Node3</title>
<path fill="none" stroke="midnightblue" d="M849.45,-559.28C860.93,-551.03 877.51,-537.74 888.5,-523 915.12,-487.28 933.74,-438.32 943.24,-409.49"/>
<polygon fill="midnightblue" stroke="midnightblue" points="946.61,-410.43 946.32,-399.84 939.94,-408.3 946.61,-410.43"/>
</g>
<!-- Node4 -->
<g id="node4" class="node">
<title>Node4</title>
<g id="a_node4"><a xlink:title=" ">
<polygon fill="none" stroke="#bfbfbf" points="476.5,-0.5 476.5,-19.5 564.5,-19.5 564.5,-0.5 476.5,-0.5"/>
<text text-anchor="middle" x="520.5" y="-7.5" font-family="Helvetica,sans-Serif" font-size="10.00">yaclib/config.hpp</text>
</a>
</g>
</g>
<!-- Node1&#45;&gt;Node4 -->
<g id="edge51" class="edge">
<title>Node1&#45;&gt;Node4</title>
<path fill="none" stroke="midnightblue" d="M894.99,-559.48C956.51,-546.82 1044.5,-516.56 1044.5,-447 1044.5,-447 1044.5,-447 1044.5,-137.5 1044.5,-91.17 1020.21,-78.12 979.5,-56 910.98,-18.78 681.05,-12.15 574.96,-11.1"/>
<polygon fill="midnightblue" stroke="midnightblue" points="574.82,-7.6 564.79,-11.02 574.76,-14.6 574.82,-7.6"/>
</g>
<!-- Node5 -->
<g id="node5" class="node">
<title>Node5</title>
<g id="a_node5"><a xlink:href="task_8hpp.html" target="_top" xlink:title=" ">
<polygon fill="none" stroke="black" points="827,-313.5 827,-332.5 948,-332.5 948,-313.5 827,-313.5"/>
<text text-anchor="middle" x="887.5" y="-320.5" font-family="Helvetica,sans-Serif" font-size="10.00">yaclib/executor/task.hpp</text>
</a>
</g>
</g>
<!-- Node1&#45;&gt;Node5 -->
<g id="edge53" class="edge">
<title>Node1&#45;&gt;Node5</title>
<path fill="none" stroke="midnightblue" d="M838.32,-559.32C845.67,-524.11 873.38,-391.56 883.64,-342.45"/>
<polygon fill="midnightblue" stroke="midnightblue" points="887.09,-343.08 885.71,-332.58 880.23,-341.65 887.09,-343.08"/>
</g>
<!-- Node10 -->
<g id="node10" class="node">
<title>Node10</title>
<g id="a_node10"><a xlink:title=" ">
<polygon fill="none" stroke="#bfbfbf" points="799,-62 799,-81 838,-81 838,-62 799,-62"/>
<text text-anchor="middle" x="818.5" y="-69" font-family="Helvetica,sans-Serif" font-size="10.00">utility</text>
</a>
</g>
</g>
<!-- Node1&#45;&gt;Node10 -->
<g id="edge56" class="edge">
<title>Node1&#45;&gt;Node10</title>
<path fill="none" stroke="midnightblue" d="M831.84,-559.48C821.69,-540.12 798.5,-491.04 798.5,-447 798.5,-447 798.5,-447 798.5,-383.5 798.5,-272.54 811.34,-139.76 816.44,-91.34"/>
<polygon fill="midnightblue" stroke="midnightblue" points="819.95,-91.46 817.54,-81.14 812.99,-90.71 819.95,-91.46"/>
</g>
<!-- Node17 -->
<g id="node17" class="node">
<title>Node17</title>
<g id="a_node17"><a xlink:href="intrusive__ptr_8hpp.html" target="_top" xlink:title=" ">
<polygon fill="none" stroke="black" points="482,-123.5 482,-153.5 579,-153.5 579,-123.5 482,-123.5"/>
<text text-anchor="start" x="490" y="-141.5" font-family="Helvetica,sans-Serif" font-size="10.00">yaclib/util/intrusive</text>
<text text-anchor="middle" x="530.5" y="-130.5" font-family="Helvetica,sans-Serif" font-size="10.00">_ptr.hpp</text>
</a>
</g>
</g>
<!-- Node1&#45;&gt;Node17 -->
<g id="edge54" class="edge">
<title>Node1&#45;&gt;Node17</title>
<path fill="none" stroke="midnightblue" d="M773.73,-564.74C589.89,-554.37 65.5,-518.51 65.5,-447 65.5,-447 65.5,-447 65.5,-383.5 65.5,-292.52 348.16,-195.08 472.73,-156.57"/>
<polygon fill="midnightblue" stroke="midnightblue" points="473.96,-159.85 482.49,-153.57 471.9,-153.16 473.96,-159.85"/>
</g>
<!-- Node20 -->
<g id="node20" class="node">
<title>Node20</title>
<g id="a_node20"><a xlink:title=" ">
<polygon fill="none" stroke="#bfbfbf" points="878,-0.5 878,-19.5 927,-19.5 927,-0.5 878,-0.5"/>
<text text-anchor="middle" x="902.5" y="-7.5" font-family="Helvetica,sans-Serif" font-size="10.00">cassert</text>
</a>
</g>
</g>
<!-- Node1&#45;&gt;Node20 -->
<g id="edge55" class="edge">
<title>Node1&#45;&gt;Node20</title>
<path fill="none" stroke="midnightblue" d="M899.04,-562.4C956.25,-556.05 1035.4,-543.77 1058.5,-523 1084.84,-499.31 1082.5,-482.42 1082.5,-447 1082.5,-447 1082.5,-447 1082.5,-137.5 1082.5,-99.74 1085.27,-82.63 1058.5,-56 1026.26,-23.94 972.71,-14.41 937.51,-11.76"/>
<polygon fill="midnightblue" stroke="midnightblue" points="937.41,-8.24 927.21,-11.13 936.98,-15.23 937.41,-8.24"/>
</g>
<!-- Node21 -->
<g id="node21" class="node">
<title>Node21</title>
<g id="a_node21"><a xlink:href="executor_8hpp.html" target="_top" xlink:title=" ">
<polygon fill="none" stroke="black" points="592,-375 592,-394 731,-394 731,-375 592,-375"/>
<text text-anchor="middle" x="661.5" y="-382" font-family="Helvetica,sans-Serif" font-size="10.00">yaclib/executor/executor.hpp</text>
</a>
</g>
</g>
<!-- Node1&#45;&gt;Node21 -->
<g id="edge52" class="edge">
<title>Node1&#45;&gt;Node21</title>
<path fill="none" stroke="midnightblue" d="M825.79,-559.41C815.03,-550.62 798.12,-536.4 784.5,-523 742.45,-481.63 697.24,-428.62 675.18,-402.13"/>
<polygon fill="midnightblue" stroke="midnightblue" points="677.7,-399.68 668.63,-394.21 672.31,-404.15 677.7,-399.68"/>
</g>
<!-- Node2&#45;&gt;Node3 -->
<g id="edge2" class="edge">
<title>Node2&#45;&gt;Node3</title>
<path fill="none" stroke="midnightblue" d="M663.6,-501.88C712.36,-495.9 789.15,-482.87 850.5,-456 879.1,-443.47 907.83,-422.08 927.11,-406.14"/>
<polygon fill="midnightblue" stroke="midnightblue" points="929.37,-408.81 934.76,-399.69 924.86,-403.46 929.37,-408.81"/>
</g>
<!-- Node2&#45;&gt;Node4 -->
<g id="edge38" class="edge">
<title>Node2&#45;&gt;Node4</title>
<path fill="none" stroke="midnightblue" d="M567.44,-504.42C446.94,-497.9 141.5,-472.77 141.5,-385.5 141.5,-385.5 141.5,-385.5 141.5,-137.5 141.5,-83.87 182.15,-79.22 230.5,-56 306.7,-19.41 405.93,-11.35 466.34,-10.2"/>
<polygon fill="midnightblue" stroke="midnightblue" points="466.47,-13.7 476.42,-10.07 466.37,-6.7 466.47,-13.7"/>
</g>
<!-- Node2&#45;&gt;Node5 -->
<g id="edge46" class="edge">
<title>Node2&#45;&gt;Node5</title>
<path fill="none" stroke="midnightblue" d="M641.39,-492.32C658.89,-482.52 682.39,-468.97 702.5,-456 764.59,-415.95 834.84,-363.86 868.08,-338.78"/>
<polygon fill="midnightblue" stroke="midnightblue" points="870.21,-341.55 876.07,-332.73 865.99,-335.97 870.21,-341.55"/>
</g>
<!-- Node12 -->
<g id="node12" class="node">
<title>Node12</title>
<g id="a_node12"><a xlink:href="atomic_8hpp.html" target="_top" xlink:title=" ">
<polygon fill="none" stroke="black" points="0,-62 0,-81 113,-81 113,-62 0,-62"/>
<text text-anchor="middle" x="56.5" y="-69" font-family="Helvetica,sans-Serif" font-size="10.00">yaclib/fault/atomic.hpp</text>
</a>
</g>
</g>
<!-- Node2&#45;&gt;Node12 -->
<g id="edge47" class="edge">
<title>Node2&#45;&gt;Node12</title>
<path fill="none" stroke="midnightblue" d="M567.48,-504.45C451.19,-499.07 161.47,-483.07 127.5,-456 101.62,-435.37 103.5,-418.6 103.5,-385.5 103.5,-385.5 103.5,-385.5 103.5,-204.5 103.5,-161.31 80.89,-114.54 67.04,-89.93"/>
<polygon fill="midnightblue" stroke="midnightblue" points="69.95,-87.97 61.89,-81.08 63.9,-91.49 69.95,-87.97"/>
</g>
<!-- Node2&#45;&gt;Node17 -->
<g id="edge48" class="edge">
<title>Node2&#45;&gt;Node17</title>
<path fill="none" stroke="midnightblue" d="M586.48,-492.43C571.6,-483.84 554.36,-471.51 543.5,-456 524.88,-429.42 524.5,-417.95 524.5,-385.5 524.5,-385.5 524.5,-385.5 524.5,-266 524.5,-230.38 526.9,-189.17 528.67,-163.72"/>
<polygon fill="midnightblue" stroke="midnightblue" points="532.17,-163.75 529.4,-153.53 525.19,-163.25 532.17,-163.75"/>
</g>
<!-- Node18 -->
<g id="node18" class="node">
<title>Node18</title>
<g id="a_node18"><a xlink:href="ref_8hpp.html" target="_top" xlink:title=" ">
<polygon fill="none" stroke="black" points="249,-62 249,-81 338,-81 338,-62 249,-62"/>
<text text-anchor="middle" x="293.5" y="-69" font-family="Helvetica,sans-Serif" font-size="10.00">yaclib/util/ref.hpp</text>
</a>
</g>
</g>
<!-- Node2&#45;&gt;Node18 -->
<g id="edge49" class="edge">
<title>Node2&#45;&gt;Node18</title>
<path fill="none" stroke="midnightblue" d="M567.32,-500.58C469.23,-487.18 255.5,-450.53 255.5,-385.5 255.5,-385.5 255.5,-385.5 255.5,-204.5 255.5,-162.35 273.61,-115.48 284.83,-90.5"/>
<polygon fill="midnightblue" stroke="midnightblue" points="288.11,-91.76 289.14,-81.21 281.76,-88.81 288.11,-91.76"/>
</g>
<!-- Node2&#45;&gt;Node21 -->
<g id="edge39" class="edge">
<title>Node2&#45;&gt;Node21</title>
<path fill="none" stroke="midnightblue" d="M647.65,-492.34C662.33,-484.03 678.25,-472 686.5,-456 695.57,-438.41 684.99,-416.79 674.93,-402.16"/>
<polygon fill="midnightblue" stroke="midnightblue" points="677.69,-400 668.92,-394.05 672.07,-404.17 677.69,-400"/>
</g>
<!-- Node22 -->
<g id="node22" class="node">
<title>Node22</title>
<g id="a_node22"><a xlink:href="inline_8hpp.html" target="_top" xlink:title=" ">
<polygon fill="none" stroke="black" points="553,-436.5 553,-455.5 678,-455.5 678,-436.5 553,-436.5"/>
<text text-anchor="middle" x="615.5" y="-443.5" font-family="Helvetica,sans-Serif" font-size="10.00">yaclib/executor/inline.hpp</text>
</a>
</g>
</g>
<!-- Node2&#45;&gt;Node22 -->
<g id="edge43" class="edge">
<title>Node2&#45;&gt;Node22</title>
<path fill="none" stroke="midnightblue" d="M615.5,-492.4C615.5,-484.47 615.5,-474.46 615.5,-465.86"/>
<polygon fill="midnightblue" stroke="midnightblue" points="619,-465.66 615.5,-455.66 612,-465.66 619,-465.66"/>
</g>
<!-- Node3&#45;&gt;Node4 -->
<g id="edge3" class="edge">
<title>Node3&#45;&gt;Node4</title>
<path fill="none" stroke="midnightblue" d="M962.65,-369.26C979.12,-348.46 1006.5,-307.89 1006.5,-268 1006.5,-268 1006.5,-268 1006.5,-137.5 1006.5,-91.44 982.79,-78.31 942.5,-56 880.63,-21.75 674.28,-13.56 574.9,-11.61"/>
<polygon fill="midnightblue" stroke="midnightblue" points="574.83,-8.11 564.76,-11.42 574.7,-15.11 574.83,-8.11"/>
</g>
<!-- Node3&#45;&gt;Node5 -->
<g id="edge4" class="edge">
<title>Node3&#45;&gt;Node5</title>
<path fill="none" stroke="midnightblue" d="M935.57,-369.4C926.13,-360.49 913.92,-348.95 904.17,-339.74"/>
<polygon fill="midnightblue" stroke="midnightblue" points="906.34,-336.98 896.67,-332.66 901.53,-342.07 906.34,-336.98"/>
</g>
<!-- Node5&#45;&gt;Node4 -->
<g id="edge5" class="edge">
<title>Node5&#45;&gt;Node4</title>
<path fill="none" stroke="midnightblue" d="M887.19,-313.49C885.55,-269.09 877.56,-65.59 868.5,-56 829.47,-14.67 662.43,-9.68 574.74,-10.02"/>
<polygon fill="midnightblue" stroke="midnightblue" points="574.69,-6.52 564.71,-10.08 574.73,-13.52 574.69,-6.52"/>
</g>
<!-- Node6 -->
<g id="node6" class="node">
<title>Node6</title>
<g id="a_node6"><a xlink:href="node_8hpp.html" target="_top" xlink:title=" ">
<polygon fill="none" stroke="black" points="895,-190.5 895,-220.5 978,-220.5 978,-190.5 895,-190.5"/>
<text text-anchor="start" x="903" y="-208.5" font-family="Helvetica,sans-Serif" font-size="10.00">yaclib/util/detail</text>
<text text-anchor="middle" x="936.5" y="-197.5" font-family="Helvetica,sans-Serif" font-size="10.00">/node.hpp</text>
</a>
</g>
</g>
<!-- Node5&#45;&gt;Node6 -->
<g id="edge6" class="edge">
<title>Node5&#45;&gt;Node6</title>
<path fill="none" stroke="midnightblue" d="M891.18,-313.32C898.61,-295.81 915.61,-255.75 926.54,-229.97"/>
<polygon fill="midnightblue" stroke="midnightblue" points="929.86,-231.12 930.54,-220.55 923.41,-228.38 929.86,-231.12"/>
</g>
<!-- Node7 -->
<g id="node7" class="node">
<title>Node7</title>
<g id="a_node7"><a xlink:href="func_8hpp.html" target="_top" xlink:title=" ">
<polygon fill="none" stroke="black" points="648,-257.5 648,-276.5 745,-276.5 745,-257.5 648,-257.5"/>
<text text-anchor="middle" x="696.5" y="-264.5" font-family="Helvetica,sans-Serif" font-size="10.00">yaclib/util/func.hpp</text>
</a>
</g>
</g>
<!-- Node5&#45;&gt;Node7 -->
<g id="edge8" class="edge">
<title>Node5&#45;&gt;Node7</title>
<path fill="none" stroke="midnightblue" d="M857.24,-313.44C824.54,-304.2 772.32,-289.44 736.32,-279.26"/>
<polygon fill="midnightblue" stroke="midnightblue" points="737.2,-275.87 726.62,-276.52 735.29,-282.61 737.2,-275.87"/>
</g>
<!-- Node6&#45;&gt;Node4 -->
<g id="edge7" class="edge">
<title>Node6&#45;&gt;Node4</title>
<path fill="none" stroke="midnightblue" d="M939.86,-190.21C945.9,-160.55 954.82,-92.03 918.5,-56 894.55,-32.24 678.15,-18.64 574.88,-13.45"/>
<polygon fill="midnightblue" stroke="midnightblue" points="574.81,-9.95 564.65,-12.95 574.47,-16.94 574.81,-9.95"/>
</g>
<!-- Node7&#45;&gt;Node4 -->
<g id="edge9" class="edge">
<title>Node7&#45;&gt;Node4</title>
<path fill="none" stroke="midnightblue" d="M711.34,-257.36C760.28,-227.84 909.93,-128.79 846.5,-56 811.91,-16.31 658.14,-10.44 574.74,-10.27"/>
<polygon fill="midnightblue" stroke="midnightblue" points="574.68,-6.77 564.68,-10.28 574.68,-13.77 574.68,-6.77"/>
</g>
<!-- Node8 -->
<g id="node8" class="node">
<title>Node8</title>
<g id="a_node8"><a xlink:href="safe__call_8hpp.html" target="_top" xlink:title=" ">
<polygon fill="none" stroke="black" points="674,-123.5 674,-153.5 757,-153.5 757,-123.5 674,-123.5"/>
<text text-anchor="start" x="682" y="-141.5" font-family="Helvetica,sans-Serif" font-size="10.00">yaclib/util/detail</text>
<text text-anchor="middle" x="715.5" y="-130.5" font-family="Helvetica,sans-Serif" font-size="10.00">/safe_call.hpp</text>
</a>
</g>
</g>
<!-- Node7&#45;&gt;Node8 -->
<g id="edge10" class="edge">
<title>Node7&#45;&gt;Node8</title>
<path fill="none" stroke="midnightblue" d="M697.81,-257.31C700.66,-238.3 707.54,-192.47 711.84,-163.9"/>
<polygon fill="midnightblue" stroke="midnightblue" points="715.31,-164.3 713.34,-153.89 708.39,-163.26 715.31,-164.3"/>
</g>
<!-- Node9 -->
<g id="node9" class="node">
<title>Node9</title>
<g id="a_node9"><a xlink:title=" ">
<polygon fill="none" stroke="#bfbfbf" points="548.5,-62 548.5,-81 610.5,-81 610.5,-62 548.5,-62"/>
<text text-anchor="middle" x="579.5" y="-69" font-family="Helvetica,sans-Serif" font-size="10.00">type_traits</text>
</a>
</g>
</g>
<!-- Node7&#45;&gt;Node9 -->
<g id="edge36" class="edge">
<title>Node7&#45;&gt;Node9</title>
<path fill="none" stroke="midnightblue" d="M692.7,-257.26C682.58,-234.36 653.55,-171.04 621.5,-123 613.47,-110.97 603.09,-98.46 594.65,-88.9"/>
<polygon fill="midnightblue" stroke="midnightblue" points="597.15,-86.44 587.85,-81.35 591.94,-91.12 597.15,-86.44"/>
</g>
<!-- Node7&#45;&gt;Node10 -->
<g id="edge37" class="edge">
<title>Node7&#45;&gt;Node10</title>
<path fill="none" stroke="midnightblue" d="M701.9,-257.44C720.51,-227.91 782.25,-130 807.54,-89.88"/>
<polygon fill="midnightblue" stroke="midnightblue" points="810.51,-91.73 812.88,-81.41 804.59,-88 810.51,-91.73"/>
</g>
<!-- Node11 -->
<g id="node11" class="node">
<title>Node11</title>
<g id="a_node11"><a xlink:href="helper_8hpp.html" target="_top" xlink:title=" ">
<polygon fill="none" stroke="black" points="392.5,-196 392.5,-215 496.5,-215 496.5,-196 392.5,-196"/>
<text text-anchor="middle" x="444.5" y="-203" font-family="Helvetica,sans-Serif" font-size="10.00">yaclib/util/helper.hpp</text>
</a>
</g>
</g>
<!-- Node7&#45;&gt;Node11 -->
<g id="edge14" class="edge">
<title>Node7&#45;&gt;Node11</title>
<path fill="none" stroke="midnightblue" d="M660.39,-257.48C615.67,-246.92 539.42,-228.91 490.53,-217.37"/>
<polygon fill="midnightblue" stroke="midnightblue" points="491.08,-213.9 480.54,-215.01 489.47,-220.71 491.08,-213.9"/>
</g>
<!-- Node7&#45;&gt;Node17 -->
<g id="edge34" class="edge">
<title>Node7&#45;&gt;Node17</title>
<path fill="none" stroke="midnightblue" d="M685.09,-257.31C658.98,-237.41 594.31,-188.12 557.41,-160.01"/>
<polygon fill="midnightblue" stroke="midnightblue" points="559.19,-156.96 549.11,-153.68 554.94,-162.53 559.19,-156.96"/>
</g>
<!-- Node7&#45;&gt;Node18 -->
<g id="edge35" class="edge">
<title>Node7&#45;&gt;Node18</title>
<path fill="none" stroke="midnightblue" d="M647.87,-262.6C571.94,-256.71 429.17,-243.04 383.5,-221 344.42,-202.14 334.12,-191.62 312.5,-154 301.32,-134.55 296.72,-108.92 294.82,-91.64"/>
<polygon fill="midnightblue" stroke="midnightblue" points="298.26,-90.84 293.89,-81.19 291.29,-91.46 298.26,-90.84"/>
</g>
<!-- Node8&#45;&gt;Node4 -->
<g id="edge11" class="edge">
<title>Node8&#45;&gt;Node4</title>
<path fill="none" stroke="midnightblue" d="M699.41,-123.42C674.37,-101.57 628.04,-61.42 619.5,-56 598.77,-42.85 573.56,-31.45 553.76,-23.41"/>
<polygon fill="midnightblue" stroke="midnightblue" points="554.83,-20.07 544.24,-19.64 552.25,-26.58 554.83,-20.07"/>
</g>
<!-- Node8&#45;&gt;Node9 -->
<g id="edge12" class="edge">
<title>Node8&#45;&gt;Node9</title>
<path fill="none" stroke="midnightblue" d="M685.99,-123.4C662.34,-112.09 629.42,-96.36 606.47,-85.39"/>
<polygon fill="midnightblue" stroke="midnightblue" points="607.83,-82.16 597.3,-81.01 604.81,-88.48 607.83,-82.16"/>
</g>
<!-- Node8&#45;&gt;Node10 -->
<g id="edge13" class="edge">
<title>Node8&#45;&gt;Node10</title>
<path fill="none" stroke="midnightblue" d="M737.85,-123.4C755.12,-112.5 778.92,-97.48 796.18,-86.58"/>
<polygon fill="midnightblue" stroke="midnightblue" points="798.43,-89.3 805.02,-81.01 794.69,-83.38 798.43,-89.3"/>
</g>
<!-- Node11&#45;&gt;Node4 -->
<g id="edge15" class="edge">
<title>Node11&#45;&gt;Node4</title>
<path fill="none" stroke="midnightblue" d="M447.24,-195.86C452.03,-180.9 462.38,-149.24 472.5,-123 485.45,-89.41 502.39,-50.99 512.3,-29.01"/>
<polygon fill="midnightblue" stroke="midnightblue" points="515.61,-30.18 516.54,-19.62 509.23,-27.29 515.61,-30.18"/>
</g>
<!-- Node11&#45;&gt;Node12 -->
<g id="edge16" class="edge">
<title>Node11&#45;&gt;Node12</title>
<path fill="none" stroke="midnightblue" d="M419.34,-195.94C352.16,-173.09 168.46,-110.59 91.33,-84.35"/>
<polygon fill="midnightblue" stroke="midnightblue" points="92.2,-80.95 81.6,-81.04 89.94,-87.57 92.2,-80.95"/>
</g>
<!-- Node16 -->
<g id="node16" class="node">
<title>Node16</title>
<g id="a_node16"><a xlink:href="atomic__counter_8hpp.html" target="_top" xlink:title=" ">
<polygon fill="none" stroke="black" points="321.5,-123.5 321.5,-153.5 425.5,-153.5 425.5,-123.5 321.5,-123.5"/>
<text text-anchor="start" x="329.5" y="-141.5" font-family="Helvetica,sans-Serif" font-size="10.00">yaclib/util/detail</text>
<text text-anchor="middle" x="373.5" y="-130.5" font-family="Helvetica,sans-Serif" font-size="10.00">/atomic_counter.hpp</text>
</a>
</g>
</g>
<!-- Node11&#45;&gt;Node16 -->
<g id="edge21" class="edge">
<title>Node11&#45;&gt;Node16</title>
<path fill="none" stroke="midnightblue" d="M434.92,-195.73C425.14,-186.78 409.59,-172.54 396.59,-160.63"/>
<polygon fill="midnightblue" stroke="midnightblue" points="398.63,-157.76 388.89,-153.59 393.9,-162.92 398.63,-157.76"/>
</g>
<!-- Node11&#45;&gt;Node17 -->
<g id="edge26" class="edge">
<title>Node11&#45;&gt;Node17</title>
<path fill="none" stroke="midnightblue" d="M456.1,-195.73C468.28,-186.53 487.85,-171.73 503.87,-159.63"/>
<polygon fill="midnightblue" stroke="midnightblue" points="505.99,-162.41 511.86,-153.59 501.77,-156.83 505.99,-162.41"/>
</g>
<!-- Node12&#45;&gt;Node4 -->
<g id="edge17" class="edge">
<title>Node12&#45;&gt;Node4</title>
<path fill="none" stroke="midnightblue" d="M95.08,-61.98C105.56,-59.84 116.94,-57.68 127.5,-56 247.82,-36.86 390.11,-22.64 466.14,-15.71"/>
<polygon fill="midnightblue" stroke="midnightblue" points="466.78,-19.17 476.42,-14.78 466.15,-12.19 466.78,-19.17"/>
</g>
<!-- Node13 -->
<g id="node13" class="node">
<title>Node13</title>
<g id="a_node13"><a xlink:title=" ">
<polygon fill="none" stroke="#bfbfbf" points="237,-0.5 237,-19.5 286,-19.5 286,-0.5 237,-0.5"/>
<text text-anchor="middle" x="261.5" y="-7.5" font-family="Helvetica,sans-Serif" font-size="10.00">cstddef</text>
</a>
</g>
</g>
<!-- Node12&#45;&gt;Node13 -->
<g id="edge18" class="edge">
<title>Node12&#45;&gt;Node13</title>
<path fill="none" stroke="midnightblue" d="M85.87,-61.98C123.25,-51.13 187.7,-32.42 227.26,-20.94"/>
<polygon fill="midnightblue" stroke="midnightblue" points="228.37,-24.26 237,-18.11 226.42,-17.54 228.37,-24.26"/>
</g>
<!-- Node14 -->
<g id="node14" class="node">
<title>Node14</title>
<g id="a_node14"><a xlink:title=" ">
<polygon fill="none" stroke="#bfbfbf" points="1.5,-0.5 1.5,-19.5 47.5,-19.5 47.5,-0.5 1.5,-0.5"/>
<text text-anchor="middle" x="24.5" y="-7.5" font-family="Helvetica,sans-Serif" font-size="10.00">cstdint</text>
</a>
</g>
</g>
<!-- Node12&#45;&gt;Node14 -->
<g id="edge19" class="edge">
<title>Node12&#45;&gt;Node14</title>
<path fill="none" stroke="midnightblue" d="M51.92,-61.98C47.26,-53.32 39.91,-39.65 33.99,-28.65"/>
<polygon fill="midnightblue" stroke="midnightblue" points="36.9,-26.66 29.08,-19.51 30.73,-29.97 36.9,-26.66"/>
</g>
<!-- Node15 -->
<g id="node15" class="node">
<title>Node15</title>
<g id="a_node15"><a xlink:title=" ">
<polygon fill="none" stroke="#bfbfbf" points="65.5,-0.5 65.5,-19.5 111.5,-19.5 111.5,-0.5 65.5,-0.5"/>
<text text-anchor="middle" x="88.5" y="-7.5" font-family="Helvetica,sans-Serif" font-size="10.00">atomic</text>
</a>
</g>
</g>
<!-- Node12&#45;&gt;Node15 -->
<g id="edge20" class="edge">
<title>Node12&#45;&gt;Node15</title>
<path fill="none" stroke="midnightblue" d="M61.08,-61.98C65.74,-53.32 73.09,-39.65 79.01,-28.65"/>
<polygon fill="midnightblue" stroke="midnightblue" points="82.27,-29.97 83.92,-19.51 76.1,-26.66 82.27,-29.97"/>
</g>
<!-- Node16&#45;&gt;Node4 -->
<g id="edge22" class="edge">
<title>Node16&#45;&gt;Node4</title>
<path fill="none" stroke="midnightblue" d="M380.62,-123.2C390.02,-105.52 408.02,-75.4 430.5,-56 446.79,-41.94 468.24,-30.99 486.12,-23.41"/>
<polygon fill="midnightblue" stroke="midnightblue" points="487.68,-26.56 495.62,-19.55 485.04,-20.07 487.68,-26.56"/>
</g>
<!-- Node16&#45;&gt;Node10 -->
<g id="edge25" class="edge">
<title>Node16&#45;&gt;Node10</title>
<path fill="none" stroke="midnightblue" d="M425.61,-129.55C440.72,-127.33 457.26,-124.98 472.5,-123 613.11,-104.72 653.56,-127.32 789.5,-87 791.17,-86.5 792.86,-85.92 794.54,-85.27"/>
<polygon fill="midnightblue" stroke="midnightblue" points="796.18,-88.37 803.86,-81.07 793.3,-81.99 796.18,-88.37"/>
</g>
<!-- Node16&#45;&gt;Node12 -->
<g id="edge23" class="edge">
<title>Node16&#45;&gt;Node12</title>
<path fill="none" stroke="midnightblue" d="M321.15,-126.77C262.14,-114.67 166.79,-95.11 108.09,-83.08"/>
<polygon fill="midnightblue" stroke="midnightblue" points="108.78,-79.65 98.28,-81.07 107.38,-86.51 108.78,-79.65"/>
</g>
<!-- Node16&#45;&gt;Node13 -->
<g id="edge24" class="edge">
<title>Node16&#45;&gt;Node13</title>
<path fill="none" stroke="midnightblue" d="M372.03,-123.26C369.55,-105.64 363.05,-75.58 346.5,-56 333.34,-40.44 313.41,-29.49 296.16,-22.29"/>
<polygon fill="midnightblue" stroke="midnightblue" points="296.96,-18.85 286.38,-18.47 294.42,-25.37 296.96,-18.85"/>
</g>
<!-- Node17&#45;&gt;Node4 -->
<g id="edge27" class="edge">
<title>Node17&#45;&gt;Node4</title>
<path fill="none" stroke="midnightblue" d="M521.54,-123.1C516,-113.33 509.4,-99.88 506.5,-87 502.09,-67.43 507.6,-44.8 512.96,-29.36"/>
<polygon fill="midnightblue" stroke="midnightblue" points="516.25,-30.53 516.51,-19.94 509.71,-28.06 516.25,-30.53"/>
</g>
<!-- Node17&#45;&gt;Node9 -->
<g id="edge30" class="edge">
<title>Node17&#45;&gt;Node9</title>
<path fill="none" stroke="midnightblue" d="M541.13,-123.4C548.7,-113.36 558.89,-99.84 566.87,-89.25"/>
<polygon fill="midnightblue" stroke="midnightblue" points="569.72,-91.29 572.95,-81.19 564.13,-87.07 569.72,-91.29"/>
</g>
<!-- Node17&#45;&gt;Node18 -->
<g id="edge28" class="edge">
<title>Node17&#45;&gt;Node18</title>
<path fill="none" stroke="midnightblue" d="M481.97,-124.19C438.43,-112.25 375.26,-94.92 334.28,-83.68"/>
<polygon fill="midnightblue" stroke="midnightblue" points="335.19,-80.3 324.62,-81.03 333.33,-87.05 335.19,-80.3"/>
</g>
<!-- Node19 -->
<g id="node19" class="node">
<title>Node19</title>
<g id="a_node19"><a xlink:href="intrusive__ptr__impl_8hpp.html" target="_top" xlink:title=" ">
<polygon fill="none" stroke="black" points="666.5,-56.5 666.5,-86.5 780.5,-86.5 780.5,-56.5 666.5,-56.5"/>
<text text-anchor="start" x="674.5" y="-74.5" font-family="Helvetica,sans-Serif" font-size="10.00">yaclib/util/detail</text>
<text text-anchor="middle" x="723.5" y="-63.5" font-family="Helvetica,sans-Serif" font-size="10.00">/intrusive_ptr_impl.hpp</text>
</a>
</g>
</g>
<!-- Node17&#45;&gt;Node19 -->
<g id="edge31" class="edge">
<title>Node17&#45;&gt;Node19</title>
<path fill="none" stroke="midnightblue" d="M572.38,-123.4C601.59,-113.56 640.76,-100.37 671.9,-89.88"/>
<polygon fill="midnightblue" stroke="midnightblue" points="673.34,-93.09 681.7,-86.58 671.11,-86.45 673.34,-93.09"/>
</g>
<!-- Node18&#45;&gt;Node4 -->
<g id="edge29" class="edge">
<title>Node18&#45;&gt;Node4</title>
<path fill="none" stroke="midnightblue" d="M326.02,-61.98C366.06,-51.48 434.14,-33.64 478.2,-22.09"/>
<polygon fill="midnightblue" stroke="midnightblue" points="479.25,-25.43 488.04,-19.51 477.48,-18.66 479.25,-25.43"/>
</g>
<!-- Node19&#45;&gt;Node4 -->
<g id="edge32" class="edge">
<title>Node19&#45;&gt;Node4</title>
<path fill="none" stroke="midnightblue" d="M675.65,-56.47C640.17,-46.08 592.41,-32.08 559.3,-22.37"/>
<polygon fill="midnightblue" stroke="midnightblue" points="560.1,-18.96 549.52,-19.51 558.13,-25.68 560.1,-18.96"/>
</g>
<!-- Node19&#45;&gt;Node20 -->
<g id="edge33" class="edge">
<title>Node19&#45;&gt;Node20</title>
<path fill="none" stroke="midnightblue" d="M765.92,-56.4C797.09,-46.04 838.9,-32.14 868.02,-22.46"/>
<polygon fill="midnightblue" stroke="midnightblue" points="869.36,-25.7 877.75,-19.23 867.16,-19.06 869.36,-25.7"/>
</g>
<!-- Node21&#45;&gt;Node4 -->
<g id="edge40" class="edge">
<title>Node21&#45;&gt;Node4</title>
<path fill="none" stroke="midnightblue" d="M659.38,-374.79C648.9,-331.98 602.58,-144.94 587.5,-123 572.4,-101.02 554.25,-109.22 539.5,-87 528.12,-69.86 523.55,-46.44 521.72,-30.14"/>
<polygon fill="midnightblue" stroke="midnightblue" points="525.17,-29.39 520.82,-19.73 518.2,-30 525.17,-29.39"/>
</g>
<!-- Node21&#45;&gt;Node5 -->
<g id="edge41" class="edge">
<title>Node21&#45;&gt;Node5</title>
<path fill="none" stroke="midnightblue" d="M693.88,-374.98C733.74,-364.48 801.52,-346.64 845.39,-335.09"/>
<polygon fill="midnightblue" stroke="midnightblue" points="846.4,-338.44 855.18,-332.51 844.62,-331.67 846.4,-338.44"/>
</g>
<!-- Node21&#45;&gt;Node17 -->
<g id="edge42" class="edge">
<title>Node21&#45;&gt;Node17</title>
<path fill="none" stroke="midnightblue" d="M641.72,-374.98C624.67,-366.65 600.65,-352.41 586.5,-333 566.57,-305.66 544.78,-209.11 535.32,-163.59"/>
<polygon fill="midnightblue" stroke="midnightblue" points="538.73,-162.78 533.29,-153.69 531.87,-164.18 538.73,-162.78"/>
</g>
<!-- Node22&#45;&gt;Node4 -->
<g id="edge44" class="edge">
<title>Node22&#45;&gt;Node4</title>
<path fill="none" stroke="midnightblue" d="M597.48,-436.29C530.79,-402.82 298.8,-274.8 239.5,-87 235.35,-73.86 230.56,-66.48 239.5,-56 267.99,-22.58 392.4,-13.88 465.78,-11.68"/>
<polygon fill="midnightblue" stroke="midnightblue" points="466.32,-15.16 476.22,-11.4 466.13,-8.17 466.32,-15.16"/>
</g>
<!-- Node22&#45;&gt;Node21 -->
<g id="edge45" class="edge">
<title>Node22&#45;&gt;Node21</title>
<path fill="none" stroke="midnightblue" d="M622.09,-436.48C628.99,-427.55 640,-413.31 648.63,-402.14"/>
<polygon fill="midnightblue" stroke="midnightblue" points="651.57,-404.06 654.92,-394.01 646.04,-399.78 651.57,-404.06"/>
</g>
</g>
</svg>
