<?xml version="1.0" encoding="UTF-8" standalone="no"?>
<!DOCTYPE svg PUBLIC "-//W3C//DTD SVG 1.1//EN"
 "http://www.w3.org/Graphics/SVG/1.1/DTD/svg11.dtd">
<!-- Generated by graphviz version 2.50.0 (20220203.2022)
 -->
<!-- Title: include/yaclib/fault/chrono.hpp Pages: 1 -->
<!--zoomable 463 -->
<svg id="main" version="1.1" xmlns="http://www.w3.org/2000/svg" xmlns:xlink="http://www.w3.org/1999/xlink" xml:space="preserve" onload="init(evt)">
<style type="text/css"><![CDATA[
.edge:hover path { stroke: red; }
.edge:hover polygon { stroke: red; fill: red; }
]]></style>
<script type="text/javascript"><![CDATA[
var edges = document.getElementsByTagName('g');
if (edges && edges.length) {
  for (var i=0;i<edges.length;i++) {
    if (edges[i].id.substr(0,4)=='edge') {
      edges[i].setAttribute('class','edge');
    }
  }
}
]]></script>
        <defs>
                <circle id="rim" cx="0" cy="0" r="7"/>
                <circle id="rim2" cx="0" cy="0" r="3.5"/>
                <g id="zoomPlus">
                        <use xlink:href="#rim" fill="#404040">
                                <set attributeName="fill" to="#808080" begin="zoomplus.mouseover" end="zoomplus.mouseout"/>
                        </use>
                        <path d="M-4,0h8M0,-4v8" fill="none" stroke="white" stroke-width="1.5" pointer-events="none"/>
                </g>
                <g id="zoomMin">
                        <use xlink:href="#rim" fill="#404040">
                                <set attributeName="fill" to="#808080" begin="zoomminus.mouseover" end="zoomminus.mouseout"/>
                        </use>
                        <path d="M-4,0h8" fill="none" stroke="white" stroke-width="1.5" pointer-events="none"/>
                </g>
                <g id="dirArrow">
                        <path fill="none" stroke="white" stroke-width="1.5" d="M0,-3.0v7 M-2.5,-0.5L0,-3.0L2.5,-0.5"/>
                </g>
               <g id="resetDef">
                       <use xlink:href="#rim2" fill="#404040">
                               <set attributeName="fill" to="#808080" begin="reset.mouseover" end="reset.mouseout"/>
                       </use>
               </g>
        </defs>

<script type="text/javascript">
var viewWidth = 1401;
var viewHeight = 463;
var sectionId = 'dynsection-1';
</script>
<script xlink:href="svgpan.js"/>
<svg id="graph" class="graph">
<g id="viewport">
<title>include/yaclib/fault/chrono.hpp</title>
<!-- Node1 -->
<g id="node1" class="node">
<title>Node1</title>
<g id="a_node1"><a xlink:title=" ">
<polygon fill="#bfbfbf" stroke="black" points="25.21,-424.5 25.21,-454.5 122.21,-454.5 122.21,-424.5 25.21,-424.5"/>
<text text-anchor="start" x="33.21" y="-442.5" font-family="Helvetica,sans-Serif" font-size="10.00">include/yaclib/fault</text>
<text text-anchor="middle" x="73.71" y="-431.5" font-family="Helvetica,sans-Serif" font-size="10.00">/chrono.hpp</text>
</a>
</g>
</g>
<!-- Node2 -->
<g id="node2" class="node">
<title>Node2</title>
<g id="a_node2"><a xlink:href="recursive__timed__mutex_8hpp.html" target="_top" xlink:title=" ">
<polygon fill="none" stroke="black" points="24.21,-145.5 24.21,-186.5 139.21,-186.5 139.21,-145.5 24.21,-145.5"/>
<text text-anchor="start" x="32.21" y="-174.5" font-family="Helvetica,sans-Serif" font-size="10.00">include/yaclib/fault</text>
<text text-anchor="start" x="32.21" y="-163.5" font-family="Helvetica,sans-Serif" font-size="10.00">/detail/mutex/recursive</text>
<text text-anchor="middle" x="81.71" y="-152.5" font-family="Helvetica,sans-Serif" font-size="10.00">_timed_mutex.hpp</text>
</a>
</g>
</g>
<!-- Node1&#45;&gt;Node2 -->
<g id="edge1" class="edge">
<title>Node1&#45;&gt;Node2</title>
<path fill="none" stroke="midnightblue" d="M44.5,-417.76C35.44,-409.63 26.56,-399.48 21.71,-388 -6.85,-320.46 -7.52,-290.26 21.71,-223 28.01,-208.49 40.13,-196.04 51.84,-186.58"/>
<polygon fill="midnightblue" stroke="midnightblue" points="42.5,-420.65 52.42,-424.38 46.99,-415.28 42.5,-420.65"/>
</g>
<!-- Node4 -->
<g id="node4" class="node">
<title>Node4</title>
<g id="a_node4"><a xlink:href="shared__timed__mutex_8hpp.html" target="_top" xlink:title=" ">
<polygon fill="none" stroke="black" points="272.71,-145.5 272.71,-186.5 376.71,-186.5 376.71,-145.5 272.71,-145.5"/>
<text text-anchor="start" x="280.71" y="-174.5" font-family="Helvetica,sans-Serif" font-size="10.00">include/yaclib/fault</text>
<text text-anchor="start" x="280.71" y="-163.5" font-family="Helvetica,sans-Serif" font-size="10.00">/detail/mutex/shared</text>
<text text-anchor="middle" x="324.71" y="-152.5" font-family="Helvetica,sans-Serif" font-size="10.00">_timed_mutex.hpp</text>
</a>
</g>
</g>
<!-- Node1&#45;&gt;Node4 -->
<g id="edge3" class="edge">
<title>Node1&#45;&gt;Node4</title>
<path fill="none" stroke="midnightblue" d="M62.92,-415.07C44.8,-371.82 14.46,-278.81 59.71,-223 85.99,-190.58 203.23,-176.2 272.65,-170.42"/>
<polygon fill="midnightblue" stroke="midnightblue" points="59.81,-416.68 67,-424.46 66.23,-413.9 59.81,-416.68"/>
</g>
<!-- Node6 -->
<g id="node6" class="node">
<title>Node6</title>
<g id="a_node6"><a xlink:href="timed__mutex_8hpp.html" target="_top" xlink:title=" ">
<polygon fill="none" stroke="black" points="448.21,-151 448.21,-181 597.21,-181 597.21,-151 448.21,-151"/>
<text text-anchor="start" x="456.21" y="-169" font-family="Helvetica,sans-Serif" font-size="10.00">include/yaclib/fault</text>
<text text-anchor="middle" x="522.71" y="-158" font-family="Helvetica,sans-Serif" font-size="10.00">/detail/mutex/timed_mutex.hpp</text>
</a>
</g>
</g>
<!-- Node1&#45;&gt;Node6 -->
<g id="edge5" class="edge">
<title>Node1&#45;&gt;Node6</title>
<path fill="none" stroke="midnightblue" d="M72.22,-414.42C69.64,-364 66.88,-249.74 92.71,-223 138.3,-175.82 320.7,-195.74 385.71,-187 405.96,-184.28 427.87,-181.16 448.1,-178.21"/>
<polygon fill="midnightblue" stroke="midnightblue" points="68.72,-414.64 72.77,-424.43 75.71,-414.26 68.72,-414.64"/>
</g>
<!-- Node8 -->
<g id="node8" class="node">
<title>Node8</title>
<g id="a_node8"><a xlink:href="shared__mutex_8hpp.html" target="_top" xlink:title=" ">
<polygon fill="none" stroke="black" points="519.71,-357.5 519.71,-387.5 617.71,-387.5 617.71,-357.5 519.71,-357.5"/>
<text text-anchor="start" x="527.71" y="-375.5" font-family="Helvetica,sans-Serif" font-size="10.00">include/yaclib/fault</text>
<text text-anchor="middle" x="568.71" y="-364.5" font-family="Helvetica,sans-Serif" font-size="10.00">/shared_mutex.hpp</text>
</a>
</g>
</g>
<!-- Node1&#45;&gt;Node8 -->
<g id="edge7" class="edge">
<title>Node1&#45;&gt;Node8</title>
<path fill="none" stroke="midnightblue" d="M132.47,-434.25C216.88,-427.57 377.11,-412.76 511.71,-388 514.32,-387.52 516.99,-386.99 519.68,-386.42"/>
<polygon fill="midnightblue" stroke="midnightblue" points="132.01,-430.77 122.31,-435.04 132.55,-437.75 132.01,-430.77"/>
</g>
<!-- Node9 -->
<g id="node9" class="node">
<title>Node9</title>
<g id="a_node9"><a xlink:href="thread_8hpp.html" target="_top" xlink:title=" ">
<polygon fill="none" stroke="black" points="405.21,-357.5 405.21,-387.5 502.21,-387.5 502.21,-357.5 405.21,-357.5"/>
<text text-anchor="start" x="413.21" y="-375.5" font-family="Helvetica,sans-Serif" font-size="10.00">include/yaclib/fault</text>
<text text-anchor="middle" x="453.71" y="-364.5" font-family="Helvetica,sans-Serif" font-size="10.00">/thread.hpp</text>
</a>
</g>
</g>
<!-- Node1&#45;&gt;Node9 -->
<g id="edge8" class="edge">
<title>Node1&#45;&gt;Node9</title>
<path fill="none" stroke="midnightblue" d="M132.43,-428.46C207.34,-415.64 335.53,-393.72 405.19,-381.8"/>
<polygon fill="midnightblue" stroke="midnightblue" points="131.49,-425.07 122.22,-430.2 132.67,-431.97 131.49,-425.07"/>
</g>
<!-- Node3 -->
<g id="node3" class="node">
<title>Node3</title>
<g id="a_node3"><a xlink:href="recursive__timed__mutex_8cpp.html" target="_top" xlink:title=" ">
<polygon fill="none" stroke="black" points="19.71,-78.5 19.71,-108.5 143.71,-108.5 143.71,-78.5 19.71,-78.5"/>
<text text-anchor="start" x="27.71" y="-96.5" font-family="Helvetica,sans-Serif" font-size="10.00">src/fault/mutex/recursive</text>
<text text-anchor="middle" x="81.71" y="-85.5" font-family="Helvetica,sans-Serif" font-size="10.00">_timed_mutex.cpp</text>
</a>
</g>
</g>
<!-- Node2&#45;&gt;Node3 -->
<g id="edge2" class="edge">
<title>Node2&#45;&gt;Node3</title>
<path fill="none" stroke="midnightblue" d="M81.71,-135.08C81.71,-126.01 81.71,-116.45 81.71,-108.89"/>
<polygon fill="midnightblue" stroke="midnightblue" points="78.21,-135.36 81.71,-145.36 85.21,-135.36 78.21,-135.36"/>
</g>
<!-- Node5 -->
<g id="node5" class="node">
<title>Node5</title>
<g id="a_node5"><a xlink:href="shared__timed__mutex_8cpp.html" target="_top" xlink:title=" ">
<polygon fill="none" stroke="black" points="268.21,-78.5 268.21,-108.5 381.21,-108.5 381.21,-78.5 268.21,-78.5"/>
<text text-anchor="start" x="276.21" y="-96.5" font-family="Helvetica,sans-Serif" font-size="10.00">src/fault/mutex/shared</text>
<text text-anchor="middle" x="324.71" y="-85.5" font-family="Helvetica,sans-Serif" font-size="10.00">_timed_mutex.cpp</text>
</a>
</g>
</g>
<!-- Node4&#45;&gt;Node5 -->
<g id="edge4" class="edge">
<title>Node4&#45;&gt;Node5</title>
<path fill="none" stroke="midnightblue" d="M324.71,-135.08C324.71,-126.01 324.71,-116.45 324.71,-108.89"/>
<polygon fill="midnightblue" stroke="midnightblue" points="321.21,-135.36 324.71,-145.36 328.21,-135.36 321.21,-135.36"/>
</g>
<!-- Node7 -->
<g id="node7" class="node">
<title>Node7</title>
<g id="a_node7"><a xlink:href="timed__mutex_8cpp.html" target="_top" xlink:title=" ">
<polygon fill="none" stroke="black" points="468.71,-78.5 468.71,-108.5 576.71,-108.5 576.71,-78.5 468.71,-78.5"/>
<text text-anchor="start" x="476.71" y="-96.5" font-family="Helvetica,sans-Serif" font-size="10.00">src/fault/mutex/timed</text>
<text text-anchor="middle" x="522.71" y="-85.5" font-family="Helvetica,sans-Serif" font-size="10.00">_mutex.cpp</text>
</a>
</g>
</g>
<!-- Node6&#45;&gt;Node7 -->
<g id="edge6" class="edge">
<title>Node6&#45;&gt;Node7</title>
<path fill="none" stroke="midnightblue" d="M522.71,-140.73C522.71,-130.07 522.71,-117.91 522.71,-108.75"/>
<polygon fill="midnightblue" stroke="midnightblue" points="519.21,-140.73 522.71,-150.73 526.21,-140.73 519.21,-140.73"/>
</g>
<!-- Node10 -->
<g id="node10" class="node">
<title>Node10</title>
<g id="a_node10"><a xlink:href="thread__pool_8hpp.html" target="_top" xlink:title=" ">
<polygon fill="none" stroke="black" points="333.21,-290.5 333.21,-320.5 448.21,-320.5 448.21,-290.5 333.21,-290.5"/>
<text text-anchor="start" x="341.21" y="-308.5" font-family="Helvetica,sans-Serif" font-size="10.00">include/yaclib/executor</text>
<text text-anchor="middle" x="390.71" y="-297.5" font-family="Helvetica,sans-Serif" font-size="10.00">/thread_pool.hpp</text>
</a>
</g>
</g>
<!-- Node9&#45;&gt;Node10 -->
<g id="edge9" class="edge">
<title>Node9&#45;&gt;Node10</title>
<path fill="none" stroke="midnightblue" d="M432.9,-350.02C423.51,-340.34 412.69,-329.17 404.35,-320.58"/>
<polygon fill="midnightblue" stroke="midnightblue" points="430.57,-352.65 440.04,-357.4 435.59,-347.78 430.57,-352.65"/>
</g>
<!-- Node17 -->
<g id="node17" class="node">
<title>Node17</title>
<g id="a_node17"><a xlink:href="yielder_8hpp.html" target="_top" xlink:title=" ">
<polygon fill="none" stroke="black" points="839.21,-290.5 839.21,-320.5 936.21,-320.5 936.21,-290.5 839.21,-290.5"/>
<text text-anchor="start" x="847.21" y="-308.5" font-family="Helvetica,sans-Serif" font-size="10.00">include/yaclib/fault</text>
<text text-anchor="middle" x="887.71" y="-297.5" font-family="Helvetica,sans-Serif" font-size="10.00">/detail/yielder.hpp</text>
</a>
</g>
</g>
<!-- Node9&#45;&gt;Node17 -->
<g id="edge16" class="edge">
<title>Node9&#45;&gt;Node17</title>
<path fill="none" stroke="midnightblue" d="M512.37,-356.8C634.87,-333.56 768.67,-318.39 838.92,-311.21"/>
<polygon fill="midnightblue" stroke="midnightblue" points="511.61,-353.38 502.45,-358.71 512.93,-360.26 511.61,-353.38"/>
</g>
<!-- Node31 -->
<g id="node31" class="node">
<title>Node31</title>
<g id="a_node31"><a xlink:href="thread__factory_8cpp.html" target="_top" xlink:title=" ">
<polygon fill="none" stroke="black" points="466.71,-290.5 466.71,-320.5 566.71,-320.5 566.71,-290.5 466.71,-290.5"/>
<text text-anchor="start" x="474.71" y="-308.5" font-family="Helvetica,sans-Serif" font-size="10.00">src/executor/thread</text>
<text text-anchor="middle" x="516.71" y="-297.5" font-family="Helvetica,sans-Serif" font-size="10.00">_factory.cpp</text>
</a>
</g>
</g>
<!-- Node9&#45;&gt;Node31 -->
<g id="edge33" class="edge">
<title>Node9&#45;&gt;Node31</title>
<path fill="none" stroke="midnightblue" d="M474.53,-350.02C483.91,-340.34 494.73,-329.17 503.07,-320.58"/>
<polygon fill="midnightblue" stroke="midnightblue" points="471.83,-347.78 467.38,-357.4 476.85,-352.65 471.83,-347.78"/>
</g>
<!-- Node32 -->
<g id="node32" class="node">
<title>Node32</title>
<g id="a_node32"><a xlink:href="thread_8cpp.html" target="_top" xlink:title=" ">
<polygon fill="none" stroke="black" points="584.71,-296 584.71,-315 714.71,-315 714.71,-296 584.71,-296"/>
<text text-anchor="middle" x="649.71" y="-303" font-family="Helvetica,sans-Serif" font-size="10.00">src/fault/thread/thread.cpp</text>
</a>
</g>
</g>
<!-- Node9&#45;&gt;Node32 -->
<g id="edge34" class="edge">
<title>Node9&#45;&gt;Node32</title>
<path fill="none" stroke="midnightblue" d="M506.16,-354.11C544.29,-341.46 594.25,-324.89 624.06,-315.01"/>
<polygon fill="midnightblue" stroke="midnightblue" points="504.63,-350.93 496.24,-357.4 506.83,-357.57 504.63,-350.93"/>
</g>
<!-- Node11 -->
<g id="node11" class="node">
<title>Node11</title>
<g id="a_node11"><a xlink:href="src_2executor_2thread__pool_8cpp.html" target="_top" xlink:title=" ">
<polygon fill="none" stroke="black" points="719.71,-223.5 719.71,-253.5 819.71,-253.5 819.71,-223.5 719.71,-223.5"/>
<text text-anchor="start" x="727.71" y="-241.5" font-family="Helvetica,sans-Serif" font-size="10.00">src/executor/thread</text>
<text text-anchor="middle" x="769.71" y="-230.5" font-family="Helvetica,sans-Serif" font-size="10.00">_pool.cpp</text>
</a>
</g>
</g>
<!-- Node10&#45;&gt;Node11 -->
<g id="edge10" class="edge">
<title>Node10&#45;&gt;Node11</title>
<path fill="none" stroke="midnightblue" d="M458.48,-289.95C571.26,-270.27 602.36,-274.97 710.71,-254 713.61,-253.44 716.58,-252.83 719.57,-252.18"/>
<polygon fill="midnightblue" stroke="midnightblue" points="457.64,-286.55 448.4,-291.74 458.86,-293.44 457.64,-286.55"/>
</g>
<!-- Node12 -->
<g id="node12" class="node">
<title>Node12</title>
<g id="a_node12"><a xlink:href="simple_8cpp.html" target="_top" xlink:title=" ">
<polygon fill="none" stroke="black" points="102.21,-223.5 102.21,-253.5 203.21,-253.5 203.21,-223.5 102.21,-223.5"/>
<text text-anchor="start" x="110.21" y="-241.5" font-family="Helvetica,sans-Serif" font-size="10.00">test/example/async</text>
<text text-anchor="middle" x="152.71" y="-230.5" font-family="Helvetica,sans-Serif" font-size="10.00">/simple.cpp</text>
</a>
</g>
</g>
<!-- Node10&#45;&gt;Node12 -->
<g id="edge11" class="edge">
<title>Node10&#45;&gt;Node12</title>
<path fill="none" stroke="midnightblue" d="M329.68,-287.83C290.6,-277.16 240.48,-263.47 203.56,-253.39"/>
<polygon fill="midnightblue" stroke="midnightblue" points="328.79,-291.22 339.36,-290.48 330.64,-284.46 328.79,-291.22"/>
</g>
<!-- Node13 -->
<g id="node13" class="node">
<title>Node13</title>
<g id="a_node13"><a xlink:href="when__all_8cpp.html" target="_top" xlink:title=" ">
<polygon fill="none" stroke="black" points="221.21,-223.5 221.21,-253.5 322.21,-253.5 322.21,-223.5 221.21,-223.5"/>
<text text-anchor="start" x="229.21" y="-241.5" font-family="Helvetica,sans-Serif" font-size="10.00">test/example/async</text>
<text text-anchor="middle" x="271.71" y="-230.5" font-family="Helvetica,sans-Serif" font-size="10.00">/when_all.cpp</text>
</a>
</g>
</g>
<!-- Node10&#45;&gt;Node13 -->
<g id="edge12" class="edge">
<title>Node10&#45;&gt;Node13</title>
<path fill="none" stroke="midnightblue" d="M356.06,-285.57C337.34,-275.35 314.62,-262.94 297.48,-253.58"/>
<polygon fill="midnightblue" stroke="midnightblue" points="354.44,-288.67 364.89,-290.4 357.79,-282.53 354.44,-288.67"/>
</g>
<!-- Node14 -->
<g id="node14" class="node">
<title>Node14</title>
<g id="a_node14"><a xlink:href="when__any_8cpp.html" target="_top" xlink:title=" ">
<polygon fill="none" stroke="black" points="340.21,-223.5 340.21,-253.5 441.21,-253.5 441.21,-223.5 340.21,-223.5"/>
<text text-anchor="start" x="348.21" y="-241.5" font-family="Helvetica,sans-Serif" font-size="10.00">test/example/async</text>
<text text-anchor="middle" x="390.71" y="-230.5" font-family="Helvetica,sans-Serif" font-size="10.00">/when_any.cpp</text>
</a>
</g>
</g>
<!-- Node10&#45;&gt;Node14 -->
<g id="edge13" class="edge">
<title>Node10&#45;&gt;Node14</title>
<path fill="none" stroke="midnightblue" d="M390.71,-280.11C390.71,-271.15 390.71,-261.32 390.71,-253.58"/>
<polygon fill="midnightblue" stroke="midnightblue" points="387.21,-280.4 390.71,-290.4 394.21,-280.4 387.21,-280.4"/>
</g>
<!-- Node15 -->
<g id="node15" class="node">
<title>Node15</title>
<g id="a_node15"><a xlink:href="test_2example_2executor_2strand_8cpp.html" target="_top" xlink:title=" ">
<polygon fill="none" stroke="black" points="459.71,-223.5 459.71,-253.5 571.71,-253.5 571.71,-223.5 459.71,-223.5"/>
<text text-anchor="start" x="467.71" y="-241.5" font-family="Helvetica,sans-Serif" font-size="10.00">test/example/executor</text>
<text text-anchor="middle" x="515.71" y="-230.5" font-family="Helvetica,sans-Serif" font-size="10.00">/strand.cpp</text>
</a>
</g>
</g>
<!-- Node10&#45;&gt;Node15 -->
<g id="edge14" class="edge">
<title>Node10&#45;&gt;Node15</title>
<path fill="none" stroke="midnightblue" d="M426.84,-285.71C446.55,-275.46 470.55,-262.98 488.64,-253.58"/>
<polygon fill="midnightblue" stroke="midnightblue" points="425.09,-282.68 417.83,-290.4 428.32,-288.89 425.09,-282.68"/>
</g>
<!-- Node16 -->
<g id="node16" class="node">
<title>Node16</title>
<g id="a_node16"><a xlink:href="test_2example_2executor_2thread__pool_8cpp.html" target="_top" xlink:title=" ">
<polygon fill="none" stroke="black" points="589.71,-223.5 589.71,-253.5 701.71,-253.5 701.71,-223.5 589.71,-223.5"/>
<text text-anchor="start" x="597.71" y="-241.5" font-family="Helvetica,sans-Serif" font-size="10.00">test/example/executor</text>
<text text-anchor="middle" x="645.71" y="-230.5" font-family="Helvetica,sans-Serif" font-size="10.00">/thread_pool.cpp</text>
</a>
</g>
</g>
<!-- Node10&#45;&gt;Node16 -->
<g id="edge15" class="edge">
<title>Node10&#45;&gt;Node16</title>
<path fill="none" stroke="midnightblue" d="M455.5,-287.98C497.15,-277.37 550.69,-263.72 590.35,-253.61"/>
<polygon fill="midnightblue" stroke="midnightblue" points="454.55,-284.61 445.73,-290.48 456.28,-291.4 454.55,-284.61"/>
</g>
<!-- Node18 -->
<g id="node18" class="node">
<title>Node18</title>
<g id="a_node18"><a xlink:href="inject__fault_8hpp.html" target="_top" xlink:title=" ">
<polygon fill="none" stroke="black" points="956.21,-223.5 956.21,-253.5 1067.21,-253.5 1067.21,-223.5 956.21,-223.5"/>
<text text-anchor="start" x="964.21" y="-241.5" font-family="Helvetica,sans-Serif" font-size="10.00">include/yaclib/fault</text>
<text text-anchor="middle" x="1011.71" y="-230.5" font-family="Helvetica,sans-Serif" font-size="10.00">/detail/inject_fault.hpp</text>
</a>
</g>
</g>
<!-- Node17&#45;&gt;Node18 -->
<g id="edge17" class="edge">
<title>Node17&#45;&gt;Node18</title>
<path fill="none" stroke="midnightblue" d="M923.55,-285.71C943.1,-275.46 966.91,-262.98 984.86,-253.58"/>
<polygon fill="midnightblue" stroke="midnightblue" points="921.85,-282.65 914.62,-290.4 925.1,-288.85 921.85,-282.65"/>
</g>
<!-- Node30 -->
<g id="node30" class="node">
<title>Node30</title>
<g id="a_node30"><a xlink:href="yielder_8cpp.html" target="_top" xlink:title=" ">
<polygon fill="none" stroke="black" points="837.71,-223.5 837.71,-253.5 937.71,-253.5 937.71,-223.5 837.71,-223.5"/>
<text text-anchor="start" x="845.71" y="-241.5" font-family="Helvetica,sans-Serif" font-size="10.00">src/fault/antagonist</text>
<text text-anchor="middle" x="887.71" y="-230.5" font-family="Helvetica,sans-Serif" font-size="10.00">/yielder.cpp</text>
</a>
</g>
</g>
<!-- Node17&#45;&gt;Node30 -->
<g id="edge32" class="edge">
<title>Node17&#45;&gt;Node30</title>
<path fill="none" stroke="midnightblue" d="M887.71,-280.11C887.71,-271.15 887.71,-261.32 887.71,-253.58"/>
<polygon fill="midnightblue" stroke="midnightblue" points="884.21,-280.4 887.71,-290.4 891.21,-280.4 884.21,-280.4"/>
</g>
<!-- Node18&#45;&gt;Node2 -->
<g id="edge26" class="edge">
<title>Node18&#45;&gt;Node2</title>
<path fill="none" stroke="midnightblue" d="M946.22,-223.12C643.82,-182.4 563.44,-211.35 263.71,-187 222.05,-183.62 175.16,-178.43 139.42,-174.19"/>
<polygon fill="midnightblue" stroke="midnightblue" points="945.77,-226.59 956.15,-224.47 946.72,-219.65 945.77,-226.59"/>
</g>
<!-- Node18&#45;&gt;Node4 -->
<g id="edge29" class="edge">
<title>Node18&#45;&gt;Node4</title>
<path fill="none" stroke="midnightblue" d="M946.02,-223.07C721.42,-191.01 660.66,-213.99 439.71,-187 419.09,-184.48 396.55,-180.77 376.93,-177.23"/>
<polygon fill="midnightblue" stroke="midnightblue" points="945.74,-226.56 956.14,-224.53 946.75,-219.64 945.74,-226.56"/>
</g>
<!-- Node18&#45;&gt;Node6 -->
<g id="edge30" class="edge">
<title>Node18&#45;&gt;Node6</title>
<path fill="none" stroke="midnightblue" d="M945.9,-222.99C806.42,-200.03 768.41,-207.09 632.71,-187 620.81,-185.24 608.22,-183.16 595.97,-181.01"/>
<polygon fill="midnightblue" stroke="midnightblue" points="945.68,-226.5 956.12,-224.69 946.83,-219.6 945.68,-226.5"/>
</g>
<!-- Node19 -->
<g id="node19" class="node">
<title>Node19</title>
<g id="a_node19"><a xlink:href="atomic__base_8hpp.html" target="_top" xlink:title=" ">
<polygon fill="none" stroke="black" points="1019.21,-145.5 1019.21,-186.5 1126.21,-186.5 1126.21,-145.5 1019.21,-145.5"/>
<text text-anchor="start" x="1027.21" y="-174.5" font-family="Helvetica,sans-Serif" font-size="10.00">include/yaclib/fault</text>
<text text-anchor="start" x="1027.21" y="-163.5" font-family="Helvetica,sans-Serif" font-size="10.00">/detail/atomic/atomic</text>
<text text-anchor="middle" x="1072.71" y="-152.5" font-family="Helvetica,sans-Serif" font-size="10.00">_base.hpp</text>
</a>
</g>
</g>
<!-- Node18&#45;&gt;Node19 -->
<g id="edge18" class="edge">
<title>Node18&#45;&gt;Node19</title>
<path fill="none" stroke="midnightblue" d="M1030.71,-215.54C1038.73,-206.28 1047.98,-195.58 1055.76,-186.59"/>
<polygon fill="midnightblue" stroke="midnightblue" points="1027.95,-213.38 1024.06,-223.23 1033.25,-217.96 1027.95,-213.38"/>
</g>
<!-- Node22 -->
<g id="node22" class="node">
<title>Node22</title>
<g id="a_node22"><a xlink:href="atomic__flag_8hpp.html" target="_top" xlink:title=" ">
<polygon fill="none" stroke="black" points="1144.21,-145.5 1144.21,-186.5 1251.21,-186.5 1251.21,-145.5 1144.21,-145.5"/>
<text text-anchor="start" x="1152.21" y="-174.5" font-family="Helvetica,sans-Serif" font-size="10.00">include/yaclib/fault</text>
<text text-anchor="start" x="1152.21" y="-163.5" font-family="Helvetica,sans-Serif" font-size="10.00">/detail/atomic/atomic</text>
<text text-anchor="middle" x="1197.71" y="-152.5" font-family="Helvetica,sans-Serif" font-size="10.00">_flag.hpp</text>
</a>
</g>
</g>
<!-- Node18&#45;&gt;Node22 -->
<g id="edge21" class="edge">
<title>Node18&#45;&gt;Node22</title>
<path fill="none" stroke="midnightblue" d="M1058.41,-219.8C1085.12,-209.68 1118.66,-196.96 1146.14,-186.55"/>
<polygon fill="midnightblue" stroke="midnightblue" points="1057.01,-216.59 1048.9,-223.4 1059.5,-223.13 1057.01,-216.59"/>
</g>
<!-- Node23 -->
<g id="node23" class="node">
<title>Node23</title>
<g id="a_node23"><a xlink:href="detail_2mutex_2mutex_8hpp.html" target="_top" xlink:title=" ">
<polygon fill="none" stroke="black" points="1269.21,-151 1269.21,-181 1388.21,-181 1388.21,-151 1269.21,-151"/>
<text text-anchor="start" x="1277.21" y="-169" font-family="Helvetica,sans-Serif" font-size="10.00">include/yaclib/fault</text>
<text text-anchor="middle" x="1328.71" y="-158" font-family="Helvetica,sans-Serif" font-size="10.00">/detail/mutex/mutex.hpp</text>
</a>
</g>
</g>
<!-- Node18&#45;&gt;Node23 -->
<g id="edge22" class="edge">
<title>Node18&#45;&gt;Node23</title>
<path fill="none" stroke="midnightblue" d="M1077.51,-225.75C1127.91,-216.37 1199.03,-202.3 1260.71,-187 1267.88,-185.22 1275.42,-183.18 1282.77,-181.09"/>
<polygon fill="midnightblue" stroke="midnightblue" points="1076.6,-222.36 1067.4,-227.62 1077.87,-229.25 1076.6,-222.36"/>
</g>
<!-- Node25 -->
<g id="node25" class="node">
<title>Node25</title>
<g id="a_node25"><a xlink:href="recursive__mutex_8hpp.html" target="_top" xlink:title=" ">
<polygon fill="none" stroke="black" points="641.21,-145.5 641.21,-186.5 756.21,-186.5 756.21,-145.5 641.21,-145.5"/>
<text text-anchor="start" x="649.21" y="-174.5" font-family="Helvetica,sans-Serif" font-size="10.00">include/yaclib/fault</text>
<text text-anchor="start" x="649.21" y="-163.5" font-family="Helvetica,sans-Serif" font-size="10.00">/detail/mutex/recursive</text>
<text text-anchor="middle" x="698.71" y="-152.5" font-family="Helvetica,sans-Serif" font-size="10.00">_mutex.hpp</text>
</a>
</g>
</g>
<!-- Node18&#45;&gt;Node25 -->
<g id="edge24" class="edge">
<title>Node18&#45;&gt;Node25</title>
<path fill="none" stroke="midnightblue" d="M946.06,-222.9C866.51,-206.2 844.69,-205.16 769.71,-187 765.36,-185.94 760.86,-184.8 756.35,-183.62"/>
<polygon fill="midnightblue" stroke="midnightblue" points="945.55,-226.37 956.06,-225.01 947,-219.52 945.55,-226.37"/>
</g>
<!-- Node27 -->
<g id="node27" class="node">
<title>Node27</title>
<g id="a_node27"><a xlink:href="detail_2mutex_2shared__mutex_8hpp.html" target="_top" xlink:title=" ">
<polygon fill="none" stroke="black" points="778.71,-145.5 778.71,-186.5 882.71,-186.5 882.71,-145.5 778.71,-145.5"/>
<text text-anchor="start" x="786.71" y="-174.5" font-family="Helvetica,sans-Serif" font-size="10.00">include/yaclib/fault</text>
<text text-anchor="start" x="786.71" y="-163.5" font-family="Helvetica,sans-Serif" font-size="10.00">/detail/mutex/shared</text>
<text text-anchor="middle" x="830.71" y="-152.5" font-family="Helvetica,sans-Serif" font-size="10.00">_mutex.hpp</text>
</a>
</g>
</g>
<!-- Node18&#45;&gt;Node27 -->
<g id="edge27" class="edge">
<title>Node18&#45;&gt;Node27</title>
<path fill="none" stroke="midnightblue" d="M965.93,-219.67C939.99,-209.57 907.52,-196.92 880.89,-186.55"/>
<polygon fill="midnightblue" stroke="midnightblue" points="964.93,-223.03 975.52,-223.4 967.47,-216.51 964.93,-223.03"/>
</g>
<!-- Node29 -->
<g id="node29" class="node">
<title>Node29</title>
<g id="a_node29"><a xlink:href="inject__fault_8cpp.html" target="_top" xlink:title=" ">
<polygon fill="none" stroke="black" points="900.71,-151 900.71,-181 1000.71,-181 1000.71,-151 900.71,-151"/>
<text text-anchor="start" x="908.71" y="-169" font-family="Helvetica,sans-Serif" font-size="10.00">src/fault/antagonist</text>
<text text-anchor="middle" x="950.71" y="-158" font-family="Helvetica,sans-Serif" font-size="10.00">/inject_fault.cpp</text>
</a>
</g>
</g>
<!-- Node18&#45;&gt;Node29 -->
<g id="edge31" class="edge">
<title>Node18&#45;&gt;Node29</title>
<path fill="none" stroke="midnightblue" d="M992.71,-215.54C983.03,-204.36 971.55,-191.08 963.04,-181.25"/>
<polygon fill="midnightblue" stroke="midnightblue" points="990.18,-217.96 999.37,-223.23 995.47,-213.38 990.18,-217.96"/>
</g>
<!-- Node20 -->
<g id="node20" class="node">
<title>Node20</title>
<g id="a_node20"><a xlink:href="detail_2atomic_2atomic_8hpp.html" target="_top" xlink:title=" ">
<polygon fill="none" stroke="black" points="1010.21,-78.5 1010.21,-108.5 1135.21,-108.5 1135.21,-78.5 1010.21,-78.5"/>
<text text-anchor="start" x="1018.21" y="-96.5" font-family="Helvetica,sans-Serif" font-size="10.00">include/yaclib/fault</text>
<text text-anchor="middle" x="1072.71" y="-85.5" font-family="Helvetica,sans-Serif" font-size="10.00">/detail/atomic/atomic.hpp</text>
</a>
</g>
</g>
<!-- Node19&#45;&gt;Node20 -->
<g id="edge19" class="edge">
<title>Node19&#45;&gt;Node20</title>
<path fill="none" stroke="midnightblue" d="M1072.71,-135.08C1072.71,-126.01 1072.71,-116.45 1072.71,-108.89"/>
<polygon fill="midnightblue" stroke="midnightblue" points="1069.21,-135.36 1072.71,-145.36 1076.21,-135.36 1069.21,-135.36"/>
</g>
<!-- Node21 -->
<g id="node21" class="node">
<title>Node21</title>
<g id="a_node21"><a xlink:href="atomic__reference_8hpp.html" target="_top" xlink:title=" ">
<polygon fill="none" stroke="black" points="1019.21,-0.5 1019.21,-41.5 1126.21,-41.5 1126.21,-0.5 1019.21,-0.5"/>
<text text-anchor="start" x="1027.21" y="-29.5" font-family="Helvetica,sans-Serif" font-size="10.00">include/yaclib/fault</text>
<text text-anchor="start" x="1027.21" y="-18.5" font-family="Helvetica,sans-Serif" font-size="10.00">/detail/atomic/atomic</text>
<text text-anchor="middle" x="1072.71" y="-7.5" font-family="Helvetica,sans-Serif" font-size="10.00">_reference.hpp</text>
</a>
</g>
</g>
<!-- Node20&#45;&gt;Node21 -->
<g id="edge20" class="edge">
<title>Node20&#45;&gt;Node21</title>
<path fill="none" stroke="midnightblue" d="M1072.71,-67.98C1072.71,-59.35 1072.71,-49.76 1072.71,-41.59"/>
<polygon fill="midnightblue" stroke="midnightblue" points="1069.21,-68.23 1072.71,-78.23 1076.21,-68.23 1069.21,-68.23"/>
</g>
<!-- Node24 -->
<g id="node24" class="node">
<title>Node24</title>
<g id="a_node24"><a xlink:href="mutex_8cpp.html" target="_top" xlink:title=" ">
<polygon fill="none" stroke="black" points="1264.71,-84 1264.71,-103 1392.71,-103 1392.71,-84 1264.71,-84"/>
<text text-anchor="middle" x="1328.71" y="-91" font-family="Helvetica,sans-Serif" font-size="10.00">src/fault/mutex/mutex.cpp</text>
</a>
</g>
</g>
<!-- Node23&#45;&gt;Node24 -->
<g id="edge23" class="edge">
<title>Node23&#45;&gt;Node24</title>
<path fill="none" stroke="midnightblue" d="M1328.71,-140.59C1328.71,-127.71 1328.71,-112.7 1328.71,-103.39"/>
<polygon fill="midnightblue" stroke="midnightblue" points="1325.21,-140.73 1328.71,-150.73 1332.21,-140.73 1325.21,-140.73"/>
</g>
<!-- Node26 -->
<g id="node26" class="node">
<title>Node26</title>
<g id="a_node26"><a xlink:href="recursive__mutex_8cpp.html" target="_top" xlink:title=" ">
<polygon fill="none" stroke="black" points="633.71,-78.5 633.71,-108.5 757.71,-108.5 757.71,-78.5 633.71,-78.5"/>
<text text-anchor="start" x="641.71" y="-96.5" font-family="Helvetica,sans-Serif" font-size="10.00">src/fault/mutex/recursive</text>
<text text-anchor="middle" x="695.71" y="-85.5" font-family="Helvetica,sans-Serif" font-size="10.00">_mutex.cpp</text>
</a>
</g>
</g>
<!-- Node25&#45;&gt;Node26 -->
<g id="edge25" class="edge">
<title>Node25&#45;&gt;Node26</title>
<path fill="none" stroke="midnightblue" d="M697.44,-135.08C697.05,-126.01 696.65,-116.45 696.32,-108.89"/>
<polygon fill="midnightblue" stroke="midnightblue" points="693.95,-135.52 697.88,-145.36 700.95,-135.22 693.95,-135.52"/>
</g>
<!-- Node28 -->
<g id="node28" class="node">
<title>Node28</title>
<g id="a_node28"><a xlink:href="shared__mutex_8cpp.html" target="_top" xlink:title=" ">
<polygon fill="none" stroke="black" points="776.21,-78.5 776.21,-108.5 889.21,-108.5 889.21,-78.5 776.21,-78.5"/>
<text text-anchor="start" x="784.21" y="-96.5" font-family="Helvetica,sans-Serif" font-size="10.00">src/fault/mutex/shared</text>
<text text-anchor="middle" x="832.71" y="-85.5" font-family="Helvetica,sans-Serif" font-size="10.00">_mutex.cpp</text>
</a>
</g>
</g>
<!-- Node27&#45;&gt;Node28 -->
<g id="edge28" class="edge">
<title>Node27&#45;&gt;Node28</title>
<path fill="none" stroke="midnightblue" d="M831.56,-135.08C831.82,-126.01 832.09,-116.45 832.3,-108.89"/>
<polygon fill="midnightblue" stroke="midnightblue" points="828.05,-135.27 831.27,-145.36 835.05,-135.47 828.05,-135.27"/>
</g>
</g>
</svg>
        <g id="navigator" transform="translate(0 0)" fill="#404254">
                <rect fill="#f2f5e9" fill-opacity="0.5" stroke="#606060" stroke-width=".5" x="0" y="0" width="60" height="60"/>
                <use id="zoomplus" xlink:href="#zoomPlus" x="17" y="9" onmousedown="handleZoom(evt,'in')"/>
                <use id="zoomminus" xlink:href="#zoomMin" x="42" y="9" onmousedown="handleZoom(evt,'out')"/>
                <use id="reset" xlink:href="#resetDef" x="30" y="36" onmousedown="handleReset()"/>
                <g id="arrowUp" xlink:href="#dirArrow" transform="translate(30 24)" onmousedown="handlePan(0,-1)">
                  <use xlink:href="#rim" fill="#404040">
                        <set attributeName="fill" to="#808080" begin="arrowUp.mouseover" end="arrowUp.mouseout"/>
                  </use>
                  <path fill="none" stroke="white" stroke-width="1.5" d="M0,-3.0v7 M-2.5,-0.5L0,-3.0L2.5,-0.5"/>
                </g>
                <g id="arrowRight" xlink:href="#dirArrow" transform="rotate(90) translate(36 -43)" onmousedown="handlePan(1,0)">
                  <use xlink:href="#rim" fill="#404040">
                        <set attributeName="fill" to="#808080" begin="arrowRight.mouseover" end="arrowRight.mouseout"/>
                  </use>
                  <path fill="none" stroke="white" stroke-width="1.5" d="M0,-3.0v7 M-2.5,-0.5L0,-3.0L2.5,-0.5"/>
                </g>
                <g id="arrowDown" xlink:href="#dirArrow" transform="rotate(180) translate(-30 -48)" onmousedown="handlePan(0,1)">
                  <use xlink:href="#rim" fill="#404040">
                        <set attributeName="fill" to="#808080" begin="arrowDown.mouseover" end="arrowDown.mouseout"/>
                  </use>
                  <path fill="none" stroke="white" stroke-width="1.5" d="M0,-3.0v7 M-2.5,-0.5L0,-3.0L2.5,-0.5"/>
                </g>
                <g id="arrowLeft" xlink:href="#dirArrow" transform="rotate(270) translate(-36 17)" onmousedown="handlePan(-1,0)">
                  <use xlink:href="#rim" fill="#404040">
                        <set attributeName="fill" to="#808080" begin="arrowLeft.mouseover" end="arrowLeft.mouseout"/>
                  </use>
                  <path fill="none" stroke="white" stroke-width="1.5" d="M0,-3.0v7 M-2.5,-0.5L0,-3.0L2.5,-0.5"/>
                </g>
        </g>
        <svg viewBox="0 0 15 15" width="100%" height="30px" preserveAspectRatio="xMaxYMin meet">
         <g id="arrow_out" transform="scale(0.3 0.3)">
          <a xlink:href="chrono_8hpp__dep__incl_org.svg" target="_base">
           <rect id="button" ry="5" rx="5" y="6" x="6" height="38" width="38"
                fill="#f2f5e9" fill-opacity="0.5" stroke="#606060" stroke-width="1.0"/>
           <path id="arrow"
             d="M 11.500037,31.436501 C 11.940474,20.09759 22.043105,11.32322 32.158766,21.979434 L 37.068811,17.246167 C 37.068811,17.246167 37.088388,32 37.088388,32 L 22.160133,31.978069 C 22.160133,31.978069 26.997745,27.140456 26.997745,27.140456 C 18.528582,18.264221 13.291696,25.230495 11.500037,31.436501 z"
             style="fill:#404040;"/>
          </a>
         </g>
        </svg>
</svg>
