<?xml version="1.0" encoding="UTF-8" standalone="no"?>
<!DOCTYPE svg PUBLIC "-//W3C//DTD SVG 1.1//EN"
 "http://www.w3.org/Graphics/SVG/1.1/DTD/svg11.dtd">
<!-- Generated by graphviz version 2.50.0 (20220203.2022)
 -->
<!-- Title: yaclib::detail::UniqueTask&lt; Functor &gt; Pages: 1 -->
<svg width="325pt" height="299pt"
 viewBox="0.00 0.00 324.50 299.00" xmlns="http://www.w3.org/2000/svg" xmlns:xlink="http://www.w3.org/1999/xlink">
<g id="graph0" class="graph" transform="scale(1 1) rotate(0) translate(4 295)">
<title>yaclib::detail::UniqueTask&lt; Functor &gt;</title>
<!-- Node1 -->
<g id="node1" class="node">
<title>Node1</title>
<g id="a_node1"><a xlink:title=" ">
<polygon fill="#bfbfbf" stroke="black" points="140.5,-0.5 140.5,-30.5 266.5,-30.5 266.5,-0.5 140.5,-0.5"/>
<text text-anchor="start" x="148.5" y="-18.5" font-family="Helvetica,sans-Serif" font-size="10.00">yaclib::detail::UniqueTask</text>
<text text-anchor="middle" x="203.5" y="-7.5" font-family="Helvetica,sans-Serif" font-size="10.00">&lt; Functor &gt;</text>
</a>
</g>
</g>
<!-- Node2 -->
<g id="node2" class="node">
<title>Node2</title>
<g id="a_node2"><a xlink:href="classyaclib_1_1detail_1_1SafeCall.html" target="_top" xlink:title=" ">
<polygon fill="none" stroke="black" points="148.5,-68.5 148.5,-98.5 258.5,-98.5 258.5,-68.5 148.5,-68.5"/>
<text text-anchor="start" x="156.5" y="-86.5" font-family="Helvetica,sans-Serif" font-size="10.00">yaclib::detail::SafeCall</text>
<text text-anchor="middle" x="203.5" y="-75.5" font-family="Helvetica,sans-Serif" font-size="10.00">&lt; ITask, Functor &gt;</text>
</a>
</g>
</g>
<!-- Node2&#45;&gt;Node1 -->
<g id="edge1" class="edge">
<title>Node2&#45;&gt;Node1</title>
<path fill="none" stroke="midnightblue" d="M203.5,-58.03C203.5,-48.86 203.5,-38.74 203.5,-30.79"/>
<polygon fill="midnightblue" stroke="midnightblue" points="200,-58.18 203.5,-68.18 207,-58.18 200,-58.18"/>
</g>
<!-- Node3 -->
<g id="node3" class="node">
<title>Node3</title>
<g id="a_node3"><a xlink:href="classyaclib_1_1ITask.html" target="_top" xlink:title="Callable that can be executed in an IExecutor.">
<polygon fill="none" stroke="black" points="102,-152 102,-171 173,-171 173,-152 102,-152"/>
<text text-anchor="middle" x="137.5" y="-159" font-family="Helvetica,sans-Serif" font-size="10.00">yaclib::ITask</text>
</a>
</g>
</g>
<!-- Node3&#45;&gt;Node2 -->
<g id="edge2" class="edge">
<title>Node3&#45;&gt;Node2</title>
<path fill="none" stroke="midnightblue" d="M151.71,-144.14C163.51,-130.55 180.12,-111.42 191.32,-98.52"/>
<polygon fill="midnightblue" stroke="midnightblue" points="148.99,-141.94 145.07,-151.78 154.27,-146.53 148.99,-141.94"/>
</g>
<!-- Node4 -->
<g id="node4" class="node">
<title>Node4</title>
<g id="a_node4"><a xlink:href="classyaclib_1_1IFunc.html" target="_top" xlink:title="Shared callable interface.">
<polygon fill="none" stroke="black" points="0,-214.5 0,-233.5 71,-233.5 71,-214.5 0,-214.5"/>
<text text-anchor="middle" x="35.5" y="-221.5" font-family="Helvetica,sans-Serif" font-size="10.00">yaclib::IFunc</text>
</a>
</g>
</g>
<!-- Node4&#45;&gt;Node3 -->
<g id="edge3" class="edge">
<title>Node4&#45;&gt;Node3</title>
<path fill="none" stroke="midnightblue" d="M58.81,-209.17C78.54,-197.47 106.19,-181.07 122.91,-171.15"/>
<polygon fill="midnightblue" stroke="midnightblue" points="56.93,-206.22 50.11,-214.33 60.5,-212.24 56.93,-206.22"/>
</g>
<!-- Node5 -->
<g id="node5" class="node">
<title>Node5</title>
<g id="a_node5"><a xlink:href="classyaclib_1_1IRef.html" target="_top" xlink:title="Reference counting interface.">
<polygon fill="none" stroke="black" points="3.5,-271.5 3.5,-290.5 67.5,-290.5 67.5,-271.5 3.5,-271.5"/>
<text text-anchor="middle" x="35.5" y="-278.5" font-family="Helvetica,sans-Serif" font-size="10.00">yaclib::IRef</text>
</a>
</g>
</g>
<!-- Node5&#45;&gt;Node4 -->
<g id="edge4" class="edge">
<title>Node5&#45;&gt;Node4</title>
<path fill="none" stroke="midnightblue" d="M35.5,-261.12C35.5,-251.82 35.5,-241.06 35.5,-233.71"/>
<polygon fill="midnightblue" stroke="midnightblue" points="32,-261.41 35.5,-271.41 39,-261.41 32,-261.41"/>
</g>
<!-- Node6 -->
<g id="node6" class="node">
<title>Node6</title>
<g id="a_node6"><a xlink:href="structyaclib_1_1detail_1_1Node.html" target="_top" xlink:title="Node class, used in intrusive data structure.">
<polygon fill="none" stroke="black" points="89,-214.5 89,-233.5 186,-233.5 186,-214.5 89,-214.5"/>
<text text-anchor="middle" x="137.5" y="-221.5" font-family="Helvetica,sans-Serif" font-size="10.00">yaclib::detail::Node</text>
</a>
</g>
</g>
<!-- Node6&#45;&gt;Node3 -->
<g id="edge5" class="edge">
<title>Node6&#45;&gt;Node3</title>
<path fill="none" stroke="midnightblue" d="M137.5,-204C137.5,-193 137.5,-179.68 137.5,-171.15"/>
<polygon fill="midnightblue" stroke="midnightblue" points="134,-204.33 137.5,-214.33 141,-204.33 134,-204.33"/>
</g>
<!-- Node6&#45;&gt;Node6 -->
<g id="edge6" class="edge">
<title>Node6&#45;&gt;Node6</title>
<path fill="none" stroke="#9a32cd" stroke-dasharray="5,2" d="M196.38,-228C201.09,-227.13 204,-225.79 204,-224 204,-221.13 196.54,-219.44 186.21,-218.92"/>
<polygon fill="#9a32cd" stroke="#9a32cd" points="195.79,-224.55 186.21,-229.08 196.53,-231.51 195.79,-224.55"/>
<text text-anchor="middle" x="214.5" y="-221.5" font-family="Helvetica,sans-Serif" font-size="10.00"> next</text>
</g>
<!-- Node7 -->
<g id="node7" class="node">
<title>Node7</title>
<g id="a_node7"><a xlink:href="classyaclib_1_1detail_1_1SafeCall.html" target="_top" xlink:title=" ">
<polygon fill="none" stroke="black" points="203.5,-146.5 203.5,-176.5 313.5,-176.5 313.5,-146.5 203.5,-146.5"/>
<text text-anchor="start" x="211.5" y="-164.5" font-family="Helvetica,sans-Serif" font-size="10.00">yaclib::detail::SafeCall</text>
<text text-anchor="middle" x="258.5" y="-153.5" font-family="Helvetica,sans-Serif" font-size="10.00">&lt; Interface, Functor &gt;</text>
</a>
</g>
</g>
<!-- Node7&#45;&gt;Node2 -->
<g id="edge7" class="edge">
<title>Node7&#45;&gt;Node2</title>
<path fill="none" stroke="orange" stroke-dasharray="5,2" d="M242.17,-137.94C232.98,-125.23 221.78,-109.75 213.8,-98.73"/>
<polygon fill="orange" stroke="orange" points="239.46,-140.16 248.15,-146.2 245.13,-136.05 239.46,-140.16"/>
<text text-anchor="middle" x="275.5" y="-120" font-family="Helvetica,sans-Serif" font-size="10.00"> &lt; ITask, Functor &gt;</text>
</g>
<!-- Node8 -->
<g id="node8" class="node">
<title>Node8</title>
<g id="a_node8"><a xlink:href="classInterface.html" target="_top" xlink:title=" ">
<polygon fill="none" stroke="black" points="243,-214.5 243,-233.5 298,-233.5 298,-214.5 243,-214.5"/>
<text text-anchor="middle" x="270.5" y="-221.5" font-family="Helvetica,sans-Serif" font-size="10.00">Interface</text>
</a>
</g>
</g>
<!-- Node8&#45;&gt;Node7 -->
<g id="edge8" class="edge">
<title>Node8&#45;&gt;Node7</title>
<path fill="none" stroke="midnightblue" d="M266.83,-204.51C265.06,-195.59 262.97,-185.05 261.33,-176.76"/>
<polygon fill="midnightblue" stroke="midnightblue" points="263.4,-205.2 268.78,-214.33 270.27,-203.84 263.4,-205.2"/>
</g>
</g>
</svg>
