<?xml version="1.0" encoding="UTF-8" standalone="no"?>
<!DOCTYPE svg PUBLIC "-//W3C//DTD SVG 1.1//EN"
 "http://www.w3.org/Graphics/SVG/1.1/DTD/svg11.dtd">
<!-- Generated by graphviz version 2.50.0 (20220203.2022)
 -->
<!-- Title: yaclib::IntrusivePtr&lt; T &gt; Pages: 1 -->
<svg width="431pt" height="328pt"
 viewBox="0.00 0.00 431.00 328.00" xmlns="http://www.w3.org/2000/svg" xmlns:xlink="http://www.w3.org/1999/xlink">
<g id="graph0" class="graph" transform="scale(1 1) rotate(0) translate(4 324)">
<title>yaclib::IntrusivePtr&lt; T &gt;</title>
<!-- Node1 -->
<g id="node1" class="node">
<title>Node1</title>
<g id="a_node1"><a xlink:title="A intrusive pointer to objects with an embedded reference count.">
<polygon fill="#bfbfbf" stroke="black" points="0,-136 0,-155 119,-155 119,-136 0,-136"/>
<text text-anchor="middle" x="59.5" y="-143" font-family="Helvetica,sans-Serif" font-size="10.00">yaclib::IntrusivePtr&lt; T &gt;</text>
</a>
</g>
</g>
<!-- Node2 -->
<g id="node2" class="node">
<title>Node2</title>
<g id="a_node2"><a xlink:href="classyaclib_1_1IntrusivePtr.html" target="_top" xlink:title=" ">
<polygon fill="none" stroke="black" points="304,-289.5 304,-319.5 400,-319.5 400,-289.5 304,-289.5"/>
<text text-anchor="start" x="312" y="-307.5" font-family="Helvetica,sans-Serif" font-size="10.00">yaclib::IntrusivePtr</text>
<text text-anchor="middle" x="352" y="-296.5" font-family="Helvetica,sans-Serif" font-size="10.00">&lt; V, E &gt;</text>
</a>
</g>
</g>
<!-- Node1&#45;&gt;Node2 -->
<g id="edge1" class="edge">
<title>Node1&#45;&gt;Node2</title>
<path fill="none" stroke="orange" stroke-dasharray="5,2" d="M66.19,-164.96C75.72,-193.83 97.84,-247.4 137,-273.5 186.82,-306.71 257.63,-310.57 303.94,-308.76"/>
<polygon fill="orange" stroke="orange" points="69.47,-163.71 63.14,-155.21 62.78,-165.8 69.47,-163.71"/>
<text text-anchor="middle" x="200" y="-310.5" font-family="Helvetica,sans-Serif" font-size="10.00"> &lt; V, E &gt;</text>
</g>
<!-- Node3 -->
<g id="node3" class="node">
<title>Node3</title>
<g id="a_node3"><a xlink:href="classyaclib_1_1IntrusivePtr.html" target="_top" xlink:title=" ">
<polygon fill="none" stroke="black" points="304,-240.5 304,-270.5 400,-270.5 400,-240.5 304,-240.5"/>
<text text-anchor="start" x="312" y="-258.5" font-family="Helvetica,sans-Serif" font-size="10.00">yaclib::IntrusivePtr</text>
<text text-anchor="middle" x="352" y="-247.5" font-family="Helvetica,sans-Serif" font-size="10.00">&lt; V, StopError &gt;</text>
</a>
</g>
</g>
<!-- Node1&#45;&gt;Node3 -->
<g id="edge2" class="edge">
<title>Node1&#45;&gt;Node3</title>
<path fill="none" stroke="orange" stroke-dasharray="5,2" d="M71.22,-163.8C84.08,-183.89 107.62,-215.31 137,-230.5 189.33,-257.56 258.27,-260.78 303.58,-259.26"/>
<polygon fill="orange" stroke="orange" points="74.16,-161.89 65.93,-155.21 68.2,-165.56 74.16,-161.89"/>
<text text-anchor="middle" x="200" y="-261.5" font-family="Helvetica,sans-Serif" font-size="10.00"> &lt; V, StopError &gt;</text>
</g>
<!-- Node4 -->
<g id="node4" class="node">
<title>Node4</title>
<g id="a_node4"><a xlink:href="classyaclib_1_1IntrusivePtr.html" target="_top" xlink:title=" ">
<polygon fill="none" stroke="black" points="281,-147.5 281,-221.5 423,-221.5 423,-147.5 281,-147.5"/>
<text text-anchor="start" x="289" y="-209.5" font-family="Helvetica,sans-Serif" font-size="10.00">yaclib::IntrusivePtr</text>
<text text-anchor="start" x="289" y="-198.5" font-family="Helvetica,sans-Serif" font-size="10.00">&lt; std::conditional_t</text>
<text text-anchor="start" x="289" y="-187.5" font-family="Helvetica,sans-Serif" font-size="10.00">&lt; std::is_void_v&lt; V &gt;,</text>
<text text-anchor="start" x="289" y="-176.5" font-family="Helvetica,sans-Serif" font-size="10.00"> void, std::conditional</text>
<text text-anchor="start" x="289" y="-165.5" font-family="Helvetica,sans-Serif" font-size="10.00">_t&lt; 0 !=0, std::array&lt; V,</text>
<text text-anchor="middle" x="352" y="-154.5" font-family="Helvetica,sans-Serif" font-size="10.00"> 0 &gt;, std::vector&lt; V &gt; &gt; &gt;, E &gt;</text>
</a>
</g>
</g>
<!-- Node1&#45;&gt;Node4 -->
<g id="edge3" class="edge">
<title>Node1&#45;&gt;Node4</title>
<path fill="none" stroke="orange" stroke-dasharray="5,2" d="M129.4,-154.75C175.07,-160.88 234.83,-168.9 280.77,-175.07"/>
<polygon fill="orange" stroke="orange" points="129.66,-151.25 119.29,-153.39 128.73,-158.19 129.66,-151.25"/>
<text text-anchor="start" x="137" y="-218.5" font-family="Helvetica,sans-Serif" font-size="10.00"> &lt; std::conditional</text>
<text text-anchor="start" x="137" y="-207.5" font-family="Helvetica,sans-Serif" font-size="10.00">_t&lt; std::is_void_v&lt;</text>
<text text-anchor="start" x="137" y="-196.5" font-family="Helvetica,sans-Serif" font-size="10.00"> V &gt;, void, std::conditional</text>
<text text-anchor="start" x="137" y="-185.5" font-family="Helvetica,sans-Serif" font-size="10.00">_t&lt; 0 !=0, std::array&lt; V,</text>
<text text-anchor="middle" x="200" y="-174.5" font-family="Helvetica,sans-Serif" font-size="10.00"> 0 &gt;, std::vector&lt; V &gt; &gt; &gt;, E &gt;</text>
</g>
<!-- Node5 -->
<g id="node5" class="node">
<title>Node5</title>
<g id="a_node5"><a xlink:href="classyaclib_1_1IntrusivePtr.html" target="_top" xlink:title=" ">
<polygon fill="none" stroke="black" points="304,-98.5 304,-128.5 400,-128.5 400,-98.5 304,-98.5"/>
<text text-anchor="start" x="312" y="-116.5" font-family="Helvetica,sans-Serif" font-size="10.00">yaclib::IntrusivePtr</text>
<text text-anchor="middle" x="352" y="-105.5" font-family="Helvetica,sans-Serif" font-size="10.00">&lt; yaclib::ITask &gt;</text>
</a>
</g>
</g>
<!-- Node1&#45;&gt;Node5 -->
<g id="edge4" class="edge">
<title>Node1&#45;&gt;Node5</title>
<path fill="none" stroke="orange" stroke-dasharray="5,2" d="M129.43,-137.91C183.22,-131.98 256.51,-123.91 303.8,-118.7"/>
<polygon fill="orange" stroke="orange" points="128.84,-134.45 119.29,-139.02 129.61,-141.41 128.84,-134.45"/>
<text text-anchor="middle" x="200" y="-139.5" font-family="Helvetica,sans-Serif" font-size="10.00"> &lt; yaclib::ITask &gt;</text>
</g>
<!-- Node6 -->
<g id="node6" class="node">
<title>Node6</title>
<g id="a_node6"><a xlink:href="classyaclib_1_1IntrusivePtr.html" target="_top" xlink:title=" ">
<polygon fill="none" stroke="black" points="304,-49.5 304,-79.5 400,-79.5 400,-49.5 304,-49.5"/>
<text text-anchor="start" x="312" y="-67.5" font-family="Helvetica,sans-Serif" font-size="10.00">yaclib::IntrusivePtr</text>
<text text-anchor="middle" x="352" y="-56.5" font-family="Helvetica,sans-Serif" font-size="10.00">&lt; IExecutor &gt;</text>
</a>
</g>
</g>
<!-- Node1&#45;&gt;Node6 -->
<g id="edge5" class="edge">
<title>Node1&#45;&gt;Node6</title>
<path fill="none" stroke="orange" stroke-dasharray="5,2" d="M86.2,-131.09C100.73,-123.45 119.46,-114.44 137,-108.5 192.86,-89.58 259.82,-77.41 303.78,-70.77"/>
<polygon fill="orange" stroke="orange" points="84.46,-128.05 77.3,-135.87 87.77,-134.22 84.46,-128.05"/>
<text text-anchor="middle" x="200" y="-111.5" font-family="Helvetica,sans-Serif" font-size="10.00"> &lt; IExecutor &gt;</text>
</g>
<!-- Node7 -->
<g id="node7" class="node">
<title>Node7</title>
<g id="a_node7"><a xlink:href="classyaclib_1_1IntrusivePtr.html" target="_top" xlink:title=" ">
<polygon fill="none" stroke="black" points="304,-0.5 304,-30.5 400,-30.5 400,-0.5 304,-0.5"/>
<text text-anchor="start" x="312" y="-18.5" font-family="Helvetica,sans-Serif" font-size="10.00">yaclib::IntrusivePtr</text>
<text text-anchor="middle" x="352" y="-7.5" font-family="Helvetica,sans-Serif" font-size="10.00">&lt; yaclib::IRef &gt;</text>
</a>
</g>
</g>
<!-- Node1&#45;&gt;Node7 -->
<g id="edge6" class="edge">
<title>Node1&#45;&gt;Node7</title>
<path fill="none" stroke="orange" stroke-dasharray="5,2" d="M72.21,-127.3C85.53,-108.11 109.1,-78.52 137,-62.5 189.12,-32.58 258.42,-21.69 303.84,-17.73"/>
<polygon fill="orange" stroke="orange" points="69.18,-125.52 66.51,-135.77 74.99,-129.42 69.18,-125.52"/>
<text text-anchor="middle" x="200" y="-65.5" font-family="Helvetica,sans-Serif" font-size="10.00"> &lt; yaclib::IRef &gt;</text>
</g>
</g>
</svg>
