<?xml version="1.0" encoding="UTF-8" standalone="no"?>
<!DOCTYPE svg PUBLIC "-//W3C//DTD SVG 1.1//EN"
 "http://www.w3.org/Graphics/SVG/1.1/DTD/svg11.dtd">
<!-- Generated by graphviz version 2.50.0 (20220203.2022)
 -->
<!-- Title: CounterBase Pages: 1 -->
<svg width="780pt" height="207pt"
 viewBox="0.00 0.00 780.00 207.00" xmlns="http://www.w3.org/2000/svg" xmlns:xlink="http://www.w3.org/1999/xlink">
<g id="graph0" class="graph" transform="scale(1 1) rotate(0) translate(4 203)">
<title>CounterBase</title>
<!-- Node1 -->
<g id="node1" class="node">
<title>Node1</title>
<g id="a_node1"><a xlink:title=" ">
<polygon fill="#bfbfbf" stroke="black" points="0,-49 0,-68 73,-68 73,-49 0,-49"/>
<text text-anchor="middle" x="36.5" y="-56" font-family="Helvetica,sans-Serif" font-size="10.00">CounterBase</text>
</a>
</g>
</g>
<!-- Node2 -->
<g id="node2" class="node">
<title>Node2</title>
<g id="a_node2"><a xlink:href="structyaclib_1_1detail_1_1AtomicCounter.html" target="_top" xlink:title=" ">
<polygon fill="none" stroke="black" points="110,-80.5 110,-110.5 248,-110.5 248,-80.5 110,-80.5"/>
<text text-anchor="start" x="118" y="-98.5" font-family="Helvetica,sans-Serif" font-size="10.00">yaclib::detail::AtomicCounter</text>
<text text-anchor="middle" x="179" y="-87.5" font-family="Helvetica,sans-Serif" font-size="10.00">&lt; CounterBase, Deleter &gt;</text>
</a>
</g>
</g>
<!-- Node1&#45;&gt;Node2 -->
<g id="edge1" class="edge">
<title>Node1&#45;&gt;Node2</title>
<path fill="none" stroke="midnightblue" d="M83.15,-70.52C95.21,-73.7 108.37,-77.16 120.95,-80.48"/>
<polygon fill="midnightblue" stroke="midnightblue" points="83.88,-67.09 73.32,-67.93 82.1,-73.86 83.88,-67.09"/>
</g>
<!-- Node9 -->
<g id="node9" class="node">
<title>Node9</title>
<g id="a_node9"><a xlink:href="structyaclib_1_1detail_1_1NopeCounter.html" target="_top" xlink:title=" ">
<polygon fill="none" stroke="black" points="113.5,-31.5 113.5,-61.5 244.5,-61.5 244.5,-31.5 113.5,-31.5"/>
<text text-anchor="start" x="121.5" y="-49.5" font-family="Helvetica,sans-Serif" font-size="10.00">yaclib::detail::NopeCounter</text>
<text text-anchor="middle" x="179" y="-38.5" font-family="Helvetica,sans-Serif" font-size="10.00">&lt; CounterBase &gt;</text>
</a>
</g>
</g>
<!-- Node1&#45;&gt;Node9 -->
<g id="edge8" class="edge">
<title>Node1&#45;&gt;Node9</title>
<path fill="none" stroke="midnightblue" d="M83.39,-54.58C92.95,-53.76 103.2,-52.89 113.3,-52.03"/>
<polygon fill="midnightblue" stroke="midnightblue" points="82.98,-51.1 73.32,-55.44 83.58,-58.08 82.98,-51.1"/>
</g>
<!-- Node3 -->
<g id="node3" class="node">
<title>Node3</title>
<g id="a_node3"><a xlink:href="structyaclib_1_1detail_1_1AtomicCounter.html" target="_top" xlink:title=" ">
<polygon fill="none" stroke="black" points="411,-168.5 411,-198.5 604,-198.5 604,-168.5 411,-168.5"/>
<text text-anchor="start" x="419" y="-186.5" font-family="Helvetica,sans-Serif" font-size="10.00">yaclib::detail::AtomicCounter</text>
<text text-anchor="middle" x="507.5" y="-175.5" font-family="Helvetica,sans-Serif" font-size="10.00">&lt; ResultCore&lt; V, E &gt;, CoroutineDeleter &gt;</text>
</a>
</g>
</g>
<!-- Node2&#45;&gt;Node3 -->
<g id="edge2" class="edge">
<title>Node2&#45;&gt;Node3</title>
<path fill="none" stroke="orange" stroke-dasharray="5,2" d="M210.81,-116.12C226.68,-125.83 246.71,-136.74 266,-143.5 312.34,-159.73 366.06,-169.47 410.97,-175.26"/>
<polygon fill="orange" stroke="orange" points="212.32,-112.93 201.99,-110.58 208.6,-118.86 212.32,-112.93"/>
<text text-anchor="start" x="282.5" y="-185.5" font-family="Helvetica,sans-Serif" font-size="10.00"> &lt; ResultCore&lt; V, E</text>
<text text-anchor="middle" x="329.5" y="-174.5" font-family="Helvetica,sans-Serif" font-size="10.00"> &gt;, CoroutineDeleter &gt;</text>
</g>
<!-- Node5 -->
<g id="node5" class="node">
<title>Node5</title>
<g id="a_node5"><a xlink:href="structyaclib_1_1detail_1_1AtomicCounter.html" target="_top" xlink:title=" ">
<polygon fill="none" stroke="black" points="438.5,-109 438.5,-150 576.5,-150 576.5,-109 438.5,-109"/>
<text text-anchor="start" x="446.5" y="-138" font-family="Helvetica,sans-Serif" font-size="10.00">yaclib::detail::AtomicCounter</text>
<text text-anchor="start" x="446.5" y="-127" font-family="Helvetica,sans-Serif" font-size="10.00">&lt; ResultCore&lt; void, E &gt;,</text>
<text text-anchor="middle" x="507.5" y="-116" font-family="Helvetica,sans-Serif" font-size="10.00"> CoroutineDeleter &gt;</text>
</a>
</g>
</g>
<!-- Node2&#45;&gt;Node5 -->
<g id="edge4" class="edge">
<title>Node2&#45;&gt;Node5</title>
<path fill="none" stroke="orange" stroke-dasharray="5,2" d="M258.08,-103.63C312.97,-109.35 385.69,-116.92 438.26,-122.39"/>
<polygon fill="orange" stroke="orange" points="258.36,-100.14 248.05,-102.59 257.63,-107.1 258.36,-100.14"/>
<text text-anchor="start" x="278" y="-131.5" font-family="Helvetica,sans-Serif" font-size="10.00"> &lt; ResultCore&lt; void,</text>
<text text-anchor="middle" x="329.5" y="-120.5" font-family="Helvetica,sans-Serif" font-size="10.00"> E &gt;, CoroutineDeleter &gt;</text>
</g>
<!-- Node7 -->
<g id="node7" class="node">
<title>Node7</title>
<g id="a_node7"><a xlink:href="structyaclib_1_1detail_1_1AtomicCounter.html" target="_top" xlink:title=" ">
<polygon fill="none" stroke="black" points="437.5,-49 437.5,-90 577.5,-90 577.5,-49 437.5,-49"/>
<text text-anchor="start" x="445.5" y="-78" font-family="Helvetica,sans-Serif" font-size="10.00">yaclib::detail::AtomicCounter</text>
<text text-anchor="start" x="445.5" y="-67" font-family="Helvetica,sans-Serif" font-size="10.00">&lt; yaclib::detail::MutexEvent,</text>
<text text-anchor="middle" x="507.5" y="-56" font-family="Helvetica,sans-Serif" font-size="10.00"> yaclib::detail::EventDeleter &gt;</text>
</a>
</g>
</g>
<!-- Node2&#45;&gt;Node7 -->
<g id="edge6" class="edge">
<title>Node2&#45;&gt;Node7</title>
<path fill="none" stroke="orange" stroke-dasharray="5,2" d="M256.09,-78.85C259.43,-78.34 262.74,-77.89 266,-77.5 323.45,-70.59 389.13,-68.81 437.32,-68.64"/>
<polygon fill="orange" stroke="orange" points="255.32,-75.42 246.01,-80.48 256.44,-82.33 255.32,-75.42"/>
<text text-anchor="start" x="267.5" y="-91.5" font-family="Helvetica,sans-Serif" font-size="10.00"> &lt; yaclib::detail::MutexEvent,</text>
<text text-anchor="middle" x="329.5" y="-80.5" font-family="Helvetica,sans-Serif" font-size="10.00"> yaclib::detail::EventDeleter &gt;</text>
</g>
<!-- Node8 -->
<g id="node8" class="node">
<title>Node8</title>
<g id="a_node8"><a xlink:href="structyaclib_1_1detail_1_1AtomicCounter.html" target="_top" xlink:title=" ">
<polygon fill="none" stroke="black" points="418,-0.5 418,-30.5 597,-30.5 597,-0.5 418,-0.5"/>
<text text-anchor="start" x="426" y="-18.5" font-family="Helvetica,sans-Serif" font-size="10.00">yaclib::detail::AtomicCounter</text>
<text text-anchor="middle" x="507.5" y="-7.5" font-family="Helvetica,sans-Serif" font-size="10.00">&lt; CoroHandler, CoroResumeDeleter &gt;</text>
</a>
</g>
</g>
<!-- Node2&#45;&gt;Node8 -->
<g id="edge7" class="edge">
<title>Node2&#45;&gt;Node8</title>
<path fill="none" stroke="orange" stroke-dasharray="5,2" d="M242.53,-75.47C244.42,-74.23 246.26,-72.9 248,-71.5 259.82,-61.99 253.18,-50.6 266,-42.5 310.66,-14.28 369.48,-7.27 417.77,-7.44"/>
<polygon fill="orange" stroke="orange" points="240.75,-72.46 233.83,-80.49 244.24,-78.52 240.75,-72.46"/>
<text text-anchor="start" x="266" y="-56.5" font-family="Helvetica,sans-Serif" font-size="10.00"> &lt; CoroHandler, CoroResume</text>
<text text-anchor="middle" x="329.5" y="-45.5" font-family="Helvetica,sans-Serif" font-size="10.00">Deleter &gt;</text>
</g>
<!-- Node4 -->
<g id="node4" class="node">
<title>Node4</title>
<g id="a_node4"><a xlink:href="structyaclib_1_1detail_1_1PromiseType.html" target="_top" xlink:title=" ">
<polygon fill="none" stroke="black" points="641,-168.5 641,-198.5 772,-198.5 772,-168.5 641,-168.5"/>
<text text-anchor="start" x="649" y="-186.5" font-family="Helvetica,sans-Serif" font-size="10.00">yaclib::detail::PromiseType</text>
<text text-anchor="middle" x="706.5" y="-175.5" font-family="Helvetica,sans-Serif" font-size="10.00">&lt; V, E &gt;</text>
</a>
</g>
</g>
<!-- Node3&#45;&gt;Node4 -->
<g id="edge3" class="edge">
<title>Node3&#45;&gt;Node4</title>
<path fill="none" stroke="midnightblue" d="M614.33,-183.5C623.35,-183.5 632.3,-183.5 640.85,-183.5"/>
<polygon fill="midnightblue" stroke="midnightblue" points="614.11,-180 604.11,-183.5 614.11,-187 614.11,-180"/>
</g>
<!-- Node6 -->
<g id="node6" class="node">
<title>Node6</title>
<g id="a_node6"><a xlink:href="structyaclib_1_1detail_1_1PromiseType_3_01void_00_01E_01_4.html" target="_top" xlink:title=" ">
<polygon fill="none" stroke="black" points="641,-114.5 641,-144.5 772,-144.5 772,-114.5 641,-114.5"/>
<text text-anchor="start" x="649" y="-132.5" font-family="Helvetica,sans-Serif" font-size="10.00">yaclib::detail::PromiseType</text>
<text text-anchor="middle" x="706.5" y="-121.5" font-family="Helvetica,sans-Serif" font-size="10.00">&lt; void, E &gt;</text>
</a>
</g>
</g>
<!-- Node5&#45;&gt;Node6 -->
<g id="edge5" class="edge">
<title>Node5&#45;&gt;Node6</title>
<path fill="none" stroke="midnightblue" d="M586.7,-129.5C604.62,-129.5 623.47,-129.5 640.74,-129.5"/>
<polygon fill="midnightblue" stroke="midnightblue" points="586.57,-126 576.57,-129.5 586.57,-133 586.57,-126"/>
</g>
</g>
</svg>
