<?xml version="1.0" encoding="UTF-8" standalone="no"?>
<!DOCTYPE svg PUBLIC "-//W3C//DTD SVG 1.1//EN"
 "http://www.w3.org/Graphics/SVG/1.1/DTD/svg11.dtd">
<!-- Generated by graphviz version 2.50.0 (20220203.2022)
 -->
<!-- Title: yaclib::detail::InlineCore Pages: 1 -->
<svg width="1425pt" height="181pt"
 viewBox="0.00 0.00 1425.00 181.00" xmlns="http://www.w3.org/2000/svg" xmlns:xlink="http://www.w3.org/1999/xlink">
<g id="graph0" class="graph" transform="scale(1 1) rotate(0) translate(4 177)">
<title>yaclib::detail::InlineCore</title>
<!-- Node1 -->
<g id="node1" class="node">
<title>Node1</title>
<g id="a_node1"><a xlink:title=" ">
<polygon fill="#bfbfbf" stroke="black" points="343,-99 343,-118 460,-118 460,-99 343,-99"/>
<text text-anchor="middle" x="401.5" y="-106" font-family="Helvetica,sans-Serif" font-size="10.00">yaclib::detail::InlineCore</text>
</a>
</g>
</g>
<!-- Node6 -->
<g id="node6" class="node">
<title>Node6</title>
<g id="a_node6"><a xlink:href="classyaclib_1_1detail_1_1AllCombinator.html" target="_top" xlink:title=" ">
<polygon fill="none" stroke="black" points="500,-142.5 500,-172.5 634,-172.5 634,-142.5 500,-142.5"/>
<text text-anchor="start" x="508" y="-160.5" font-family="Helvetica,sans-Serif" font-size="10.00">yaclib::detail::AllCombinator</text>
<text text-anchor="middle" x="567" y="-149.5" font-family="Helvetica,sans-Serif" font-size="10.00">&lt; V, E, N, FutureValue &gt;</text>
</a>
</g>
</g>
<!-- Node1&#45;&gt;Node6 -->
<g id="edge5" class="edge">
<title>Node1&#45;&gt;Node6</title>
<path fill="none" stroke="midnightblue" d="M444.06,-120.95C465.9,-127.5 492.83,-135.57 515.83,-142.46"/>
<polygon fill="midnightblue" stroke="midnightblue" points="445,-117.58 434.41,-118.06 442.99,-124.29 445,-117.58"/>
</g>
<!-- Node7 -->
<g id="node7" class="node">
<title>Node7</title>
<g id="a_node7"><a xlink:href="classyaclib_1_1detail_1_1AnyCombinator.html" target="_top" xlink:title=" ">
<polygon fill="none" stroke="black" points="497,-93.5 497,-123.5 637,-123.5 637,-93.5 497,-93.5"/>
<text text-anchor="start" x="505" y="-111.5" font-family="Helvetica,sans-Serif" font-size="10.00">yaclib::detail::AnyCombinator</text>
<text text-anchor="middle" x="567" y="-100.5" font-family="Helvetica,sans-Serif" font-size="10.00">&lt; V, E, P &gt;</text>
</a>
</g>
</g>
<!-- Node1&#45;&gt;Node7 -->
<g id="edge6" class="edge">
<title>Node1&#45;&gt;Node7</title>
<path fill="none" stroke="midnightblue" d="M470.3,-108.5C479.06,-108.5 488.04,-108.5 496.83,-108.5"/>
<polygon fill="midnightblue" stroke="midnightblue" points="470.14,-105 460.14,-108.5 470.14,-112 470.14,-105"/>
</g>
<!-- Node8 -->
<g id="node8" class="node">
<title>Node8</title>
<g id="a_node8"><a xlink:href="classyaclib_1_1detail_1_1BaseCore.html" target="_top" xlink:title=" ">
<polygon fill="none" stroke="black" points="509,-55 509,-74 625,-74 625,-55 509,-55"/>
<text text-anchor="middle" x="567" y="-62" font-family="Helvetica,sans-Serif" font-size="10.00">yaclib::detail::BaseCore</text>
</a>
</g>
</g>
<!-- Node1&#45;&gt;Node8 -->
<g id="edge7" class="edge">
<title>Node1&#45;&gt;Node8</title>
<path fill="none" stroke="midnightblue" d="M447.67,-96.35C473.83,-89.3 506.29,-80.57 530.59,-74.03"/>
<polygon fill="midnightblue" stroke="midnightblue" points="446.72,-92.97 437.98,-98.95 448.54,-99.73 446.72,-92.97"/>
</g>
<!-- Node2 -->
<g id="node2" class="node">
<title>Node2</title>
<g id="a_node2"><a xlink:href="classyaclib_1_1ITask.html" target="_top" xlink:title="Callable that can be executed in an IExecutor.">
<polygon fill="none" stroke="black" points="235,-99 235,-118 306,-118 306,-99 235,-99"/>
<text text-anchor="middle" x="270.5" y="-106" font-family="Helvetica,sans-Serif" font-size="10.00">yaclib::ITask</text>
</a>
</g>
</g>
<!-- Node2&#45;&gt;Node1 -->
<g id="edge1" class="edge">
<title>Node2&#45;&gt;Node1</title>
<path fill="none" stroke="midnightblue" d="M316.26,-108.5C324.86,-108.5 333.98,-108.5 342.92,-108.5"/>
<polygon fill="midnightblue" stroke="midnightblue" points="316.07,-105 306.07,-108.5 316.07,-112 316.07,-105"/>
</g>
<!-- Node3 -->
<g id="node3" class="node">
<title>Node3</title>
<g id="a_node3"><a xlink:href="classyaclib_1_1IFunc.html" target="_top" xlink:title="Shared callable interface.">
<polygon fill="none" stroke="black" points="114,-125 114,-144 185,-144 185,-125 114,-125"/>
<text text-anchor="middle" x="149.5" y="-132" font-family="Helvetica,sans-Serif" font-size="10.00">yaclib::IFunc</text>
</a>
</g>
</g>
<!-- Node3&#45;&gt;Node2 -->
<g id="edge2" class="edge">
<title>Node3&#45;&gt;Node2</title>
<path fill="none" stroke="midnightblue" d="M195.07,-124.76C208.25,-121.88 222.47,-118.77 234.92,-116.05"/>
<polygon fill="midnightblue" stroke="midnightblue" points="194.26,-121.36 185.24,-126.91 195.76,-128.19 194.26,-121.36"/>
</g>
<!-- Node4 -->
<g id="node4" class="node">
<title>Node4</title>
<g id="a_node4"><a xlink:href="classyaclib_1_1IRef.html" target="_top" xlink:title="Reference counting interface.">
<polygon fill="none" stroke="black" points="0,-125 0,-144 64,-144 64,-125 0,-125"/>
<text text-anchor="middle" x="32" y="-132" font-family="Helvetica,sans-Serif" font-size="10.00">yaclib::IRef</text>
</a>
</g>
</g>
<!-- Node4&#45;&gt;Node3 -->
<g id="edge3" class="edge">
<title>Node4&#45;&gt;Node3</title>
<path fill="none" stroke="midnightblue" d="M74.35,-134.5C87.33,-134.5 101.51,-134.5 113.97,-134.5"/>
<polygon fill="midnightblue" stroke="midnightblue" points="74.26,-131 64.26,-134.5 74.26,-138 74.26,-131"/>
</g>
<!-- Node5 -->
<g id="node5" class="node">
<title>Node5</title>
<g id="a_node5"><a xlink:href="structyaclib_1_1detail_1_1Node.html" target="_top" xlink:title="Node class, used in intrusive data structure.">
<polygon fill="none" stroke="black" points="101,-87 101,-106 198,-106 198,-87 101,-87"/>
<text text-anchor="middle" x="149.5" y="-94" font-family="Helvetica,sans-Serif" font-size="10.00">yaclib::detail::Node</text>
</a>
</g>
</g>
<!-- Node5&#45;&gt;Node2 -->
<g id="edge4" class="edge">
<title>Node5&#45;&gt;Node2</title>
<path fill="none" stroke="midnightblue" d="M208.41,-102.34C217.49,-103.26 226.62,-104.18 234.96,-105.02"/>
<polygon fill="midnightblue" stroke="midnightblue" points="208.52,-98.83 198.22,-101.31 207.81,-105.8 208.52,-98.83"/>
</g>
<!-- Node9 -->
<g id="node9" class="node">
<title>Node9</title>
<g id="a_node9"><a xlink:href="classyaclib_1_1detail_1_1ResultCore.html" target="_top" xlink:title=" ">
<polygon fill="none" stroke="black" points="916.5,-90.5 916.5,-120.5 1038.5,-120.5 1038.5,-90.5 916.5,-90.5"/>
<text text-anchor="start" x="924.5" y="-108.5" font-family="Helvetica,sans-Serif" font-size="10.00">yaclib::detail::ResultCore</text>
<text text-anchor="middle" x="977.5" y="-97.5" font-family="Helvetica,sans-Serif" font-size="10.00">&lt; void, E &gt;</text>
</a>
</g>
</g>
<!-- Node8&#45;&gt;Node9 -->
<g id="edge8" class="edge">
<title>Node8&#45;&gt;Node9</title>
<path fill="none" stroke="midnightblue" d="M613.27,-76.49C631.94,-80.98 653.88,-85.68 674,-88.5 757.47,-100.21 854.98,-103.92 916.23,-105.06"/>
<polygon fill="midnightblue" stroke="midnightblue" points="614.09,-73.09 603.54,-74.1 612.42,-79.89 614.09,-73.09"/>
</g>
<!-- Node12 -->
<g id="node12" class="node">
<title>Node12</title>
<g id="a_node12"><a xlink:href="classyaclib_1_1detail_1_1ResultCore.html" target="_top" xlink:title=" ">
<polygon fill="none" stroke="black" points="674,-49.5 674,-79.5 796,-79.5 796,-49.5 674,-49.5"/>
<text text-anchor="start" x="682" y="-67.5" font-family="Helvetica,sans-Serif" font-size="10.00">yaclib::detail::ResultCore</text>
<text text-anchor="middle" x="735" y="-56.5" font-family="Helvetica,sans-Serif" font-size="10.00">&lt; V, E &gt;</text>
</a>
</g>
</g>
<!-- Node8&#45;&gt;Node12 -->
<g id="edge11" class="edge">
<title>Node8&#45;&gt;Node12</title>
<path fill="none" stroke="midnightblue" d="M635.26,-64.5C648.06,-64.5 661.38,-64.5 673.94,-64.5"/>
<polygon fill="midnightblue" stroke="midnightblue" points="635.13,-61 625.13,-64.5 635.13,-68 635.13,-61"/>
</g>
<!-- Node15 -->
<g id="node15" class="node">
<title>Node15</title>
<g id="a_node15"><a xlink:href="classyaclib_1_1detail_1_1ResultCore_3_01void_00_01void_01_4.html" target="_top" xlink:title=" ">
<polygon fill="none" stroke="black" points="674,-0.5 674,-30.5 796,-30.5 796,-0.5 674,-0.5"/>
<text text-anchor="start" x="682" y="-18.5" font-family="Helvetica,sans-Serif" font-size="10.00">yaclib::detail::ResultCore</text>
<text text-anchor="middle" x="735" y="-7.5" font-family="Helvetica,sans-Serif" font-size="10.00">&lt; void, void &gt;</text>
</a>
</g>
</g>
<!-- Node8&#45;&gt;Node15 -->
<g id="edge15" class="edge">
<title>Node8&#45;&gt;Node15</title>
<path fill="none" stroke="midnightblue" d="M610.19,-52.05C632.36,-45.5 659.71,-37.43 683.06,-30.54"/>
<polygon fill="midnightblue" stroke="midnightblue" points="609,-48.75 600.4,-54.94 610.98,-55.46 609,-48.75"/>
</g>
<!-- Node10 -->
<g id="node10" class="node">
<title>Node10</title>
<g id="a_node10"><a xlink:href="structyaclib_1_1detail_1_1AtomicCounter.html" target="_top" xlink:title=" ">
<polygon fill="none" stroke="black" points="1111,-85 1111,-126 1249,-126 1249,-85 1111,-85"/>
<text text-anchor="start" x="1119" y="-114" font-family="Helvetica,sans-Serif" font-size="10.00">yaclib::detail::AtomicCounter</text>
<text text-anchor="start" x="1119" y="-103" font-family="Helvetica,sans-Serif" font-size="10.00">&lt; ResultCore&lt; void, E &gt;,</text>
<text text-anchor="middle" x="1180" y="-92" font-family="Helvetica,sans-Serif" font-size="10.00"> CoroutineDeleter &gt;</text>
</a>
</g>
</g>
<!-- Node9&#45;&gt;Node10 -->
<g id="edge9" class="edge">
<title>Node9&#45;&gt;Node10</title>
<path fill="none" stroke="midnightblue" d="M1048.7,-105.5C1068.85,-105.5 1090.78,-105.5 1110.8,-105.5"/>
<polygon fill="midnightblue" stroke="midnightblue" points="1048.66,-102 1038.66,-105.5 1048.66,-109 1048.66,-102"/>
</g>
<!-- Node11 -->
<g id="node11" class="node">
<title>Node11</title>
<g id="a_node11"><a xlink:href="structyaclib_1_1detail_1_1PromiseType_3_01void_00_01E_01_4.html" target="_top" xlink:title=" ">
<polygon fill="none" stroke="black" points="1286,-90.5 1286,-120.5 1417,-120.5 1417,-90.5 1286,-90.5"/>
<text text-anchor="start" x="1294" y="-108.5" font-family="Helvetica,sans-Serif" font-size="10.00">yaclib::detail::PromiseType</text>
<text text-anchor="middle" x="1351.5" y="-97.5" font-family="Helvetica,sans-Serif" font-size="10.00">&lt; void, E &gt;</text>
</a>
</g>
</g>
<!-- Node10&#45;&gt;Node11 -->
<g id="edge10" class="edge">
<title>Node10&#45;&gt;Node11</title>
<path fill="none" stroke="midnightblue" d="M1259.69,-105.5C1268.47,-105.5 1277.34,-105.5 1285.91,-105.5"/>
<polygon fill="midnightblue" stroke="midnightblue" points="1259.45,-102 1249.45,-105.5 1259.45,-109 1259.45,-102"/>
</g>
<!-- Node12&#45;&gt;Node9 -->
<g id="edge14" class="edge">
<title>Node12&#45;&gt;Node9</title>
<path fill="none" stroke="orange" stroke-dasharray="5,2" d="M806.27,-74.46C824.75,-77.23 844.65,-80.35 863,-83.5 880.31,-86.47 899.05,-89.98 916.21,-93.31"/>
<polygon fill="orange" stroke="orange" points="806.57,-70.97 796.17,-72.96 805.54,-77.89 806.57,-70.97"/>
<text text-anchor="middle" x="838.5" y="-86.5" font-family="Helvetica,sans-Serif" font-size="10.00"> &lt; void, E &gt;</text>
</g>
<!-- Node13 -->
<g id="node13" class="node">
<title>Node13</title>
<g id="a_node13"><a xlink:href="structyaclib_1_1detail_1_1AtomicCounter.html" target="_top" xlink:title=" ">
<polygon fill="none" stroke="black" points="881,-34.5 881,-64.5 1074,-64.5 1074,-34.5 881,-34.5"/>
<text text-anchor="start" x="889" y="-52.5" font-family="Helvetica,sans-Serif" font-size="10.00">yaclib::detail::AtomicCounter</text>
<text text-anchor="middle" x="977.5" y="-41.5" font-family="Helvetica,sans-Serif" font-size="10.00">&lt; ResultCore&lt; V, E &gt;, CoroutineDeleter &gt;</text>
</a>
</g>
</g>
<!-- Node12&#45;&gt;Node13 -->
<g id="edge12" class="edge">
<title>Node12&#45;&gt;Node13</title>
<path fill="none" stroke="midnightblue" d="M806.2,-60.12C829.5,-58.67 855.85,-57.02 880.75,-55.47"/>
<polygon fill="midnightblue" stroke="midnightblue" points="805.83,-56.64 796.07,-60.75 806.27,-63.62 805.83,-56.64"/>
</g>
<!-- Node14 -->
<g id="node14" class="node">
<title>Node14</title>
<g id="a_node14"><a xlink:href="structyaclib_1_1detail_1_1PromiseType.html" target="_top" xlink:title=" ">
<polygon fill="none" stroke="black" points="1114.5,-34.5 1114.5,-64.5 1245.5,-64.5 1245.5,-34.5 1114.5,-34.5"/>
<text text-anchor="start" x="1122.5" y="-52.5" font-family="Helvetica,sans-Serif" font-size="10.00">yaclib::detail::PromiseType</text>
<text text-anchor="middle" x="1180" y="-41.5" font-family="Helvetica,sans-Serif" font-size="10.00">&lt; V, E &gt;</text>
</a>
</g>
</g>
<!-- Node13&#45;&gt;Node14 -->
<g id="edge13" class="edge">
<title>Node13&#45;&gt;Node14</title>
<path fill="none" stroke="midnightblue" d="M1084.27,-49.5C1094.48,-49.5 1104.61,-49.5 1114.24,-49.5"/>
<polygon fill="midnightblue" stroke="midnightblue" points="1084.05,-46 1074.05,-49.5 1084.05,-53 1084.05,-46"/>
</g>
</g>
</svg>
