<?xml version="1.0" encoding="UTF-8" standalone="no"?>
<!DOCTYPE svg PUBLIC "-//W3C//DTD SVG 1.1//EN"
 "http://www.w3.org/Graphics/SVG/1.1/DTD/svg11.dtd">
<!-- Generated by graphviz version 2.50.0 (20220203.2022)
 -->
<!-- Title: yaclib::detail::ResultCore&lt; V, E &gt; Pages: 1 -->
<svg width="1401pt" height="99pt"
 viewBox="0.00 0.00 1401.00 98.50" xmlns="http://www.w3.org/2000/svg" xmlns:xlink="http://www.w3.org/1999/xlink">
<g id="graph0" class="graph" transform="scale(1 1) rotate(0) translate(4 94.5)">
<title>yaclib::detail::ResultCore&lt; V, E &gt;</title>
<!-- Node1 -->
<g id="node1" class="node">
<title>Node1</title>
<g id="a_node1"><a xlink:title=" ">
<polygon fill="#bfbfbf" stroke="black" points="650,-33 650,-63 772,-63 772,-33 650,-33"/>
<text text-anchor="start" x="658" y="-51" font-family="Helvetica,sans-Serif" font-size="10.00">yaclib::detail::ResultCore</text>
<text text-anchor="middle" x="711" y="-40" font-family="Helvetica,sans-Serif" font-size="10.00">&lt; V, E &gt;</text>
</a>
</g>
</g>
<!-- Node8 -->
<g id="node8" class="node">
<title>Node8</title>
<g id="a_node8"><a xlink:href="structyaclib_1_1detail_1_1AtomicCounter.html" target="_top" xlink:title=" ">
<polygon fill="none" stroke="black" points="857,-59 857,-89 1050,-89 1050,-59 857,-59"/>
<text text-anchor="start" x="865" y="-77" font-family="Helvetica,sans-Serif" font-size="10.00">yaclib::detail::AtomicCounter</text>
<text text-anchor="middle" x="953.5" y="-66" font-family="Helvetica,sans-Serif" font-size="10.00">&lt; ResultCore&lt; V, E &gt;, CoroutineDeleter &gt;</text>
</a>
</g>
</g>
<!-- Node1&#45;&gt;Node8 -->
<g id="edge7" class="edge">
<title>Node1&#45;&gt;Node8</title>
<path fill="none" stroke="midnightblue" d="M782.2,-55.59C805.5,-58.11 831.85,-60.96 856.75,-63.65"/>
<polygon fill="midnightblue" stroke="midnightblue" points="782.39,-52.09 772.07,-54.49 781.63,-59.05 782.39,-52.09"/>
</g>
<!-- Node10 -->
<g id="node10" class="node">
<title>Node10</title>
<g id="a_node10"><a xlink:href="classyaclib_1_1detail_1_1ResultCore.html" target="_top" xlink:title=" ">
<polygon fill="none" stroke="black" points="892.5,-9 892.5,-39 1014.5,-39 1014.5,-9 892.5,-9"/>
<text text-anchor="start" x="900.5" y="-27" font-family="Helvetica,sans-Serif" font-size="10.00">yaclib::detail::ResultCore</text>
<text text-anchor="middle" x="953.5" y="-16" font-family="Helvetica,sans-Serif" font-size="10.00">&lt; void, E &gt;</text>
</a>
</g>
</g>
<!-- Node1&#45;&gt;Node10 -->
<g id="edge9" class="edge">
<title>Node1&#45;&gt;Node10</title>
<path fill="none" stroke="orange" stroke-dasharray="5,2" d="M782.2,-40.99C817.13,-37.51 858.92,-33.34 892.36,-30"/>
<polygon fill="orange" stroke="orange" points="781.67,-37.53 772.07,-42.01 782.37,-44.5 781.67,-37.53"/>
<text text-anchor="middle" x="814.5" y="-43" font-family="Helvetica,sans-Serif" font-size="10.00"> &lt; void, E &gt;</text>
</g>
<!-- Node2 -->
<g id="node2" class="node">
<title>Node2</title>
<g id="a_node2"><a xlink:href="classyaclib_1_1detail_1_1BaseCore.html" target="_top" xlink:title=" ">
<polygon fill="none" stroke="black" points="497,-38.5 497,-57.5 613,-57.5 613,-38.5 497,-38.5"/>
<text text-anchor="middle" x="555" y="-45.5" font-family="Helvetica,sans-Serif" font-size="10.00">yaclib::detail::BaseCore</text>
</a>
</g>
</g>
<!-- Node2&#45;&gt;Node1 -->
<g id="edge1" class="edge">
<title>Node2&#45;&gt;Node1</title>
<path fill="none" stroke="midnightblue" d="M623.5,-48C632.25,-48 641.16,-48 649.77,-48"/>
<polygon fill="midnightblue" stroke="midnightblue" points="623.34,-44.5 613.34,-48 623.34,-51.5 623.34,-44.5"/>
</g>
<!-- Node3 -->
<g id="node3" class="node">
<title>Node3</title>
<g id="a_node3"><a xlink:href="classyaclib_1_1detail_1_1InlineCore.html" target="_top" xlink:title=" ">
<polygon fill="none" stroke="black" points="343,-38.5 343,-57.5 460,-57.5 460,-38.5 343,-38.5"/>
<text text-anchor="middle" x="401.5" y="-45.5" font-family="Helvetica,sans-Serif" font-size="10.00">yaclib::detail::InlineCore</text>
</a>
</g>
</g>
<!-- Node3&#45;&gt;Node2 -->
<g id="edge2" class="edge">
<title>Node3&#45;&gt;Node2</title>
<path fill="none" stroke="midnightblue" d="M470.49,-48C479.33,-48 488.32,-48 496.95,-48"/>
<polygon fill="midnightblue" stroke="midnightblue" points="470.21,-44.5 460.21,-48 470.21,-51.5 470.21,-44.5"/>
</g>
<!-- Node4 -->
<g id="node4" class="node">
<title>Node4</title>
<g id="a_node4"><a xlink:href="classyaclib_1_1ITask.html" target="_top" xlink:title="Callable that can be executed in an IExecutor.">
<polygon fill="none" stroke="black" points="235,-38.5 235,-57.5 306,-57.5 306,-38.5 235,-38.5"/>
<text text-anchor="middle" x="270.5" y="-45.5" font-family="Helvetica,sans-Serif" font-size="10.00">yaclib::ITask</text>
</a>
</g>
</g>
<!-- Node4&#45;&gt;Node3 -->
<g id="edge3" class="edge">
<title>Node4&#45;&gt;Node3</title>
<path fill="none" stroke="midnightblue" d="M316.26,-48C324.86,-48 333.98,-48 342.92,-48"/>
<polygon fill="midnightblue" stroke="midnightblue" points="316.07,-44.5 306.07,-48 316.07,-51.5 316.07,-44.5"/>
</g>
<!-- Node5 -->
<g id="node5" class="node">
<title>Node5</title>
<g id="a_node5"><a xlink:href="classyaclib_1_1IFunc.html" target="_top" xlink:title="Shared callable interface.">
<polygon fill="none" stroke="black" points="114,-64.5 114,-83.5 185,-83.5 185,-64.5 114,-64.5"/>
<text text-anchor="middle" x="149.5" y="-71.5" font-family="Helvetica,sans-Serif" font-size="10.00">yaclib::IFunc</text>
</a>
</g>
</g>
<!-- Node5&#45;&gt;Node4 -->
<g id="edge4" class="edge">
<title>Node5&#45;&gt;Node4</title>
<path fill="none" stroke="midnightblue" d="M195.07,-64.26C208.25,-61.38 222.47,-58.27 234.92,-55.55"/>
<polygon fill="midnightblue" stroke="midnightblue" points="194.26,-60.86 185.24,-66.41 195.76,-67.69 194.26,-60.86"/>
</g>
<!-- Node6 -->
<g id="node6" class="node">
<title>Node6</title>
<g id="a_node6"><a xlink:href="classyaclib_1_1IRef.html" target="_top" xlink:title="Reference counting interface.">
<polygon fill="none" stroke="black" points="0,-64.5 0,-83.5 64,-83.5 64,-64.5 0,-64.5"/>
<text text-anchor="middle" x="32" y="-71.5" font-family="Helvetica,sans-Serif" font-size="10.00">yaclib::IRef</text>
</a>
</g>
</g>
<!-- Node6&#45;&gt;Node5 -->
<g id="edge5" class="edge">
<title>Node6&#45;&gt;Node5</title>
<path fill="none" stroke="midnightblue" d="M74.35,-74C87.33,-74 101.51,-74 113.97,-74"/>
<polygon fill="midnightblue" stroke="midnightblue" points="74.26,-70.5 64.26,-74 74.26,-77.5 74.26,-70.5"/>
</g>
<!-- Node7 -->
<g id="node7" class="node">
<title>Node7</title>
<g id="a_node7"><a xlink:href="structyaclib_1_1detail_1_1Node.html" target="_top" xlink:title="Node class, used in intrusive data structure.">
<polygon fill="none" stroke="black" points="101,-26.5 101,-45.5 198,-45.5 198,-26.5 101,-26.5"/>
<text text-anchor="middle" x="149.5" y="-33.5" font-family="Helvetica,sans-Serif" font-size="10.00">yaclib::detail::Node</text>
</a>
</g>
</g>
<!-- Node7&#45;&gt;Node4 -->
<g id="edge6" class="edge">
<title>Node7&#45;&gt;Node4</title>
<path fill="none" stroke="midnightblue" d="M208.41,-41.84C217.49,-42.76 226.62,-43.68 234.96,-44.52"/>
<polygon fill="midnightblue" stroke="midnightblue" points="208.52,-38.33 198.22,-40.81 207.81,-45.3 208.52,-38.33"/>
</g>
<!-- Node9 -->
<g id="node9" class="node">
<title>Node9</title>
<g id="a_node9"><a xlink:href="structyaclib_1_1detail_1_1PromiseType.html" target="_top" xlink:title=" ">
<polygon fill="none" stroke="black" points="1090.5,-60 1090.5,-90 1221.5,-90 1221.5,-60 1090.5,-60"/>
<text text-anchor="start" x="1098.5" y="-78" font-family="Helvetica,sans-Serif" font-size="10.00">yaclib::detail::PromiseType</text>
<text text-anchor="middle" x="1156" y="-67" font-family="Helvetica,sans-Serif" font-size="10.00">&lt; V, E &gt;</text>
</a>
</g>
</g>
<!-- Node8&#45;&gt;Node9 -->
<g id="edge8" class="edge">
<title>Node8&#45;&gt;Node9</title>
<path fill="none" stroke="midnightblue" d="M1060.27,-74.53C1070.48,-74.58 1080.61,-74.63 1090.24,-74.68"/>
<polygon fill="midnightblue" stroke="midnightblue" points="1060.07,-71.03 1050.05,-74.48 1060.03,-78.03 1060.07,-71.03"/>
</g>
<!-- Node11 -->
<g id="node11" class="node">
<title>Node11</title>
<g id="a_node11"><a xlink:href="structyaclib_1_1detail_1_1AtomicCounter.html" target="_top" xlink:title=" ">
<polygon fill="none" stroke="black" points="1087,-0.5 1087,-41.5 1225,-41.5 1225,-0.5 1087,-0.5"/>
<text text-anchor="start" x="1095" y="-29.5" font-family="Helvetica,sans-Serif" font-size="10.00">yaclib::detail::AtomicCounter</text>
<text text-anchor="start" x="1095" y="-18.5" font-family="Helvetica,sans-Serif" font-size="10.00">&lt; ResultCore&lt; void, E &gt;,</text>
<text text-anchor="middle" x="1156" y="-7.5" font-family="Helvetica,sans-Serif" font-size="10.00"> CoroutineDeleter &gt;</text>
</a>
</g>
</g>
<!-- Node10&#45;&gt;Node11 -->
<g id="edge10" class="edge">
<title>Node10&#45;&gt;Node11</title>
<path fill="none" stroke="midnightblue" d="M1024.7,-22.95C1044.85,-22.65 1066.78,-22.32 1086.8,-22.02"/>
<polygon fill="midnightblue" stroke="midnightblue" points="1024.6,-19.45 1014.66,-23.1 1024.71,-26.45 1024.6,-19.45"/>
</g>
<!-- Node12 -->
<g id="node12" class="node">
<title>Node12</title>
<g id="a_node12"><a xlink:href="structyaclib_1_1detail_1_1PromiseType_3_01void_00_01E_01_4.html" target="_top" xlink:title=" ">
<polygon fill="none" stroke="black" points="1262,-6 1262,-36 1393,-36 1393,-6 1262,-6"/>
<text text-anchor="start" x="1270" y="-24" font-family="Helvetica,sans-Serif" font-size="10.00">yaclib::detail::PromiseType</text>
<text text-anchor="middle" x="1327.5" y="-13" font-family="Helvetica,sans-Serif" font-size="10.00">&lt; void, E &gt;</text>
</a>
</g>
</g>
<!-- Node11&#45;&gt;Node12 -->
<g id="edge11" class="edge">
<title>Node11&#45;&gt;Node12</title>
<path fill="none" stroke="midnightblue" d="M1235.69,-21C1244.47,-21 1253.34,-21 1261.91,-21"/>
<polygon fill="midnightblue" stroke="midnightblue" points="1235.45,-17.5 1225.45,-21 1235.45,-24.5 1235.45,-17.5"/>
</g>
</g>
</svg>
