<?xml version="1.0" encoding="UTF-8" standalone="no"?>
<!DOCTYPE svg PUBLIC "-//W3C//DTD SVG 1.1//EN"
 "http://www.w3.org/Graphics/SVG/1.1/DTD/svg11.dtd">
<!-- Generated by graphviz version 2.50.0 (20220203.2022)
 -->
<!-- Title: yaclib::detail::UniqueTask&lt; Functor &gt; Pages: 1 -->
<svg width="305pt" height="299pt"
 viewBox="0.00 0.00 304.50 299.00" xmlns="http://www.w3.org/2000/svg" xmlns:xlink="http://www.w3.org/1999/xlink">
<g id="graph0" class="graph" transform="scale(1 1) rotate(0) translate(4 295)">
<title>yaclib::detail::UniqueTask&lt; Functor &gt;</title>
<!-- Node1 -->
<g id="node1" class="node">
<title>Node1</title>
<g id="a_node1"><a xlink:title=" ">
<polygon fill="#bfbfbf" stroke="black" points="120.5,-0.5 120.5,-30.5 246.5,-30.5 246.5,-0.5 120.5,-0.5"/>
<text text-anchor="start" x="128.5" y="-18.5" font-family="Helvetica,sans-Serif" font-size="10.00">yaclib::detail::UniqueTask</text>
<text text-anchor="middle" x="183.5" y="-7.5" font-family="Helvetica,sans-Serif" font-size="10.00">&lt; Functor &gt;</text>
</a>
</g>
</g>
<!-- Node2 -->
<g id="node2" class="node">
<title>Node2</title>
<g id="a_node2"><a xlink:href="classyaclib_1_1detail_1_1SafeCall.html" target="_top" xlink:title=" ">
<polygon fill="none" stroke="black" points="128.5,-68.5 128.5,-98.5 238.5,-98.5 238.5,-68.5 128.5,-68.5"/>
<text text-anchor="start" x="136.5" y="-86.5" font-family="Helvetica,sans-Serif" font-size="10.00">yaclib::detail::SafeCall</text>
<text text-anchor="middle" x="183.5" y="-75.5" font-family="Helvetica,sans-Serif" font-size="10.00">&lt; ITask, Functor &gt;</text>
</a>
</g>
</g>
<!-- Node2&#45;&gt;Node1 -->
<g id="edge1" class="edge">
<title>Node2&#45;&gt;Node1</title>
<path fill="none" stroke="midnightblue" d="M183.5,-58.03C183.5,-48.86 183.5,-38.74 183.5,-30.79"/>
<polygon fill="midnightblue" stroke="midnightblue" points="180,-58.18 183.5,-68.18 187,-58.18 180,-58.18"/>
</g>
<!-- Node3 -->
<g id="node3" class="node">
<title>Node3</title>
<g id="a_node3"><a xlink:href="classyaclib_1_1ITask.html" target="_top" xlink:title="Callable that can be executed in an IExecutor.">
<polygon fill="none" stroke="black" points="94,-152 94,-171 165,-171 165,-152 94,-152"/>
<text text-anchor="middle" x="129.5" y="-159" font-family="Helvetica,sans-Serif" font-size="10.00">yaclib::ITask</text>
</a>
</g>
</g>
<!-- Node3&#45;&gt;Node2 -->
<g id="edge2" class="edge">
<title>Node3&#45;&gt;Node2</title>
<path fill="none" stroke="midnightblue" d="M141.67,-143.37C151.29,-129.83 164.55,-111.17 173.54,-98.52"/>
<polygon fill="midnightblue" stroke="midnightblue" points="138.63,-141.6 135.69,-151.78 144.34,-145.66 138.63,-141.6"/>
</g>
<!-- Node4 -->
<g id="node4" class="node">
<title>Node4</title>
<g id="a_node4"><a xlink:href="classyaclib_1_1IFunc.html" target="_top" xlink:title="Shared callable interface.">
<polygon fill="none" stroke="black" points="0,-214.5 0,-233.5 71,-233.5 71,-214.5 0,-214.5"/>
<text text-anchor="middle" x="35.5" y="-221.5" font-family="Helvetica,sans-Serif" font-size="10.00">yaclib::IFunc</text>
</a>
</g>
</g>
<!-- Node4&#45;&gt;Node3 -->
<g id="edge3" class="edge">
<title>Node4&#45;&gt;Node3</title>
<path fill="none" stroke="midnightblue" d="M57.73,-208.69C75.85,-197.03 100.85,-180.94 116.06,-171.15"/>
<polygon fill="midnightblue" stroke="midnightblue" points="55.48,-205.98 48.97,-214.33 59.27,-211.86 55.48,-205.98"/>
</g>
<!-- Node5 -->
<g id="node5" class="node">
<title>Node5</title>
<g id="a_node5"><a xlink:href="classyaclib_1_1IRef.html" target="_top" xlink:title="Reference counting interface.">
<polygon fill="none" stroke="black" points="3.5,-271.5 3.5,-290.5 67.5,-290.5 67.5,-271.5 3.5,-271.5"/>
<text text-anchor="middle" x="35.5" y="-278.5" font-family="Helvetica,sans-Serif" font-size="10.00">yaclib::IRef</text>
</a>
</g>
</g>
<!-- Node5&#45;&gt;Node4 -->
<g id="edge4" class="edge">
<title>Node5&#45;&gt;Node4</title>
<path fill="none" stroke="midnightblue" d="M35.5,-261.12C35.5,-251.82 35.5,-241.06 35.5,-233.71"/>
<polygon fill="midnightblue" stroke="midnightblue" points="32,-261.41 35.5,-271.41 39,-261.41 32,-261.41"/>
</g>
<!-- Node6 -->
<g id="node6" class="node">
<title>Node6</title>
<g id="a_node6"><a xlink:href="structyaclib_1_1detail_1_1Node.html" target="_top" xlink:title="Node class, used in intrusive data structure.">
<polygon fill="none" stroke="black" points="89,-214.5 89,-233.5 186,-233.5 186,-214.5 89,-214.5"/>
<text text-anchor="middle" x="137.5" y="-221.5" font-family="Helvetica,sans-Serif" font-size="10.00">yaclib::detail::Node</text>
</a>
</g>
</g>
<!-- Node6&#45;&gt;Node3 -->
<g id="edge5" class="edge">
<title>Node6&#45;&gt;Node3</title>
<path fill="none" stroke="midnightblue" d="M135.03,-204.35C133.57,-193.28 131.78,-179.77 130.64,-171.15"/>
<polygon fill="midnightblue" stroke="midnightblue" points="131.57,-204.88 136.35,-214.33 138.51,-203.96 131.57,-204.88"/>
</g>
<!-- Node7 -->
<g id="node7" class="node">
<title>Node7</title>
<g id="a_node7"><a xlink:href="classyaclib_1_1detail_1_1SafeCall.html" target="_top" xlink:title=" ">
<polygon fill="none" stroke="black" points="183.5,-146.5 183.5,-176.5 293.5,-176.5 293.5,-146.5 183.5,-146.5"/>
<text text-anchor="start" x="191.5" y="-164.5" font-family="Helvetica,sans-Serif" font-size="10.00">yaclib::detail::SafeCall</text>
<text text-anchor="middle" x="238.5" y="-153.5" font-family="Helvetica,sans-Serif" font-size="10.00">&lt; Interface, Functor &gt;</text>
</a>
</g>
</g>
<!-- Node7&#45;&gt;Node2 -->
<g id="edge6" class="edge">
<title>Node7&#45;&gt;Node2</title>
<path fill="none" stroke="orange" stroke-dasharray="5,2" d="M222.17,-137.94C212.98,-125.23 201.78,-109.75 193.8,-98.73"/>
<polygon fill="orange" stroke="orange" points="219.46,-140.16 228.15,-146.2 225.13,-136.05 219.46,-140.16"/>
<text text-anchor="middle" x="255.5" y="-120" font-family="Helvetica,sans-Serif" font-size="10.00"> &lt; ITask, Functor &gt;</text>
</g>
<!-- Node8 -->
<g id="node8" class="node">
<title>Node8</title>
<g id="a_node8"><a xlink:href="classInterface.html" target="_top" xlink:title=" ">
<polygon fill="none" stroke="black" points="211,-214.5 211,-233.5 266,-233.5 266,-214.5 211,-214.5"/>
<text text-anchor="middle" x="238.5" y="-221.5" font-family="Helvetica,sans-Serif" font-size="10.00">Interface</text>
</a>
</g>
</g>
<!-- Node8&#45;&gt;Node7 -->
<g id="edge7" class="edge">
<title>Node8&#45;&gt;Node7</title>
<path fill="none" stroke="midnightblue" d="M238.5,-204.22C238.5,-195.36 238.5,-184.96 238.5,-176.76"/>
<polygon fill="midnightblue" stroke="midnightblue" points="235,-204.33 238.5,-214.33 242,-204.33 235,-204.33"/>
</g>
</g>
</svg>
