<?xml version="1.0" encoding="UTF-8" standalone="no"?>
<!DOCTYPE svg PUBLIC "-//W3C//DTD SVG 1.1//EN"
 "http://www.w3.org/Graphics/SVG/1.1/DTD/svg11.dtd">
<!-- Generated by graphviz version 2.50.0 (20220203.2022)
 -->
<!-- Title: yaclib::detail::AllCombinator&lt; V, E, N, FutureValue &gt; Pages: 1 -->
<svg width="649pt" height="156pt"
 viewBox="0.00 0.00 649.00 155.50" xmlns="http://www.w3.org/2000/svg" xmlns:xlink="http://www.w3.org/1999/xlink">
<g id="graph0" class="graph" transform="scale(1 1) rotate(0) translate(4 151.5)">
<title>yaclib::detail::AllCombinator&lt; V, E, N, FutureValue &gt;</title>
<!-- Node1 -->
<g id="node1" class="node">
<title>Node1</title>
<g id="a_node1"><a xlink:title=" ">
<polygon fill="#bfbfbf" stroke="black" points="507,-34.5 507,-64.5 641,-64.5 641,-34.5 507,-34.5"/>
<text text-anchor="start" x="515" y="-52.5" font-family="Helvetica,sans-Serif" font-size="10.00">yaclib::detail::AllCombinator</text>
<text text-anchor="middle" x="574" y="-41.5" font-family="Helvetica,sans-Serif" font-size="10.00">&lt; V, E, N, FutureValue &gt;</text>
</a>
</g>
</g>
<!-- Node2 -->
<g id="node2" class="node">
<title>Node2</title>
<g id="a_node2"><a xlink:href="classyaclib_1_1detail_1_1InlineCore.html" target="_top" xlink:title=" ">
<polygon fill="none" stroke="black" points="348,-94 348,-113 465,-113 465,-94 348,-94"/>
<text text-anchor="middle" x="406.5" y="-101" font-family="Helvetica,sans-Serif" font-size="10.00">yaclib::detail::InlineCore</text>
</a>
</g>
</g>
<!-- Node2&#45;&gt;Node1 -->
<g id="edge1" class="edge">
<title>Node2&#45;&gt;Node1</title>
<path fill="none" stroke="midnightblue" d="M447.15,-90.87C454.74,-88.44 462.62,-85.9 470,-83.5 488.89,-77.36 509.71,-70.5 527.65,-64.57"/>
<polygon fill="midnightblue" stroke="midnightblue" points="445.86,-87.61 437.4,-93.99 447.99,-94.28 445.86,-87.61"/>
</g>
<!-- Node3 -->
<g id="node3" class="node">
<title>Node3</title>
<g id="a_node3"><a xlink:href="classyaclib_1_1ITask.html" target="_top" xlink:title="Callable that can be executed in an IExecutor.">
<polygon fill="none" stroke="black" points="235,-94 235,-113 306,-113 306,-94 235,-94"/>
<text text-anchor="middle" x="270.5" y="-101" font-family="Helvetica,sans-Serif" font-size="10.00">yaclib::ITask</text>
</a>
</g>
</g>
<!-- Node3&#45;&gt;Node2 -->
<g id="edge2" class="edge">
<title>Node3&#45;&gt;Node2</title>
<path fill="none" stroke="midnightblue" d="M316.27,-103.5C326.44,-103.5 337.37,-103.5 347.98,-103.5"/>
<polygon fill="midnightblue" stroke="midnightblue" points="316.01,-100 306.01,-103.5 316.01,-107 316.01,-100"/>
</g>
<!-- Node4 -->
<g id="node4" class="node">
<title>Node4</title>
<g id="a_node4"><a xlink:href="classyaclib_1_1IFunc.html" target="_top" xlink:title="Shared callable interface.">
<polygon fill="none" stroke="black" points="114,-128 114,-147 185,-147 185,-128 114,-128"/>
<text text-anchor="middle" x="149.5" y="-135" font-family="Helvetica,sans-Serif" font-size="10.00">yaclib::IFunc</text>
</a>
</g>
</g>
<!-- Node4&#45;&gt;Node3 -->
<g id="edge3" class="edge">
<title>Node4&#45;&gt;Node3</title>
<path fill="none" stroke="midnightblue" d="M193.79,-125.13C207.66,-121.17 222.8,-116.84 235.87,-113.11"/>
<polygon fill="midnightblue" stroke="midnightblue" points="192.62,-121.83 183.96,-127.94 194.54,-128.56 192.62,-121.83"/>
</g>
<!-- Node5 -->
<g id="node5" class="node">
<title>Node5</title>
<g id="a_node5"><a xlink:href="classyaclib_1_1IRef.html" target="_top" xlink:title="Reference counting interface.">
<polygon fill="none" stroke="black" points="0,-128 0,-147 64,-147 64,-128 0,-128"/>
<text text-anchor="middle" x="32" y="-135" font-family="Helvetica,sans-Serif" font-size="10.00">yaclib::IRef</text>
</a>
</g>
</g>
<!-- Node5&#45;&gt;Node4 -->
<g id="edge4" class="edge">
<title>Node5&#45;&gt;Node4</title>
<path fill="none" stroke="midnightblue" d="M74.35,-137.5C87.33,-137.5 101.51,-137.5 113.97,-137.5"/>
<polygon fill="midnightblue" stroke="midnightblue" points="74.26,-134 64.26,-137.5 74.26,-141 74.26,-134"/>
</g>
<!-- Node6 -->
<g id="node6" class="node">
<title>Node6</title>
<g id="a_node6"><a xlink:href="structyaclib_1_1detail_1_1Node.html" target="_top" xlink:title="Node class, used in intrusive data structure.">
<polygon fill="none" stroke="black" points="101,-61 101,-80 198,-80 198,-61 101,-61"/>
<text text-anchor="middle" x="149.5" y="-68" font-family="Helvetica,sans-Serif" font-size="10.00">yaclib::detail::Node</text>
</a>
</g>
</g>
<!-- Node6&#45;&gt;Node3 -->
<g id="edge5" class="edge">
<title>Node6&#45;&gt;Node3</title>
<path fill="none" stroke="midnightblue" d="M194.85,-82.8C208.17,-86.49 222.58,-90.49 235.16,-93.98"/>
<polygon fill="midnightblue" stroke="midnightblue" points="195.49,-79.34 184.92,-80.04 193.62,-86.09 195.49,-79.34"/>
</g>
<!-- Node6&#45;&gt;Node6 -->
<g id="edge6" class="edge">
<title>Node6&#45;&gt;Node6</title>
<path fill="none" stroke="#9a32cd" stroke-dasharray="5,2" d="M137.35,-90.27C138.3,-95 142.35,-98.5 149.5,-98.5 161.23,-98.5 164.62,-89.07 159.67,-80.26"/>
<polygon fill="#9a32cd" stroke="#9a32cd" points="140.82,-90.75 139.33,-80.26 133.95,-89.39 140.82,-90.75"/>
<text text-anchor="middle" x="149.5" y="-101.5" font-family="Helvetica,sans-Serif" font-size="10.00"> next</text>
</g>
<!-- Node7 -->
<g id="node7" class="node">
<title>Node7</title>
<g id="a_node7"><a xlink:title=" ">
<polygon fill="none" stroke="black" points="343,-0.5 343,-74.5 470,-74.5 470,-0.5 343,-0.5"/>
<text text-anchor="start" x="351" y="-62.5" font-family="Helvetica,sans-Serif" font-size="10.00">AllCombinatorBase&lt;</text>
<text text-anchor="start" x="351" y="-51.5" font-family="Helvetica,sans-Serif" font-size="10.00"> std::conditional_t</text>
<text text-anchor="start" x="351" y="-40.5" font-family="Helvetica,sans-Serif" font-size="10.00">&lt;std::is_void_v&lt;V&gt;, void,</text>
<text text-anchor="start" x="351" y="-29.5" font-family="Helvetica,sans-Serif" font-size="10.00"> std::conditional_t&lt;0 !</text>
<text text-anchor="start" x="351" y="-18.5" font-family="Helvetica,sans-Serif" font-size="10.00">= 0, std::array&lt;V, 0 &gt;, std</text>
<text text-anchor="middle" x="406.5" y="-7.5" font-family="Helvetica,sans-Serif" font-size="10.00">::vector&lt;V&gt;&gt;&gt; &gt;</text>
</a>
</g>
</g>
<!-- Node7&#45;&gt;Node1 -->
<g id="edge7" class="edge">
<title>Node7&#45;&gt;Node1</title>
<path fill="none" stroke="midnightblue" d="M480.3,-42.78C489.1,-43.42 498.06,-44.07 506.76,-44.7"/>
<polygon fill="midnightblue" stroke="midnightblue" points="480.3,-39.27 470.07,-42.04 479.79,-46.25 480.3,-39.27"/>
</g>
</g>
</svg>
