<?xml version="1.0" encoding="UTF-8" standalone="no"?>
<!DOCTYPE svg PUBLIC "-//W3C//DTD SVG 1.1//EN"
 "http://www.w3.org/Graphics/SVG/1.1/DTD/svg11.dtd">
<!-- Generated by graphviz version 2.50.0 (20220203.2022)
 -->
<!-- Title: yaclib::IRef Pages: 1 -->
<svg width="1526pt" height="251pt"
 viewBox="0.00 0.00 1526.00 250.50" xmlns="http://www.w3.org/2000/svg" xmlns:xlink="http://www.w3.org/1999/xlink">
<g id="graph0" class="graph" transform="scale(1 1) rotate(0) translate(4 246.5)">
<title>yaclib::IRef</title>
<!-- Node1 -->
<g id="node1" class="node">
<title>Node1</title>
<g id="a_node1"><a xlink:title="Reference counting interface.">
<polygon fill="#bfbfbf" stroke="black" points="0,-109 0,-128 64,-128 64,-109 0,-109"/>
<text text-anchor="middle" x="32" y="-116" font-family="Helvetica,sans-Serif" font-size="10.00">yaclib::IRef</text>
</a>
</g>
</g>
<!-- Node2 -->
<g id="node2" class="node">
<title>Node2</title>
<g id="a_node2"><a xlink:href="classyaclib_1_1IExecutor.html" target="_top" xlink:title=" ">
<polygon fill="none" stroke="black" points="122.5,-185 122.5,-204 208.5,-204 208.5,-185 122.5,-185"/>
<text text-anchor="middle" x="165.5" y="-192" font-family="Helvetica,sans-Serif" font-size="10.00">yaclib::IExecutor</text>
</a>
</g>
</g>
<!-- Node1&#45;&gt;Node2 -->
<g id="edge1" class="edge">
<title>Node1&#45;&gt;Node2</title>
<path fill="none" stroke="midnightblue" d="M49.42,-135.62C62.37,-148.24 81.46,-164.97 101,-175.5 107.99,-179.27 115.83,-182.38 123.54,-184.93"/>
<polygon fill="midnightblue" stroke="midnightblue" points="51.74,-132.99 42.2,-128.38 46.79,-137.93 51.74,-132.99"/>
</g>
<!-- Node5 -->
<g id="node5" class="node">
<title>Node5</title>
<g id="a_node5"><a xlink:href="classyaclib_1_1IFunc.html" target="_top" xlink:title="Shared callable interface.">
<polygon fill="none" stroke="black" points="130,-147 130,-166 201,-166 201,-147 130,-147"/>
<text text-anchor="middle" x="165.5" y="-154" font-family="Helvetica,sans-Serif" font-size="10.00">yaclib::IFunc</text>
</a>
</g>
</g>
<!-- Node1&#45;&gt;Node5 -->
<g id="edge4" class="edge">
<title>Node1&#45;&gt;Node5</title>
<path fill="none" stroke="midnightblue" d="M73.78,-130.28C92.25,-135.62 113.8,-141.85 131.26,-146.89"/>
<polygon fill="midnightblue" stroke="midnightblue" points="74.74,-126.92 64.16,-127.51 72.8,-133.64 74.74,-126.92"/>
</g>
<!-- Node20 -->
<g id="node20" class="node">
<title>Node20</title>
<g id="a_node20"><a xlink:href="classyaclib_1_1IThreadFactory.html" target="_top" xlink:title=" ">
<polygon fill="none" stroke="black" points="110,-109 110,-128 221,-128 221,-109 110,-109"/>
<text text-anchor="middle" x="165.5" y="-116" font-family="Helvetica,sans-Serif" font-size="10.00">yaclib::IThreadFactory</text>
</a>
</g>
</g>
<!-- Node1&#45;&gt;Node20 -->
<g id="edge20" class="edge">
<title>Node1&#45;&gt;Node20</title>
<path fill="none" stroke="midnightblue" d="M74.19,-118.5C85.5,-118.5 97.95,-118.5 109.89,-118.5"/>
<polygon fill="midnightblue" stroke="midnightblue" points="74.16,-115 64.16,-118.5 74.16,-122 74.16,-115"/>
</g>
<!-- Node21 -->
<g id="node21" class="node">
<title>Node21</title>
<g id="a_node21"><a xlink:href="classyaclib_1_1detail_1_1AtomicEvent.html" target="_top" xlink:title=" ">
<polygon fill="none" stroke="black" points="101,-71 101,-90 230,-90 230,-71 101,-71"/>
<text text-anchor="middle" x="165.5" y="-78" font-family="Helvetica,sans-Serif" font-size="10.00">yaclib::detail::AtomicEvent</text>
</a>
</g>
</g>
<!-- Node1&#45;&gt;Node21 -->
<g id="edge21" class="edge">
<title>Node1&#45;&gt;Node21</title>
<path fill="none" stroke="midnightblue" d="M73.78,-106.72C92.25,-101.38 113.8,-95.15 131.26,-90.11"/>
<polygon fill="midnightblue" stroke="midnightblue" points="72.8,-103.36 64.16,-109.49 74.74,-110.08 72.8,-103.36"/>
</g>
<!-- Node22 -->
<g id="node22" class="node">
<title>Node22</title>
<g id="a_node22"><a xlink:href="classyaclib_1_1detail_1_1MutexEvent.html" target="_top" xlink:title=" ">
<polygon fill="none" stroke="black" points="103,-33 103,-52 228,-52 228,-33 103,-33"/>
<text text-anchor="middle" x="165.5" y="-40" font-family="Helvetica,sans-Serif" font-size="10.00">yaclib::detail::MutexEvent</text>
</a>
</g>
</g>
<!-- Node1&#45;&gt;Node22 -->
<g id="edge22" class="edge">
<title>Node1&#45;&gt;Node22</title>
<path fill="none" stroke="midnightblue" d="M49.42,-101.38C62.37,-88.76 81.46,-72.03 101,-61.5 107.99,-57.73 115.83,-54.62 123.54,-52.07"/>
<polygon fill="midnightblue" stroke="midnightblue" points="46.79,-99.07 42.2,-108.62 51.74,-104.01 46.79,-99.07"/>
</g>
<!-- Node3 -->
<g id="node3" class="node">
<title>Node3</title>
<g id="a_node3"><a xlink:href="classyaclib_1_1IThreadPool.html" target="_top" xlink:title="Interface for thread&#45;pool&#45;like executors.">
<polygon fill="none" stroke="black" points="288,-223 288,-242 386,-242 386,-223 288,-223"/>
<text text-anchor="middle" x="337" y="-230" font-family="Helvetica,sans-Serif" font-size="10.00">yaclib::IThreadPool</text>
</a>
</g>
</g>
<!-- Node2&#45;&gt;Node3 -->
<g id="edge2" class="edge">
<title>Node2&#45;&gt;Node3</title>
<path fill="none" stroke="midnightblue" d="M218.85,-206.24C242.86,-211.62 270.96,-217.92 293.62,-223"/>
<polygon fill="midnightblue" stroke="midnightblue" points="219.36,-202.76 208.83,-203.99 217.83,-209.59 219.36,-202.76"/>
</g>
<!-- Node4 -->
<g id="node4" class="node">
<title>Node4</title>
<g id="a_node4"><a xlink:href="classyaclib_1_1Inline.html" target="_top" xlink:title=" ">
<polygon fill="none" stroke="black" points="302.5,-185 302.5,-204 371.5,-204 371.5,-185 302.5,-185"/>
<text text-anchor="middle" x="337" y="-192" font-family="Helvetica,sans-Serif" font-size="10.00">yaclib::Inline</text>
</a>
</g>
</g>
<!-- Node2&#45;&gt;Node4 -->
<g id="edge3" class="edge">
<title>Node2&#45;&gt;Node4</title>
<path fill="none" stroke="midnightblue" d="M218.98,-194.5C246.19,-194.5 278.61,-194.5 302.42,-194.5"/>
<polygon fill="midnightblue" stroke="midnightblue" points="218.83,-191 208.83,-194.5 218.83,-198 218.83,-191"/>
</g>
<!-- Node6 -->
<g id="node6" class="node">
<title>Node6</title>
<g id="a_node6"><a xlink:href="classyaclib_1_1ITask.html" target="_top" xlink:title="Callable that can be executed in an IExecutor.">
<polygon fill="none" stroke="black" points="301.5,-147 301.5,-166 372.5,-166 372.5,-147 301.5,-147"/>
<text text-anchor="middle" x="337" y="-154" font-family="Helvetica,sans-Serif" font-size="10.00">yaclib::ITask</text>
</a>
</g>
</g>
<!-- Node5&#45;&gt;Node6 -->
<g id="edge5" class="edge">
<title>Node5&#45;&gt;Node6</title>
<path fill="none" stroke="midnightblue" d="M211.22,-156.5C239.42,-156.5 275.3,-156.5 301.34,-156.5"/>
<polygon fill="midnightblue" stroke="midnightblue" points="211.21,-153 201.21,-156.5 211.21,-160 211.21,-153"/>
</g>
<!-- Node7 -->
<g id="node7" class="node">
<title>Node7</title>
<g id="a_node7"><a xlink:href="classyaclib_1_1detail_1_1SafeCall.html" target="_top" xlink:title=" ">
<polygon fill="none" stroke="black" points="447.5,-176.5 447.5,-206.5 557.5,-206.5 557.5,-176.5 447.5,-176.5"/>
<text text-anchor="start" x="455.5" y="-194.5" font-family="Helvetica,sans-Serif" font-size="10.00">yaclib::detail::SafeCall</text>
<text text-anchor="middle" x="502.5" y="-183.5" font-family="Helvetica,sans-Serif" font-size="10.00">&lt; ITask, Functor &gt;</text>
</a>
</g>
</g>
<!-- Node6&#45;&gt;Node7 -->
<g id="edge6" class="edge">
<title>Node6&#45;&gt;Node7</title>
<path fill="none" stroke="midnightblue" d="M382.72,-166.07C402.66,-170.34 426.31,-175.41 447.25,-179.89"/>
<polygon fill="midnightblue" stroke="midnightblue" points="383.19,-162.59 372.67,-163.92 381.72,-169.44 383.19,-162.59"/>
</g>
<!-- Node9 -->
<g id="node9" class="node">
<title>Node9</title>
<g id="a_node9"><a xlink:href="classyaclib_1_1detail_1_1InlineCore.html" target="_top" xlink:title=" ">
<polygon fill="none" stroke="black" points="444,-123 444,-142 561,-142 561,-123 444,-123"/>
<text text-anchor="middle" x="502.5" y="-130" font-family="Helvetica,sans-Serif" font-size="10.00">yaclib::detail::InlineCore</text>
</a>
</g>
</g>
<!-- Node6&#45;&gt;Node9 -->
<g id="edge8" class="edge">
<title>Node6&#45;&gt;Node9</title>
<path fill="none" stroke="midnightblue" d="M382.75,-149.93C401.56,-147.17 423.69,-143.92 443.71,-140.98"/>
<polygon fill="midnightblue" stroke="midnightblue" points="382.06,-146.49 372.67,-151.41 383.08,-153.42 382.06,-146.49"/>
</g>
<!-- Node8 -->
<g id="node8" class="node">
<title>Node8</title>
<g id="a_node8"><a xlink:href="classyaclib_1_1detail_1_1UniqueTask.html" target="_top" xlink:title=" ">
<polygon fill="none" stroke="black" points="605,-191.5 605,-221.5 731,-221.5 731,-191.5 605,-191.5"/>
<text text-anchor="start" x="613" y="-209.5" font-family="Helvetica,sans-Serif" font-size="10.00">yaclib::detail::UniqueTask</text>
<text text-anchor="middle" x="668" y="-198.5" font-family="Helvetica,sans-Serif" font-size="10.00">&lt; Functor &gt;</text>
</a>
</g>
</g>
<!-- Node7&#45;&gt;Node8 -->
<g id="edge7" class="edge">
<title>Node7&#45;&gt;Node8</title>
<path fill="none" stroke="midnightblue" d="M567.99,-197.42C580.14,-198.53 592.82,-199.69 604.89,-200.8"/>
<polygon fill="midnightblue" stroke="midnightblue" points="568.22,-193.92 557.94,-196.49 567.58,-200.89 568.22,-193.92"/>
</g>
<!-- Node10 -->
<g id="node10" class="node">
<title>Node10</title>
<g id="a_node10"><a xlink:href="classyaclib_1_1detail_1_1AllCombinator.html" target="_top" xlink:title=" ">
<polygon fill="none" stroke="black" points="601,-142.5 601,-172.5 735,-172.5 735,-142.5 601,-142.5"/>
<text text-anchor="start" x="609" y="-160.5" font-family="Helvetica,sans-Serif" font-size="10.00">yaclib::detail::AllCombinator</text>
<text text-anchor="middle" x="668" y="-149.5" font-family="Helvetica,sans-Serif" font-size="10.00">&lt; V, E, N, FutureValue &gt;</text>
</a>
</g>
</g>
<!-- Node9&#45;&gt;Node10 -->
<g id="edge9" class="edge">
<title>Node9&#45;&gt;Node10</title>
<path fill="none" stroke="midnightblue" d="M571.25,-142.86C581.07,-144.36 591.16,-145.9 600.94,-147.4"/>
<polygon fill="midnightblue" stroke="midnightblue" points="571.56,-139.37 561.14,-141.31 570.5,-146.29 571.56,-139.37"/>
</g>
<!-- Node11 -->
<g id="node11" class="node">
<title>Node11</title>
<g id="a_node11"><a xlink:href="classyaclib_1_1detail_1_1AnyCombinator.html" target="_top" xlink:title=" ">
<polygon fill="none" stroke="black" points="598,-93.5 598,-123.5 738,-123.5 738,-93.5 598,-93.5"/>
<text text-anchor="start" x="606" y="-111.5" font-family="Helvetica,sans-Serif" font-size="10.00">yaclib::detail::AnyCombinator</text>
<text text-anchor="middle" x="668" y="-100.5" font-family="Helvetica,sans-Serif" font-size="10.00">&lt; V, E, P &gt;</text>
</a>
</g>
</g>
<!-- Node9&#45;&gt;Node11 -->
<g id="edge10" class="edge">
<title>Node9&#45;&gt;Node11</title>
<path fill="none" stroke="midnightblue" d="M571.3,-122.55C580.06,-121.26 589.04,-119.94 597.83,-118.65"/>
<polygon fill="midnightblue" stroke="midnightblue" points="570.53,-119.12 561.14,-124.04 571.55,-126.05 570.53,-119.12"/>
</g>
<!-- Node12 -->
<g id="node12" class="node">
<title>Node12</title>
<g id="a_node12"><a xlink:href="classyaclib_1_1detail_1_1BaseCore.html" target="_top" xlink:title=" ">
<polygon fill="none" stroke="black" points="610,-55 610,-74 726,-74 726,-55 610,-55"/>
<text text-anchor="middle" x="668" y="-62" font-family="Helvetica,sans-Serif" font-size="10.00">yaclib::detail::BaseCore</text>
</a>
</g>
</g>
<!-- Node9&#45;&gt;Node12 -->
<g id="edge11" class="edge">
<title>Node9&#45;&gt;Node12</title>
<path fill="none" stroke="midnightblue" d="M528.91,-117.95C547.59,-107.65 573.84,-94.04 598,-84.5 607.98,-80.56 619.04,-77.01 629.33,-74.03"/>
<polygon fill="midnightblue" stroke="midnightblue" points="527.16,-114.91 520.13,-122.84 530.57,-121.03 527.16,-114.91"/>
</g>
<!-- Node13 -->
<g id="node13" class="node">
<title>Node13</title>
<g id="a_node13"><a xlink:href="classyaclib_1_1detail_1_1ResultCore.html" target="_top" xlink:title=" ">
<polygon fill="none" stroke="black" points="1017.5,-90.5 1017.5,-120.5 1139.5,-120.5 1139.5,-90.5 1017.5,-90.5"/>
<text text-anchor="start" x="1025.5" y="-108.5" font-family="Helvetica,sans-Serif" font-size="10.00">yaclib::detail::ResultCore</text>
<text text-anchor="middle" x="1078.5" y="-97.5" font-family="Helvetica,sans-Serif" font-size="10.00">&lt; void, E &gt;</text>
</a>
</g>
</g>
<!-- Node12&#45;&gt;Node13 -->
<g id="edge12" class="edge">
<title>Node12&#45;&gt;Node13</title>
<path fill="none" stroke="midnightblue" d="M714.27,-76.49C732.94,-80.98 754.88,-85.68 775,-88.5 858.47,-100.21 955.98,-103.92 1017.23,-105.06"/>
<polygon fill="midnightblue" stroke="midnightblue" points="715.09,-73.09 704.54,-74.1 713.42,-79.89 715.09,-73.09"/>
</g>
<!-- Node16 -->
<g id="node16" class="node">
<title>Node16</title>
<g id="a_node16"><a xlink:href="classyaclib_1_1detail_1_1ResultCore.html" target="_top" xlink:title=" ">
<polygon fill="none" stroke="black" points="775,-49.5 775,-79.5 897,-79.5 897,-49.5 775,-49.5"/>
<text text-anchor="start" x="783" y="-67.5" font-family="Helvetica,sans-Serif" font-size="10.00">yaclib::detail::ResultCore</text>
<text text-anchor="middle" x="836" y="-56.5" font-family="Helvetica,sans-Serif" font-size="10.00">&lt; V, E &gt;</text>
</a>
</g>
</g>
<!-- Node12&#45;&gt;Node16 -->
<g id="edge15" class="edge">
<title>Node12&#45;&gt;Node16</title>
<path fill="none" stroke="midnightblue" d="M736.26,-64.5C749.06,-64.5 762.38,-64.5 774.94,-64.5"/>
<polygon fill="midnightblue" stroke="midnightblue" points="736.13,-61 726.13,-64.5 736.13,-68 736.13,-61"/>
</g>
<!-- Node19 -->
<g id="node19" class="node">
<title>Node19</title>
<g id="a_node19"><a xlink:href="classyaclib_1_1detail_1_1ResultCore_3_01void_00_01void_01_4.html" target="_top" xlink:title=" ">
<polygon fill="none" stroke="black" points="775,-0.5 775,-30.5 897,-30.5 897,-0.5 775,-0.5"/>
<text text-anchor="start" x="783" y="-18.5" font-family="Helvetica,sans-Serif" font-size="10.00">yaclib::detail::ResultCore</text>
<text text-anchor="middle" x="836" y="-7.5" font-family="Helvetica,sans-Serif" font-size="10.00">&lt; void, void &gt;</text>
</a>
</g>
</g>
<!-- Node12&#45;&gt;Node19 -->
<g id="edge19" class="edge">
<title>Node12&#45;&gt;Node19</title>
<path fill="none" stroke="midnightblue" d="M711.19,-52.05C733.36,-45.5 760.71,-37.43 784.06,-30.54"/>
<polygon fill="midnightblue" stroke="midnightblue" points="710,-48.75 701.4,-54.94 711.98,-55.46 710,-48.75"/>
</g>
<!-- Node14 -->
<g id="node14" class="node">
<title>Node14</title>
<g id="a_node14"><a xlink:href="structyaclib_1_1detail_1_1AtomicCounter.html" target="_top" xlink:title=" ">
<polygon fill="none" stroke="black" points="1212,-85 1212,-126 1350,-126 1350,-85 1212,-85"/>
<text text-anchor="start" x="1220" y="-114" font-family="Helvetica,sans-Serif" font-size="10.00">yaclib::detail::AtomicCounter</text>
<text text-anchor="start" x="1220" y="-103" font-family="Helvetica,sans-Serif" font-size="10.00">&lt; ResultCore&lt; void, E &gt;,</text>
<text text-anchor="middle" x="1281" y="-92" font-family="Helvetica,sans-Serif" font-size="10.00"> CoroutineDeleter &gt;</text>
</a>
</g>
</g>
<!-- Node13&#45;&gt;Node14 -->
<g id="edge13" class="edge">
<title>Node13&#45;&gt;Node14</title>
<path fill="none" stroke="midnightblue" d="M1149.7,-105.5C1169.85,-105.5 1191.78,-105.5 1211.8,-105.5"/>
<polygon fill="midnightblue" stroke="midnightblue" points="1149.66,-102 1139.66,-105.5 1149.66,-109 1149.66,-102"/>
</g>
<!-- Node15 -->
<g id="node15" class="node">
<title>Node15</title>
<g id="a_node15"><a xlink:href="structyaclib_1_1detail_1_1PromiseType_3_01void_00_01E_01_4.html" target="_top" xlink:title=" ">
<polygon fill="none" stroke="black" points="1387,-90.5 1387,-120.5 1518,-120.5 1518,-90.5 1387,-90.5"/>
<text text-anchor="start" x="1395" y="-108.5" font-family="Helvetica,sans-Serif" font-size="10.00">yaclib::detail::PromiseType</text>
<text text-anchor="middle" x="1452.5" y="-97.5" font-family="Helvetica,sans-Serif" font-size="10.00">&lt; void, E &gt;</text>
</a>
</g>
</g>
<!-- Node14&#45;&gt;Node15 -->
<g id="edge14" class="edge">
<title>Node14&#45;&gt;Node15</title>
<path fill="none" stroke="midnightblue" d="M1360.69,-105.5C1369.47,-105.5 1378.34,-105.5 1386.91,-105.5"/>
<polygon fill="midnightblue" stroke="midnightblue" points="1360.45,-102 1350.45,-105.5 1360.45,-109 1360.45,-102"/>
</g>
<!-- Node16&#45;&gt;Node13 -->
<g id="edge18" class="edge">
<title>Node16&#45;&gt;Node13</title>
<path fill="none" stroke="orange" stroke-dasharray="5,2" d="M907.27,-74.46C925.75,-77.23 945.65,-80.35 964,-83.5 981.31,-86.47 1000.05,-89.98 1017.21,-93.31"/>
<polygon fill="orange" stroke="orange" points="907.57,-70.97 897.17,-72.96 906.54,-77.89 907.57,-70.97"/>
<text text-anchor="middle" x="939.5" y="-86.5" font-family="Helvetica,sans-Serif" font-size="10.00"> &lt; void, E &gt;</text>
</g>
<!-- Node17 -->
<g id="node17" class="node">
<title>Node17</title>
<g id="a_node17"><a xlink:href="structyaclib_1_1detail_1_1AtomicCounter.html" target="_top" xlink:title=" ">
<polygon fill="none" stroke="black" points="982,-34.5 982,-64.5 1175,-64.5 1175,-34.5 982,-34.5"/>
<text text-anchor="start" x="990" y="-52.5" font-family="Helvetica,sans-Serif" font-size="10.00">yaclib::detail::AtomicCounter</text>
<text text-anchor="middle" x="1078.5" y="-41.5" font-family="Helvetica,sans-Serif" font-size="10.00">&lt; ResultCore&lt; V, E &gt;, CoroutineDeleter &gt;</text>
</a>
</g>
</g>
<!-- Node16&#45;&gt;Node17 -->
<g id="edge16" class="edge">
<title>Node16&#45;&gt;Node17</title>
<path fill="none" stroke="midnightblue" d="M907.2,-60.12C930.5,-58.67 956.85,-57.02 981.75,-55.47"/>
<polygon fill="midnightblue" stroke="midnightblue" points="906.83,-56.64 897.07,-60.75 907.27,-63.62 906.83,-56.64"/>
</g>
<!-- Node18 -->
<g id="node18" class="node">
<title>Node18</title>
<g id="a_node18"><a xlink:href="structyaclib_1_1detail_1_1PromiseType.html" target="_top" xlink:title=" ">
<polygon fill="none" stroke="black" points="1215.5,-34.5 1215.5,-64.5 1346.5,-64.5 1346.5,-34.5 1215.5,-34.5"/>
<text text-anchor="start" x="1223.5" y="-52.5" font-family="Helvetica,sans-Serif" font-size="10.00">yaclib::detail::PromiseType</text>
<text text-anchor="middle" x="1281" y="-41.5" font-family="Helvetica,sans-Serif" font-size="10.00">&lt; V, E &gt;</text>
</a>
</g>
</g>
<!-- Node17&#45;&gt;Node18 -->
<g id="edge17" class="edge">
<title>Node17&#45;&gt;Node18</title>
<path fill="none" stroke="midnightblue" d="M1185.27,-49.5C1195.48,-49.5 1205.61,-49.5 1215.24,-49.5"/>
<polygon fill="midnightblue" stroke="midnightblue" points="1185.05,-46 1175.05,-49.5 1185.05,-53 1185.05,-46"/>
</g>
<!-- Node23 -->
<g id="node23" class="node">
<title>Node23</title>
<g id="a_node23"><a xlink:href="structyaclib_1_1detail_1_1AtomicCounter.html" target="_top" xlink:title=" ">
<polygon fill="none" stroke="black" points="267,-22 267,-63 407,-63 407,-22 267,-22"/>
<text text-anchor="start" x="275" y="-51" font-family="Helvetica,sans-Serif" font-size="10.00">yaclib::detail::AtomicCounter</text>
<text text-anchor="start" x="275" y="-40" font-family="Helvetica,sans-Serif" font-size="10.00">&lt; yaclib::detail::MutexEvent,</text>
<text text-anchor="middle" x="337" y="-29" font-family="Helvetica,sans-Serif" font-size="10.00"> yaclib::detail::EventDeleter &gt;</text>
</a>
</g>
</g>
<!-- Node22&#45;&gt;Node23 -->
<g id="edge23" class="edge">
<title>Node22&#45;&gt;Node23</title>
<path fill="none" stroke="midnightblue" d="M238.34,-42.5C247.81,-42.5 257.49,-42.5 266.92,-42.5"/>
<polygon fill="midnightblue" stroke="midnightblue" points="238.17,-39 228.17,-42.5 238.17,-46 238.17,-39"/>
</g>
</g>
</svg>
