<?xml version="1.0" encoding="UTF-8" standalone="no"?>
<!DOCTYPE svg PUBLIC "-//W3C//DTD SVG 1.1//EN"
 "http://www.w3.org/Graphics/SVG/1.1/DTD/svg11.dtd">
<!-- Generated by graphviz version 2.50.0 (20220203.2022)
 -->
<!-- Title: yaclib::detail::SafeCall&lt; Interface, Functor &gt; Pages: 1 -->
<svg width="153pt" height="242pt"
 viewBox="0.00 0.00 153.00 242.00" xmlns="http://www.w3.org/2000/svg" xmlns:xlink="http://www.w3.org/1999/xlink">
<g id="graph0" class="graph" transform="scale(1 1) rotate(0) translate(4 238)">
<title>yaclib::detail::SafeCall&lt; Interface, Functor &gt;</title>
<!-- Node1 -->
<g id="node1" class="node">
<title>Node1</title>
<g id="a_node1"><a xlink:title=" ">
<polygon fill="#bfbfbf" stroke="black" points="8,-146.5 8,-176.5 118,-176.5 118,-146.5 8,-146.5"/>
<text text-anchor="start" x="16" y="-164.5" font-family="Helvetica,sans-Serif" font-size="10.00">yaclib::detail::SafeCall</text>
<text text-anchor="middle" x="63" y="-153.5" font-family="Helvetica,sans-Serif" font-size="10.00">&lt; Interface, Functor &gt;</text>
</a>
</g>
</g>
<!-- Node3 -->
<g id="node3" class="node">
<title>Node3</title>
<g id="a_node3"><a xlink:href="classyaclib_1_1detail_1_1SafeCall.html" target="_top" xlink:title=" ">
<polygon fill="none" stroke="black" points="8,-68.5 8,-98.5 118,-98.5 118,-68.5 8,-68.5"/>
<text text-anchor="start" x="16" y="-86.5" font-family="Helvetica,sans-Serif" font-size="10.00">yaclib::detail::SafeCall</text>
<text text-anchor="middle" x="63" y="-75.5" font-family="Helvetica,sans-Serif" font-size="10.00">&lt; ITask, Functor &gt;</text>
</a>
</g>
</g>
<!-- Node1&#45;&gt;Node3 -->
<g id="edge2" class="edge">
<title>Node1&#45;&gt;Node3</title>
<path fill="none" stroke="orange" stroke-dasharray="5,2" d="M63,-136.09C63,-123.76 63,-109.22 63,-98.73"/>
<polygon fill="orange" stroke="orange" points="59.5,-136.2 63,-146.2 66.5,-136.21 59.5,-136.2"/>
<text text-anchor="middle" x="104" y="-120" font-family="Helvetica,sans-Serif" font-size="10.00"> &lt; ITask, Functor &gt;</text>
</g>
<!-- Node2 -->
<g id="node2" class="node">
<title>Node2</title>
<g id="a_node2"><a xlink:href="classInterface.html" target="_top" xlink:title=" ">
<polygon fill="none" stroke="black" points="35.5,-214.5 35.5,-233.5 90.5,-233.5 90.5,-214.5 35.5,-214.5"/>
<text text-anchor="middle" x="63" y="-221.5" font-family="Helvetica,sans-Serif" font-size="10.00">Interface</text>
</a>
</g>
</g>
<!-- Node2&#45;&gt;Node1 -->
<g id="edge1" class="edge">
<title>Node2&#45;&gt;Node1</title>
<path fill="none" stroke="midnightblue" d="M63,-204.22C63,-195.36 63,-184.96 63,-176.76"/>
<polygon fill="midnightblue" stroke="midnightblue" points="59.5,-204.33 63,-214.33 66.5,-204.33 59.5,-204.33"/>
</g>
<!-- Node4 -->
<g id="node4" class="node">
<title>Node4</title>
<g id="a_node4"><a xlink:href="classyaclib_1_1detail_1_1UniqueTask.html" target="_top" xlink:title=" ">
<polygon fill="none" stroke="black" points="0,-0.5 0,-30.5 126,-30.5 126,-0.5 0,-0.5"/>
<text text-anchor="start" x="8" y="-18.5" font-family="Helvetica,sans-Serif" font-size="10.00">yaclib::detail::UniqueTask</text>
<text text-anchor="middle" x="63" y="-7.5" font-family="Helvetica,sans-Serif" font-size="10.00">&lt; Functor &gt;</text>
</a>
</g>
</g>
<!-- Node3&#45;&gt;Node4 -->
<g id="edge3" class="edge">
<title>Node3&#45;&gt;Node4</title>
<path fill="none" stroke="midnightblue" d="M63,-58.03C63,-48.86 63,-38.74 63,-30.79"/>
<polygon fill="midnightblue" stroke="midnightblue" points="59.5,-58.18 63,-68.18 66.5,-58.18 59.5,-58.18"/>
</g>
</g>
</svg>
