<?xml version="1.0" encoding="UTF-8" standalone="no"?>
<!DOCTYPE svg PUBLIC "-//W3C//DTD SVG 1.1//EN"
 "http://www.w3.org/Graphics/SVG/1.1/DTD/svg11.dtd">
<!-- Generated by graphviz version 2.50.0 (20220203.2022)
 -->
<!-- Title: yaclib::detail::MutexEvent Pages: 1 -->
<svg width="409pt" height="50pt"
 viewBox="0.00 0.00 409.00 50.00" xmlns="http://www.w3.org/2000/svg" xmlns:xlink="http://www.w3.org/1999/xlink">
<g id="graph0" class="graph" transform="scale(1 1) rotate(0) translate(4 46)">
<title>yaclib::detail::MutexEvent</title>
<!-- Node1 -->
<g id="node1" class="node">
<title>Node1</title>
<g id="a_node1"><a xlink:title=" ">
<polygon fill="#bfbfbf" stroke="black" points="100,-11.5 100,-30.5 225,-30.5 225,-11.5 100,-11.5"/>
<text text-anchor="middle" x="162.5" y="-18.5" font-family="Helvetica,sans-Serif" font-size="10.00">yaclib::detail::MutexEvent</text>
</a>
</g>
</g>
<!-- Node3 -->
<g id="node3" class="node">
<title>Node3</title>
<g id="a_node3"><a xlink:href="structyaclib_1_1detail_1_1AtomicCounter.html" target="_top" xlink:title=" ">
<polygon fill="none" stroke="black" points="261,-0.5 261,-41.5 401,-41.5 401,-0.5 261,-0.5"/>
<text text-anchor="start" x="269" y="-29.5" font-family="Helvetica,sans-Serif" font-size="10.00">yaclib::detail::AtomicCounter</text>
<text text-anchor="start" x="269" y="-18.5" font-family="Helvetica,sans-Serif" font-size="10.00">&lt; yaclib::detail::MutexEvent,</text>
<text text-anchor="middle" x="331" y="-7.5" font-family="Helvetica,sans-Serif" font-size="10.00"> yaclib::detail::EventDeleter &gt;</text>
</a>
</g>
</g>
<!-- Node1&#45;&gt;Node3 -->
<g id="edge2" class="edge">
<title>Node1&#45;&gt;Node3</title>
<path fill="none" stroke="midnightblue" d="M235.28,-21C243.77,-21 252.42,-21 260.87,-21"/>
<polygon fill="midnightblue" stroke="midnightblue" points="235.03,-17.5 225.03,-21 235.03,-24.5 235.03,-17.5"/>
</g>
<!-- Node2 -->
<g id="node2" class="node">
<title>Node2</title>
<g id="a_node2"><a xlink:href="classyaclib_1_1IRef.html" target="_top" xlink:title="Reference counting interface.">
<polygon fill="none" stroke="black" points="0,-11.5 0,-30.5 64,-30.5 64,-11.5 0,-11.5"/>
<text text-anchor="middle" x="32" y="-18.5" font-family="Helvetica,sans-Serif" font-size="10.00">yaclib::IRef</text>
</a>
</g>
</g>
<!-- Node2&#45;&gt;Node1 -->
<g id="edge1" class="edge">
<title>Node2&#45;&gt;Node1</title>
<path fill="none" stroke="midnightblue" d="M74.17,-21C82.41,-21 91.22,-21 99.97,-21"/>
<polygon fill="midnightblue" stroke="midnightblue" points="74.11,-17.5 64.11,-21 74.11,-24.5 74.11,-17.5"/>
</g>
</g>
</svg>
