<?xml version="1.0" encoding="UTF-8" standalone="no"?>
<!DOCTYPE svg PUBLIC "-//W3C//DTD SVG 1.1//EN"
 "http://www.w3.org/Graphics/SVG/1.1/DTD/svg11.dtd">
<!-- Generated by graphviz version 2.50.0 (20220203.2022)
 -->
<!-- Title: yaclib::ITask Pages: 1 -->
<svg width="1425pt" height="230pt"
 viewBox="0.00 0.00 1425.00 230.00" xmlns="http://www.w3.org/2000/svg" xmlns:xlink="http://www.w3.org/1999/xlink">
<g id="graph0" class="graph" transform="scale(1 1) rotate(0) translate(4 226)">
<title>yaclib::ITask</title>
<!-- Node1 -->
<g id="node1" class="node">
<title>Node1</title>
<g id="a_node1"><a xlink:title="Callable that can be executed in an IExecutor.">
<polygon fill="#bfbfbf" stroke="black" points="235,-144 235,-163 306,-163 306,-144 235,-144"/>
<text text-anchor="middle" x="270.5" y="-151" font-family="Helvetica,sans-Serif" font-size="10.00">yaclib::ITask</text>
</a>
</g>
</g>
<!-- Node5 -->
<g id="node5" class="node">
<title>Node5</title>
<g id="a_node5"><a xlink:href="classyaclib_1_1detail_1_1SafeCall.html" target="_top" xlink:title=" ">
<polygon fill="none" stroke="black" points="346.5,-176.5 346.5,-206.5 456.5,-206.5 456.5,-176.5 346.5,-176.5"/>
<text text-anchor="start" x="354.5" y="-194.5" font-family="Helvetica,sans-Serif" font-size="10.00">yaclib::detail::SafeCall</text>
<text text-anchor="middle" x="401.5" y="-183.5" font-family="Helvetica,sans-Serif" font-size="10.00">&lt; ITask, Functor &gt;</text>
</a>
</g>
</g>
<!-- Node1&#45;&gt;Node5 -->
<g id="edge4" class="edge">
<title>Node1&#45;&gt;Node5</title>
<path fill="none" stroke="midnightblue" d="M313.74,-165.94C325.13,-169.3 337.56,-172.96 349.38,-176.44"/>
<polygon fill="midnightblue" stroke="midnightblue" points="314.63,-162.56 304.05,-163.09 312.66,-169.27 314.63,-162.56"/>
</g>
<!-- Node7 -->
<g id="node7" class="node">
<title>Node7</title>
<g id="a_node7"><a xlink:href="classyaclib_1_1detail_1_1InlineCore.html" target="_top" xlink:title=" ">
<polygon fill="none" stroke="black" points="343,-123 343,-142 460,-142 460,-123 343,-123"/>
<text text-anchor="middle" x="401.5" y="-130" font-family="Helvetica,sans-Serif" font-size="10.00">yaclib::detail::InlineCore</text>
</a>
</g>
</g>
<!-- Node1&#45;&gt;Node7 -->
<g id="edge6" class="edge">
<title>Node1&#45;&gt;Node7</title>
<path fill="none" stroke="midnightblue" d="M315.97,-146.26C324.66,-144.85 333.88,-143.34 342.92,-141.87"/>
<polygon fill="midnightblue" stroke="midnightblue" points="315.38,-142.81 306.07,-147.87 316.5,-149.72 315.38,-142.81"/>
</g>
<!-- Node2 -->
<g id="node2" class="node">
<title>Node2</title>
<g id="a_node2"><a xlink:href="classyaclib_1_1IFunc.html" target="_top" xlink:title="Shared callable interface.">
<polygon fill="none" stroke="black" points="114,-170 114,-189 185,-189 185,-170 114,-170"/>
<text text-anchor="middle" x="149.5" y="-177" font-family="Helvetica,sans-Serif" font-size="10.00">yaclib::IFunc</text>
</a>
</g>
</g>
<!-- Node2&#45;&gt;Node1 -->
<g id="edge1" class="edge">
<title>Node2&#45;&gt;Node1</title>
<path fill="none" stroke="midnightblue" d="M195.07,-169.76C208.25,-166.88 222.47,-163.77 234.92,-161.05"/>
<polygon fill="midnightblue" stroke="midnightblue" points="194.26,-166.36 185.24,-171.91 195.76,-173.19 194.26,-166.36"/>
</g>
<!-- Node3 -->
<g id="node3" class="node">
<title>Node3</title>
<g id="a_node3"><a xlink:href="classyaclib_1_1IRef.html" target="_top" xlink:title="Reference counting interface.">
<polygon fill="none" stroke="black" points="0,-170 0,-189 64,-189 64,-170 0,-170"/>
<text text-anchor="middle" x="32" y="-177" font-family="Helvetica,sans-Serif" font-size="10.00">yaclib::IRef</text>
</a>
</g>
</g>
<!-- Node3&#45;&gt;Node2 -->
<g id="edge2" class="edge">
<title>Node3&#45;&gt;Node2</title>
<path fill="none" stroke="midnightblue" d="M74.35,-179.5C87.33,-179.5 101.51,-179.5 113.97,-179.5"/>
<polygon fill="midnightblue" stroke="midnightblue" points="74.26,-176 64.26,-179.5 74.26,-183 74.26,-176"/>
</g>
<!-- Node4 -->
<g id="node4" class="node">
<title>Node4</title>
<g id="a_node4"><a xlink:href="structyaclib_1_1detail_1_1Node.html" target="_top" xlink:title="Node class, used in intrusive data structure.">
<polygon fill="none" stroke="black" points="101,-132 101,-151 198,-151 198,-132 101,-132"/>
<text text-anchor="middle" x="149.5" y="-139" font-family="Helvetica,sans-Serif" font-size="10.00">yaclib::detail::Node</text>
</a>
</g>
</g>
<!-- Node4&#45;&gt;Node1 -->
<g id="edge3" class="edge">
<title>Node4&#45;&gt;Node1</title>
<path fill="none" stroke="midnightblue" d="M208.41,-147.34C217.49,-148.26 226.62,-149.18 234.96,-150.02"/>
<polygon fill="midnightblue" stroke="midnightblue" points="208.52,-143.83 198.22,-146.31 207.81,-150.8 208.52,-143.83"/>
</g>
<!-- Node6 -->
<g id="node6" class="node">
<title>Node6</title>
<g id="a_node6"><a xlink:href="classyaclib_1_1detail_1_1UniqueTask.html" target="_top" xlink:title=" ">
<polygon fill="none" stroke="black" points="504,-191.5 504,-221.5 630,-221.5 630,-191.5 504,-191.5"/>
<text text-anchor="start" x="512" y="-209.5" font-family="Helvetica,sans-Serif" font-size="10.00">yaclib::detail::UniqueTask</text>
<text text-anchor="middle" x="567" y="-198.5" font-family="Helvetica,sans-Serif" font-size="10.00">&lt; Functor &gt;</text>
</a>
</g>
</g>
<!-- Node5&#45;&gt;Node6 -->
<g id="edge5" class="edge">
<title>Node5&#45;&gt;Node6</title>
<path fill="none" stroke="midnightblue" d="M466.99,-197.42C479.14,-198.53 491.82,-199.69 503.89,-200.8"/>
<polygon fill="midnightblue" stroke="midnightblue" points="467.22,-193.92 456.94,-196.49 466.58,-200.89 467.22,-193.92"/>
</g>
<!-- Node8 -->
<g id="node8" class="node">
<title>Node8</title>
<g id="a_node8"><a xlink:href="classyaclib_1_1detail_1_1AllCombinator.html" target="_top" xlink:title=" ">
<polygon fill="none" stroke="black" points="500,-142.5 500,-172.5 634,-172.5 634,-142.5 500,-142.5"/>
<text text-anchor="start" x="508" y="-160.5" font-family="Helvetica,sans-Serif" font-size="10.00">yaclib::detail::AllCombinator</text>
<text text-anchor="middle" x="567" y="-149.5" font-family="Helvetica,sans-Serif" font-size="10.00">&lt; V, E, N, FutureValue &gt;</text>
</a>
</g>
</g>
<!-- Node7&#45;&gt;Node8 -->
<g id="edge7" class="edge">
<title>Node7&#45;&gt;Node8</title>
<path fill="none" stroke="midnightblue" d="M470.25,-142.86C480.07,-144.36 490.16,-145.9 499.94,-147.4"/>
<polygon fill="midnightblue" stroke="midnightblue" points="470.56,-139.37 460.14,-141.31 469.5,-146.29 470.56,-139.37"/>
</g>
<!-- Node9 -->
<g id="node9" class="node">
<title>Node9</title>
<g id="a_node9"><a xlink:href="classyaclib_1_1detail_1_1AnyCombinator.html" target="_top" xlink:title=" ">
<polygon fill="none" stroke="black" points="497,-93.5 497,-123.5 637,-123.5 637,-93.5 497,-93.5"/>
<text text-anchor="start" x="505" y="-111.5" font-family="Helvetica,sans-Serif" font-size="10.00">yaclib::detail::AnyCombinator</text>
<text text-anchor="middle" x="567" y="-100.5" font-family="Helvetica,sans-Serif" font-size="10.00">&lt; V, E, P &gt;</text>
</a>
</g>
</g>
<!-- Node7&#45;&gt;Node9 -->
<g id="edge8" class="edge">
<title>Node7&#45;&gt;Node9</title>
<path fill="none" stroke="midnightblue" d="M470.3,-122.55C479.06,-121.26 488.04,-119.94 496.83,-118.65"/>
<polygon fill="midnightblue" stroke="midnightblue" points="469.53,-119.12 460.14,-124.04 470.55,-126.05 469.53,-119.12"/>
</g>
<!-- Node10 -->
<g id="node10" class="node">
<title>Node10</title>
<g id="a_node10"><a xlink:href="classyaclib_1_1detail_1_1BaseCore.html" target="_top" xlink:title=" ">
<polygon fill="none" stroke="black" points="509,-55 509,-74 625,-74 625,-55 509,-55"/>
<text text-anchor="middle" x="567" y="-62" font-family="Helvetica,sans-Serif" font-size="10.00">yaclib::detail::BaseCore</text>
</a>
</g>
</g>
<!-- Node7&#45;&gt;Node10 -->
<g id="edge9" class="edge">
<title>Node7&#45;&gt;Node10</title>
<path fill="none" stroke="midnightblue" d="M427.15,-117.89C445.84,-107.28 472.42,-93.13 497,-83.5 506.14,-79.92 516.21,-76.74 525.76,-74.05"/>
<polygon fill="midnightblue" stroke="midnightblue" points="425.32,-114.91 418.4,-122.93 428.82,-120.97 425.32,-114.91"/>
</g>
<!-- Node11 -->
<g id="node11" class="node">
<title>Node11</title>
<g id="a_node11"><a xlink:href="classyaclib_1_1detail_1_1ResultCore.html" target="_top" xlink:title=" ">
<polygon fill="none" stroke="black" points="916.5,-90.5 916.5,-120.5 1038.5,-120.5 1038.5,-90.5 916.5,-90.5"/>
<text text-anchor="start" x="924.5" y="-108.5" font-family="Helvetica,sans-Serif" font-size="10.00">yaclib::detail::ResultCore</text>
<text text-anchor="middle" x="977.5" y="-97.5" font-family="Helvetica,sans-Serif" font-size="10.00">&lt; void, E &gt;</text>
</a>
</g>
</g>
<!-- Node10&#45;&gt;Node11 -->
<g id="edge10" class="edge">
<title>Node10&#45;&gt;Node11</title>
<path fill="none" stroke="midnightblue" d="M613.27,-76.49C631.94,-80.98 653.88,-85.68 674,-88.5 757.47,-100.21 854.98,-103.92 916.23,-105.06"/>
<polygon fill="midnightblue" stroke="midnightblue" points="614.09,-73.09 603.54,-74.1 612.42,-79.89 614.09,-73.09"/>
</g>
<!-- Node14 -->
<g id="node14" class="node">
<title>Node14</title>
<g id="a_node14"><a xlink:href="classyaclib_1_1detail_1_1ResultCore.html" target="_top" xlink:title=" ">
<polygon fill="none" stroke="black" points="674,-49.5 674,-79.5 796,-79.5 796,-49.5 674,-49.5"/>
<text text-anchor="start" x="682" y="-67.5" font-family="Helvetica,sans-Serif" font-size="10.00">yaclib::detail::ResultCore</text>
<text text-anchor="middle" x="735" y="-56.5" font-family="Helvetica,sans-Serif" font-size="10.00">&lt; V, E &gt;</text>
</a>
</g>
</g>
<!-- Node10&#45;&gt;Node14 -->
<g id="edge13" class="edge">
<title>Node10&#45;&gt;Node14</title>
<path fill="none" stroke="midnightblue" d="M635.26,-64.5C648.06,-64.5 661.38,-64.5 673.94,-64.5"/>
<polygon fill="midnightblue" stroke="midnightblue" points="635.13,-61 625.13,-64.5 635.13,-68 635.13,-61"/>
</g>
<!-- Node17 -->
<g id="node17" class="node">
<title>Node17</title>
<g id="a_node17"><a xlink:href="classyaclib_1_1detail_1_1ResultCore_3_01void_00_01void_01_4.html" target="_top" xlink:title=" ">
<polygon fill="none" stroke="black" points="674,-0.5 674,-30.5 796,-30.5 796,-0.5 674,-0.5"/>
<text text-anchor="start" x="682" y="-18.5" font-family="Helvetica,sans-Serif" font-size="10.00">yaclib::detail::ResultCore</text>
<text text-anchor="middle" x="735" y="-7.5" font-family="Helvetica,sans-Serif" font-size="10.00">&lt; void, void &gt;</text>
</a>
</g>
</g>
<!-- Node10&#45;&gt;Node17 -->
<g id="edge17" class="edge">
<title>Node10&#45;&gt;Node17</title>
<path fill="none" stroke="midnightblue" d="M610.19,-52.05C632.36,-45.5 659.71,-37.43 683.06,-30.54"/>
<polygon fill="midnightblue" stroke="midnightblue" points="609,-48.75 600.4,-54.94 610.98,-55.46 609,-48.75"/>
</g>
<!-- Node12 -->
<g id="node12" class="node">
<title>Node12</title>
<g id="a_node12"><a xlink:href="structyaclib_1_1detail_1_1AtomicCounter.html" target="_top" xlink:title=" ">
<polygon fill="none" stroke="black" points="1111,-85 1111,-126 1249,-126 1249,-85 1111,-85"/>
<text text-anchor="start" x="1119" y="-114" font-family="Helvetica,sans-Serif" font-size="10.00">yaclib::detail::AtomicCounter</text>
<text text-anchor="start" x="1119" y="-103" font-family="Helvetica,sans-Serif" font-size="10.00">&lt; ResultCore&lt; void, E &gt;,</text>
<text text-anchor="middle" x="1180" y="-92" font-family="Helvetica,sans-Serif" font-size="10.00"> CoroutineDeleter &gt;</text>
</a>
</g>
</g>
<!-- Node11&#45;&gt;Node12 -->
<g id="edge11" class="edge">
<title>Node11&#45;&gt;Node12</title>
<path fill="none" stroke="midnightblue" d="M1048.7,-105.5C1068.85,-105.5 1090.78,-105.5 1110.8,-105.5"/>
<polygon fill="midnightblue" stroke="midnightblue" points="1048.66,-102 1038.66,-105.5 1048.66,-109 1048.66,-102"/>
</g>
<!-- Node13 -->
<g id="node13" class="node">
<title>Node13</title>
<g id="a_node13"><a xlink:href="structyaclib_1_1detail_1_1PromiseType_3_01void_00_01E_01_4.html" target="_top" xlink:title=" ">
<polygon fill="none" stroke="black" points="1286,-90.5 1286,-120.5 1417,-120.5 1417,-90.5 1286,-90.5"/>
<text text-anchor="start" x="1294" y="-108.5" font-family="Helvetica,sans-Serif" font-size="10.00">yaclib::detail::PromiseType</text>
<text text-anchor="middle" x="1351.5" y="-97.5" font-family="Helvetica,sans-Serif" font-size="10.00">&lt; void, E &gt;</text>
</a>
</g>
</g>
<!-- Node12&#45;&gt;Node13 -->
<g id="edge12" class="edge">
<title>Node12&#45;&gt;Node13</title>
<path fill="none" stroke="midnightblue" d="M1259.69,-105.5C1268.47,-105.5 1277.34,-105.5 1285.91,-105.5"/>
<polygon fill="midnightblue" stroke="midnightblue" points="1259.45,-102 1249.45,-105.5 1259.45,-109 1259.45,-102"/>
</g>
<!-- Node14&#45;&gt;Node11 -->
<g id="edge16" class="edge">
<title>Node14&#45;&gt;Node11</title>
<path fill="none" stroke="orange" stroke-dasharray="5,2" d="M806.27,-74.46C824.75,-77.23 844.65,-80.35 863,-83.5 880.31,-86.47 899.05,-89.98 916.21,-93.31"/>
<polygon fill="orange" stroke="orange" points="806.57,-70.97 796.17,-72.96 805.54,-77.89 806.57,-70.97"/>
<text text-anchor="middle" x="838.5" y="-86.5" font-family="Helvetica,sans-Serif" font-size="10.00"> &lt; void, E &gt;</text>
</g>
<!-- Node15 -->
<g id="node15" class="node">
<title>Node15</title>
<g id="a_node15"><a xlink:href="structyaclib_1_1detail_1_1AtomicCounter.html" target="_top" xlink:title=" ">
<polygon fill="none" stroke="black" points="881,-34.5 881,-64.5 1074,-64.5 1074,-34.5 881,-34.5"/>
<text text-anchor="start" x="889" y="-52.5" font-family="Helvetica,sans-Serif" font-size="10.00">yaclib::detail::AtomicCounter</text>
<text text-anchor="middle" x="977.5" y="-41.5" font-family="Helvetica,sans-Serif" font-size="10.00">&lt; ResultCore&lt; V, E &gt;, CoroutineDeleter &gt;</text>
</a>
</g>
</g>
<!-- Node14&#45;&gt;Node15 -->
<g id="edge14" class="edge">
<title>Node14&#45;&gt;Node15</title>
<path fill="none" stroke="midnightblue" d="M806.2,-60.12C829.5,-58.67 855.85,-57.02 880.75,-55.47"/>
<polygon fill="midnightblue" stroke="midnightblue" points="805.83,-56.64 796.07,-60.75 806.27,-63.62 805.83,-56.64"/>
</g>
<!-- Node16 -->
<g id="node16" class="node">
<title>Node16</title>
<g id="a_node16"><a xlink:href="structyaclib_1_1detail_1_1PromiseType.html" target="_top" xlink:title=" ">
<polygon fill="none" stroke="black" points="1114.5,-34.5 1114.5,-64.5 1245.5,-64.5 1245.5,-34.5 1114.5,-34.5"/>
<text text-anchor="start" x="1122.5" y="-52.5" font-family="Helvetica,sans-Serif" font-size="10.00">yaclib::detail::PromiseType</text>
<text text-anchor="middle" x="1180" y="-41.5" font-family="Helvetica,sans-Serif" font-size="10.00">&lt; V, E &gt;</text>
</a>
</g>
</g>
<!-- Node15&#45;&gt;Node16 -->
<g id="edge15" class="edge">
<title>Node15&#45;&gt;Node16</title>
<path fill="none" stroke="midnightblue" d="M1084.27,-49.5C1094.48,-49.5 1104.61,-49.5 1114.24,-49.5"/>
<polygon fill="midnightblue" stroke="midnightblue" points="1084.05,-46 1074.05,-49.5 1084.05,-53 1084.05,-46"/>
</g>
</g>
</svg>
