<?xml version="1.0" encoding="UTF-8" standalone="no"?>
<!DOCTYPE svg PUBLIC "-//W3C//DTD SVG 1.1//EN"
 "http://www.w3.org/Graphics/SVG/1.1/DTD/svg11.dtd">
<!-- Generated by graphviz version 2.50.0 (20220203.2022)
 -->
<!-- Title: yaclib::detail::BaseCore Pages: 1 -->
<svg width="1401pt" height="135pt"
 viewBox="0.00 0.00 1401.00 134.50" xmlns="http://www.w3.org/2000/svg" xmlns:xlink="http://www.w3.org/1999/xlink">
<g id="graph0" class="graph" transform="scale(1 1) rotate(0) translate(4 130.5)">
<title>yaclib::detail::BaseCore</title>
<!-- Node1 -->
<g id="node1" class="node">
<title>Node1</title>
<g id="a_node1"><a xlink:title=" ">
<polygon fill="#bfbfbf" stroke="black" points="497,-55 497,-74 613,-74 613,-55 497,-55"/>
<text text-anchor="middle" x="555" y="-62" font-family="Helvetica,sans-Serif" font-size="10.00">yaclib::detail::BaseCore</text>
</a>
</g>
</g>
<!-- Node7 -->
<g id="node7" class="node">
<title>Node7</title>
<g id="a_node7"><a xlink:href="classyaclib_1_1detail_1_1ResultCore.html" target="_top" xlink:title=" ">
<polygon fill="none" stroke="black" points="892.5,-90.5 892.5,-120.5 1014.5,-120.5 1014.5,-90.5 892.5,-90.5"/>
<text text-anchor="start" x="900.5" y="-108.5" font-family="Helvetica,sans-Serif" font-size="10.00">yaclib::detail::ResultCore</text>
<text text-anchor="middle" x="953.5" y="-97.5" font-family="Helvetica,sans-Serif" font-size="10.00">&lt; void, E &gt;</text>
</a>
</g>
</g>
<!-- Node1&#45;&gt;Node7 -->
<g id="edge6" class="edge">
<title>Node1&#45;&gt;Node7</title>
<path fill="none" stroke="midnightblue" d="M596.82,-76.76C613.21,-81.2 632.36,-85.78 650,-88.5 733.44,-101.37 831.16,-104.79 892.45,-105.54"/>
<polygon fill="midnightblue" stroke="midnightblue" points="597.59,-73.34 587.02,-74.03 595.72,-80.08 597.59,-73.34"/>
</g>
<!-- Node10 -->
<g id="node10" class="node">
<title>Node10</title>
<g id="a_node10"><a xlink:href="classyaclib_1_1detail_1_1ResultCore.html" target="_top" xlink:title=" ">
<polygon fill="none" stroke="black" points="650,-49.5 650,-79.5 772,-79.5 772,-49.5 650,-49.5"/>
<text text-anchor="start" x="658" y="-67.5" font-family="Helvetica,sans-Serif" font-size="10.00">yaclib::detail::ResultCore</text>
<text text-anchor="middle" x="711" y="-56.5" font-family="Helvetica,sans-Serif" font-size="10.00">&lt; V, E &gt;</text>
</a>
</g>
</g>
<!-- Node1&#45;&gt;Node10 -->
<g id="edge9" class="edge">
<title>Node1&#45;&gt;Node10</title>
<path fill="none" stroke="midnightblue" d="M623.5,-64.5C632.25,-64.5 641.16,-64.5 649.77,-64.5"/>
<polygon fill="midnightblue" stroke="midnightblue" points="623.34,-61 613.34,-64.5 623.34,-68 623.34,-61"/>
</g>
<!-- Node13 -->
<g id="node13" class="node">
<title>Node13</title>
<g id="a_node13"><a xlink:href="classyaclib_1_1detail_1_1ResultCore_3_01void_00_01void_01_4.html" target="_top" xlink:title=" ">
<polygon fill="none" stroke="black" points="650,-0.5 650,-30.5 772,-30.5 772,-0.5 650,-0.5"/>
<text text-anchor="start" x="658" y="-18.5" font-family="Helvetica,sans-Serif" font-size="10.00">yaclib::detail::ResultCore</text>
<text text-anchor="middle" x="711" y="-7.5" font-family="Helvetica,sans-Serif" font-size="10.00">&lt; void, void &gt;</text>
</a>
</g>
</g>
<!-- Node1&#45;&gt;Node13 -->
<g id="edge13" class="edge">
<title>Node1&#45;&gt;Node13</title>
<path fill="none" stroke="midnightblue" d="M595.7,-51.87C616.17,-45.36 641.28,-37.37 662.74,-30.54"/>
<polygon fill="midnightblue" stroke="midnightblue" points="594.53,-48.57 586.06,-54.94 596.65,-55.24 594.53,-48.57"/>
</g>
<!-- Node2 -->
<g id="node2" class="node">
<title>Node2</title>
<g id="a_node2"><a xlink:href="classyaclib_1_1detail_1_1InlineCore.html" target="_top" xlink:title=" ">
<polygon fill="none" stroke="black" points="343,-55 343,-74 460,-74 460,-55 343,-55"/>
<text text-anchor="middle" x="401.5" y="-62" font-family="Helvetica,sans-Serif" font-size="10.00">yaclib::detail::InlineCore</text>
</a>
</g>
</g>
<!-- Node2&#45;&gt;Node1 -->
<g id="edge1" class="edge">
<title>Node2&#45;&gt;Node1</title>
<path fill="none" stroke="midnightblue" d="M470.49,-64.5C479.33,-64.5 488.32,-64.5 496.95,-64.5"/>
<polygon fill="midnightblue" stroke="midnightblue" points="470.21,-61 460.21,-64.5 470.21,-68 470.21,-61"/>
</g>
<!-- Node3 -->
<g id="node3" class="node">
<title>Node3</title>
<g id="a_node3"><a xlink:href="classyaclib_1_1ITask.html" target="_top" xlink:title="Callable that can be executed in an IExecutor.">
<polygon fill="none" stroke="black" points="235,-55 235,-74 306,-74 306,-55 235,-55"/>
<text text-anchor="middle" x="270.5" y="-62" font-family="Helvetica,sans-Serif" font-size="10.00">yaclib::ITask</text>
</a>
</g>
</g>
<!-- Node3&#45;&gt;Node2 -->
<g id="edge2" class="edge">
<title>Node3&#45;&gt;Node2</title>
<path fill="none" stroke="midnightblue" d="M316.26,-64.5C324.86,-64.5 333.98,-64.5 342.92,-64.5"/>
<polygon fill="midnightblue" stroke="midnightblue" points="316.07,-61 306.07,-64.5 316.07,-68 316.07,-61"/>
</g>
<!-- Node4 -->
<g id="node4" class="node">
<title>Node4</title>
<g id="a_node4"><a xlink:href="classyaclib_1_1IFunc.html" target="_top" xlink:title="Shared callable interface.">
<polygon fill="none" stroke="black" points="114,-81 114,-100 185,-100 185,-81 114,-81"/>
<text text-anchor="middle" x="149.5" y="-88" font-family="Helvetica,sans-Serif" font-size="10.00">yaclib::IFunc</text>
</a>
</g>
</g>
<!-- Node4&#45;&gt;Node3 -->
<g id="edge3" class="edge">
<title>Node4&#45;&gt;Node3</title>
<path fill="none" stroke="midnightblue" d="M195.07,-80.76C208.25,-77.88 222.47,-74.77 234.92,-72.05"/>
<polygon fill="midnightblue" stroke="midnightblue" points="194.26,-77.36 185.24,-82.91 195.76,-84.19 194.26,-77.36"/>
</g>
<!-- Node5 -->
<g id="node5" class="node">
<title>Node5</title>
<g id="a_node5"><a xlink:href="classyaclib_1_1IRef.html" target="_top" xlink:title="Reference counting interface.">
<polygon fill="none" stroke="black" points="0,-81 0,-100 64,-100 64,-81 0,-81"/>
<text text-anchor="middle" x="32" y="-88" font-family="Helvetica,sans-Serif" font-size="10.00">yaclib::IRef</text>
</a>
</g>
</g>
<!-- Node5&#45;&gt;Node4 -->
<g id="edge4" class="edge">
<title>Node5&#45;&gt;Node4</title>
<path fill="none" stroke="midnightblue" d="M74.35,-90.5C87.33,-90.5 101.51,-90.5 113.97,-90.5"/>
<polygon fill="midnightblue" stroke="midnightblue" points="74.26,-87 64.26,-90.5 74.26,-94 74.26,-87"/>
</g>
<!-- Node6 -->
<g id="node6" class="node">
<title>Node6</title>
<g id="a_node6"><a xlink:href="structyaclib_1_1detail_1_1Node.html" target="_top" xlink:title="Node class, used in intrusive data structure.">
<polygon fill="none" stroke="black" points="101,-43 101,-62 198,-62 198,-43 101,-43"/>
<text text-anchor="middle" x="149.5" y="-50" font-family="Helvetica,sans-Serif" font-size="10.00">yaclib::detail::Node</text>
</a>
</g>
</g>
<!-- Node6&#45;&gt;Node3 -->
<g id="edge5" class="edge">
<title>Node6&#45;&gt;Node3</title>
<path fill="none" stroke="midnightblue" d="M208.41,-58.34C217.49,-59.26 226.62,-60.18 234.96,-61.02"/>
<polygon fill="midnightblue" stroke="midnightblue" points="208.52,-54.83 198.22,-57.31 207.81,-61.8 208.52,-54.83"/>
</g>
<!-- Node8 -->
<g id="node8" class="node">
<title>Node8</title>
<g id="a_node8"><a xlink:href="structyaclib_1_1detail_1_1AtomicCounter.html" target="_top" xlink:title=" ">
<polygon fill="none" stroke="black" points="1087,-85 1087,-126 1225,-126 1225,-85 1087,-85"/>
<text text-anchor="start" x="1095" y="-114" font-family="Helvetica,sans-Serif" font-size="10.00">yaclib::detail::AtomicCounter</text>
<text text-anchor="start" x="1095" y="-103" font-family="Helvetica,sans-Serif" font-size="10.00">&lt; ResultCore&lt; void, E &gt;,</text>
<text text-anchor="middle" x="1156" y="-92" font-family="Helvetica,sans-Serif" font-size="10.00"> CoroutineDeleter &gt;</text>
</a>
</g>
</g>
<!-- Node7&#45;&gt;Node8 -->
<g id="edge7" class="edge">
<title>Node7&#45;&gt;Node8</title>
<path fill="none" stroke="midnightblue" d="M1024.7,-105.5C1044.85,-105.5 1066.78,-105.5 1086.8,-105.5"/>
<polygon fill="midnightblue" stroke="midnightblue" points="1024.66,-102 1014.66,-105.5 1024.66,-109 1024.66,-102"/>
</g>
<!-- Node9 -->
<g id="node9" class="node">
<title>Node9</title>
<g id="a_node9"><a xlink:href="structyaclib_1_1detail_1_1PromiseType_3_01void_00_01E_01_4.html" target="_top" xlink:title=" ">
<polygon fill="none" stroke="black" points="1262,-90.5 1262,-120.5 1393,-120.5 1393,-90.5 1262,-90.5"/>
<text text-anchor="start" x="1270" y="-108.5" font-family="Helvetica,sans-Serif" font-size="10.00">yaclib::detail::PromiseType</text>
<text text-anchor="middle" x="1327.5" y="-97.5" font-family="Helvetica,sans-Serif" font-size="10.00">&lt; void, E &gt;</text>
</a>
</g>
</g>
<!-- Node8&#45;&gt;Node9 -->
<g id="edge8" class="edge">
<title>Node8&#45;&gt;Node9</title>
<path fill="none" stroke="midnightblue" d="M1235.69,-105.5C1244.47,-105.5 1253.34,-105.5 1261.91,-105.5"/>
<polygon fill="midnightblue" stroke="midnightblue" points="1235.45,-102 1225.45,-105.5 1235.45,-109 1235.45,-102"/>
</g>
<!-- Node10&#45;&gt;Node7 -->
<g id="edge12" class="edge">
<title>Node10&#45;&gt;Node7</title>
<path fill="none" stroke="orange" stroke-dasharray="5,2" d="M782.27,-74.46C800.75,-77.23 820.65,-80.35 839,-83.5 856.31,-86.47 875.05,-89.98 892.21,-93.31"/>
<polygon fill="orange" stroke="orange" points="782.57,-70.97 772.17,-72.96 781.54,-77.89 782.57,-70.97"/>
<text text-anchor="middle" x="814.5" y="-86.5" font-family="Helvetica,sans-Serif" font-size="10.00"> &lt; void, E &gt;</text>
</g>
<!-- Node11 -->
<g id="node11" class="node">
<title>Node11</title>
<g id="a_node11"><a xlink:href="structyaclib_1_1detail_1_1AtomicCounter.html" target="_top" xlink:title=" ">
<polygon fill="none" stroke="black" points="857,-34.5 857,-64.5 1050,-64.5 1050,-34.5 857,-34.5"/>
<text text-anchor="start" x="865" y="-52.5" font-family="Helvetica,sans-Serif" font-size="10.00">yaclib::detail::AtomicCounter</text>
<text text-anchor="middle" x="953.5" y="-41.5" font-family="Helvetica,sans-Serif" font-size="10.00">&lt; ResultCore&lt; V, E &gt;, CoroutineDeleter &gt;</text>
</a>
</g>
</g>
<!-- Node10&#45;&gt;Node11 -->
<g id="edge10" class="edge">
<title>Node10&#45;&gt;Node11</title>
<path fill="none" stroke="midnightblue" d="M782.2,-60.12C805.5,-58.67 831.85,-57.02 856.75,-55.47"/>
<polygon fill="midnightblue" stroke="midnightblue" points="781.83,-56.64 772.07,-60.75 782.27,-63.62 781.83,-56.64"/>
</g>
<!-- Node12 -->
<g id="node12" class="node">
<title>Node12</title>
<g id="a_node12"><a xlink:href="structyaclib_1_1detail_1_1PromiseType.html" target="_top" xlink:title=" ">
<polygon fill="none" stroke="black" points="1090.5,-34.5 1090.5,-64.5 1221.5,-64.5 1221.5,-34.5 1090.5,-34.5"/>
<text text-anchor="start" x="1098.5" y="-52.5" font-family="Helvetica,sans-Serif" font-size="10.00">yaclib::detail::PromiseType</text>
<text text-anchor="middle" x="1156" y="-41.5" font-family="Helvetica,sans-Serif" font-size="10.00">&lt; V, E &gt;</text>
</a>
</g>
</g>
<!-- Node11&#45;&gt;Node12 -->
<g id="edge11" class="edge">
<title>Node11&#45;&gt;Node12</title>
<path fill="none" stroke="midnightblue" d="M1060.27,-49.5C1070.48,-49.5 1080.61,-49.5 1090.24,-49.5"/>
<polygon fill="midnightblue" stroke="midnightblue" points="1060.05,-46 1050.05,-49.5 1060.05,-53 1060.05,-46"/>
</g>
</g>
</svg>
