<?xml version="1.0" encoding="UTF-8" standalone="no"?>
<!DOCTYPE svg PUBLIC "-//W3C//DTD SVG 1.1//EN"
 "http://www.w3.org/Graphics/SVG/1.1/DTD/svg11.dtd">
<!-- Generated by graphviz version 2.50.0 (20220203.2022)
 -->
<!-- Title: src/fault/condition/condition_variable.cpp Pages: 1 -->
<svg width="317pt" height="229pt"
 viewBox="0.00 0.00 316.50 229.00" xmlns="http://www.w3.org/2000/svg" xmlns:xlink="http://www.w3.org/1999/xlink">
<g id="graph0" class="graph" transform="scale(1 1) rotate(0) translate(4 225)">
<title>src/fault/condition/condition_variable.cpp</title>
<!-- Node1 -->
<g id="node1" class="node">
<title>Node1</title>
<g id="a_node1"><a xlink:title=" ">
<polygon fill="#bfbfbf" stroke="black" points="0,-190.5 0,-220.5 116,-220.5 116,-190.5 0,-190.5"/>
<text text-anchor="start" x="8" y="-208.5" font-family="Helvetica,sans-Serif" font-size="10.00">src/fault/condition</text>
<text text-anchor="middle" x="58" y="-197.5" font-family="Helvetica,sans-Serif" font-size="10.00">/condition_variable.cpp</text>
</a>
</g>
</g>
<!-- Node2 -->
<g id="node2" class="node">
<title>Node2</title>
<g id="a_node2"><a xlink:title=" ">
<polygon fill="none" stroke="#bfbfbf" points="12,-0.5 12,-19.5 100,-19.5 100,-0.5 12,-0.5"/>
<text text-anchor="middle" x="56" y="-7.5" font-family="Helvetica,sans-Serif" font-size="10.00">yaclib/config.hpp</text>
</a>
</g>
</g>
<!-- Node1&#45;&gt;Node2 -->
<g id="edge1" class="edge">
<title>Node1&#45;&gt;Node2</title>
<path fill="none" stroke="midnightblue" d="M57.85,-190.27C57.5,-155.94 56.59,-68.57 56.2,-29.9"/>
<polygon fill="midnightblue" stroke="midnightblue" points="59.69,-29.54 56.09,-19.58 52.69,-29.61 59.69,-29.54"/>
</g>
<!-- Node3 -->
<g id="node3" class="node">
<title>Node3</title>
<g id="a_node3"><a xlink:href="detail_2condition_2condition__variable_8hpp.html" target="_top" xlink:title=" ">
<polygon fill="none" stroke="black" points="68.5,-112.5 68.5,-153.5 169.5,-153.5 169.5,-112.5 68.5,-112.5"/>
<text text-anchor="start" x="76.5" y="-141.5" font-family="Helvetica,sans-Serif" font-size="10.00">yaclib/fault/detail</text>
<text text-anchor="start" x="76.5" y="-130.5" font-family="Helvetica,sans-Serif" font-size="10.00">/condition/condition</text>
<text text-anchor="middle" x="119" y="-119.5" font-family="Helvetica,sans-Serif" font-size="10.00">_variable.hpp</text>
</a>
</g>
</g>
<!-- Node1&#45;&gt;Node3 -->
<g id="edge2" class="edge">
<title>Node1&#45;&gt;Node3</title>
<path fill="none" stroke="midnightblue" d="M70.34,-190.23C77.54,-181.92 86.86,-171.15 95.41,-161.26"/>
<polygon fill="midnightblue" stroke="midnightblue" points="98.15,-163.44 102.05,-153.59 92.86,-158.86 98.15,-163.44"/>
</g>
<!-- Node3&#45;&gt;Node2 -->
<g id="edge3" class="edge">
<title>Node3&#45;&gt;Node2</title>
<path fill="none" stroke="midnightblue" d="M101.2,-112.44C92.62,-102.19 82.75,-89.07 76,-76 68.38,-61.25 63.1,-43.09 59.88,-29.72"/>
<polygon fill="midnightblue" stroke="midnightblue" points="63.26,-28.79 57.66,-19.79 56.43,-30.31 63.26,-28.79"/>
</g>
<!-- Node4 -->
<g id="node4" class="node">
<title>Node4</title>
<g id="a_node4"><a xlink:href="mutex_8hpp.html" target="_top" xlink:title=" ">
<polygon fill="none" stroke="black" points="85,-56.5 85,-75.5 195,-75.5 195,-56.5 85,-56.5"/>
<text text-anchor="middle" x="140" y="-63.5" font-family="Helvetica,sans-Serif" font-size="10.00">yaclib/fault/mutex.hpp</text>
</a>
</g>
</g>
<!-- Node3&#45;&gt;Node4 -->
<g id="edge4" class="edge">
<title>Node3&#45;&gt;Node4</title>
<path fill="none" stroke="midnightblue" d="M125.3,-112.5C128.09,-103.87 131.35,-93.79 134.09,-85.31"/>
<polygon fill="midnightblue" stroke="midnightblue" points="137.46,-86.24 137.2,-75.65 130.8,-84.09 137.46,-86.24"/>
</g>
<!-- Node6 -->
<g id="node6" class="node">
<title>Node6</title>
<g id="a_node6"><a xlink:title=" ">
<polygon fill="none" stroke="#bfbfbf" points="213.5,-56.5 213.5,-75.5 308.5,-75.5 308.5,-56.5 213.5,-56.5"/>
<text text-anchor="middle" x="261" y="-63.5" font-family="Helvetica,sans-Serif" font-size="10.00">condition_variable</text>
</a>
</g>
</g>
<!-- Node3&#45;&gt;Node6 -->
<g id="edge7" class="edge">
<title>Node3&#45;&gt;Node6</title>
<path fill="none" stroke="midnightblue" d="M161.6,-112.5C184.63,-101.96 212.43,-89.23 232.77,-79.92"/>
<polygon fill="midnightblue" stroke="midnightblue" points="234.46,-83 242.1,-75.65 231.55,-76.63 234.46,-83"/>
</g>
<!-- Node4&#45;&gt;Node2 -->
<g id="edge5" class="edge">
<title>Node4&#45;&gt;Node2</title>
<path fill="none" stroke="midnightblue" d="M126.5,-56.32C113.4,-47.9 93.29,-34.97 77.89,-25.07"/>
<polygon fill="midnightblue" stroke="midnightblue" points="79.77,-22.12 69.46,-19.65 75.98,-28.01 79.77,-22.12"/>
</g>
<!-- Node5 -->
<g id="node5" class="node">
<title>Node5</title>
<g id="a_node5"><a xlink:title=" ">
<polygon fill="none" stroke="#bfbfbf" points="118.5,-0.5 118.5,-19.5 161.5,-19.5 161.5,-0.5 118.5,-0.5"/>
<text text-anchor="middle" x="140" y="-7.5" font-family="Helvetica,sans-Serif" font-size="10.00">mutex</text>
</a>
</g>
</g>
<!-- Node4&#45;&gt;Node5 -->
<g id="edge6" class="edge">
<title>Node4&#45;&gt;Node5</title>
<path fill="none" stroke="midnightblue" d="M140,-56.08C140,-49.01 140,-38.86 140,-29.99"/>
<polygon fill="midnightblue" stroke="midnightblue" points="143.5,-29.75 140,-19.75 136.5,-29.75 143.5,-29.75"/>
</g>
</g>
</svg>
