<?xml version="1.0" encoding="UTF-8" standalone="no"?>
<!DOCTYPE svg PUBLIC "-//W3C//DTD SVG 1.1//EN"
 "http://www.w3.org/Graphics/SVG/1.1/DTD/svg11.dtd">
<!-- Generated by graphviz version 2.50.0 (20220203.2022)
 -->
<!-- Title: include/yaclib/async/detail/core.hpp Pages: 1 -->
<svg width="1786pt" height="374pt"
 viewBox="0.00 0.00 1786.00 374.00" xmlns="http://www.w3.org/2000/svg" xmlns:xlink="http://www.w3.org/1999/xlink">
<g id="graph0" class="graph" transform="scale(1 1) rotate(0) translate(4 370)">
<title>include/yaclib/async/detail/core.hpp</title>
<!-- Node1 -->
<g id="node1" class="node">
<title>Node1</title>
<g id="a_node1"><a xlink:title=" ">
<polygon fill="#bfbfbf" stroke="black" points="604,-335.5 604,-365.5 708,-365.5 708,-335.5 604,-335.5"/>
<text text-anchor="start" x="612" y="-353.5" font-family="Helvetica,sans-Serif" font-size="10.00">include/yaclib/async</text>
<text text-anchor="middle" x="656" y="-342.5" font-family="Helvetica,sans-Serif" font-size="10.00">/detail/core.hpp</text>
</a>
</g>
</g>
<!-- Node2 -->
<g id="node2" class="node">
<title>Node2</title>
<g id="a_node2"><a xlink:href="future__impl_8hpp.html" target="_top" xlink:title=" ">
<polygon fill="none" stroke="black" points="842,-268.5 842,-298.5 954,-298.5 954,-268.5 842,-268.5"/>
<text text-anchor="start" x="850" y="-286.5" font-family="Helvetica,sans-Serif" font-size="10.00">include/yaclib/async</text>
<text text-anchor="middle" x="898" y="-275.5" font-family="Helvetica,sans-Serif" font-size="10.00">/detail/future_impl.hpp</text>
</a>
</g>
</g>
<!-- Node1&#45;&gt;Node2 -->
<g id="edge1" class="edge">
<title>Node1&#45;&gt;Node2</title>
<path fill="none" stroke="midnightblue" d="M717.99,-332.85C757.45,-322.25 807.99,-308.68 845.46,-298.61"/>
<polygon fill="midnightblue" stroke="midnightblue" points="716.96,-329.5 708.21,-335.48 718.78,-336.26 716.96,-329.5"/>
</g>
<!-- Node18 -->
<g id="node18" class="node">
<title>Node18</title>
<g id="a_node18"><a xlink:href="run_8hpp.html" target="_top" xlink:title=" ">
<polygon fill="none" stroke="black" points="0,-134.5 0,-164.5 104,-164.5 104,-134.5 0,-134.5"/>
<text text-anchor="start" x="8" y="-152.5" font-family="Helvetica,sans-Serif" font-size="10.00">include/yaclib/async</text>
<text text-anchor="middle" x="52" y="-141.5" font-family="Helvetica,sans-Serif" font-size="10.00">/run.hpp</text>
</a>
</g>
</g>
<!-- Node1&#45;&gt;Node18 -->
<g id="edge37" class="edge">
<title>Node1&#45;&gt;Node18</title>
<path fill="none" stroke="midnightblue" d="M603.52,-332.21C485.81,-293.43 202.63,-200.13 94.73,-164.58"/>
<polygon fill="midnightblue" stroke="midnightblue" points="602.45,-335.54 613.05,-335.35 604.64,-328.89 602.45,-335.54"/>
</g>
<!-- Node3 -->
<g id="node3" class="node">
<title>Node3</title>
<g id="a_node3"><a xlink:href="future_8hpp.html" target="_top" xlink:title=" ">
<polygon fill="none" stroke="black" points="846,-201.5 846,-231.5 950,-231.5 950,-201.5 846,-201.5"/>
<text text-anchor="start" x="854" y="-219.5" font-family="Helvetica,sans-Serif" font-size="10.00">include/yaclib/async</text>
<text text-anchor="middle" x="898" y="-208.5" font-family="Helvetica,sans-Serif" font-size="10.00">/future.hpp</text>
</a>
</g>
</g>
<!-- Node2&#45;&gt;Node3 -->
<g id="edge2" class="edge">
<title>Node2&#45;&gt;Node3</title>
<path fill="none" stroke="midnightblue" d="M898,-258.11C898,-249.15 898,-239.32 898,-231.58"/>
<polygon fill="midnightblue" stroke="midnightblue" points="894.5,-258.4 898,-268.4 901.5,-258.4 894.5,-258.4"/>
</g>
<!-- Node4 -->
<g id="node4" class="node">
<title>Node4</title>
<g id="a_node4"><a xlink:href="when__all__impl_8hpp.html" target="_top" xlink:title=" ">
<polygon fill="none" stroke="black" points="122.5,-134.5 122.5,-164.5 247.5,-164.5 247.5,-134.5 122.5,-134.5"/>
<text text-anchor="start" x="130.5" y="-152.5" font-family="Helvetica,sans-Serif" font-size="10.00">include/yaclib/algo</text>
<text text-anchor="middle" x="185" y="-141.5" font-family="Helvetica,sans-Serif" font-size="10.00">/detail/when_all_impl.hpp</text>
</a>
</g>
</g>
<!-- Node3&#45;&gt;Node4 -->
<g id="edge3" class="edge">
<title>Node3&#45;&gt;Node4</title>
<path fill="none" stroke="midnightblue" d="M835.57,-212.76C721.34,-207.26 471.21,-192.92 262,-165 257.28,-164.37 252.41,-163.64 247.52,-162.85"/>
<polygon fill="midnightblue" stroke="midnightblue" points="835.71,-216.27 845.86,-213.25 836.04,-209.28 835.71,-216.27"/>
</g>
<!-- Node5 -->
<g id="node5" class="node">
<title>Node5</title>
<g id="a_node5"><a xlink:href="when__all_8hpp.html" target="_top" xlink:title=" ">
<polygon fill="none" stroke="black" points="214,-67.5 214,-97.5 310,-97.5 310,-67.5 214,-67.5"/>
<text text-anchor="start" x="222" y="-85.5" font-family="Helvetica,sans-Serif" font-size="10.00">include/yaclib/algo</text>
<text text-anchor="middle" x="262" y="-74.5" font-family="Helvetica,sans-Serif" font-size="10.00">/when_all.hpp</text>
</a>
</g>
</g>
<!-- Node3&#45;&gt;Node5 -->
<g id="edge18" class="edge">
<title>Node3&#45;&gt;Node5</title>
<path fill="none" stroke="midnightblue" d="M835.91,-213.95C690.68,-209.8 337.85,-196.56 295,-165 273.37,-149.07 265.88,-116.52 263.32,-97.73"/>
<polygon fill="midnightblue" stroke="midnightblue" points="835.9,-217.45 846,-214.23 836.1,-210.45 835.9,-217.45"/>
</g>
<!-- Node7 -->
<g id="node7" class="node">
<title>Node7</title>
<g id="a_node7"><a xlink:href="when__any__impl_8hpp.html" target="_top" xlink:title=" ">
<polygon fill="none" stroke="black" points="698.5,-134.5 698.5,-164.5 829.5,-164.5 829.5,-134.5 698.5,-134.5"/>
<text text-anchor="start" x="706.5" y="-152.5" font-family="Helvetica,sans-Serif" font-size="10.00">include/yaclib/algo</text>
<text text-anchor="middle" x="764" y="-141.5" font-family="Helvetica,sans-Serif" font-size="10.00">/detail/when_any_impl.hpp</text>
</a>
</g>
</g>
<!-- Node3&#45;&gt;Node7 -->
<g id="edge6" class="edge">
<title>Node3&#45;&gt;Node7</title>
<path fill="none" stroke="midnightblue" d="M859.85,-196.99C838.61,-186.69 812.59,-174.07 793.02,-164.58"/>
<polygon fill="midnightblue" stroke="midnightblue" points="858.4,-200.18 868.92,-201.4 861.45,-193.88 858.4,-200.18"/>
</g>
<!-- Node8 -->
<g id="node8" class="node">
<title>Node8</title>
<g id="a_node8"><a xlink:href="when__any_8hpp.html" target="_top" xlink:title=" ">
<polygon fill="none" stroke="black" points="361,-67.5 361,-97.5 457,-97.5 457,-67.5 361,-67.5"/>
<text text-anchor="start" x="369" y="-85.5" font-family="Helvetica,sans-Serif" font-size="10.00">include/yaclib/algo</text>
<text text-anchor="middle" x="409" y="-74.5" font-family="Helvetica,sans-Serif" font-size="10.00">/when_any.hpp</text>
</a>
</g>
</g>
<!-- Node3&#45;&gt;Node8 -->
<g id="edge19" class="edge">
<title>Node3&#45;&gt;Node8</title>
<path fill="none" stroke="midnightblue" d="M835.56,-214.78C730.06,-212.51 522.02,-203.17 461,-165 435.96,-149.33 420.77,-116.69 413.72,-97.81"/>
<polygon fill="midnightblue" stroke="midnightblue" points="835.68,-218.28 845.75,-214.98 835.82,-211.28 835.68,-218.28"/>
</g>
<!-- Node10 -->
<g id="node10" class="node">
<title>Node10</title>
<g id="a_node10"><a xlink:href="when__impl_8hpp.html" target="_top" xlink:title=" ">
<polygon fill="none" stroke="black" points="304,-134.5 304,-164.5 414,-164.5 414,-134.5 304,-134.5"/>
<text text-anchor="start" x="312" y="-152.5" font-family="Helvetica,sans-Serif" font-size="10.00">include/yaclib/algo</text>
<text text-anchor="middle" x="359" y="-141.5" font-family="Helvetica,sans-Serif" font-size="10.00">/detail/when_impl.hpp</text>
</a>
</g>
</g>
<!-- Node3&#45;&gt;Node10 -->
<g id="edge9" class="edge">
<title>Node3&#45;&gt;Node10</title>
<path fill="none" stroke="midnightblue" d="M835.91,-210.82C745.72,-203.57 573.37,-188.02 428,-165 423.53,-164.29 418.91,-163.48 414.27,-162.62"/>
<polygon fill="midnightblue" stroke="midnightblue" points="835.72,-214.32 845.96,-211.62 836.27,-207.34 835.72,-214.32"/>
</g>
<!-- Node11 -->
<g id="node11" class="node">
<title>Node11</title>
<g id="a_node11"><a xlink:href="wait_8hpp.html" target="_top" xlink:title=" ">
<polygon fill="none" stroke="black" points="1682,-134.5 1682,-164.5 1778,-164.5 1778,-134.5 1682,-134.5"/>
<text text-anchor="start" x="1690" y="-152.5" font-family="Helvetica,sans-Serif" font-size="10.00">include/yaclib/algo</text>
<text text-anchor="middle" x="1730" y="-141.5" font-family="Helvetica,sans-Serif" font-size="10.00">/wait.hpp</text>
</a>
</g>
</g>
<!-- Node3&#45;&gt;Node11 -->
<g id="edge12" class="edge">
<title>Node3&#45;&gt;Node11</title>
<path fill="none" stroke="midnightblue" d="M960.41,-214.87C1091.96,-212.79 1407.06,-203.8 1668,-165 1672.48,-164.33 1677.12,-163.51 1681.75,-162.59"/>
<polygon fill="midnightblue" stroke="midnightblue" points="960.08,-211.38 950.14,-215.03 960.19,-218.38 960.08,-211.38"/>
</g>
<!-- Node12 -->
<g id="node12" class="node">
<title>Node12</title>
<g id="a_node12"><a xlink:href="wait__for_8hpp.html" target="_top" xlink:title=" ">
<polygon fill="none" stroke="black" points="470,-134.5 470,-164.5 566,-164.5 566,-134.5 470,-134.5"/>
<text text-anchor="start" x="478" y="-152.5" font-family="Helvetica,sans-Serif" font-size="10.00">include/yaclib/algo</text>
<text text-anchor="middle" x="518" y="-141.5" font-family="Helvetica,sans-Serif" font-size="10.00">/wait_for.hpp</text>
</a>
</g>
</g>
<!-- Node3&#45;&gt;Node12 -->
<g id="edge14" class="edge">
<title>Node3&#45;&gt;Node12</title>
<path fill="none" stroke="midnightblue" d="M835.86,-207.55C770.6,-198.79 665.12,-183.47 575,-165 572.1,-164.41 569.12,-163.76 566.13,-163.08"/>
<polygon fill="midnightblue" stroke="midnightblue" points="835.61,-211.05 845.98,-208.9 836.53,-204.11 835.61,-211.05"/>
</g>
<!-- Node13 -->
<g id="node13" class="node">
<title>Node13</title>
<g id="a_node13"><a xlink:href="wait__group_8hpp.html" target="_top" xlink:title=" ">
<polygon fill="none" stroke="black" points="1008,-134.5 1008,-164.5 1104,-164.5 1104,-134.5 1008,-134.5"/>
<text text-anchor="start" x="1016" y="-152.5" font-family="Helvetica,sans-Serif" font-size="10.00">include/yaclib/algo</text>
<text text-anchor="middle" x="1056" y="-141.5" font-family="Helvetica,sans-Serif" font-size="10.00">/wait_group.hpp</text>
</a>
</g>
</g>
<!-- Node3&#45;&gt;Node13 -->
<g id="edge15" class="edge">
<title>Node3&#45;&gt;Node13</title>
<path fill="none" stroke="midnightblue" d="M941.65,-197.54C966.93,-187.14 998.3,-174.24 1021.78,-164.58"/>
<polygon fill="midnightblue" stroke="midnightblue" points="940.2,-194.35 932.28,-201.4 942.86,-200.83 940.2,-194.35"/>
</g>
<!-- Node15 -->
<g id="node15" class="node">
<title>Node15</title>
<g id="a_node15"><a xlink:href="wait__until_8hpp.html" target="_top" xlink:title=" ">
<polygon fill="none" stroke="black" points="584,-134.5 584,-164.5 680,-164.5 680,-134.5 584,-134.5"/>
<text text-anchor="start" x="592" y="-152.5" font-family="Helvetica,sans-Serif" font-size="10.00">include/yaclib/algo</text>
<text text-anchor="middle" x="632" y="-141.5" font-family="Helvetica,sans-Serif" font-size="10.00">/wait_until.hpp</text>
</a>
</g>
</g>
<!-- Node3&#45;&gt;Node15 -->
<g id="edge17" class="edge">
<title>Node3&#45;&gt;Node15</title>
<path fill="none" stroke="midnightblue" d="M836.01,-200.73C794.4,-190.76 738.37,-177.24 689,-165 686.13,-164.29 683.17,-163.55 680.19,-162.8"/>
<polygon fill="midnightblue" stroke="midnightblue" points="835.45,-204.19 845.99,-203.12 837.08,-197.39 835.45,-204.19"/>
</g>
<!-- Node16 -->
<g id="node16" class="node">
<title>Node16</title>
<g id="a_node16"><a xlink:href="contract_8hpp.html" target="_top" xlink:title=" ">
<polygon fill="none" stroke="black" points="886,-134.5 886,-164.5 990,-164.5 990,-134.5 886,-134.5"/>
<text text-anchor="start" x="894" y="-152.5" font-family="Helvetica,sans-Serif" font-size="10.00">include/yaclib/async</text>
<text text-anchor="middle" x="938" y="-141.5" font-family="Helvetica,sans-Serif" font-size="10.00">/contract.hpp</text>
</a>
</g>
</g>
<!-- Node3&#45;&gt;Node16 -->
<g id="edge20" class="edge">
<title>Node3&#45;&gt;Node16</title>
<path fill="none" stroke="midnightblue" d="M911.93,-192.87C917.72,-183.46 924.26,-172.83 929.34,-164.58"/>
<polygon fill="midnightblue" stroke="midnightblue" points="908.94,-191.05 906.68,-201.4 914.9,-194.71 908.94,-191.05"/>
</g>
<!-- Node17 -->
<g id="node17" class="node">
<title>Node17</title>
<g id="a_node17"><a xlink:href="simple_8cpp.html" target="_top" xlink:title=" ">
<polygon fill="none" stroke="black" points="807.5,-67.5 807.5,-97.5 908.5,-97.5 908.5,-67.5 807.5,-67.5"/>
<text text-anchor="start" x="815.5" y="-85.5" font-family="Helvetica,sans-Serif" font-size="10.00">test/example/async</text>
<text text-anchor="middle" x="858" y="-74.5" font-family="Helvetica,sans-Serif" font-size="10.00">/simple.cpp</text>
</a>
</g>
</g>
<!-- Node3&#45;&gt;Node17 -->
<g id="edge36" class="edge">
<title>Node3&#45;&gt;Node17</title>
<path fill="none" stroke="midnightblue" d="M887.26,-191.96C883.69,-183.56 879.89,-173.96 877,-165 869.52,-141.77 863.67,-113.93 860.54,-97.53"/>
<polygon fill="midnightblue" stroke="midnightblue" points="884.07,-193.4 891.29,-201.15 890.48,-190.59 884.07,-193.4"/>
</g>
<!-- Node3&#45;&gt;Node18 -->
<g id="edge22" class="edge">
<title>Node3&#45;&gt;Node18</title>
<path fill="none" stroke="midnightblue" d="M835.75,-215.06C702.46,-213.34 379.88,-205.01 113,-165 110.09,-164.56 107.12,-164.06 104.13,-163.5"/>
<polygon fill="midnightblue" stroke="midnightblue" points="835.74,-218.56 845.78,-215.18 835.82,-211.56 835.74,-218.56"/>
</g>
<!-- Node19 -->
<g id="node19" class="node">
<title>Node19</title>
<g id="a_node19"><a xlink:href="await_8hpp.html" target="_top" xlink:title=" ">
<polygon fill="none" stroke="black" points="1222,-67.5 1222,-97.5 1340,-97.5 1340,-67.5 1222,-67.5"/>
<text text-anchor="start" x="1230" y="-85.5" font-family="Helvetica,sans-Serif" font-size="10.00">include/yaclib/coroutine</text>
<text text-anchor="middle" x="1281" y="-74.5" font-family="Helvetica,sans-Serif" font-size="10.00">/await.hpp</text>
</a>
</g>
</g>
<!-- Node3&#45;&gt;Node19 -->
<g id="edge26" class="edge">
<title>Node3&#45;&gt;Node19</title>
<path fill="none" stroke="midnightblue" d="M960.24,-208.48C1004.58,-201.69 1064.65,-188.8 1113,-165 1132.55,-155.37 1132.17,-144.97 1151,-134 1177.26,-118.71 1209.01,-106.27 1234.57,-97.57"/>
<polygon fill="midnightblue" stroke="midnightblue" points="959.56,-205.04 950.18,-209.95 960.58,-211.96 959.56,-205.04"/>
</g>
<!-- Node20 -->
<g id="node20" class="node">
<title>Node20</title>
<g id="a_node20"><a xlink:href="coroutine__deleter_8hpp.html" target="_top" xlink:title=" ">
<polygon fill="none" stroke="black" points="1488,-134.5 1488,-164.5 1626,-164.5 1626,-134.5 1488,-134.5"/>
<text text-anchor="start" x="1496" y="-152.5" font-family="Helvetica,sans-Serif" font-size="10.00">include/yaclib/coroutine</text>
<text text-anchor="middle" x="1557" y="-141.5" font-family="Helvetica,sans-Serif" font-size="10.00">/detail/coroutine_deleter.hpp</text>
</a>
</g>
</g>
<!-- Node3&#45;&gt;Node20 -->
<g id="edge27" class="edge">
<title>Node3&#45;&gt;Node20</title>
<path fill="none" stroke="midnightblue" d="M960.37,-211.79C1066.27,-205.09 1287.85,-189.38 1474,-165 1478.5,-164.41 1483.12,-163.75 1487.78,-163.05"/>
<polygon fill="midnightblue" stroke="midnightblue" points="959.95,-208.31 950.19,-212.42 960.39,-215.29 959.95,-208.31"/>
</g>
<!-- Node21 -->
<g id="node21" class="node">
<title>Node21</title>
<g id="a_node21"><a xlink:href="promise__type_8hpp.html" target="_top" xlink:title=" ">
<polygon fill="none" stroke="black" points="1555,-67.5 1555,-97.5 1677,-97.5 1677,-67.5 1555,-67.5"/>
<text text-anchor="start" x="1563" y="-85.5" font-family="Helvetica,sans-Serif" font-size="10.00">include/yaclib/coroutine</text>
<text text-anchor="middle" x="1616" y="-74.5" font-family="Helvetica,sans-Serif" font-size="10.00">/detail/promise_type.hpp</text>
</a>
</g>
</g>
<!-- Node3&#45;&gt;Node21 -->
<g id="edge33" class="edge">
<title>Node3&#45;&gt;Node21</title>
<path fill="none" stroke="midnightblue" d="M960.27,-213.52C1133.87,-207.71 1612.1,-189.53 1635,-165 1652.25,-146.52 1637.28,-115.51 1625.91,-97.54"/>
<polygon fill="midnightblue" stroke="midnightblue" points="960.14,-210.02 950.26,-213.86 960.37,-217.02 960.14,-210.02"/>
</g>
<!-- Node22 -->
<g id="node22" class="node">
<title>Node22</title>
<g id="a_node22"><a xlink:href="future__coro__traits_8hpp.html" target="_top" xlink:title=" ">
<polygon fill="none" stroke="black" points="1468,-0.5 1468,-30.5 1586,-30.5 1586,-0.5 1468,-0.5"/>
<text text-anchor="start" x="1476" y="-18.5" font-family="Helvetica,sans-Serif" font-size="10.00">include/yaclib/coroutine</text>
<text text-anchor="middle" x="1527" y="-7.5" font-family="Helvetica,sans-Serif" font-size="10.00">/future_coro_traits.hpp</text>
</a>
</g>
</g>
<!-- Node3&#45;&gt;Node22 -->
<g id="edge34" class="edge">
<title>Node3&#45;&gt;Node22</title>
<path fill="none" stroke="midnightblue" d="M960.25,-212.91C1094.27,-206.87 1401.27,-190.43 1441,-165 1490.94,-133.04 1515.2,-61.04 1523.53,-30.55"/>
<polygon fill="midnightblue" stroke="midnightblue" points="959.97,-209.42 950.13,-213.36 960.28,-216.41 959.97,-209.42"/>
</g>
<!-- Node23 -->
<g id="node23" class="node">
<title>Node23</title>
<g id="a_node23"><a xlink:href="future__awaiter_8hpp.html" target="_top" xlink:title=" ">
<polygon fill="none" stroke="black" points="1306.5,-134.5 1306.5,-164.5 1431.5,-164.5 1431.5,-134.5 1306.5,-134.5"/>
<text text-anchor="start" x="1314.5" y="-152.5" font-family="Helvetica,sans-Serif" font-size="10.00">include/yaclib/coroutine</text>
<text text-anchor="middle" x="1369" y="-141.5" font-family="Helvetica,sans-Serif" font-size="10.00">/detail/future_awaiter.hpp</text>
</a>
</g>
</g>
<!-- Node3&#45;&gt;Node23 -->
<g id="edge31" class="edge">
<title>Node3&#45;&gt;Node23</title>
<path fill="none" stroke="midnightblue" d="M960.37,-209.03C1039.06,-200.54 1178.46,-184.41 1297,-165 1300.02,-164.51 1303.11,-163.98 1306.22,-163.42"/>
<polygon fill="midnightblue" stroke="midnightblue" points="959.71,-205.58 950.14,-210.13 960.46,-212.54 959.71,-205.58"/>
</g>
<!-- Node24 -->
<g id="node24" class="node">
<title>Node24</title>
<g id="a_node24"><a xlink:href="future__impl_8cpp.html" target="_top" xlink:title=" ">
<polygon fill="none" stroke="black" points="1160,-140 1160,-159 1288,-159 1288,-140 1160,-140"/>
<text text-anchor="middle" x="1224" y="-147" font-family="Helvetica,sans-Serif" font-size="10.00">src/async/future_impl.cpp</text>
</a>
</g>
</g>
<!-- Node3&#45;&gt;Node24 -->
<g id="edge35" class="edge">
<title>Node3&#45;&gt;Node24</title>
<path fill="none" stroke="midnightblue" d="M960.09,-203.12C1024.8,-190.22 1124.5,-170.34 1181.02,-159.07"/>
<polygon fill="midnightblue" stroke="midnightblue" points="959.14,-199.74 950.02,-205.13 960.51,-206.61 959.14,-199.74"/>
</g>
<!-- Node4&#45;&gt;Node5 -->
<g id="edge4" class="edge">
<title>Node4&#45;&gt;Node5</title>
<path fill="none" stroke="midnightblue" d="M209.42,-127.88C221.12,-118.01 234.84,-106.43 245.32,-97.58"/>
<polygon fill="midnightblue" stroke="midnightblue" points="207.09,-125.27 201.71,-134.4 211.61,-130.62 207.09,-125.27"/>
</g>
<!-- Node6 -->
<g id="node6" class="node">
<title>Node6</title>
<g id="a_node6"><a xlink:href="when__all_8cpp.html" target="_top" xlink:title=" ">
<polygon fill="none" stroke="black" points="113.5,-0.5 113.5,-30.5 214.5,-30.5 214.5,-0.5 113.5,-0.5"/>
<text text-anchor="start" x="121.5" y="-18.5" font-family="Helvetica,sans-Serif" font-size="10.00">test/example/async</text>
<text text-anchor="middle" x="164" y="-7.5" font-family="Helvetica,sans-Serif" font-size="10.00">/when_all.cpp</text>
</a>
</g>
</g>
<!-- Node5&#45;&gt;Node6 -->
<g id="edge5" class="edge">
<title>Node5&#45;&gt;Node6</title>
<path fill="none" stroke="midnightblue" d="M232.2,-61.73C217.03,-51.68 198.96,-39.68 185.22,-30.58"/>
<polygon fill="midnightblue" stroke="midnightblue" points="230.47,-64.79 240.74,-67.4 234.34,-58.95 230.47,-64.79"/>
</g>
<!-- Node7&#45;&gt;Node8 -->
<g id="edge7" class="edge">
<title>Node7&#45;&gt;Node8</title>
<path fill="none" stroke="midnightblue" d="M688.07,-133.84C600.69,-117.56 510.83,-101.51 457.09,-91.98"/>
<polygon fill="midnightblue" stroke="midnightblue" points="687.69,-137.33 698.16,-135.72 688.97,-130.45 687.69,-137.33"/>
</g>
<!-- Node9 -->
<g id="node9" class="node">
<title>Node9</title>
<g id="a_node9"><a xlink:href="when__any_8cpp.html" target="_top" xlink:title=" ">
<polygon fill="none" stroke="black" points="255.5,-0.5 255.5,-30.5 356.5,-30.5 356.5,-0.5 255.5,-0.5"/>
<text text-anchor="start" x="263.5" y="-18.5" font-family="Helvetica,sans-Serif" font-size="10.00">test/example/async</text>
<text text-anchor="middle" x="306" y="-7.5" font-family="Helvetica,sans-Serif" font-size="10.00">/when_any.cpp</text>
</a>
</g>
</g>
<!-- Node8&#45;&gt;Node9 -->
<g id="edge8" class="edge">
<title>Node8&#45;&gt;Node9</title>
<path fill="none" stroke="midnightblue" d="M378.12,-62.02C362.1,-51.9 342.87,-39.77 328.31,-30.58"/>
<polygon fill="midnightblue" stroke="midnightblue" points="376.33,-65.02 386.65,-67.4 380.06,-59.1 376.33,-65.02"/>
</g>
<!-- Node10&#45;&gt;Node5 -->
<g id="edge10" class="edge">
<title>Node10&#45;&gt;Node5</title>
<path fill="none" stroke="midnightblue" d="M329.5,-128.73C314.49,-118.68 296.6,-106.68 283.01,-97.58"/>
<polygon fill="midnightblue" stroke="midnightblue" points="327.7,-131.74 337.95,-134.4 331.59,-125.92 327.7,-131.74"/>
</g>
<!-- Node10&#45;&gt;Node8 -->
<g id="edge11" class="edge">
<title>Node10&#45;&gt;Node8</title>
<path fill="none" stroke="midnightblue" d="M375.96,-126.45C383.31,-116.9 391.69,-106 398.17,-97.58"/>
<polygon fill="midnightblue" stroke="midnightblue" points="373.17,-124.34 369.85,-134.4 378.72,-128.6 373.17,-124.34"/>
</g>
<!-- Node11&#45;&gt;Node2 -->
<g id="edge13" class="edge">
<title>Node11&#45;&gt;Node2</title>
<path fill="none" stroke="midnightblue" d="M1671.51,-161.56C1664.93,-162.75 1658.33,-163.92 1652,-165 1391.8,-209.45 1079.88,-255.89 954.37,-274.29"/>
<polygon fill="midnightblue" stroke="midnightblue" points="1672.56,-164.93 1681.77,-159.69 1671.31,-158.04 1672.56,-164.93"/>
</g>
<!-- Node14 -->
<g id="node14" class="node">
<title>Node14</title>
<g id="a_node14"><a xlink:href="wait__group_8cpp.html" target="_top" xlink:title=" ">
<polygon fill="none" stroke="black" points="996.5,-73 996.5,-92 1115.5,-92 1115.5,-73 996.5,-73"/>
<text text-anchor="middle" x="1056" y="-80" font-family="Helvetica,sans-Serif" font-size="10.00">src/algo/wait_group.cpp</text>
</a>
</g>
</g>
<!-- Node13&#45;&gt;Node14 -->
<g id="edge16" class="edge">
<title>Node13&#45;&gt;Node14</title>
<path fill="none" stroke="midnightblue" d="M1056,-124.25C1056,-113.02 1056,-100.38 1056,-92.19"/>
<polygon fill="midnightblue" stroke="midnightblue" points="1052.5,-124.4 1056,-134.4 1059.5,-124.4 1052.5,-124.4"/>
</g>
<!-- Node16&#45;&gt;Node17 -->
<g id="edge21" class="edge">
<title>Node16&#45;&gt;Node17</title>
<path fill="none" stroke="midnightblue" d="M912.63,-127.88C900.47,-118.01 886.22,-106.43 875.32,-97.58"/>
<polygon fill="midnightblue" stroke="midnightblue" points="910.67,-130.81 920.64,-134.4 915.09,-125.37 910.67,-130.81"/>
</g>
<!-- Node18&#45;&gt;Node6 -->
<g id="edge24" class="edge">
<title>Node18&#45;&gt;Node6</title>
<path fill="none" stroke="midnightblue" d="M70.63,-126.54C93.79,-99.25 132.62,-53.48 152.1,-30.52"/>
<polygon fill="midnightblue" stroke="midnightblue" points="67.79,-124.48 63.99,-134.37 73.12,-129.01 67.79,-124.48"/>
</g>
<!-- Node18&#45;&gt;Node9 -->
<g id="edge25" class="edge">
<title>Node18&#45;&gt;Node9</title>
<path fill="none" stroke="midnightblue" d="M86.96,-129.55C117.88,-112.86 164.28,-88.02 205,-67 229.21,-54.5 256.91,-40.69 277.17,-30.67"/>
<polygon fill="midnightblue" stroke="midnightblue" points="85.02,-126.62 77.88,-134.45 88.34,-132.78 85.02,-126.62"/>
</g>
<!-- Node18&#45;&gt;Node17 -->
<g id="edge23" class="edge">
<title>Node18&#45;&gt;Node17</title>
<path fill="none" stroke="midnightblue" d="M114.2,-134.03C265.99,-112.67 665.45,-92.55 807.26,-85.84"/>
<polygon fill="midnightblue" stroke="midnightblue" points="113.52,-130.6 104.13,-135.51 114.53,-137.52 113.52,-130.6"/>
</g>
<!-- Node20&#45;&gt;Node21 -->
<g id="edge28" class="edge">
<title>Node20&#45;&gt;Node21</title>
<path fill="none" stroke="midnightblue" d="M1576.75,-126.74C1585.48,-117.12 1595.5,-106.09 1603.22,-97.58"/>
<polygon fill="midnightblue" stroke="midnightblue" points="1573.93,-124.64 1569.8,-134.4 1579.11,-129.34 1573.93,-124.64"/>
</g>
<!-- Node20&#45;&gt;Node22 -->
<g id="edge30" class="edge">
<title>Node20&#45;&gt;Node22</title>
<path fill="none" stroke="midnightblue" d="M1551.52,-124.39C1545.27,-96.9 1535.27,-52.89 1530.19,-30.52"/>
<polygon fill="midnightblue" stroke="midnightblue" points="1548.16,-125.4 1553.79,-134.37 1554.99,-123.85 1548.16,-125.4"/>
</g>
<!-- Node21&#45;&gt;Node22 -->
<g id="edge29" class="edge">
<title>Node21&#45;&gt;Node22</title>
<path fill="none" stroke="midnightblue" d="M1588.55,-61.45C1574.86,-51.45 1558.63,-39.6 1546.27,-30.58"/>
<polygon fill="midnightblue" stroke="midnightblue" points="1586.55,-64.32 1596.69,-67.4 1590.68,-58.67 1586.55,-64.32"/>
</g>
<!-- Node23&#45;&gt;Node19 -->
<g id="edge32" class="edge">
<title>Node23&#45;&gt;Node19</title>
<path fill="none" stroke="midnightblue" d="M1341.86,-128.45C1328.32,-118.45 1312.27,-106.6 1300.06,-97.58"/>
<polygon fill="midnightblue" stroke="midnightblue" points="1339.78,-131.27 1349.91,-134.4 1343.94,-125.64 1339.78,-131.27"/>
</g>
</g>
</svg>
