<?xml version="1.0" encoding="UTF-8" standalone="no"?>
<!DOCTYPE svg PUBLIC "-//W3C//DTD SVG 1.1//EN"
 "http://www.w3.org/Graphics/SVG/1.1/DTD/svg11.dtd">
<!-- Generated by graphviz version 2.50.0 (20220203.2022)
 -->
<!-- Title: include/yaclib/async/detail/core.hpp Pages: 1 -->
<!--zoomable 665 -->
<svg id="main" version="1.1" xmlns="http://www.w3.org/2000/svg" xmlns:xlink="http://www.w3.org/1999/xlink" xml:space="preserve" onload="init(evt)">
<style type="text/css"><![CDATA[
.edge:hover path { stroke: red; }
.edge:hover polygon { stroke: red; fill: red; }
]]></style>
<script type="text/javascript"><![CDATA[
var edges = document.getElementsByTagName('g');
if (edges && edges.length) {
  for (var i=0;i<edges.length;i++) {
    if (edges[i].id.substr(0,4)=='edge') {
      edges[i].setAttribute('class','edge');
    }
  }
}
]]></script>
        <defs>
                <circle id="rim" cx="0" cy="0" r="7"/>
                <circle id="rim2" cx="0" cy="0" r="3.5"/>
                <g id="zoomPlus">
                        <use xlink:href="#rim" fill="#404040">
                                <set attributeName="fill" to="#808080" begin="zoomplus.mouseover" end="zoomplus.mouseout"/>
                        </use>
                        <path d="M-4,0h8M0,-4v8" fill="none" stroke="white" stroke-width="1.5" pointer-events="none"/>
                </g>
                <g id="zoomMin">
                        <use xlink:href="#rim" fill="#404040">
                                <set attributeName="fill" to="#808080" begin="zoomminus.mouseover" end="zoomminus.mouseout"/>
                        </use>
                        <path d="M-4,0h8" fill="none" stroke="white" stroke-width="1.5" pointer-events="none"/>
                </g>
                <g id="dirArrow">
                        <path fill="none" stroke="white" stroke-width="1.5" d="M0,-3.0v7 M-2.5,-0.5L0,-3.0L2.5,-0.5"/>
                </g>
               <g id="resetDef">
                       <use xlink:href="#rim2" fill="#404040">
                               <set attributeName="fill" to="#808080" begin="reset.mouseover" end="reset.mouseout"/>
                       </use>
               </g>
        </defs>

<script type="text/javascript">
var viewWidth = 1472;
var viewHeight = 665;
var sectionId = 'dynsection-0';
</script>
<script xlink:href="svgpan.js"/>
<svg id="graph" class="graph">
<g id="viewport">
<title>include/yaclib/async/detail/core.hpp</title>
<!-- Node1 -->
<g id="node1" class="node">
<title>Node1</title>
<g id="a_node1"><a xlink:title=" ">
<polygon fill="#bfbfbf" stroke="black" points="1178,-626.5 1178,-656.5 1282,-656.5 1282,-626.5 1178,-626.5"/>
<text text-anchor="start" x="1186" y="-644.5" font-family="Helvetica,sans-Serif" font-size="10.00">include/yaclib/async</text>
<text text-anchor="middle" x="1230" y="-633.5" font-family="Helvetica,sans-Serif" font-size="10.00">/detail/core.hpp</text>
</a>
</g>
</g>
<!-- Node2 -->
<g id="node2" class="node">
<title>Node2</title>
<g id="a_node2"><a xlink:href="result__core_8hpp.html" target="_top" xlink:title=" ">
<polygon fill="none" stroke="black" points="948,-559.5 948,-589.5 1044,-589.5 1044,-559.5 948,-559.5"/>
<text text-anchor="start" x="956" y="-577.5" font-family="Helvetica,sans-Serif" font-size="10.00">yaclib/async/detail</text>
<text text-anchor="middle" x="996" y="-566.5" font-family="Helvetica,sans-Serif" font-size="10.00">/result_core.hpp</text>
</a>
</g>
</g>
<!-- Node1&#45;&gt;Node2 -->
<g id="edge1" class="edge">
<title>Node1&#45;&gt;Node2</title>
<path fill="none" stroke="midnightblue" d="M1179.51,-626.48C1142.76,-616.27 1092.89,-602.42 1054.42,-591.73"/>
<polygon fill="midnightblue" stroke="midnightblue" points="1054.97,-588.25 1044.4,-588.94 1053.09,-594.99 1054.97,-588.25"/>
</g>
<!-- Node5 -->
<g id="node5" class="node">
<title>Node5</title>
<g id="a_node5"><a xlink:title=" ">
<polygon fill="none" stroke="#bfbfbf" points="840,-0.5 840,-19.5 928,-19.5 928,-0.5 840,-0.5"/>
<text text-anchor="middle" x="884" y="-7.5" font-family="Helvetica,sans-Serif" font-size="10.00">yaclib/config.hpp</text>
</a>
</g>
</g>
<!-- Node1&#45;&gt;Node5 -->
<g id="edge68" class="edge">
<title>Node1&#45;&gt;Node5</title>
<path fill="none" stroke="midnightblue" d="M1282.22,-634.28C1351.19,-622.82 1464,-591.41 1464,-508.5 1464,-508.5 1464,-508.5 1464,-137.5 1464,-83.54 1423.41,-77.69 1374,-56 1297.09,-22.23 1049.19,-13.79 938.39,-11.69"/>
<polygon fill="midnightblue" stroke="midnightblue" points="938.16,-8.18 928.1,-11.51 938.04,-15.18 938.16,-8.18"/>
</g>
<!-- Node3 -->
<g id="node3" class="node">
<title>Node3</title>
<g id="a_node3"><a xlink:href="base__core_8hpp.html" target="_top" xlink:title=" ">
<polygon fill="none" stroke="black" points="542,-492.5 542,-522.5 638,-522.5 638,-492.5 542,-492.5"/>
<text text-anchor="start" x="550" y="-510.5" font-family="Helvetica,sans-Serif" font-size="10.00">yaclib/async/detail</text>
<text text-anchor="middle" x="590" y="-499.5" font-family="Helvetica,sans-Serif" font-size="10.00">/base_core.hpp</text>
</a>
</g>
</g>
<!-- Node2&#45;&gt;Node3 -->
<g id="edge2" class="edge">
<title>Node2&#45;&gt;Node3</title>
<path fill="none" stroke="midnightblue" d="M947.93,-567.74C881.23,-559.45 756.96,-542.94 652,-523 650.75,-522.76 649.48,-522.52 648.21,-522.26"/>
<polygon fill="midnightblue" stroke="midnightblue" points="648.82,-518.82 638.32,-520.21 647.4,-525.67 648.82,-518.82"/>
</g>
<!-- Node4 -->
<g id="node4" class="node">
<title>Node4</title>
<g id="a_node4"><a xlink:href="inline__core_8hpp.html" target="_top" xlink:title=" ">
<polygon fill="none" stroke="black" points="948,-369.5 948,-399.5 1044,-399.5 1044,-369.5 948,-369.5"/>
<text text-anchor="start" x="956" y="-387.5" font-family="Helvetica,sans-Serif" font-size="10.00">yaclib/async/detail</text>
<text text-anchor="middle" x="996" y="-376.5" font-family="Helvetica,sans-Serif" font-size="10.00">/inline_core.hpp</text>
</a>
</g>
</g>
<!-- Node2&#45;&gt;Node4 -->
<g id="edge51" class="edge">
<title>Node2&#45;&gt;Node4</title>
<path fill="none" stroke="midnightblue" d="M996,-559.37C996,-527.44 996,-449.44 996,-409.67"/>
<polygon fill="midnightblue" stroke="midnightblue" points="999.5,-409.54 996,-399.54 992.5,-409.54 999.5,-409.54"/>
</g>
<!-- Node2&#45;&gt;Node5 -->
<g id="edge52" class="edge">
<title>Node2&#45;&gt;Node5</title>
<path fill="none" stroke="midnightblue" d="M1011.75,-559.23C1034.01,-537.41 1072,-493.37 1072,-447 1072,-447 1072,-447 1072,-137.5 1072,-97.53 1064.23,-82.14 1034,-56 1007.39,-32.99 969.37,-21.75 938.26,-16.25"/>
<polygon fill="midnightblue" stroke="midnightblue" points="938.43,-12.73 928.01,-14.6 937.32,-19.64 938.43,-12.73"/>
</g>
<!-- Node11 -->
<g id="node11" class="node">
<title>Node11</title>
<g id="a_node11"><a xlink:title=" ">
<polygon fill="none" stroke="#bfbfbf" points="639.5,-62 639.5,-81 678.5,-81 678.5,-62 639.5,-62"/>
<text text-anchor="middle" x="659" y="-69" font-family="Helvetica,sans-Serif" font-size="10.00">utility</text>
</a>
</g>
</g>
<!-- Node2&#45;&gt;Node11 -->
<g id="edge67" class="edge">
<title>Node2&#45;&gt;Node11</title>
<path fill="none" stroke="midnightblue" d="M947.66,-565.37C856,-548.58 666,-506.59 666,-447 666,-447 666,-447 666,-199 666,-160.64 662.75,-115.85 660.68,-91.18"/>
<polygon fill="midnightblue" stroke="midnightblue" points="664.16,-90.74 659.8,-81.08 657.18,-91.35 664.16,-90.74"/>
</g>
<!-- Node18 -->
<g id="node18" class="node">
<title>Node18</title>
<g id="a_node18"><a xlink:href="intrusive__ptr_8hpp.html" target="_top" xlink:title=" ">
<polygon fill="none" stroke="black" points="388.5,-123.5 388.5,-153.5 485.5,-153.5 485.5,-123.5 388.5,-123.5"/>
<text text-anchor="start" x="396.5" y="-141.5" font-family="Helvetica,sans-Serif" font-size="10.00">yaclib/util/intrusive</text>
<text text-anchor="middle" x="437" y="-130.5" font-family="Helvetica,sans-Serif" font-size="10.00">_ptr.hpp</text>
</a>
</g>
</g>
<!-- Node2&#45;&gt;Node18 -->
<g id="edge53" class="edge">
<title>Node2&#45;&gt;Node18</title>
<path fill="none" stroke="midnightblue" d="M947.72,-571.93C759.59,-565.17 86,-534.83 86,-447 86,-447 86,-447 86,-322 86,-256.69 279.69,-187.71 379.3,-156.54"/>
<polygon fill="midnightblue" stroke="midnightblue" points="380.42,-159.86 388.93,-153.56 378.34,-153.18 380.42,-159.86"/>
</g>
<!-- Node24 -->
<g id="node24" class="node">
<title>Node24</title>
<g id="a_node24"><a xlink:href="result_8hpp.html" target="_top" xlink:title=" ">
<polygon fill="none" stroke="black" points="1273,-252 1273,-271 1375,-271 1375,-252 1273,-252"/>
<text text-anchor="middle" x="1324" y="-259" font-family="Helvetica,sans-Serif" font-size="10.00">yaclib/util/result.hpp</text>
</a>
</g>
</g>
<!-- Node2&#45;&gt;Node24 -->
<g id="edge54" class="edge">
<title>Node2&#45;&gt;Node24</title>
<path fill="none" stroke="midnightblue" d="M1044.23,-567.48C1109.25,-556.37 1217,-526.02 1217,-447 1217,-447 1217,-447 1217,-383.5 1217,-334.24 1267.38,-295.61 1299,-276.22"/>
<polygon fill="midnightblue" stroke="midnightblue" points="1300.92,-279.15 1307.75,-271.04 1297.36,-273.12 1300.92,-279.15"/>
</g>
<!-- Node3&#45;&gt;Node4 -->
<g id="edge3" class="edge">
<title>Node3&#45;&gt;Node4</title>
<path fill="none" stroke="midnightblue" d="M638.03,-506C701.43,-503.76 815.38,-494.16 904,-456 931.09,-444.34 957.31,-422.92 974.78,-406.74"/>
<polygon fill="midnightblue" stroke="midnightblue" points="977.33,-409.16 982.17,-399.73 972.51,-404.08 977.33,-409.16"/>
</g>
<!-- Node3&#45;&gt;Node5 -->
<g id="edge39" class="edge">
<title>Node3&#45;&gt;Node5</title>
<path fill="none" stroke="midnightblue" d="M541.73,-503.1C429.8,-493.89 162,-463.68 162,-385.5 162,-385.5 162,-385.5 162,-199 162,-156.78 185.08,-148.15 219,-123 256.61,-95.11 277.94,-111.23 318,-87 335.5,-76.42 333.26,-64.19 352,-56 436.62,-19.04 711.76,-12.35 829.61,-11.2"/>
<polygon fill="midnightblue" stroke="midnightblue" points="829.88,-14.7 839.84,-11.12 829.81,-7.7 829.88,-14.7"/>
</g>
<!-- Node6 -->
<g id="node6" class="node">
<title>Node6</title>
<g id="a_node6"><a xlink:href="task_8hpp.html" target="_top" xlink:title=" ">
<polygon fill="none" stroke="black" points="767.5,-313.5 767.5,-332.5 888.5,-332.5 888.5,-313.5 767.5,-313.5"/>
<text text-anchor="middle" x="828" y="-320.5" font-family="Helvetica,sans-Serif" font-size="10.00">yaclib/executor/task.hpp</text>
</a>
</g>
</g>
<!-- Node3&#45;&gt;Node6 -->
<g id="edge47" class="edge">
<title>Node3&#45;&gt;Node6</title>
<path fill="none" stroke="midnightblue" d="M603.36,-492.38C628.83,-465.97 686.78,-408.25 743,-369 760.74,-356.62 782.3,-345.24 799.26,-337.02"/>
<polygon fill="midnightblue" stroke="midnightblue" points="801.12,-340.02 808.66,-332.57 798.12,-333.69 801.12,-340.02"/>
</g>
<!-- Node13 -->
<g id="node13" class="node">
<title>Node13</title>
<g id="a_node13"><a xlink:href="atomic_8hpp.html" target="_top" xlink:title=" ">
<polygon fill="none" stroke="black" points="25.5,-62 25.5,-81 138.5,-81 138.5,-62 25.5,-62"/>
<text text-anchor="middle" x="82" y="-69" font-family="Helvetica,sans-Serif" font-size="10.00">yaclib/fault/atomic.hpp</text>
</a>
</g>
</g>
<!-- Node3&#45;&gt;Node13 -->
<g id="edge48" class="edge">
<title>Node3&#45;&gt;Node13</title>
<path fill="none" stroke="midnightblue" d="M541.77,-507.28C439.97,-507.96 207.62,-504.03 148,-456 122.23,-435.23 124,-418.6 124,-385.5 124,-385.5 124,-385.5 124,-199 124,-158.3 104.18,-113.82 91.77,-89.96"/>
<polygon fill="midnightblue" stroke="midnightblue" points="94.8,-88.21 86.98,-81.07 88.64,-91.53 94.8,-88.21"/>
</g>
<!-- Node3&#45;&gt;Node18 -->
<g id="edge49" class="edge">
<title>Node3&#45;&gt;Node18</title>
<path fill="none" stroke="midnightblue" d="M541.96,-506.1C463.38,-502.64 316,-483.13 316,-385.5 316,-385.5 316,-385.5 316,-260.5 316,-228.05 314.41,-215.09 335,-190 346.58,-175.89 363.08,-165.39 379.45,-157.73"/>
<polygon fill="midnightblue" stroke="midnightblue" points="381.27,-160.75 389.03,-153.54 378.46,-154.34 381.27,-160.75"/>
</g>
<!-- Node19 -->
<g id="node19" class="node">
<title>Node19</title>
<g id="a_node19"><a xlink:href="ref_8hpp.html" target="_top" xlink:title=" ">
<polygon fill="none" stroke="black" points="441.5,-62 441.5,-81 530.5,-81 530.5,-62 441.5,-62"/>
<text text-anchor="middle" x="486" y="-69" font-family="Helvetica,sans-Serif" font-size="10.00">yaclib/util/ref.hpp</text>
</a>
</g>
</g>
<!-- Node3&#45;&gt;Node19 -->
<g id="edge50" class="edge">
<title>Node3&#45;&gt;Node19</title>
<path fill="none" stroke="midnightblue" d="M541.86,-507.17C486.85,-505.77 396.04,-496.72 331,-456 297.77,-435.2 278,-424.7 278,-385.5 278,-385.5 278,-385.5 278,-260.5 278,-222.59 348.61,-145.66 379,-123 400.99,-106.6 429.16,-93.57 451.07,-84.85"/>
<polygon fill="midnightblue" stroke="midnightblue" points="452.58,-88.02 460.65,-81.16 450.06,-81.49 452.58,-88.02"/>
</g>
<!-- Node22 -->
<g id="node22" class="node">
<title>Node22</title>
<g id="a_node22"><a xlink:href="executor_8hpp.html" target="_top" xlink:title=" ">
<polygon fill="none" stroke="black" points="752.5,-375 752.5,-394 891.5,-394 891.5,-375 752.5,-375"/>
<text text-anchor="middle" x="822" y="-382" font-family="Helvetica,sans-Serif" font-size="10.00">yaclib/executor/executor.hpp</text>
</a>
</g>
</g>
<!-- Node3&#45;&gt;Node22 -->
<g id="edge40" class="edge">
<title>Node3&#45;&gt;Node22</title>
<path fill="none" stroke="midnightblue" d="M632.25,-492.48C657.71,-483.39 690.43,-470.56 718,-456 749.25,-439.5 782.61,-415.65 802.88,-400.36"/>
<polygon fill="midnightblue" stroke="midnightblue" points="805.14,-403.03 810.97,-394.18 800.9,-397.46 805.14,-403.03"/>
</g>
<!-- Node23 -->
<g id="node23" class="node">
<title>Node23</title>
<g id="a_node23"><a xlink:href="inline_8hpp.html" target="_top" xlink:title=" ">
<polygon fill="none" stroke="black" points="770.5,-436.5 770.5,-455.5 895.5,-455.5 895.5,-436.5 770.5,-436.5"/>
<text text-anchor="middle" x="833" y="-443.5" font-family="Helvetica,sans-Serif" font-size="10.00">yaclib/executor/inline.hpp</text>
</a>
</g>
</g>
<!-- Node3&#45;&gt;Node23 -->
<g id="edge44" class="edge">
<title>Node3&#45;&gt;Node23</title>
<path fill="none" stroke="midnightblue" d="M638.01,-494.74C681.67,-484.05 745.62,-468.39 788.24,-457.96"/>
<polygon fill="midnightblue" stroke="midnightblue" points="789.18,-461.33 798.06,-455.56 787.52,-454.53 789.18,-461.33"/>
</g>
<!-- Node4&#45;&gt;Node5 -->
<g id="edge4" class="edge">
<title>Node4&#45;&gt;Node5</title>
<path fill="none" stroke="midnightblue" d="M1003.51,-369.42C1014.58,-347.31 1034,-302.79 1034,-262.5 1034,-262.5 1034,-262.5 1034,-137.5 1034,-99.74 1035.93,-83.45 1010,-56 991.13,-36.03 962.79,-24.9 937.77,-18.72"/>
<polygon fill="midnightblue" stroke="midnightblue" points="938.53,-15.3 928.01,-16.5 936.99,-22.13 938.53,-15.3"/>
</g>
<!-- Node4&#45;&gt;Node6 -->
<g id="edge5" class="edge">
<title>Node4&#45;&gt;Node6</title>
<path fill="none" stroke="midnightblue" d="M956.19,-369.4C927.5,-359.24 889.19,-345.67 861.94,-336.02"/>
<polygon fill="midnightblue" stroke="midnightblue" points="863.04,-332.7 852.45,-332.66 860.7,-339.3 863.04,-332.7"/>
</g>
<!-- Node6&#45;&gt;Node5 -->
<g id="edge6" class="edge">
<title>Node6&#45;&gt;Node5</title>
<path fill="none" stroke="midnightblue" d="M844.21,-313.41C857.77,-305.52 876.8,-292.68 889,-277 911.4,-248.21 920,-237.48 920,-201 920,-201 920,-201 920,-137.5 920,-97.52 903.16,-53.05 892.52,-28.94"/>
<polygon fill="midnightblue" stroke="midnightblue" points="895.61,-27.29 888.27,-19.65 889.24,-30.2 895.61,-27.29"/>
</g>
<!-- Node7 -->
<g id="node7" class="node">
<title>Node7</title>
<g id="a_node7"><a xlink:href="node_8hpp.html" target="_top" xlink:title=" ">
<polygon fill="none" stroke="black" points="797.5,-246.5 797.5,-276.5 880.5,-276.5 880.5,-246.5 797.5,-246.5"/>
<text text-anchor="start" x="805.5" y="-264.5" font-family="Helvetica,sans-Serif" font-size="10.00">yaclib/util/detail</text>
<text text-anchor="middle" x="839" y="-253.5" font-family="Helvetica,sans-Serif" font-size="10.00">/node.hpp</text>
</a>
</g>
</g>
<!-- Node6&#45;&gt;Node7 -->
<g id="edge7" class="edge">
<title>Node6&#45;&gt;Node7</title>
<path fill="none" stroke="midnightblue" d="M829.58,-313.48C830.88,-306.4 832.81,-295.97 834.58,-286.39"/>
<polygon fill="midnightblue" stroke="midnightblue" points="838.03,-286.99 836.41,-276.52 831.15,-285.72 838.03,-286.99"/>
</g>
<!-- Node8 -->
<g id="node8" class="node">
<title>Node8</title>
<g id="a_node8"><a xlink:href="func_8hpp.html" target="_top" xlink:title=" ">
<polygon fill="none" stroke="black" points="540.5,-252 540.5,-271 637.5,-271 637.5,-252 540.5,-252"/>
<text text-anchor="middle" x="589" y="-259" font-family="Helvetica,sans-Serif" font-size="10.00">yaclib/util/func.hpp</text>
</a>
</g>
</g>
<!-- Node6&#45;&gt;Node8 -->
<g id="edge9" class="edge">
<title>Node6&#45;&gt;Node8</title>
<path fill="none" stroke="midnightblue" d="M793.76,-313.48C751.43,-302.94 679.32,-284.99 632.95,-273.44"/>
<polygon fill="midnightblue" stroke="midnightblue" points="633.73,-270.03 623.18,-271.01 632.04,-276.82 633.73,-270.03"/>
</g>
<!-- Node7&#45;&gt;Node5 -->
<g id="edge8" class="edge">
<title>Node7&#45;&gt;Node5</title>
<path fill="none" stroke="midnightblue" d="M841.55,-246.37C849.19,-204 871.92,-77.96 880.59,-29.9"/>
<polygon fill="midnightblue" stroke="midnightblue" points="884.06,-30.39 882.39,-19.93 877.17,-29.15 884.06,-30.39"/>
</g>
<!-- Node8&#45;&gt;Node5 -->
<g id="edge10" class="edge">
<title>Node8&#45;&gt;Node5</title>
<path fill="none" stroke="midnightblue" d="M587.71,-251.97C583.51,-220.68 573.56,-111.19 630,-56 657.66,-28.96 763.66,-17.92 829.67,-13.6"/>
<polygon fill="midnightblue" stroke="midnightblue" points="830.14,-17.08 839.9,-12.96 829.71,-10.09 830.14,-17.08"/>
</g>
<!-- Node9 -->
<g id="node9" class="node">
<title>Node9</title>
<g id="a_node9"><a xlink:href="safe__call_8hpp.html" target="_top" xlink:title=" ">
<polygon fill="none" stroke="black" points="694.5,-123.5 694.5,-153.5 777.5,-153.5 777.5,-123.5 694.5,-123.5"/>
<text text-anchor="start" x="702.5" y="-141.5" font-family="Helvetica,sans-Serif" font-size="10.00">yaclib/util/detail</text>
<text text-anchor="middle" x="736" y="-130.5" font-family="Helvetica,sans-Serif" font-size="10.00">/safe_call.hpp</text>
</a>
</g>
</g>
<!-- Node8&#45;&gt;Node9 -->
<g id="edge11" class="edge">
<title>Node8&#45;&gt;Node9</title>
<path fill="none" stroke="midnightblue" d="M599.57,-251.8C622.75,-232.72 678.59,-186.76 711.19,-159.92"/>
<polygon fill="midnightblue" stroke="midnightblue" points="713.45,-162.6 718.94,-153.54 709,-157.19 713.45,-162.6"/>
</g>
<!-- Node10 -->
<g id="node10" class="node">
<title>Node10</title>
<g id="a_node10"><a xlink:title=" ">
<polygon fill="none" stroke="#bfbfbf" points="759,-62 759,-81 821,-81 821,-62 759,-62"/>
<text text-anchor="middle" x="790" y="-69" font-family="Helvetica,sans-Serif" font-size="10.00">type_traits</text>
</a>
</g>
</g>
<!-- Node8&#45;&gt;Node10 -->
<g id="edge37" class="edge">
<title>Node8&#45;&gt;Node10</title>
<path fill="none" stroke="midnightblue" d="M627.2,-251.9C673.68,-239.21 750.36,-210.58 786,-154 797.89,-135.13 796.67,-108.65 793.96,-91.05"/>
<polygon fill="midnightblue" stroke="midnightblue" points="797.4,-90.37 792.15,-81.17 790.51,-91.63 797.4,-90.37"/>
</g>
<!-- Node8&#45;&gt;Node11 -->
<g id="edge38" class="edge">
<title>Node8&#45;&gt;Node11</title>
<path fill="none" stroke="midnightblue" d="M592.19,-251.93C602.87,-223.24 637.54,-130.13 652.28,-90.56"/>
<polygon fill="midnightblue" stroke="midnightblue" points="655.58,-91.71 655.79,-81.12 649.02,-89.27 655.58,-91.71"/>
</g>
<!-- Node12 -->
<g id="node12" class="node">
<title>Node12</title>
<g id="a_node12"><a xlink:href="helper_8hpp.html" target="_top" xlink:title=" ">
<polygon fill="none" stroke="black" points="344,-190.5 344,-209.5 448,-209.5 448,-190.5 344,-190.5"/>
<text text-anchor="middle" x="396" y="-197.5" font-family="Helvetica,sans-Serif" font-size="10.00">yaclib/util/helper.hpp</text>
</a>
</g>
</g>
<!-- Node8&#45;&gt;Node12 -->
<g id="edge15" class="edge">
<title>Node8&#45;&gt;Node12</title>
<path fill="none" stroke="midnightblue" d="M561.35,-251.98C527.81,-241.64 471.13,-224.16 433.63,-212.6"/>
<polygon fill="midnightblue" stroke="midnightblue" points="434.19,-209.11 423.6,-209.51 432.13,-215.8 434.19,-209.11"/>
</g>
<!-- Node8&#45;&gt;Node18 -->
<g id="edge35" class="edge">
<title>Node8&#45;&gt;Node18</title>
<path fill="none" stroke="midnightblue" d="M578.07,-251.8C554.1,-232.72 496.36,-186.76 462.65,-159.92"/>
<polygon fill="midnightblue" stroke="midnightblue" points="464.64,-157.03 454.64,-153.54 460.28,-162.51 464.64,-157.03"/>
</g>
<!-- Node8&#45;&gt;Node19 -->
<g id="edge36" class="edge">
<title>Node8&#45;&gt;Node19</title>
<path fill="none" stroke="midnightblue" d="M584.31,-251.93C568.52,-223.12 517.14,-129.34 495.62,-90.06"/>
<polygon fill="midnightblue" stroke="midnightblue" points="498.6,-88.21 490.72,-81.12 492.46,-91.57 498.6,-88.21"/>
</g>
<!-- Node9&#45;&gt;Node5 -->
<g id="edge12" class="edge">
<title>Node9&#45;&gt;Node5</title>
<path fill="none" stroke="midnightblue" d="M734.36,-123.3C733.13,-105.45 733.84,-74.86 750,-56 769.84,-32.85 801.98,-21.57 829.82,-16.09"/>
<polygon fill="midnightblue" stroke="midnightblue" points="830.6,-19.51 839.84,-14.32 829.39,-12.61 830.6,-19.51"/>
</g>
<!-- Node9&#45;&gt;Node10 -->
<g id="edge13" class="edge">
<title>Node9&#45;&gt;Node10</title>
<path fill="none" stroke="midnightblue" d="M747.72,-123.4C756.14,-113.26 767.51,-99.57 776.34,-88.94"/>
<polygon fill="midnightblue" stroke="midnightblue" points="779.08,-91.12 782.78,-81.19 773.69,-86.65 779.08,-91.12"/>
</g>
<!-- Node9&#45;&gt;Node11 -->
<g id="edge14" class="edge">
<title>Node9&#45;&gt;Node11</title>
<path fill="none" stroke="midnightblue" d="M719.29,-123.4C706.81,-112.86 689.77,-98.48 676.99,-87.69"/>
<polygon fill="midnightblue" stroke="midnightblue" points="679.2,-84.97 669.3,-81.19 674.68,-90.32 679.2,-84.97"/>
</g>
<!-- Node12&#45;&gt;Node5 -->
<g id="edge16" class="edge">
<title>Node12&#45;&gt;Node5</title>
<path fill="none" stroke="midnightblue" d="M421.67,-190.47C442.38,-182.85 471.64,-170.37 494,-154 541.47,-119.24 531.11,-83.74 583,-56 624.67,-33.72 755.01,-20.61 829.8,-14.73"/>
<polygon fill="midnightblue" stroke="midnightblue" points="830.27,-18.2 839.97,-13.95 829.73,-11.22 830.27,-18.2"/>
</g>
<!-- Node12&#45;&gt;Node13 -->
<g id="edge17" class="edge">
<title>Node12&#45;&gt;Node13</title>
<path fill="none" stroke="midnightblue" d="M346.71,-190.43C310.5,-183.19 260.59,-171.23 219,-154 174.86,-135.71 127.95,-105.02 102.08,-86.98"/>
<polygon fill="midnightblue" stroke="midnightblue" points="104.03,-84.07 93.84,-81.16 99.99,-89.79 104.03,-84.07"/>
</g>
<!-- Node17 -->
<g id="node17" class="node">
<title>Node17</title>
<g id="a_node17"><a xlink:href="atomic__counter_8hpp.html" target="_top" xlink:title=" ">
<polygon fill="none" stroke="black" points="228,-123.5 228,-153.5 332,-153.5 332,-123.5 228,-123.5"/>
<text text-anchor="start" x="236" y="-141.5" font-family="Helvetica,sans-Serif" font-size="10.00">yaclib/util/detail</text>
<text text-anchor="middle" x="280" y="-130.5" font-family="Helvetica,sans-Serif" font-size="10.00">/atomic_counter.hpp</text>
</a>
</g>
</g>
<!-- Node12&#45;&gt;Node17 -->
<g id="edge22" class="edge">
<title>Node12&#45;&gt;Node17</title>
<path fill="none" stroke="midnightblue" d="M379.38,-190.48C363.01,-182.08 337.46,-168.97 316.37,-158.15"/>
<polygon fill="midnightblue" stroke="midnightblue" points="317.83,-154.97 307.34,-153.52 314.64,-161.2 317.83,-154.97"/>
</g>
<!-- Node12&#45;&gt;Node18 -->
<g id="edge27" class="edge">
<title>Node12&#45;&gt;Node18</title>
<path fill="none" stroke="midnightblue" d="M401.87,-190.48C407.01,-183.02 414.71,-171.85 421.59,-161.87"/>
<polygon fill="midnightblue" stroke="midnightblue" points="424.55,-163.74 427.34,-153.52 418.78,-159.77 424.55,-163.74"/>
</g>
<!-- Node13&#45;&gt;Node5 -->
<g id="edge18" class="edge">
<title>Node13&#45;&gt;Node5</title>
<path fill="none" stroke="midnightblue" d="M137.5,-61.99C153.16,-59.8 170.22,-57.61 186,-56 425.23,-31.65 712,-18.04 829.63,-13.13"/>
<polygon fill="midnightblue" stroke="midnightblue" points="829.96,-16.62 839.81,-12.71 829.67,-9.63 829.96,-16.62"/>
</g>
<!-- Node14 -->
<g id="node14" class="node">
<title>Node14</title>
<g id="a_node14"><a xlink:title=" ">
<polygon fill="none" stroke="#bfbfbf" points="137.5,-0.5 137.5,-19.5 186.5,-19.5 186.5,-0.5 137.5,-0.5"/>
<text text-anchor="middle" x="162" y="-7.5" font-family="Helvetica,sans-Serif" font-size="10.00">cstddef</text>
</a>
</g>
</g>
<!-- Node13&#45;&gt;Node14 -->
<g id="edge19" class="edge">
<title>Node13&#45;&gt;Node14</title>
<path fill="none" stroke="midnightblue" d="M93.46,-61.98C106.17,-52.52 126.91,-37.1 142.25,-25.69"/>
<polygon fill="midnightblue" stroke="midnightblue" points="144.62,-28.29 150.56,-19.51 140.45,-22.67 144.62,-28.29"/>
</g>
<!-- Node15 -->
<g id="node15" class="node">
<title>Node15</title>
<g id="a_node15"><a xlink:title=" ">
<polygon fill="none" stroke="#bfbfbf" points="64,-0.5 64,-19.5 110,-19.5 110,-0.5 64,-0.5"/>
<text text-anchor="middle" x="87" y="-7.5" font-family="Helvetica,sans-Serif" font-size="10.00">cstdint</text>
</a>
</g>
</g>
<!-- Node13&#45;&gt;Node15 -->
<g id="edge20" class="edge">
<title>Node13&#45;&gt;Node15</title>
<path fill="none" stroke="midnightblue" d="M82.72,-61.98C83.42,-53.58 84.52,-40.48 85.43,-29.66"/>
<polygon fill="midnightblue" stroke="midnightblue" points="88.94,-29.77 86.28,-19.51 81.96,-29.18 88.94,-29.77"/>
</g>
<!-- Node16 -->
<g id="node16" class="node">
<title>Node16</title>
<g id="a_node16"><a xlink:title=" ">
<polygon fill="none" stroke="#bfbfbf" points="0,-0.5 0,-19.5 46,-19.5 46,-0.5 0,-0.5"/>
<text text-anchor="middle" x="23" y="-7.5" font-family="Helvetica,sans-Serif" font-size="10.00">atomic</text>
</a>
</g>
</g>
<!-- Node13&#45;&gt;Node16 -->
<g id="edge21" class="edge">
<title>Node13&#45;&gt;Node16</title>
<path fill="none" stroke="midnightblue" d="M73.55,-61.98C64.43,-52.78 49.73,-37.96 38.52,-26.66"/>
<polygon fill="midnightblue" stroke="midnightblue" points="40.96,-24.15 31.44,-19.51 35.99,-29.07 40.96,-24.15"/>
</g>
<!-- Node17&#45;&gt;Node5 -->
<g id="edge23" class="edge">
<title>Node17&#45;&gt;Node5</title>
<path fill="none" stroke="midnightblue" d="M298.08,-123.37C323.48,-104.38 371.9,-71.26 419,-56 494.14,-31.65 724.09,-18.3 829.81,-13.31"/>
<polygon fill="midnightblue" stroke="midnightblue" points="830.12,-16.8 839.94,-12.84 829.79,-9.81 830.12,-16.8"/>
</g>
<!-- Node17&#45;&gt;Node11 -->
<g id="edge26" class="edge">
<title>Node17&#45;&gt;Node11</title>
<path fill="none" stroke="midnightblue" d="M332.3,-128.53C412.92,-114.7 564.96,-88.63 629.17,-77.62"/>
<polygon fill="midnightblue" stroke="midnightblue" points="630.14,-81 639.41,-75.86 628.96,-74.1 630.14,-81"/>
</g>
<!-- Node17&#45;&gt;Node13 -->
<g id="edge24" class="edge">
<title>Node17&#45;&gt;Node13</title>
<path fill="none" stroke="midnightblue" d="M237.04,-123.4C201.37,-111.69 151.24,-95.23 117.74,-84.23"/>
<polygon fill="midnightblue" stroke="midnightblue" points="118.51,-80.8 107.91,-81.01 116.32,-87.45 118.51,-80.8"/>
</g>
<!-- Node17&#45;&gt;Node14 -->
<g id="edge25" class="edge">
<title>Node17&#45;&gt;Node14</title>
<path fill="none" stroke="midnightblue" d="M238.23,-123.35C219.94,-115.26 199.59,-103.41 186,-87 172.37,-70.55 166.45,-46.3 163.9,-29.64"/>
<polygon fill="midnightblue" stroke="midnightblue" points="167.35,-28.99 162.62,-19.51 160.4,-29.87 167.35,-28.99"/>
</g>
<!-- Node18&#45;&gt;Node5 -->
<g id="edge28" class="edge">
<title>Node18&#45;&gt;Node5</title>
<path fill="none" stroke="midnightblue" d="M430.69,-123.4C423.7,-105.36 415.44,-74.29 432,-56 458.24,-27.02 715.06,-15.93 829.48,-12.41"/>
<polygon fill="midnightblue" stroke="midnightblue" points="829.88,-15.9 839.77,-12.1 829.67,-8.9 829.88,-15.9"/>
</g>
<!-- Node18&#45;&gt;Node10 -->
<g id="edge31" class="edge">
<title>Node18&#45;&gt;Node10</title>
<path fill="none" stroke="midnightblue" d="M485.71,-128.53C555.73,-115.64 683.57,-92.1 749.02,-80.05"/>
<polygon fill="midnightblue" stroke="midnightblue" points="749.77,-83.47 758.97,-78.21 748.5,-76.58 749.77,-83.47"/>
</g>
<!-- Node18&#45;&gt;Node19 -->
<g id="edge29" class="edge">
<title>Node18&#45;&gt;Node19</title>
<path fill="none" stroke="midnightblue" d="M447.63,-123.4C455.2,-113.36 465.39,-99.84 473.37,-89.25"/>
<polygon fill="midnightblue" stroke="midnightblue" points="476.22,-91.29 479.45,-81.19 470.63,-87.07 476.22,-91.29"/>
</g>
<!-- Node20 -->
<g id="node20" class="node">
<title>Node20</title>
<g id="a_node20"><a xlink:href="intrusive__ptr__impl_8hpp.html" target="_top" xlink:title=" ">
<polygon fill="none" stroke="black" points="195,-56.5 195,-86.5 309,-86.5 309,-56.5 195,-56.5"/>
<text text-anchor="start" x="203" y="-74.5" font-family="Helvetica,sans-Serif" font-size="10.00">yaclib/util/detail</text>
<text text-anchor="middle" x="252" y="-63.5" font-family="Helvetica,sans-Serif" font-size="10.00">/intrusive_ptr_impl.hpp</text>
</a>
</g>
</g>
<!-- Node18&#45;&gt;Node20 -->
<g id="edge32" class="edge">
<title>Node18&#45;&gt;Node20</title>
<path fill="none" stroke="midnightblue" d="M396.86,-123.4C368.98,-113.6 331.64,-100.48 301.85,-90.02"/>
<polygon fill="midnightblue" stroke="midnightblue" points="302.66,-86.59 292.06,-86.58 300.34,-93.19 302.66,-86.59"/>
</g>
<!-- Node19&#45;&gt;Node5 -->
<g id="edge30" class="edge">
<title>Node19&#45;&gt;Node5</title>
<path fill="none" stroke="midnightblue" d="M518.01,-61.96C526.73,-59.82 536.19,-57.66 545,-56 644.68,-37.19 762.31,-23.45 829.53,-16.38"/>
<polygon fill="midnightblue" stroke="midnightblue" points="830.29,-19.82 839.87,-15.3 829.56,-12.86 830.29,-19.82"/>
</g>
<!-- Node20&#45;&gt;Node5 -->
<g id="edge33" class="edge">
<title>Node20&#45;&gt;Node5</title>
<path fill="none" stroke="midnightblue" d="M309.25,-58.19C313.89,-57.38 318.52,-56.64 323,-56 507.77,-29.82 729.1,-17.66 829.59,-13.17"/>
<polygon fill="midnightblue" stroke="midnightblue" points="829.96,-16.65 839.8,-12.72 829.65,-9.66 829.96,-16.65"/>
</g>
<!-- Node21 -->
<g id="node21" class="node">
<title>Node21</title>
<g id="a_node21"><a xlink:title=" ">
<polygon fill="none" stroke="#bfbfbf" points="227.5,-0.5 227.5,-19.5 276.5,-19.5 276.5,-0.5 227.5,-0.5"/>
<text text-anchor="middle" x="252" y="-7.5" font-family="Helvetica,sans-Serif" font-size="10.00">cassert</text>
</a>
</g>
</g>
<!-- Node20&#45;&gt;Node21 -->
<g id="edge34" class="edge">
<title>Node20&#45;&gt;Node21</title>
<path fill="none" stroke="midnightblue" d="M252,-56.4C252,-48.47 252,-38.46 252,-29.86"/>
<polygon fill="midnightblue" stroke="midnightblue" points="255.5,-29.66 252,-19.66 248.5,-29.66 255.5,-29.66"/>
</g>
<!-- Node22&#45;&gt;Node5 -->
<g id="edge41" class="edge">
<title>Node22&#45;&gt;Node5</title>
<path fill="none" stroke="midnightblue" d="M845.69,-375C884.65,-359.32 958,-321.91 958,-262.5 958,-262.5 958,-262.5 958,-137.5 958,-92.63 922.89,-49.55 901.04,-27.09"/>
<polygon fill="midnightblue" stroke="midnightblue" points="903.24,-24.34 893.67,-19.78 898.3,-29.31 903.24,-24.34"/>
</g>
<!-- Node22&#45;&gt;Node6 -->
<g id="edge42" class="edge">
<title>Node22&#45;&gt;Node6</title>
<path fill="none" stroke="midnightblue" d="M822.86,-374.98C823.71,-366.58 825.03,-353.48 826.12,-342.66"/>
<polygon fill="midnightblue" stroke="midnightblue" points="829.62,-342.81 827.14,-332.51 822.66,-342.11 829.62,-342.81"/>
</g>
<!-- Node22&#45;&gt;Node18 -->
<g id="edge43" class="edge">
<title>Node22&#45;&gt;Node18</title>
<path fill="none" stroke="midnightblue" d="M772.16,-374.97C710.3,-362.35 604.04,-333.81 531,-277 491.21,-246.06 462.03,-193.51 447.45,-163.12"/>
<polygon fill="midnightblue" stroke="midnightblue" points="450.47,-161.31 443.08,-153.73 444.13,-164.27 450.47,-161.31"/>
</g>
<!-- Node23&#45;&gt;Node5 -->
<g id="edge45" class="edge">
<title>Node23&#45;&gt;Node5</title>
<path fill="none" stroke="midnightblue" d="M849.1,-436.46C863.49,-428.33 884.6,-415.12 900,-400 953.18,-347.78 996,-337.03 996,-262.5 996,-262.5 996,-262.5 996,-137.5 996,-85.48 942.26,-44.83 909.23,-24.76"/>
<polygon fill="midnightblue" stroke="midnightblue" points="910.92,-21.69 900.53,-19.65 907.38,-27.73 910.92,-21.69"/>
</g>
<!-- Node23&#45;&gt;Node22 -->
<g id="edge46" class="edge">
<title>Node23&#45;&gt;Node22</title>
<path fill="none" stroke="midnightblue" d="M831.42,-436.48C829.87,-428.08 827.45,-414.98 825.45,-404.16"/>
<polygon fill="midnightblue" stroke="midnightblue" points="828.83,-403.21 823.57,-394.01 821.95,-404.48 828.83,-403.21"/>
</g>
<!-- Node24&#45;&gt;Node5 -->
<g id="edge55" class="edge">
<title>Node24&#45;&gt;Node5</title>
<path fill="none" stroke="midnightblue" d="M1325.38,-251.95C1327.77,-238.37 1333.37,-211.24 1343,-190 1350.94,-172.49 1361.43,-172.4 1367,-154 1379.83,-111.62 1382.8,-84.61 1349,-56 1318.2,-29.93 1054.32,-17.2 938.32,-12.82"/>
<polygon fill="midnightblue" stroke="midnightblue" points="938.36,-9.32 928.23,-12.45 938.1,-16.32 938.36,-9.32"/>
</g>
<!-- Node25 -->
<g id="node25" class="node">
<title>Node25</title>
<g id="a_node25"><a xlink:href="type__traits_8hpp.html" target="_top" xlink:title=" ">
<polygon fill="none" stroke="black" points="1172.5,-190.5 1172.5,-209.5 1295.5,-209.5 1295.5,-190.5 1172.5,-190.5"/>
<text text-anchor="middle" x="1234" y="-197.5" font-family="Helvetica,sans-Serif" font-size="10.00">yaclib/util/type_traits.hpp</text>
</a>
</g>
</g>
<!-- Node24&#45;&gt;Node25 -->
<g id="edge56" class="edge">
<title>Node24&#45;&gt;Node25</title>
<path fill="none" stroke="midnightblue" d="M1311.11,-251.98C1296.54,-242.34 1272.6,-226.52 1255.25,-215.05"/>
<polygon fill="midnightblue" stroke="midnightblue" points="1257.14,-212.1 1246.87,-209.51 1253.28,-217.94 1257.14,-212.1"/>
</g>
<!-- Node28 -->
<g id="node28" class="node">
<title>Node28</title>
<g id="a_node28"><a xlink:title=" ">
<polygon fill="none" stroke="#bfbfbf" points="1300,-129 1300,-148 1358,-148 1358,-129 1300,-129"/>
<text text-anchor="middle" x="1329" y="-136" font-family="Helvetica,sans-Serif" font-size="10.00">exception</text>
</a>
</g>
</g>
<!-- Node24&#45;&gt;Node28 -->
<g id="edge65" class="edge">
<title>Node24&#45;&gt;Node28</title>
<path fill="none" stroke="midnightblue" d="M1351.33,-251.96C1370.67,-244.32 1395.18,-231.03 1407,-210 1420.92,-185.23 1389.08,-164.52 1361.98,-152.09"/>
<polygon fill="midnightblue" stroke="midnightblue" points="1363.24,-148.82 1352.67,-148.04 1360.45,-155.24 1363.24,-148.82"/>
</g>
<!-- Node29 -->
<g id="node29" class="node">
<title>Node29</title>
<g id="a_node29"><a xlink:title=" ">
<polygon fill="none" stroke="#bfbfbf" points="1352,-190.5 1352,-209.5 1398,-209.5 1398,-190.5 1352,-190.5"/>
<text text-anchor="middle" x="1375" y="-197.5" font-family="Helvetica,sans-Serif" font-size="10.00">variant</text>
</a>
</g>
</g>
<!-- Node24&#45;&gt;Node29 -->
<g id="edge66" class="edge">
<title>Node24&#45;&gt;Node29</title>
<path fill="none" stroke="midnightblue" d="M1331.31,-251.98C1339.03,-242.96 1351.41,-228.52 1361.02,-217.31"/>
<polygon fill="midnightblue" stroke="midnightblue" points="1363.86,-219.38 1367.71,-209.51 1358.54,-214.82 1363.86,-219.38"/>
</g>
<!-- Node25&#45;&gt;Node5 -->
<g id="edge57" class="edge">
<title>Node25&#45;&gt;Node5</title>
<path fill="none" stroke="midnightblue" d="M1233.78,-190.2C1233.01,-175.14 1229.61,-143.99 1215,-123 1184.86,-79.69 1165.69,-76.31 1117,-56 1058.61,-31.64 986.42,-20.31 938.01,-15.15"/>
<polygon fill="midnightblue" stroke="midnightblue" points="938.35,-11.66 928.05,-14.14 937.64,-18.63 938.35,-11.66"/>
</g>
<!-- Node25&#45;&gt;Node10 -->
<g id="edge64" class="edge">
<title>Node25&#45;&gt;Node10</title>
<path fill="none" stroke="midnightblue" d="M1203.83,-190.4C1125.82,-168.18 917.43,-108.81 829.75,-83.83"/>
<polygon fill="midnightblue" stroke="midnightblue" points="830.49,-80.4 819.92,-81.02 828.58,-87.13 830.49,-80.4"/>
</g>
<!-- Node26 -->
<g id="node26" class="node">
<title>Node26</title>
<g id="a_node26"><a xlink:href="fwd_8hpp.html" target="_top" xlink:title=" ">
<polygon fill="none" stroke="black" points="1262,-62 1262,-81 1340,-81 1340,-62 1262,-62"/>
<text text-anchor="middle" x="1301" y="-69" font-family="Helvetica,sans-Serif" font-size="10.00">yaclib/fwd.hpp</text>
</a>
</g>
</g>
<!-- Node25&#45;&gt;Node26 -->
<g id="edge58" class="edge">
<title>Node25&#45;&gt;Node26</title>
<path fill="none" stroke="midnightblue" d="M1238.61,-190.31C1249.51,-169.72 1277.07,-117.69 1291.64,-90.18"/>
<polygon fill="midnightblue" stroke="midnightblue" points="1294.78,-91.73 1296.36,-81.26 1288.59,-88.45 1294.78,-91.73"/>
</g>
<!-- Node27 -->
<g id="node27" class="node">
<title>Node27</title>
<g id="a_node27"><a xlink:href="type__traits__impl_8hpp.html" target="_top" xlink:title=" ">
<polygon fill="none" stroke="black" points="1100,-123.5 1100,-153.5 1206,-153.5 1206,-123.5 1100,-123.5"/>
<text text-anchor="start" x="1108" y="-141.5" font-family="Helvetica,sans-Serif" font-size="10.00">yaclib/util/detail</text>
<text text-anchor="middle" x="1153" y="-130.5" font-family="Helvetica,sans-Serif" font-size="10.00">/type_traits_impl.hpp</text>
</a>
</g>
</g>
<!-- Node25&#45;&gt;Node27 -->
<g id="edge60" class="edge">
<title>Node25&#45;&gt;Node27</title>
<path fill="none" stroke="midnightblue" d="M1222.39,-190.48C1211.42,-182.42 1194.55,-170.02 1180.19,-159.47"/>
<polygon fill="midnightblue" stroke="midnightblue" points="1182.22,-156.62 1172.09,-153.52 1178.08,-162.26 1182.22,-156.62"/>
</g>
<!-- Node25&#45;&gt;Node28 -->
<g id="edge63" class="edge">
<title>Node25&#45;&gt;Node28</title>
<path fill="none" stroke="midnightblue" d="M1247.61,-190.48C1263.06,-180.8 1288.49,-164.87 1306.82,-153.39"/>
<polygon fill="midnightblue" stroke="midnightblue" points="1308.8,-156.28 1315.41,-148.01 1305.08,-150.35 1308.8,-156.28"/>
</g>
<!-- Node26&#45;&gt;Node5 -->
<g id="edge59" class="edge">
<title>Node26&#45;&gt;Node5</title>
<path fill="none" stroke="midnightblue" d="M1272.85,-61.99C1264.87,-59.8 1256.14,-57.61 1248,-56 1139.04,-34.48 1009.58,-21.39 938.14,-15.24"/>
<polygon fill="midnightblue" stroke="midnightblue" points="938.29,-11.74 928.03,-14.38 937.7,-18.71 938.29,-11.74"/>
</g>
<!-- Node27&#45;&gt;Node5 -->
<g id="edge61" class="edge">
<title>Node27&#45;&gt;Node5</title>
<path fill="none" stroke="midnightblue" d="M1145.32,-123.23C1134.59,-104.7 1113.31,-72.78 1086,-56 1040.94,-28.31 980.91,-17.59 938.03,-13.47"/>
<polygon fill="midnightblue" stroke="midnightblue" points="938.33,-9.99 928.06,-12.6 937.72,-16.96 938.33,-9.99"/>
</g>
<!-- Node27&#45;&gt;Node10 -->
<g id="edge62" class="edge">
<title>Node27&#45;&gt;Node10</title>
<path fill="none" stroke="midnightblue" d="M1099.83,-127.98C1026.93,-114.92 897.47,-91.74 831.36,-79.91"/>
<polygon fill="midnightblue" stroke="midnightblue" points="831.77,-76.42 821.31,-78.11 830.54,-83.31 831.77,-76.42"/>
</g>
</g>
</svg>
        <g id="navigator" transform="translate(0 0)" fill="#404254">
                <rect fill="#f2f5e9" fill-opacity="0.5" stroke="#606060" stroke-width=".5" x="0" y="0" width="60" height="60"/>
                <use id="zoomplus" xlink:href="#zoomPlus" x="17" y="9" onmousedown="handleZoom(evt,'in')"/>
                <use id="zoomminus" xlink:href="#zoomMin" x="42" y="9" onmousedown="handleZoom(evt,'out')"/>
                <use id="reset" xlink:href="#resetDef" x="30" y="36" onmousedown="handleReset()"/>
                <g id="arrowUp" xlink:href="#dirArrow" transform="translate(30 24)" onmousedown="handlePan(0,-1)">
                  <use xlink:href="#rim" fill="#404040">
                        <set attributeName="fill" to="#808080" begin="arrowUp.mouseover" end="arrowUp.mouseout"/>
                  </use>
                  <path fill="none" stroke="white" stroke-width="1.5" d="M0,-3.0v7 M-2.5,-0.5L0,-3.0L2.5,-0.5"/>
                </g>
                <g id="arrowRight" xlink:href="#dirArrow" transform="rotate(90) translate(36 -43)" onmousedown="handlePan(1,0)">
                  <use xlink:href="#rim" fill="#404040">
                        <set attributeName="fill" to="#808080" begin="arrowRight.mouseover" end="arrowRight.mouseout"/>
                  </use>
                  <path fill="none" stroke="white" stroke-width="1.5" d="M0,-3.0v7 M-2.5,-0.5L0,-3.0L2.5,-0.5"/>
                </g>
                <g id="arrowDown" xlink:href="#dirArrow" transform="rotate(180) translate(-30 -48)" onmousedown="handlePan(0,1)">
                  <use xlink:href="#rim" fill="#404040">
                        <set attributeName="fill" to="#808080" begin="arrowDown.mouseover" end="arrowDown.mouseout"/>
                  </use>
                  <path fill="none" stroke="white" stroke-width="1.5" d="M0,-3.0v7 M-2.5,-0.5L0,-3.0L2.5,-0.5"/>
                </g>
                <g id="arrowLeft" xlink:href="#dirArrow" transform="rotate(270) translate(-36 17)" onmousedown="handlePan(-1,0)">
                  <use xlink:href="#rim" fill="#404040">
                        <set attributeName="fill" to="#808080" begin="arrowLeft.mouseover" end="arrowLeft.mouseout"/>
                  </use>
                  <path fill="none" stroke="white" stroke-width="1.5" d="M0,-3.0v7 M-2.5,-0.5L0,-3.0L2.5,-0.5"/>
                </g>
        </g>
        <svg viewBox="0 0 15 15" width="100%" height="30px" preserveAspectRatio="xMaxYMin meet">
         <g id="arrow_out" transform="scale(0.3 0.3)">
          <a xlink:href="core_8hpp__incl_org.svg" target="_base">
           <rect id="button" ry="5" rx="5" y="6" x="6" height="38" width="38"
                fill="#f2f5e9" fill-opacity="0.5" stroke="#606060" stroke-width="1.0"/>
           <path id="arrow"
             d="M 11.500037,31.436501 C 11.940474,20.09759 22.043105,11.32322 32.158766,21.979434 L 37.068811,17.246167 C 37.068811,17.246167 37.088388,32 37.088388,32 L 22.160133,31.978069 C 22.160133,31.978069 26.997745,27.140456 26.997745,27.140456 C 18.528582,18.264221 13.291696,25.230495 11.500037,31.436501 z"
             style="fill:#404040;"/>
          </a>
         </g>
        </svg>
</svg>
