<?xml version="1.0" encoding="UTF-8" standalone="no"?>
<!DOCTYPE svg PUBLIC "-//W3C//DTD SVG 1.1//EN"
 "http://www.w3.org/Graphics/SVG/1.1/DTD/svg11.dtd">
<!-- Generated by graphviz version 2.50.0 (20220203.2022)
 -->
<!-- Title: include/yaclib/coroutine/detail/coroutine.hpp Pages: 1 -->
<svg width="350pt" height="307pt"
 viewBox="0.00 0.00 350.00 307.00" xmlns="http://www.w3.org/2000/svg" xmlns:xlink="http://www.w3.org/1999/xlink">
<g id="graph0" class="graph" transform="scale(1 1) rotate(0) translate(4 303)">
<title>include/yaclib/coroutine/detail/coroutine.hpp</title>
<!-- Node1 -->
<g id="node1" class="node">
<title>Node1</title>
<g id="a_node1"><a xlink:title=" ">
<polygon fill="#bfbfbf" stroke="black" points="31,-268.5 31,-298.5 149,-298.5 149,-268.5 31,-268.5"/>
<text text-anchor="start" x="39" y="-286.5" font-family="Helvetica,sans-Serif" font-size="10.00">include/yaclib/coroutine</text>
<text text-anchor="middle" x="90" y="-275.5" font-family="Helvetica,sans-Serif" font-size="10.00">/detail/coroutine.hpp</text>
</a>
</g>
</g>
<!-- Node2 -->
<g id="node2" class="node">
<title>Node2</title>
<g id="a_node2"><a xlink:href="await_8hpp.html" target="_top" xlink:title=" ">
<polygon fill="none" stroke="black" points="0,-134.5 0,-164.5 118,-164.5 118,-134.5 0,-134.5"/>
<text text-anchor="start" x="8" y="-152.5" font-family="Helvetica,sans-Serif" font-size="10.00">include/yaclib/coroutine</text>
<text text-anchor="middle" x="59" y="-141.5" font-family="Helvetica,sans-Serif" font-size="10.00">/await.hpp</text>
</a>
</g>
</g>
<!-- Node1&#45;&gt;Node2 -->
<g id="edge1" class="edge">
<title>Node1&#45;&gt;Node2</title>
<path fill="none" stroke="midnightblue" d="M48.61,-263.16C36.52,-255.3 24.75,-244.97 18,-232 5.8,-208.53 26.96,-181 43.15,-164.69"/>
<polygon fill="midnightblue" stroke="midnightblue" points="47.04,-266.29 57.41,-268.44 50.64,-260.29 47.04,-266.29"/>
</g>
<!-- Node3 -->
<g id="node3" class="node">
<title>Node3</title>
<g id="a_node3"><a xlink:href="future__awaiter_8hpp.html" target="_top" xlink:title=" ">
<polygon fill="none" stroke="black" points="27.5,-201.5 27.5,-231.5 152.5,-231.5 152.5,-201.5 27.5,-201.5"/>
<text text-anchor="start" x="35.5" y="-219.5" font-family="Helvetica,sans-Serif" font-size="10.00">include/yaclib/coroutine</text>
<text text-anchor="middle" x="90" y="-208.5" font-family="Helvetica,sans-Serif" font-size="10.00">/detail/future_awaiter.hpp</text>
</a>
</g>
</g>
<!-- Node1&#45;&gt;Node3 -->
<g id="edge2" class="edge">
<title>Node1&#45;&gt;Node3</title>
<path fill="none" stroke="midnightblue" d="M90,-258.11C90,-249.15 90,-239.32 90,-231.58"/>
<polygon fill="midnightblue" stroke="midnightblue" points="86.5,-258.4 90,-268.4 93.5,-258.4 86.5,-258.4"/>
</g>
<!-- Node4 -->
<g id="node4" class="node">
<title>Node4</title>
<g id="a_node4"><a xlink:href="suspend__condition_8hpp.html" target="_top" xlink:title=" ">
<polygon fill="none" stroke="black" points="170.5,-201.5 170.5,-231.5 315.5,-231.5 315.5,-201.5 170.5,-201.5"/>
<text text-anchor="start" x="178.5" y="-219.5" font-family="Helvetica,sans-Serif" font-size="10.00">include/yaclib/coroutine</text>
<text text-anchor="middle" x="243" y="-208.5" font-family="Helvetica,sans-Serif" font-size="10.00">/detail/suspend_condition.hpp</text>
</a>
</g>
</g>
<!-- Node1&#45;&gt;Node4 -->
<g id="edge4" class="edge">
<title>Node1&#45;&gt;Node4</title>
<path fill="none" stroke="midnightblue" d="M132.59,-264.41C157.02,-254.03 187.22,-241.2 209.87,-231.58"/>
<polygon fill="midnightblue" stroke="midnightblue" points="131.03,-261.26 123.2,-268.4 133.77,-267.71 131.03,-261.26"/>
</g>
<!-- Node3&#45;&gt;Node2 -->
<g id="edge3" class="edge">
<title>Node3&#45;&gt;Node2</title>
<path fill="none" stroke="midnightblue" d="M78.93,-192.28C74.51,-183.02 69.57,-172.66 65.71,-164.58"/>
<polygon fill="midnightblue" stroke="midnightblue" points="75.81,-193.88 83.27,-201.4 82.13,-190.86 75.81,-193.88"/>
</g>
<!-- Node5 -->
<g id="node5" class="node">
<title>Node5</title>
<g id="a_node5"><a xlink:href="coroutine__deleter_8hpp.html" target="_top" xlink:title=" ">
<polygon fill="none" stroke="black" points="204,-134.5 204,-164.5 342,-164.5 342,-134.5 204,-134.5"/>
<text text-anchor="start" x="212" y="-152.5" font-family="Helvetica,sans-Serif" font-size="10.00">include/yaclib/coroutine</text>
<text text-anchor="middle" x="273" y="-141.5" font-family="Helvetica,sans-Serif" font-size="10.00">/detail/coroutine_deleter.hpp</text>
</a>
</g>
</g>
<!-- Node4&#45;&gt;Node5 -->
<g id="edge5" class="edge">
<title>Node4&#45;&gt;Node5</title>
<path fill="none" stroke="midnightblue" d="M253.72,-192.28C257.99,-183.02 262.77,-172.66 266.5,-164.58"/>
<polygon fill="midnightblue" stroke="midnightblue" points="250.52,-190.85 249.51,-201.4 256.88,-193.78 250.52,-190.85"/>
</g>
<!-- Node6 -->
<g id="node6" class="node">
<title>Node6</title>
<g id="a_node6"><a xlink:href="promise__type_8hpp.html" target="_top" xlink:title=" ">
<polygon fill="none" stroke="black" points="123,-67.5 123,-97.5 245,-97.5 245,-67.5 123,-67.5"/>
<text text-anchor="start" x="131" y="-85.5" font-family="Helvetica,sans-Serif" font-size="10.00">include/yaclib/coroutine</text>
<text text-anchor="middle" x="184" y="-74.5" font-family="Helvetica,sans-Serif" font-size="10.00">/detail/promise_type.hpp</text>
</a>
</g>
</g>
<!-- Node4&#45;&gt;Node6 -->
<g id="edge9" class="edge">
<title>Node4&#45;&gt;Node6</title>
<path fill="none" stroke="midnightblue" d="M216.96,-194.13C208.62,-185.9 200.21,-175.86 195,-165 184.51,-143.11 183.1,-114.36 183.34,-97.5"/>
<polygon fill="midnightblue" stroke="midnightblue" points="214.8,-196.9 224.5,-201.15 219.56,-191.77 214.8,-196.9"/>
</g>
<!-- Node5&#45;&gt;Node6 -->
<g id="edge6" class="edge">
<title>Node5&#45;&gt;Node6</title>
<path fill="none" stroke="midnightblue" d="M245.55,-128.45C231.86,-118.45 215.63,-106.6 203.27,-97.58"/>
<polygon fill="midnightblue" stroke="midnightblue" points="243.55,-131.32 253.69,-134.4 247.68,-125.67 243.55,-131.32"/>
</g>
<!-- Node7 -->
<g id="node7" class="node">
<title>Node7</title>
<g id="a_node7"><a xlink:href="future__coro__traits_8hpp.html" target="_top" xlink:title=" ">
<polygon fill="none" stroke="black" points="169,-0.5 169,-30.5 287,-30.5 287,-0.5 169,-0.5"/>
<text text-anchor="start" x="177" y="-18.5" font-family="Helvetica,sans-Serif" font-size="10.00">include/yaclib/coroutine</text>
<text text-anchor="middle" x="228" y="-7.5" font-family="Helvetica,sans-Serif" font-size="10.00">/future_coro_traits.hpp</text>
</a>
</g>
</g>
<!-- Node5&#45;&gt;Node7 -->
<g id="edge8" class="edge">
<title>Node5&#45;&gt;Node7</title>
<path fill="none" stroke="midnightblue" d="M269.01,-124.44C265.88,-107.97 260.91,-85.79 254,-67 249.3,-54.23 242.12,-40.55 236.49,-30.66"/>
<polygon fill="midnightblue" stroke="midnightblue" points="265.57,-125.13 270.79,-134.35 272.46,-123.89 265.57,-125.13"/>
</g>
<!-- Node6&#45;&gt;Node7 -->
<g id="edge7" class="edge">
<title>Node6&#45;&gt;Node7</title>
<path fill="none" stroke="midnightblue" d="M199.32,-58.87C205.69,-49.46 212.88,-38.83 218.47,-30.58"/>
<polygon fill="midnightblue" stroke="midnightblue" points="196.25,-57.15 193.55,-67.4 202.05,-61.08 196.25,-57.15"/>
</g>
</g>
</svg>
