<?xml version="1.0" encoding="UTF-8" standalone="no"?>
<!DOCTYPE svg PUBLIC "-//W3C//DTD SVG 1.1//EN"
 "http://www.w3.org/Graphics/SVG/1.1/DTD/svg11.dtd">
<!-- Generated by graphviz version 2.50.0 (20220203.2022)
 -->
<!-- Title: include/yaclib/coroutine/detail/coroutine_deleter.hpp Pages: 1 -->
<svg width="182pt" height="173pt"
 viewBox="0.00 0.00 182.00 173.00" xmlns="http://www.w3.org/2000/svg" xmlns:xlink="http://www.w3.org/1999/xlink">
<g id="graph0" class="graph" transform="scale(1 1) rotate(0) translate(4 169)">
<title>include/yaclib/coroutine/detail/coroutine_deleter.hpp</title>
<!-- Node1 -->
<g id="node1" class="node">
<title>Node1</title>
<g id="a_node1"><a xlink:title=" ">
<polygon fill="#bfbfbf" stroke="black" points="36,-134.5 36,-164.5 174,-164.5 174,-134.5 36,-134.5"/>
<text text-anchor="start" x="44" y="-152.5" font-family="Helvetica,sans-Serif" font-size="10.00">include/yaclib/coroutine</text>
<text text-anchor="middle" x="105" y="-141.5" font-family="Helvetica,sans-Serif" font-size="10.00">/detail/coroutine_deleter.hpp</text>
</a>
</g>
</g>
<!-- Node2 -->
<g id="node2" class="node">
<title>Node2</title>
<g id="a_node2"><a xlink:href="promise__type_8hpp.html" target="_top" xlink:title=" ">
<polygon fill="none" stroke="black" points="0,-67.5 0,-97.5 122,-97.5 122,-67.5 0,-67.5"/>
<text text-anchor="start" x="8" y="-85.5" font-family="Helvetica,sans-Serif" font-size="10.00">include/yaclib/coroutine</text>
<text text-anchor="middle" x="61" y="-74.5" font-family="Helvetica,sans-Serif" font-size="10.00">/detail/promise_type.hpp</text>
</a>
</g>
</g>
<!-- Node1&#45;&gt;Node2 -->
<g id="edge1" class="edge">
<title>Node1&#45;&gt;Node2</title>
<path fill="none" stroke="midnightblue" d="M89.68,-125.87C83.31,-116.46 76.12,-105.83 70.53,-97.58"/>
<polygon fill="midnightblue" stroke="midnightblue" points="86.95,-128.08 95.45,-134.4 92.75,-124.15 86.95,-128.08"/>
</g>
<!-- Node3 -->
<g id="node3" class="node">
<title>Node3</title>
<g id="a_node3"><a xlink:href="future__coro__traits_8hpp.html" target="_top" xlink:title=" ">
<polygon fill="none" stroke="black" points="46,-0.5 46,-30.5 164,-30.5 164,-0.5 46,-0.5"/>
<text text-anchor="start" x="54" y="-18.5" font-family="Helvetica,sans-Serif" font-size="10.00">include/yaclib/coroutine</text>
<text text-anchor="middle" x="105" y="-7.5" font-family="Helvetica,sans-Serif" font-size="10.00">/future_coro_traits.hpp</text>
</a>
</g>
</g>
<!-- Node1&#45;&gt;Node3 -->
<g id="edge3" class="edge">
<title>Node1&#45;&gt;Node3</title>
<path fill="none" stroke="midnightblue" d="M119.77,-125.47C124.31,-117.15 128.71,-107.47 131,-98 134.24,-84.61 134.24,-80.39 131,-67 127.84,-53.97 120.7,-40.53 114.7,-30.79"/>
<polygon fill="midnightblue" stroke="midnightblue" points="116.7,-123.8 114.7,-134.21 122.75,-127.32 116.7,-123.8"/>
</g>
<!-- Node2&#45;&gt;Node3 -->
<g id="edge2" class="edge">
<title>Node2&#45;&gt;Node3</title>
<path fill="none" stroke="midnightblue" d="M76.32,-58.87C82.69,-49.46 89.88,-38.83 95.47,-30.58"/>
<polygon fill="midnightblue" stroke="midnightblue" points="73.25,-57.15 70.55,-67.4 79.05,-61.08 73.25,-57.15"/>
</g>
</g>
</svg>
