<?xml version="1.0" encoding="UTF-8" standalone="no"?>
<!DOCTYPE svg PUBLIC "-//W3C//DTD SVG 1.1//EN"
 "http://www.w3.org/Graphics/SVG/1.1/DTD/svg11.dtd">
<!-- Generated by graphviz version 2.50.0 (20220203.2022)
 -->
<!-- Title: include/yaclib/fault/detail/atomic/atomic.hpp Pages: 1 -->
<svg width="401pt" height="408pt"
 viewBox="0.00 0.00 400.50 408.00" xmlns="http://www.w3.org/2000/svg" xmlns:xlink="http://www.w3.org/1999/xlink">
<g id="graph0" class="graph" transform="scale(1 1) rotate(0) translate(4 404)">
<title>include/yaclib/fault/detail/atomic/atomic.hpp</title>
<!-- Node1 -->
<g id="node1" class="node">
<title>Node1</title>
<g id="a_node1"><a xlink:title=" ">
<polygon fill="#bfbfbf" stroke="black" points="0,-369.5 0,-399.5 125,-399.5 125,-369.5 0,-369.5"/>
<text text-anchor="start" x="8" y="-387.5" font-family="Helvetica,sans-Serif" font-size="10.00">include/yaclib/fault</text>
<text text-anchor="middle" x="62.5" y="-376.5" font-family="Helvetica,sans-Serif" font-size="10.00">/detail/atomic/atomic.hpp</text>
</a>
</g>
</g>
<!-- Node2 -->
<g id="node2" class="node">
<title>Node2</title>
<g id="a_node2"><a xlink:title=" ">
<polygon fill="none" stroke="#bfbfbf" points="58.5,-0.5 58.5,-19.5 146.5,-19.5 146.5,-0.5 58.5,-0.5"/>
<text text-anchor="middle" x="102.5" y="-7.5" font-family="Helvetica,sans-Serif" font-size="10.00">yaclib/config.hpp</text>
</a>
</g>
</g>
<!-- Node1&#45;&gt;Node2 -->
<g id="edge1" class="edge">
<title>Node1&#45;&gt;Node2</title>
<path fill="none" stroke="midnightblue" d="M52.15,-369.27C36.22,-345.91 7.5,-297.43 7.5,-251.5 7.5,-251.5 7.5,-251.5 7.5,-121 7.5,-77.74 50.11,-43.09 78.25,-24.91"/>
<polygon fill="midnightblue" stroke="midnightblue" points="80.16,-27.85 86.81,-19.6 76.47,-21.9 80.16,-27.85"/>
</g>
<!-- Node3 -->
<g id="node3" class="node">
<title>Node3</title>
<g id="a_node3"><a xlink:href="atomic__base_8hpp.html" target="_top" xlink:title=" ">
<polygon fill="none" stroke="black" points="75,-302.5 75,-332.5 200,-332.5 200,-302.5 75,-302.5"/>
<text text-anchor="start" x="83" y="-320.5" font-family="Helvetica,sans-Serif" font-size="10.00">yaclib/fault/detail</text>
<text text-anchor="middle" x="137.5" y="-309.5" font-family="Helvetica,sans-Serif" font-size="10.00">/atomic/atomic_base.hpp</text>
</a>
</g>
</g>
<!-- Node1&#45;&gt;Node3 -->
<g id="edge2" class="edge">
<title>Node1&#45;&gt;Node3</title>
<path fill="none" stroke="midnightblue" d="M78.77,-369.4C88.9,-360.62 102.1,-349.18 113.42,-339.37"/>
<polygon fill="midnightblue" stroke="midnightblue" points="115.99,-341.77 121.26,-332.58 111.41,-336.48 115.99,-341.77"/>
</g>
<!-- Node3&#45;&gt;Node2 -->
<g id="edge3" class="edge">
<title>Node3&#45;&gt;Node2</title>
<path fill="none" stroke="midnightblue" d="M118.44,-302.17C91.49,-280.11 45.5,-235.06 45.5,-184.5 45.5,-184.5 45.5,-184.5 45.5,-121 45.5,-84.3 70.82,-47.66 87.71,-27.3"/>
<polygon fill="midnightblue" stroke="midnightblue" points="90.45,-29.48 94.33,-19.62 85.15,-24.9 90.45,-29.48"/>
</g>
<!-- Node4 -->
<g id="node4" class="node">
<title>Node4</title>
<g id="a_node4"><a xlink:href="inject__fault_8hpp.html" target="_top" xlink:title=" ">
<polygon fill="none" stroke="black" points="93,-235.5 93,-265.5 182,-265.5 182,-235.5 93,-235.5"/>
<text text-anchor="start" x="101" y="-253.5" font-family="Helvetica,sans-Serif" font-size="10.00">yaclib/fault/detail</text>
<text text-anchor="middle" x="137.5" y="-242.5" font-family="Helvetica,sans-Serif" font-size="10.00">/inject_fault.hpp</text>
</a>
</g>
</g>
<!-- Node3&#45;&gt;Node4 -->
<g id="edge4" class="edge">
<title>Node3&#45;&gt;Node4</title>
<path fill="none" stroke="midnightblue" d="M137.5,-302.4C137.5,-294.64 137.5,-284.81 137.5,-275.86"/>
<polygon fill="midnightblue" stroke="midnightblue" points="141,-275.58 137.5,-265.58 134,-275.58 141,-275.58"/>
</g>
<!-- Node10 -->
<g id="node10" class="node">
<title>Node10</title>
<g id="a_node10"><a xlink:title=" ">
<polygon fill="none" stroke="#bfbfbf" points="346.5,-112.5 346.5,-131.5 392.5,-131.5 392.5,-112.5 346.5,-112.5"/>
<text text-anchor="middle" x="369.5" y="-119.5" font-family="Helvetica,sans-Serif" font-size="10.00">atomic</text>
</a>
</g>
</g>
<!-- Node3&#45;&gt;Node10 -->
<g id="edge16" class="edge">
<title>Node3&#45;&gt;Node10</title>
<path fill="none" stroke="midnightblue" d="M154.56,-302.27C197.14,-266.76 307.78,-174.48 351.42,-138.08"/>
<polygon fill="midnightblue" stroke="midnightblue" points="353.78,-140.67 359.22,-131.58 349.3,-135.29 353.78,-140.67"/>
</g>
<!-- Node12 -->
<g id="node12" class="node">
<title>Node12</title>
<g id="a_node12"><a xlink:title=" ">
<polygon fill="none" stroke="#bfbfbf" points="281.5,-241 281.5,-260 343.5,-260 343.5,-241 281.5,-241"/>
<text text-anchor="middle" x="312.5" y="-248" font-family="Helvetica,sans-Serif" font-size="10.00">type_traits</text>
</a>
</g>
</g>
<!-- Node3&#45;&gt;Node12 -->
<g id="edge17" class="edge">
<title>Node3&#45;&gt;Node12</title>
<path fill="none" stroke="midnightblue" d="M175.47,-302.4C206.72,-290.79 250.54,-274.51 280.14,-263.52"/>
<polygon fill="midnightblue" stroke="midnightblue" points="281.44,-266.77 289.6,-260.01 279,-260.21 281.44,-266.77"/>
</g>
<!-- Node4&#45;&gt;Node2 -->
<g id="edge5" class="edge">
<title>Node4&#45;&gt;Node2</title>
<path fill="none" stroke="midnightblue" d="M134.13,-235.41C131.78,-225.31 128.7,-211.37 126.5,-199 115.58,-137.56 107.67,-63.98 104.3,-29.96"/>
<polygon fill="midnightblue" stroke="midnightblue" points="107.75,-29.28 103.3,-19.67 100.78,-29.96 107.75,-29.28"/>
</g>
<!-- Node5 -->
<g id="node5" class="node">
<title>Node5</title>
<g id="a_node5"><a xlink:href="yielder_8hpp.html" target="_top" xlink:title=" ">
<polygon fill="none" stroke="black" points="136,-168.5 136,-198.5 225,-198.5 225,-168.5 136,-168.5"/>
<text text-anchor="start" x="144" y="-186.5" font-family="Helvetica,sans-Serif" font-size="10.00">yaclib/fault/detail</text>
<text text-anchor="middle" x="180.5" y="-175.5" font-family="Helvetica,sans-Serif" font-size="10.00">/yielder.hpp</text>
</a>
</g>
</g>
<!-- Node4&#45;&gt;Node5 -->
<g id="edge6" class="edge">
<title>Node4&#45;&gt;Node5</title>
<path fill="none" stroke="midnightblue" d="M146.83,-235.4C152.3,-227.13 159.33,-216.51 165.55,-207.1"/>
<polygon fill="midnightblue" stroke="midnightblue" points="168.59,-208.85 171.19,-198.58 162.75,-204.99 168.59,-208.85"/>
</g>
<!-- Node5&#45;&gt;Node2 -->
<g id="edge7" class="edge">
<title>Node5&#45;&gt;Node2</title>
<path fill="none" stroke="midnightblue" d="M167.07,-168.47C158.46,-158.85 147.62,-145.44 140.5,-132 122.53,-98.07 111.41,-54.22 106.14,-29.71"/>
<polygon fill="midnightblue" stroke="midnightblue" points="109.52,-28.73 104.08,-19.63 102.66,-30.13 109.52,-28.73"/>
</g>
<!-- Node6 -->
<g id="node6" class="node">
<title>Node6</title>
<g id="a_node6"><a xlink:href="thread_8hpp.html" target="_top" xlink:title=" ">
<polygon fill="none" stroke="black" points="150,-112.5 150,-131.5 261,-131.5 261,-112.5 150,-112.5"/>
<text text-anchor="middle" x="205.5" y="-119.5" font-family="Helvetica,sans-Serif" font-size="10.00">yaclib/fault/thread.hpp</text>
</a>
</g>
</g>
<!-- Node5&#45;&gt;Node6 -->
<g id="edge8" class="edge">
<title>Node5&#45;&gt;Node6</title>
<path fill="none" stroke="midnightblue" d="M186.42,-168.4C189.87,-160.2 194.25,-149.78 197.94,-140.99"/>
<polygon fill="midnightblue" stroke="midnightblue" points="201.22,-142.23 201.86,-131.66 194.76,-139.52 201.22,-142.23"/>
</g>
<!-- Node5&#45;&gt;Node10 -->
<g id="edge14" class="edge">
<title>Node5&#45;&gt;Node10</title>
<path fill="none" stroke="midnightblue" d="M225.29,-168.4C259.42,-157.65 305.64,-143.1 336.46,-133.4"/>
<polygon fill="midnightblue" stroke="midnightblue" points="337.8,-136.65 346.28,-130.31 335.69,-129.97 337.8,-136.65"/>
</g>
<!-- Node11 -->
<g id="node11" class="node">
<title>Node11</title>
<g id="a_node11"><a xlink:title=" ">
<polygon fill="none" stroke="#bfbfbf" points="279,-112.5 279,-131.5 328,-131.5 328,-112.5 279,-112.5"/>
<text text-anchor="middle" x="303.5" y="-119.5" font-family="Helvetica,sans-Serif" font-size="10.00">random</text>
</a>
</g>
</g>
<!-- Node5&#45;&gt;Node11 -->
<g id="edge15" class="edge">
<title>Node5&#45;&gt;Node11</title>
<path fill="none" stroke="midnightblue" d="M209.65,-168.4C229.92,-158.59 256.74,-145.62 276.52,-136.05"/>
<polygon fill="midnightblue" stroke="midnightblue" points="278.12,-139.16 285.6,-131.66 275.08,-132.86 278.12,-139.16"/>
</g>
<!-- Node6&#45;&gt;Node2 -->
<g id="edge9" class="edge">
<title>Node6&#45;&gt;Node2</title>
<path fill="none" stroke="midnightblue" d="M197.42,-112.37C180.19,-93.97 139.65,-50.67 117.53,-27.05"/>
<polygon fill="midnightblue" stroke="midnightblue" points="119.93,-24.5 110.54,-19.59 114.82,-29.28 119.93,-24.5"/>
</g>
<!-- Node7 -->
<g id="node7" class="node">
<title>Node7</title>
<g id="a_node7"><a xlink:href="chrono_8hpp.html" target="_top" xlink:title=" ">
<polygon fill="none" stroke="black" points="188,-56.5 188,-75.5 301,-75.5 301,-56.5 188,-56.5"/>
<text text-anchor="middle" x="244.5" y="-63.5" font-family="Helvetica,sans-Serif" font-size="10.00">yaclib/fault/chrono.hpp</text>
</a>
</g>
</g>
<!-- Node6&#45;&gt;Node7 -->
<g id="edge10" class="edge">
<title>Node6&#45;&gt;Node7</title>
<path fill="none" stroke="midnightblue" d="M211.94,-112.08C217.45,-104.46 225.53,-93.26 232.26,-83.94"/>
<polygon fill="midnightblue" stroke="midnightblue" points="235.16,-85.91 238.18,-75.75 229.49,-81.81 235.16,-85.91"/>
</g>
<!-- Node9 -->
<g id="node9" class="node">
<title>Node9</title>
<g id="a_node9"><a xlink:title=" ">
<polygon fill="none" stroke="#bfbfbf" points="319.5,-56.5 319.5,-75.5 363.5,-75.5 363.5,-56.5 319.5,-56.5"/>
<text text-anchor="middle" x="341.5" y="-63.5" font-family="Helvetica,sans-Serif" font-size="10.00">thread</text>
</a>
</g>
</g>
<!-- Node6&#45;&gt;Node9 -->
<g id="edge13" class="edge">
<title>Node6&#45;&gt;Node9</title>
<path fill="none" stroke="midnightblue" d="M227.05,-112.44C249.53,-103.52 284.99,-89.44 310.48,-79.32"/>
<polygon fill="midnightblue" stroke="midnightblue" points="312.05,-82.46 320.05,-75.52 309.47,-75.95 312.05,-82.46"/>
</g>
<!-- Node7&#45;&gt;Node2 -->
<g id="edge11" class="edge">
<title>Node7&#45;&gt;Node2</title>
<path fill="none" stroke="midnightblue" d="M222,-56.44C198.42,-47.48 161.18,-33.31 134.54,-23.18"/>
<polygon fill="midnightblue" stroke="midnightblue" points="135.49,-19.8 124.9,-19.52 133,-26.34 135.49,-19.8"/>
</g>
<!-- Node8 -->
<g id="node8" class="node">
<title>Node8</title>
<g id="a_node8"><a xlink:title=" ">
<polygon fill="none" stroke="#bfbfbf" points="221.5,-0.5 221.5,-19.5 267.5,-19.5 267.5,-0.5 221.5,-0.5"/>
<text text-anchor="middle" x="244.5" y="-7.5" font-family="Helvetica,sans-Serif" font-size="10.00">chrono</text>
</a>
</g>
</g>
<!-- Node7&#45;&gt;Node8 -->
<g id="edge12" class="edge">
<title>Node7&#45;&gt;Node8</title>
<path fill="none" stroke="midnightblue" d="M244.5,-56.08C244.5,-49.01 244.5,-38.86 244.5,-29.99"/>
<polygon fill="midnightblue" stroke="midnightblue" points="248,-29.75 244.5,-19.75 241,-29.75 248,-29.75"/>
</g>
</g>
</svg>
