<?xml version="1.0" encoding="UTF-8" standalone="no"?>
<!DOCTYPE svg PUBLIC "-//W3C//DTD SVG 1.1//EN"
 "http://www.w3.org/Graphics/SVG/1.1/DTD/svg11.dtd">
<!-- Generated by graphviz version 2.50.0 (20220203.2022)
 -->
<!-- Title: include/yaclib/fault/detail/mutex/mutex.hpp Pages: 1 -->
<svg width="482pt" height="341pt"
 viewBox="0.00 0.00 481.50 341.00" xmlns="http://www.w3.org/2000/svg" xmlns:xlink="http://www.w3.org/1999/xlink">
<g id="graph0" class="graph" transform="scale(1 1) rotate(0) translate(4 337)">
<title>include/yaclib/fault/detail/mutex/mutex.hpp</title>
<!-- Node1 -->
<g id="node1" class="node">
<title>Node1</title>
<g id="a_node1"><a xlink:title=" ">
<polygon fill="#bfbfbf" stroke="black" points="249.5,-302.5 249.5,-332.5 368.5,-332.5 368.5,-302.5 249.5,-302.5"/>
<text text-anchor="start" x="257.5" y="-320.5" font-family="Helvetica,sans-Serif" font-size="10.00">include/yaclib/fault</text>
<text text-anchor="middle" x="309" y="-309.5" font-family="Helvetica,sans-Serif" font-size="10.00">/detail/mutex/mutex.hpp</text>
</a>
</g>
</g>
<!-- Node2 -->
<g id="node2" class="node">
<title>Node2</title>
<g id="a_node2"><a xlink:title=" ">
<polygon fill="none" stroke="#bfbfbf" points="51,-0.5 51,-19.5 139,-19.5 139,-0.5 51,-0.5"/>
<text text-anchor="middle" x="95" y="-7.5" font-family="Helvetica,sans-Serif" font-size="10.00">yaclib/config.hpp</text>
</a>
</g>
</g>
<!-- Node1&#45;&gt;Node2 -->
<g id="edge1" class="edge">
<title>Node1&#45;&gt;Node2</title>
<path fill="none" stroke="midnightblue" d="M249.42,-316.52C159.63,-313.07 0,-291.84 0,-184.5 0,-184.5 0,-184.5 0,-121 0,-77.74 42.61,-43.09 70.75,-24.91"/>
<polygon fill="midnightblue" stroke="midnightblue" points="72.66,-27.85 79.31,-19.6 68.97,-21.9 72.66,-27.85"/>
</g>
<!-- Node3 -->
<g id="node3" class="node">
<title>Node3</title>
<g id="a_node3"><a xlink:href="inject__fault_8hpp.html" target="_top" xlink:title=" ">
<polygon fill="none" stroke="black" points="153.5,-235.5 153.5,-265.5 242.5,-265.5 242.5,-235.5 153.5,-235.5"/>
<text text-anchor="start" x="161.5" y="-253.5" font-family="Helvetica,sans-Serif" font-size="10.00">yaclib/fault/detail</text>
<text text-anchor="middle" x="198" y="-242.5" font-family="Helvetica,sans-Serif" font-size="10.00">/inject_fault.hpp</text>
</a>
</g>
</g>
<!-- Node1&#45;&gt;Node3 -->
<g id="edge2" class="edge">
<title>Node1&#45;&gt;Node3</title>
<path fill="none" stroke="midnightblue" d="M284.91,-302.4C269.06,-293.11 248.11,-280.84 230.74,-270.67"/>
<polygon fill="midnightblue" stroke="midnightblue" points="232.44,-267.61 222.04,-265.58 228.9,-273.65 232.44,-267.61"/>
</g>
<!-- Node9 -->
<g id="node9" class="node">
<title>Node9</title>
<g id="a_node9"><a xlink:title=" ">
<polygon fill="none" stroke="#bfbfbf" points="301,-112.5 301,-131.5 347,-131.5 347,-112.5 301,-112.5"/>
<text text-anchor="middle" x="324" y="-119.5" font-family="Helvetica,sans-Serif" font-size="10.00">atomic</text>
</a>
</g>
</g>
<!-- Node1&#45;&gt;Node9 -->
<g id="edge17" class="edge">
<title>Node1&#45;&gt;Node9</title>
<path fill="none" stroke="midnightblue" d="M310.1,-302.27C312.76,-267.94 319.54,-180.57 322.53,-141.9"/>
<polygon fill="midnightblue" stroke="midnightblue" points="326.05,-141.82 323.34,-131.58 319.07,-141.28 326.05,-141.82"/>
</g>
<!-- Node11 -->
<g id="node11" class="node">
<title>Node11</title>
<g id="a_node11"><a xlink:href="log_8hpp.html" target="_top" xlink:title=" ">
<polygon fill="none" stroke="black" points="337.5,-241 337.5,-260 412.5,-260 412.5,-241 337.5,-241"/>
<text text-anchor="middle" x="375" y="-248" font-family="Helvetica,sans-Serif" font-size="10.00">yaclib/log.hpp</text>
</a>
</g>
</g>
<!-- Node1&#45;&gt;Node11 -->
<g id="edge14" class="edge">
<title>Node1&#45;&gt;Node11</title>
<path fill="none" stroke="midnightblue" d="M323.32,-302.4C333.82,-292.06 348.07,-278.02 358.95,-267.31"/>
<polygon fill="midnightblue" stroke="midnightblue" points="361.5,-269.71 366.17,-260.19 356.59,-264.72 361.5,-269.71"/>
</g>
<!-- Node13 -->
<g id="node13" class="node">
<title>Node13</title>
<g id="a_node13"><a xlink:title=" ">
<polygon fill="none" stroke="#bfbfbf" points="430.5,-241 430.5,-260 473.5,-260 473.5,-241 430.5,-241"/>
<text text-anchor="middle" x="452" y="-248" font-family="Helvetica,sans-Serif" font-size="10.00">mutex</text>
</a>
</g>
</g>
<!-- Node1&#45;&gt;Node13 -->
<g id="edge18" class="edge">
<title>Node1&#45;&gt;Node13</title>
<path fill="none" stroke="midnightblue" d="M340.43,-302.47C362.91,-292.4 393.86,-278.46 421,-266 422.15,-265.47 423.33,-264.93 424.52,-264.38"/>
<polygon fill="midnightblue" stroke="midnightblue" points="426.07,-267.52 433.66,-260.13 423.12,-261.17 426.07,-267.52"/>
</g>
<!-- Node3&#45;&gt;Node2 -->
<g id="edge3" class="edge">
<title>Node3&#45;&gt;Node2</title>
<path fill="none" stroke="midnightblue" d="M176.66,-235.44C149.19,-215.96 102.68,-177.91 83,-132 69.67,-100.91 73.25,-89.33 79,-56 80.57,-46.91 83.79,-37.22 86.94,-29.17"/>
<polygon fill="midnightblue" stroke="midnightblue" points="90.26,-30.3 90.89,-19.72 83.81,-27.6 90.26,-30.3"/>
</g>
<!-- Node4 -->
<g id="node4" class="node">
<title>Node4</title>
<g id="a_node4"><a xlink:href="yielder_8hpp.html" target="_top" xlink:title=" ">
<polygon fill="none" stroke="black" points="153.5,-168.5 153.5,-198.5 242.5,-198.5 242.5,-168.5 153.5,-168.5"/>
<text text-anchor="start" x="161.5" y="-186.5" font-family="Helvetica,sans-Serif" font-size="10.00">yaclib/fault/detail</text>
<text text-anchor="middle" x="198" y="-175.5" font-family="Helvetica,sans-Serif" font-size="10.00">/yielder.hpp</text>
</a>
</g>
</g>
<!-- Node3&#45;&gt;Node4 -->
<g id="edge4" class="edge">
<title>Node3&#45;&gt;Node4</title>
<path fill="none" stroke="midnightblue" d="M198,-235.4C198,-227.64 198,-217.81 198,-208.86"/>
<polygon fill="midnightblue" stroke="midnightblue" points="201.5,-208.58 198,-198.58 194.5,-208.58 201.5,-208.58"/>
</g>
<!-- Node4&#45;&gt;Node2 -->
<g id="edge5" class="edge">
<title>Node4&#45;&gt;Node2</title>
<path fill="none" stroke="midnightblue" d="M153.45,-172.42C131.85,-165.05 107.85,-152.62 95,-132 75.35,-100.48 82.85,-54.77 89.36,-29.51"/>
<polygon fill="midnightblue" stroke="midnightblue" points="92.77,-30.33 92.1,-19.76 86.03,-28.44 92.77,-30.33"/>
</g>
<!-- Node5 -->
<g id="node5" class="node">
<title>Node5</title>
<g id="a_node5"><a xlink:href="thread_8hpp.html" target="_top" xlink:title=" ">
<polygon fill="none" stroke="black" points="104.5,-112.5 104.5,-131.5 215.5,-131.5 215.5,-112.5 104.5,-112.5"/>
<text text-anchor="middle" x="160" y="-119.5" font-family="Helvetica,sans-Serif" font-size="10.00">yaclib/fault/thread.hpp</text>
</a>
</g>
</g>
<!-- Node4&#45;&gt;Node5 -->
<g id="edge6" class="edge">
<title>Node4&#45;&gt;Node5</title>
<path fill="none" stroke="midnightblue" d="M188.99,-168.4C183.59,-159.93 176.67,-149.1 170.95,-140.14"/>
<polygon fill="midnightblue" stroke="midnightblue" points="173.86,-138.2 165.53,-131.66 167.96,-141.97 173.86,-138.2"/>
</g>
<!-- Node4&#45;&gt;Node9 -->
<g id="edge12" class="edge">
<title>Node4&#45;&gt;Node9</title>
<path fill="none" stroke="midnightblue" d="M227.86,-168.4C248.62,-158.59 276.1,-145.62 296.36,-136.05"/>
<polygon fill="midnightblue" stroke="midnightblue" points="298.12,-139.09 305.67,-131.66 295.13,-132.76 298.12,-139.09"/>
</g>
<!-- Node10 -->
<g id="node10" class="node">
<title>Node10</title>
<g id="a_node10"><a xlink:title=" ">
<polygon fill="none" stroke="#bfbfbf" points="233.5,-112.5 233.5,-131.5 282.5,-131.5 282.5,-112.5 233.5,-112.5"/>
<text text-anchor="middle" x="258" y="-119.5" font-family="Helvetica,sans-Serif" font-size="10.00">random</text>
</a>
</g>
</g>
<!-- Node4&#45;&gt;Node10 -->
<g id="edge13" class="edge">
<title>Node4&#45;&gt;Node10</title>
<path fill="none" stroke="midnightblue" d="M212.22,-168.4C221.21,-159.49 232.84,-147.95 242.13,-138.74"/>
<polygon fill="midnightblue" stroke="midnightblue" points="244.63,-141.18 249.27,-131.66 239.7,-136.21 244.63,-141.18"/>
</g>
<!-- Node5&#45;&gt;Node2 -->
<g id="edge7" class="edge">
<title>Node5&#45;&gt;Node2</title>
<path fill="none" stroke="midnightblue" d="M154.79,-112.39C149.34,-103.35 140.52,-88.7 133,-76 123.55,-60.05 112.91,-41.82 105.29,-28.73"/>
<polygon fill="midnightblue" stroke="midnightblue" points="108.18,-26.74 100.13,-19.85 102.13,-30.25 108.18,-26.74"/>
</g>
<!-- Node6 -->
<g id="node6" class="node">
<title>Node6</title>
<g id="a_node6"><a xlink:href="chrono_8hpp.html" target="_top" xlink:title=" ">
<polygon fill="none" stroke="black" points="142.5,-56.5 142.5,-75.5 255.5,-75.5 255.5,-56.5 142.5,-56.5"/>
<text text-anchor="middle" x="199" y="-63.5" font-family="Helvetica,sans-Serif" font-size="10.00">yaclib/fault/chrono.hpp</text>
</a>
</g>
</g>
<!-- Node5&#45;&gt;Node6 -->
<g id="edge8" class="edge">
<title>Node5&#45;&gt;Node6</title>
<path fill="none" stroke="midnightblue" d="M166.44,-112.08C171.95,-104.46 180.03,-93.26 186.76,-83.94"/>
<polygon fill="midnightblue" stroke="midnightblue" points="189.66,-85.91 192.68,-75.75 183.99,-81.81 189.66,-85.91"/>
</g>
<!-- Node8 -->
<g id="node8" class="node">
<title>Node8</title>
<g id="a_node8"><a xlink:title=" ">
<polygon fill="none" stroke="#bfbfbf" points="274,-56.5 274,-75.5 318,-75.5 318,-56.5 274,-56.5"/>
<text text-anchor="middle" x="296" y="-63.5" font-family="Helvetica,sans-Serif" font-size="10.00">thread</text>
</a>
</g>
</g>
<!-- Node5&#45;&gt;Node8 -->
<g id="edge11" class="edge">
<title>Node5&#45;&gt;Node8</title>
<path fill="none" stroke="midnightblue" d="M181.55,-112.44C204.03,-103.52 239.49,-89.44 264.98,-79.32"/>
<polygon fill="midnightblue" stroke="midnightblue" points="266.55,-82.46 274.55,-75.52 263.97,-75.95 266.55,-82.46"/>
</g>
<!-- Node6&#45;&gt;Node2 -->
<g id="edge9" class="edge">
<title>Node6&#45;&gt;Node2</title>
<path fill="none" stroke="midnightblue" d="M182.29,-56.32C165.69,-47.7 140,-34.36 120.78,-24.39"/>
<polygon fill="midnightblue" stroke="midnightblue" points="122.16,-21.16 111.67,-19.65 118.93,-27.37 122.16,-21.16"/>
</g>
<!-- Node7 -->
<g id="node7" class="node">
<title>Node7</title>
<g id="a_node7"><a xlink:title=" ">
<polygon fill="none" stroke="#bfbfbf" points="176,-0.5 176,-19.5 222,-19.5 222,-0.5 176,-0.5"/>
<text text-anchor="middle" x="199" y="-7.5" font-family="Helvetica,sans-Serif" font-size="10.00">chrono</text>
</a>
</g>
</g>
<!-- Node6&#45;&gt;Node7 -->
<g id="edge10" class="edge">
<title>Node6&#45;&gt;Node7</title>
<path fill="none" stroke="midnightblue" d="M199,-56.08C199,-49.01 199,-38.86 199,-29.99"/>
<polygon fill="midnightblue" stroke="midnightblue" points="202.5,-29.75 199,-19.75 195.5,-29.75 202.5,-29.75"/>
</g>
<!-- Node11&#45;&gt;Node2 -->
<g id="edge15" class="edge">
<title>Node11&#45;&gt;Node2</title>
<path fill="none" stroke="midnightblue" d="M376.13,-240.96C379.74,-209.74 387.42,-101.2 327,-56 312.89,-45.44 213.22,-28.79 149.19,-18.97"/>
<polygon fill="midnightblue" stroke="midnightblue" points="149.66,-15.5 139.24,-17.46 148.6,-22.43 149.66,-15.5"/>
</g>
<!-- Node12 -->
<g id="node12" class="node">
<title>Node12</title>
<g id="a_node12"><a xlink:title=" ">
<polygon fill="none" stroke="#bfbfbf" points="403,-174 403,-193 469,-193 469,-174 403,-174"/>
<text text-anchor="middle" x="436" y="-181" font-family="Helvetica,sans-Serif" font-size="10.00">string_view</text>
</a>
</g>
</g>
<!-- Node11&#45;&gt;Node12 -->
<g id="edge16" class="edge">
<title>Node11&#45;&gt;Node12</title>
<path fill="none" stroke="midnightblue" d="M383.23,-240.73C392.83,-230.5 408.91,-213.36 420.8,-200.69"/>
<polygon fill="midnightblue" stroke="midnightblue" points="423.61,-202.81 427.9,-193.13 418.51,-198.02 423.61,-202.81"/>
</g>
</g>
</svg>
