<?xml version="1.0" encoding="UTF-8" standalone="no"?>
<!DOCTYPE svg PUBLIC "-//W3C//DTD SVG 1.1//EN"
 "http://www.w3.org/Graphics/SVG/1.1/DTD/svg11.dtd">
<!-- Generated by graphviz version 2.50.0 (20220203.2022)
 -->
<!-- Title: src Pages: 1 -->
<svg width="382pt" height="204pt"
 viewBox="0.00 0.00 382.00 204.00" xmlns="http://www.w3.org/2000/svg" xmlns:xlink="http://www.w3.org/1999/xlink">
<g id="graph0" class="graph" transform="scale(1 1) rotate(0) translate(4 200)">
<title>src</title>
<g id="clust1" class="cluster">
<title>clusterdir_68267d1309a1af8e8297ef4c3efbcdba</title>
<g id="a_clust1"><a xlink:href="dir_68267d1309a1af8e8297ef4c3efbcdba.html" target="_top">
<polygon fill="#edf0f7" stroke="#404040" stroke-width="2" points="8,-64 8,-188 366,-188 366,-64 8,-64"/>
</a>
</g>
</g>
<!-- dir_68267d1309a1af8e8297ef4c3efbcdba -->
<g id="node1" class="node">
<title>dir_68267d1309a1af8e8297ef4c3efbcdba</title>
<text text-anchor="middle" x="115" y="-159.5" font-family="Helvetica,sans-Serif" font-size="10.00">src</text>
</g>
<!-- dir_d44c64559bbebec7f509842c48db8b23 -->
<g id="node7" class="node">
<title>dir_d44c64559bbebec7f509842c48db8b23</title>
<g id="a_node7"><a xlink:href="dir_d44c64559bbebec7f509842c48db8b23.html" target="_top" xlink:title="include">
<polygon fill="none" stroke="red" points="193,-36 139,-36 139,0 193,0 193,-36"/>
<text text-anchor="middle" x="166" y="-15.5" font-family="Helvetica,sans-Serif" font-size="10.00">include</text>
</a>
</g>
</g>
<!-- dir_68267d1309a1af8e8297ef4c3efbcdba&#45;&gt;dir_d44c64559bbebec7f509842c48db8b23 -->
<g id="edge1" class="edge">
<title>dir_68267d1309a1af8e8297ef4c3efbcdba&#45;&gt;dir_d44c64559bbebec7f509842c48db8b23</title>
<path fill="none" stroke="black" d="M121.15,-143.87C129.92,-119.46 146.09,-74.43 156.43,-45.64"/>
<polygon fill="black" stroke="black" points="159.74,-46.78 159.83,-36.19 153.15,-44.42 159.74,-46.78"/>
<g id="a_edge1&#45;headlabel"><a xlink:href="dir_000031_000026.html" target="_top" xlink:title="65">
<text text-anchor="middle" x="161.2" y="-48.63" font-family="Helvetica,sans-Serif" font-size="10.00">65</text>
</a>
</g>
</g>
<!-- dir_8111f045ab156cab490d6e0f8a4c6c64 -->
<g id="node2" class="node">
<title>dir_8111f045ab156cab490d6e0f8a4c6c64</title>
<g id="a_node2"><a xlink:href="dir_8111f045ab156cab490d6e0f8a4c6c64.html" target="_top" xlink:title="algo">
<polygon fill="#a2b4d6" stroke="#404040" points="214,-180 160,-180 160,-144 214,-144 214,-180"/>
<text text-anchor="middle" x="187" y="-159.5" font-family="Helvetica,sans-Serif" font-size="10.00">algo</text>
</a>
</g>
</g>
<!-- dir_8111f045ab156cab490d6e0f8a4c6c64&#45;&gt;dir_d44c64559bbebec7f509842c48db8b23 -->
<g id="edge2" class="edge">
<title>dir_8111f045ab156cab490d6e0f8a4c6c64&#45;&gt;dir_d44c64559bbebec7f509842c48db8b23</title>
<path fill="none" stroke="black" d="M184.47,-143.87C180.89,-119.67 174.31,-75.21 170.05,-46.39"/>
<polygon fill="black" stroke="black" points="173.47,-45.57 168.54,-36.19 166.54,-46.59 173.47,-45.57"/>
<g id="a_edge2&#45;headlabel"><a xlink:href="dir_000001_000026.html" target="_top" xlink:title="4">
<text text-anchor="middle" x="176.8" y="-46.21" font-family="Helvetica,sans-Serif" font-size="10.00">4</text>
</a>
</g>
</g>
<!-- dir_b60a79ed93f318a37dbc9781b4452c17 -->
<g id="node3" class="node">
<title>dir_b60a79ed93f318a37dbc9781b4452c17</title>
<g id="a_node3"><a xlink:href="dir_b60a79ed93f318a37dbc9781b4452c17.html" target="_top" xlink:title="async">
<polygon fill="#a2b4d6" stroke="#404040" points="286,-180 232,-180 232,-144 286,-144 286,-180"/>
<text text-anchor="middle" x="259" y="-159.5" font-family="Helvetica,sans-Serif" font-size="10.00">async</text>
</a>
</g>
</g>
<!-- dir_b60a79ed93f318a37dbc9781b4452c17&#45;&gt;dir_d44c64559bbebec7f509842c48db8b23 -->
<g id="edge3" class="edge">
<title>dir_b60a79ed93f318a37dbc9781b4452c17&#45;&gt;dir_d44c64559bbebec7f509842c48db8b23</title>
<path fill="none" stroke="black" d="M247.78,-143.87C231.65,-119.24 201.78,-73.64 182.95,-44.88"/>
<polygon fill="black" stroke="black" points="185.66,-42.64 177.26,-36.19 179.81,-46.47 185.66,-42.64"/>
<g id="a_edge3&#45;headlabel"><a xlink:href="dir_000004_000026.html" target="_top" xlink:title="8">
<text text-anchor="middle" x="190.01" y="-41.59" font-family="Helvetica,sans-Serif" font-size="10.00">8</text>
</a>
</g>
</g>
<!-- dir_47269c51f9fc619a45fe5a093bf2488f -->
<g id="node4" class="node">
<title>dir_47269c51f9fc619a45fe5a093bf2488f</title>
<g id="a_node4"><a xlink:href="dir_47269c51f9fc619a45fe5a093bf2488f.html" target="_top" xlink:title="executor">
<polygon fill="#a2b4d6" stroke="#404040" points="70,-180 16,-180 16,-144 70,-144 70,-180"/>
<text text-anchor="middle" x="43" y="-159.5" font-family="Helvetica,sans-Serif" font-size="10.00">executor</text>
</a>
</g>
</g>
<!-- dir_b7878ad5ecbf2506f4125b9d34c97e45 -->
<g id="node6" class="node">
<title>dir_b7878ad5ecbf2506f4125b9d34c97e45</title>
<g id="a_node6"><a xlink:href="dir_b7878ad5ecbf2506f4125b9d34c97e45.html" target="_top" xlink:title="util">
<polygon fill="#a2b4d6" stroke="#404040" points="76,-108 22,-108 22,-72 76,-72 76,-108"/>
<text text-anchor="middle" x="49" y="-87.5" font-family="Helvetica,sans-Serif" font-size="10.00">util</text>
</a>
</g>
</g>
<!-- dir_47269c51f9fc619a45fe5a093bf2488f&#45;&gt;dir_b7878ad5ecbf2506f4125b9d34c97e45 -->
<g id="edge4" class="edge">
<title>dir_47269c51f9fc619a45fe5a093bf2488f&#45;&gt;dir_b7878ad5ecbf2506f4125b9d34c97e45</title>
<path fill="none" stroke="black" d="M44.48,-143.7C45.14,-135.98 45.94,-126.71 46.68,-118.11"/>
<polygon fill="black" stroke="black" points="50.17,-118.37 47.53,-108.1 43.19,-117.77 50.17,-118.37"/>
<g id="a_edge4&#45;headlabel"><a xlink:href="dir_000021_000036.html" target="_top" xlink:title="3">
<text text-anchor="middle" x="52.69" y="-119.69" font-family="Helvetica,sans-Serif" font-size="10.00">3</text>
</a>
</g>
</g>
<!-- dir_47269c51f9fc619a45fe5a093bf2488f&#45;&gt;dir_d44c64559bbebec7f509842c48db8b23 -->
<g id="edge5" class="edge">
<title>dir_47269c51f9fc619a45fe5a093bf2488f&#45;&gt;dir_d44c64559bbebec7f509842c48db8b23</title>
<path fill="none" stroke="black" d="M57.84,-143.87C79.45,-118.92 119.7,-72.45 144.54,-43.77"/>
<polygon fill="black" stroke="black" points="147.21,-46.04 151.11,-36.19 141.92,-41.46 147.21,-46.04"/>
<g id="a_edge5&#45;headlabel"><a xlink:href="dir_000021_000026.html" target="_top" xlink:title="26">
<text text-anchor="middle" x="147" y="-48.12" font-family="Helvetica,sans-Serif" font-size="10.00">26</text>
</a>
</g>
</g>
<!-- dir_f289338ed24f1cc6d174ad5a6e562081 -->
<g id="node5" class="node">
<title>dir_f289338ed24f1cc6d174ad5a6e562081</title>
<g id="a_node5"><a xlink:href="dir_f289338ed24f1cc6d174ad5a6e562081.html" target="_top" xlink:title="fault">
<polygon fill="#a2b4d6" stroke="#404040" points="358,-180 304,-180 304,-144 358,-144 358,-180"/>
<text text-anchor="middle" x="331" y="-159.5" font-family="Helvetica,sans-Serif" font-size="10.00">fault</text>
</a>
</g>
</g>
<!-- dir_f289338ed24f1cc6d174ad5a6e562081&#45;&gt;dir_d44c64559bbebec7f509842c48db8b23 -->
<g id="edge6" class="edge">
<title>dir_f289338ed24f1cc6d174ad5a6e562081&#45;&gt;dir_d44c64559bbebec7f509842c48db8b23</title>
<path fill="none" stroke="black" d="M312.59,-143.81C291.34,-124.13 255.19,-91.12 223,-64 214.52,-56.86 205.15,-49.32 196.49,-42.49"/>
<polygon fill="black" stroke="black" points="198.49,-39.61 188.46,-36.2 194.17,-45.12 198.49,-39.61"/>
<g id="a_edge6&#45;headlabel"><a xlink:href="dir_000024_000026.html" target="_top" xlink:title="17">
<text text-anchor="middle" x="203.07" y="-37.09" font-family="Helvetica,sans-Serif" font-size="10.00">17</text>
</a>
</g>
</g>
<!-- dir_b7878ad5ecbf2506f4125b9d34c97e45&#45;&gt;dir_d44c64559bbebec7f509842c48db8b23 -->
<g id="edge7" class="edge">
<title>dir_b7878ad5ecbf2506f4125b9d34c97e45&#45;&gt;dir_d44c64559bbebec7f509842c48db8b23</title>
<path fill="none" stroke="black" d="M76.14,-72.76C92.12,-63.2 112.53,-50.99 129.86,-40.62"/>
<polygon fill="black" stroke="black" points="131.82,-43.53 138.61,-35.39 128.23,-37.52 131.82,-43.53"/>
<g id="a_edge7&#45;headlabel"><a xlink:href="dir_000036_000026.html" target="_top" xlink:title="8">
<text text-anchor="middle" x="130.19" y="-45.31" font-family="Helvetica,sans-Serif" font-size="10.00">8</text>
</a>
</g>
</g>
</g>
</svg>
