<?xml version="1.0" encoding="UTF-8" standalone="no"?>
<!DOCTYPE svg PUBLIC "-//W3C//DTD SVG 1.1//EN"
 "http://www.w3.org/Graphics/SVG/1.1/DTD/svg11.dtd">
<!-- Generated by graphviz version 2.50.0 (20220203.2022)
 -->
<!-- Title: src/fault Pages: 1 -->
<svg width="552pt" height="159pt"
 viewBox="0.00 0.00 552.00 159.00" xmlns="http://www.w3.org/2000/svg" xmlns:xlink="http://www.w3.org/1999/xlink">
<g id="graph0" class="graph" transform="scale(1 1) rotate(0) translate(4 155)">
<title>src/fault</title>
<g id="clust1" class="cluster">
<title>clusterdir_68267d1309a1af8e8297ef4c3efbcdba</title>
<g id="a_clust1"><a xlink:href="dir_68267d1309a1af8e8297ef4c3efbcdba.html" target="_top" xlink:title="src">
<polygon fill="#edf0f7" stroke="#404040" stroke-dasharray="5,2" points="8,-56 8,-143 536,-143 536,-56 8,-56"/>
<text text-anchor="middle" x="272" y="-131" font-family="Helvetica,sans-Serif" font-size="10.00">src</text>
</a>
</g>
</g>
<g id="clust2" class="cluster">
<title>clusterdir_f289338ed24f1cc6d174ad5a6e562081</title>
<g id="a_clust2"><a xlink:href="dir_f289338ed24f1cc6d174ad5a6e562081.html" target="_top">
<polygon fill="#edf0f7" stroke="#404040" stroke-width="2" points="16,-64 16,-116 528,-116 528,-64 16,-64"/>
</a>
</g>
</g>
<!-- dir_f289338ed24f1cc6d174ad5a6e562081 -->
<g id="node1" class="node">
<title>dir_f289338ed24f1cc6d174ad5a6e562081</title>
<text text-anchor="middle" x="493" y="-87.5" font-family="Helvetica,sans-Serif" font-size="10.00">fault</text>
</g>
<!-- dir_d44c64559bbebec7f509842c48db8b23 -->
<g id="node8" class="node">
<title>dir_d44c64559bbebec7f509842c48db8b23</title>
<g id="a_node8"><a xlink:href="dir_d44c64559bbebec7f509842c48db8b23.html" target="_top" xlink:title="include">
<polygon fill="none" stroke="red" points="295,-36 241,-36 241,0 295,0 295,-36"/>
<text text-anchor="middle" x="268" y="-15.5" font-family="Helvetica,sans-Serif" font-size="10.00">include</text>
</a>
</g>
</g>
<!-- dir_f289338ed24f1cc6d174ad5a6e562081&#45;&gt;dir_d44c64559bbebec7f509842c48db8b23 -->
<g id="edge1" class="edge">
<title>dir_f289338ed24f1cc6d174ad5a6e562081&#45;&gt;dir_d44c64559bbebec7f509842c48db8b23</title>
<path fill="none" stroke="black" d="M477.97,-71.77C472,-65.93 464.72,-59.9 457,-56 408.23,-31.37 344.72,-23.11 305.16,-20.35"/>
<polygon fill="black" stroke="black" points="305.35,-16.86 295.15,-19.74 304.92,-23.85 305.35,-16.86"/>
<g id="a_edge1&#45;headlabel"><a xlink:href="dir_000024_000026.html" target="_top" xlink:title="17">
<text text-anchor="middle" x="309.11" y="-11.75" font-family="Helvetica,sans-Serif" font-size="10.00">17</text>
</a>
</g>
</g>
<!-- dir_62d8c376d6cea2de33efd3a470802434 -->
<g id="node2" class="node">
<title>dir_62d8c376d6cea2de33efd3a470802434</title>
<g id="a_node2"><a xlink:href="dir_62d8c376d6cea2de33efd3a470802434.html" target="_top" xlink:title="antagonist">
<polygon fill="#a2b4d6" stroke="#404040" points="448,-108 386,-108 386,-72 448,-72 448,-108"/>
<text text-anchor="middle" x="417" y="-87.5" font-family="Helvetica,sans-Serif" font-size="10.00">antagonist</text>
</a>
</g>
</g>
<!-- dir_62d8c376d6cea2de33efd3a470802434&#45;&gt;dir_d44c64559bbebec7f509842c48db8b23 -->
<g id="edge2" class="edge">
<title>dir_62d8c376d6cea2de33efd3a470802434&#45;&gt;dir_d44c64559bbebec7f509842c48db8b23</title>
<path fill="none" stroke="black" d="M398.9,-71.71C392.37,-66.14 384.71,-60.3 377,-56 354.4,-43.4 326.77,-34.08 304.99,-27.95"/>
<polygon fill="black" stroke="black" points="305.69,-24.51 295.12,-25.27 303.86,-31.27 305.69,-24.51"/>
<g id="a_edge2&#45;headlabel"><a xlink:href="dir_000002_000026.html" target="_top" xlink:title="2">
<text text-anchor="middle" x="309.9" y="-20.21" font-family="Helvetica,sans-Serif" font-size="10.00">2</text>
</a>
</g>
</g>
<!-- dir_9f518b136a977446f0272824c76ed640 -->
<g id="node3" class="node">
<title>dir_9f518b136a977446f0272824c76ed640</title>
<g id="a_node3"><a xlink:href="dir_9f518b136a977446f0272824c76ed640.html" target="_top" xlink:title="chrono">
<polygon fill="#a2b4d6" stroke="#404040" points="368,-108 314,-108 314,-72 368,-72 368,-108"/>
<text text-anchor="middle" x="341" y="-87.5" font-family="Helvetica,sans-Serif" font-size="10.00">chrono</text>
</a>
</g>
</g>
<!-- dir_9f518b136a977446f0272824c76ed640&#45;&gt;dir_d44c64559bbebec7f509842c48db8b23 -->
<g id="edge3" class="edge">
<title>dir_9f518b136a977446f0272824c76ed640&#45;&gt;dir_d44c64559bbebec7f509842c48db8b23</title>
<path fill="none" stroke="black" d="M322.96,-71.7C313.94,-63.05 302.88,-52.45 293.06,-43.03"/>
<polygon fill="black" stroke="black" points="295.48,-40.5 285.84,-36.1 290.63,-45.55 295.48,-40.5"/>
<g id="a_edge3&#45;headlabel"><a xlink:href="dir_000008_000026.html" target="_top" xlink:title="4">
<text text-anchor="middle" x="300.04" y="-38.44" font-family="Helvetica,sans-Serif" font-size="10.00">4</text>
</a>
</g>
</g>
<!-- dir_a808d4e54e22a453eab75bf73b2adab6 -->
<g id="node4" class="node">
<title>dir_a808d4e54e22a453eab75bf73b2adab6</title>
<g id="a_node4"><a xlink:href="dir_a808d4e54e22a453eab75bf73b2adab6.html" target="_top" xlink:title="condition">
<polygon fill="#a2b4d6" stroke="#404040" points="296,-108 240,-108 240,-72 296,-72 296,-108"/>
<text text-anchor="middle" x="268" y="-87.5" font-family="Helvetica,sans-Serif" font-size="10.00">condition</text>
</a>
</g>
</g>
<!-- dir_a808d4e54e22a453eab75bf73b2adab6&#45;&gt;dir_d44c64559bbebec7f509842c48db8b23 -->
<g id="edge4" class="edge">
<title>dir_a808d4e54e22a453eab75bf73b2adab6&#45;&gt;dir_d44c64559bbebec7f509842c48db8b23</title>
<path fill="none" stroke="black" d="M268,-71.7C268,-63.98 268,-54.71 268,-46.11"/>
<polygon fill="black" stroke="black" points="271.5,-46.1 268,-36.1 264.5,-46.1 271.5,-46.1"/>
<g id="a_edge4&#45;headlabel"><a xlink:href="dir_000010_000026.html" target="_top" xlink:title="1">
<text text-anchor="middle" x="274.34" y="-47.2" font-family="Helvetica,sans-Serif" font-size="10.00">1</text>
</a>
</g>
</g>
<!-- dir_12a45e9c2bbf6ee139b41ce4ea3dc897 -->
<g id="node5" class="node">
<title>dir_12a45e9c2bbf6ee139b41ce4ea3dc897</title>
<g id="a_node5"><a xlink:href="dir_12a45e9c2bbf6ee139b41ce4ea3dc897.html" target="_top" xlink:title="mutex">
<polygon fill="#a2b4d6" stroke="#404040" points="222,-108 168,-108 168,-72 222,-72 222,-108"/>
<text text-anchor="middle" x="195" y="-87.5" font-family="Helvetica,sans-Serif" font-size="10.00">mutex</text>
</a>
</g>
</g>
<!-- dir_12a45e9c2bbf6ee139b41ce4ea3dc897&#45;&gt;dir_d44c64559bbebec7f509842c48db8b23 -->
<g id="edge5" class="edge">
<title>dir_12a45e9c2bbf6ee139b41ce4ea3dc897&#45;&gt;dir_d44c64559bbebec7f509842c48db8b23</title>
<path fill="none" stroke="black" d="M213.04,-71.7C222.06,-63.05 233.12,-52.45 242.94,-43.03"/>
<polygon fill="black" stroke="black" points="245.37,-45.55 250.16,-36.1 240.52,-40.5 245.37,-45.55"/>
<g id="a_edge5&#45;headlabel"><a xlink:href="dir_000028_000026.html" target="_top" xlink:title="6">
<text text-anchor="middle" x="244.74" y="-47.59" font-family="Helvetica,sans-Serif" font-size="10.00">6</text>
</a>
</g>
</g>
<!-- dir_7cb6002f8d026479595e36990dc03960 -->
<g id="node6" class="node">
<title>dir_7cb6002f8d026479595e36990dc03960</title>
<g id="a_node6"><a xlink:href="dir_7cb6002f8d026479595e36990dc03960.html" target="_top" xlink:title="random">
<polygon fill="#a2b4d6" stroke="#404040" points="150,-108 96,-108 96,-72 150,-72 150,-108"/>
<text text-anchor="middle" x="123" y="-87.5" font-family="Helvetica,sans-Serif" font-size="10.00">random</text>
</a>
</g>
</g>
<!-- dir_7cb6002f8d026479595e36990dc03960&#45;&gt;dir_d44c64559bbebec7f509842c48db8b23 -->
<g id="edge6" class="edge">
<title>dir_7cb6002f8d026479595e36990dc03960&#45;&gt;dir_d44c64559bbebec7f509842c48db8b23</title>
<path fill="none" stroke="black" d="M138.68,-71.98C144.62,-66.3 151.7,-60.32 159,-56 181.27,-42.82 208.9,-33.5 230.77,-27.52"/>
<polygon fill="black" stroke="black" points="231.89,-30.84 240.68,-24.92 230.12,-24.07 231.89,-30.84"/>
<g id="a_edge6&#45;headlabel"><a xlink:href="dir_000030_000026.html" target="_top" xlink:title="1">
<text text-anchor="middle" x="229.13" y="-32" font-family="Helvetica,sans-Serif" font-size="10.00">1</text>
</a>
</g>
</g>
<!-- dir_de382bd93f5f931f2a8f49231e2d50fc -->
<g id="node7" class="node">
<title>dir_de382bd93f5f931f2a8f49231e2d50fc</title>
<g id="a_node7"><a xlink:href="dir_de382bd93f5f931f2a8f49231e2d50fc.html" target="_top" xlink:title="thread">
<polygon fill="#a2b4d6" stroke="#404040" points="78,-108 24,-108 24,-72 78,-72 78,-108"/>
<text text-anchor="middle" x="51" y="-87.5" font-family="Helvetica,sans-Serif" font-size="10.00">thread</text>
</a>
</g>
</g>
<!-- dir_de382bd93f5f931f2a8f49231e2d50fc&#45;&gt;dir_d44c64559bbebec7f509842c48db8b23 -->
<g id="edge7" class="edge">
<title>dir_de382bd93f5f931f2a8f49231e2d50fc&#45;&gt;dir_d44c64559bbebec7f509842c48db8b23</title>
<path fill="none" stroke="black" d="M66.05,-71.81C72.02,-65.97 79.3,-59.93 87,-56 132.96,-32.55 192.64,-23.96 230.64,-20.82"/>
<polygon fill="black" stroke="black" points="231.04,-24.3 240.75,-20.07 230.52,-17.31 231.04,-24.3"/>
<g id="a_edge7&#45;headlabel"><a xlink:href="dir_000034_000026.html" target="_top" xlink:title="2">
<text text-anchor="middle" x="227.66" y="-24.89" font-family="Helvetica,sans-Serif" font-size="10.00">2</text>
</a>
</g>
</g>
</g>
</svg>
