<?xml version="1.0" encoding="UTF-8" standalone="no"?>
<!DOCTYPE svg PUBLIC "-//W3C//DTD SVG 1.1//EN"
 "http://www.w3.org/Graphics/SVG/1.1/DTD/svg11.dtd">
<!-- Generated by graphviz version 2.50.0 (20220203.2022)
 -->
<!-- Title: include/yaclib Pages: 1 -->
<svg width="256pt" height="399pt"
 viewBox="0.00 0.00 256.00 399.00" xmlns="http://www.w3.org/2000/svg" xmlns:xlink="http://www.w3.org/1999/xlink">
<g id="graph0" class="graph" transform="scale(1 1) rotate(0) translate(4 395)">
<title>include/yaclib</title>
<g id="clust1" class="cluster">
<title>clusterdir_d44c64559bbebec7f509842c48db8b23</title>
<g id="a_clust1"><a xlink:href="dir_d44c64559bbebec7f509842c48db8b23.html" target="_top" xlink:title="include">
<polygon fill="#edf0f7" stroke="#404040" stroke-dasharray="5,2" points="8,-8 8,-383 240,-383 240,-8 8,-8"/>
<text text-anchor="middle" x="124" y="-371" font-family="Helvetica,sans-Serif" font-size="10.00">include</text>
</a>
</g>
</g>
<g id="clust2" class="cluster">
<title>clusterdir_5202e9473254619c80971b7f5a23629e</title>
<g id="a_clust2"><a xlink:href="dir_5202e9473254619c80971b7f5a23629e.html" target="_top">
<polygon fill="#edf0f7" stroke="#404040" stroke-width="2" points="16,-16 16,-356 232,-356 232,-16 16,-16"/>
</a>
</g>
</g>
<!-- dir_5202e9473254619c80971b7f5a23629e -->
<g id="node1" class="node">
<title>dir_5202e9473254619c80971b7f5a23629e</title>
<text text-anchor="middle" x="197" y="-327.5" font-family="Helvetica,sans-Serif" font-size="10.00">yaclib</text>
</g>
<!-- dir_b9c60d6ac2345286a03f7e9bdef04560 -->
<g id="node2" class="node">
<title>dir_b9c60d6ac2345286a03f7e9bdef04560</title>
<g id="a_node2"><a xlink:href="dir_b9c60d6ac2345286a03f7e9bdef04560.html" target="_top" xlink:title="algo">
<polygon fill="#a2b4d6" stroke="#404040" points="78,-348 24,-348 24,-312 78,-312 78,-348"/>
<text text-anchor="middle" x="51" y="-327.5" font-family="Helvetica,sans-Serif" font-size="10.00">algo</text>
</a>
</g>
</g>
<!-- dir_4063a9e34a1302ac947dfe60cb383789 -->
<g id="node3" class="node">
<title>dir_4063a9e34a1302ac947dfe60cb383789</title>
<g id="a_node3"><a xlink:href="dir_4063a9e34a1302ac947dfe60cb383789.html" target="_top" xlink:title="async">
<polygon fill="#a2b4d6" stroke="#404040" points="135,-276 81,-276 81,-240 135,-240 135,-276"/>
<text text-anchor="middle" x="108" y="-255.5" font-family="Helvetica,sans-Serif" font-size="10.00">async</text>
</a>
</g>
</g>
<!-- dir_b9c60d6ac2345286a03f7e9bdef04560&#45;&gt;dir_4063a9e34a1302ac947dfe60cb383789 -->
<g id="edge1" class="edge">
<title>dir_b9c60d6ac2345286a03f7e9bdef04560&#45;&gt;dir_4063a9e34a1302ac947dfe60cb383789</title>
<path fill="none" stroke="black" d="M59.17,-311.7C65.2,-303.22 73.45,-292.86 81.51,-283.58"/>
<polygon fill="black" stroke="black" points="84.13,-285.9 88.18,-276.1 78.91,-281.24 84.13,-285.9"/>
<g id="a_edge1&#45;headlabel"><a xlink:href="dir_000000_000003.html" target="_top" xlink:title="12">
<text text-anchor="middle" x="83.86" y="-287.97" font-family="Helvetica,sans-Serif" font-size="10.00">12</text>
</a>
</g>
</g>
<!-- dir_fcdee66dcbfecc4f407f3eae0a061ebf -->
<g id="node6" class="node">
<title>dir_fcdee66dcbfecc4f407f3eae0a061ebf</title>
<g id="a_node6"><a xlink:href="dir_fcdee66dcbfecc4f407f3eae0a061ebf.html" target="_top" xlink:title="fault">
<polygon fill="#a2b4d6" stroke="#404040" points="118,-60 64,-60 64,-24 118,-24 118,-60"/>
<text text-anchor="middle" x="91" y="-39.5" font-family="Helvetica,sans-Serif" font-size="10.00">fault</text>
</a>
</g>
</g>
<!-- dir_b9c60d6ac2345286a03f7e9bdef04560&#45;&gt;dir_fcdee66dcbfecc4f407f3eae0a061ebf -->
<g id="edge3" class="edge">
<title>dir_b9c60d6ac2345286a03f7e9bdef04560&#45;&gt;dir_fcdee66dcbfecc4f407f3eae0a061ebf</title>
<path fill="none" stroke="black" d="M46.13,-311.98C43.44,-301.67 40.36,-288.19 39,-276 37.22,-260.1 38.56,-255.99 39,-240 39.89,-207.96 36.29,-199.34 43,-168 50.57,-132.68 66.63,-94.19 78.09,-69.39"/>
<polygon fill="black" stroke="black" points="81.29,-70.81 82.38,-60.27 74.95,-67.83 81.29,-70.81"/>
<g id="a_edge3&#45;headlabel"><a xlink:href="dir_000000_000023.html" target="_top" xlink:title="3">
<text text-anchor="middle" x="82.33" y="-72.77" font-family="Helvetica,sans-Serif" font-size="10.00">3</text>
</a>
</g>
</g>
<!-- dir_9463e03d191b6d61661112ff0fb64dc7 -->
<g id="node7" class="node">
<title>dir_9463e03d191b6d61661112ff0fb64dc7</title>
<g id="a_node7"><a xlink:href="dir_9463e03d191b6d61661112ff0fb64dc7.html" target="_top" xlink:title="util">
<polygon fill="#a2b4d6" stroke="#404040" points="141,-132 87,-132 87,-96 141,-96 141,-132"/>
<text text-anchor="middle" x="114" y="-111.5" font-family="Helvetica,sans-Serif" font-size="10.00">util</text>
</a>
</g>
</g>
<!-- dir_b9c60d6ac2345286a03f7e9bdef04560&#45;&gt;dir_9463e03d191b6d61661112ff0fb64dc7 -->
<g id="edge2" class="edge">
<title>dir_b9c60d6ac2345286a03f7e9bdef04560&#45;&gt;dir_9463e03d191b6d61661112ff0fb64dc7</title>
<path fill="none" stroke="black" d="M47.68,-311.57C42.69,-280.93 36.04,-216.1 58,-168 63.07,-156.89 71.65,-146.96 80.58,-138.79"/>
<polygon fill="black" stroke="black" points="83.11,-141.23 88.44,-132.07 78.57,-135.9 83.11,-141.23"/>
<g id="a_edge2&#45;headlabel"><a xlink:href="dir_000000_000035.html" target="_top" xlink:title="12">
<text text-anchor="middle" x="82.22" y="-143.22" font-family="Helvetica,sans-Serif" font-size="10.00">12</text>
</a>
</g>
</g>
<!-- dir_4063a9e34a1302ac947dfe60cb383789&#45;&gt;dir_b9c60d6ac2345286a03f7e9bdef04560 -->
<g id="edge7" class="edge">
<title>dir_4063a9e34a1302ac947dfe60cb383789&#45;&gt;dir_b9c60d6ac2345286a03f7e9bdef04560</title>
<path fill="none" stroke="black" d="M99.97,-276.1C93.97,-284.55 85.74,-294.9 77.68,-304.2"/>
<polygon fill="black" stroke="black" points="75.04,-301.9 71.01,-311.7 80.27,-306.56 75.04,-301.9"/>
<g id="a_edge7&#45;headlabel"><a xlink:href="dir_000003_000000.html" target="_top" xlink:title="1">
<text text-anchor="middle" x="75.31" y="-294.83" font-family="Helvetica,sans-Serif" font-size="10.00">1</text>
</a>
</g>
</g>
<!-- dir_f6a9384b5ccd990c15687caf98c8deaa -->
<g id="node5" class="node">
<title>dir_f6a9384b5ccd990c15687caf98c8deaa</title>
<g id="a_node5"><a xlink:href="dir_f6a9384b5ccd990c15687caf98c8deaa.html" target="_top" xlink:title="executor">
<polygon fill="#a2b4d6" stroke="#404040" points="121,-204 67,-204 67,-168 121,-168 121,-204"/>
<text text-anchor="middle" x="94" y="-183.5" font-family="Helvetica,sans-Serif" font-size="10.00">executor</text>
</a>
</g>
</g>
<!-- dir_4063a9e34a1302ac947dfe60cb383789&#45;&gt;dir_f6a9384b5ccd990c15687caf98c8deaa -->
<g id="edge5" class="edge">
<title>dir_4063a9e34a1302ac947dfe60cb383789&#45;&gt;dir_f6a9384b5ccd990c15687caf98c8deaa</title>
<path fill="none" stroke="black" d="M104.54,-239.7C103,-231.98 101.14,-222.71 99.42,-214.11"/>
<polygon fill="black" stroke="black" points="102.81,-213.22 97.42,-204.1 95.95,-214.6 102.81,-213.22"/>
<g id="a_edge5&#45;headlabel"><a xlink:href="dir_000003_000020.html" target="_top" xlink:title="6">
<text text-anchor="middle" x="106.3" y="-213.69" font-family="Helvetica,sans-Serif" font-size="10.00">6</text>
</a>
</g>
</g>
<!-- dir_4063a9e34a1302ac947dfe60cb383789&#45;&gt;dir_fcdee66dcbfecc4f407f3eae0a061ebf -->
<g id="edge6" class="edge">
<title>dir_4063a9e34a1302ac947dfe60cb383789&#45;&gt;dir_fcdee66dcbfecc4f407f3eae0a061ebf</title>
<path fill="none" stroke="black" d="M119.69,-239.93C138.75,-209.85 172.24,-145.86 150,-96 144.83,-84.41 135.73,-74.29 126.21,-66.09"/>
<polygon fill="black" stroke="black" points="128.17,-63.18 118.18,-59.66 123.8,-68.65 128.17,-63.18"/>
<g id="a_edge6&#45;headlabel"><a xlink:href="dir_000003_000023.html" target="_top" xlink:title="1">
<text text-anchor="middle" x="132.76" y="-60.71" font-family="Helvetica,sans-Serif" font-size="10.00">1</text>
</a>
</g>
</g>
<!-- dir_4063a9e34a1302ac947dfe60cb383789&#45;&gt;dir_9463e03d191b6d61661112ff0fb64dc7 -->
<g id="edge4" class="edge">
<title>dir_4063a9e34a1302ac947dfe60cb383789&#45;&gt;dir_9463e03d191b6d61661112ff0fb64dc7</title>
<path fill="none" stroke="black" d="M117.13,-239.88C122.01,-229.76 127.51,-216.51 130,-204 134.16,-183.15 129.44,-159.45 124.07,-141.76"/>
<polygon fill="black" stroke="black" points="127.34,-140.51 120.9,-132.1 120.69,-142.69 127.34,-140.51"/>
<g id="a_edge4&#45;headlabel"><a xlink:href="dir_000003_000035.html" target="_top" xlink:title="8">
<text text-anchor="middle" x="131.16" y="-140.54" font-family="Helvetica,sans-Serif" font-size="10.00">8</text>
</a>
</g>
</g>
<!-- dir_5492c40dfbc6782579416f5b6b340e12 -->
<g id="node4" class="node">
<title>dir_5492c40dfbc6782579416f5b6b340e12</title>
<g id="a_node4"><a xlink:href="dir_5492c40dfbc6782579416f5b6b340e12.html" target="_top" xlink:title="coroutine">
<polygon fill="#a2b4d6" stroke="#404040" points="152,-348 96,-348 96,-312 152,-312 152,-348"/>
<text text-anchor="middle" x="124" y="-327.5" font-family="Helvetica,sans-Serif" font-size="10.00">coroutine</text>
</a>
</g>
</g>
<!-- dir_5492c40dfbc6782579416f5b6b340e12&#45;&gt;dir_4063a9e34a1302ac947dfe60cb383789 -->
<g id="edge8" class="edge">
<title>dir_5492c40dfbc6782579416f5b6b340e12&#45;&gt;dir_4063a9e34a1302ac947dfe60cb383789</title>
<path fill="none" stroke="black" d="M120.04,-311.7C118.28,-303.98 116.16,-294.71 114.2,-286.11"/>
<polygon fill="black" stroke="black" points="117.55,-285.07 111.91,-276.1 110.73,-286.63 117.55,-285.07"/>
<g id="a_edge8&#45;headlabel"><a xlink:href="dir_000011_000003.html" target="_top" xlink:title="7">
<text text-anchor="middle" x="121.12" y="-285.44" font-family="Helvetica,sans-Serif" font-size="10.00">7</text>
</a>
</g>
</g>
<!-- dir_5492c40dfbc6782579416f5b6b340e12&#45;&gt;dir_9463e03d191b6d61661112ff0fb64dc7 -->
<g id="edge9" class="edge">
<title>dir_5492c40dfbc6782579416f5b6b340e12&#45;&gt;dir_9463e03d191b6d61661112ff0fb64dc7</title>
<path fill="none" stroke="black" d="M132.31,-311.79C136.74,-301.63 141.74,-288.38 144,-276 152.64,-228.62 146.95,-214.66 135,-168 132.74,-159.18 129.39,-149.85 126.03,-141.52"/>
<polygon fill="black" stroke="black" points="129.25,-140.15 122.14,-132.3 122.8,-142.87 129.25,-140.15"/>
<g id="a_edge9&#45;headlabel"><a xlink:href="dir_000011_000035.html" target="_top" xlink:title="8">
<text text-anchor="middle" x="133.26" y="-139.86" font-family="Helvetica,sans-Serif" font-size="10.00">8</text>
</a>
</g>
</g>
<!-- dir_f6a9384b5ccd990c15687caf98c8deaa&#45;&gt;dir_fcdee66dcbfecc4f407f3eae0a061ebf -->
<g id="edge11" class="edge">
<title>dir_f6a9384b5ccd990c15687caf98c8deaa&#45;&gt;dir_fcdee66dcbfecc4f407f3eae0a061ebf</title>
<path fill="none" stroke="black" d="M87.35,-167.63C83.8,-157.42 79.8,-144.17 78,-132 75.66,-116.17 76.08,-111.88 78,-96 79.02,-87.53 80.93,-78.47 82.98,-70.28"/>
<polygon fill="black" stroke="black" points="86.4,-71.03 85.59,-60.47 79.64,-69.23 86.4,-71.03"/>
<g id="a_edge11&#45;headlabel"><a xlink:href="dir_000020_000023.html" target="_top" xlink:title="1">
<text text-anchor="middle" x="88.22" y="-72.74" font-family="Helvetica,sans-Serif" font-size="10.00">1</text>
</a>
</g>
</g>
<!-- dir_f6a9384b5ccd990c15687caf98c8deaa&#45;&gt;dir_9463e03d191b6d61661112ff0fb64dc7 -->
<g id="edge10" class="edge">
<title>dir_f6a9384b5ccd990c15687caf98c8deaa&#45;&gt;dir_9463e03d191b6d61661112ff0fb64dc7</title>
<path fill="none" stroke="black" d="M98.94,-167.7C101.17,-159.9 103.85,-150.51 106.33,-141.83"/>
<polygon fill="black" stroke="black" points="109.73,-142.68 109.11,-132.1 103,-140.76 109.73,-142.68"/>
<g id="a_edge10&#45;headlabel"><a xlink:href="dir_000020_000035.html" target="_top" xlink:title="5">
<text text-anchor="middle" x="111.47" y="-144.42" font-family="Helvetica,sans-Serif" font-size="10.00">5</text>
</a>
</g>
</g>
<!-- dir_9463e03d191b6d61661112ff0fb64dc7&#45;&gt;dir_fcdee66dcbfecc4f407f3eae0a061ebf -->
<g id="edge12" class="edge">
<title>dir_9463e03d191b6d61661112ff0fb64dc7&#45;&gt;dir_fcdee66dcbfecc4f407f3eae0a061ebf</title>
<path fill="none" stroke="black" d="M108.31,-95.7C105.75,-87.9 102.67,-78.51 99.82,-69.83"/>
<polygon fill="black" stroke="black" points="103.07,-68.51 96.62,-60.1 96.42,-70.7 103.07,-68.51"/>
<g id="a_edge12&#45;headlabel"><a xlink:href="dir_000035_000023.html" target="_top" xlink:title="5">
<text text-anchor="middle" x="106.89" y="-68.54" font-family="Helvetica,sans-Serif" font-size="10.00">5</text>
</a>
</g>
</g>
</g>
</svg>
