<?xml version="1.0" encoding="UTF-8" standalone="no"?>
<!DOCTYPE svg PUBLIC "-//W3C//DTD SVG 1.1//EN"
 "http://www.w3.org/Graphics/SVG/1.1/DTD/svg11.dtd">
<!-- Generated by graphviz version 2.50.0 (20220203.2022)
 -->
<!-- Title: include/yaclib/async/detail Pages: 1 -->
<svg width="278pt" height="151pt"
 viewBox="0.00 0.00 278.00 151.00" xmlns="http://www.w3.org/2000/svg" xmlns:xlink="http://www.w3.org/1999/xlink">
<g id="graph0" class="graph" transform="scale(1 1) rotate(0) translate(4 147)">
<title>include/yaclib/async/detail</title>
<g id="clust1" class="cluster">
<title>clusterdir_4063a9e34a1302ac947dfe60cb383789</title>
<g id="a_clust1"><a xlink:href="dir_4063a9e34a1302ac947dfe60cb383789.html" target="_top" xlink:title="async">
<polygon fill="#edf0f7" stroke="#7f7f7f" stroke-dasharray="5,2" points="100,-64 100,-135 170,-135 170,-64 100,-64"/>
<text text-anchor="middle" x="135" y="-123" font-family="Helvetica,sans-Serif" font-size="10.00">async</text>
</a>
</g>
</g>
<!-- dir_96588bce79aa7594b5dbc1ba98c8d3ae -->
<g id="node1" class="node">
<title>dir_96588bce79aa7594b5dbc1ba98c8d3ae</title>
<g id="a_node1"><a xlink:href="dir_96588bce79aa7594b5dbc1ba98c8d3ae.html" target="_top" xlink:title="detail">
<polygon fill="#edf0f7" stroke="#404040" stroke-width="2" points="162,-108 108,-108 108,-72 162,-72 162,-108"/>
<text text-anchor="middle" x="135" y="-87.5" font-family="Helvetica,sans-Serif" font-size="10.00">detail</text>
</a>
</g>
</g>
<!-- dir_9463e03d191b6d61661112ff0fb64dc7 -->
<g id="node2" class="node">
<title>dir_9463e03d191b6d61661112ff0fb64dc7</title>
<g id="a_node2"><a xlink:href="dir_9463e03d191b6d61661112ff0fb64dc7.html" target="_top" xlink:title="util">
<polygon fill="none" stroke="red" stroke-dasharray="5,2" points="54,-36 0,-36 0,0 54,0 54,-36"/>
<text text-anchor="middle" x="27" y="-15.5" font-family="Helvetica,sans-Serif" font-size="10.00">util</text>
</a>
</g>
</g>
<!-- dir_96588bce79aa7594b5dbc1ba98c8d3ae&#45;&gt;dir_9463e03d191b6d61661112ff0fb64dc7 -->
<g id="edge1" class="edge">
<title>dir_96588bce79aa7594b5dbc1ba98c8d3ae&#45;&gt;dir_9463e03d191b6d61661112ff0fb64dc7</title>
<path fill="none" stroke="black" d="M108.58,-71.88C94.59,-62.81 77.22,-51.55 62.11,-41.76"/>
<polygon fill="black" stroke="black" points="63.82,-38.69 53.52,-36.19 60.01,-44.57 63.82,-38.69"/>
<g id="a_edge1&#45;headlabel"><a xlink:href="dir_000013_000035.html" target="_top" xlink:title="5">
<text text-anchor="middle" x="68.38" y="-35.76" font-family="Helvetica,sans-Serif" font-size="10.00">5</text>
</a>
</g>
</g>
<!-- dir_b9c60d6ac2345286a03f7e9bdef04560 -->
<g id="node3" class="node">
<title>dir_b9c60d6ac2345286a03f7e9bdef04560</title>
<g id="a_node3"><a xlink:href="dir_b9c60d6ac2345286a03f7e9bdef04560.html" target="_top" xlink:title="algo">
<polygon fill="none" stroke="red" stroke-dasharray="5,2" points="126,-36 72,-36 72,0 126,0 126,-36"/>
<text text-anchor="middle" x="99" y="-15.5" font-family="Helvetica,sans-Serif" font-size="10.00">algo</text>
</a>
</g>
</g>
<!-- dir_96588bce79aa7594b5dbc1ba98c8d3ae&#45;&gt;dir_b9c60d6ac2345286a03f7e9bdef04560 -->
<g id="edge2" class="edge">
<title>dir_96588bce79aa7594b5dbc1ba98c8d3ae&#45;&gt;dir_b9c60d6ac2345286a03f7e9bdef04560</title>
<path fill="none" stroke="black" d="M126.1,-71.7C122,-63.73 117.05,-54.1 112.51,-45.26"/>
<polygon fill="black" stroke="black" points="115.48,-43.4 107.8,-36.1 109.26,-46.6 115.48,-43.4"/>
<g id="a_edge2&#45;headlabel"><a xlink:href="dir_000013_000000.html" target="_top" xlink:title="1">
<text text-anchor="middle" x="119.65" y="-42.79" font-family="Helvetica,sans-Serif" font-size="10.00">1</text>
</a>
</g>
</g>
<!-- dir_f6a9384b5ccd990c15687caf98c8deaa -->
<g id="node4" class="node">
<title>dir_f6a9384b5ccd990c15687caf98c8deaa</title>
<g id="a_node4"><a xlink:href="dir_f6a9384b5ccd990c15687caf98c8deaa.html" target="_top" xlink:title="executor">
<polygon fill="none" stroke="red" stroke-dasharray="5,2" points="198,-36 144,-36 144,0 198,0 198,-36"/>
<text text-anchor="middle" x="171" y="-15.5" font-family="Helvetica,sans-Serif" font-size="10.00">executor</text>
</a>
</g>
</g>
<!-- dir_96588bce79aa7594b5dbc1ba98c8d3ae&#45;&gt;dir_f6a9384b5ccd990c15687caf98c8deaa -->
<g id="edge3" class="edge">
<title>dir_96588bce79aa7594b5dbc1ba98c8d3ae&#45;&gt;dir_f6a9384b5ccd990c15687caf98c8deaa</title>
<path fill="none" stroke="black" d="M143.9,-71.7C148,-63.73 152.95,-54.1 157.49,-45.26"/>
<polygon fill="black" stroke="black" points="160.74,-46.6 162.2,-36.1 154.52,-43.4 160.74,-46.6"/>
<g id="a_edge3&#45;headlabel"><a xlink:href="dir_000013_000020.html" target="_top" xlink:title="4">
<text text-anchor="middle" x="161.62" y="-48.59" font-family="Helvetica,sans-Serif" font-size="10.00">4</text>
</a>
</g>
</g>
<!-- dir_fcdee66dcbfecc4f407f3eae0a061ebf -->
<g id="node5" class="node">
<title>dir_fcdee66dcbfecc4f407f3eae0a061ebf</title>
<g id="a_node5"><a xlink:href="dir_fcdee66dcbfecc4f407f3eae0a061ebf.html" target="_top" xlink:title="fault">
<polygon fill="none" stroke="red" stroke-dasharray="5,2" points="270,-36 216,-36 216,0 270,0 270,-36"/>
<text text-anchor="middle" x="243" y="-15.5" font-family="Helvetica,sans-Serif" font-size="10.00">fault</text>
</a>
</g>
</g>
<!-- dir_96588bce79aa7594b5dbc1ba98c8d3ae&#45;&gt;dir_fcdee66dcbfecc4f407f3eae0a061ebf -->
<g id="edge4" class="edge">
<title>dir_96588bce79aa7594b5dbc1ba98c8d3ae&#45;&gt;dir_fcdee66dcbfecc4f407f3eae0a061ebf</title>
<path fill="none" stroke="black" d="M161.42,-71.88C175.41,-62.81 192.78,-51.55 207.89,-41.76"/>
<polygon fill="black" stroke="black" points="209.99,-44.57 216.48,-36.19 206.18,-38.69 209.99,-44.57"/>
<g id="a_edge4&#45;headlabel"><a xlink:href="dir_000013_000023.html" target="_top" xlink:title="1">
<text text-anchor="middle" x="208.52" y="-46.4" font-family="Helvetica,sans-Serif" font-size="10.00">1</text>
</a>
</g>
</g>
</g>
</svg>
