<?xml version="1.0" encoding="UTF-8" standalone="no"?>
<!DOCTYPE svg PUBLIC "-//W3C//DTD SVG 1.1//EN"
 "http://www.w3.org/Graphics/SVG/1.1/DTD/svg11.dtd">
<!-- Generated by graphviz version 2.50.0 (20220203.2022)
 -->
<!-- Title: include/yaclib/async Pages: 1 -->
<svg width="310pt" height="247pt"
 viewBox="0.00 0.00 310.00 247.00" xmlns="http://www.w3.org/2000/svg" xmlns:xlink="http://www.w3.org/1999/xlink">
<g id="graph0" class="graph" transform="scale(1 1) rotate(0) translate(4 243)">
<title>include/yaclib/async</title>
<g id="clust1" class="cluster">
<title>clusterdir_5202e9473254619c80971b7f5a23629e</title>
<g id="a_clust1"><a xlink:href="dir_5202e9473254619c80971b7f5a23629e.html" target="_top" xlink:title="yaclib">
<polygon fill="#edf0f7" stroke="#7f7f7f" stroke-dasharray="5,2" points="8,-8 8,-231 294,-231 294,-8 8,-8"/>
<text text-anchor="middle" x="151" y="-219" font-family="Helvetica,sans-Serif" font-size="10.00">yaclib</text>
</a>
</g>
</g>
<g id="clust2" class="cluster">
<title>clusterdir_4063a9e34a1302ac947dfe60cb383789</title>
<g id="a_clust2"><a xlink:href="dir_4063a9e34a1302ac947dfe60cb383789.html" target="_top">
<polygon fill="#edf0f7" stroke="#404040" stroke-width="2" points="119,-80 119,-204 189,-204 189,-80 119,-80"/>
</a>
</g>
</g>
<!-- dir_9463e03d191b6d61661112ff0fb64dc7 -->
<g id="node1" class="node">
<title>dir_9463e03d191b6d61661112ff0fb64dc7</title>
<g id="a_node1"><a xlink:href="dir_9463e03d191b6d61661112ff0fb64dc7.html" target="_top" xlink:title="util">
<polygon fill="#a2b4d6" stroke="red" points="214,-52 160,-52 160,-16 214,-16 214,-52"/>
<text text-anchor="middle" x="187" y="-31.5" font-family="Helvetica,sans-Serif" font-size="10.00">util</text>
</a>
</g>
</g>
<!-- dir_f6a9384b5ccd990c15687caf98c8deaa -->
<g id="node2" class="node">
<title>dir_f6a9384b5ccd990c15687caf98c8deaa</title>
<g id="a_node2"><a xlink:href="dir_f6a9384b5ccd990c15687caf98c8deaa.html" target="_top" xlink:title="executor">
<polygon fill="#a2b4d6" stroke="red" points="286,-52 232,-52 232,-16 286,-16 286,-52"/>
<text text-anchor="middle" x="259" y="-31.5" font-family="Helvetica,sans-Serif" font-size="10.00">executor</text>
</a>
</g>
</g>
<!-- dir_fcdee66dcbfecc4f407f3eae0a061ebf -->
<g id="node3" class="node">
<title>dir_fcdee66dcbfecc4f407f3eae0a061ebf</title>
<g id="a_node3"><a xlink:href="dir_fcdee66dcbfecc4f407f3eae0a061ebf.html" target="_top" xlink:title="fault">
<polygon fill="#a2b4d6" stroke="red" points="70,-52 16,-52 16,-16 70,-16 70,-52"/>
<text text-anchor="middle" x="43" y="-31.5" font-family="Helvetica,sans-Serif" font-size="10.00">fault</text>
</a>
</g>
</g>
<!-- dir_b9c60d6ac2345286a03f7e9bdef04560 -->
<g id="node4" class="node">
<title>dir_b9c60d6ac2345286a03f7e9bdef04560</title>
<g id="a_node4"><a xlink:href="dir_b9c60d6ac2345286a03f7e9bdef04560.html" target="_top" xlink:title="algo">
<polygon fill="#a2b4d6" stroke="red" points="142,-52 88,-52 88,-16 142,-16 142,-52"/>
<text text-anchor="middle" x="115" y="-31.5" font-family="Helvetica,sans-Serif" font-size="10.00">algo</text>
</a>
</g>
</g>
<!-- dir_4063a9e34a1302ac947dfe60cb383789 -->
<g id="node5" class="node">
<title>dir_4063a9e34a1302ac947dfe60cb383789</title>
<text text-anchor="middle" x="154" y="-175.5" font-family="Helvetica,sans-Serif" font-size="10.00">async</text>
</g>
<!-- dir_4063a9e34a1302ac947dfe60cb383789&#45;&gt;dir_9463e03d191b6d61661112ff0fb64dc7 -->
<g id="edge1" class="edge">
<title>dir_4063a9e34a1302ac947dfe60cb383789&#45;&gt;dir_9463e03d191b6d61661112ff0fb64dc7</title>
<path fill="none" stroke="black" d="M169.61,-159.77C177.37,-150.03 185.95,-137.18 190,-124 196.16,-103.96 194.95,-80.17 192.45,-62.24"/>
<polygon fill="black" stroke="black" points="195.88,-61.48 190.83,-52.17 188.97,-62.6 195.88,-61.48"/>
<g id="a_edge1&#45;headlabel"><a xlink:href="dir_000003_000035.html" target="_top" xlink:title="8">
<text text-anchor="middle" x="199.25" y="-62.08" font-family="Helvetica,sans-Serif" font-size="10.00">8</text>
</a>
</g>
</g>
<!-- dir_4063a9e34a1302ac947dfe60cb383789&#45;&gt;dir_f6a9384b5ccd990c15687caf98c8deaa -->
<g id="edge3" class="edge">
<title>dir_4063a9e34a1302ac947dfe60cb383789&#45;&gt;dir_f6a9384b5ccd990c15687caf98c8deaa</title>
<path fill="none" stroke="black" d="M168.66,-159.59C177.13,-149.37 187.88,-136.12 197,-124 212.62,-103.24 229.41,-79.01 241.57,-61.08"/>
<polygon fill="black" stroke="black" points="244.79,-62.57 247.48,-52.33 238.98,-58.66 244.79,-62.57"/>
<g id="a_edge3&#45;headlabel"><a xlink:href="dir_000003_000020.html" target="_top" xlink:title="6">
<text text-anchor="middle" x="245.13" y="-64.64" font-family="Helvetica,sans-Serif" font-size="10.00">6</text>
</a>
</g>
</g>
<!-- dir_96588bce79aa7594b5dbc1ba98c8d3ae -->
<g id="node6" class="node">
<title>dir_96588bce79aa7594b5dbc1ba98c8d3ae</title>
<g id="a_node6"><a xlink:href="dir_96588bce79aa7594b5dbc1ba98c8d3ae.html" target="_top" xlink:title="detail">
<polygon fill="#a2b4d6" stroke="#404040" points="181,-124 127,-124 127,-88 181,-88 181,-124"/>
<text text-anchor="middle" x="154" y="-103.5" font-family="Helvetica,sans-Serif" font-size="10.00">detail</text>
</a>
</g>
</g>
<!-- dir_4063a9e34a1302ac947dfe60cb383789&#45;&gt;dir_96588bce79aa7594b5dbc1ba98c8d3ae -->
<g id="edge2" class="edge">
<title>dir_4063a9e34a1302ac947dfe60cb383789&#45;&gt;dir_96588bce79aa7594b5dbc1ba98c8d3ae</title>
<path fill="none" stroke="black" d="M154,-159.7C154,-151.98 154,-142.71 154,-134.11"/>
<polygon fill="black" stroke="black" points="157.5,-134.1 154,-124.1 150.5,-134.1 157.5,-134.1"/>
<g id="a_edge2&#45;headlabel"><a xlink:href="dir_000003_000013.html" target="_top" xlink:title="5">
<text text-anchor="middle" x="160.34" y="-135.2" font-family="Helvetica,sans-Serif" font-size="10.00">5</text>
</a>
</g>
</g>
<!-- dir_96588bce79aa7594b5dbc1ba98c8d3ae&#45;&gt;dir_9463e03d191b6d61661112ff0fb64dc7 -->
<g id="edge4" class="edge">
<title>dir_96588bce79aa7594b5dbc1ba98c8d3ae&#45;&gt;dir_9463e03d191b6d61661112ff0fb64dc7</title>
<path fill="none" stroke="black" d="M162.16,-87.7C165.91,-79.73 170.45,-70.1 174.62,-61.26"/>
<polygon fill="black" stroke="black" points="177.84,-62.64 178.94,-52.1 171.51,-59.66 177.84,-62.64"/>
<g id="a_edge4&#45;headlabel"><a xlink:href="dir_000013_000035.html" target="_top" xlink:title="5">
<text text-anchor="middle" x="178.87" y="-64.6" font-family="Helvetica,sans-Serif" font-size="10.00">5</text>
</a>
</g>
</g>
<!-- dir_96588bce79aa7594b5dbc1ba98c8d3ae&#45;&gt;dir_f6a9384b5ccd990c15687caf98c8deaa -->
<g id="edge6" class="edge">
<title>dir_96588bce79aa7594b5dbc1ba98c8d3ae&#45;&gt;dir_f6a9384b5ccd990c15687caf98c8deaa</title>
<path fill="none" stroke="black" d="M174.38,-87.93C177.87,-85.2 181.49,-82.46 185,-80 197.08,-71.51 210.77,-62.92 223.07,-55.55"/>
<polygon fill="black" stroke="black" points="224.92,-58.52 231.74,-50.41 221.35,-52.5 224.92,-58.52"/>
<g id="a_edge6&#45;headlabel"><a xlink:href="dir_000013_000020.html" target="_top" xlink:title="4">
<text text-anchor="middle" x="223.27" y="-60.3" font-family="Helvetica,sans-Serif" font-size="10.00">4</text>
</a>
</g>
</g>
<!-- dir_96588bce79aa7594b5dbc1ba98c8d3ae&#45;&gt;dir_fcdee66dcbfecc4f407f3eae0a061ebf -->
<g id="edge7" class="edge">
<title>dir_96588bce79aa7594b5dbc1ba98c8d3ae&#45;&gt;dir_fcdee66dcbfecc4f407f3eae0a061ebf</title>
<path fill="none" stroke="black" d="M126.85,-87.88C112.47,-78.81 94.62,-67.55 79.09,-57.76"/>
<polygon fill="black" stroke="black" points="80.58,-54.56 70.26,-52.19 76.85,-60.48 80.58,-54.56"/>
<g id="a_edge7&#45;headlabel"><a xlink:href="dir_000013_000023.html" target="_top" xlink:title="1">
<text text-anchor="middle" x="85.14" y="-51.58" font-family="Helvetica,sans-Serif" font-size="10.00">1</text>
</a>
</g>
</g>
<!-- dir_96588bce79aa7594b5dbc1ba98c8d3ae&#45;&gt;dir_b9c60d6ac2345286a03f7e9bdef04560 -->
<g id="edge5" class="edge">
<title>dir_96588bce79aa7594b5dbc1ba98c8d3ae&#45;&gt;dir_b9c60d6ac2345286a03f7e9bdef04560</title>
<path fill="none" stroke="black" d="M144.36,-87.7C139.87,-79.64 134.44,-69.89 129.48,-60.98"/>
<polygon fill="black" stroke="black" points="132.45,-59.14 124.53,-52.1 126.34,-62.54 132.45,-59.14"/>
<g id="a_edge5&#45;headlabel"><a xlink:href="dir_000013_000000.html" target="_top" xlink:title="1">
<text text-anchor="middle" x="136.68" y="-58.39" font-family="Helvetica,sans-Serif" font-size="10.00">1</text>
</a>
</g>
</g>
</g>
</svg>
