<?xml version="1.0" encoding="UTF-8" standalone="no"?>
<!DOCTYPE svg PUBLIC "-//W3C//DTD SVG 1.1//EN"
 "http://www.w3.org/Graphics/SVG/1.1/DTD/svg11.dtd">
<!-- Generated by graphviz version 2.50.0 (20220203.2022)
 -->
<!-- Title: include/yaclib/util/detail/event_deleter.hpp Pages: 1 -->
<svg width="1684pt" height="508pt"
 viewBox="0.00 0.00 1683.50 508.00" xmlns="http://www.w3.org/2000/svg" xmlns:xlink="http://www.w3.org/1999/xlink">
<g id="graph0" class="graph" transform="scale(1 1) rotate(0) translate(4 504)">
<title>include/yaclib/util/detail/event_deleter.hpp</title>
<!-- Node1 -->
<g id="node1" class="node">
<title>Node1</title>
<g id="a_node1"><a xlink:title=" ">
<polygon fill="#bfbfbf" stroke="black" points="646,-469.5 646,-499.5 768,-499.5 768,-469.5 646,-469.5"/>
<text text-anchor="start" x="654" y="-487.5" font-family="Helvetica,sans-Serif" font-size="10.00">include/yaclib/util</text>
<text text-anchor="middle" x="707" y="-476.5" font-family="Helvetica,sans-Serif" font-size="10.00">/detail/event_deleter.hpp</text>
</a>
</g>
</g>
<!-- Node2 -->
<g id="node2" class="node">
<title>Node2</title>
<g id="a_node2"><a xlink:href="wait__impl_8hpp.html" target="_top" xlink:title=" ">
<polygon fill="none" stroke="black" points="532.5,-402.5 532.5,-432.5 637.5,-432.5 637.5,-402.5 532.5,-402.5"/>
<text text-anchor="start" x="540.5" y="-420.5" font-family="Helvetica,sans-Serif" font-size="10.00">include/yaclib/algo</text>
<text text-anchor="middle" x="585" y="-409.5" font-family="Helvetica,sans-Serif" font-size="10.00">/detail/wait_impl.hpp</text>
</a>
</g>
</g>
<!-- Node1&#45;&gt;Node2 -->
<g id="edge1" class="edge">
<title>Node1&#45;&gt;Node2</title>
<path fill="none" stroke="midnightblue" d="M671.48,-464.57C652.29,-454.35 629,-441.94 611.42,-432.58"/>
<polygon fill="midnightblue" stroke="midnightblue" points="670.06,-467.78 680.53,-469.4 673.35,-461.6 670.06,-467.78"/>
</g>
<!-- Node14 -->
<g id="node14" class="node">
<title>Node14</title>
<g id="a_node14"><a xlink:href="wait__group_8hpp.html" target="_top" xlink:title=" ">
<polygon fill="none" stroke="black" points="1568,-134.5 1568,-164.5 1664,-164.5 1664,-134.5 1568,-134.5"/>
<text text-anchor="start" x="1576" y="-152.5" font-family="Helvetica,sans-Serif" font-size="10.00">include/yaclib/algo</text>
<text text-anchor="middle" x="1616" y="-141.5" font-family="Helvetica,sans-Serif" font-size="10.00">/wait_group.hpp</text>
</a>
</g>
</g>
<!-- Node1&#45;&gt;Node14 -->
<g id="edge41" class="edge">
<title>Node1&#45;&gt;Node14</title>
<path fill="none" stroke="midnightblue" d="M778.15,-482.66C936.87,-478.85 1306,-458.5 1306,-351.5 1306,-351.5 1306,-351.5 1306,-282.5 1306,-226.27 1480.83,-180.05 1567.9,-160.52"/>
<polygon fill="midnightblue" stroke="midnightblue" points="777.93,-479.16 768.01,-482.88 778.09,-486.16 777.93,-479.16"/>
</g>
<!-- Node3 -->
<g id="node3" class="node">
<title>Node3</title>
<g id="a_node3"><a xlink:href="wait_8hpp.html" target="_top" xlink:title=" ">
<polygon fill="none" stroke="black" points="713,-335.5 713,-365.5 809,-365.5 809,-335.5 713,-335.5"/>
<text text-anchor="start" x="721" y="-353.5" font-family="Helvetica,sans-Serif" font-size="10.00">include/yaclib/algo</text>
<text text-anchor="middle" x="761" y="-342.5" font-family="Helvetica,sans-Serif" font-size="10.00">/wait.hpp</text>
</a>
</g>
</g>
<!-- Node2&#45;&gt;Node3 -->
<g id="edge2" class="edge">
<title>Node2&#45;&gt;Node3</title>
<path fill="none" stroke="midnightblue" d="M632.88,-398.82C661.17,-388.37 696.49,-375.32 722.89,-365.58"/>
<polygon fill="midnightblue" stroke="midnightblue" points="631.36,-395.65 623.19,-402.4 633.78,-402.21 631.36,-395.65"/>
</g>
<!-- Node13 -->
<g id="node13" class="node">
<title>Node13</title>
<g id="a_node13"><a xlink:href="wait__for_8hpp.html" target="_top" xlink:title=" ">
<polygon fill="none" stroke="black" points="114,-134.5 114,-164.5 210,-164.5 210,-134.5 114,-134.5"/>
<text text-anchor="start" x="122" y="-152.5" font-family="Helvetica,sans-Serif" font-size="10.00">include/yaclib/algo</text>
<text text-anchor="middle" x="162" y="-141.5" font-family="Helvetica,sans-Serif" font-size="10.00">/wait_for.hpp</text>
</a>
</g>
</g>
<!-- Node2&#45;&gt;Node13 -->
<g id="edge38" class="edge">
<title>Node2&#45;&gt;Node13</title>
<path fill="none" stroke="midnightblue" d="M584.52,-392.36C582.98,-374.69 578.3,-351.08 565,-335 515.96,-275.71 297.57,-196.45 204.38,-164.61"/>
<polygon fill="midnightblue" stroke="midnightblue" points="581.03,-392.7 585.12,-402.48 588.02,-392.29 581.03,-392.7"/>
</g>
<!-- Node16 -->
<g id="node16" class="node">
<title>Node16</title>
<g id="a_node16"><a xlink:href="wait__until_8hpp.html" target="_top" xlink:title=" ">
<polygon fill="none" stroke="black" points="0,-134.5 0,-164.5 96,-164.5 96,-134.5 0,-134.5"/>
<text text-anchor="start" x="8" y="-152.5" font-family="Helvetica,sans-Serif" font-size="10.00">include/yaclib/algo</text>
<text text-anchor="middle" x="48" y="-141.5" font-family="Helvetica,sans-Serif" font-size="10.00">/wait_until.hpp</text>
</a>
</g>
</g>
<!-- Node2&#45;&gt;Node16 -->
<g id="edge39" class="edge">
<title>Node2&#45;&gt;Node16</title>
<path fill="none" stroke="midnightblue" d="M525.77,-399.5C497.51,-390.69 463.52,-379.04 434,-366 289.38,-302.11 127.56,-201.5 69.87,-164.64"/>
<polygon fill="midnightblue" stroke="midnightblue" points="524.92,-402.9 535.5,-402.5 526.97,-396.21 524.92,-402.9"/>
</g>
<!-- Node26 -->
<g id="node26" class="node">
<title>Node26</title>
<g id="a_node26"><a xlink:href="wait__impl_8cpp.html" target="_top" xlink:title=" ">
<polygon fill="none" stroke="black" points="443.5,-341 443.5,-360 556.5,-360 556.5,-341 443.5,-341"/>
<text text-anchor="middle" x="500" y="-348" font-family="Helvetica,sans-Serif" font-size="10.00">src/algo/wait_impl.cpp</text>
</a>
</g>
</g>
<!-- Node2&#45;&gt;Node26 -->
<g id="edge40" class="edge">
<title>Node2&#45;&gt;Node26</title>
<path fill="none" stroke="midnightblue" d="M558.2,-396.01C542.42,-383.94 523.28,-369.3 511.37,-360.19"/>
<polygon fill="midnightblue" stroke="midnightblue" points="556.49,-399.1 566.56,-402.4 560.74,-393.54 556.49,-399.1"/>
</g>
<!-- Node4 -->
<g id="node4" class="node">
<title>Node4</title>
<g id="a_node4"><a xlink:href="future__impl_8hpp.html" target="_top" xlink:title=" ">
<polygon fill="none" stroke="black" points="789,-268.5 789,-298.5 901,-298.5 901,-268.5 789,-268.5"/>
<text text-anchor="start" x="797" y="-286.5" font-family="Helvetica,sans-Serif" font-size="10.00">include/yaclib/async</text>
<text text-anchor="middle" x="845" y="-275.5" font-family="Helvetica,sans-Serif" font-size="10.00">/detail/future_impl.hpp</text>
</a>
</g>
</g>
<!-- Node3&#45;&gt;Node4 -->
<g id="edge3" class="edge">
<title>Node3&#45;&gt;Node4</title>
<path fill="none" stroke="midnightblue" d="M787.28,-329.17C800.12,-319.23 815.26,-307.51 826.81,-298.58"/>
<polygon fill="midnightblue" stroke="midnightblue" points="784.99,-326.51 779.23,-335.4 789.28,-332.04 784.99,-326.51"/>
</g>
<!-- Node5 -->
<g id="node5" class="node">
<title>Node5</title>
<g id="a_node5"><a xlink:href="future_8hpp.html" target="_top" xlink:title=" ">
<polygon fill="none" stroke="black" points="793,-201.5 793,-231.5 897,-231.5 897,-201.5 793,-201.5"/>
<text text-anchor="start" x="801" y="-219.5" font-family="Helvetica,sans-Serif" font-size="10.00">include/yaclib/async</text>
<text text-anchor="middle" x="845" y="-208.5" font-family="Helvetica,sans-Serif" font-size="10.00">/future.hpp</text>
</a>
</g>
</g>
<!-- Node4&#45;&gt;Node5 -->
<g id="edge4" class="edge">
<title>Node4&#45;&gt;Node5</title>
<path fill="none" stroke="midnightblue" d="M845,-258.11C845,-249.15 845,-239.32 845,-231.58"/>
<polygon fill="midnightblue" stroke="midnightblue" points="841.5,-258.4 845,-268.4 848.5,-258.4 841.5,-258.4"/>
</g>
<!-- Node5&#45;&gt;Node3 -->
<g id="edge14" class="edge">
<title>Node5&#45;&gt;Node3</title>
<path fill="none" stroke="midnightblue" d="M810.73,-237.4C799.41,-245.54 787.74,-255.92 780,-268 766.6,-288.92 762.62,-318.26 761.46,-335.43"/>
<polygon fill="midnightblue" stroke="midnightblue" points="812.94,-240.13 819.25,-231.61 809.01,-234.33 812.94,-240.13"/>
</g>
<!-- Node6 -->
<g id="node6" class="node">
<title>Node6</title>
<g id="a_node6"><a xlink:href="when__all__impl_8hpp.html" target="_top" xlink:title=" ">
<polygon fill="none" stroke="black" points="544.5,-134.5 544.5,-164.5 669.5,-164.5 669.5,-134.5 544.5,-134.5"/>
<text text-anchor="start" x="552.5" y="-152.5" font-family="Helvetica,sans-Serif" font-size="10.00">include/yaclib/algo</text>
<text text-anchor="middle" x="607" y="-141.5" font-family="Helvetica,sans-Serif" font-size="10.00">/detail/when_all_impl.hpp</text>
</a>
</g>
</g>
<!-- Node5&#45;&gt;Node6 -->
<g id="edge5" class="edge">
<title>Node5&#45;&gt;Node6</title>
<path fill="none" stroke="midnightblue" d="M783.54,-198.71C744.81,-188.14 695.37,-174.63 658.67,-164.61"/>
<polygon fill="midnightblue" stroke="midnightblue" points="783.08,-202.22 793.65,-201.48 784.93,-195.46 783.08,-202.22"/>
</g>
<!-- Node7 -->
<g id="node7" class="node">
<title>Node7</title>
<g id="a_node7"><a xlink:href="when__all_8hpp.html" target="_top" xlink:title=" ">
<polygon fill="none" stroke="black" points="605,-67.5 605,-97.5 701,-97.5 701,-67.5 605,-67.5"/>
<text text-anchor="start" x="613" y="-85.5" font-family="Helvetica,sans-Serif" font-size="10.00">include/yaclib/algo</text>
<text text-anchor="middle" x="653" y="-74.5" font-family="Helvetica,sans-Serif" font-size="10.00">/when_all.hpp</text>
</a>
</g>
</g>
<!-- Node5&#45;&gt;Node7 -->
<g id="edge19" class="edge">
<title>Node5&#45;&gt;Node7</title>
<path fill="none" stroke="midnightblue" d="M783.21,-198.55C761,-190.61 736.61,-179.61 717,-165 692.04,-146.4 671.59,-115.72 660.95,-97.78"/>
<polygon fill="midnightblue" stroke="midnightblue" points="782.31,-201.94 792.91,-201.88 784.58,-195.32 782.31,-201.94"/>
</g>
<!-- Node9 -->
<g id="node9" class="node">
<title>Node9</title>
<g id="a_node9"><a xlink:href="when__any__impl_8hpp.html" target="_top" xlink:title=" ">
<polygon fill="none" stroke="black" points="228.5,-134.5 228.5,-164.5 359.5,-164.5 359.5,-134.5 228.5,-134.5"/>
<text text-anchor="start" x="236.5" y="-152.5" font-family="Helvetica,sans-Serif" font-size="10.00">include/yaclib/algo</text>
<text text-anchor="middle" x="294" y="-141.5" font-family="Helvetica,sans-Serif" font-size="10.00">/detail/when_any_impl.hpp</text>
</a>
</g>
</g>
<!-- Node5&#45;&gt;Node9 -->
<g id="edge8" class="edge">
<title>Node5&#45;&gt;Node9</title>
<path fill="none" stroke="midnightblue" d="M782.86,-210.28C692.58,-202.38 519.98,-186.03 374,-165 369.39,-164.34 364.64,-163.6 359.86,-162.83"/>
<polygon fill="midnightblue" stroke="midnightblue" points="782.66,-213.78 792.92,-211.16 783.26,-206.81 782.66,-213.78"/>
</g>
<!-- Node10 -->
<g id="node10" class="node">
<title>Node10</title>
<g id="a_node10"><a xlink:href="when__any_8hpp.html" target="_top" xlink:title=" ">
<polygon fill="none" stroke="black" points="382,-67.5 382,-97.5 478,-97.5 478,-67.5 382,-67.5"/>
<text text-anchor="start" x="390" y="-85.5" font-family="Helvetica,sans-Serif" font-size="10.00">include/yaclib/algo</text>
<text text-anchor="middle" x="430" y="-74.5" font-family="Helvetica,sans-Serif" font-size="10.00">/when_any.hpp</text>
</a>
</g>
</g>
<!-- Node5&#45;&gt;Node10 -->
<g id="edge20" class="edge">
<title>Node5&#45;&gt;Node10</title>
<path fill="none" stroke="midnightblue" d="M782.81,-212.83C667.87,-207.26 431.57,-192.56 407,-165 390.08,-146.01 406.53,-115.47 418.98,-97.66"/>
<polygon fill="midnightblue" stroke="midnightblue" points="782.72,-216.33 792.88,-213.31 783.06,-209.34 782.72,-216.33"/>
</g>
<!-- Node12 -->
<g id="node12" class="node">
<title>Node12</title>
<g id="a_node12"><a xlink:href="when__impl_8hpp.html" target="_top" xlink:title=" ">
<polygon fill="none" stroke="black" points="416,-134.5 416,-164.5 526,-164.5 526,-134.5 416,-134.5"/>
<text text-anchor="start" x="424" y="-152.5" font-family="Helvetica,sans-Serif" font-size="10.00">include/yaclib/algo</text>
<text text-anchor="middle" x="471" y="-141.5" font-family="Helvetica,sans-Serif" font-size="10.00">/detail/when_impl.hpp</text>
</a>
</g>
</g>
<!-- Node5&#45;&gt;Node12 -->
<g id="edge11" class="edge">
<title>Node5&#45;&gt;Node12</title>
<path fill="none" stroke="midnightblue" d="M782.87,-206.52C720.14,-197.19 620.56,-181.65 535,-165 532.09,-164.43 529.12,-163.83 526.11,-163.21"/>
<polygon fill="midnightblue" stroke="midnightblue" points="782.59,-210.02 792.99,-208.02 783.61,-203.1 782.59,-210.02"/>
</g>
<!-- Node5&#45;&gt;Node13 -->
<g id="edge15" class="edge">
<title>Node5&#45;&gt;Node13</title>
<path fill="none" stroke="midnightblue" d="M782.27,-211.79C645.91,-203.5 326.18,-182.83 219,-165 216.08,-164.51 213.09,-163.95 210.08,-163.34"/>
<polygon fill="midnightblue" stroke="midnightblue" points="782.35,-215.3 792.54,-212.41 782.77,-208.31 782.35,-215.3"/>
</g>
<!-- Node5&#45;&gt;Node14 -->
<g id="edge16" class="edge">
<title>Node5&#45;&gt;Node14</title>
<path fill="none" stroke="midnightblue" d="M907.41,-214.37C1031.34,-211.41 1316.95,-200.93 1554,-165 1558.48,-164.32 1563.12,-163.49 1567.74,-162.57"/>
<polygon fill="midnightblue" stroke="midnightblue" points="907.27,-210.88 897.35,-214.61 907.43,-217.88 907.27,-210.88"/>
</g>
<!-- Node5&#45;&gt;Node16 -->
<g id="edge18" class="edge">
<title>Node5&#45;&gt;Node16</title>
<path fill="none" stroke="midnightblue" d="M782.59,-215.04C654.68,-213.26 353.84,-204.81 105,-165 102.08,-164.53 99.08,-163.98 96.07,-163.38"/>
<polygon fill="midnightblue" stroke="midnightblue" points="782.55,-218.54 792.6,-215.17 782.64,-211.54 782.55,-218.54"/>
</g>
<!-- Node17 -->
<g id="node17" class="node">
<title>Node17</title>
<g id="a_node17"><a xlink:href="contract_8hpp.html" target="_top" xlink:title=" ">
<polygon fill="none" stroke="black" points="726,-134.5 726,-164.5 830,-164.5 830,-134.5 726,-134.5"/>
<text text-anchor="start" x="734" y="-152.5" font-family="Helvetica,sans-Serif" font-size="10.00">include/yaclib/async</text>
<text text-anchor="middle" x="778" y="-141.5" font-family="Helvetica,sans-Serif" font-size="10.00">/contract.hpp</text>
</a>
</g>
</g>
<!-- Node5&#45;&gt;Node17 -->
<g id="edge21" class="edge">
<title>Node5&#45;&gt;Node17</title>
<path fill="none" stroke="midnightblue" d="M823.16,-194.31C813.11,-184.56 801.46,-173.26 792.51,-164.58"/>
<polygon fill="midnightblue" stroke="midnightblue" points="820.85,-196.94 830.46,-201.4 825.72,-191.92 820.85,-196.94"/>
</g>
<!-- Node18 -->
<g id="node18" class="node">
<title>Node18</title>
<g id="a_node18"><a xlink:href="simple_8cpp.html" target="_top" xlink:title=" ">
<polygon fill="none" stroke="black" points="916.5,-67.5 916.5,-97.5 1017.5,-97.5 1017.5,-67.5 916.5,-67.5"/>
<text text-anchor="start" x="924.5" y="-85.5" font-family="Helvetica,sans-Serif" font-size="10.00">test/example/async</text>
<text text-anchor="middle" x="967" y="-74.5" font-family="Helvetica,sans-Serif" font-size="10.00">/simple.cpp</text>
</a>
</g>
</g>
<!-- Node5&#45;&gt;Node18 -->
<g id="edge37" class="edge">
<title>Node5&#45;&gt;Node18</title>
<path fill="none" stroke="midnightblue" d="M907.21,-209.21C935.85,-202.84 967.33,-190.16 985,-165 999.24,-144.72 986.43,-115.17 976.35,-97.78"/>
<polygon fill="midnightblue" stroke="midnightblue" points="906.34,-205.81 897.22,-211.2 907.71,-212.67 906.34,-205.81"/>
</g>
<!-- Node19 -->
<g id="node19" class="node">
<title>Node19</title>
<g id="a_node19"><a xlink:href="run_8hpp.html" target="_top" xlink:title=" ">
<polygon fill="none" stroke="black" points="1032,-134.5 1032,-164.5 1136,-164.5 1136,-134.5 1032,-134.5"/>
<text text-anchor="start" x="1040" y="-152.5" font-family="Helvetica,sans-Serif" font-size="10.00">include/yaclib/async</text>
<text text-anchor="middle" x="1084" y="-141.5" font-family="Helvetica,sans-Serif" font-size="10.00">/run.hpp</text>
</a>
</g>
</g>
<!-- Node5&#45;&gt;Node19 -->
<g id="edge23" class="edge">
<title>Node5&#45;&gt;Node19</title>
<path fill="none" stroke="midnightblue" d="M906.22,-198.85C945.19,-188.25 995.1,-174.68 1032.12,-164.61"/>
<polygon fill="midnightblue" stroke="midnightblue" points="905.3,-195.47 896.57,-201.48 907.13,-202.23 905.3,-195.47"/>
</g>
<!-- Node20 -->
<g id="node20" class="node">
<title>Node20</title>
<g id="a_node20"><a xlink:href="await_8hpp.html" target="_top" xlink:title=" ">
<polygon fill="none" stroke="black" points="1179,-67.5 1179,-97.5 1297,-97.5 1297,-67.5 1179,-67.5"/>
<text text-anchor="start" x="1187" y="-85.5" font-family="Helvetica,sans-Serif" font-size="10.00">include/yaclib/coroutine</text>
<text text-anchor="middle" x="1238" y="-74.5" font-family="Helvetica,sans-Serif" font-size="10.00">/await.hpp</text>
</a>
</g>
</g>
<!-- Node5&#45;&gt;Node20 -->
<g id="edge27" class="edge">
<title>Node5&#45;&gt;Node20</title>
<path fill="none" stroke="midnightblue" d="M907.46,-212.91C1023.55,-207.44 1263.11,-192.89 1288,-165 1306.79,-143.95 1278.58,-114.91 1257.5,-97.79"/>
<polygon fill="midnightblue" stroke="midnightblue" points="907.12,-209.42 897.29,-213.38 907.44,-216.41 907.12,-209.42"/>
</g>
<!-- Node21 -->
<g id="node21" class="node">
<title>Node21</title>
<g id="a_node21"><a xlink:href="coroutine__deleter_8hpp.html" target="_top" xlink:title=" ">
<polygon fill="none" stroke="black" points="1374,-134.5 1374,-164.5 1512,-164.5 1512,-134.5 1374,-134.5"/>
<text text-anchor="start" x="1382" y="-152.5" font-family="Helvetica,sans-Serif" font-size="10.00">include/yaclib/coroutine</text>
<text text-anchor="middle" x="1443" y="-141.5" font-family="Helvetica,sans-Serif" font-size="10.00">/detail/coroutine_deleter.hpp</text>
</a>
</g>
</g>
<!-- Node5&#45;&gt;Node21 -->
<g id="edge28" class="edge">
<title>Node5&#45;&gt;Node21</title>
<path fill="none" stroke="midnightblue" d="M907.27,-210.91C1004.27,-203.43 1197.24,-187.16 1360,-165 1364.49,-164.39 1369.12,-163.71 1373.77,-163"/>
<polygon fill="midnightblue" stroke="midnightblue" points="906.75,-207.44 897.05,-211.7 907.29,-214.42 906.75,-207.44"/>
</g>
<!-- Node22 -->
<g id="node22" class="node">
<title>Node22</title>
<g id="a_node22"><a xlink:href="promise__type_8hpp.html" target="_top" xlink:title=" ">
<polygon fill="none" stroke="black" points="1414,-67.5 1414,-97.5 1536,-97.5 1536,-67.5 1414,-67.5"/>
<text text-anchor="start" x="1422" y="-85.5" font-family="Helvetica,sans-Serif" font-size="10.00">include/yaclib/coroutine</text>
<text text-anchor="middle" x="1475" y="-74.5" font-family="Helvetica,sans-Serif" font-size="10.00">/detail/promise_type.hpp</text>
</a>
</g>
</g>
<!-- Node5&#45;&gt;Node22 -->
<g id="edge34" class="edge">
<title>Node5&#45;&gt;Node22</title>
<path fill="none" stroke="midnightblue" d="M907.65,-213.11C1071.27,-206.55 1500.29,-187.32 1521,-165 1539.9,-144.64 1513.03,-115.11 1493.1,-97.75"/>
<polygon fill="midnightblue" stroke="midnightblue" points="907.11,-209.63 897.26,-213.52 907.39,-216.62 907.11,-209.63"/>
</g>
<!-- Node23 -->
<g id="node23" class="node">
<title>Node23</title>
<g id="a_node23"><a xlink:href="future__coro__traits_8hpp.html" target="_top" xlink:title=" ">
<polygon fill="none" stroke="black" points="1327,-0.5 1327,-30.5 1445,-30.5 1445,-0.5 1327,-0.5"/>
<text text-anchor="start" x="1335" y="-18.5" font-family="Helvetica,sans-Serif" font-size="10.00">include/yaclib/coroutine</text>
<text text-anchor="middle" x="1386" y="-7.5" font-family="Helvetica,sans-Serif" font-size="10.00">/future_coro_traits.hpp</text>
</a>
</g>
</g>
<!-- Node5&#45;&gt;Node23 -->
<g id="edge35" class="edge">
<title>Node5&#45;&gt;Node23</title>
<path fill="none" stroke="midnightblue" d="M907.43,-215.69C1017.94,-214.9 1242.37,-207.87 1306,-165 1354.09,-132.6 1375.65,-61.49 1382.95,-30.92"/>
<polygon fill="midnightblue" stroke="midnightblue" points="907.08,-212.19 897.1,-215.75 907.12,-219.19 907.08,-212.19"/>
</g>
<!-- Node24 -->
<g id="node24" class="node">
<title>Node24</title>
<g id="a_node24"><a xlink:href="future__awaiter_8hpp.html" target="_top" xlink:title=" ">
<polygon fill="none" stroke="black" points="1154.5,-134.5 1154.5,-164.5 1279.5,-164.5 1279.5,-134.5 1154.5,-134.5"/>
<text text-anchor="start" x="1162.5" y="-152.5" font-family="Helvetica,sans-Serif" font-size="10.00">include/yaclib/coroutine</text>
<text text-anchor="middle" x="1217" y="-141.5" font-family="Helvetica,sans-Serif" font-size="10.00">/detail/future_awaiter.hpp</text>
</a>
</g>
</g>
<!-- Node5&#45;&gt;Node24 -->
<g id="edge32" class="edge">
<title>Node5&#45;&gt;Node24</title>
<path fill="none" stroke="midnightblue" d="M907.31,-205.61C968.06,-195.82 1063.01,-180.15 1145,-165 1148.01,-164.44 1151.09,-163.86 1154.19,-163.27"/>
<polygon fill="midnightblue" stroke="midnightblue" points="906.44,-202.2 897.12,-207.25 907.55,-209.11 906.44,-202.2"/>
</g>
<!-- Node25 -->
<g id="node25" class="node">
<title>Node25</title>
<g id="a_node25"><a xlink:href="future__impl_8cpp.html" target="_top" xlink:title=" ">
<polygon fill="none" stroke="black" points="848,-140 848,-159 976,-159 976,-140 848,-140"/>
<text text-anchor="middle" x="912" y="-147" font-family="Helvetica,sans-Serif" font-size="10.00">src/async/future_impl.cpp</text>
</a>
</g>
</g>
<!-- Node5&#45;&gt;Node25 -->
<g id="edge36" class="edge">
<title>Node5&#45;&gt;Node25</title>
<path fill="none" stroke="midnightblue" d="M866.82,-194.34C879.12,-182.4 893.82,-168.14 903.04,-159.19"/>
<polygon fill="midnightblue" stroke="midnightblue" points="864.28,-191.92 859.54,-201.4 869.15,-196.94 864.28,-191.92"/>
</g>
<!-- Node6&#45;&gt;Node7 -->
<g id="edge6" class="edge">
<title>Node6&#45;&gt;Node7</title>
<path fill="none" stroke="midnightblue" d="M622.81,-126.16C629.52,-116.68 637.13,-105.92 643.04,-97.58"/>
<polygon fill="midnightblue" stroke="midnightblue" points="619.9,-124.21 616.98,-134.4 625.62,-128.26 619.9,-124.21"/>
</g>
<!-- Node8 -->
<g id="node8" class="node">
<title>Node8</title>
<g id="a_node8"><a xlink:href="when__all_8cpp.html" target="_top" xlink:title=" ">
<polygon fill="none" stroke="black" points="840.5,-0.5 840.5,-30.5 941.5,-30.5 941.5,-0.5 840.5,-0.5"/>
<text text-anchor="start" x="848.5" y="-18.5" font-family="Helvetica,sans-Serif" font-size="10.00">test/example/async</text>
<text text-anchor="middle" x="891" y="-7.5" font-family="Helvetica,sans-Serif" font-size="10.00">/when_all.cpp</text>
</a>
</g>
</g>
<!-- Node7&#45;&gt;Node8 -->
<g id="edge7" class="edge">
<title>Node7&#45;&gt;Node8</title>
<path fill="none" stroke="midnightblue" d="M710.95,-65.67C750.55,-54.86 802.52,-40.66 840.44,-30.31"/>
<polygon fill="midnightblue" stroke="midnightblue" points="709.89,-62.34 701.16,-68.35 711.73,-69.09 709.89,-62.34"/>
</g>
<!-- Node9&#45;&gt;Node10 -->
<g id="edge9" class="edge">
<title>Node9&#45;&gt;Node10</title>
<path fill="none" stroke="midnightblue" d="M332.72,-129.99C354.28,-119.69 380.69,-107.07 400.55,-97.58"/>
<polygon fill="midnightblue" stroke="midnightblue" points="331.02,-126.93 323.51,-134.4 334.04,-133.24 331.02,-126.93"/>
</g>
<!-- Node11 -->
<g id="node11" class="node">
<title>Node11</title>
<g id="a_node11"><a xlink:href="when__any_8cpp.html" target="_top" xlink:title=" ">
<polygon fill="none" stroke="black" points="571.5,-0.5 571.5,-30.5 672.5,-30.5 672.5,-0.5 571.5,-0.5"/>
<text text-anchor="start" x="579.5" y="-18.5" font-family="Helvetica,sans-Serif" font-size="10.00">test/example/async</text>
<text text-anchor="middle" x="622" y="-7.5" font-family="Helvetica,sans-Serif" font-size="10.00">/when_any.cpp</text>
</a>
</g>
</g>
<!-- Node10&#45;&gt;Node11 -->
<g id="edge10" class="edge">
<title>Node10&#45;&gt;Node11</title>
<path fill="none" stroke="midnightblue" d="M481.42,-64.09C512.42,-53.6 551.38,-40.41 580.42,-30.58"/>
<polygon fill="midnightblue" stroke="midnightblue" points="480.01,-60.87 471.66,-67.4 482.26,-67.5 480.01,-60.87"/>
</g>
<!-- Node12&#45;&gt;Node7 -->
<g id="edge12" class="edge">
<title>Node12&#45;&gt;Node7</title>
<path fill="none" stroke="midnightblue" d="M520.13,-130.96C549.44,-120.48 586.18,-107.37 613.59,-97.58"/>
<polygon fill="midnightblue" stroke="midnightblue" points="518.73,-127.74 510.49,-134.4 521.09,-134.33 518.73,-127.74"/>
</g>
<!-- Node12&#45;&gt;Node10 -->
<g id="edge13" class="edge">
<title>Node12&#45;&gt;Node10</title>
<path fill="none" stroke="midnightblue" d="M456.72,-125.87C450.79,-116.46 444.09,-105.83 438.88,-97.58"/>
<polygon fill="midnightblue" stroke="midnightblue" points="453.81,-127.81 462.1,-134.4 459.73,-124.07 453.81,-127.81"/>
</g>
<!-- Node15 -->
<g id="node15" class="node">
<title>Node15</title>
<g id="a_node15"><a xlink:href="wait__group_8cpp.html" target="_top" xlink:title=" ">
<polygon fill="none" stroke="black" points="1556.5,-73 1556.5,-92 1675.5,-92 1675.5,-73 1556.5,-73"/>
<text text-anchor="middle" x="1616" y="-80" font-family="Helvetica,sans-Serif" font-size="10.00">src/algo/wait_group.cpp</text>
</a>
</g>
</g>
<!-- Node14&#45;&gt;Node15 -->
<g id="edge17" class="edge">
<title>Node14&#45;&gt;Node15</title>
<path fill="none" stroke="midnightblue" d="M1616,-124.25C1616,-113.02 1616,-100.38 1616,-92.19"/>
<polygon fill="midnightblue" stroke="midnightblue" points="1612.5,-124.4 1616,-134.4 1619.5,-124.4 1612.5,-124.4"/>
</g>
<!-- Node17&#45;&gt;Node18 -->
<g id="edge22" class="edge">
<title>Node17&#45;&gt;Node18</title>
<path fill="none" stroke="midnightblue" d="M828.62,-131.09C859.13,-120.6 897.48,-107.41 926.07,-97.58"/>
<polygon fill="midnightblue" stroke="midnightblue" points="827.33,-127.83 819.01,-134.4 829.6,-134.45 827.33,-127.83"/>
</g>
<!-- Node19&#45;&gt;Node8 -->
<g id="edge25" class="edge">
<title>Node19&#45;&gt;Node8</title>
<path fill="none" stroke="midnightblue" d="M1082.88,-124.28C1080.77,-106.21 1075.07,-82.13 1060,-67 1028.88,-35.76 979.3,-23.68 941.87,-19.1"/>
<polygon fill="midnightblue" stroke="midnightblue" points="1079.4,-124.71 1083.77,-134.37 1086.38,-124.1 1079.4,-124.71"/>
</g>
<!-- Node19&#45;&gt;Node11 -->
<g id="edge26" class="edge">
<title>Node19&#45;&gt;Node11</title>
<path fill="none" stroke="midnightblue" d="M1073.88,-124.97C1064.41,-106 1048.35,-80.34 1026,-67 996.23,-49.22 774.68,-29.02 672.88,-20.56"/>
<polygon fill="midnightblue" stroke="midnightblue" points="1070.8,-126.64 1078.24,-134.19 1077.13,-123.65 1070.8,-126.64"/>
</g>
<!-- Node19&#45;&gt;Node18 -->
<g id="edge24" class="edge">
<title>Node19&#45;&gt;Node18</title>
<path fill="none" stroke="midnightblue" d="M1049.68,-129.44C1031.33,-119.24 1009.12,-106.9 992.34,-97.58"/>
<polygon fill="midnightblue" stroke="midnightblue" points="1048.17,-132.6 1058.61,-134.4 1051.57,-126.48 1048.17,-132.6"/>
</g>
<!-- Node21&#45;&gt;Node22 -->
<g id="edge29" class="edge">
<title>Node21&#45;&gt;Node22</title>
<path fill="none" stroke="midnightblue" d="M1454.43,-125.28C1458.99,-116.02 1464.09,-105.66 1468.07,-97.58"/>
<polygon fill="midnightblue" stroke="midnightblue" points="1451.22,-123.88 1449.94,-134.4 1457.5,-126.97 1451.22,-123.88"/>
</g>
<!-- Node21&#45;&gt;Node23 -->
<g id="edge31" class="edge">
<title>Node21&#45;&gt;Node23</title>
<path fill="none" stroke="midnightblue" d="M1423.14,-126.3C1416.53,-117.92 1409.67,-107.99 1405,-98 1394.61,-75.75 1389.66,-47.36 1387.49,-30.63"/>
<polygon fill="midnightblue" stroke="midnightblue" points="1420.51,-128.61 1429.58,-134.1 1425.91,-124.16 1420.51,-128.61"/>
</g>
<!-- Node22&#45;&gt;Node23 -->
<g id="edge30" class="edge">
<title>Node22&#45;&gt;Node23</title>
<path fill="none" stroke="midnightblue" d="M1447.55,-61.45C1433.86,-51.45 1417.63,-39.6 1405.27,-30.58"/>
<polygon fill="midnightblue" stroke="midnightblue" points="1445.55,-64.32 1455.69,-67.4 1449.68,-58.67 1445.55,-64.32"/>
</g>
<!-- Node24&#45;&gt;Node20 -->
<g id="edge33" class="edge">
<title>Node24&#45;&gt;Node20</title>
<path fill="none" stroke="midnightblue" d="M1224.69,-124.7C1227.63,-115.59 1230.89,-105.49 1233.45,-97.58"/>
<polygon fill="midnightblue" stroke="midnightblue" points="1221.3,-123.8 1221.56,-134.4 1227.96,-125.96 1221.3,-123.8"/>
</g>
</g>
</svg>
