<?xml version="1.0" encoding="UTF-8" standalone="no"?>
<!DOCTYPE svg PUBLIC "-//W3C//DTD SVG 1.1//EN"
 "http://www.w3.org/Graphics/SVG/1.1/DTD/svg11.dtd">
<!-- Generated by graphviz version 2.50.0 (20220203.2022)
 -->
<!-- Title: include/yaclib/executor/executor.hpp Pages: 1 -->
<svg width="856pt" height="408pt"
 viewBox="0.00 0.00 856.00 408.00" xmlns="http://www.w3.org/2000/svg" xmlns:xlink="http://www.w3.org/1999/xlink">
<g id="graph0" class="graph" transform="scale(1 1) rotate(0) translate(4 404)">
<title>include/yaclib/executor/executor.hpp</title>
<!-- Node1 -->
<g id="node1" class="node">
<title>Node1</title>
<g id="a_node1"><a xlink:title=" ">
<polygon fill="#bfbfbf" stroke="black" points="714.5,-369.5 714.5,-399.5 829.5,-399.5 829.5,-369.5 714.5,-369.5"/>
<text text-anchor="start" x="722.5" y="-387.5" font-family="Helvetica,sans-Serif" font-size="10.00">include/yaclib/executor</text>
<text text-anchor="middle" x="772" y="-376.5" font-family="Helvetica,sans-Serif" font-size="10.00">/executor.hpp</text>
</a>
</g>
</g>
<!-- Node2 -->
<g id="node2" class="node">
<title>Node2</title>
<g id="a_node2"><a xlink:title=" ">
<polygon fill="none" stroke="#bfbfbf" points="371,-0.5 371,-19.5 459,-19.5 459,-0.5 371,-0.5"/>
<text text-anchor="middle" x="415" y="-7.5" font-family="Helvetica,sans-Serif" font-size="10.00">yaclib/config.hpp</text>
</a>
</g>
</g>
<!-- Node1&#45;&gt;Node2 -->
<g id="edge1" class="edge">
<title>Node1&#45;&gt;Node2</title>
<path fill="none" stroke="midnightblue" d="M789.25,-369.43C811.67,-349.44 848,-310.49 848,-268 848,-268 848,-268 848,-137.5 848,-98.08 844.65,-79.51 813,-56 759.81,-16.49 565.29,-10.87 469.3,-10.57"/>
<polygon fill="midnightblue" stroke="midnightblue" points="469.22,-7.07 459.22,-10.56 469.21,-14.07 469.22,-7.07"/>
</g>
<!-- Node3 -->
<g id="node3" class="node">
<title>Node3</title>
<g id="a_node3"><a xlink:href="task_8hpp.html" target="_top" xlink:title=" ">
<polygon fill="none" stroke="black" points="539.5,-313.5 539.5,-332.5 660.5,-332.5 660.5,-313.5 539.5,-313.5"/>
<text text-anchor="middle" x="600" y="-320.5" font-family="Helvetica,sans-Serif" font-size="10.00">yaclib/executor/task.hpp</text>
</a>
</g>
</g>
<!-- Node1&#45;&gt;Node3 -->
<g id="edge2" class="edge">
<title>Node1&#45;&gt;Node3</title>
<path fill="none" stroke="midnightblue" d="M731.24,-369.4C701.78,-359.21 662.41,-345.59 634.5,-335.93"/>
<polygon fill="midnightblue" stroke="midnightblue" points="635.37,-332.53 624.78,-332.57 633.08,-339.15 635.37,-332.53"/>
</g>
<!-- Node15 -->
<g id="node15" class="node">
<title>Node15</title>
<g id="a_node15"><a xlink:href="intrusive__ptr_8hpp.html" target="_top" xlink:title=" ">
<polygon fill="none" stroke="black" points="583.5,-123.5 583.5,-153.5 680.5,-153.5 680.5,-123.5 583.5,-123.5"/>
<text text-anchor="start" x="591.5" y="-141.5" font-family="Helvetica,sans-Serif" font-size="10.00">yaclib/util/intrusive</text>
<text text-anchor="middle" x="632" y="-130.5" font-family="Helvetica,sans-Serif" font-size="10.00">_ptr.hpp</text>
</a>
</g>
</g>
<!-- Node1&#45;&gt;Node15 -->
<g id="edge36" class="edge">
<title>Node1&#45;&gt;Node15</title>
<path fill="none" stroke="midnightblue" d="M763.87,-369.33C740.62,-328.81 673.73,-212.23 645.18,-162.46"/>
<polygon fill="midnightblue" stroke="midnightblue" points="648.17,-160.64 640.15,-153.71 642.1,-164.13 648.17,-160.64"/>
</g>
<!-- Node3&#45;&gt;Node2 -->
<g id="edge3" class="edge">
<title>Node3&#45;&gt;Node2</title>
<path fill="none" stroke="midnightblue" d="M614.8,-313.48C672.38,-279.35 874.21,-149.76 791,-56 770.01,-32.34 568.11,-18.82 469.14,-13.57"/>
<polygon fill="midnightblue" stroke="midnightblue" points="469.2,-10.07 459.04,-13.04 468.84,-17.06 469.2,-10.07"/>
</g>
<!-- Node4 -->
<g id="node4" class="node">
<title>Node4</title>
<g id="a_node4"><a xlink:href="node_8hpp.html" target="_top" xlink:title=" ">
<polygon fill="none" stroke="black" points="83.5,-190.5 83.5,-220.5 166.5,-220.5 166.5,-190.5 83.5,-190.5"/>
<text text-anchor="start" x="91.5" y="-208.5" font-family="Helvetica,sans-Serif" font-size="10.00">yaclib/util/detail</text>
<text text-anchor="middle" x="125" y="-197.5" font-family="Helvetica,sans-Serif" font-size="10.00">/node.hpp</text>
</a>
</g>
</g>
<!-- Node3&#45;&gt;Node4 -->
<g id="edge4" class="edge">
<title>Node3&#45;&gt;Node4</title>
<path fill="none" stroke="midnightblue" d="M564.69,-313.41C481.62,-293.22 273.58,-242.63 176.45,-219.01"/>
<polygon fill="midnightblue" stroke="midnightblue" points="177.11,-215.57 166.57,-216.61 175.46,-222.37 177.11,-215.57"/>
</g>
<!-- Node5 -->
<g id="node5" class="node">
<title>Node5</title>
<g id="a_node5"><a xlink:href="func_8hpp.html" target="_top" xlink:title=" ">
<polygon fill="none" stroke="black" points="441.5,-257.5 441.5,-276.5 538.5,-276.5 538.5,-257.5 441.5,-257.5"/>
<text text-anchor="middle" x="490" y="-264.5" font-family="Helvetica,sans-Serif" font-size="10.00">yaclib/util/func.hpp</text>
</a>
</g>
</g>
<!-- Node3&#45;&gt;Node5 -->
<g id="edge6" class="edge">
<title>Node3&#45;&gt;Node5</title>
<path fill="none" stroke="midnightblue" d="M582.33,-313.32C564.61,-304.62 537.1,-291.12 516.71,-281.11"/>
<polygon fill="midnightblue" stroke="midnightblue" points="518.15,-277.92 507.63,-276.65 515.06,-284.2 518.15,-277.92"/>
</g>
<!-- Node4&#45;&gt;Node2 -->
<g id="edge5" class="edge">
<title>Node4&#45;&gt;Node2</title>
<path fill="none" stroke="midnightblue" d="M128.93,-190.21C134.11,-173.08 144.44,-144.05 160,-123 187.37,-85.98 198.1,-77.13 239,-56 277.13,-36.3 324.45,-24.83 360.41,-18.41"/>
<polygon fill="midnightblue" stroke="midnightblue" points="361.44,-21.78 370.71,-16.65 360.27,-14.88 361.44,-21.78"/>
</g>
<!-- Node5&#45;&gt;Node2 -->
<g id="edge7" class="edge">
<title>Node5&#45;&gt;Node2</title>
<path fill="none" stroke="midnightblue" d="M478.88,-257.33C458.01,-240.24 413.57,-199.88 397,-154 381.55,-111.2 397.13,-57.04 407.46,-29.27"/>
<polygon fill="midnightblue" stroke="midnightblue" points="410.82,-30.27 411.21,-19.69 404.3,-27.72 410.82,-30.27"/>
</g>
<!-- Node6 -->
<g id="node6" class="node">
<title>Node6</title>
<g id="a_node6"><a xlink:href="safe__call_8hpp.html" target="_top" xlink:title=" ">
<polygon fill="none" stroke="black" points="405.5,-123.5 405.5,-153.5 488.5,-153.5 488.5,-123.5 405.5,-123.5"/>
<text text-anchor="start" x="413.5" y="-141.5" font-family="Helvetica,sans-Serif" font-size="10.00">yaclib/util/detail</text>
<text text-anchor="middle" x="447" y="-130.5" font-family="Helvetica,sans-Serif" font-size="10.00">/safe_call.hpp</text>
</a>
</g>
</g>
<!-- Node5&#45;&gt;Node6 -->
<g id="edge8" class="edge">
<title>Node5&#45;&gt;Node6</title>
<path fill="none" stroke="midnightblue" d="M487.04,-257.31C480.56,-238.21 464.87,-192.07 455.17,-163.52"/>
<polygon fill="midnightblue" stroke="midnightblue" points="458.42,-162.23 451.89,-153.89 451.8,-164.48 458.42,-162.23"/>
</g>
<!-- Node7 -->
<g id="node7" class="node">
<title>Node7</title>
<g id="a_node7"><a xlink:title=" ">
<polygon fill="none" stroke="#bfbfbf" points="443,-62 443,-81 505,-81 505,-62 443,-62"/>
<text text-anchor="middle" x="474" y="-69" font-family="Helvetica,sans-Serif" font-size="10.00">type_traits</text>
</a>
</g>
</g>
<!-- Node5&#45;&gt;Node7 -->
<g id="edge34" class="edge">
<title>Node5&#45;&gt;Node7</title>
<path fill="none" stroke="midnightblue" d="M492.09,-257.48C497.22,-235.11 509.27,-172.97 498,-123 495.37,-111.33 489.71,-99.2 484.55,-89.75"/>
<polygon fill="midnightblue" stroke="midnightblue" points="487.53,-87.92 479.5,-81.01 481.47,-91.42 487.53,-87.92"/>
</g>
<!-- Node8 -->
<g id="node8" class="node">
<title>Node8</title>
<g id="a_node8"><a xlink:title=" ">
<polygon fill="none" stroke="#bfbfbf" points="309.5,-62 309.5,-81 348.5,-81 348.5,-62 309.5,-62"/>
<text text-anchor="middle" x="329" y="-69" font-family="Helvetica,sans-Serif" font-size="10.00">utility</text>
</a>
</g>
</g>
<!-- Node5&#45;&gt;Node8 -->
<g id="edge35" class="edge">
<title>Node5&#45;&gt;Node8</title>
<path fill="none" stroke="midnightblue" d="M441.44,-260.27C414.67,-254.61 382.92,-243.36 363,-221 330.24,-184.22 327.15,-122.38 327.9,-91.39"/>
<polygon fill="midnightblue" stroke="midnightblue" points="331.41,-91.28 328.32,-81.14 324.41,-90.99 331.41,-91.28"/>
</g>
<!-- Node9 -->
<g id="node9" class="node">
<title>Node9</title>
<g id="a_node9"><a xlink:href="helper_8hpp.html" target="_top" xlink:title=" ">
<polygon fill="none" stroke="black" points="207,-196 207,-215 311,-215 311,-196 207,-196"/>
<text text-anchor="middle" x="259" y="-203" font-family="Helvetica,sans-Serif" font-size="10.00">yaclib/util/helper.hpp</text>
</a>
</g>
</g>
<!-- Node5&#45;&gt;Node9 -->
<g id="edge12" class="edge">
<title>Node5&#45;&gt;Node9</title>
<path fill="none" stroke="midnightblue" d="M456.9,-257.48C416.08,-246.96 346.59,-229.06 301.76,-217.51"/>
<polygon fill="midnightblue" stroke="midnightblue" points="302.59,-214.11 292.04,-215.01 300.85,-220.89 302.59,-214.11"/>
</g>
<!-- Node5&#45;&gt;Node15 -->
<g id="edge32" class="edge">
<title>Node5&#45;&gt;Node15</title>
<path fill="none" stroke="midnightblue" d="M509.89,-257.39C526.75,-249.48 551.01,-236.63 569,-221 588.77,-203.82 606.54,-179.62 618.13,-162.06"/>
<polygon fill="midnightblue" stroke="midnightblue" points="621.14,-163.85 623.6,-153.55 615.25,-160.07 621.14,-163.85"/>
</g>
<!-- Node16 -->
<g id="node16" class="node">
<title>Node16</title>
<g id="a_node16"><a xlink:href="ref_8hpp.html" target="_top" xlink:title=" ">
<polygon fill="none" stroke="black" points="522.5,-62 522.5,-81 611.5,-81 611.5,-62 522.5,-62"/>
<text text-anchor="middle" x="567" y="-69" font-family="Helvetica,sans-Serif" font-size="10.00">yaclib/util/ref.hpp</text>
</a>
</g>
</g>
<!-- Node5&#45;&gt;Node16 -->
<g id="edge33" class="edge">
<title>Node5&#45;&gt;Node16</title>
<path fill="none" stroke="midnightblue" d="M495.18,-257.23C500.33,-248.3 508.27,-233.96 514,-221 534.23,-175.25 552.59,-119.15 561.43,-90.78"/>
<polygon fill="midnightblue" stroke="midnightblue" points="564.84,-91.63 564.44,-81.04 558.15,-89.57 564.84,-91.63"/>
</g>
<!-- Node6&#45;&gt;Node2 -->
<g id="edge9" class="edge">
<title>Node6&#45;&gt;Node2</title>
<path fill="none" stroke="midnightblue" d="M443.33,-123.36C440.71,-113.24 437.12,-99.29 434,-87 429.05,-67.48 423.47,-45.12 419.64,-29.73"/>
<polygon fill="midnightblue" stroke="midnightblue" points="423.01,-28.76 417.2,-19.9 416.22,-30.45 423.01,-28.76"/>
</g>
<!-- Node6&#45;&gt;Node7 -->
<g id="edge10" class="edge">
<title>Node6&#45;&gt;Node7</title>
<path fill="none" stroke="midnightblue" d="M452.86,-123.4C456.86,-113.76 462.2,-100.91 466.51,-90.54"/>
<polygon fill="midnightblue" stroke="midnightblue" points="469.78,-91.77 470.39,-81.19 463.32,-89.09 469.78,-91.77"/>
</g>
<!-- Node6&#45;&gt;Node8 -->
<g id="edge11" class="edge">
<title>Node6&#45;&gt;Node8</title>
<path fill="none" stroke="midnightblue" d="M421.4,-123.4C401.15,-112.24 373.08,-96.78 353.21,-85.83"/>
<polygon fill="midnightblue" stroke="midnightblue" points="354.89,-82.77 344.44,-81.01 351.51,-88.9 354.89,-82.77"/>
</g>
<!-- Node9&#45;&gt;Node2 -->
<g id="edge13" class="edge">
<title>Node9&#45;&gt;Node2</title>
<path fill="none" stroke="midnightblue" d="M263.75,-195.82C268.96,-185.96 277.21,-169.26 282,-154 295.28,-111.75 271.82,-90.16 300,-56 315.2,-37.57 338.96,-26.66 360.94,-20.21"/>
<polygon fill="midnightblue" stroke="midnightblue" points="362.13,-23.52 370.88,-17.55 360.32,-16.76 362.13,-23.52"/>
</g>
<!-- Node10 -->
<g id="node10" class="node">
<title>Node10</title>
<g id="a_node10"><a xlink:href="atomic_8hpp.html" target="_top" xlink:title=" ">
<polygon fill="none" stroke="black" points="25.5,-62 25.5,-81 138.5,-81 138.5,-62 25.5,-62"/>
<text text-anchor="middle" x="82" y="-69" font-family="Helvetica,sans-Serif" font-size="10.00">yaclib/fault/atomic.hpp</text>
</a>
</g>
</g>
<!-- Node9&#45;&gt;Node10 -->
<g id="edge14" class="edge">
<title>Node9&#45;&gt;Node10</title>
<path fill="none" stroke="midnightblue" d="M237.34,-195.96C216.44,-187.17 184.46,-172.19 160,-154 134.31,-134.89 109.62,-106.95 95.13,-89.25"/>
<polygon fill="midnightblue" stroke="midnightblue" points="97.52,-86.63 88.53,-81.03 92.06,-91.02 97.52,-86.63"/>
</g>
<!-- Node14 -->
<g id="node14" class="node">
<title>Node14</title>
<g id="a_node14"><a xlink:href="atomic__counter_8hpp.html" target="_top" xlink:title=" ">
<polygon fill="none" stroke="black" points="169,-123.5 169,-153.5 273,-153.5 273,-123.5 169,-123.5"/>
<text text-anchor="start" x="177" y="-141.5" font-family="Helvetica,sans-Serif" font-size="10.00">yaclib/util/detail</text>
<text text-anchor="middle" x="221" y="-130.5" font-family="Helvetica,sans-Serif" font-size="10.00">/atomic_counter.hpp</text>
</a>
</g>
</g>
<!-- Node9&#45;&gt;Node14 -->
<g id="edge19" class="edge">
<title>Node9&#45;&gt;Node14</title>
<path fill="none" stroke="midnightblue" d="M253.88,-195.73C248.89,-187.2 241.1,-173.87 234.35,-162.33"/>
<polygon fill="midnightblue" stroke="midnightblue" points="237.31,-160.46 229.24,-153.59 231.26,-163.99 237.31,-160.46"/>
</g>
<!-- Node9&#45;&gt;Node15 -->
<g id="edge24" class="edge">
<title>Node9&#45;&gt;Node15</title>
<path fill="none" stroke="midnightblue" d="M308.15,-195.94C376.54,-184.02 500.24,-162.46 573.37,-149.72"/>
<polygon fill="midnightblue" stroke="midnightblue" points="574.09,-153.15 583.34,-147.98 572.88,-146.25 574.09,-153.15"/>
</g>
<!-- Node10&#45;&gt;Node2 -->
<g id="edge15" class="edge">
<title>Node10&#45;&gt;Node2</title>
<path fill="none" stroke="midnightblue" d="M129.71,-61.98C190.91,-51.04 296.78,-32.12 360.91,-20.66"/>
<polygon fill="midnightblue" stroke="midnightblue" points="361.6,-24.1 370.83,-18.89 360.37,-17.21 361.6,-24.1"/>
</g>
<!-- Node11 -->
<g id="node11" class="node">
<title>Node11</title>
<g id="a_node11"><a xlink:title=" ">
<polygon fill="none" stroke="#bfbfbf" points="137.5,-0.5 137.5,-19.5 186.5,-19.5 186.5,-0.5 137.5,-0.5"/>
<text text-anchor="middle" x="162" y="-7.5" font-family="Helvetica,sans-Serif" font-size="10.00">cstddef</text>
</a>
</g>
</g>
<!-- Node10&#45;&gt;Node11 -->
<g id="edge16" class="edge">
<title>Node10&#45;&gt;Node11</title>
<path fill="none" stroke="midnightblue" d="M93.46,-61.98C106.17,-52.52 126.91,-37.1 142.25,-25.69"/>
<polygon fill="midnightblue" stroke="midnightblue" points="144.62,-28.29 150.56,-19.51 140.45,-22.67 144.62,-28.29"/>
</g>
<!-- Node12 -->
<g id="node12" class="node">
<title>Node12</title>
<g id="a_node12"><a xlink:title=" ">
<polygon fill="none" stroke="#bfbfbf" points="0,-0.5 0,-19.5 46,-19.5 46,-0.5 0,-0.5"/>
<text text-anchor="middle" x="23" y="-7.5" font-family="Helvetica,sans-Serif" font-size="10.00">cstdint</text>
</a>
</g>
</g>
<!-- Node10&#45;&gt;Node12 -->
<g id="edge17" class="edge">
<title>Node10&#45;&gt;Node12</title>
<path fill="none" stroke="midnightblue" d="M73.55,-61.98C64.43,-52.78 49.73,-37.96 38.52,-26.66"/>
<polygon fill="midnightblue" stroke="midnightblue" points="40.96,-24.15 31.44,-19.51 35.99,-29.07 40.96,-24.15"/>
</g>
<!-- Node13 -->
<g id="node13" class="node">
<title>Node13</title>
<g id="a_node13"><a xlink:title=" ">
<polygon fill="none" stroke="#bfbfbf" points="64,-0.5 64,-19.5 110,-19.5 110,-0.5 64,-0.5"/>
<text text-anchor="middle" x="87" y="-7.5" font-family="Helvetica,sans-Serif" font-size="10.00">atomic</text>
</a>
</g>
</g>
<!-- Node10&#45;&gt;Node13 -->
<g id="edge18" class="edge">
<title>Node10&#45;&gt;Node13</title>
<path fill="none" stroke="midnightblue" d="M82.72,-61.98C83.42,-53.58 84.52,-40.48 85.43,-29.66"/>
<polygon fill="midnightblue" stroke="midnightblue" points="88.94,-29.77 86.28,-19.51 81.96,-29.18 88.94,-29.77"/>
</g>
<!-- Node14&#45;&gt;Node2 -->
<g id="edge20" class="edge">
<title>Node14&#45;&gt;Node2</title>
<path fill="none" stroke="midnightblue" d="M225.35,-123.22C231.62,-104.98 244.95,-73.69 267,-56 293.73,-34.56 330.57,-23.31 360.81,-17.43"/>
<polygon fill="midnightblue" stroke="midnightblue" points="361.57,-20.85 370.79,-15.63 360.33,-13.96 361.57,-20.85"/>
</g>
<!-- Node14&#45;&gt;Node8 -->
<g id="edge23" class="edge">
<title>Node14&#45;&gt;Node8</title>
<path fill="none" stroke="midnightblue" d="M244.43,-123.4C262.71,-112.39 287.96,-97.2 306.1,-86.28"/>
<polygon fill="midnightblue" stroke="midnightblue" points="308.1,-89.16 314.87,-81.01 304.49,-83.16 308.1,-89.16"/>
</g>
<!-- Node14&#45;&gt;Node10 -->
<g id="edge21" class="edge">
<title>Node14&#45;&gt;Node10</title>
<path fill="none" stroke="midnightblue" d="M190.84,-123.4C166.56,-112.04 132.72,-96.22 109.25,-85.24"/>
<polygon fill="midnightblue" stroke="midnightblue" points="110.73,-82.07 100.19,-81.01 107.77,-88.41 110.73,-82.07"/>
</g>
<!-- Node14&#45;&gt;Node11 -->
<g id="edge22" class="edge">
<title>Node14&#45;&gt;Node11</title>
<path fill="none" stroke="midnightblue" d="M214.46,-123.48C203.7,-100.41 182.28,-54.48 170.41,-29.03"/>
<polygon fill="midnightblue" stroke="midnightblue" points="173.5,-27.37 166.1,-19.79 167.15,-30.33 173.5,-27.37"/>
</g>
<!-- Node15&#45;&gt;Node2 -->
<g id="edge25" class="edge">
<title>Node15&#45;&gt;Node2</title>
<path fill="none" stroke="midnightblue" d="M634.52,-123.39C636.87,-105.35 637.84,-74.26 621,-56 600.83,-34.13 523.24,-21.89 469.27,-15.87"/>
<polygon fill="midnightblue" stroke="midnightblue" points="469.47,-12.37 459.15,-14.78 468.72,-19.33 469.47,-12.37"/>
</g>
<!-- Node15&#45;&gt;Node7 -->
<g id="edge28" class="edge">
<title>Node15&#45;&gt;Node7</title>
<path fill="none" stroke="midnightblue" d="M597.72,-123.4C569.87,-111.94 530.97,-95.94 504.27,-84.95"/>
<polygon fill="midnightblue" stroke="midnightblue" points="505.26,-81.57 494.68,-81.01 502.59,-88.05 505.26,-81.57"/>
</g>
<!-- Node15&#45;&gt;Node16 -->
<g id="edge26" class="edge">
<title>Node15&#45;&gt;Node16</title>
<path fill="none" stroke="midnightblue" d="M617.9,-123.4C607.56,-113.06 593.52,-99.02 582.81,-88.31"/>
<polygon fill="midnightblue" stroke="midnightblue" points="585.24,-85.79 575.69,-81.19 580.29,-90.74 585.24,-85.79"/>
</g>
<!-- Node17 -->
<g id="node17" class="node">
<title>Node17</title>
<g id="a_node17"><a xlink:href="intrusive__ptr__impl_8hpp.html" target="_top" xlink:title=" ">
<polygon fill="none" stroke="black" points="668,-56.5 668,-86.5 782,-86.5 782,-56.5 668,-56.5"/>
<text text-anchor="start" x="676" y="-74.5" font-family="Helvetica,sans-Serif" font-size="10.00">yaclib/util/detail</text>
<text text-anchor="middle" x="725" y="-63.5" font-family="Helvetica,sans-Serif" font-size="10.00">/intrusive_ptr_impl.hpp</text>
</a>
</g>
</g>
<!-- Node15&#45;&gt;Node17 -->
<g id="edge29" class="edge">
<title>Node15&#45;&gt;Node17</title>
<path fill="none" stroke="midnightblue" d="M652.18,-123.4C665.1,-114.37 682.06,-102.51 696.36,-92.52"/>
<polygon fill="midnightblue" stroke="midnightblue" points="698.67,-95.17 704.86,-86.58 694.66,-89.44 698.67,-95.17"/>
</g>
<!-- Node16&#45;&gt;Node2 -->
<g id="edge27" class="edge">
<title>Node16&#45;&gt;Node2</title>
<path fill="none" stroke="midnightblue" d="M545.22,-61.98C519.26,-51.81 475.69,-34.76 446.17,-23.2"/>
<polygon fill="midnightblue" stroke="midnightblue" points="447.33,-19.9 436.74,-19.51 444.77,-26.41 447.33,-19.9"/>
</g>
<!-- Node17&#45;&gt;Node2 -->
<g id="edge30" class="edge">
<title>Node17&#45;&gt;Node2</title>
<path fill="none" stroke="midnightblue" d="M667.66,-58.71C663.04,-57.79 658.44,-56.87 654,-56 590.56,-43.55 517.52,-29.9 469.05,-20.93"/>
<polygon fill="midnightblue" stroke="midnightblue" points="469.56,-17.47 459.09,-19.09 468.29,-24.35 469.56,-17.47"/>
</g>
<!-- Node18 -->
<g id="node18" class="node">
<title>Node18</title>
<g id="a_node18"><a xlink:title=" ">
<polygon fill="none" stroke="#bfbfbf" points="700.5,-0.5 700.5,-19.5 749.5,-19.5 749.5,-0.5 700.5,-0.5"/>
<text text-anchor="middle" x="725" y="-7.5" font-family="Helvetica,sans-Serif" font-size="10.00">cassert</text>
</a>
</g>
</g>
<!-- Node17&#45;&gt;Node18 -->
<g id="edge31" class="edge">
<title>Node17&#45;&gt;Node18</title>
<path fill="none" stroke="midnightblue" d="M725,-56.4C725,-48.47 725,-38.46 725,-29.86"/>
<polygon fill="midnightblue" stroke="midnightblue" points="728.5,-29.66 725,-19.66 721.5,-29.66 728.5,-29.66"/>
</g>
</g>
</svg>
