<?xml version="1.0" encoding="UTF-8" standalone="no"?>
<!DOCTYPE svg PUBLIC "-//W3C//DTD SVG 1.1//EN"
 "http://www.w3.org/Graphics/SVG/1.1/DTD/svg11.dtd">
<!-- Generated by graphviz version 2.50.0 (20220203.2022)
 -->
<!-- Title: src/fault/chrono/fiber/steady_clock.cpp Pages: 1 -->
<svg width="204pt" height="162pt"
 viewBox="0.00 0.00 203.50 162.00" xmlns="http://www.w3.org/2000/svg" xmlns:xlink="http://www.w3.org/1999/xlink">
<g id="graph0" class="graph" transform="scale(1 1) rotate(0) translate(4 158)">
<title>src/fault/chrono/fiber/steady_clock.cpp</title>
<!-- Node1 -->
<g id="node1" class="node">
<title>Node1</title>
<g id="a_node1"><a xlink:title=" ">
<polygon fill="#bfbfbf" stroke="black" points="33.5,-123.5 33.5,-153.5 138.5,-153.5 138.5,-123.5 33.5,-123.5"/>
<text text-anchor="start" x="41.5" y="-141.5" font-family="Helvetica,sans-Serif" font-size="10.00">src/fault/chrono/fiber</text>
<text text-anchor="middle" x="86" y="-130.5" font-family="Helvetica,sans-Serif" font-size="10.00">/steady_clock.cpp</text>
</a>
</g>
</g>
<!-- Node2 -->
<g id="node2" class="node">
<title>Node2</title>
<g id="a_node2"><a xlink:title=" ">
<polygon fill="none" stroke="#bfbfbf" points="0,-0.5 0,-19.5 88,-19.5 88,-0.5 0,-0.5"/>
<text text-anchor="middle" x="44" y="-7.5" font-family="Helvetica,sans-Serif" font-size="10.00">yaclib/config.hpp</text>
</a>
</g>
</g>
<!-- Node1&#45;&gt;Node2 -->
<g id="edge1" class="edge">
<title>Node1&#45;&gt;Node2</title>
<path fill="none" stroke="midnightblue" d="M77.43,-123.38C71.76,-113.5 64.56,-99.82 60,-87 53.24,-67.98 48.92,-45.23 46.49,-29.6"/>
<polygon fill="midnightblue" stroke="midnightblue" points="49.94,-29.04 45.05,-19.64 43.02,-30.04 49.94,-29.04"/>
</g>
<!-- Node3 -->
<g id="node3" class="node">
<title>Node3</title>
<g id="a_node3"><a xlink:href="steady__clock_8hpp.html" target="_top" xlink:title=" ">
<polygon fill="none" stroke="black" points="68.5,-56.5 68.5,-86.5 195.5,-86.5 195.5,-56.5 68.5,-56.5"/>
<text text-anchor="start" x="76.5" y="-74.5" font-family="Helvetica,sans-Serif" font-size="10.00">yaclib/fault/detail</text>
<text text-anchor="middle" x="132" y="-63.5" font-family="Helvetica,sans-Serif" font-size="10.00">/chrono/steady_clock.hpp</text>
</a>
</g>
</g>
<!-- Node1&#45;&gt;Node3 -->
<g id="edge2" class="edge">
<title>Node1&#45;&gt;Node3</title>
<path fill="none" stroke="midnightblue" d="M95.98,-123.4C101.89,-115.05 109.5,-104.29 116.21,-94.81"/>
<polygon fill="midnightblue" stroke="midnightblue" points="119.12,-96.76 122.04,-86.58 113.4,-92.72 119.12,-96.76"/>
</g>
<!-- Node3&#45;&gt;Node2 -->
<g id="edge3" class="edge">
<title>Node3&#45;&gt;Node2</title>
<path fill="none" stroke="midnightblue" d="M111.15,-56.4C97.3,-47.04 79.19,-34.79 65.26,-25.38"/>
<polygon fill="midnightblue" stroke="midnightblue" points="67.05,-22.36 56.8,-19.66 63.13,-28.16 67.05,-22.36"/>
</g>
<!-- Node4 -->
<g id="node4" class="node">
<title>Node4</title>
<g id="a_node4"><a xlink:title=" ">
<polygon fill="none" stroke="#bfbfbf" points="109,-0.5 109,-19.5 155,-19.5 155,-0.5 109,-0.5"/>
<text text-anchor="middle" x="132" y="-7.5" font-family="Helvetica,sans-Serif" font-size="10.00">chrono</text>
</a>
</g>
</g>
<!-- Node3&#45;&gt;Node4 -->
<g id="edge4" class="edge">
<title>Node3&#45;&gt;Node4</title>
<path fill="none" stroke="midnightblue" d="M132,-56.4C132,-48.47 132,-38.46 132,-29.86"/>
<polygon fill="midnightblue" stroke="midnightblue" points="135.5,-29.66 132,-19.66 128.5,-29.66 135.5,-29.66"/>
</g>
</g>
</svg>
