<?xml version="1.0" encoding="UTF-8" standalone="no"?>
<!DOCTYPE svg PUBLIC "-//W3C//DTD SVG 1.1//EN"
 "http://www.w3.org/Graphics/SVG/1.1/DTD/svg11.dtd">
<!-- Generated by graphviz version 2.50.0 (20220203.2022)
 -->
<!-- Title: include/yaclib/util/func.hpp Pages: 1 -->
<svg width="763pt" height="285pt"
 viewBox="0.00 0.00 763.00 285.00" xmlns="http://www.w3.org/2000/svg" xmlns:xlink="http://www.w3.org/1999/xlink">
<g id="graph0" class="graph" transform="scale(1 1) rotate(0) translate(4 281)">
<title>include/yaclib/util/func.hpp</title>
<!-- Node1 -->
<g id="node1" class="node">
<title>Node1</title>
<g id="a_node1"><a xlink:title=" ">
<polygon fill="#bfbfbf" stroke="black" points="375.5,-246.5 375.5,-276.5 466.5,-276.5 466.5,-246.5 375.5,-246.5"/>
<text text-anchor="start" x="383.5" y="-264.5" font-family="Helvetica,sans-Serif" font-size="10.00">include/yaclib/util</text>
<text text-anchor="middle" x="421" y="-253.5" font-family="Helvetica,sans-Serif" font-size="10.00">/func.hpp</text>
</a>
</g>
</g>
<!-- Node2 -->
<g id="node2" class="node">
<title>Node2</title>
<g id="a_node2"><a xlink:title=" ">
<polygon fill="none" stroke="#bfbfbf" points="377,-0.5 377,-19.5 465,-19.5 465,-0.5 377,-0.5"/>
<text text-anchor="middle" x="421" y="-7.5" font-family="Helvetica,sans-Serif" font-size="10.00">yaclib/config.hpp</text>
</a>
</g>
</g>
<!-- Node1&#45;&gt;Node2 -->
<g id="edge1" class="edge">
<title>Node1&#45;&gt;Node2</title>
<path fill="none" stroke="midnightblue" d="M466.89,-246.58C508.42,-231.26 567.08,-202.19 594,-154 600.72,-141.97 596.54,-136.54 594,-123 588.12,-91.6 591.4,-77.75 568,-56 542.88,-32.66 505.95,-21.41 475.39,-16"/>
<polygon fill="midnightblue" stroke="midnightblue" points="475.73,-12.51 465.3,-14.38 474.62,-19.42 475.73,-12.51"/>
</g>
<!-- Node3 -->
<g id="node3" class="node">
<title>Node3</title>
<g id="a_node3"><a xlink:href="safe__call_8hpp.html" target="_top" xlink:title=" ">
<polygon fill="none" stroke="black" points="309.5,-123.5 309.5,-153.5 392.5,-153.5 392.5,-123.5 309.5,-123.5"/>
<text text-anchor="start" x="317.5" y="-141.5" font-family="Helvetica,sans-Serif" font-size="10.00">yaclib/util/detail</text>
<text text-anchor="middle" x="351" y="-130.5" font-family="Helvetica,sans-Serif" font-size="10.00">/safe_call.hpp</text>
</a>
</g>
</g>
<!-- Node1&#45;&gt;Node3 -->
<g id="edge2" class="edge">
<title>Node1&#45;&gt;Node3</title>
<path fill="none" stroke="midnightblue" d="M412.7,-246.14C400.75,-225.5 378.59,-187.19 364.33,-162.55"/>
<polygon fill="midnightblue" stroke="midnightblue" points="367.33,-160.74 359.29,-153.84 361.27,-164.25 367.33,-160.74"/>
</g>
<!-- Node4 -->
<g id="node4" class="node">
<title>Node4</title>
<g id="a_node4"><a xlink:title=" ">
<polygon fill="none" stroke="#bfbfbf" points="373,-62 373,-81 435,-81 435,-62 373,-62"/>
<text text-anchor="middle" x="404" y="-69" font-family="Helvetica,sans-Serif" font-size="10.00">type_traits</text>
</a>
</g>
</g>
<!-- Node1&#45;&gt;Node4 -->
<g id="edge28" class="edge">
<title>Node1&#45;&gt;Node4</title>
<path fill="none" stroke="midnightblue" d="M419.72,-246.37C416.7,-212.94 409.11,-128.97 405.7,-91.3"/>
<polygon fill="midnightblue" stroke="midnightblue" points="409.17,-90.85 404.79,-81.21 402.2,-91.48 409.17,-90.85"/>
</g>
<!-- Node5 -->
<g id="node5" class="node">
<title>Node5</title>
<g id="a_node5"><a xlink:title=" ">
<polygon fill="none" stroke="#bfbfbf" points="271.5,-62 271.5,-81 310.5,-81 310.5,-62 271.5,-62"/>
<text text-anchor="middle" x="291" y="-69" font-family="Helvetica,sans-Serif" font-size="10.00">utility</text>
</a>
</g>
</g>
<!-- Node1&#45;&gt;Node5 -->
<g id="edge29" class="edge">
<title>Node1&#45;&gt;Node5</title>
<path fill="none" stroke="midnightblue" d="M396.13,-246.5C367.56,-228.93 321.82,-195.96 300,-154 289.86,-134.5 288.68,-108.88 289.34,-91.62"/>
<polygon fill="midnightblue" stroke="midnightblue" points="292.86,-91.37 290,-81.17 285.87,-90.93 292.86,-91.37"/>
</g>
<!-- Node6 -->
<g id="node6" class="node">
<title>Node6</title>
<g id="a_node6"><a xlink:href="helper_8hpp.html" target="_top" xlink:title=" ">
<polygon fill="none" stroke="black" points="149,-190.5 149,-209.5 253,-209.5 253,-190.5 149,-190.5"/>
<text text-anchor="middle" x="201" y="-197.5" font-family="Helvetica,sans-Serif" font-size="10.00">yaclib/util/helper.hpp</text>
</a>
</g>
</g>
<!-- Node1&#45;&gt;Node6 -->
<g id="edge6" class="edge">
<title>Node1&#45;&gt;Node6</title>
<path fill="none" stroke="midnightblue" d="M375.42,-248.17C336.25,-237.58 280.26,-222.44 242.37,-212.19"/>
<polygon fill="midnightblue" stroke="midnightblue" points="243.24,-208.8 232.67,-209.56 241.41,-215.55 243.24,-208.8"/>
</g>
<!-- Node12 -->
<g id="node12" class="node">
<title>Node12</title>
<g id="a_node12"><a xlink:href="intrusive__ptr_8hpp.html" target="_top" xlink:title=" ">
<polygon fill="none" stroke="black" points="487.5,-123.5 487.5,-153.5 584.5,-153.5 584.5,-123.5 487.5,-123.5"/>
<text text-anchor="start" x="495.5" y="-141.5" font-family="Helvetica,sans-Serif" font-size="10.00">yaclib/util/intrusive</text>
<text text-anchor="middle" x="536" y="-130.5" font-family="Helvetica,sans-Serif" font-size="10.00">_ptr.hpp</text>
</a>
</g>
</g>
<!-- Node1&#45;&gt;Node12 -->
<g id="edge26" class="edge">
<title>Node1&#45;&gt;Node12</title>
<path fill="none" stroke="midnightblue" d="M436.3,-246.19C446.81,-236.23 460.98,-222.53 473,-210 488.29,-194.06 504.92,-175.39 517.25,-161.27"/>
<polygon fill="midnightblue" stroke="midnightblue" points="520.05,-163.39 523.97,-153.54 514.77,-158.79 520.05,-163.39"/>
</g>
<!-- Node13 -->
<g id="node13" class="node">
<title>Node13</title>
<g id="a_node13"><a xlink:href="ref_8hpp.html" target="_top" xlink:title=" ">
<polygon fill="none" stroke="black" points="452.5,-62 452.5,-81 541.5,-81 541.5,-62 452.5,-62"/>
<text text-anchor="middle" x="497" y="-69" font-family="Helvetica,sans-Serif" font-size="10.00">yaclib/util/ref.hpp</text>
</a>
</g>
</g>
<!-- Node1&#45;&gt;Node13 -->
<g id="edge27" class="edge">
<title>Node1&#45;&gt;Node13</title>
<path fill="none" stroke="midnightblue" d="M426.71,-246.37C440.29,-212.79 474.46,-128.25 489.59,-90.82"/>
<polygon fill="midnightblue" stroke="midnightblue" points="492.98,-91.79 493.48,-81.21 486.49,-89.17 492.98,-91.79"/>
</g>
<!-- Node3&#45;&gt;Node2 -->
<g id="edge3" class="edge">
<title>Node3&#45;&gt;Node2</title>
<path fill="none" stroke="midnightblue" d="M350.24,-123.2C349.99,-106.06 351.68,-77.01 364,-56 371.5,-43.21 384.13,-32.68 395.6,-25.03"/>
<polygon fill="midnightblue" stroke="midnightblue" points="397.8,-27.78 404.43,-19.52 394.09,-21.84 397.8,-27.78"/>
</g>
<!-- Node3&#45;&gt;Node4 -->
<g id="edge4" class="edge">
<title>Node3&#45;&gt;Node4</title>
<path fill="none" stroke="midnightblue" d="M362.5,-123.4C370.68,-113.36 381.71,-99.84 390.34,-89.25"/>
<polygon fill="midnightblue" stroke="midnightblue" points="393.3,-91.16 396.91,-81.19 387.88,-86.73 393.3,-91.16"/>
</g>
<!-- Node3&#45;&gt;Node5 -->
<g id="edge5" class="edge">
<title>Node3&#45;&gt;Node5</title>
<path fill="none" stroke="midnightblue" d="M337.98,-123.4C328.53,-113.16 315.73,-99.3 305.88,-88.62"/>
<polygon fill="midnightblue" stroke="midnightblue" points="308.38,-86.17 299.03,-81.19 303.24,-90.92 308.38,-86.17"/>
</g>
<!-- Node6&#45;&gt;Node2 -->
<g id="edge7" class="edge">
<title>Node6&#45;&gt;Node2</title>
<path fill="none" stroke="midnightblue" d="M205.86,-190.17C210.71,-181.19 218.26,-166.81 224,-154 243.1,-111.37 227.45,-87.44 262,-56 290.46,-30.1 332.74,-18.99 366.55,-14.28"/>
<polygon fill="midnightblue" stroke="midnightblue" points="367.26,-17.72 376.75,-13.01 366.39,-10.77 367.26,-17.72"/>
</g>
<!-- Node7 -->
<g id="node7" class="node">
<title>Node7</title>
<g id="a_node7"><a xlink:href="atomic_8hpp.html" target="_top" xlink:title=" ">
<polygon fill="none" stroke="black" points="25.5,-62 25.5,-81 138.5,-81 138.5,-62 25.5,-62"/>
<text text-anchor="middle" x="82" y="-69" font-family="Helvetica,sans-Serif" font-size="10.00">yaclib/fault/atomic.hpp</text>
</a>
</g>
</g>
<!-- Node6&#45;&gt;Node7 -->
<g id="edge8" class="edge">
<title>Node6&#45;&gt;Node7</title>
<path fill="none" stroke="midnightblue" d="M163.07,-190.45C142.18,-183.85 117.43,-172.6 102,-154 87.28,-136.25 83.12,-109.3 82.08,-91.31"/>
<polygon fill="midnightblue" stroke="midnightblue" points="85.58,-91.09 81.78,-81.2 78.58,-91.3 85.58,-91.09"/>
</g>
<!-- Node11 -->
<g id="node11" class="node">
<title>Node11</title>
<g id="a_node11"><a xlink:href="atomic__counter_8hpp.html" target="_top" xlink:title=" ">
<polygon fill="none" stroke="black" points="111,-123.5 111,-153.5 215,-153.5 215,-123.5 111,-123.5"/>
<text text-anchor="start" x="119" y="-141.5" font-family="Helvetica,sans-Serif" font-size="10.00">yaclib/util/detail</text>
<text text-anchor="middle" x="163" y="-130.5" font-family="Helvetica,sans-Serif" font-size="10.00">/atomic_counter.hpp</text>
</a>
</g>
</g>
<!-- Node6&#45;&gt;Node11 -->
<g id="edge13" class="edge">
<title>Node6&#45;&gt;Node11</title>
<path fill="none" stroke="midnightblue" d="M195.56,-190.48C190.84,-183.09 183.81,-172.08 177.48,-162.17"/>
<polygon fill="midnightblue" stroke="midnightblue" points="180.29,-160.07 171.96,-153.52 174.39,-163.83 180.29,-160.07"/>
</g>
<!-- Node6&#45;&gt;Node12 -->
<g id="edge18" class="edge">
<title>Node6&#45;&gt;Node12</title>
<path fill="none" stroke="midnightblue" d="M249,-190.48C309.19,-179.78 412.34,-161.46 477.21,-149.94"/>
<polygon fill="midnightblue" stroke="midnightblue" points="478.04,-153.35 487.28,-148.15 476.82,-146.46 478.04,-153.35"/>
</g>
<!-- Node7&#45;&gt;Node2 -->
<g id="edge9" class="edge">
<title>Node7&#45;&gt;Node2</title>
<path fill="none" stroke="midnightblue" d="M130.57,-61.98C193.13,-50.99 301.56,-31.96 366.75,-20.52"/>
<polygon fill="midnightblue" stroke="midnightblue" points="367.59,-23.93 376.83,-18.75 366.38,-17.03 367.59,-23.93"/>
</g>
<!-- Node8 -->
<g id="node8" class="node">
<title>Node8</title>
<g id="a_node8"><a xlink:title=" ">
<polygon fill="none" stroke="#bfbfbf" points="137.5,-0.5 137.5,-19.5 186.5,-19.5 186.5,-0.5 137.5,-0.5"/>
<text text-anchor="middle" x="162" y="-7.5" font-family="Helvetica,sans-Serif" font-size="10.00">cstddef</text>
</a>
</g>
</g>
<!-- Node7&#45;&gt;Node8 -->
<g id="edge10" class="edge">
<title>Node7&#45;&gt;Node8</title>
<path fill="none" stroke="midnightblue" d="M93.46,-61.98C106.17,-52.52 126.91,-37.1 142.25,-25.69"/>
<polygon fill="midnightblue" stroke="midnightblue" points="144.62,-28.29 150.56,-19.51 140.45,-22.67 144.62,-28.29"/>
</g>
<!-- Node9 -->
<g id="node9" class="node">
<title>Node9</title>
<g id="a_node9"><a xlink:title=" ">
<polygon fill="none" stroke="#bfbfbf" points="0,-0.5 0,-19.5 46,-19.5 46,-0.5 0,-0.5"/>
<text text-anchor="middle" x="23" y="-7.5" font-family="Helvetica,sans-Serif" font-size="10.00">cstdint</text>
</a>
</g>
</g>
<!-- Node7&#45;&gt;Node9 -->
<g id="edge11" class="edge">
<title>Node7&#45;&gt;Node9</title>
<path fill="none" stroke="midnightblue" d="M73.55,-61.98C64.43,-52.78 49.73,-37.96 38.52,-26.66"/>
<polygon fill="midnightblue" stroke="midnightblue" points="40.96,-24.15 31.44,-19.51 35.99,-29.07 40.96,-24.15"/>
</g>
<!-- Node10 -->
<g id="node10" class="node">
<title>Node10</title>
<g id="a_node10"><a xlink:title=" ">
<polygon fill="none" stroke="#bfbfbf" points="64,-0.5 64,-19.5 110,-19.5 110,-0.5 64,-0.5"/>
<text text-anchor="middle" x="87" y="-7.5" font-family="Helvetica,sans-Serif" font-size="10.00">atomic</text>
</a>
</g>
</g>
<!-- Node7&#45;&gt;Node10 -->
<g id="edge12" class="edge">
<title>Node7&#45;&gt;Node10</title>
<path fill="none" stroke="midnightblue" d="M82.72,-61.98C83.42,-53.58 84.52,-40.48 85.43,-29.66"/>
<polygon fill="midnightblue" stroke="midnightblue" points="88.94,-29.77 86.28,-19.51 81.96,-29.18 88.94,-29.77"/>
</g>
<!-- Node11&#45;&gt;Node2 -->
<g id="edge14" class="edge">
<title>Node11&#45;&gt;Node2</title>
<path fill="none" stroke="midnightblue" d="M170.53,-123.27C181.08,-104.8 202.01,-72.93 229,-56 270.71,-29.84 326.15,-18.87 366.73,-14.28"/>
<polygon fill="midnightblue" stroke="midnightblue" points="367.12,-17.76 376.71,-13.24 366.4,-10.8 367.12,-17.76"/>
</g>
<!-- Node11&#45;&gt;Node5 -->
<g id="edge17" class="edge">
<title>Node11&#45;&gt;Node5</title>
<path fill="none" stroke="midnightblue" d="M190.77,-123.4C212.94,-112.14 243.74,-96.5 265.33,-85.54"/>
<polygon fill="midnightblue" stroke="midnightblue" points="266.92,-88.66 274.25,-81.01 263.75,-82.41 266.92,-88.66"/>
</g>
<!-- Node11&#45;&gt;Node7 -->
<g id="edge15" class="edge">
<title>Node11&#45;&gt;Node7</title>
<path fill="none" stroke="midnightblue" d="M145.42,-123.4C132.29,-112.86 114.37,-98.48 100.93,-87.69"/>
<polygon fill="midnightblue" stroke="midnightblue" points="102.82,-84.72 92.83,-81.19 98.44,-90.18 102.82,-84.72"/>
</g>
<!-- Node11&#45;&gt;Node8 -->
<g id="edge16" class="edge">
<title>Node11&#45;&gt;Node8</title>
<path fill="none" stroke="midnightblue" d="M162.89,-123.48C162.71,-100.72 162.35,-55.7 162.15,-30.06"/>
<polygon fill="midnightblue" stroke="midnightblue" points="165.65,-29.76 162.07,-19.79 158.65,-29.82 165.65,-29.76"/>
</g>
<!-- Node12&#45;&gt;Node2 -->
<g id="edge19" class="edge">
<title>Node12&#45;&gt;Node2</title>
<path fill="none" stroke="midnightblue" d="M544.42,-123.44C553.65,-106.02 565.35,-76.16 551,-56 533.79,-31.83 502.66,-20.52 475.18,-15.28"/>
<polygon fill="midnightblue" stroke="midnightblue" points="475.7,-11.82 465.26,-13.61 474.54,-18.72 475.7,-11.82"/>
</g>
<!-- Node12&#45;&gt;Node4 -->
<g id="edge22" class="edge">
<title>Node12&#45;&gt;Node4</title>
<path fill="none" stroke="midnightblue" d="M507.36,-123.4C484.5,-112.14 452.74,-96.5 430.48,-85.54"/>
<polygon fill="midnightblue" stroke="midnightblue" points="431.79,-82.28 421.28,-81.01 428.7,-88.56 431.79,-82.28"/>
</g>
<!-- Node12&#45;&gt;Node13 -->
<g id="edge20" class="edge">
<title>Node12&#45;&gt;Node13</title>
<path fill="none" stroke="midnightblue" d="M527.54,-123.4C521.64,-113.56 513.73,-100.38 507.44,-89.89"/>
<polygon fill="midnightblue" stroke="midnightblue" points="510.36,-87.97 502.22,-81.19 504.36,-91.57 510.36,-87.97"/>
</g>
<!-- Node14 -->
<g id="node14" class="node">
<title>Node14</title>
<g id="a_node14"><a xlink:href="intrusive__ptr__impl_8hpp.html" target="_top" xlink:title=" ">
<polygon fill="none" stroke="black" points="641,-56.5 641,-86.5 755,-86.5 755,-56.5 641,-56.5"/>
<text text-anchor="start" x="649" y="-74.5" font-family="Helvetica,sans-Serif" font-size="10.00">yaclib/util/detail</text>
<text text-anchor="middle" x="698" y="-63.5" font-family="Helvetica,sans-Serif" font-size="10.00">/intrusive_ptr_impl.hpp</text>
</a>
</g>
</g>
<!-- Node12&#45;&gt;Node14 -->
<g id="edge23" class="edge">
<title>Node12&#45;&gt;Node14</title>
<path fill="none" stroke="midnightblue" d="M571.15,-123.4C595.25,-113.73 627.41,-100.82 653.32,-90.43"/>
<polygon fill="midnightblue" stroke="midnightblue" points="654.94,-93.55 662.92,-86.58 652.33,-87.05 654.94,-93.55"/>
</g>
<!-- Node13&#45;&gt;Node2 -->
<g id="edge21" class="edge">
<title>Node13&#45;&gt;Node2</title>
<path fill="none" stroke="midnightblue" d="M486.11,-61.98C474.03,-52.52 454.33,-37.1 439.76,-25.69"/>
<polygon fill="midnightblue" stroke="midnightblue" points="441.9,-22.92 431.87,-19.51 437.59,-28.43 441.9,-22.92"/>
</g>
<!-- Node14&#45;&gt;Node2 -->
<g id="edge24" class="edge">
<title>Node14&#45;&gt;Node2</title>
<path fill="none" stroke="midnightblue" d="M640.94,-58.24C590.82,-47.48 518.62,-31.97 470.79,-21.7"/>
<polygon fill="midnightblue" stroke="midnightblue" points="471.49,-18.26 460.97,-19.59 470.02,-25.11 471.49,-18.26"/>
</g>
<!-- Node15 -->
<g id="node15" class="node">
<title>Node15</title>
<g id="a_node15"><a xlink:title=" ">
<polygon fill="none" stroke="#bfbfbf" points="673.5,-0.5 673.5,-19.5 722.5,-19.5 722.5,-0.5 673.5,-0.5"/>
<text text-anchor="middle" x="698" y="-7.5" font-family="Helvetica,sans-Serif" font-size="10.00">cassert</text>
</a>
</g>
</g>
<!-- Node14&#45;&gt;Node15 -->
<g id="edge25" class="edge">
<title>Node14&#45;&gt;Node15</title>
<path fill="none" stroke="midnightblue" d="M698,-56.4C698,-48.47 698,-38.46 698,-29.86"/>
<polygon fill="midnightblue" stroke="midnightblue" points="701.5,-29.66 698,-19.66 694.5,-29.66 701.5,-29.66"/>
</g>
</g>
</svg>
