<?xml version="1.0" encoding="UTF-8" standalone="no"?>
<!DOCTYPE svg PUBLIC "-//W3C//DTD SVG 1.1//EN"
 "http://www.w3.org/Graphics/SVG/1.1/DTD/svg11.dtd">
<!-- Generated by graphviz version 2.50.0 (20220203.2022)
 -->
<!-- Title: include/yaclib/async/future.hpp Pages: 1 -->
<!--zoomable 240 -->
<svg id="main" version="1.1" xmlns="http://www.w3.org/2000/svg" xmlns:xlink="http://www.w3.org/1999/xlink" xml:space="preserve" onload="init(evt)">
<style type="text/css"><![CDATA[
.edge:hover path { stroke: red; }
.edge:hover polygon { stroke: red; fill: red; }
]]></style>
<script type="text/javascript"><![CDATA[
var edges = document.getElementsByTagName('g');
if (edges && edges.length) {
  for (var i=0;i<edges.length;i++) {
    if (edges[i].id.substr(0,4)=='edge') {
      edges[i].setAttribute('class','edge');
    }
  }
}
]]></script>
        <defs>
                <circle id="rim" cx="0" cy="0" r="7"/>
                <circle id="rim2" cx="0" cy="0" r="3.5"/>
                <g id="zoomPlus">
                        <use xlink:href="#rim" fill="#404040">
                                <set attributeName="fill" to="#808080" begin="zoomplus.mouseover" end="zoomplus.mouseout"/>
                        </use>
                        <path d="M-4,0h8M0,-4v8" fill="none" stroke="white" stroke-width="1.5" pointer-events="none"/>
                </g>
                <g id="zoomMin">
                        <use xlink:href="#rim" fill="#404040">
                                <set attributeName="fill" to="#808080" begin="zoomminus.mouseover" end="zoomminus.mouseout"/>
                        </use>
                        <path d="M-4,0h8" fill="none" stroke="white" stroke-width="1.5" pointer-events="none"/>
                </g>
                <g id="dirArrow">
                        <path fill="none" stroke="white" stroke-width="1.5" d="M0,-3.0v7 M-2.5,-0.5L0,-3.0L2.5,-0.5"/>
                </g>
               <g id="resetDef">
                       <use xlink:href="#rim2" fill="#404040">
                               <set attributeName="fill" to="#808080" begin="reset.mouseover" end="reset.mouseout"/>
                       </use>
               </g>
        </defs>

<script type="text/javascript">
var viewWidth = 1824;
var viewHeight = 240;
var sectionId = 'dynsection-1';
</script>
<script xlink:href="svgpan.js"/>
<svg id="graph" class="graph">
<g id="viewport">
<title>include/yaclib/async/future.hpp</title>
<!-- Node1 -->
<g id="node1" class="node">
<title>Node1</title>
<g id="a_node1"><a xlink:title=" ">
<polygon fill="#bfbfbf" stroke="black" points="851.5,-201.5 851.5,-231.5 955.5,-231.5 955.5,-201.5 851.5,-201.5"/>
<text text-anchor="start" x="859.5" y="-219.5" font-family="Helvetica,sans-Serif" font-size="10.00">include/yaclib/async</text>
<text text-anchor="middle" x="903.5" y="-208.5" font-family="Helvetica,sans-Serif" font-size="10.00">/future.hpp</text>
</a>
</g>
</g>
<!-- Node2 -->
<g id="node2" class="node">
<title>Node2</title>
<g id="a_node2"><a xlink:href="when__all__impl_8hpp.html" target="_top" xlink:title=" ">
<polygon fill="none" stroke="black" points="316,-134.5 316,-164.5 441,-164.5 441,-134.5 316,-134.5"/>
<text text-anchor="start" x="324" y="-152.5" font-family="Helvetica,sans-Serif" font-size="10.00">include/yaclib/algo</text>
<text text-anchor="middle" x="378.5" y="-141.5" font-family="Helvetica,sans-Serif" font-size="10.00">/detail/when_all_impl.hpp</text>
</a>
</g>
</g>
<!-- Node1&#45;&gt;Node2 -->
<g id="edge1" class="edge">
<title>Node1&#45;&gt;Node2</title>
<path fill="none" stroke="midnightblue" d="M841.06,-209.93C754.31,-201.86 592.54,-185.6 455.5,-165 450.79,-164.29 445.93,-163.51 441.05,-162.68"/>
<polygon fill="midnightblue" stroke="midnightblue" points="840.98,-213.44 851.26,-210.87 841.62,-206.47 840.98,-213.44"/>
</g>
<!-- Node3 -->
<g id="node3" class="node">
<title>Node3</title>
<g id="a_node3"><a xlink:href="when__all_8hpp.html" target="_top" xlink:title=" ">
<polygon fill="none" stroke="black" points="338.5,-67.5 338.5,-97.5 434.5,-97.5 434.5,-67.5 338.5,-67.5"/>
<text text-anchor="start" x="346.5" y="-85.5" font-family="Helvetica,sans-Serif" font-size="10.00">include/yaclib/algo</text>
<text text-anchor="middle" x="386.5" y="-74.5" font-family="Helvetica,sans-Serif" font-size="10.00">/when_all.hpp</text>
</a>
</g>
</g>
<!-- Node1&#45;&gt;Node3 -->
<g id="edge17" class="edge">
<title>Node1&#45;&gt;Node3</title>
<path fill="none" stroke="midnightblue" d="M841.21,-212.09C741.45,-205.94 550.71,-191.13 488.5,-165 487.89,-164.74 433.16,-120.91 404.14,-97.64"/>
<polygon fill="midnightblue" stroke="midnightblue" points="841.26,-215.6 851.45,-212.71 841.68,-208.61 841.26,-215.6"/>
</g>
<!-- Node5 -->
<g id="node5" class="node">
<title>Node5</title>
<g id="a_node5"><a xlink:href="when__any__impl_8hpp.html" target="_top" xlink:title=" ">
<polygon fill="none" stroke="black" points="0,-134.5 0,-164.5 131,-164.5 131,-134.5 0,-134.5"/>
<text text-anchor="start" x="8" y="-152.5" font-family="Helvetica,sans-Serif" font-size="10.00">include/yaclib/algo</text>
<text text-anchor="middle" x="65.5" y="-141.5" font-family="Helvetica,sans-Serif" font-size="10.00">/detail/when_any_impl.hpp</text>
</a>
</g>
</g>
<!-- Node1&#45;&gt;Node5 -->
<g id="edge4" class="edge">
<title>Node1&#45;&gt;Node5</title>
<path fill="none" stroke="midnightblue" d="M841.24,-213.73C711.44,-209.51 402.62,-196.76 145.5,-165 140.88,-164.43 136.12,-163.76 131.33,-163.04"/>
<polygon fill="midnightblue" stroke="midnightblue" points="841.28,-217.23 851.38,-214.05 841.5,-210.24 841.28,-217.23"/>
</g>
<!-- Node6 -->
<g id="node6" class="node">
<title>Node6</title>
<g id="a_node6"><a xlink:href="when__any_8hpp.html" target="_top" xlink:title=" ">
<polygon fill="none" stroke="black" points="153.5,-67.5 153.5,-97.5 249.5,-97.5 249.5,-67.5 153.5,-67.5"/>
<text text-anchor="start" x="161.5" y="-85.5" font-family="Helvetica,sans-Serif" font-size="10.00">include/yaclib/algo</text>
<text text-anchor="middle" x="201.5" y="-74.5" font-family="Helvetica,sans-Serif" font-size="10.00">/when_any.hpp</text>
</a>
</g>
</g>
<!-- Node1&#45;&gt;Node6 -->
<g id="edge18" class="edge">
<title>Node1&#45;&gt;Node6</title>
<path fill="none" stroke="midnightblue" d="M841.36,-215.9C673.98,-216.33 223.26,-212.98 178.5,-165 161.15,-146.4 177.75,-115.72 190.34,-97.78"/>
<polygon fill="midnightblue" stroke="midnightblue" points="841.51,-219.4 851.5,-215.87 841.48,-212.4 841.51,-219.4"/>
</g>
<!-- Node8 -->
<g id="node8" class="node">
<title>Node8</title>
<g id="a_node8"><a xlink:href="when__impl_8hpp.html" target="_top" xlink:title=" ">
<polygon fill="none" stroke="black" points="187.5,-134.5 187.5,-164.5 297.5,-164.5 297.5,-134.5 187.5,-134.5"/>
<text text-anchor="start" x="195.5" y="-152.5" font-family="Helvetica,sans-Serif" font-size="10.00">include/yaclib/algo</text>
<text text-anchor="middle" x="242.5" y="-141.5" font-family="Helvetica,sans-Serif" font-size="10.00">/detail/when_impl.hpp</text>
</a>
</g>
</g>
<!-- Node1&#45;&gt;Node8 -->
<g id="edge7" class="edge">
<title>Node1&#45;&gt;Node8</title>
<path fill="none" stroke="midnightblue" d="M841.15,-213.07C732.17,-208.19 500.18,-194.98 306.5,-165 303.57,-164.55 300.58,-164.04 297.57,-163.48"/>
<polygon fill="midnightblue" stroke="midnightblue" points="841.16,-216.57 851.31,-213.52 841.47,-209.58 841.16,-216.57"/>
</g>
<!-- Node9 -->
<g id="node9" class="node">
<title>Node9</title>
<g id="a_node9"><a xlink:href="wait_8hpp.html" target="_top" xlink:title=" ">
<polygon fill="none" stroke="black" points="779.5,-134.5 779.5,-164.5 875.5,-164.5 875.5,-134.5 779.5,-134.5"/>
<text text-anchor="start" x="787.5" y="-152.5" font-family="Helvetica,sans-Serif" font-size="10.00">include/yaclib/algo</text>
<text text-anchor="middle" x="827.5" y="-141.5" font-family="Helvetica,sans-Serif" font-size="10.00">/wait.hpp</text>
</a>
</g>
</g>
<!-- Node1&#45;&gt;Node9 -->
<g id="edge10" class="edge">
<title>Node1&#45;&gt;Node9</title>
<path fill="none" stroke="midnightblue" d="M879.39,-194.88C867.84,-185.01 854.31,-173.43 843.96,-164.58"/>
<polygon fill="midnightblue" stroke="midnightblue" points="877.13,-197.56 887.01,-201.4 881.68,-192.24 877.13,-197.56"/>
</g>
<!-- Node11 -->
<g id="node11" class="node">
<title>Node11</title>
<g id="a_node11"><a xlink:href="wait__for_8hpp.html" target="_top" xlink:title=" ">
<polygon fill="none" stroke="black" points="931.5,-134.5 931.5,-164.5 1027.5,-164.5 1027.5,-134.5 931.5,-134.5"/>
<text text-anchor="start" x="939.5" y="-152.5" font-family="Helvetica,sans-Serif" font-size="10.00">include/yaclib/algo</text>
<text text-anchor="middle" x="979.5" y="-141.5" font-family="Helvetica,sans-Serif" font-size="10.00">/wait_for.hpp</text>
</a>
</g>
</g>
<!-- Node1&#45;&gt;Node11 -->
<g id="edge13" class="edge">
<title>Node1&#45;&gt;Node11</title>
<path fill="none" stroke="midnightblue" d="M927.61,-194.88C939.16,-185.01 952.69,-173.43 963.04,-164.58"/>
<polygon fill="midnightblue" stroke="midnightblue" points="925.32,-192.24 919.99,-201.4 929.87,-197.56 925.32,-192.24"/>
</g>
<!-- Node12 -->
<g id="node12" class="node">
<title>Node12</title>
<g id="a_node12"><a xlink:href="wait__group_8hpp.html" target="_top" xlink:title=" ">
<polygon fill="none" stroke="black" points="1045.5,-134.5 1045.5,-164.5 1141.5,-164.5 1141.5,-134.5 1045.5,-134.5"/>
<text text-anchor="start" x="1053.5" y="-152.5" font-family="Helvetica,sans-Serif" font-size="10.00">include/yaclib/algo</text>
<text text-anchor="middle" x="1093.5" y="-141.5" font-family="Helvetica,sans-Serif" font-size="10.00">/wait_group.hpp</text>
</a>
</g>
</g>
<!-- Node1&#45;&gt;Node12 -->
<g id="edge14" class="edge">
<title>Node1&#45;&gt;Node12</title>
<path fill="none" stroke="midnightblue" d="M954.39,-198.09C985.06,-187.6 1023.61,-174.41 1052.35,-164.58"/>
<polygon fill="midnightblue" stroke="midnightblue" points="953.06,-194.85 944.73,-201.4 955.32,-201.47 953.06,-194.85"/>
</g>
<!-- Node14 -->
<g id="node14" class="node">
<title>Node14</title>
<g id="a_node14"><a xlink:href="wait__until_8hpp.html" target="_top" xlink:title=" ">
<polygon fill="none" stroke="black" points="1159.5,-134.5 1159.5,-164.5 1255.5,-164.5 1255.5,-134.5 1159.5,-134.5"/>
<text text-anchor="start" x="1167.5" y="-152.5" font-family="Helvetica,sans-Serif" font-size="10.00">include/yaclib/algo</text>
<text text-anchor="middle" x="1207.5" y="-141.5" font-family="Helvetica,sans-Serif" font-size="10.00">/wait_until.hpp</text>
</a>
</g>
</g>
<!-- Node1&#45;&gt;Node14 -->
<g id="edge16" class="edge">
<title>Node1&#45;&gt;Node14</title>
<path fill="none" stroke="midnightblue" d="M965.72,-203.63C1015.77,-193.87 1087.84,-179.37 1150.5,-165 1153.39,-164.34 1156.35,-163.64 1159.34,-162.92"/>
<polygon fill="midnightblue" stroke="midnightblue" points="964.85,-200.23 955.7,-205.57 966.18,-207.1 964.85,-200.23"/>
</g>
<!-- Node15 -->
<g id="node15" class="node">
<title>Node15</title>
<g id="a_node15"><a xlink:href="contract_8hpp.html" target="_top" xlink:title=" ">
<polygon fill="none" stroke="black" points="657.5,-134.5 657.5,-164.5 761.5,-164.5 761.5,-134.5 657.5,-134.5"/>
<text text-anchor="start" x="665.5" y="-152.5" font-family="Helvetica,sans-Serif" font-size="10.00">include/yaclib/async</text>
<text text-anchor="middle" x="709.5" y="-141.5" font-family="Helvetica,sans-Serif" font-size="10.00">/contract.hpp</text>
</a>
</g>
</g>
<!-- Node1&#45;&gt;Node15 -->
<g id="edge19" class="edge">
<title>Node1&#45;&gt;Node15</title>
<path fill="none" stroke="midnightblue" d="M851.54,-198.09C820.23,-187.6 780.86,-174.41 751.51,-164.58"/>
<polygon fill="midnightblue" stroke="midnightblue" points="850.81,-201.54 861.4,-201.4 853.03,-194.9 850.81,-201.54"/>
</g>
<!-- Node16 -->
<g id="node16" class="node">
<title>Node16</title>
<g id="a_node16"><a xlink:href="simple_8cpp.html" target="_top" xlink:title=" ">
<polygon fill="none" stroke="black" points="579,-67.5 579,-97.5 680,-97.5 680,-67.5 579,-67.5"/>
<text text-anchor="start" x="587" y="-85.5" font-family="Helvetica,sans-Serif" font-size="10.00">test/example/async</text>
<text text-anchor="middle" x="629.5" y="-74.5" font-family="Helvetica,sans-Serif" font-size="10.00">/simple.cpp</text>
</a>
</g>
</g>
<!-- Node1&#45;&gt;Node16 -->
<g id="edge35" class="edge">
<title>Node1&#45;&gt;Node16</title>
<path fill="none" stroke="midnightblue" d="M840.94,-210.8C774.51,-204.52 675.41,-191.02 648.5,-165 630.22,-147.33 628.06,-115.73 628.51,-97.51"/>
<polygon fill="midnightblue" stroke="midnightblue" points="841.03,-214.33 851.31,-211.75 841.67,-207.36 841.03,-214.33"/>
</g>
<!-- Node17 -->
<g id="node17" class="node">
<title>Node17</title>
<g id="a_node17"><a xlink:href="run_8hpp.html" target="_top" xlink:title=" ">
<polygon fill="none" stroke="black" points="497.5,-134.5 497.5,-164.5 601.5,-164.5 601.5,-134.5 497.5,-134.5"/>
<text text-anchor="start" x="505.5" y="-152.5" font-family="Helvetica,sans-Serif" font-size="10.00">include/yaclib/async</text>
<text text-anchor="middle" x="549.5" y="-141.5" font-family="Helvetica,sans-Serif" font-size="10.00">/run.hpp</text>
</a>
</g>
</g>
<!-- Node1&#45;&gt;Node17 -->
<g id="edge21" class="edge">
<title>Node1&#45;&gt;Node17</title>
<path fill="none" stroke="midnightblue" d="M841.17,-205.36C782.74,-195.67 693.02,-180.3 615.5,-165 611.01,-164.11 606.36,-163.16 601.7,-162.18"/>
<polygon fill="midnightblue" stroke="midnightblue" points="840.91,-208.86 851.35,-207.04 842.05,-201.96 840.91,-208.86"/>
</g>
<!-- Node18 -->
<g id="node18" class="node">
<title>Node18</title>
<g id="a_node18"><a xlink:href="await_8hpp.html" target="_top" xlink:title=" ">
<polygon fill="none" stroke="black" points="1269.5,-67.5 1269.5,-97.5 1387.5,-97.5 1387.5,-67.5 1269.5,-67.5"/>
<text text-anchor="start" x="1277.5" y="-85.5" font-family="Helvetica,sans-Serif" font-size="10.00">include/yaclib/coroutine</text>
<text text-anchor="middle" x="1328.5" y="-74.5" font-family="Helvetica,sans-Serif" font-size="10.00">/await.hpp</text>
</a>
</g>
</g>
<!-- Node1&#45;&gt;Node18 -->
<g id="edge25" class="edge">
<title>Node1&#45;&gt;Node18</title>
<path fill="none" stroke="midnightblue" d="M965.84,-212.37C1055.33,-206.95 1214.92,-193.52 1264.5,-165 1291.95,-149.21 1311.9,-116.61 1321.7,-97.78"/>
<polygon fill="midnightblue" stroke="midnightblue" points="965.59,-208.88 955.81,-212.96 966,-215.87 965.59,-208.88"/>
</g>
<!-- Node19 -->
<g id="node19" class="node">
<title>Node19</title>
<g id="a_node19"><a xlink:href="coroutine__deleter_8hpp.html" target="_top" xlink:title=" ">
<polygon fill="none" stroke="black" points="1531.5,-134.5 1531.5,-164.5 1669.5,-164.5 1669.5,-134.5 1531.5,-134.5"/>
<text text-anchor="start" x="1539.5" y="-152.5" font-family="Helvetica,sans-Serif" font-size="10.00">include/yaclib/coroutine</text>
<text text-anchor="middle" x="1600.5" y="-141.5" font-family="Helvetica,sans-Serif" font-size="10.00">/detail/coroutine_deleter.hpp</text>
</a>
</g>
</g>
<!-- Node1&#45;&gt;Node19 -->
<g id="edge26" class="edge">
<title>Node1&#45;&gt;Node19</title>
<path fill="none" stroke="midnightblue" d="M965.86,-212.25C1077.02,-206.04 1316.63,-190.75 1517.5,-165 1522,-164.42 1526.62,-163.77 1531.28,-163.08"/>
<polygon fill="midnightblue" stroke="midnightblue" points="965.62,-208.76 955.83,-212.8 966,-215.75 965.62,-208.76"/>
</g>
<!-- Node20 -->
<g id="node20" class="node">
<title>Node20</title>
<g id="a_node20"><a xlink:href="promise__type_8hpp.html" target="_top" xlink:title=" ">
<polygon fill="none" stroke="black" points="1493.5,-67.5 1493.5,-97.5 1615.5,-97.5 1615.5,-67.5 1493.5,-67.5"/>
<text text-anchor="start" x="1501.5" y="-85.5" font-family="Helvetica,sans-Serif" font-size="10.00">include/yaclib/coroutine</text>
<text text-anchor="middle" x="1554.5" y="-74.5" font-family="Helvetica,sans-Serif" font-size="10.00">/detail/promise_type.hpp</text>
</a>
</g>
</g>
<!-- Node1&#45;&gt;Node20 -->
<g id="edge32" class="edge">
<title>Node1&#45;&gt;Node20</title>
<path fill="none" stroke="midnightblue" d="M965.76,-215.65C1095.58,-215.06 1390.49,-208.79 1479.5,-165 1510.04,-149.98 1534.2,-116.77 1546.21,-97.7"/>
<polygon fill="midnightblue" stroke="midnightblue" points="965.57,-212.15 955.59,-215.69 965.6,-219.15 965.57,-212.15"/>
</g>
<!-- Node21 -->
<g id="node21" class="node">
<title>Node21</title>
<g id="a_node21"><a xlink:href="future__coro__traits_8hpp.html" target="_top" xlink:title=" ">
<polygon fill="none" stroke="black" points="1495.5,-0.5 1495.5,-30.5 1613.5,-30.5 1613.5,-0.5 1495.5,-0.5"/>
<text text-anchor="start" x="1503.5" y="-18.5" font-family="Helvetica,sans-Serif" font-size="10.00">include/yaclib/coroutine</text>
<text text-anchor="middle" x="1554.5" y="-7.5" font-family="Helvetica,sans-Serif" font-size="10.00">/future_coro_traits.hpp</text>
</a>
</g>
</g>
<!-- Node1&#45;&gt;Node21 -->
<g id="edge33" class="edge">
<title>Node1&#45;&gt;Node21</title>
<path fill="none" stroke="midnightblue" d="M966.06,-213.35C1100.7,-208.2 1408.85,-193.43 1446.5,-165 1483.78,-136.85 1455.94,-103.97 1484.5,-67 1496.14,-51.94 1513.45,-39.39 1527.95,-30.57"/>
<polygon fill="midnightblue" stroke="midnightblue" points="965.76,-209.86 955.89,-213.73 966.02,-216.85 965.76,-209.86"/>
</g>
<!-- Node22 -->
<g id="node22" class="node">
<title>Node22</title>
<g id="a_node22"><a xlink:href="future__awaiter_8hpp.html" target="_top" xlink:title=" ">
<polygon fill="none" stroke="black" points="1312,-134.5 1312,-164.5 1437,-164.5 1437,-134.5 1312,-134.5"/>
<text text-anchor="start" x="1320" y="-152.5" font-family="Helvetica,sans-Serif" font-size="10.00">include/yaclib/coroutine</text>
<text text-anchor="middle" x="1374.5" y="-141.5" font-family="Helvetica,sans-Serif" font-size="10.00">/detail/future_awaiter.hpp</text>
</a>
</g>
</g>
<!-- Node1&#45;&gt;Node22 -->
<g id="edge30" class="edge">
<title>Node1&#45;&gt;Node22</title>
<path fill="none" stroke="midnightblue" d="M965.69,-208.67C1043.48,-199.87 1180.65,-183.47 1297.5,-165 1302.2,-164.26 1307.06,-163.45 1311.94,-162.6"/>
<polygon fill="midnightblue" stroke="midnightblue" points="965.13,-205.21 955.58,-209.81 965.91,-212.17 965.13,-205.21"/>
</g>
<!-- Node23 -->
<g id="node23" class="node">
<title>Node23</title>
<g id="a_node23"><a xlink:href="future__impl_8cpp.html" target="_top" xlink:title=" ">
<polygon fill="none" stroke="black" points="1687.5,-140 1687.5,-159 1815.5,-159 1815.5,-140 1687.5,-140"/>
<text text-anchor="middle" x="1751.5" y="-147" font-family="Helvetica,sans-Serif" font-size="10.00">src/async/future_impl.cpp</text>
</a>
</g>
</g>
<!-- Node1&#45;&gt;Node23 -->
<g id="edge34" class="edge">
<title>Node1&#45;&gt;Node23</title>
<path fill="none" stroke="midnightblue" d="M966.22,-214.2C1098.43,-210.84 1415.25,-199.57 1678.5,-165 1689.9,-163.5 1702.2,-161.29 1713.39,-159.05"/>
<polygon fill="midnightblue" stroke="midnightblue" points="965.8,-210.71 955.89,-214.45 965.97,-217.7 965.8,-210.71"/>
</g>
<!-- Node2&#45;&gt;Node3 -->
<g id="edge2" class="edge">
<title>Node2&#45;&gt;Node3</title>
<path fill="none" stroke="midnightblue" d="M381.47,-124.4C382.58,-115.37 383.8,-105.41 384.77,-97.58"/>
<polygon fill="midnightblue" stroke="midnightblue" points="377.98,-124.04 380.24,-134.4 384.93,-124.9 377.98,-124.04"/>
</g>
<!-- Node4 -->
<g id="node4" class="node">
<title>Node4</title>
<g id="a_node4"><a xlink:href="when__all_8cpp.html" target="_top" xlink:title=" ">
<polygon fill="none" stroke="black" points="435,-0.5 435,-30.5 536,-30.5 536,-0.5 435,-0.5"/>
<text text-anchor="start" x="443" y="-18.5" font-family="Helvetica,sans-Serif" font-size="10.00">test/example/async</text>
<text text-anchor="middle" x="485.5" y="-7.5" font-family="Helvetica,sans-Serif" font-size="10.00">/when_all.cpp</text>
</a>
</g>
</g>
<!-- Node3&#45;&gt;Node4 -->
<g id="edge3" class="edge">
<title>Node3&#45;&gt;Node4</title>
<path fill="none" stroke="midnightblue" d="M416.61,-61.73C431.92,-51.68 450.19,-39.68 464.06,-30.58"/>
<polygon fill="midnightblue" stroke="midnightblue" points="414.42,-58.98 407.98,-67.4 418.26,-64.83 414.42,-58.98"/>
</g>
<!-- Node5&#45;&gt;Node6 -->
<g id="edge5" class="edge">
<title>Node5&#45;&gt;Node6</title>
<path fill="none" stroke="midnightblue" d="M104.22,-129.99C125.78,-119.69 152.19,-107.07 172.05,-97.58"/>
<polygon fill="midnightblue" stroke="midnightblue" points="102.52,-126.93 95.01,-134.4 105.54,-133.24 102.52,-126.93"/>
</g>
<!-- Node7 -->
<g id="node7" class="node">
<title>Node7</title>
<g id="a_node7"><a xlink:href="when__any_8cpp.html" target="_top" xlink:title=" ">
<polygon fill="none" stroke="black" points="251,-0.5 251,-30.5 352,-30.5 352,-0.5 251,-0.5"/>
<text text-anchor="start" x="259" y="-18.5" font-family="Helvetica,sans-Serif" font-size="10.00">test/example/async</text>
<text text-anchor="middle" x="301.5" y="-7.5" font-family="Helvetica,sans-Serif" font-size="10.00">/when_any.cpp</text>
</a>
</g>
</g>
<!-- Node6&#45;&gt;Node7 -->
<g id="edge6" class="edge">
<title>Node6&#45;&gt;Node7</title>
<path fill="none" stroke="midnightblue" d="M231.91,-61.73C247.38,-51.68 265.83,-39.68 279.84,-30.58"/>
<polygon fill="midnightblue" stroke="midnightblue" points="229.68,-59.01 223.2,-67.4 233.49,-64.88 229.68,-59.01"/>
</g>
<!-- Node8&#45;&gt;Node3 -->
<g id="edge8" class="edge">
<title>Node8&#45;&gt;Node3</title>
<path fill="none" stroke="midnightblue" d="M282.89,-130.27C305.82,-119.92 334.1,-107.15 355.32,-97.58"/>
<polygon fill="midnightblue" stroke="midnightblue" points="281.42,-127.09 273.75,-134.4 284.3,-133.47 281.42,-127.09"/>
</g>
<!-- Node8&#45;&gt;Node6 -->
<g id="edge9" class="edge">
<title>Node8&#45;&gt;Node6</title>
<path fill="none" stroke="midnightblue" d="M228.22,-125.87C222.29,-116.46 215.59,-105.83 210.38,-97.58"/>
<polygon fill="midnightblue" stroke="midnightblue" points="225.31,-127.81 233.6,-134.4 231.23,-124.07 225.31,-127.81"/>
</g>
<!-- Node10 -->
<g id="node10" class="node">
<title>Node10</title>
<g id="a_node10"><a xlink:href="future__impl_8hpp.html" target="_top" xlink:title=" ">
<polygon fill="none" stroke="black" points="809.5,-67.5 809.5,-97.5 921.5,-97.5 921.5,-67.5 809.5,-67.5"/>
<text text-anchor="start" x="817.5" y="-85.5" font-family="Helvetica,sans-Serif" font-size="10.00">include/yaclib/async</text>
<text text-anchor="middle" x="865.5" y="-74.5" font-family="Helvetica,sans-Serif" font-size="10.00">/detail/future_impl.hpp</text>
</a>
</g>
</g>
<!-- Node9&#45;&gt;Node10 -->
<g id="edge11" class="edge">
<title>Node9&#45;&gt;Node10</title>
<path fill="none" stroke="midnightblue" d="M840.9,-125.58C846.36,-116.24 852.49,-105.75 857.27,-97.58"/>
<polygon fill="midnightblue" stroke="midnightblue" points="837.77,-124 835.75,-134.4 843.81,-127.53 837.77,-124"/>
</g>
<!-- Node10&#45;&gt;Node1 -->
<g id="edge12" class="edge">
<title>Node10&#45;&gt;Node1</title>
<path fill="none" stroke="midnightblue" d="M875.22,-107.4C878.42,-115.73 881.83,-125.21 884.5,-134 891.54,-157.22 897.48,-184.83 900.76,-201.22"/>
<polygon fill="midnightblue" stroke="midnightblue" points="878.41,-105.94 871.5,-97.91 871.9,-108.5 878.41,-105.94"/>
</g>
<!-- Node13 -->
<g id="node13" class="node">
<title>Node13</title>
<g id="a_node13"><a xlink:href="wait__group_8cpp.html" target="_top" xlink:title=" ">
<polygon fill="none" stroke="black" points="1034,-73 1034,-92 1153,-92 1153,-73 1034,-73"/>
<text text-anchor="middle" x="1093.5" y="-80" font-family="Helvetica,sans-Serif" font-size="10.00">src/algo/wait_group.cpp</text>
</a>
</g>
</g>
<!-- Node12&#45;&gt;Node13 -->
<g id="edge15" class="edge">
<title>Node12&#45;&gt;Node13</title>
<path fill="none" stroke="midnightblue" d="M1093.5,-124.25C1093.5,-113.02 1093.5,-100.38 1093.5,-92.19"/>
<polygon fill="midnightblue" stroke="midnightblue" points="1090,-124.4 1093.5,-134.4 1097,-124.4 1090,-124.4"/>
</g>
<!-- Node15&#45;&gt;Node16 -->
<g id="edge20" class="edge">
<title>Node15&#45;&gt;Node16</title>
<path fill="none" stroke="midnightblue" d="M684.13,-127.88C671.97,-118.01 657.72,-106.43 646.82,-97.58"/>
<polygon fill="midnightblue" stroke="midnightblue" points="682.17,-130.81 692.14,-134.4 686.59,-125.37 682.17,-130.81"/>
</g>
<!-- Node17&#45;&gt;Node4 -->
<g id="edge23" class="edge">
<title>Node17&#45;&gt;Node4</title>
<path fill="none" stroke="midnightblue" d="M538.16,-125.12C524.86,-97.68 503.24,-53.09 492.3,-30.52"/>
<polygon fill="midnightblue" stroke="midnightblue" points="535.14,-126.9 542.65,-134.37 541.44,-123.85 535.14,-126.9"/>
</g>
<!-- Node17&#45;&gt;Node7 -->
<g id="edge24" class="edge">
<title>Node17&#45;&gt;Node7</title>
<path fill="none" stroke="midnightblue" d="M526.87,-127.69C506.35,-109.69 474.64,-83.95 443.5,-67 414.66,-51.3 379.97,-38.85 352.1,-30.25"/>
<polygon fill="midnightblue" stroke="midnightblue" points="524.62,-130.38 534.42,-134.41 529.28,-125.15 524.62,-130.38"/>
</g>
<!-- Node17&#45;&gt;Node16 -->
<g id="edge22" class="edge">
<title>Node17&#45;&gt;Node16</title>
<path fill="none" stroke="midnightblue" d="M574.87,-127.88C587.03,-118.01 601.28,-106.43 612.18,-97.58"/>
<polygon fill="midnightblue" stroke="midnightblue" points="572.41,-125.37 566.86,-134.4 576.83,-130.81 572.41,-125.37"/>
</g>
<!-- Node19&#45;&gt;Node20 -->
<g id="edge27" class="edge">
<title>Node19&#45;&gt;Node20</title>
<path fill="none" stroke="midnightblue" d="M1584.69,-126.16C1577.98,-116.68 1570.37,-105.92 1564.46,-97.58"/>
<polygon fill="midnightblue" stroke="midnightblue" points="1581.88,-128.26 1590.52,-134.4 1587.6,-124.21 1581.88,-128.26"/>
</g>
<!-- Node19&#45;&gt;Node21 -->
<g id="edge29" class="edge">
<title>Node19&#45;&gt;Node21</title>
<path fill="none" stroke="midnightblue" d="M1616.1,-125.71C1625.54,-108.88 1634.08,-85.72 1624.5,-67 1616.31,-50.99 1600.42,-38.89 1585.84,-30.56"/>
<polygon fill="midnightblue" stroke="midnightblue" points="1613.05,-123.98 1610.87,-134.35 1619.04,-127.61 1613.05,-123.98"/>
</g>
<!-- Node20&#45;&gt;Node21 -->
<g id="edge28" class="edge">
<title>Node20&#45;&gt;Node21</title>
<path fill="none" stroke="midnightblue" d="M1554.5,-57.11C1554.5,-48.15 1554.5,-38.32 1554.5,-30.58"/>
<polygon fill="midnightblue" stroke="midnightblue" points="1551,-57.4 1554.5,-67.4 1558,-57.4 1551,-57.4"/>
</g>
<!-- Node22&#45;&gt;Node18 -->
<g id="edge31" class="edge">
<title>Node22&#45;&gt;Node18</title>
<path fill="none" stroke="midnightblue" d="M1358.69,-126.16C1351.98,-116.68 1344.37,-105.92 1338.46,-97.58"/>
<polygon fill="midnightblue" stroke="midnightblue" points="1355.88,-128.26 1364.52,-134.4 1361.6,-124.21 1355.88,-128.26"/>
</g>
</g>
</svg>
        <g id="navigator" transform="translate(0 0)" fill="#404254">
                <rect fill="#f2f5e9" fill-opacity="0.5" stroke="#606060" stroke-width=".5" x="0" y="0" width="60" height="60"/>
                <use id="zoomplus" xlink:href="#zoomPlus" x="17" y="9" onmousedown="handleZoom(evt,'in')"/>
                <use id="zoomminus" xlink:href="#zoomMin" x="42" y="9" onmousedown="handleZoom(evt,'out')"/>
                <use id="reset" xlink:href="#resetDef" x="30" y="36" onmousedown="handleReset()"/>
                <g id="arrowUp" xlink:href="#dirArrow" transform="translate(30 24)" onmousedown="handlePan(0,-1)">
                  <use xlink:href="#rim" fill="#404040">
                        <set attributeName="fill" to="#808080" begin="arrowUp.mouseover" end="arrowUp.mouseout"/>
                  </use>
                  <path fill="none" stroke="white" stroke-width="1.5" d="M0,-3.0v7 M-2.5,-0.5L0,-3.0L2.5,-0.5"/>
                </g>
                <g id="arrowRight" xlink:href="#dirArrow" transform="rotate(90) translate(36 -43)" onmousedown="handlePan(1,0)">
                  <use xlink:href="#rim" fill="#404040">
                        <set attributeName="fill" to="#808080" begin="arrowRight.mouseover" end="arrowRight.mouseout"/>
                  </use>
                  <path fill="none" stroke="white" stroke-width="1.5" d="M0,-3.0v7 M-2.5,-0.5L0,-3.0L2.5,-0.5"/>
                </g>
                <g id="arrowDown" xlink:href="#dirArrow" transform="rotate(180) translate(-30 -48)" onmousedown="handlePan(0,1)">
                  <use xlink:href="#rim" fill="#404040">
                        <set attributeName="fill" to="#808080" begin="arrowDown.mouseover" end="arrowDown.mouseout"/>
                  </use>
                  <path fill="none" stroke="white" stroke-width="1.5" d="M0,-3.0v7 M-2.5,-0.5L0,-3.0L2.5,-0.5"/>
                </g>
                <g id="arrowLeft" xlink:href="#dirArrow" transform="rotate(270) translate(-36 17)" onmousedown="handlePan(-1,0)">
                  <use xlink:href="#rim" fill="#404040">
                        <set attributeName="fill" to="#808080" begin="arrowLeft.mouseover" end="arrowLeft.mouseout"/>
                  </use>
                  <path fill="none" stroke="white" stroke-width="1.5" d="M0,-3.0v7 M-2.5,-0.5L0,-3.0L2.5,-0.5"/>
                </g>
        </g>
        <svg viewBox="0 0 15 15" width="100%" height="30px" preserveAspectRatio="xMaxYMin meet">
         <g id="arrow_out" transform="scale(0.3 0.3)">
          <a xlink:href="future_8hpp__dep__incl_org.svg" target="_base">
           <rect id="button" ry="5" rx="5" y="6" x="6" height="38" width="38"
                fill="#f2f5e9" fill-opacity="0.5" stroke="#606060" stroke-width="1.0"/>
           <path id="arrow"
             d="M 11.500037,31.436501 C 11.940474,20.09759 22.043105,11.32322 32.158766,21.979434 L 37.068811,17.246167 C 37.068811,17.246167 37.088388,32 37.088388,32 L 22.160133,31.978069 C 22.160133,31.978069 26.997745,27.140456 26.997745,27.140456 C 18.528582,18.264221 13.291696,25.230495 11.500037,31.436501 z"
             style="fill:#404040;"/>
          </a>
         </g>
        </svg>
</svg>
