<?xml version="1.0" encoding="UTF-8" standalone="no"?>
<!DOCTYPE svg PUBLIC "-//W3C//DTD SVG 1.1//EN"
 "http://www.w3.org/Graphics/SVG/1.1/DTD/svg11.dtd">
<!-- Generated by graphviz version 2.50.0 (20220203.2022)
 -->
<!-- Title: include/yaclib/async/detail/future_impl.hpp Pages: 1 -->
<!--zoomable 307 -->
<svg id="main" version="1.1" xmlns="http://www.w3.org/2000/svg" xmlns:xlink="http://www.w3.org/1999/xlink" xml:space="preserve" onload="init(evt)">
<style type="text/css"><![CDATA[
.edge:hover path { stroke: red; }
.edge:hover polygon { stroke: red; fill: red; }
]]></style>
<script type="text/javascript"><![CDATA[
var edges = document.getElementsByTagName('g');
if (edges && edges.length) {
  for (var i=0;i<edges.length;i++) {
    if (edges[i].id.substr(0,4)=='edge') {
      edges[i].setAttribute('class','edge');
    }
  }
}
]]></script>
        <defs>
                <circle id="rim" cx="0" cy="0" r="7"/>
                <circle id="rim2" cx="0" cy="0" r="3.5"/>
                <g id="zoomPlus">
                        <use xlink:href="#rim" fill="#404040">
                                <set attributeName="fill" to="#808080" begin="zoomplus.mouseover" end="zoomplus.mouseout"/>
                        </use>
                        <path d="M-4,0h8M0,-4v8" fill="none" stroke="white" stroke-width="1.5" pointer-events="none"/>
                </g>
                <g id="zoomMin">
                        <use xlink:href="#rim" fill="#404040">
                                <set attributeName="fill" to="#808080" begin="zoomminus.mouseover" end="zoomminus.mouseout"/>
                        </use>
                        <path d="M-4,0h8" fill="none" stroke="white" stroke-width="1.5" pointer-events="none"/>
                </g>
                <g id="dirArrow">
                        <path fill="none" stroke="white" stroke-width="1.5" d="M0,-3.0v7 M-2.5,-0.5L0,-3.0L2.5,-0.5"/>
                </g>
               <g id="resetDef">
                       <use xlink:href="#rim2" fill="#404040">
                               <set attributeName="fill" to="#808080" begin="reset.mouseover" end="reset.mouseout"/>
                       </use>
               </g>
        </defs>

<script type="text/javascript">
var viewWidth = 1799;
var viewHeight = 307;
var sectionId = 'dynsection-1';
</script>
<script xlink:href="svgpan.js"/>
<svg id="graph" class="graph">
<g id="viewport">
<title>include/yaclib/async/detail/future_impl.hpp</title>
<!-- Node1 -->
<g id="node1" class="node">
<title>Node1</title>
<g id="a_node1"><a xlink:title=" ">
<polygon fill="#bfbfbf" stroke="black" points="416,-268.5 416,-298.5 528,-298.5 528,-268.5 416,-268.5"/>
<text text-anchor="start" x="424" y="-286.5" font-family="Helvetica,sans-Serif" font-size="10.00">include/yaclib/async</text>
<text text-anchor="middle" x="472" y="-275.5" font-family="Helvetica,sans-Serif" font-size="10.00">/detail/future_impl.hpp</text>
</a>
</g>
</g>
<!-- Node2 -->
<g id="node2" class="node">
<title>Node2</title>
<g id="a_node2"><a xlink:href="future_8hpp.html" target="_top" xlink:title=" ">
<polygon fill="none" stroke="black" points="844,-201.5 844,-231.5 948,-231.5 948,-201.5 844,-201.5"/>
<text text-anchor="start" x="852" y="-219.5" font-family="Helvetica,sans-Serif" font-size="10.00">include/yaclib/async</text>
<text text-anchor="middle" x="896" y="-208.5" font-family="Helvetica,sans-Serif" font-size="10.00">/future.hpp</text>
</a>
</g>
</g>
<!-- Node1&#45;&gt;Node2 -->
<g id="edge1" class="edge">
<title>Node1&#45;&gt;Node2</title>
<path fill="none" stroke="midnightblue" d="M538.29,-272.34C622.69,-259.4 766.77,-237.31 843.8,-225.5"/>
<polygon fill="midnightblue" stroke="midnightblue" points="537.66,-268.89 528.3,-273.87 538.72,-275.81 537.66,-268.89"/>
</g>
<!-- Node3 -->
<g id="node3" class="node">
<title>Node3</title>
<g id="a_node3"><a xlink:href="when__all__impl_8hpp.html" target="_top" xlink:title=" ">
<polygon fill="none" stroke="black" points="152.5,-134.5 152.5,-164.5 277.5,-164.5 277.5,-134.5 152.5,-134.5"/>
<text text-anchor="start" x="160.5" y="-152.5" font-family="Helvetica,sans-Serif" font-size="10.00">include/yaclib/algo</text>
<text text-anchor="middle" x="215" y="-141.5" font-family="Helvetica,sans-Serif" font-size="10.00">/detail/when_all_impl.hpp</text>
</a>
</g>
</g>
<!-- Node2&#45;&gt;Node3 -->
<g id="edge2" class="edge">
<title>Node2&#45;&gt;Node3</title>
<path fill="none" stroke="midnightblue" d="M833.32,-212.7C722.62,-207.23 485.43,-193.11 287,-165 283.97,-164.57 280.88,-164.09 277.75,-163.58"/>
<polygon fill="midnightblue" stroke="midnightblue" points="833.48,-216.22 843.64,-213.21 833.82,-209.22 833.48,-216.22"/>
</g>
<!-- Node4 -->
<g id="node4" class="node">
<title>Node4</title>
<g id="a_node4"><a xlink:href="when__all_8hpp.html" target="_top" xlink:title=" ">
<polygon fill="none" stroke="black" points="272,-67.5 272,-97.5 368,-97.5 368,-67.5 272,-67.5"/>
<text text-anchor="start" x="280" y="-85.5" font-family="Helvetica,sans-Serif" font-size="10.00">include/yaclib/algo</text>
<text text-anchor="middle" x="320" y="-74.5" font-family="Helvetica,sans-Serif" font-size="10.00">/when_all.hpp</text>
</a>
</g>
</g>
<!-- Node2&#45;&gt;Node4 -->
<g id="edge17" class="edge">
<title>Node2&#45;&gt;Node4</title>
<path fill="none" stroke="midnightblue" d="M833.55,-216.08C661.42,-217.02 189.73,-214.97 143,-165 101.35,-120.46 206.1,-98.24 271.74,-88.99"/>
<polygon fill="midnightblue" stroke="midnightblue" points="833.74,-219.58 843.72,-216.02 833.7,-212.58 833.74,-219.58"/>
</g>
<!-- Node6 -->
<g id="node6" class="node">
<title>Node6</title>
<g id="a_node6"><a xlink:href="when__any__impl_8hpp.html" target="_top" xlink:title=" ">
<polygon fill="none" stroke="black" points="462.5,-134.5 462.5,-164.5 593.5,-164.5 593.5,-134.5 462.5,-134.5"/>
<text text-anchor="start" x="470.5" y="-152.5" font-family="Helvetica,sans-Serif" font-size="10.00">include/yaclib/algo</text>
<text text-anchor="middle" x="528" y="-141.5" font-family="Helvetica,sans-Serif" font-size="10.00">/detail/when_any_impl.hpp</text>
</a>
</g>
</g>
<!-- Node2&#45;&gt;Node6 -->
<g id="edge5" class="edge">
<title>Node2&#45;&gt;Node6</title>
<path fill="none" stroke="midnightblue" d="M833.84,-205.16C774.49,-195.2 682.56,-179.55 603,-165 600,-164.45 596.93,-163.88 593.84,-163.31"/>
<polygon fill="midnightblue" stroke="midnightblue" points="833.37,-208.63 843.81,-206.83 834.53,-201.73 833.37,-208.63"/>
</g>
<!-- Node7 -->
<g id="node7" class="node">
<title>Node7</title>
<g id="a_node7"><a xlink:href="when__any_8hpp.html" target="_top" xlink:title=" ">
<polygon fill="none" stroke="black" points="417,-67.5 417,-97.5 513,-97.5 513,-67.5 417,-67.5"/>
<text text-anchor="start" x="425" y="-85.5" font-family="Helvetica,sans-Serif" font-size="10.00">include/yaclib/algo</text>
<text text-anchor="middle" x="465" y="-74.5" font-family="Helvetica,sans-Serif" font-size="10.00">/when_any.hpp</text>
</a>
</g>
</g>
<!-- Node2&#45;&gt;Node7 -->
<g id="edge18" class="edge">
<title>Node2&#45;&gt;Node7</title>
<path fill="none" stroke="midnightblue" d="M833.54,-212.91C717.45,-207.44 477.89,-192.89 453,-165 436.43,-146.43 447.93,-115.45 456.99,-97.51"/>
<polygon fill="midnightblue" stroke="midnightblue" points="833.56,-216.41 843.71,-213.38 833.88,-209.42 833.56,-216.41"/>
</g>
<!-- Node9 -->
<g id="node9" class="node">
<title>Node9</title>
<g id="a_node9"><a xlink:href="when__impl_8hpp.html" target="_top" xlink:title=" ">
<polygon fill="none" stroke="black" points="296,-134.5 296,-164.5 406,-164.5 406,-134.5 296,-134.5"/>
<text text-anchor="start" x="304" y="-152.5" font-family="Helvetica,sans-Serif" font-size="10.00">include/yaclib/algo</text>
<text text-anchor="middle" x="351" y="-141.5" font-family="Helvetica,sans-Serif" font-size="10.00">/detail/when_impl.hpp</text>
</a>
</g>
</g>
<!-- Node2&#45;&gt;Node9 -->
<g id="edge8" class="edge">
<title>Node2&#45;&gt;Node9</title>
<path fill="none" stroke="midnightblue" d="M833.48,-210.9C742.24,-203.73 567.41,-188.25 420,-165 415.53,-164.29 410.9,-163.49 406.27,-162.63"/>
<polygon fill="midnightblue" stroke="midnightblue" points="833.41,-214.41 843.65,-211.69 833.95,-207.43 833.41,-214.41"/>
</g>
<!-- Node10 -->
<g id="node10" class="node">
<title>Node10</title>
<g id="a_node10"><a xlink:href="wait_8hpp.html" target="_top" xlink:title=" ">
<polygon fill="none" stroke="black" points="0,-134.5 0,-164.5 96,-164.5 96,-134.5 0,-134.5"/>
<text text-anchor="start" x="8" y="-152.5" font-family="Helvetica,sans-Serif" font-size="10.00">include/yaclib/algo</text>
<text text-anchor="middle" x="48" y="-141.5" font-family="Helvetica,sans-Serif" font-size="10.00">/wait.hpp</text>
</a>
</g>
</g>
<!-- Node2&#45;&gt;Node10 -->
<g id="edge11" class="edge">
<title>Node2&#45;&gt;Node10</title>
<path fill="none" stroke="midnightblue" d="M833.68,-214.99C700.25,-213.14 377.29,-204.56 110,-165 105.52,-164.34 100.88,-163.51 96.25,-162.6"/>
<polygon fill="midnightblue" stroke="midnightblue" points="833.68,-218.49 843.72,-215.12 833.77,-211.49 833.68,-218.49"/>
</g>
<!-- Node11 -->
<g id="node11" class="node">
<title>Node11</title>
<g id="a_node11"><a xlink:href="wait__for_8hpp.html" target="_top" xlink:title=" ">
<polygon fill="none" stroke="black" points="612,-134.5 612,-164.5 708,-164.5 708,-134.5 612,-134.5"/>
<text text-anchor="start" x="620" y="-152.5" font-family="Helvetica,sans-Serif" font-size="10.00">include/yaclib/algo</text>
<text text-anchor="middle" x="660" y="-141.5" font-family="Helvetica,sans-Serif" font-size="10.00">/wait_for.hpp</text>
</a>
</g>
</g>
<!-- Node2&#45;&gt;Node11 -->
<g id="edge13" class="edge">
<title>Node2&#45;&gt;Node11</title>
<path fill="none" stroke="midnightblue" d="M835.28,-198.78C795.7,-187.87 744.76,-173.85 708.01,-163.72"/>
<polygon fill="midnightblue" stroke="midnightblue" points="834.51,-202.19 845.08,-201.48 836.37,-195.45 834.51,-202.19"/>
</g>
<!-- Node12 -->
<g id="node12" class="node">
<title>Node12</title>
<g id="a_node12"><a xlink:href="wait__group_8hpp.html" target="_top" xlink:title=" ">
<polygon fill="none" stroke="black" points="1122,-134.5 1122,-164.5 1218,-164.5 1218,-134.5 1122,-134.5"/>
<text text-anchor="start" x="1130" y="-152.5" font-family="Helvetica,sans-Serif" font-size="10.00">include/yaclib/algo</text>
<text text-anchor="middle" x="1170" y="-141.5" font-family="Helvetica,sans-Serif" font-size="10.00">/wait_group.hpp</text>
</a>
</g>
</g>
<!-- Node2&#45;&gt;Node12 -->
<g id="edge14" class="edge">
<title>Node2&#45;&gt;Node12</title>
<path fill="none" stroke="midnightblue" d="M958.1,-201.4C1001.54,-191.46 1060.88,-177.69 1113,-165 1115.88,-164.3 1118.83,-163.57 1121.82,-162.83"/>
<polygon fill="midnightblue" stroke="midnightblue" points="957.22,-198.01 948.25,-203.66 958.78,-204.84 957.22,-198.01"/>
</g>
<!-- Node14 -->
<g id="node14" class="node">
<title>Node14</title>
<g id="a_node14"><a xlink:href="wait__until_8hpp.html" target="_top" xlink:title=" ">
<polygon fill="none" stroke="black" points="848,-134.5 848,-164.5 944,-164.5 944,-134.5 848,-134.5"/>
<text text-anchor="start" x="856" y="-152.5" font-family="Helvetica,sans-Serif" font-size="10.00">include/yaclib/algo</text>
<text text-anchor="middle" x="896" y="-141.5" font-family="Helvetica,sans-Serif" font-size="10.00">/wait_until.hpp</text>
</a>
</g>
</g>
<!-- Node2&#45;&gt;Node14 -->
<g id="edge16" class="edge">
<title>Node2&#45;&gt;Node14</title>
<path fill="none" stroke="midnightblue" d="M896,-191.11C896,-182.15 896,-172.32 896,-164.58"/>
<polygon fill="midnightblue" stroke="midnightblue" points="892.5,-191.4 896,-201.4 899.5,-191.4 892.5,-191.4"/>
</g>
<!-- Node15 -->
<g id="node15" class="node">
<title>Node15</title>
<g id="a_node15"><a xlink:href="contract_8hpp.html" target="_top" xlink:title=" ">
<polygon fill="none" stroke="black" points="1000,-134.5 1000,-164.5 1104,-164.5 1104,-134.5 1000,-134.5"/>
<text text-anchor="start" x="1008" y="-152.5" font-family="Helvetica,sans-Serif" font-size="10.00">include/yaclib/async</text>
<text text-anchor="middle" x="1052" y="-141.5" font-family="Helvetica,sans-Serif" font-size="10.00">/contract.hpp</text>
</a>
</g>
</g>
<!-- Node2&#45;&gt;Node15 -->
<g id="edge19" class="edge">
<title>Node2&#45;&gt;Node15</title>
<path fill="none" stroke="midnightblue" d="M939.09,-197.54C964.06,-187.14 995.03,-174.24 1018.22,-164.58"/>
<polygon fill="midnightblue" stroke="midnightblue" points="937.73,-194.32 929.85,-201.4 940.43,-200.78 937.73,-194.32"/>
</g>
<!-- Node16 -->
<g id="node16" class="node">
<title>Node16</title>
<g id="a_node16"><a xlink:href="simple_8cpp.html" target="_top" xlink:title=" ">
<polygon fill="none" stroke="black" points="921.5,-67.5 921.5,-97.5 1022.5,-97.5 1022.5,-67.5 921.5,-67.5"/>
<text text-anchor="start" x="929.5" y="-85.5" font-family="Helvetica,sans-Serif" font-size="10.00">test/example/async</text>
<text text-anchor="middle" x="972" y="-74.5" font-family="Helvetica,sans-Serif" font-size="10.00">/simple.cpp</text>
</a>
</g>
</g>
<!-- Node2&#45;&gt;Node16 -->
<g id="edge35" class="edge">
<title>Node2&#45;&gt;Node16</title>
<path fill="none" stroke="midnightblue" d="M925.63,-195.19C935.69,-186.91 946.11,-176.56 953,-165 965.64,-143.78 969.87,-114.8 971.29,-97.73"/>
<polygon fill="midnightblue" stroke="midnightblue" points="923.45,-192.45 917.72,-201.36 927.76,-197.97 923.45,-192.45"/>
</g>
<!-- Node17 -->
<g id="node17" class="node">
<title>Node17</title>
<g id="a_node17"><a xlink:href="run_8hpp.html" target="_top" xlink:title=" ">
<polygon fill="none" stroke="black" points="726,-134.5 726,-164.5 830,-164.5 830,-134.5 726,-134.5"/>
<text text-anchor="start" x="734" y="-152.5" font-family="Helvetica,sans-Serif" font-size="10.00">include/yaclib/async</text>
<text text-anchor="middle" x="778" y="-141.5" font-family="Helvetica,sans-Serif" font-size="10.00">/run.hpp</text>
</a>
</g>
</g>
<!-- Node2&#45;&gt;Node17 -->
<g id="edge21" class="edge">
<title>Node2&#45;&gt;Node17</title>
<path fill="none" stroke="midnightblue" d="M861.39,-196.44C842.88,-186.24 820.48,-173.9 803.55,-164.58"/>
<polygon fill="midnightblue" stroke="midnightblue" points="859.95,-199.64 870.4,-201.4 863.33,-193.51 859.95,-199.64"/>
</g>
<!-- Node18 -->
<g id="node18" class="node">
<title>Node18</title>
<g id="a_node18"><a xlink:href="await_8hpp.html" target="_top" xlink:title=" ">
<polygon fill="none" stroke="black" points="1263,-67.5 1263,-97.5 1381,-97.5 1381,-67.5 1263,-67.5"/>
<text text-anchor="start" x="1271" y="-85.5" font-family="Helvetica,sans-Serif" font-size="10.00">include/yaclib/coroutine</text>
<text text-anchor="middle" x="1322" y="-74.5" font-family="Helvetica,sans-Serif" font-size="10.00">/await.hpp</text>
</a>
</g>
</g>
<!-- Node2&#45;&gt;Node18 -->
<g id="edge25" class="edge">
<title>Node2&#45;&gt;Node18</title>
<path fill="none" stroke="midnightblue" d="M958.36,-216.07C1027.16,-214.45 1139.69,-205.07 1227,-165 1236.18,-160.79 1282.17,-119.67 1306.64,-97.5"/>
<polygon fill="midnightblue" stroke="midnightblue" points="958.05,-212.57 948.12,-216.26 958.18,-219.57 958.05,-212.57"/>
</g>
<!-- Node19 -->
<g id="node19" class="node">
<title>Node19</title>
<g id="a_node19"><a xlink:href="coroutine__deleter_8hpp.html" target="_top" xlink:title=" ">
<polygon fill="none" stroke="black" points="1602,-134.5 1602,-164.5 1740,-164.5 1740,-134.5 1602,-134.5"/>
<text text-anchor="start" x="1610" y="-152.5" font-family="Helvetica,sans-Serif" font-size="10.00">include/yaclib/coroutine</text>
<text text-anchor="middle" x="1671" y="-141.5" font-family="Helvetica,sans-Serif" font-size="10.00">/detail/coroutine_deleter.hpp</text>
</a>
</g>
</g>
<!-- Node2&#45;&gt;Node19 -->
<g id="edge26" class="edge">
<title>Node2&#45;&gt;Node19</title>
<path fill="none" stroke="midnightblue" d="M958.49,-213.04C1080.08,-207.78 1356.83,-193.55 1588,-165 1592.5,-164.44 1597.13,-163.81 1601.79,-163.13"/>
<polygon fill="midnightblue" stroke="midnightblue" points="958.1,-209.55 948.26,-213.47 958.4,-216.55 958.1,-209.55"/>
</g>
<!-- Node20 -->
<g id="node20" class="node">
<title>Node20</title>
<g id="a_node20"><a xlink:href="promise__type_8hpp.html" target="_top" xlink:title=" ">
<polygon fill="none" stroke="black" points="1669,-67.5 1669,-97.5 1791,-97.5 1791,-67.5 1669,-67.5"/>
<text text-anchor="start" x="1677" y="-85.5" font-family="Helvetica,sans-Serif" font-size="10.00">include/yaclib/coroutine</text>
<text text-anchor="middle" x="1730" y="-74.5" font-family="Helvetica,sans-Serif" font-size="10.00">/detail/promise_type.hpp</text>
</a>
</g>
</g>
<!-- Node2&#45;&gt;Node20 -->
<g id="edge32" class="edge">
<title>Node2&#45;&gt;Node20</title>
<path fill="none" stroke="midnightblue" d="M958.27,-214.13C1150.28,-209.59 1721.93,-193.72 1749,-165 1766.34,-146.6 1751.33,-115.56 1739.94,-97.57"/>
<polygon fill="midnightblue" stroke="midnightblue" points="957.98,-210.63 948.06,-214.37 958.14,-217.63 957.98,-210.63"/>
</g>
<!-- Node21 -->
<g id="node21" class="node">
<title>Node21</title>
<g id="a_node21"><a xlink:href="future__coro__traits_8hpp.html" target="_top" xlink:title=" ">
<polygon fill="none" stroke="black" points="1582,-0.5 1582,-30.5 1700,-30.5 1700,-0.5 1582,-0.5"/>
<text text-anchor="start" x="1590" y="-18.5" font-family="Helvetica,sans-Serif" font-size="10.00">include/yaclib/coroutine</text>
<text text-anchor="middle" x="1641" y="-7.5" font-family="Helvetica,sans-Serif" font-size="10.00">/future_coro_traits.hpp</text>
</a>
</g>
</g>
<!-- Node2&#45;&gt;Node21 -->
<g id="edge33" class="edge">
<title>Node2&#45;&gt;Node21</title>
<path fill="none" stroke="midnightblue" d="M958.3,-214.01C1112.9,-209.84 1505.23,-196.28 1555,-165 1605.19,-133.45 1629.32,-61.22 1637.57,-30.62"/>
<polygon fill="midnightblue" stroke="midnightblue" points="957.93,-210.52 948.03,-214.28 958.12,-217.51 957.93,-210.52"/>
</g>
<!-- Node22 -->
<g id="node22" class="node">
<title>Node22</title>
<g id="a_node22"><a xlink:href="future__awaiter_8hpp.html" target="_top" xlink:title=" ">
<polygon fill="none" stroke="black" points="1274.5,-134.5 1274.5,-164.5 1399.5,-164.5 1399.5,-134.5 1274.5,-134.5"/>
<text text-anchor="start" x="1282.5" y="-152.5" font-family="Helvetica,sans-Serif" font-size="10.00">include/yaclib/coroutine</text>
<text text-anchor="middle" x="1337" y="-141.5" font-family="Helvetica,sans-Serif" font-size="10.00">/detail/future_awaiter.hpp</text>
</a>
</g>
</g>
<!-- Node2&#45;&gt;Node22 -->
<g id="edge30" class="edge">
<title>Node2&#45;&gt;Node22</title>
<path fill="none" stroke="midnightblue" d="M958.6,-207.75C1031.23,-198.54 1154.53,-182.24 1260,-165 1264.7,-164.23 1269.55,-163.4 1274.43,-162.54"/>
<polygon fill="midnightblue" stroke="midnightblue" points="957.74,-204.33 948.26,-209.06 958.62,-211.27 957.74,-204.33"/>
</g>
<!-- Node23 -->
<g id="node23" class="node">
<title>Node23</title>
<g id="a_node23"><a xlink:href="future__impl_8cpp.html" target="_top" xlink:title=" ">
<polygon fill="none" stroke="black" points="1418,-140 1418,-159 1546,-159 1546,-140 1418,-140"/>
<text text-anchor="middle" x="1482" y="-147" font-family="Helvetica,sans-Serif" font-size="10.00">src/async/future_impl.cpp</text>
</a>
</g>
</g>
<!-- Node2&#45;&gt;Node23 -->
<g id="edge34" class="edge">
<title>Node2&#45;&gt;Node23</title>
<path fill="none" stroke="midnightblue" d="M958.47,-211.33C1055.31,-204.43 1247.35,-188.95 1409,-165 1419.99,-163.37 1431.84,-161.2 1442.72,-159.04"/>
<polygon fill="midnightblue" stroke="midnightblue" points="958,-207.86 948.27,-212.05 958.49,-214.84 958,-207.86"/>
</g>
<!-- Node3&#45;&gt;Node4 -->
<g id="edge3" class="edge">
<title>Node3&#45;&gt;Node4</title>
<path fill="none" stroke="midnightblue" d="M246.48,-129.02C262.82,-118.9 282.41,-106.77 297.26,-97.58"/>
<polygon fill="midnightblue" stroke="midnightblue" points="244.44,-126.16 237.78,-134.4 248.13,-132.11 244.44,-126.16"/>
</g>
<!-- Node5 -->
<g id="node5" class="node">
<title>Node5</title>
<g id="a_node5"><a xlink:href="when__all_8cpp.html" target="_top" xlink:title=" ">
<polygon fill="none" stroke="black" points="339.5,-0.5 339.5,-30.5 440.5,-30.5 440.5,-0.5 339.5,-0.5"/>
<text text-anchor="start" x="347.5" y="-18.5" font-family="Helvetica,sans-Serif" font-size="10.00">test/example/async</text>
<text text-anchor="middle" x="390" y="-7.5" font-family="Helvetica,sans-Serif" font-size="10.00">/when_all.cpp</text>
</a>
</g>
</g>
<!-- Node4&#45;&gt;Node5 -->
<g id="edge4" class="edge">
<title>Node4&#45;&gt;Node5</title>
<path fill="none" stroke="midnightblue" d="M342.82,-60.31C353.32,-50.56 365.49,-39.26 374.84,-30.58"/>
<polygon fill="midnightblue" stroke="midnightblue" points="340.14,-58.03 335.19,-67.4 344.9,-63.16 340.14,-58.03"/>
</g>
<!-- Node6&#45;&gt;Node7 -->
<g id="edge6" class="edge">
<title>Node6&#45;&gt;Node7</title>
<path fill="none" stroke="midnightblue" d="M507.19,-127.02C497.8,-117.34 486.98,-106.17 478.64,-97.58"/>
<polygon fill="midnightblue" stroke="midnightblue" points="504.86,-129.65 514.33,-134.4 509.88,-124.78 504.86,-129.65"/>
</g>
<!-- Node8 -->
<g id="node8" class="node">
<title>Node8</title>
<g id="a_node8"><a xlink:href="when__any_8cpp.html" target="_top" xlink:title=" ">
<polygon fill="none" stroke="black" points="535.5,-0.5 535.5,-30.5 636.5,-30.5 636.5,-0.5 535.5,-0.5"/>
<text text-anchor="start" x="543.5" y="-18.5" font-family="Helvetica,sans-Serif" font-size="10.00">test/example/async</text>
<text text-anchor="middle" x="586" y="-7.5" font-family="Helvetica,sans-Serif" font-size="10.00">/when_any.cpp</text>
</a>
</g>
</g>
<!-- Node7&#45;&gt;Node8 -->
<g id="edge7" class="edge">
<title>Node7&#45;&gt;Node8</title>
<path fill="none" stroke="midnightblue" d="M500.23,-62.57C519.26,-52.35 542.37,-39.94 559.8,-30.58"/>
<polygon fill="midnightblue" stroke="midnightblue" points="498.41,-59.58 491.26,-67.4 501.72,-65.75 498.41,-59.58"/>
</g>
<!-- Node9&#45;&gt;Node4 -->
<g id="edge9" class="edge">
<title>Node9&#45;&gt;Node4</title>
<path fill="none" stroke="midnightblue" d="M339.93,-125.28C335.51,-116.02 330.57,-105.66 326.71,-97.58"/>
<polygon fill="midnightblue" stroke="midnightblue" points="336.81,-126.88 344.27,-134.4 343.13,-123.86 336.81,-126.88"/>
</g>
<!-- Node9&#45;&gt;Node7 -->
<g id="edge10" class="edge">
<title>Node9&#45;&gt;Node7</title>
<path fill="none" stroke="midnightblue" d="M384.68,-129.3C402.52,-119.12 424.04,-106.85 440.31,-97.58"/>
<polygon fill="midnightblue" stroke="midnightblue" points="382.69,-126.4 375.74,-134.4 386.16,-132.48 382.69,-126.4"/>
</g>
<!-- Node10&#45;&gt;Node1 -->
<g id="edge12" class="edge">
<title>Node10&#45;&gt;Node1</title>
<path fill="none" stroke="midnightblue" d="M102.85,-167.58C187.58,-193.96 348.71,-244.12 427.03,-268.5"/>
<polygon fill="midnightblue" stroke="midnightblue" points="103.74,-164.19 93.15,-164.56 101.66,-170.87 103.74,-164.19"/>
</g>
<!-- Node13 -->
<g id="node13" class="node">
<title>Node13</title>
<g id="a_node13"><a xlink:href="wait__group_8cpp.html" target="_top" xlink:title=" ">
<polygon fill="none" stroke="black" points="1110.5,-73 1110.5,-92 1229.5,-92 1229.5,-73 1110.5,-73"/>
<text text-anchor="middle" x="1170" y="-80" font-family="Helvetica,sans-Serif" font-size="10.00">src/algo/wait_group.cpp</text>
</a>
</g>
</g>
<!-- Node12&#45;&gt;Node13 -->
<g id="edge15" class="edge">
<title>Node12&#45;&gt;Node13</title>
<path fill="none" stroke="midnightblue" d="M1170,-124.25C1170,-113.02 1170,-100.38 1170,-92.19"/>
<polygon fill="midnightblue" stroke="midnightblue" points="1166.5,-124.4 1170,-134.4 1173.5,-124.4 1166.5,-124.4"/>
</g>
<!-- Node15&#45;&gt;Node16 -->
<g id="edge20" class="edge">
<title>Node15&#45;&gt;Node16</title>
<path fill="none" stroke="midnightblue" d="M1026.63,-127.88C1014.47,-118.01 1000.22,-106.43 989.32,-97.58"/>
<polygon fill="midnightblue" stroke="midnightblue" points="1024.67,-130.81 1034.64,-134.4 1029.09,-125.37 1024.67,-130.81"/>
</g>
<!-- Node17&#45;&gt;Node5 -->
<g id="edge23" class="edge">
<title>Node17&#45;&gt;Node5</title>
<path fill="none" stroke="midnightblue" d="M727.28,-131.24C649.65,-104.83 502.88,-54.9 431.32,-30.56"/>
<polygon fill="midnightblue" stroke="midnightblue" points="726.25,-134.59 736.84,-134.5 728.5,-127.96 726.25,-134.59"/>
</g>
<!-- Node17&#45;&gt;Node8 -->
<g id="edge24" class="edge">
<title>Node17&#45;&gt;Node8</title>
<path fill="none" stroke="midnightblue" d="M749.09,-128.62C709.83,-101.64 640.66,-54.08 606.4,-30.52"/>
<polygon fill="midnightblue" stroke="midnightblue" points="747.23,-131.59 757.45,-134.37 751.2,-125.82 747.23,-131.59"/>
</g>
<!-- Node17&#45;&gt;Node16 -->
<g id="edge22" class="edge">
<title>Node17&#45;&gt;Node16</title>
<path fill="none" stroke="midnightblue" d="M829.96,-131.09C861.27,-120.6 900.64,-107.41 929.99,-97.58"/>
<polygon fill="midnightblue" stroke="midnightblue" points="828.47,-127.9 820.1,-134.4 830.69,-134.54 828.47,-127.9"/>
</g>
<!-- Node19&#45;&gt;Node20 -->
<g id="edge27" class="edge">
<title>Node19&#45;&gt;Node20</title>
<path fill="none" stroke="midnightblue" d="M1690.75,-126.74C1699.48,-117.12 1709.5,-106.09 1717.22,-97.58"/>
<polygon fill="midnightblue" stroke="midnightblue" points="1687.93,-124.64 1683.8,-134.4 1693.11,-129.34 1687.93,-124.64"/>
</g>
<!-- Node19&#45;&gt;Node21 -->
<g id="edge29" class="edge">
<title>Node19&#45;&gt;Node21</title>
<path fill="none" stroke="midnightblue" d="M1665.52,-124.39C1659.27,-96.9 1649.27,-52.89 1644.19,-30.52"/>
<polygon fill="midnightblue" stroke="midnightblue" points="1662.16,-125.4 1667.79,-134.37 1668.99,-123.85 1662.16,-125.4"/>
</g>
<!-- Node20&#45;&gt;Node21 -->
<g id="edge28" class="edge">
<title>Node20&#45;&gt;Node21</title>
<path fill="none" stroke="midnightblue" d="M1702.55,-61.45C1688.86,-51.45 1672.63,-39.6 1660.27,-30.58"/>
<polygon fill="midnightblue" stroke="midnightblue" points="1700.55,-64.32 1710.69,-67.4 1704.68,-58.67 1700.55,-64.32"/>
</g>
<!-- Node22&#45;&gt;Node18 -->
<g id="edge31" class="edge">
<title>Node22&#45;&gt;Node18</title>
<path fill="none" stroke="midnightblue" d="M1331.44,-124.4C1329.35,-115.37 1327.06,-105.41 1325.25,-97.58"/>
<polygon fill="midnightblue" stroke="midnightblue" points="1328.09,-125.44 1333.75,-134.4 1334.91,-123.87 1328.09,-125.44"/>
</g>
</g>
</svg>
        <g id="navigator" transform="translate(0 0)" fill="#404254">
                <rect fill="#f2f5e9" fill-opacity="0.5" stroke="#606060" stroke-width=".5" x="0" y="0" width="60" height="60"/>
                <use id="zoomplus" xlink:href="#zoomPlus" x="17" y="9" onmousedown="handleZoom(evt,'in')"/>
                <use id="zoomminus" xlink:href="#zoomMin" x="42" y="9" onmousedown="handleZoom(evt,'out')"/>
                <use id="reset" xlink:href="#resetDef" x="30" y="36" onmousedown="handleReset()"/>
                <g id="arrowUp" xlink:href="#dirArrow" transform="translate(30 24)" onmousedown="handlePan(0,-1)">
                  <use xlink:href="#rim" fill="#404040">
                        <set attributeName="fill" to="#808080" begin="arrowUp.mouseover" end="arrowUp.mouseout"/>
                  </use>
                  <path fill="none" stroke="white" stroke-width="1.5" d="M0,-3.0v7 M-2.5,-0.5L0,-3.0L2.5,-0.5"/>
                </g>
                <g id="arrowRight" xlink:href="#dirArrow" transform="rotate(90) translate(36 -43)" onmousedown="handlePan(1,0)">
                  <use xlink:href="#rim" fill="#404040">
                        <set attributeName="fill" to="#808080" begin="arrowRight.mouseover" end="arrowRight.mouseout"/>
                  </use>
                  <path fill="none" stroke="white" stroke-width="1.5" d="M0,-3.0v7 M-2.5,-0.5L0,-3.0L2.5,-0.5"/>
                </g>
                <g id="arrowDown" xlink:href="#dirArrow" transform="rotate(180) translate(-30 -48)" onmousedown="handlePan(0,1)">
                  <use xlink:href="#rim" fill="#404040">
                        <set attributeName="fill" to="#808080" begin="arrowDown.mouseover" end="arrowDown.mouseout"/>
                  </use>
                  <path fill="none" stroke="white" stroke-width="1.5" d="M0,-3.0v7 M-2.5,-0.5L0,-3.0L2.5,-0.5"/>
                </g>
                <g id="arrowLeft" xlink:href="#dirArrow" transform="rotate(270) translate(-36 17)" onmousedown="handlePan(-1,0)">
                  <use xlink:href="#rim" fill="#404040">
                        <set attributeName="fill" to="#808080" begin="arrowLeft.mouseover" end="arrowLeft.mouseout"/>
                  </use>
                  <path fill="none" stroke="white" stroke-width="1.5" d="M0,-3.0v7 M-2.5,-0.5L0,-3.0L2.5,-0.5"/>
                </g>
        </g>
        <svg viewBox="0 0 15 15" width="100%" height="30px" preserveAspectRatio="xMaxYMin meet">
         <g id="arrow_out" transform="scale(0.3 0.3)">
          <a xlink:href="future__impl_8hpp__dep__incl_org.svg" target="_base">
           <rect id="button" ry="5" rx="5" y="6" x="6" height="38" width="38"
                fill="#f2f5e9" fill-opacity="0.5" stroke="#606060" stroke-width="1.0"/>
           <path id="arrow"
             d="M 11.500037,31.436501 C 11.940474,20.09759 22.043105,11.32322 32.158766,21.979434 L 37.068811,17.246167 C 37.068811,17.246167 37.088388,32 37.088388,32 L 22.160133,31.978069 C 22.160133,31.978069 26.997745,27.140456 26.997745,27.140456 C 18.528582,18.264221 13.291696,25.230495 11.500037,31.436501 z"
             style="fill:#404040;"/>
          </a>
         </g>
        </svg>
</svg>
