<?xml version="1.0" encoding="UTF-8" standalone="no"?>
<!DOCTYPE svg PUBLIC "-//W3C//DTD SVG 1.1//EN"
 "http://www.w3.org/Graphics/SVG/1.1/DTD/svg11.dtd">
<!-- Generated by graphviz version 2.50.0 (20220203.2022)
 -->
<!-- Title: include/yaclib/fwd.hpp Pages: 1 -->
<svg width="1956pt" height="631pt"
 viewBox="0.00 0.00 1956.45 631.00" xmlns="http://www.w3.org/2000/svg" xmlns:xlink="http://www.w3.org/1999/xlink">
<g id="graph0" class="graph" transform="scale(1 1) rotate(0) translate(4 627)">
<title>include/yaclib/fwd.hpp</title>
<!-- Node1 -->
<g id="node1" class="node">
<title>Node1</title>
<g id="a_node1"><a xlink:title=" ">
<polygon fill="#bfbfbf" stroke="black" points="508,-603.5 508,-622.5 620,-622.5 620,-603.5 508,-603.5"/>
<text text-anchor="middle" x="564" y="-610.5" font-family="Helvetica,sans-Serif" font-size="10.00">include/yaclib/fwd.hpp</text>
</a>
</g>
</g>
<!-- Node2 -->
<g id="node2" class="node">
<title>Node2</title>
<g id="a_node2"><a xlink:href="atomic__event_8hpp.html" target="_top" xlink:title=" ">
<polygon fill="none" stroke="black" points="441,-536.5 441,-566.5 563,-566.5 563,-536.5 441,-536.5"/>
<text text-anchor="start" x="449" y="-554.5" font-family="Helvetica,sans-Serif" font-size="10.00">include/yaclib/util</text>
<text text-anchor="middle" x="502" y="-543.5" font-family="Helvetica,sans-Serif" font-size="10.00">/detail/atomic_event.hpp</text>
</a>
</g>
</g>
<!-- Node1&#45;&gt;Node2 -->
<g id="edge1" class="edge">
<title>Node1&#45;&gt;Node2</title>
<path fill="none" stroke="midnightblue" d="M547.71,-596.37C538.07,-587.11 525.95,-575.48 516.61,-566.52"/>
<polygon fill="midnightblue" stroke="midnightblue" points="545.48,-599.08 555.12,-603.48 550.33,-594.03 545.48,-599.08"/>
</g>
<!-- Node4 -->
<g id="node4" class="node">
<title>Node4</title>
<g id="a_node4"><a xlink:href="type__traits_8hpp.html" target="_top" xlink:title=" ">
<polygon fill="none" stroke="black" points="869.5,-536.5 869.5,-566.5 960.5,-566.5 960.5,-536.5 869.5,-536.5"/>
<text text-anchor="start" x="877.5" y="-554.5" font-family="Helvetica,sans-Serif" font-size="10.00">include/yaclib/util</text>
<text text-anchor="middle" x="915" y="-543.5" font-family="Helvetica,sans-Serif" font-size="10.00">/type_traits.hpp</text>
</a>
</g>
</g>
<!-- Node1&#45;&gt;Node4 -->
<g id="edge3" class="edge">
<title>Node1&#45;&gt;Node4</title>
<path fill="none" stroke="midnightblue" d="M624.22,-601.79C693.75,-590.01 806.56,-570.88 869.27,-560.25"/>
<polygon fill="midnightblue" stroke="midnightblue" points="623.56,-598.35 614.29,-603.48 624.73,-605.25 623.56,-598.35"/>
</g>
<!-- Node3 -->
<g id="node3" class="node">
<title>Node3</title>
<g id="a_node3"><a xlink:href="atomic__event_8cpp.html" target="_top" xlink:title=" ">
<polygon fill="none" stroke="black" points="86.5,-475 86.5,-494 211.5,-494 211.5,-475 86.5,-475"/>
<text text-anchor="middle" x="149" y="-482" font-family="Helvetica,sans-Serif" font-size="10.00">src/util/atomic_event.cpp</text>
</a>
</g>
</g>
<!-- Node2&#45;&gt;Node3 -->
<g id="edge2" class="edge">
<title>Node2&#45;&gt;Node3</title>
<path fill="none" stroke="midnightblue" d="M430.74,-537.57C375,-527.42 295.55,-512.91 226,-500 215.7,-498.09 204.63,-496.01 194.19,-494.05"/>
<polygon fill="midnightblue" stroke="midnightblue" points="430.4,-541.06 440.87,-539.41 431.66,-534.17 430.4,-541.06"/>
</g>
<!-- Node5 -->
<g id="node5" class="node">
<title>Node5</title>
<g id="a_node5"><a xlink:href="wait__impl_8hpp.html" target="_top" xlink:title=" ">
<polygon fill="none" stroke="black" points="1333.5,-402.5 1333.5,-432.5 1438.5,-432.5 1438.5,-402.5 1333.5,-402.5"/>
<text text-anchor="start" x="1341.5" y="-420.5" font-family="Helvetica,sans-Serif" font-size="10.00">include/yaclib/algo</text>
<text text-anchor="middle" x="1386" y="-409.5" font-family="Helvetica,sans-Serif" font-size="10.00">/detail/wait_impl.hpp</text>
</a>
</g>
</g>
<!-- Node4&#45;&gt;Node5 -->
<g id="edge4" class="edge">
<title>Node4&#45;&gt;Node5</title>
<path fill="none" stroke="midnightblue" d="M970.31,-535C1062.68,-509.11 1246.94,-457.47 1335.79,-432.57"/>
<polygon fill="midnightblue" stroke="midnightblue" points="969.27,-531.65 960.59,-537.72 971.16,-538.39 969.27,-531.65"/>
</g>
<!-- Node8 -->
<g id="node8" class="node">
<title>Node8</title>
<g id="a_node8"><a xlink:href="future_8hpp.html" target="_top" xlink:title=" ">
<polygon fill="none" stroke="black" points="928,-201.5 928,-231.5 1032,-231.5 1032,-201.5 928,-201.5"/>
<text text-anchor="start" x="936" y="-219.5" font-family="Helvetica,sans-Serif" font-size="10.00">include/yaclib/async</text>
<text text-anchor="middle" x="980" y="-208.5" font-family="Helvetica,sans-Serif" font-size="10.00">/future.hpp</text>
</a>
</g>
</g>
<!-- Node4&#45;&gt;Node8 -->
<g id="edge46" class="edge">
<title>Node4&#45;&gt;Node8</title>
<path fill="none" stroke="midnightblue" d="M933.94,-528.11C953.13,-503.09 980,-460.54 980,-418.5 980,-418.5 980,-418.5 980,-349.5 980,-306.65 980,-255.97 980,-231.76"/>
<polygon fill="midnightblue" stroke="midnightblue" points="931,-526.19 927.53,-536.2 936.49,-530.54 931,-526.19"/>
</g>
<!-- Node10 -->
<g id="node10" class="node">
<title>Node10</title>
<g id="a_node10"><a xlink:href="when__all_8hpp.html" target="_top" xlink:title=" ">
<polygon fill="none" stroke="black" points="1308,-67.5 1308,-97.5 1404,-97.5 1404,-67.5 1308,-67.5"/>
<text text-anchor="start" x="1316" y="-85.5" font-family="Helvetica,sans-Serif" font-size="10.00">include/yaclib/algo</text>
<text text-anchor="middle" x="1356" y="-74.5" font-family="Helvetica,sans-Serif" font-size="10.00">/when_all.hpp</text>
</a>
</g>
</g>
<!-- Node4&#45;&gt;Node10 -->
<g id="edge44" class="edge">
<title>Node4&#45;&gt;Node10</title>
<path fill="none" stroke="midnightblue" d="M970.73,-547.35C1154.24,-536.25 1728,-495.38 1728,-418.5 1728,-418.5 1728,-418.5 1728,-215.5 1728,-178.31 1736.42,-159.13 1709,-134 1665.42,-94.05 1490.37,-85.6 1404.29,-83.89"/>
<polygon fill="midnightblue" stroke="midnightblue" points="970.52,-543.86 960.75,-547.95 970.94,-550.84 970.52,-543.86"/>
</g>
<!-- Node13 -->
<g id="node13" class="node">
<title>Node13</title>
<g id="a_node13"><a xlink:href="when__any_8hpp.html" target="_top" xlink:title=" ">
<polygon fill="none" stroke="black" points="442,-67.5 442,-97.5 538,-97.5 538,-67.5 442,-67.5"/>
<text text-anchor="start" x="450" y="-85.5" font-family="Helvetica,sans-Serif" font-size="10.00">include/yaclib/algo</text>
<text text-anchor="middle" x="490" y="-74.5" font-family="Helvetica,sans-Serif" font-size="10.00">/when_any.hpp</text>
</a>
</g>
</g>
<!-- Node4&#45;&gt;Node13 -->
<g id="edge45" class="edge">
<title>Node4&#45;&gt;Node13</title>
<path fill="none" stroke="midnightblue" d="M859.44,-548.15C755.05,-540.41 531.07,-507.29 430,-366 369.88,-281.96 366.45,-225.21 415,-134 423.63,-117.79 440.04,-105.85 455.31,-97.66"/>
<polygon fill="midnightblue" stroke="midnightblue" points="859.24,-551.65 869.46,-548.84 859.73,-544.66 859.24,-551.65"/>
</g>
<!-- Node22 -->
<g id="node22" class="node">
<title>Node22</title>
<g id="a_node22"><a xlink:href="run_8hpp.html" target="_top" xlink:title=" ">
<polygon fill="none" stroke="black" points="226,-134.5 226,-164.5 330,-164.5 330,-134.5 226,-134.5"/>
<text text-anchor="start" x="234" y="-152.5" font-family="Helvetica,sans-Serif" font-size="10.00">include/yaclib/async</text>
<text text-anchor="middle" x="278" y="-141.5" font-family="Helvetica,sans-Serif" font-size="10.00">/run.hpp</text>
</a>
</g>
</g>
<!-- Node4&#45;&gt;Node22 -->
<g id="edge51" class="edge">
<title>Node4&#45;&gt;Node22</title>
<path fill="none" stroke="midnightblue" d="M858.88,-548.15C723.1,-542.08 384.74,-524.68 340,-500 300.15,-478.02 278,-464.01 278,-418.5 278,-418.5 278,-418.5 278,-282.5 278,-239.65 278,-188.97 278,-164.76"/>
<polygon fill="midnightblue" stroke="midnightblue" points="858.92,-551.65 869.07,-548.6 859.23,-544.66 858.92,-551.65"/>
</g>
<!-- Node23 -->
<g id="node23" class="node">
<title>Node23</title>
<g id="a_node23"><a xlink:href="await_8hpp.html" target="_top" xlink:title=" ">
<polygon fill="none" stroke="black" points="1798,-67.5 1798,-97.5 1916,-97.5 1916,-67.5 1798,-67.5"/>
<text text-anchor="start" x="1806" y="-85.5" font-family="Helvetica,sans-Serif" font-size="10.00">include/yaclib/coroutine</text>
<text text-anchor="middle" x="1857" y="-74.5" font-family="Helvetica,sans-Serif" font-size="10.00">/await.hpp</text>
</a>
</g>
</g>
<!-- Node4&#45;&gt;Node23 -->
<g id="edge52" class="edge">
<title>Node4&#45;&gt;Node23</title>
<path fill="none" stroke="midnightblue" d="M971.06,-550.1C1137.56,-548.48 1627.12,-540.3 1781,-500 1860.89,-479.08 1948,-501.09 1948,-418.5 1948,-418.5 1948,-418.5 1948,-215.5 1948,-178.31 1949.82,-164.82 1929,-134 1918.49,-118.44 1901.46,-106.17 1886.6,-97.63"/>
<polygon fill="midnightblue" stroke="midnightblue" points="970.53,-546.61 960.57,-550.2 970.6,-553.61 970.53,-546.61"/>
</g>
<!-- Node27 -->
<g id="node27" class="node">
<title>Node27</title>
<g id="a_node27"><a xlink:href="future__awaiter_8hpp.html" target="_top" xlink:title=" ">
<polygon fill="none" stroke="black" points="1794.5,-134.5 1794.5,-164.5 1919.5,-164.5 1919.5,-134.5 1794.5,-134.5"/>
<text text-anchor="start" x="1802.5" y="-152.5" font-family="Helvetica,sans-Serif" font-size="10.00">include/yaclib/coroutine</text>
<text text-anchor="middle" x="1857" y="-141.5" font-family="Helvetica,sans-Serif" font-size="10.00">/detail/future_awaiter.hpp</text>
</a>
</g>
</g>
<!-- Node4&#45;&gt;Node27 -->
<g id="edge53" class="edge">
<title>Node4&#45;&gt;Node27</title>
<path fill="none" stroke="midnightblue" d="M970.73,-549.6C1145.2,-546.44 1673.32,-534.12 1742,-500 1784.76,-478.76 1812,-466.25 1812,-418.5 1812,-418.5 1812,-418.5 1812,-282.5 1812,-237.47 1835.76,-188.19 1848.75,-164.61"/>
<polygon fill="midnightblue" stroke="midnightblue" points="970.67,-546.1 960.73,-549.78 970.8,-553.1 970.67,-546.1"/>
</g>
<!-- Node30 -->
<g id="node30" class="node">
<title>Node30</title>
<g id="a_node30"><a xlink:href="promise_8hpp.html" target="_top" xlink:title=" ">
<polygon fill="none" stroke="black" points="129,-335.5 129,-365.5 233,-365.5 233,-335.5 129,-335.5"/>
<text text-anchor="start" x="137" y="-353.5" font-family="Helvetica,sans-Serif" font-size="10.00">include/yaclib/async</text>
<text text-anchor="middle" x="181" y="-342.5" font-family="Helvetica,sans-Serif" font-size="10.00">/promise.hpp</text>
</a>
</g>
</g>
<!-- Node4&#45;&gt;Node30 -->
<g id="edge47" class="edge">
<title>Node4&#45;&gt;Node30</title>
<path fill="none" stroke="midnightblue" d="M859.37,-547.61C706.37,-539.48 288.92,-515.95 264,-500 214.49,-468.32 191.8,-396.16 184.15,-365.6"/>
<polygon fill="midnightblue" stroke="midnightblue" points="859.32,-551.11 869.49,-548.15 859.69,-544.12 859.32,-551.11"/>
</g>
<!-- Node32 -->
<g id="node32" class="node">
<title>Node32</title>
<g id="a_node32"><a xlink:href="result_8hpp.html" target="_top" xlink:title=" ">
<polygon fill="none" stroke="black" points="804.5,-469.5 804.5,-499.5 895.5,-499.5 895.5,-469.5 804.5,-469.5"/>
<text text-anchor="start" x="812.5" y="-487.5" font-family="Helvetica,sans-Serif" font-size="10.00">include/yaclib/util</text>
<text text-anchor="middle" x="850" y="-476.5" font-family="Helvetica,sans-Serif" font-size="10.00">/result.hpp</text>
</a>
</g>
</g>
<!-- Node4&#45;&gt;Node32 -->
<g id="edge54" class="edge">
<title>Node4&#45;&gt;Node32</title>
<path fill="none" stroke="midnightblue" d="M893.81,-529.31C884.06,-519.56 872.76,-508.26 864.08,-499.58"/>
<polygon fill="midnightblue" stroke="midnightblue" points="891.35,-531.8 900.9,-536.4 896.3,-526.85 891.35,-531.8"/>
</g>
<!-- Node6 -->
<g id="node6" class="node">
<title>Node6</title>
<g id="a_node6"><a xlink:href="wait_8hpp.html" target="_top" xlink:title=" ">
<polygon fill="none" stroke="black" points="1008,-335.5 1008,-365.5 1104,-365.5 1104,-335.5 1008,-335.5"/>
<text text-anchor="start" x="1016" y="-353.5" font-family="Helvetica,sans-Serif" font-size="10.00">include/yaclib/algo</text>
<text text-anchor="middle" x="1056" y="-342.5" font-family="Helvetica,sans-Serif" font-size="10.00">/wait.hpp</text>
</a>
</g>
</g>
<!-- Node5&#45;&gt;Node6 -->
<g id="edge5" class="edge">
<title>Node5&#45;&gt;Node6</title>
<path fill="none" stroke="midnightblue" d="M1323.41,-404.17C1259.66,-391.61 1162.15,-372.41 1104.17,-360.99"/>
<polygon fill="midnightblue" stroke="midnightblue" points="1322.86,-407.63 1333.35,-406.13 1324.21,-400.76 1322.86,-407.63"/>
</g>
<!-- Node16 -->
<g id="node16" class="node">
<title>Node16</title>
<g id="a_node16"><a xlink:href="wait__for_8hpp.html" target="_top" xlink:title=" ">
<polygon fill="none" stroke="black" points="1604,-134.5 1604,-164.5 1700,-164.5 1700,-134.5 1604,-134.5"/>
<text text-anchor="start" x="1612" y="-152.5" font-family="Helvetica,sans-Serif" font-size="10.00">include/yaclib/algo</text>
<text text-anchor="middle" x="1652" y="-141.5" font-family="Helvetica,sans-Serif" font-size="10.00">/wait_for.hpp</text>
</a>
</g>
</g>
<!-- Node5&#45;&gt;Node16 -->
<g id="edge41" class="edge">
<title>Node5&#45;&gt;Node16</title>
<path fill="none" stroke="midnightblue" d="M1400.32,-393.53C1411.34,-376.61 1427.45,-353.42 1444,-335 1507.22,-264.62 1595.56,-193.86 1633.5,-164.56"/>
<polygon fill="midnightblue" stroke="midnightblue" points="1397.2,-391.92 1394.75,-402.22 1403.09,-395.7 1397.2,-391.92"/>
</g>
<!-- Node19 -->
<g id="node19" class="node">
<title>Node19</title>
<g id="a_node19"><a xlink:href="wait__until_8hpp.html" target="_top" xlink:title=" ">
<polygon fill="none" stroke="black" points="1490,-134.5 1490,-164.5 1586,-164.5 1586,-134.5 1490,-134.5"/>
<text text-anchor="start" x="1498" y="-152.5" font-family="Helvetica,sans-Serif" font-size="10.00">include/yaclib/algo</text>
<text text-anchor="middle" x="1538" y="-141.5" font-family="Helvetica,sans-Serif" font-size="10.00">/wait_until.hpp</text>
</a>
</g>
</g>
<!-- Node5&#45;&gt;Node19 -->
<g id="edge42" class="edge">
<title>Node5&#45;&gt;Node19</title>
<path fill="none" stroke="midnightblue" d="M1381.34,-392.49C1374.4,-349.35 1366.46,-257.92 1410,-201 1420.23,-187.62 1458.02,-173.66 1489.91,-163.82"/>
<polygon fill="midnightblue" stroke="midnightblue" points="1377.89,-393.11 1383.05,-402.37 1384.79,-391.92 1377.89,-393.11"/>
</g>
<!-- Node29 -->
<g id="node29" class="node">
<title>Node29</title>
<g id="a_node29"><a xlink:href="wait__impl_8cpp.html" target="_top" xlink:title=" ">
<polygon fill="none" stroke="black" points="1452.5,-341 1452.5,-360 1565.5,-360 1565.5,-341 1452.5,-341"/>
<text text-anchor="middle" x="1509" y="-348" font-family="Helvetica,sans-Serif" font-size="10.00">src/algo/wait_impl.cpp</text>
</a>
</g>
</g>
<!-- Node5&#45;&gt;Node29 -->
<g id="edge43" class="edge">
<title>Node5&#45;&gt;Node29</title>
<path fill="none" stroke="midnightblue" d="M1421.69,-397.64C1445.22,-385.2 1474.91,-369.51 1492.9,-360.01"/>
<polygon fill="midnightblue" stroke="midnightblue" points="1419.9,-394.63 1412.69,-402.4 1423.17,-400.82 1419.9,-394.63"/>
</g>
<!-- Node7 -->
<g id="node7" class="node">
<title>Node7</title>
<g id="a_node7"><a xlink:href="future__impl_8hpp.html" target="_top" xlink:title=" ">
<polygon fill="none" stroke="black" points="840,-268.5 840,-298.5 952,-298.5 952,-268.5 840,-268.5"/>
<text text-anchor="start" x="848" y="-286.5" font-family="Helvetica,sans-Serif" font-size="10.00">include/yaclib/async</text>
<text text-anchor="middle" x="896" y="-275.5" font-family="Helvetica,sans-Serif" font-size="10.00">/detail/future_impl.hpp</text>
</a>
</g>
</g>
<!-- Node6&#45;&gt;Node7 -->
<g id="edge6" class="edge">
<title>Node6&#45;&gt;Node7</title>
<path fill="none" stroke="midnightblue" d="M1011.8,-331.54C986.2,-321.14 954.43,-308.24 930.65,-298.58"/>
<polygon fill="midnightblue" stroke="midnightblue" points="1010.7,-334.87 1021.28,-335.4 1013.34,-328.39 1010.7,-334.87"/>
</g>
<!-- Node7&#45;&gt;Node8 -->
<g id="edge7" class="edge">
<title>Node7&#45;&gt;Node8</title>
<path fill="none" stroke="midnightblue" d="M922.28,-262.17C935.12,-252.23 950.26,-240.51 961.81,-231.58"/>
<polygon fill="midnightblue" stroke="midnightblue" points="919.99,-259.51 914.23,-268.4 924.28,-265.04 919.99,-259.51"/>
</g>
<!-- Node8&#45;&gt;Node6 -->
<g id="edge17" class="edge">
<title>Node8&#45;&gt;Node6</title>
<path fill="none" stroke="midnightblue" d="M993.19,-240.4C1008.93,-267.75 1034.78,-312.65 1047.87,-335.37"/>
<polygon fill="midnightblue" stroke="midnightblue" points="996.1,-238.44 988.07,-231.52 990.03,-241.94 996.1,-238.44"/>
</g>
<!-- Node9 -->
<g id="node9" class="node">
<title>Node9</title>
<g id="a_node9"><a xlink:href="when__all__impl_8hpp.html" target="_top" xlink:title=" ">
<polygon fill="none" stroke="black" points="1308.5,-134.5 1308.5,-164.5 1433.5,-164.5 1433.5,-134.5 1308.5,-134.5"/>
<text text-anchor="start" x="1316.5" y="-152.5" font-family="Helvetica,sans-Serif" font-size="10.00">include/yaclib/algo</text>
<text text-anchor="middle" x="1371" y="-141.5" font-family="Helvetica,sans-Serif" font-size="10.00">/detail/when_all_impl.hpp</text>
</a>
</g>
</g>
<!-- Node8&#45;&gt;Node9 -->
<g id="edge8" class="edge">
<title>Node8&#45;&gt;Node9</title>
<path fill="none" stroke="midnightblue" d="M1042.25,-205.99C1105.66,-196.18 1206.8,-180.22 1294,-165 1298.69,-164.18 1303.54,-163.32 1308.41,-162.43"/>
<polygon fill="midnightblue" stroke="midnightblue" points="1041.37,-202.58 1032.02,-207.57 1042.44,-209.5 1041.37,-202.58"/>
</g>
<!-- Node8&#45;&gt;Node10 -->
<g id="edge22" class="edge">
<title>Node8&#45;&gt;Node10</title>
<path fill="none" stroke="midnightblue" d="M1042.49,-213.63C1101.41,-209.76 1190.89,-198.3 1261,-165 1270.08,-160.69 1315.65,-120.05 1340.23,-97.83"/>
<polygon fill="midnightblue" stroke="midnightblue" points="1041.99,-210.16 1032.21,-214.25 1042.41,-217.15 1041.99,-210.16"/>
</g>
<!-- Node12 -->
<g id="node12" class="node">
<title>Node12</title>
<g id="a_node12"><a xlink:href="when__any__impl_8hpp.html" target="_top" xlink:title=" ">
<polygon fill="none" stroke="black" points="424.5,-134.5 424.5,-164.5 555.5,-164.5 555.5,-134.5 424.5,-134.5"/>
<text text-anchor="start" x="432.5" y="-152.5" font-family="Helvetica,sans-Serif" font-size="10.00">include/yaclib/algo</text>
<text text-anchor="middle" x="490" y="-141.5" font-family="Helvetica,sans-Serif" font-size="10.00">/detail/when_any_impl.hpp</text>
</a>
</g>
</g>
<!-- Node8&#45;&gt;Node12 -->
<g id="edge11" class="edge">
<title>Node8&#45;&gt;Node12</title>
<path fill="none" stroke="midnightblue" d="M917.45,-207.2C824.41,-194.86 650.39,-171.78 555.61,-159.2"/>
<polygon fill="midnightblue" stroke="midnightblue" points="917.19,-210.7 927.56,-208.54 918.11,-203.76 917.19,-210.7"/>
</g>
<!-- Node8&#45;&gt;Node13 -->
<g id="edge23" class="edge">
<title>Node8&#45;&gt;Node13</title>
<path fill="none" stroke="midnightblue" d="M917.89,-204.09C882.2,-196.08 837.21,-183.46 800,-165 779.53,-154.85 779.89,-143.24 759,-134 686.21,-101.8 593.51,-90.12 538.12,-85.89"/>
<polygon fill="midnightblue" stroke="midnightblue" points="917.18,-207.52 927.69,-206.23 918.67,-200.68 917.18,-207.52"/>
</g>
<!-- Node15 -->
<g id="node15" class="node">
<title>Node15</title>
<g id="a_node15"><a xlink:href="when__impl_8hpp.html" target="_top" xlink:title=" ">
<polygon fill="none" stroke="black" points="844,-134.5 844,-164.5 954,-164.5 954,-134.5 844,-134.5"/>
<text text-anchor="start" x="852" y="-152.5" font-family="Helvetica,sans-Serif" font-size="10.00">include/yaclib/algo</text>
<text text-anchor="middle" x="899" y="-141.5" font-family="Helvetica,sans-Serif" font-size="10.00">/detail/when_impl.hpp</text>
</a>
</g>
</g>
<!-- Node8&#45;&gt;Node15 -->
<g id="edge14" class="edge">
<title>Node8&#45;&gt;Node15</title>
<path fill="none" stroke="midnightblue" d="M954.31,-194.88C942,-185.01 927.57,-173.43 916.54,-164.58"/>
<polygon fill="midnightblue" stroke="midnightblue" points="952.43,-197.87 962.42,-201.4 956.82,-192.41 952.43,-197.87"/>
</g>
<!-- Node8&#45;&gt;Node16 -->
<g id="edge18" class="edge">
<title>Node8&#45;&gt;Node16</title>
<path fill="none" stroke="midnightblue" d="M1042.26,-213.82C1153.78,-210.06 1394.68,-198.46 1595,-165 1597.92,-164.51 1600.91,-163.95 1603.92,-163.33"/>
<polygon fill="midnightblue" stroke="midnightblue" points="1042.08,-210.33 1032.2,-214.15 1042.31,-217.32 1042.08,-210.33"/>
</g>
<!-- Node17 -->
<g id="node17" class="node">
<title>Node17</title>
<g id="a_node17"><a xlink:href="wait__group_8hpp.html" target="_top" xlink:title=" ">
<polygon fill="none" stroke="black" points="1156,-134.5 1156,-164.5 1252,-164.5 1252,-134.5 1156,-134.5"/>
<text text-anchor="start" x="1164" y="-152.5" font-family="Helvetica,sans-Serif" font-size="10.00">include/yaclib/algo</text>
<text text-anchor="middle" x="1204" y="-141.5" font-family="Helvetica,sans-Serif" font-size="10.00">/wait_group.hpp</text>
</a>
</g>
</g>
<!-- Node8&#45;&gt;Node17 -->
<g id="edge19" class="edge">
<title>Node8&#45;&gt;Node17</title>
<path fill="none" stroke="midnightblue" d="M1038.34,-198.57C1074.86,-187.97 1121.33,-174.49 1155.76,-164.5"/>
<polygon fill="midnightblue" stroke="midnightblue" points="1036.96,-195.33 1028.33,-201.48 1038.91,-202.05 1036.96,-195.33"/>
</g>
<!-- Node8&#45;&gt;Node19 -->
<g id="edge21" class="edge">
<title>Node8&#45;&gt;Node19</title>
<path fill="none" stroke="midnightblue" d="M1042.28,-211.73C1136.6,-205.45 1321.09,-190.89 1476,-165 1480.47,-164.25 1485.1,-163.37 1489.72,-162.42"/>
<polygon fill="midnightblue" stroke="midnightblue" points="1041.81,-208.26 1032.06,-212.41 1042.27,-215.24 1041.81,-208.26"/>
</g>
<!-- Node20 -->
<g id="node20" class="node">
<title>Node20</title>
<g id="a_node20"><a xlink:href="contract_8hpp.html" target="_top" xlink:title=" ">
<polygon fill="none" stroke="black" points="66,-134.5 66,-164.5 170,-164.5 170,-134.5 66,-134.5"/>
<text text-anchor="start" x="74" y="-152.5" font-family="Helvetica,sans-Serif" font-size="10.00">include/yaclib/async</text>
<text text-anchor="middle" x="118" y="-141.5" font-family="Helvetica,sans-Serif" font-size="10.00">/contract.hpp</text>
</a>
</g>
</g>
<!-- Node8&#45;&gt;Node20 -->
<g id="edge24" class="edge">
<title>Node8&#45;&gt;Node20</title>
<path fill="none" stroke="midnightblue" d="M917.41,-213.04C786.9,-207.54 476.31,-192.53 217,-165 201.71,-163.38 185.16,-161.14 170.05,-158.92"/>
<polygon fill="midnightblue" stroke="midnightblue" points="917.47,-216.55 927.61,-213.47 917.77,-209.55 917.47,-216.55"/>
</g>
<!-- Node21 -->
<g id="node21" class="node">
<title>Node21</title>
<g id="a_node21"><a xlink:href="simple_8cpp.html" target="_top" xlink:title=" ">
<polygon fill="none" stroke="black" points="147.5,-67.5 147.5,-97.5 248.5,-97.5 248.5,-67.5 147.5,-67.5"/>
<text text-anchor="start" x="155.5" y="-85.5" font-family="Helvetica,sans-Serif" font-size="10.00">test/example/async</text>
<text text-anchor="middle" x="198" y="-74.5" font-family="Helvetica,sans-Serif" font-size="10.00">/simple.cpp</text>
</a>
</g>
</g>
<!-- Node8&#45;&gt;Node21 -->
<g id="edge40" class="edge">
<title>Node8&#45;&gt;Node21</title>
<path fill="none" stroke="midnightblue" d="M917.35,-212.26C790.83,-205.32 508.9,-187.8 415,-165 379.55,-156.39 373.07,-147.04 339,-134 305.37,-121.12 266.86,-107.4 238.59,-97.51"/>
<polygon fill="midnightblue" stroke="midnightblue" points="917.47,-215.77 927.64,-212.82 917.85,-208.78 917.47,-215.77"/>
</g>
<!-- Node8&#45;&gt;Node22 -->
<g id="edge26" class="edge">
<title>Node8&#45;&gt;Node22</title>
<path fill="none" stroke="midnightblue" d="M917.77,-211.36C808.96,-203.88 577.1,-186.82 382,-165 365.06,-163.11 346.62,-160.66 330.04,-158.32"/>
<polygon fill="midnightblue" stroke="midnightblue" points="917.7,-214.87 927.91,-212.06 918.18,-207.88 917.7,-214.87"/>
</g>
<!-- Node8&#45;&gt;Node23 -->
<g id="edge30" class="edge">
<title>Node8&#45;&gt;Node23</title>
<path fill="none" stroke="midnightblue" d="M1042.54,-213.07C1151.71,-208.1 1372.19,-194.64 1443,-165 1463.11,-156.58 1461,-142.67 1481,-134 1536.6,-109.91 1706.52,-94.36 1797.7,-87.52"/>
<polygon fill="midnightblue" stroke="midnightblue" points="1042.17,-209.58 1032.33,-213.52 1042.48,-216.57 1042.17,-209.58"/>
</g>
<!-- Node24 -->
<g id="node24" class="node">
<title>Node24</title>
<g id="a_node24"><a xlink:href="coroutine__deleter_8hpp.html" target="_top" xlink:title=" ">
<polygon fill="none" stroke="black" points="612,-134.5 612,-164.5 750,-164.5 750,-134.5 612,-134.5"/>
<text text-anchor="start" x="620" y="-152.5" font-family="Helvetica,sans-Serif" font-size="10.00">include/yaclib/coroutine</text>
<text text-anchor="middle" x="681" y="-141.5" font-family="Helvetica,sans-Serif" font-size="10.00">/detail/coroutine_deleter.hpp</text>
</a>
</g>
</g>
<!-- Node8&#45;&gt;Node24 -->
<g id="edge31" class="edge">
<title>Node8&#45;&gt;Node24</title>
<path fill="none" stroke="midnightblue" d="M918.11,-202.05C867.66,-191.08 796.64,-175.64 745.5,-164.52"/>
<polygon fill="midnightblue" stroke="midnightblue" points="917.4,-205.47 927.92,-204.18 918.89,-198.63 917.4,-205.47"/>
</g>
<!-- Node25 -->
<g id="node25" class="node">
<title>Node25</title>
<g id="a_node25"><a xlink:href="promise__type_8hpp.html" target="_top" xlink:title=" ">
<polygon fill="none" stroke="black" points="709,-67.5 709,-97.5 831,-97.5 831,-67.5 709,-67.5"/>
<text text-anchor="start" x="717" y="-85.5" font-family="Helvetica,sans-Serif" font-size="10.00">include/yaclib/coroutine</text>
<text text-anchor="middle" x="770" y="-74.5" font-family="Helvetica,sans-Serif" font-size="10.00">/detail/promise_type.hpp</text>
</a>
</g>
</g>
<!-- Node8&#45;&gt;Node25 -->
<g id="edge37" class="edge">
<title>Node8&#45;&gt;Node25</title>
<path fill="none" stroke="midnightblue" d="M917.9,-202.15C890.77,-194.32 859.6,-182.43 835,-165 809.3,-146.8 788.51,-115.69 777.83,-97.63"/>
<polygon fill="midnightblue" stroke="midnightblue" points="917.12,-205.57 927.69,-204.86 918.99,-198.82 917.12,-205.57"/>
</g>
<!-- Node26 -->
<g id="node26" class="node">
<title>Node26</title>
<g id="a_node26"><a xlink:href="future__coro__traits_8hpp.html" target="_top" xlink:title=" ">
<polygon fill="none" stroke="black" points="711,-0.5 711,-30.5 829,-30.5 829,-0.5 711,-0.5"/>
<text text-anchor="start" x="719" y="-18.5" font-family="Helvetica,sans-Serif" font-size="10.00">include/yaclib/coroutine</text>
<text text-anchor="middle" x="770" y="-7.5" font-family="Helvetica,sans-Serif" font-size="10.00">/future_coro_traits.hpp</text>
</a>
</g>
</g>
<!-- Node8&#45;&gt;Node26 -->
<g id="edge38" class="edge">
<title>Node8&#45;&gt;Node26</title>
<path fill="none" stroke="midnightblue" d="M1041.8,-201.23C1085.18,-188.14 1131.71,-165.9 1109,-134 1045.25,-44.43 908.26,-22.52 829.33,-17.54"/>
<polygon fill="midnightblue" stroke="midnightblue" points="1040.68,-197.91 1032.05,-204.04 1042.62,-204.64 1040.68,-197.91"/>
</g>
<!-- Node8&#45;&gt;Node27 -->
<g id="edge35" class="edge">
<title>Node8&#45;&gt;Node27</title>
<path fill="none" stroke="midnightblue" d="M1042.42,-211.78C1168.48,-204.13 1462.45,-185.61 1709,-165 1737.04,-162.66 1768.04,-159.68 1794.38,-157.03"/>
<polygon fill="midnightblue" stroke="midnightblue" points="1041.96,-208.3 1032.19,-212.4 1042.39,-215.29 1041.96,-208.3"/>
</g>
<!-- Node28 -->
<g id="node28" class="node">
<title>Node28</title>
<g id="a_node28"><a xlink:href="future__impl_8cpp.html" target="_top" xlink:title=" ">
<polygon fill="none" stroke="black" points="972,-140 972,-159 1100,-159 1100,-140 972,-140"/>
<text text-anchor="middle" x="1036" y="-147" font-family="Helvetica,sans-Serif" font-size="10.00">src/async/future_impl.cpp</text>
</a>
</g>
</g>
<!-- Node8&#45;&gt;Node28 -->
<g id="edge39" class="edge">
<title>Node8&#45;&gt;Node28</title>
<path fill="none" stroke="midnightblue" d="M998.82,-193.66C1008.98,-181.86 1020.95,-167.97 1028.51,-159.19"/>
<polygon fill="midnightblue" stroke="midnightblue" points="996.03,-191.54 992.15,-201.4 1001.33,-196.1 996.03,-191.54"/>
</g>
<!-- Node9&#45;&gt;Node10 -->
<g id="edge9" class="edge">
<title>Node9&#45;&gt;Node10</title>
<path fill="none" stroke="midnightblue" d="M1365.44,-124.4C1363.35,-115.37 1361.06,-105.41 1359.25,-97.58"/>
<polygon fill="midnightblue" stroke="midnightblue" points="1362.09,-125.44 1367.75,-134.4 1368.91,-123.87 1362.09,-125.44"/>
</g>
<!-- Node11 -->
<g id="node11" class="node">
<title>Node11</title>
<g id="a_node11"><a xlink:href="when__all_8cpp.html" target="_top" xlink:title=" ">
<polygon fill="none" stroke="black" points="1305.5,-0.5 1305.5,-30.5 1406.5,-30.5 1406.5,-0.5 1305.5,-0.5"/>
<text text-anchor="start" x="1313.5" y="-18.5" font-family="Helvetica,sans-Serif" font-size="10.00">test/example/async</text>
<text text-anchor="middle" x="1356" y="-7.5" font-family="Helvetica,sans-Serif" font-size="10.00">/when_all.cpp</text>
</a>
</g>
</g>
<!-- Node10&#45;&gt;Node11 -->
<g id="edge10" class="edge">
<title>Node10&#45;&gt;Node11</title>
<path fill="none" stroke="midnightblue" d="M1356,-57.11C1356,-48.15 1356,-38.32 1356,-30.58"/>
<polygon fill="midnightblue" stroke="midnightblue" points="1352.5,-57.4 1356,-67.4 1359.5,-57.4 1352.5,-57.4"/>
</g>
<!-- Node12&#45;&gt;Node13 -->
<g id="edge12" class="edge">
<title>Node12&#45;&gt;Node13</title>
<path fill="none" stroke="midnightblue" d="M490,-124.11C490,-115.15 490,-105.32 490,-97.58"/>
<polygon fill="midnightblue" stroke="midnightblue" points="486.5,-124.4 490,-134.4 493.5,-124.4 486.5,-124.4"/>
</g>
<!-- Node14 -->
<g id="node14" class="node">
<title>Node14</title>
<g id="a_node14"><a xlink:href="when__any_8cpp.html" target="_top" xlink:title=" ">
<polygon fill="none" stroke="black" points="227.5,-0.5 227.5,-30.5 328.5,-30.5 328.5,-0.5 227.5,-0.5"/>
<text text-anchor="start" x="235.5" y="-18.5" font-family="Helvetica,sans-Serif" font-size="10.00">test/example/async</text>
<text text-anchor="middle" x="278" y="-7.5" font-family="Helvetica,sans-Serif" font-size="10.00">/when_any.cpp</text>
</a>
</g>
</g>
<!-- Node13&#45;&gt;Node14 -->
<g id="edge13" class="edge">
<title>Node13&#45;&gt;Node14</title>
<path fill="none" stroke="midnightblue" d="M434.37,-64.44C400.01,-53.91 356.44,-40.55 324.02,-30.61"/>
<polygon fill="midnightblue" stroke="midnightblue" points="433.67,-67.89 444.26,-67.48 435.73,-61.2 433.67,-67.89"/>
</g>
<!-- Node15&#45;&gt;Node10 -->
<g id="edge15" class="edge">
<title>Node15&#45;&gt;Node10</title>
<path fill="none" stroke="midnightblue" d="M964.08,-133.94C1106.75,-110.5 1145.95,-119.93 1285,-98 1292.46,-96.82 1300.32,-95.4 1307.98,-93.92"/>
<polygon fill="midnightblue" stroke="midnightblue" points="963.37,-130.51 954.08,-135.61 964.52,-137.42 963.37,-130.51"/>
</g>
<!-- Node15&#45;&gt;Node13 -->
<g id="edge16" class="edge">
<title>Node15&#45;&gt;Node13</title>
<path fill="none" stroke="midnightblue" d="M833.84,-138.15C751.49,-125.06 611.64,-102.83 538.25,-91.17"/>
<polygon fill="midnightblue" stroke="midnightblue" points="833.42,-141.62 843.84,-139.73 834.51,-134.71 833.42,-141.62"/>
</g>
<!-- Node18 -->
<g id="node18" class="node">
<title>Node18</title>
<g id="a_node18"><a xlink:href="wait__group_8cpp.html" target="_top" xlink:title=" ">
<polygon fill="none" stroke="black" points="1156.5,-73 1156.5,-92 1275.5,-92 1275.5,-73 1156.5,-73"/>
<text text-anchor="middle" x="1216" y="-80" font-family="Helvetica,sans-Serif" font-size="10.00">src/algo/wait_group.cpp</text>
</a>
</g>
</g>
<!-- Node17&#45;&gt;Node18 -->
<g id="edge20" class="edge">
<title>Node17&#45;&gt;Node18</title>
<path fill="none" stroke="midnightblue" d="M1208.48,-124.25C1210.55,-113.02 1212.88,-100.38 1214.39,-92.19"/>
<polygon fill="midnightblue" stroke="midnightblue" points="1204.98,-123.93 1206.6,-134.4 1211.86,-125.2 1204.98,-123.93"/>
</g>
<!-- Node20&#45;&gt;Node21 -->
<g id="edge25" class="edge">
<title>Node20&#45;&gt;Node21</title>
<path fill="none" stroke="midnightblue" d="M143.37,-127.88C155.53,-118.01 169.78,-106.43 180.68,-97.58"/>
<polygon fill="midnightblue" stroke="midnightblue" points="140.91,-125.37 135.36,-134.4 145.33,-130.81 140.91,-125.37"/>
</g>
<!-- Node22&#45;&gt;Node11 -->
<g id="edge28" class="edge">
<title>Node22&#45;&gt;Node11</title>
<path fill="none" stroke="midnightblue" d="M306.53,-128.66C336.48,-109.02 385.72,-80.05 433,-67 517.12,-43.78 1124.56,-23.56 1305.36,-18.01"/>
<polygon fill="midnightblue" stroke="midnightblue" points="304.25,-125.97 297.87,-134.42 308.13,-131.79 304.25,-125.97"/>
</g>
<!-- Node22&#45;&gt;Node14 -->
<g id="edge29" class="edge">
<title>Node22&#45;&gt;Node14</title>
<path fill="none" stroke="midnightblue" d="M278,-124.02C278,-96.51 278,-52.79 278,-30.52"/>
<polygon fill="midnightblue" stroke="midnightblue" points="274.5,-124.37 278,-134.37 281.5,-124.37 274.5,-124.37"/>
</g>
<!-- Node22&#45;&gt;Node21 -->
<g id="edge27" class="edge">
<title>Node22&#45;&gt;Node21</title>
<path fill="none" stroke="midnightblue" d="M252.63,-127.88C240.47,-118.01 226.22,-106.43 215.32,-97.58"/>
<polygon fill="midnightblue" stroke="midnightblue" points="250.67,-130.81 260.64,-134.4 255.09,-125.37 250.67,-130.81"/>
</g>
<!-- Node24&#45;&gt;Node25 -->
<g id="edge32" class="edge">
<title>Node24&#45;&gt;Node25</title>
<path fill="none" stroke="midnightblue" d="M708.45,-128.45C722.14,-118.45 738.37,-106.6 750.73,-97.58"/>
<polygon fill="midnightblue" stroke="midnightblue" points="706.32,-125.67 700.31,-134.4 710.45,-131.32 706.32,-125.67"/>
</g>
<!-- Node24&#45;&gt;Node26 -->
<g id="edge34" class="edge">
<title>Node24&#45;&gt;Node26</title>
<path fill="none" stroke="midnightblue" d="M682.21,-123.99C684.08,-106.81 688.7,-83.96 700,-67 710.3,-51.53 727.04,-39.2 741.57,-30.6"/>
<polygon fill="midnightblue" stroke="midnightblue" points="678.69,-124.09 681.34,-134.35 685.67,-124.68 678.69,-124.09"/>
</g>
<!-- Node25&#45;&gt;Node26 -->
<g id="edge33" class="edge">
<title>Node25&#45;&gt;Node26</title>
<path fill="none" stroke="midnightblue" d="M770,-57.11C770,-48.15 770,-38.32 770,-30.58"/>
<polygon fill="midnightblue" stroke="midnightblue" points="766.5,-57.4 770,-67.4 773.5,-57.4 766.5,-57.4"/>
</g>
<!-- Node27&#45;&gt;Node23 -->
<g id="edge36" class="edge">
<title>Node27&#45;&gt;Node23</title>
<path fill="none" stroke="midnightblue" d="M1857,-124.11C1857,-115.15 1857,-105.32 1857,-97.58"/>
<polygon fill="midnightblue" stroke="midnightblue" points="1853.5,-124.4 1857,-134.4 1860.5,-124.4 1853.5,-124.4"/>
</g>
<!-- Node30&#45;&gt;Node20 -->
<g id="edge48" class="edge">
<title>Node30&#45;&gt;Node20</title>
<path fill="none" stroke="midnightblue" d="M135.63,-330.49C122.75,-322.72 110.26,-312.36 103,-299 78.98,-254.84 99.98,-192.33 111.56,-164.64"/>
<polygon fill="midnightblue" stroke="midnightblue" points="134.11,-333.65 144.55,-335.46 137.52,-327.54 134.11,-333.65"/>
</g>
<!-- Node30&#45;&gt;Node21 -->
<g id="edge50" class="edge">
<title>Node30&#45;&gt;Node21</title>
<path fill="none" stroke="midnightblue" d="M130.78,-330.94C115.72,-323.16 100.45,-312.67 90,-299 44.57,-239.59 13.95,-195.15 57,-134 77.28,-105.19 115.6,-92.73 147.17,-87.38"/>
<polygon fill="midnightblue" stroke="midnightblue" points="129.55,-334.23 140.08,-335.44 132.6,-327.93 129.55,-334.23"/>
</g>
<!-- Node31 -->
<g id="node31" class="node">
<title>Node31</title>
<g id="a_node31"><a xlink:href="promise__impl_8cpp.html" target="_top" xlink:title=" ">
<polygon fill="none" stroke="black" points="112.5,-274 112.5,-293 249.5,-293 249.5,-274 112.5,-274"/>
<text text-anchor="middle" x="181" y="-281" font-family="Helvetica,sans-Serif" font-size="10.00">src/async/promise_impl.cpp</text>
</a>
</g>
</g>
<!-- Node30&#45;&gt;Node31 -->
<g id="edge49" class="edge">
<title>Node30&#45;&gt;Node31</title>
<path fill="none" stroke="midnightblue" d="M181,-325.25C181,-314.02 181,-301.38 181,-293.19"/>
<polygon fill="midnightblue" stroke="midnightblue" points="177.5,-325.4 181,-335.4 184.5,-325.4 177.5,-325.4"/>
</g>
<!-- Node32&#45;&gt;Node7 -->
<g id="edge55" class="edge">
<title>Node32&#45;&gt;Node7</title>
<path fill="none" stroke="midnightblue" d="M856.95,-459.54C859.3,-451.17 861.86,-441.7 864,-433 876.04,-384.09 887.93,-325.5 893.19,-298.9"/>
<polygon fill="midnightblue" stroke="midnightblue" points="853.51,-458.83 854.14,-469.41 860.25,-460.75 853.51,-458.83"/>
</g>
<!-- Node32&#45;&gt;Node11 -->
<g id="edge69" class="edge">
<title>Node32&#45;&gt;Node11</title>
<path fill="none" stroke="midnightblue" d="M905.73,-483.24C1012.23,-481.77 1251.53,-473.76 1448,-433 1559.13,-409.95 1690,-464.99 1690,-351.5 1690,-351.5 1690,-351.5 1690,-282.5 1690,-215.96 1747.92,-187.97 1709,-134 1639.21,-37.21 1486.3,-18.93 1406.59,-16.25"/>
<polygon fill="midnightblue" stroke="midnightblue" points="905.5,-479.74 895.54,-483.37 905.59,-486.74 905.5,-479.74"/>
</g>
<!-- Node32&#45;&gt;Node14 -->
<g id="edge70" class="edge">
<title>Node32&#45;&gt;Node14</title>
<path fill="none" stroke="midnightblue" d="M793.77,-479.65C643.32,-468.54 235.19,-432.87 120,-366 107.9,-358.98 0,-217.93 0,-217.5 0,-217.5 0,-217.5 0,-148.5 0,-48.99 147.15,-24.41 227.33,-18.4"/>
<polygon fill="midnightblue" stroke="midnightblue" points="793.92,-483.17 804.15,-480.41 794.43,-476.19 793.92,-483.17"/>
</g>
<!-- Node32&#45;&gt;Node21 -->
<g id="edge68" class="edge">
<title>Node32&#45;&gt;Node21</title>
<path fill="none" stroke="midnightblue" d="M794.38,-478.7C709.53,-469.14 545.49,-441.65 430,-366 321.12,-294.68 281.87,-277.85 217,-165 204.69,-143.59 200.35,-114.67 198.82,-97.66"/>
<polygon fill="midnightblue" stroke="midnightblue" points="794,-482.18 804.32,-479.78 794.76,-475.22 794,-482.18"/>
</g>
<!-- Node32&#45;&gt;Node24 -->
<g id="edge67" class="edge">
<title>Node32&#45;&gt;Node24</title>
<path fill="none" stroke="midnightblue" d="M842.33,-459.67C832.4,-429.87 813.89,-377.58 793,-335 760.49,-268.73 711.69,-195.19 690.92,-164.82"/>
<polygon fill="midnightblue" stroke="midnightblue" points="839.02,-460.82 845.47,-469.22 845.67,-458.63 839.02,-460.82"/>
</g>
<!-- Node33 -->
<g id="node33" class="node">
<title>Node33</title>
<g id="a_node33"><a xlink:href="result__core_8hpp.html" target="_top" xlink:title=" ">
<polygon fill="none" stroke="black" points="596,-402.5 596,-432.5 708,-432.5 708,-402.5 596,-402.5"/>
<text text-anchor="start" x="604" y="-420.5" font-family="Helvetica,sans-Serif" font-size="10.00">include/yaclib/async</text>
<text text-anchor="middle" x="652" y="-409.5" font-family="Helvetica,sans-Serif" font-size="10.00">/detail/result_core.hpp</text>
</a>
</g>
</g>
<!-- Node32&#45;&gt;Node33 -->
<g id="edge56" class="edge">
<title>Node32&#45;&gt;Node33</title>
<path fill="none" stroke="midnightblue" d="M797.39,-466.23C765.36,-455.71 724.96,-442.45 694.88,-432.58"/>
<polygon fill="midnightblue" stroke="midnightblue" points="796.44,-469.6 807.04,-469.4 798.63,-462.95 796.44,-469.6"/>
</g>
<!-- Node33&#45;&gt;Node8 -->
<g id="edge62" class="edge">
<title>Node33&#45;&gt;Node8</title>
<path fill="none" stroke="midnightblue" d="M717.95,-405.25C744.09,-397.88 772.69,-385.79 793,-366 826.46,-333.4 797.26,-300.31 831,-268 857.14,-242.97 896.13,-230.32 927.68,-223.94"/>
<polygon fill="midnightblue" stroke="midnightblue" points="716.86,-401.92 708.08,-407.84 718.64,-408.69 716.86,-401.92"/>
</g>
<!-- Node33&#45;&gt;Node9 -->
<g id="edge57" class="edge">
<title>Node33&#45;&gt;Node9</title>
<path fill="none" stroke="midnightblue" d="M718.52,-413.93C828.64,-408.91 1043.57,-395.56 1113,-366 1225.5,-318.11 1326.65,-204.28 1359.69,-164.51"/>
<polygon fill="midnightblue" stroke="midnightblue" points="718.03,-410.45 708.2,-414.4 718.35,-417.45 718.03,-410.45"/>
</g>
<!-- Node33&#45;&gt;Node12 -->
<g id="edge58" class="edge">
<title>Node33&#45;&gt;Node12</title>
<path fill="none" stroke="midnightblue" d="M585.86,-408.85C533.28,-401.25 465.86,-387.57 449,-366 400.57,-304.04 456.95,-201.82 480.56,-164.61"/>
<polygon fill="midnightblue" stroke="midnightblue" points="585.43,-412.33 595.82,-410.25 586.4,-405.39 585.43,-412.33"/>
</g>
<!-- Node33&#45;&gt;Node24 -->
<g id="edge64" class="edge">
<title>Node33&#45;&gt;Node24</title>
<path fill="none" stroke="midnightblue" d="M654.66,-392.07C660.6,-337.57 674.78,-207.52 679.47,-164.55"/>
<polygon fill="midnightblue" stroke="midnightblue" points="651.16,-391.88 653.56,-402.2 658.12,-392.64 651.16,-391.88"/>
</g>
<!-- Node33&#45;&gt;Node25 -->
<g id="edge65" class="edge">
<title>Node33&#45;&gt;Node25</title>
<path fill="none" stroke="midnightblue" d="M637.71,-393.74C607.28,-342.06 543.51,-214.15 603,-134 627.19,-101.41 671.81,-89.1 708.85,-84.77"/>
<polygon fill="midnightblue" stroke="midnightblue" points="634.81,-395.71 642.97,-402.47 640.81,-392.1 634.81,-395.71"/>
</g>
<!-- Node33&#45;&gt;Node30 -->
<g id="edge63" class="edge">
<title>Node33&#45;&gt;Node30</title>
<path fill="none" stroke="midnightblue" d="M585.62,-407.34C490.97,-394.28 319.16,-370.57 233.08,-358.69"/>
<polygon fill="midnightblue" stroke="midnightblue" points="585.27,-410.82 595.65,-408.72 586.23,-403.89 585.27,-410.82"/>
</g>
<!-- Node34 -->
<g id="node34" class="node">
<title>Node34</title>
<g id="a_node34"><a xlink:href="core_8hpp.html" target="_top" xlink:title=" ">
<polygon fill="none" stroke="black" points="680,-335.5 680,-365.5 784,-365.5 784,-335.5 680,-335.5"/>
<text text-anchor="start" x="688" y="-353.5" font-family="Helvetica,sans-Serif" font-size="10.00">include/yaclib/async</text>
<text text-anchor="middle" x="732" y="-342.5" font-family="Helvetica,sans-Serif" font-size="10.00">/detail/core.hpp</text>
</a>
</g>
</g>
<!-- Node33&#45;&gt;Node34 -->
<g id="edge59" class="edge">
<title>Node33&#45;&gt;Node34</title>
<path fill="none" stroke="midnightblue" d="M677.37,-395.88C689.53,-386.01 703.78,-374.43 714.68,-365.58"/>
<polygon fill="midnightblue" stroke="midnightblue" points="674.91,-393.37 669.36,-402.4 679.33,-398.81 674.91,-393.37"/>
</g>
<!-- Node35 -->
<g id="node35" class="node">
<title>Node35</title>
<g id="a_node35"><a xlink:href="result__core_8cpp.html" target="_top" xlink:title=" ">
<polygon fill="none" stroke="black" points="458,-341 458,-360 586,-360 586,-341 458,-341"/>
<text text-anchor="middle" x="522" y="-348" font-family="Helvetica,sans-Serif" font-size="10.00">src/async/result_core.cpp</text>
</a>
</g>
</g>
<!-- Node33&#45;&gt;Node35 -->
<g id="edge66" class="edge">
<title>Node33&#45;&gt;Node35</title>
<path fill="none" stroke="midnightblue" d="M614.61,-397.8C589.68,-385.34 558.11,-369.56 539.01,-360.01"/>
<polygon fill="midnightblue" stroke="midnightblue" points="613.28,-401.05 623.79,-402.4 616.41,-394.79 613.28,-401.05"/>
</g>
<!-- Node34&#45;&gt;Node7 -->
<g id="edge60" class="edge">
<title>Node34&#45;&gt;Node7</title>
<path fill="none" stroke="midnightblue" d="M776.96,-331.68C803.26,-321.26 836,-308.28 860.48,-298.58"/>
<polygon fill="midnightblue" stroke="midnightblue" points="775.59,-328.46 767.59,-335.4 778.17,-334.97 775.59,-328.46"/>
</g>
<!-- Node34&#45;&gt;Node22 -->
<g id="edge61" class="edge">
<title>Node34&#45;&gt;Node22</title>
<path fill="none" stroke="midnightblue" d="M690.4,-331.26C600.67,-291.93 390.57,-199.84 310.12,-164.58"/>
<polygon fill="midnightblue" stroke="midnightblue" points="689.15,-334.54 699.71,-335.35 691.96,-328.13 689.15,-334.54"/>
</g>
</g>
</svg>
