<?xml version="1.0" encoding="UTF-8" standalone="no"?>
<!DOCTYPE svg PUBLIC "-//W3C//DTD SVG 1.1//EN"
 "http://www.w3.org/Graphics/SVG/1.1/DTD/svg11.dtd">
<!-- Generated by graphviz version 2.50.0 (20220203.2022)
 -->
<!-- Title: Graphical Class Hierarchy Pages: 1 -->
<svg width="1319pt" height="240pt"
 viewBox="0.00 0.00 1319.00 240.00" xmlns="http://www.w3.org/2000/svg" xmlns:xlink="http://www.w3.org/1999/xlink">
<g id="graph0" class="graph" transform="scale(1 1) rotate(0) translate(4 236)">
<title>Graphical Class Hierarchy</title>
<!-- Node0 -->
<g id="node1" class="node">
<title>Node0</title>
<g id="a_node1"><a xlink:title=" ">
<polygon fill="none" stroke="#bfbfbf" points="445.5,-143 445.5,-217 576.5,-217 576.5,-143 445.5,-143"/>
<text text-anchor="start" x="453.5" y="-205" font-family="Helvetica,sans-Serif" font-size="10.00">AllCombinatorBase&lt;</text>
<text text-anchor="start" x="453.5" y="-194" font-family="Helvetica,sans-Serif" font-size="10.00"> std::conditional_t</text>
<text text-anchor="start" x="453.5" y="-183" font-family="Helvetica,sans-Serif" font-size="10.00">&lt; std::is_void_v&lt; V &gt;</text>
<text text-anchor="start" x="453.5" y="-172" font-family="Helvetica,sans-Serif" font-size="10.00">, void, std::conditional</text>
<text text-anchor="start" x="453.5" y="-161" font-family="Helvetica,sans-Serif" font-size="10.00">_t&lt; 0 !=0, std::array&lt; V,</text>
<text text-anchor="middle" x="511" y="-150" font-family="Helvetica,sans-Serif" font-size="10.00"> 0 &gt;, std::vector&lt; V &gt; &gt; &gt; &gt;</text>
</a>
</g>
</g>
<!-- Node1 -->
<g id="node2" class="node">
<title>Node1</title>
<g id="a_node2"><a xlink:href="classyaclib_1_1detail_1_1AllCombinator.html" target="_top" xlink:title=" ">
<polygon fill="none" stroke="black" points="620,-154 620,-184 754,-184 754,-154 620,-154"/>
<text text-anchor="start" x="628" y="-172" font-family="Helvetica,sans-Serif" font-size="10.00">yaclib::detail::AllCombinator</text>
<text text-anchor="middle" x="687" y="-161" font-family="Helvetica,sans-Serif" font-size="10.00">&lt; V, E, N, FutureValue &gt;</text>
</a>
</g>
</g>
<!-- Node0&#45;&gt;Node1 -->
<g id="edge1" class="edge">
<title>Node0&#45;&gt;Node1</title>
<path fill="none" stroke="midnightblue" d="M586.83,-175.27C597.86,-174.57 609.16,-173.86 619.99,-173.17"/>
<polygon fill="midnightblue" stroke="midnightblue" points="586.55,-171.78 576.79,-175.9 586.99,-178.77 586.55,-171.78"/>
</g>
<!-- Node4 -->
<g id="node3" class="node">
<title>Node4</title>
<g id="a_node3"><a xlink:href="classyaclib_1_1detail_1_1AnyCombinatorBase.html" target="_top" xlink:title=" ">
<polygon fill="none" stroke="black" points="441,-55 441,-85 581,-85 581,-55 441,-55"/>
<text text-anchor="start" x="449" y="-73" font-family="Helvetica,sans-Serif" font-size="10.00">yaclib::detail::AnyCombinator</text>
<text text-anchor="middle" x="511" y="-62" font-family="Helvetica,sans-Serif" font-size="10.00">Base&lt; V, E, P &gt;</text>
</a>
</g>
</g>
<!-- Node3 -->
<g id="node4" class="node">
<title>Node3</title>
<g id="a_node4"><a xlink:href="classyaclib_1_1detail_1_1AnyCombinator.html" target="_top" xlink:title=" ">
<polygon fill="none" stroke="black" points="617,-55 617,-85 757,-85 757,-55 617,-55"/>
<text text-anchor="start" x="625" y="-73" font-family="Helvetica,sans-Serif" font-size="10.00">yaclib::detail::AnyCombinator</text>
<text text-anchor="middle" x="687" y="-62" font-family="Helvetica,sans-Serif" font-size="10.00">&lt; V, E, P &gt;</text>
</a>
</g>
</g>
<!-- Node4&#45;&gt;Node3 -->
<g id="edge2" class="edge">
<title>Node4&#45;&gt;Node3</title>
<path fill="none" stroke="midnightblue" d="M591.03,-70C599.62,-70 608.32,-70 616.78,-70"/>
<polygon fill="midnightblue" stroke="midnightblue" points="591.02,-66.5 581.02,-70 591.02,-73.5 591.02,-66.5"/>
</g>
<!-- Node17 -->
<g id="node5" class="node">
<title>Node17</title>
<g id="a_node5"><a xlink:href="classyaclib_1_1IRef.html" target="_top" xlink:title="Reference counting interface.">
<polygon fill="none" stroke="black" points="0,-114.5 0,-133.5 64,-133.5 64,-114.5 0,-114.5"/>
<text text-anchor="middle" x="32" y="-121.5" font-family="Helvetica,sans-Serif" font-size="10.00">yaclib::IRef</text>
</a>
</g>
</g>
<!-- Node18 -->
<g id="node6" class="node">
<title>Node18</title>
<g id="a_node6"><a xlink:href="classyaclib_1_1IExecutor.html" target="_top" xlink:title=" ">
<polygon fill="none" stroke="black" points="121.5,-152.5 121.5,-171.5 207.5,-171.5 207.5,-152.5 121.5,-152.5"/>
<text text-anchor="middle" x="164.5" y="-159.5" font-family="Helvetica,sans-Serif" font-size="10.00">yaclib::IExecutor</text>
</a>
</g>
</g>
<!-- Node17&#45;&gt;Node18 -->
<g id="edge3" class="edge">
<title>Node17&#45;&gt;Node18</title>
<path fill="none" stroke="midnightblue" d="M74.05,-135.95C92.3,-141.27 113.5,-147.44 130.68,-152.44"/>
<polygon fill="midnightblue" stroke="midnightblue" points="74.84,-132.54 64.26,-133.1 72.88,-139.26 74.84,-132.54"/>
</g>
<!-- Node16 -->
<g id="node9" class="node">
<title>Node16</title>
<g id="a_node9"><a xlink:href="classyaclib_1_1IFunc.html" target="_top" xlink:title="Shared callable interface.">
<polygon fill="none" stroke="black" points="129,-114.5 129,-133.5 200,-133.5 200,-114.5 129,-114.5"/>
<text text-anchor="middle" x="164.5" y="-121.5" font-family="Helvetica,sans-Serif" font-size="10.00">yaclib::IFunc</text>
</a>
</g>
</g>
<!-- Node17&#45;&gt;Node16 -->
<g id="edge6" class="edge">
<title>Node17&#45;&gt;Node16</title>
<path fill="none" stroke="midnightblue" d="M74.73,-124C92.18,-124 112.21,-124 128.82,-124"/>
<polygon fill="midnightblue" stroke="midnightblue" points="74.26,-120.5 64.26,-124 74.26,-127.5 74.26,-120.5"/>
</g>
<!-- Node21 -->
<g id="node22" class="node">
<title>Node21</title>
<g id="a_node22"><a xlink:href="classyaclib_1_1IThreadFactory.html" target="_top" xlink:title=" ">
<polygon fill="none" stroke="black" points="109,-76.5 109,-95.5 220,-95.5 220,-76.5 109,-76.5"/>
<text text-anchor="middle" x="164.5" y="-83.5" font-family="Helvetica,sans-Serif" font-size="10.00">yaclib::IThreadFactory</text>
</a>
</g>
</g>
<!-- Node17&#45;&gt;Node21 -->
<g id="edge21" class="edge">
<title>Node17&#45;&gt;Node21</title>
<path fill="none" stroke="midnightblue" d="M74.05,-112.05C92.3,-106.73 113.5,-100.56 130.68,-95.56"/>
<polygon fill="midnightblue" stroke="midnightblue" points="72.88,-108.74 64.26,-114.9 74.84,-115.46 72.88,-108.74"/>
</g>
<!-- Node22 -->
<g id="node23" class="node">
<title>Node22</title>
<g id="a_node23"><a xlink:href="classyaclib_1_1detail_1_1AtomicEvent.html" target="_top" xlink:title=" ">
<polygon fill="none" stroke="black" points="100,-38.5 100,-57.5 229,-57.5 229,-38.5 100,-38.5"/>
<text text-anchor="middle" x="164.5" y="-45.5" font-family="Helvetica,sans-Serif" font-size="10.00">yaclib::detail::AtomicEvent</text>
</a>
</g>
</g>
<!-- Node17&#45;&gt;Node22 -->
<g id="edge22" class="edge">
<title>Node17&#45;&gt;Node22</title>
<path fill="none" stroke="midnightblue" d="M49.13,-106.87C61.87,-94.25 80.67,-77.51 100,-67 106.98,-63.21 114.8,-60.08 122.52,-57.53"/>
<polygon fill="midnightblue" stroke="midnightblue" points="46.54,-104.52 42.03,-114.11 51.53,-109.42 46.54,-104.52"/>
</g>
<!-- Node23 -->
<g id="node24" class="node">
<title>Node23</title>
<g id="a_node24"><a xlink:href="classyaclib_1_1detail_1_1MutexEvent.html" target="_top" xlink:title=" ">
<polygon fill="none" stroke="black" points="102,-196.5 102,-215.5 227,-215.5 227,-196.5 102,-196.5"/>
<text text-anchor="middle" x="164.5" y="-203.5" font-family="Helvetica,sans-Serif" font-size="10.00">yaclib::detail::MutexEvent</text>
</a>
</g>
</g>
<!-- Node17&#45;&gt;Node23 -->
<g id="edge23" class="edge">
<title>Node17&#45;&gt;Node23</title>
<path fill="none" stroke="midnightblue" d="M49.4,-140.67C62.27,-153.05 81.13,-169.69 100,-181 110.37,-187.21 122.55,-192.44 133.46,-196.49"/>
<polygon fill="midnightblue" stroke="midnightblue" points="51.79,-138.11 42.2,-133.59 46.88,-143.1 51.79,-138.11"/>
</g>
<!-- Node19 -->
<g id="node7" class="node">
<title>Node19</title>
<g id="a_node7"><a xlink:href="classyaclib_1_1IThreadPool.html" target="_top" xlink:title="Interface for thread&#45;pool&#45;like executors.">
<polygon fill="none" stroke="black" points="286,-152.5 286,-171.5 384,-171.5 384,-152.5 286,-152.5"/>
<text text-anchor="middle" x="335" y="-159.5" font-family="Helvetica,sans-Serif" font-size="10.00">yaclib::IThreadPool</text>
</a>
</g>
</g>
<!-- Node18&#45;&gt;Node19 -->
<g id="edge4" class="edge">
<title>Node18&#45;&gt;Node19</title>
<path fill="none" stroke="midnightblue" d="M217.65,-162C239.43,-162 264.57,-162 285.9,-162"/>
<polygon fill="midnightblue" stroke="midnightblue" points="217.59,-158.5 207.59,-162 217.58,-165.5 217.59,-158.5"/>
</g>
<!-- Node20 -->
<g id="node8" class="node">
<title>Node20</title>
<g id="a_node8"><a xlink:href="classyaclib_1_1Inline.html" target="_top" xlink:title=" ">
<polygon fill="none" stroke="black" points="300.5,-114.5 300.5,-133.5 369.5,-133.5 369.5,-114.5 300.5,-114.5"/>
<text text-anchor="middle" x="335" y="-121.5" font-family="Helvetica,sans-Serif" font-size="10.00">yaclib::Inline</text>
</a>
</g>
</g>
<!-- Node18&#45;&gt;Node20 -->
<g id="edge5" class="edge">
<title>Node18&#45;&gt;Node20</title>
<path fill="none" stroke="midnightblue" d="M217.63,-150.24C244.59,-144.16 276.69,-136.92 300.35,-131.59"/>
<polygon fill="midnightblue" stroke="midnightblue" points="216.57,-146.89 207.59,-152.51 218.11,-153.72 216.57,-146.89"/>
</g>
<!-- Node13 -->
<g id="node10" class="node">
<title>Node13</title>
<g id="a_node10"><a xlink:href="classyaclib_1_1ITask.html" target="_top" xlink:title="Callable that can be executed in an IExecutor.">
<polygon fill="none" stroke="black" points="299.5,-57.5 299.5,-76.5 370.5,-76.5 370.5,-57.5 299.5,-57.5"/>
<text text-anchor="middle" x="335" y="-64.5" font-family="Helvetica,sans-Serif" font-size="10.00">yaclib::ITask</text>
</a>
</g>
</g>
<!-- Node16&#45;&gt;Node13 -->
<g id="edge7" class="edge">
<title>Node16&#45;&gt;Node13</title>
<path fill="none" stroke="midnightblue" d="M208.48,-111.5C215.36,-109.39 222.39,-107.18 229,-105 256.43,-95.94 287.5,-84.55 308.68,-76.62"/>
<polygon fill="midnightblue" stroke="midnightblue" points="207.13,-108.25 198.57,-114.49 209.15,-114.95 207.13,-108.25"/>
</g>
<!-- Node14 -->
<g id="node11" class="node">
<title>Node14</title>
<g id="a_node11"><a xlink:href="classyaclib_1_1detail_1_1SafeCall.html" target="_top" xlink:title=" ">
<polygon fill="none" stroke="black" points="456,-6 456,-36 566,-36 566,-6 456,-6"/>
<text text-anchor="start" x="464" y="-24" font-family="Helvetica,sans-Serif" font-size="10.00">yaclib::detail::SafeCall</text>
<text text-anchor="middle" x="511" y="-13" font-family="Helvetica,sans-Serif" font-size="10.00">&lt; ITask, Functor &gt;</text>
</a>
</g>
</g>
<!-- Node13&#45;&gt;Node14 -->
<g id="edge8" class="edge">
<title>Node13&#45;&gt;Node14</title>
<path fill="none" stroke="midnightblue" d="M380.59,-55.21C403.49,-49.16 431.58,-41.73 455.74,-35.35"/>
<polygon fill="midnightblue" stroke="midnightblue" points="379.57,-51.86 370.79,-57.8 381.36,-58.63 379.57,-51.86"/>
</g>
<!-- Node2 -->
<g id="node13" class="node">
<title>Node2</title>
<g id="a_node13"><a xlink:href="classyaclib_1_1detail_1_1InlineCore.html" target="_top" xlink:title=" ">
<polygon fill="none" stroke="black" points="452.5,-104.5 452.5,-123.5 569.5,-123.5 569.5,-104.5 452.5,-104.5"/>
<text text-anchor="middle" x="511" y="-111.5" font-family="Helvetica,sans-Serif" font-size="10.00">yaclib::detail::InlineCore</text>
</a>
</g>
</g>
<!-- Node13&#45;&gt;Node2 -->
<g id="edge10" class="edge">
<title>Node13&#45;&gt;Node2</title>
<path fill="none" stroke="midnightblue" d="M380.74,-79.09C409.96,-86.98 447.56,-97.13 474.67,-104.46"/>
<polygon fill="midnightblue" stroke="midnightblue" points="381.36,-75.63 370.79,-76.4 379.53,-82.38 381.36,-75.63"/>
</g>
<!-- Node15 -->
<g id="node12" class="node">
<title>Node15</title>
<g id="a_node12"><a xlink:href="classyaclib_1_1detail_1_1UniqueTask.html" target="_top" xlink:title=" ">
<polygon fill="none" stroke="black" points="624,-6 624,-36 750,-36 750,-6 624,-6"/>
<text text-anchor="start" x="632" y="-24" font-family="Helvetica,sans-Serif" font-size="10.00">yaclib::detail::UniqueTask</text>
<text text-anchor="middle" x="687" y="-13" font-family="Helvetica,sans-Serif" font-size="10.00">&lt; Functor &gt;</text>
</a>
</g>
</g>
<!-- Node14&#45;&gt;Node15 -->
<g id="edge9" class="edge">
<title>Node14&#45;&gt;Node15</title>
<path fill="none" stroke="midnightblue" d="M576.14,-21C591.68,-21 608.27,-21 623.72,-21"/>
<polygon fill="midnightblue" stroke="midnightblue" points="576.1,-17.5 566.1,-21 576.1,-24.5 576.1,-17.5"/>
</g>
<!-- Node2&#45;&gt;Node1 -->
<g id="edge11" class="edge">
<title>Node2&#45;&gt;Node1</title>
<path fill="none" stroke="midnightblue" d="M555.78,-126.41C564.17,-128.86 572.87,-131.47 581,-134 601.18,-140.29 623.4,-147.63 642.19,-153.97"/>
<polygon fill="midnightblue" stroke="midnightblue" points="556.7,-123.03 546.12,-123.6 554.75,-129.75 556.7,-123.03"/>
</g>
<!-- Node2&#45;&gt;Node3 -->
<g id="edge12" class="edge">
<title>Node2&#45;&gt;Node3</title>
<path fill="none" stroke="midnightblue" d="M559.56,-101.97C580.2,-96.75 604.59,-90.59 626.42,-85.07"/>
<polygon fill="midnightblue" stroke="midnightblue" points="558.59,-98.61 549.76,-104.45 560.31,-105.39 558.59,-98.61"/>
</g>
<!-- Node5 -->
<g id="node14" class="node">
<title>Node5</title>
<g id="a_node14"><a xlink:href="classyaclib_1_1detail_1_1BaseCore.html" target="_top" xlink:title=" ">
<polygon fill="none" stroke="black" points="629,-104.5 629,-123.5 745,-123.5 745,-104.5 629,-104.5"/>
<text text-anchor="middle" x="687" y="-111.5" font-family="Helvetica,sans-Serif" font-size="10.00">yaclib::detail::BaseCore</text>
</a>
</g>
</g>
<!-- Node2&#45;&gt;Node5 -->
<g id="edge13" class="edge">
<title>Node2&#45;&gt;Node5</title>
<path fill="none" stroke="midnightblue" d="M580.35,-114C596.42,-114 613.39,-114 628.91,-114"/>
<polygon fill="midnightblue" stroke="midnightblue" points="579.94,-110.5 569.94,-114 579.94,-117.5 579.94,-110.5"/>
</g>
<!-- Node6 -->
<g id="node15" class="node">
<title>Node6</title>
<g id="a_node15"><a xlink:href="classyaclib_1_1detail_1_1ResultCore.html" target="_top" xlink:title=" ">
<polygon fill="none" stroke="black" points="793,-150 793,-180 915,-180 915,-150 793,-150"/>
<text text-anchor="start" x="801" y="-168" font-family="Helvetica,sans-Serif" font-size="10.00">yaclib::detail::ResultCore</text>
<text text-anchor="middle" x="854" y="-157" font-family="Helvetica,sans-Serif" font-size="10.00">&lt; void, E &gt;</text>
</a>
</g>
</g>
<!-- Node5&#45;&gt;Node6 -->
<g id="edge14" class="edge">
<title>Node5&#45;&gt;Node6</title>
<path fill="none" stroke="midnightblue" d="M728.76,-126.6C751.6,-133.66 780.24,-142.51 804.26,-149.94"/>
<polygon fill="midnightblue" stroke="midnightblue" points="729.62,-123.2 719.04,-123.59 727.56,-129.89 729.62,-123.2"/>
</g>
<!-- Node9 -->
<g id="node18" class="node">
<title>Node9</title>
<g id="a_node18"><a xlink:href="classyaclib_1_1detail_1_1ResultCore.html" target="_top" xlink:title=" ">
<polygon fill="none" stroke="black" points="793,-99 793,-129 915,-129 915,-99 793,-99"/>
<text text-anchor="start" x="801" y="-117" font-family="Helvetica,sans-Serif" font-size="10.00">yaclib::detail::ResultCore</text>
<text text-anchor="middle" x="854" y="-106" font-family="Helvetica,sans-Serif" font-size="10.00">&lt; V, E &gt;</text>
</a>
</g>
</g>
<!-- Node5&#45;&gt;Node9 -->
<g id="edge17" class="edge">
<title>Node5&#45;&gt;Node9</title>
<path fill="none" stroke="midnightblue" d="M755.48,-114C767.83,-114 780.65,-114 792.77,-114"/>
<polygon fill="midnightblue" stroke="midnightblue" points="755.25,-110.5 745.25,-114 755.25,-117.5 755.25,-110.5"/>
</g>
<!-- Node12 -->
<g id="node21" class="node">
<title>Node12</title>
<g id="a_node21"><a xlink:href="classyaclib_1_1detail_1_1ResultCore_3_01void_00_01void_01_4.html" target="_top" xlink:title=" ">
<polygon fill="none" stroke="black" points="793,-50 793,-80 915,-80 915,-50 793,-50"/>
<text text-anchor="start" x="801" y="-68" font-family="Helvetica,sans-Serif" font-size="10.00">yaclib::detail::ResultCore</text>
<text text-anchor="middle" x="854" y="-57" font-family="Helvetica,sans-Serif" font-size="10.00">&lt; void, void &gt;</text>
</a>
</g>
</g>
<!-- Node5&#45;&gt;Node12 -->
<g id="edge20" class="edge">
<title>Node5&#45;&gt;Node12</title>
<path fill="none" stroke="midnightblue" d="M731.19,-101.56C739.75,-99.07 748.66,-96.47 757,-94 772.19,-89.5 788.71,-84.54 803.7,-80.01"/>
<polygon fill="midnightblue" stroke="midnightblue" points="729.99,-98.26 721.36,-104.41 731.94,-104.99 729.99,-98.26"/>
</g>
<!-- Node7 -->
<g id="node16" class="node">
<title>Node7</title>
<g id="a_node16"><a xlink:href="structyaclib_1_1detail_1_1AtomicCounter.html" target="_top" xlink:title=" ">
<polygon fill="none" stroke="black" points="978.5,-145.5 978.5,-186.5 1116.5,-186.5 1116.5,-145.5 978.5,-145.5"/>
<text text-anchor="start" x="986.5" y="-174.5" font-family="Helvetica,sans-Serif" font-size="10.00">yaclib::detail::AtomicCounter</text>
<text text-anchor="start" x="986.5" y="-163.5" font-family="Helvetica,sans-Serif" font-size="10.00">&lt; ResultCore&lt; void, E &gt;,</text>
<text text-anchor="middle" x="1047.5" y="-152.5" font-family="Helvetica,sans-Serif" font-size="10.00"> CoroutineDeleter &gt;</text>
</a>
</g>
</g>
<!-- Node6&#45;&gt;Node7 -->
<g id="edge15" class="edge">
<title>Node6&#45;&gt;Node7</title>
<path fill="none" stroke="midnightblue" d="M925.12,-165.37C942.48,-165.46 961.04,-165.55 978.3,-165.64"/>
<polygon fill="midnightblue" stroke="midnightblue" points="925.08,-161.87 915.07,-165.31 925.05,-168.87 925.08,-161.87"/>
</g>
<!-- Node8 -->
<g id="node17" class="node">
<title>Node8</title>
<g id="a_node17"><a xlink:href="structyaclib_1_1detail_1_1PromiseType_3_01void_00_01E_01_4.html" target="_top" xlink:title=" ">
<polygon fill="none" stroke="black" points="1180,-151 1180,-181 1311,-181 1311,-151 1180,-151"/>
<text text-anchor="start" x="1188" y="-169" font-family="Helvetica,sans-Serif" font-size="10.00">yaclib::detail::PromiseType</text>
<text text-anchor="middle" x="1245.5" y="-158" font-family="Helvetica,sans-Serif" font-size="10.00">&lt; void, E &gt;</text>
</a>
</g>
</g>
<!-- Node7&#45;&gt;Node8 -->
<g id="edge16" class="edge">
<title>Node7&#45;&gt;Node8</title>
<path fill="none" stroke="midnightblue" d="M1126.76,-166C1144.4,-166 1162.92,-166 1179.92,-166"/>
<polygon fill="midnightblue" stroke="midnightblue" points="1126.5,-162.5 1116.5,-166 1126.5,-169.5 1126.5,-162.5"/>
</g>
<!-- Node10 -->
<g id="node19" class="node">
<title>Node10</title>
<g id="a_node19"><a xlink:href="structyaclib_1_1detail_1_1AtomicCounter.html" target="_top" xlink:title=" ">
<polygon fill="none" stroke="black" points="951,-97 951,-127 1144,-127 1144,-97 951,-97"/>
<text text-anchor="start" x="959" y="-115" font-family="Helvetica,sans-Serif" font-size="10.00">yaclib::detail::AtomicCounter</text>
<text text-anchor="middle" x="1047.5" y="-104" font-family="Helvetica,sans-Serif" font-size="10.00">&lt; ResultCore&lt; V, E &gt;, CoroutineDeleter &gt;</text>
</a>
</g>
</g>
<!-- Node9&#45;&gt;Node10 -->
<g id="edge18" class="edge">
<title>Node9&#45;&gt;Node10</title>
<path fill="none" stroke="midnightblue" d="M925.14,-113.27C933.52,-113.18 942.19,-113.09 950.86,-113"/>
<polygon fill="midnightblue" stroke="midnightblue" points="925.03,-109.77 915.07,-113.37 925.1,-116.77 925.03,-109.77"/>
</g>
<!-- Node11 -->
<g id="node20" class="node">
<title>Node11</title>
<g id="a_node20"><a xlink:href="structyaclib_1_1detail_1_1PromiseType.html" target="_top" xlink:title=" ">
<polygon fill="none" stroke="black" points="1180,-97 1180,-127 1311,-127 1311,-97 1180,-97"/>
<text text-anchor="start" x="1188" y="-115" font-family="Helvetica,sans-Serif" font-size="10.00">yaclib::detail::PromiseType</text>
<text text-anchor="middle" x="1245.5" y="-104" font-family="Helvetica,sans-Serif" font-size="10.00">&lt; V, E &gt;</text>
</a>
</g>
</g>
<!-- Node10&#45;&gt;Node11 -->
<g id="edge19" class="edge">
<title>Node10&#45;&gt;Node11</title>
<path fill="none" stroke="midnightblue" d="M1154.36,-112C1163,-112 1171.56,-112 1179.76,-112"/>
<polygon fill="midnightblue" stroke="midnightblue" points="1154.2,-108.5 1144.2,-112 1154.2,-115.5 1154.2,-108.5"/>
</g>
<!-- Node24 -->
<g id="node25" class="node">
<title>Node24</title>
<g id="a_node25"><a xlink:href="structyaclib_1_1detail_1_1AtomicCounter.html" target="_top" xlink:title=" ">
<polygon fill="none" stroke="black" points="265,-190.5 265,-231.5 405,-231.5 405,-190.5 265,-190.5"/>
<text text-anchor="start" x="273" y="-219.5" font-family="Helvetica,sans-Serif" font-size="10.00">yaclib::detail::AtomicCounter</text>
<text text-anchor="start" x="273" y="-208.5" font-family="Helvetica,sans-Serif" font-size="10.00">&lt; yaclib::detail::MutexEvent,</text>
<text text-anchor="middle" x="335" y="-197.5" font-family="Helvetica,sans-Serif" font-size="10.00"> yaclib::detail::EventDeleter &gt;</text>
</a>
</g>
</g>
<!-- Node23&#45;&gt;Node24 -->
<g id="edge24" class="edge">
<title>Node23&#45;&gt;Node24</title>
<path fill="none" stroke="midnightblue" d="M237.43,-208.13C246.51,-208.4 255.79,-208.68 264.82,-208.95"/>
<polygon fill="midnightblue" stroke="midnightblue" points="237.39,-204.63 227.29,-207.83 237.18,-211.63 237.39,-204.63"/>
</g>
<!-- Node25 -->
<g id="node26" class="node">
<title>Node25</title>
<g id="a_node26"><a xlink:href="structyaclib_1_1detail_1_1Node.html" target="_top" xlink:title="Node class, used in intrusive data structure.">
<polygon fill="none" stroke="black" points="116,-0.5 116,-19.5 213,-19.5 213,-0.5 116,-0.5"/>
<text text-anchor="middle" x="164.5" y="-7.5" font-family="Helvetica,sans-Serif" font-size="10.00">yaclib::detail::Node</text>
</a>
</g>
</g>
<!-- Node25&#45;&gt;Node13 -->
<g id="edge25" class="edge">
<title>Node25&#45;&gt;Node13</title>
<path fill="none" stroke="midnightblue" d="M208.48,-22.5C215.36,-24.61 222.39,-26.82 229,-29 256.43,-38.06 287.5,-49.45 308.68,-57.38"/>
<polygon fill="midnightblue" stroke="midnightblue" points="209.15,-19.05 198.57,-19.51 207.13,-25.75 209.15,-19.05"/>
</g>
<!-- Node26 -->
<g id="node27" class="node">
<title>Node26</title>
<g id="a_node27"><a xlink:href="classyaclib_1_1IThread.html" target="_top" xlink:title=" ">
<polygon fill="none" stroke="black" points="295.5,-0.5 295.5,-19.5 374.5,-19.5 374.5,-0.5 295.5,-0.5"/>
<text text-anchor="middle" x="335" y="-7.5" font-family="Helvetica,sans-Serif" font-size="10.00">yaclib::IThread</text>
</a>
</g>
</g>
<!-- Node25&#45;&gt;Node26 -->
<g id="edge26" class="edge">
<title>Node25&#45;&gt;Node26</title>
<path fill="none" stroke="midnightblue" d="M223.64,-10C247.36,-10 274.15,-10 295.4,-10"/>
<polygon fill="midnightblue" stroke="midnightblue" points="223.33,-6.5 213.33,-10 223.33,-13.5 223.33,-6.5"/>
</g>
</g>
</svg>
