<?xml version="1.0" encoding="UTF-8" standalone="no"?>
<!DOCTYPE svg PUBLIC "-//W3C//DTD SVG 1.1//EN"
 "http://www.w3.org/Graphics/SVG/1.1/DTD/svg11.dtd">
<!-- Generated by graphviz version 2.50.0 (20220203.2022)
 -->
<!-- Title: src/fault/antagonist/inject_fault.cpp Pages: 1 -->
<svg width="370pt" height="341pt"
 viewBox="0.00 0.00 369.50 341.00" xmlns="http://www.w3.org/2000/svg" xmlns:xlink="http://www.w3.org/1999/xlink">
<g id="graph0" class="graph" transform="scale(1 1) rotate(0) translate(4 337)">
<title>src/fault/antagonist/inject_fault.cpp</title>
<!-- Node1 -->
<g id="node1" class="node">
<title>Node1</title>
<g id="a_node1"><a xlink:title=" ">
<polygon fill="#bfbfbf" stroke="black" points="0,-302.5 0,-332.5 100,-332.5 100,-302.5 0,-302.5"/>
<text text-anchor="start" x="8" y="-320.5" font-family="Helvetica,sans-Serif" font-size="10.00">src/fault/antagonist</text>
<text text-anchor="middle" x="50" y="-309.5" font-family="Helvetica,sans-Serif" font-size="10.00">/inject_fault.cpp</text>
</a>
</g>
</g>
<!-- Node2 -->
<g id="node2" class="node">
<title>Node2</title>
<g id="a_node2"><a xlink:title=" ">
<polygon fill="none" stroke="#bfbfbf" points="46,-0.5 46,-19.5 134,-19.5 134,-0.5 46,-0.5"/>
<text text-anchor="middle" x="90" y="-7.5" font-family="Helvetica,sans-Serif" font-size="10.00">yaclib/config.hpp</text>
</a>
</g>
</g>
<!-- Node1&#45;&gt;Node2 -->
<g id="edge1" class="edge">
<title>Node1&#45;&gt;Node2</title>
<path fill="none" stroke="midnightblue" d="M43.4,-302.2C33,-278.34 14,-228.68 14,-184.5 14,-184.5 14,-184.5 14,-121 14,-81.28 47.96,-45.5 70.48,-26.15"/>
<polygon fill="midnightblue" stroke="midnightblue" points="72.98,-28.63 78.46,-19.57 68.52,-23.24 72.98,-28.63"/>
</g>
<!-- Node3 -->
<g id="node3" class="node">
<title>Node3</title>
<g id="a_node3"><a xlink:href="inject__fault_8hpp.html" target="_top" xlink:title=" ">
<polygon fill="none" stroke="black" points="42.5,-235.5 42.5,-265.5 131.5,-265.5 131.5,-235.5 42.5,-235.5"/>
<text text-anchor="start" x="50.5" y="-253.5" font-family="Helvetica,sans-Serif" font-size="10.00">yaclib/fault/detail</text>
<text text-anchor="middle" x="87" y="-242.5" font-family="Helvetica,sans-Serif" font-size="10.00">/inject_fault.hpp</text>
</a>
</g>
</g>
<!-- Node1&#45;&gt;Node3 -->
<g id="edge2" class="edge">
<title>Node1&#45;&gt;Node3</title>
<path fill="none" stroke="midnightblue" d="M58.03,-302.4C62.68,-294.22 68.66,-283.73 73.97,-274.39"/>
<polygon fill="midnightblue" stroke="midnightblue" points="77.08,-276 78.99,-265.58 71,-272.54 77.08,-276"/>
</g>
<!-- Node3&#45;&gt;Node2 -->
<g id="edge3" class="edge">
<title>Node3&#45;&gt;Node2</title>
<path fill="none" stroke="midnightblue" d="M86.45,-235.41C85.31,-203.47 83.02,-123.12 86,-56 86.38,-47.37 87.18,-37.84 87.96,-29.78"/>
<polygon fill="midnightblue" stroke="midnightblue" points="91.46,-29.92 89.01,-19.61 84.5,-29.2 91.46,-29.92"/>
</g>
<!-- Node4 -->
<g id="node4" class="node">
<title>Node4</title>
<g id="a_node4"><a xlink:href="yielder_8hpp.html" target="_top" xlink:title=" ">
<polygon fill="none" stroke="black" points="129.5,-168.5 129.5,-198.5 218.5,-198.5 218.5,-168.5 129.5,-168.5"/>
<text text-anchor="start" x="137.5" y="-186.5" font-family="Helvetica,sans-Serif" font-size="10.00">yaclib/fault/detail</text>
<text text-anchor="middle" x="174" y="-175.5" font-family="Helvetica,sans-Serif" font-size="10.00">/yielder.hpp</text>
</a>
</g>
</g>
<!-- Node3&#45;&gt;Node4 -->
<g id="edge4" class="edge">
<title>Node3&#45;&gt;Node4</title>
<path fill="none" stroke="midnightblue" d="M105.88,-235.4C117.85,-226.45 133.53,-214.74 146.83,-204.8"/>
<polygon fill="midnightblue" stroke="midnightblue" points="149.24,-207.37 155.16,-198.58 145.05,-201.76 149.24,-207.37"/>
</g>
<!-- Node4&#45;&gt;Node2 -->
<g id="edge5" class="edge">
<title>Node4&#45;&gt;Node2</title>
<path fill="none" stroke="midnightblue" d="M147.94,-168.33C134.46,-159.63 118.99,-147.24 110,-132 91.03,-99.87 88.66,-55.03 89.05,-29.93"/>
<polygon fill="midnightblue" stroke="midnightblue" points="92.56,-29.74 89.39,-19.63 85.56,-29.5 92.56,-29.74"/>
</g>
<!-- Node5 -->
<g id="node5" class="node">
<title>Node5</title>
<g id="a_node5"><a xlink:href="thread_8hpp.html" target="_top" xlink:title=" ">
<polygon fill="none" stroke="black" points="118.5,-112.5 118.5,-131.5 229.5,-131.5 229.5,-112.5 118.5,-112.5"/>
<text text-anchor="middle" x="174" y="-119.5" font-family="Helvetica,sans-Serif" font-size="10.00">yaclib/fault/thread.hpp</text>
</a>
</g>
</g>
<!-- Node4&#45;&gt;Node5 -->
<g id="edge6" class="edge">
<title>Node4&#45;&gt;Node5</title>
<path fill="none" stroke="midnightblue" d="M174,-168.4C174,-160.47 174,-150.46 174,-141.86"/>
<polygon fill="midnightblue" stroke="midnightblue" points="177.5,-141.66 174,-131.66 170.5,-141.66 177.5,-141.66"/>
</g>
<!-- Node9 -->
<g id="node9" class="node">
<title>Node9</title>
<g id="a_node9"><a xlink:title=" ">
<polygon fill="none" stroke="#bfbfbf" points="248,-112.5 248,-131.5 294,-131.5 294,-112.5 248,-112.5"/>
<text text-anchor="middle" x="271" y="-119.5" font-family="Helvetica,sans-Serif" font-size="10.00">atomic</text>
</a>
</g>
</g>
<!-- Node4&#45;&gt;Node9 -->
<g id="edge12" class="edge">
<title>Node4&#45;&gt;Node9</title>
<path fill="none" stroke="midnightblue" d="M196.99,-168.4C212.39,-158.95 232.59,-146.56 248,-137.11"/>
<polygon fill="midnightblue" stroke="midnightblue" points="250.19,-139.87 256.89,-131.66 246.53,-133.9 250.19,-139.87"/>
</g>
<!-- Node10 -->
<g id="node10" class="node">
<title>Node10</title>
<g id="a_node10"><a xlink:title=" ">
<polygon fill="none" stroke="#bfbfbf" points="312.5,-112.5 312.5,-131.5 361.5,-131.5 361.5,-112.5 312.5,-112.5"/>
<text text-anchor="middle" x="337" y="-119.5" font-family="Helvetica,sans-Serif" font-size="10.00">random</text>
</a>
</g>
</g>
<!-- Node4&#45;&gt;Node10 -->
<g id="edge13" class="edge">
<title>Node4&#45;&gt;Node10</title>
<path fill="none" stroke="midnightblue" d="M212.63,-168.4C240.34,-158.28 277.31,-144.79 303.72,-135.15"/>
<polygon fill="midnightblue" stroke="midnightblue" points="305.09,-138.37 313.28,-131.66 302.69,-131.8 305.09,-138.37"/>
</g>
<!-- Node5&#45;&gt;Node2 -->
<g id="edge7" class="edge">
<title>Node5&#45;&gt;Node2</title>
<path fill="none" stroke="midnightblue" d="M167.41,-112.37C153.48,-94.14 120.87,-51.43 102.73,-27.68"/>
<polygon fill="midnightblue" stroke="midnightblue" points="105.41,-25.41 96.56,-19.59 99.85,-29.66 105.41,-25.41"/>
</g>
<!-- Node6 -->
<g id="node6" class="node">
<title>Node6</title>
<g id="a_node6"><a xlink:href="chrono_8hpp.html" target="_top" xlink:title=" ">
<polygon fill="none" stroke="black" points="156.5,-56.5 156.5,-75.5 269.5,-75.5 269.5,-56.5 156.5,-56.5"/>
<text text-anchor="middle" x="213" y="-63.5" font-family="Helvetica,sans-Serif" font-size="10.00">yaclib/fault/chrono.hpp</text>
</a>
</g>
</g>
<!-- Node5&#45;&gt;Node6 -->
<g id="edge8" class="edge">
<title>Node5&#45;&gt;Node6</title>
<path fill="none" stroke="midnightblue" d="M180.44,-112.08C185.95,-104.46 194.03,-93.26 200.76,-83.94"/>
<polygon fill="midnightblue" stroke="midnightblue" points="203.66,-85.91 206.68,-75.75 197.99,-81.81 203.66,-85.91"/>
</g>
<!-- Node8 -->
<g id="node8" class="node">
<title>Node8</title>
<g id="a_node8"><a xlink:title=" ">
<polygon fill="none" stroke="#bfbfbf" points="288,-56.5 288,-75.5 332,-75.5 332,-56.5 288,-56.5"/>
<text text-anchor="middle" x="310" y="-63.5" font-family="Helvetica,sans-Serif" font-size="10.00">thread</text>
</a>
</g>
</g>
<!-- Node5&#45;&gt;Node8 -->
<g id="edge11" class="edge">
<title>Node5&#45;&gt;Node8</title>
<path fill="none" stroke="midnightblue" d="M195.55,-112.44C218.03,-103.52 253.49,-89.44 278.98,-79.32"/>
<polygon fill="midnightblue" stroke="midnightblue" points="280.55,-82.46 288.55,-75.52 277.97,-75.95 280.55,-82.46"/>
</g>
<!-- Node6&#45;&gt;Node2 -->
<g id="edge9" class="edge">
<title>Node6&#45;&gt;Node2</title>
<path fill="none" stroke="midnightblue" d="M193.51,-56.44C173.36,-47.6 141.68,-33.69 118.67,-23.59"/>
<polygon fill="midnightblue" stroke="midnightblue" points="119.96,-20.33 109.4,-19.52 117.15,-26.74 119.96,-20.33"/>
</g>
<!-- Node7 -->
<g id="node7" class="node">
<title>Node7</title>
<g id="a_node7"><a xlink:title=" ">
<polygon fill="none" stroke="#bfbfbf" points="190,-0.5 190,-19.5 236,-19.5 236,-0.5 190,-0.5"/>
<text text-anchor="middle" x="213" y="-7.5" font-family="Helvetica,sans-Serif" font-size="10.00">chrono</text>
</a>
</g>
</g>
<!-- Node6&#45;&gt;Node7 -->
<g id="edge10" class="edge">
<title>Node6&#45;&gt;Node7</title>
<path fill="none" stroke="midnightblue" d="M213,-56.08C213,-49.01 213,-38.86 213,-29.99"/>
<polygon fill="midnightblue" stroke="midnightblue" points="216.5,-29.75 213,-19.75 209.5,-29.75 216.5,-29.75"/>
</g>
</g>
</svg>
