<?xml version="1.0" encoding="UTF-8" standalone="no"?>
<!DOCTYPE svg PUBLIC "-//W3C//DTD SVG 1.1//EN"
 "http://www.w3.org/Graphics/SVG/1.1/DTD/svg11.dtd">
<!-- Generated by graphviz version 2.50.0 (20220203.2022)
 -->
<!-- Title: include/yaclib/fault/detail/inject_fault.hpp Pages: 1 -->
<svg width="312pt" height="274pt"
 viewBox="0.00 0.00 312.00 274.00" xmlns="http://www.w3.org/2000/svg" xmlns:xlink="http://www.w3.org/1999/xlink">
<g id="graph0" class="graph" transform="scale(1 1) rotate(0) translate(4 270)">
<title>include/yaclib/fault/detail/inject_fault.hpp</title>
<!-- Node1 -->
<g id="node1" class="node">
<title>Node1</title>
<g id="a_node1"><a xlink:title=" ">
<polygon fill="#bfbfbf" stroke="black" points="0,-235.5 0,-265.5 111,-265.5 111,-235.5 0,-235.5"/>
<text text-anchor="start" x="8" y="-253.5" font-family="Helvetica,sans-Serif" font-size="10.00">include/yaclib/fault</text>
<text text-anchor="middle" x="55.5" y="-242.5" font-family="Helvetica,sans-Serif" font-size="10.00">/detail/inject_fault.hpp</text>
</a>
</g>
</g>
<!-- Node2 -->
<g id="node2" class="node">
<title>Node2</title>
<g id="a_node2"><a xlink:title=" ">
<polygon fill="none" stroke="#bfbfbf" points="7.5,-0.5 7.5,-19.5 95.5,-19.5 95.5,-0.5 7.5,-0.5"/>
<text text-anchor="middle" x="51.5" y="-7.5" font-family="Helvetica,sans-Serif" font-size="10.00">yaclib/config.hpp</text>
</a>
</g>
</g>
<!-- Node1&#45;&gt;Node2 -->
<g id="edge1" class="edge">
<title>Node1&#45;&gt;Node2</title>
<path fill="none" stroke="midnightblue" d="M52.06,-235.36C44.74,-203.32 29.05,-122.78 38.5,-56 39.77,-47.04 42.39,-37.37 44.95,-29.3"/>
<polygon fill="midnightblue" stroke="midnightblue" points="48.27,-30.4 48.16,-19.8 41.64,-28.16 48.27,-30.4"/>
</g>
<!-- Node3 -->
<g id="node3" class="node">
<title>Node3</title>
<g id="a_node3"><a xlink:href="yielder_8hpp.html" target="_top" xlink:title=" ">
<polygon fill="none" stroke="black" points="72,-168.5 72,-198.5 161,-198.5 161,-168.5 72,-168.5"/>
<text text-anchor="start" x="80" y="-186.5" font-family="Helvetica,sans-Serif" font-size="10.00">yaclib/fault/detail</text>
<text text-anchor="middle" x="116.5" y="-175.5" font-family="Helvetica,sans-Serif" font-size="10.00">/yielder.hpp</text>
</a>
</g>
</g>
<!-- Node1&#45;&gt;Node3 -->
<g id="edge2" class="edge">
<title>Node1&#45;&gt;Node3</title>
<path fill="none" stroke="midnightblue" d="M68.74,-235.4C76.81,-226.79 87.29,-215.63 96.37,-205.94"/>
<polygon fill="midnightblue" stroke="midnightblue" points="99,-208.26 103.29,-198.58 93.89,-203.47 99,-208.26"/>
</g>
<!-- Node3&#45;&gt;Node2 -->
<g id="edge3" class="edge">
<title>Node3&#45;&gt;Node2</title>
<path fill="none" stroke="midnightblue" d="M88.83,-168.43C75.23,-159.9 60.16,-147.63 52.5,-132 36.31,-98.95 41.81,-54.48 46.89,-29.69"/>
<polygon fill="midnightblue" stroke="midnightblue" points="50.34,-30.32 49.12,-19.79 43.51,-28.78 50.34,-30.32"/>
</g>
<!-- Node4 -->
<g id="node4" class="node">
<title>Node4</title>
<g id="a_node4"><a xlink:href="thread_8hpp.html" target="_top" xlink:title=" ">
<polygon fill="none" stroke="black" points="61,-112.5 61,-131.5 172,-131.5 172,-112.5 61,-112.5"/>
<text text-anchor="middle" x="116.5" y="-119.5" font-family="Helvetica,sans-Serif" font-size="10.00">yaclib/fault/thread.hpp</text>
</a>
</g>
</g>
<!-- Node3&#45;&gt;Node4 -->
<g id="edge4" class="edge">
<title>Node3&#45;&gt;Node4</title>
<path fill="none" stroke="midnightblue" d="M116.5,-168.4C116.5,-160.47 116.5,-150.46 116.5,-141.86"/>
<polygon fill="midnightblue" stroke="midnightblue" points="120,-141.66 116.5,-131.66 113,-141.66 120,-141.66"/>
</g>
<!-- Node8 -->
<g id="node8" class="node">
<title>Node8</title>
<g id="a_node8"><a xlink:title=" ">
<polygon fill="none" stroke="#bfbfbf" points="190.5,-112.5 190.5,-131.5 236.5,-131.5 236.5,-112.5 190.5,-112.5"/>
<text text-anchor="middle" x="213.5" y="-119.5" font-family="Helvetica,sans-Serif" font-size="10.00">atomic</text>
</a>
</g>
</g>
<!-- Node3&#45;&gt;Node8 -->
<g id="edge10" class="edge">
<title>Node3&#45;&gt;Node8</title>
<path fill="none" stroke="midnightblue" d="M139.49,-168.4C154.89,-158.95 175.09,-146.56 190.5,-137.11"/>
<polygon fill="midnightblue" stroke="midnightblue" points="192.69,-139.87 199.39,-131.66 189.03,-133.9 192.69,-139.87"/>
</g>
<!-- Node9 -->
<g id="node9" class="node">
<title>Node9</title>
<g id="a_node9"><a xlink:title=" ">
<polygon fill="none" stroke="#bfbfbf" points="255,-112.5 255,-131.5 304,-131.5 304,-112.5 255,-112.5"/>
<text text-anchor="middle" x="279.5" y="-119.5" font-family="Helvetica,sans-Serif" font-size="10.00">random</text>
</a>
</g>
</g>
<!-- Node3&#45;&gt;Node9 -->
<g id="edge11" class="edge">
<title>Node3&#45;&gt;Node9</title>
<path fill="none" stroke="midnightblue" d="M155.13,-168.4C182.84,-158.28 219.81,-144.79 246.22,-135.15"/>
<polygon fill="midnightblue" stroke="midnightblue" points="247.59,-138.37 255.78,-131.66 245.19,-131.8 247.59,-138.37"/>
</g>
<!-- Node4&#45;&gt;Node2 -->
<g id="edge5" class="edge">
<title>Node4&#45;&gt;Node2</title>
<path fill="none" stroke="midnightblue" d="M111.4,-112.37C100.72,-94.3 75.83,-52.18 61.73,-28.31"/>
<polygon fill="midnightblue" stroke="midnightblue" points="64.68,-26.42 56.58,-19.59 58.65,-29.98 64.68,-26.42"/>
</g>
<!-- Node5 -->
<g id="node5" class="node">
<title>Node5</title>
<g id="a_node5"><a xlink:href="chrono_8hpp.html" target="_top" xlink:title=" ">
<polygon fill="none" stroke="black" points="99,-56.5 99,-75.5 212,-75.5 212,-56.5 99,-56.5"/>
<text text-anchor="middle" x="155.5" y="-63.5" font-family="Helvetica,sans-Serif" font-size="10.00">yaclib/fault/chrono.hpp</text>
</a>
</g>
</g>
<!-- Node4&#45;&gt;Node5 -->
<g id="edge6" class="edge">
<title>Node4&#45;&gt;Node5</title>
<path fill="none" stroke="midnightblue" d="M122.94,-112.08C128.45,-104.46 136.53,-93.26 143.26,-83.94"/>
<polygon fill="midnightblue" stroke="midnightblue" points="146.16,-85.91 149.18,-75.75 140.49,-81.81 146.16,-85.91"/>
</g>
<!-- Node7 -->
<g id="node7" class="node">
<title>Node7</title>
<g id="a_node7"><a xlink:title=" ">
<polygon fill="none" stroke="#bfbfbf" points="230.5,-56.5 230.5,-75.5 274.5,-75.5 274.5,-56.5 230.5,-56.5"/>
<text text-anchor="middle" x="252.5" y="-63.5" font-family="Helvetica,sans-Serif" font-size="10.00">thread</text>
</a>
</g>
</g>
<!-- Node4&#45;&gt;Node7 -->
<g id="edge9" class="edge">
<title>Node4&#45;&gt;Node7</title>
<path fill="none" stroke="midnightblue" d="M138.05,-112.44C160.53,-103.52 195.99,-89.44 221.48,-79.32"/>
<polygon fill="midnightblue" stroke="midnightblue" points="223.05,-82.46 231.05,-75.52 220.47,-75.95 223.05,-82.46"/>
</g>
<!-- Node5&#45;&gt;Node2 -->
<g id="edge7" class="edge">
<title>Node5&#45;&gt;Node2</title>
<path fill="none" stroke="midnightblue" d="M138.79,-56.32C122.19,-47.7 96.5,-34.36 77.28,-24.39"/>
<polygon fill="midnightblue" stroke="midnightblue" points="78.66,-21.16 68.17,-19.65 75.43,-27.37 78.66,-21.16"/>
</g>
<!-- Node6 -->
<g id="node6" class="node">
<title>Node6</title>
<g id="a_node6"><a xlink:title=" ">
<polygon fill="none" stroke="#bfbfbf" points="132.5,-0.5 132.5,-19.5 178.5,-19.5 178.5,-0.5 132.5,-0.5"/>
<text text-anchor="middle" x="155.5" y="-7.5" font-family="Helvetica,sans-Serif" font-size="10.00">chrono</text>
</a>
</g>
</g>
<!-- Node5&#45;&gt;Node6 -->
<g id="edge8" class="edge">
<title>Node5&#45;&gt;Node6</title>
<path fill="none" stroke="midnightblue" d="M155.5,-56.08C155.5,-49.01 155.5,-38.86 155.5,-29.99"/>
<polygon fill="midnightblue" stroke="midnightblue" points="159,-29.75 155.5,-19.75 152,-29.75 159,-29.75"/>
</g>
</g>
</svg>
