<?xml version="1.0" encoding="UTF-8" standalone="no"?>
<!DOCTYPE svg PUBLIC "-//W3C//DTD SVG 1.1//EN"
 "http://www.w3.org/Graphics/SVG/1.1/DTD/svg11.dtd">
<!-- Generated by graphviz version 2.50.0 (20220203.2022)
 -->
<!-- Title: include/yaclib/executor/inline.hpp Pages: 1 -->
<svg width="2085pt" height="575pt"
 viewBox="0.00 0.00 2084.50 575.00" xmlns="http://www.w3.org/2000/svg" xmlns:xlink="http://www.w3.org/1999/xlink">
<g id="graph0" class="graph" transform="scale(1 1) rotate(0) translate(4 571)">
<title>include/yaclib/executor/inline.hpp</title>
<!-- Node1 -->
<g id="node1" class="node">
<title>Node1</title>
<g id="a_node1"><a xlink:title=" ">
<polygon fill="#bfbfbf" stroke="black" points="1848.5,-536.5 1848.5,-566.5 1963.5,-566.5 1963.5,-536.5 1848.5,-536.5"/>
<text text-anchor="start" x="1856.5" y="-554.5" font-family="Helvetica,sans-Serif" font-size="10.00">include/yaclib/executor</text>
<text text-anchor="middle" x="1906" y="-543.5" font-family="Helvetica,sans-Serif" font-size="10.00">/inline.hpp</text>
</a>
</g>
</g>
<!-- Node2 -->
<g id="node2" class="node">
<title>Node2</title>
<g id="a_node2"><a xlink:href="base__core_8hpp.html" target="_top" xlink:title=" ">
<polygon fill="none" stroke="black" points="1787.5,-469.5 1787.5,-499.5 1896.5,-499.5 1896.5,-469.5 1787.5,-469.5"/>
<text text-anchor="start" x="1795.5" y="-487.5" font-family="Helvetica,sans-Serif" font-size="10.00">include/yaclib/async</text>
<text text-anchor="middle" x="1842" y="-476.5" font-family="Helvetica,sans-Serif" font-size="10.00">/detail/base_core.hpp</text>
</a>
</g>
</g>
<!-- Node1&#45;&gt;Node2 -->
<g id="edge1" class="edge">
<title>Node1&#45;&gt;Node2</title>
<path fill="none" stroke="midnightblue" d="M1884.85,-529.02C1875.32,-519.34 1864.33,-508.17 1855.86,-499.58"/>
<polygon fill="midnightblue" stroke="midnightblue" points="1882.6,-531.73 1892.11,-536.4 1887.59,-526.81 1882.6,-531.73"/>
</g>
<!-- Node34 -->
<g id="node34" class="node">
<title>Node34</title>
<g id="a_node34"><a xlink:href="inline_8cpp.html" target="_top" xlink:title=" ">
<polygon fill="none" stroke="black" points="1914.5,-475 1914.5,-494 2027.5,-494 2027.5,-475 1914.5,-475"/>
<text text-anchor="middle" x="1971" y="-482" font-family="Helvetica,sans-Serif" font-size="10.00">src/executor/inline.cpp</text>
</a>
</g>
</g>
<!-- Node1&#45;&gt;Node34 -->
<g id="edge58" class="edge">
<title>Node1&#45;&gt;Node34</title>
<path fill="none" stroke="midnightblue" d="M1927.5,-529C1939.37,-517.13 1953.45,-503.05 1962.31,-494.19"/>
<polygon fill="midnightblue" stroke="midnightblue" points="1924.7,-526.85 1920.1,-536.4 1929.65,-531.8 1924.7,-526.85"/>
</g>
<!-- Node3 -->
<g id="node3" class="node">
<title>Node3</title>
<g id="a_node3"><a xlink:href="wait__impl_8hpp.html" target="_top" xlink:title=" ">
<polygon fill="none" stroke="black" points="1728.5,-402.5 1728.5,-432.5 1833.5,-432.5 1833.5,-402.5 1728.5,-402.5"/>
<text text-anchor="start" x="1736.5" y="-420.5" font-family="Helvetica,sans-Serif" font-size="10.00">include/yaclib/algo</text>
<text text-anchor="middle" x="1781" y="-409.5" font-family="Helvetica,sans-Serif" font-size="10.00">/detail/wait_impl.hpp</text>
</a>
</g>
</g>
<!-- Node2&#45;&gt;Node3 -->
<g id="edge2" class="edge">
<title>Node2&#45;&gt;Node3</title>
<path fill="none" stroke="midnightblue" d="M1821.85,-462.02C1812.76,-452.34 1802.28,-441.17 1794.21,-432.58"/>
<polygon fill="midnightblue" stroke="midnightblue" points="1819.37,-464.5 1828.76,-469.4 1824.47,-459.71 1819.37,-464.5"/>
</g>
<!-- Node16 -->
<g id="node16" class="node">
<title>Node16</title>
<g id="a_node16"><a xlink:href="wait__group_8cpp.html" target="_top" xlink:title=" ">
<polygon fill="none" stroke="black" points="1711.5,-73 1711.5,-92 1830.5,-92 1830.5,-73 1711.5,-73"/>
<text text-anchor="middle" x="1771" y="-80" font-family="Helvetica,sans-Serif" font-size="10.00">src/algo/wait_group.cpp</text>
</a>
</g>
</g>
<!-- Node2&#45;&gt;Node16 -->
<g id="edge56" class="edge">
<title>Node2&#45;&gt;Node16</title>
<path fill="none" stroke="midnightblue" d="M1865.37,-462.19C1889.3,-437.94 1923,-395.9 1923,-351.5 1923,-351.5 1923,-351.5 1923,-215.5 1923,-178.31 1928.48,-162 1904,-134 1884.33,-111.5 1853.54,-98.99 1826.54,-92.05"/>
<polygon fill="midnightblue" stroke="midnightblue" points="1862.69,-459.92 1858,-469.42 1867.59,-464.92 1862.69,-459.92"/>
</g>
<!-- Node28 -->
<g id="node28" class="node">
<title>Node28</title>
<g id="a_node28"><a xlink:href="result__core_8hpp.html" target="_top" xlink:title=" ">
<polygon fill="none" stroke="black" points="696,-402.5 696,-432.5 808,-432.5 808,-402.5 696,-402.5"/>
<text text-anchor="start" x="704" y="-420.5" font-family="Helvetica,sans-Serif" font-size="10.00">include/yaclib/async</text>
<text text-anchor="middle" x="752" y="-409.5" font-family="Helvetica,sans-Serif" font-size="10.00">/detail/result_core.hpp</text>
</a>
</g>
</g>
<!-- Node2&#45;&gt;Node28 -->
<g id="edge42" class="edge">
<title>Node2&#45;&gt;Node28</title>
<path fill="none" stroke="midnightblue" d="M1777.01,-479.62C1580.2,-467.89 992.86,-432.86 808.21,-421.85"/>
<polygon fill="midnightblue" stroke="midnightblue" points="1777.01,-483.13 1787.2,-480.23 1777.43,-476.14 1777.01,-483.13"/>
</g>
<!-- Node33 -->
<g id="node33" class="node">
<title>Node33</title>
<g id="a_node33"><a xlink:href="base__core_8cpp.html" target="_top" xlink:title=" ">
<polygon fill="none" stroke="black" points="1951.5,-408 1951.5,-427 2076.5,-427 2076.5,-408 1951.5,-408"/>
<text text-anchor="middle" x="2014" y="-415" font-family="Helvetica,sans-Serif" font-size="10.00">src/async/base_core.cpp</text>
</a>
</g>
</g>
<!-- Node2&#45;&gt;Node33 -->
<g id="edge57" class="edge">
<title>Node2&#45;&gt;Node33</title>
<path fill="none" stroke="midnightblue" d="M1888.88,-465.78C1922.23,-453.18 1965.55,-436.81 1991.49,-427.01"/>
<polygon fill="midnightblue" stroke="midnightblue" points="1887.44,-462.59 1879.32,-469.4 1889.91,-469.13 1887.44,-462.59"/>
</g>
<!-- Node4 -->
<g id="node4" class="node">
<title>Node4</title>
<g id="a_node4"><a xlink:href="wait_8hpp.html" target="_top" xlink:title=" ">
<polygon fill="none" stroke="black" points="955,-335.5 955,-365.5 1051,-365.5 1051,-335.5 955,-335.5"/>
<text text-anchor="start" x="963" y="-353.5" font-family="Helvetica,sans-Serif" font-size="10.00">include/yaclib/algo</text>
<text text-anchor="middle" x="1003" y="-342.5" font-family="Helvetica,sans-Serif" font-size="10.00">/wait.hpp</text>
</a>
</g>
</g>
<!-- Node3&#45;&gt;Node4 -->
<g id="edge3" class="edge">
<title>Node3&#45;&gt;Node4</title>
<path fill="none" stroke="midnightblue" d="M1718.42,-411.27C1567.61,-398.67 1186.6,-366.84 1051.46,-355.55"/>
<polygon fill="midnightblue" stroke="midnightblue" points="1718.18,-414.76 1728.44,-412.11 1718.77,-407.79 1718.18,-414.76"/>
</g>
<!-- Node14 -->
<g id="node14" class="node">
<title>Node14</title>
<g id="a_node14"><a xlink:href="wait__for_8hpp.html" target="_top" xlink:title=" ">
<polygon fill="none" stroke="black" points="1685,-134.5 1685,-164.5 1781,-164.5 1781,-134.5 1685,-134.5"/>
<text text-anchor="start" x="1693" y="-152.5" font-family="Helvetica,sans-Serif" font-size="10.00">include/yaclib/algo</text>
<text text-anchor="middle" x="1733" y="-141.5" font-family="Helvetica,sans-Serif" font-size="10.00">/wait_for.hpp</text>
</a>
</g>
</g>
<!-- Node3&#45;&gt;Node14 -->
<g id="edge39" class="edge">
<title>Node3&#45;&gt;Node14</title>
<path fill="none" stroke="midnightblue" d="M1744.05,-396.72C1732.95,-388.76 1722.11,-378.48 1716,-366 1682.18,-296.9 1713.43,-200.28 1727.22,-164.52"/>
<polygon fill="midnightblue" stroke="midnightblue" points="1742.25,-399.72 1752.52,-402.35 1746.13,-393.9 1742.25,-399.72"/>
</g>
<!-- Node17 -->
<g id="node17" class="node">
<title>Node17</title>
<g id="a_node17"><a xlink:href="wait__until_8hpp.html" target="_top" xlink:title=" ">
<polygon fill="none" stroke="black" points="1799,-134.5 1799,-164.5 1895,-164.5 1895,-134.5 1799,-134.5"/>
<text text-anchor="start" x="1807" y="-152.5" font-family="Helvetica,sans-Serif" font-size="10.00">include/yaclib/algo</text>
<text text-anchor="middle" x="1847" y="-141.5" font-family="Helvetica,sans-Serif" font-size="10.00">/wait_until.hpp</text>
</a>
</g>
</g>
<!-- Node3&#45;&gt;Node17 -->
<g id="edge40" class="edge">
<title>Node3&#45;&gt;Node17</title>
<path fill="none" stroke="midnightblue" d="M1818.5,-396.83C1829.78,-388.88 1840.79,-378.58 1847,-366 1880.97,-297.24 1860.53,-200.41 1851.04,-164.56"/>
<polygon fill="midnightblue" stroke="midnightblue" points="1816.37,-394.05 1809.91,-402.45 1820.2,-399.91 1816.37,-394.05"/>
</g>
<!-- Node27 -->
<g id="node27" class="node">
<title>Node27</title>
<g id="a_node27"><a xlink:href="wait__impl_8cpp.html" target="_top" xlink:title=" ">
<polygon fill="none" stroke="black" points="1724.5,-341 1724.5,-360 1837.5,-360 1837.5,-341 1724.5,-341"/>
<text text-anchor="middle" x="1781" y="-348" font-family="Helvetica,sans-Serif" font-size="10.00">src/algo/wait_impl.cpp</text>
</a>
</g>
</g>
<!-- Node3&#45;&gt;Node27 -->
<g id="edge41" class="edge">
<title>Node3&#45;&gt;Node27</title>
<path fill="none" stroke="midnightblue" d="M1781,-392.25C1781,-381.02 1781,-368.38 1781,-360.19"/>
<polygon fill="midnightblue" stroke="midnightblue" points="1777.5,-392.4 1781,-402.4 1784.5,-392.4 1777.5,-392.4"/>
</g>
<!-- Node5 -->
<g id="node5" class="node">
<title>Node5</title>
<g id="a_node5"><a xlink:href="future__impl_8hpp.html" target="_top" xlink:title=" ">
<polygon fill="none" stroke="black" points="863,-268.5 863,-298.5 975,-298.5 975,-268.5 863,-268.5"/>
<text text-anchor="start" x="871" y="-286.5" font-family="Helvetica,sans-Serif" font-size="10.00">include/yaclib/async</text>
<text text-anchor="middle" x="919" y="-275.5" font-family="Helvetica,sans-Serif" font-size="10.00">/detail/future_impl.hpp</text>
</a>
</g>
</g>
<!-- Node4&#45;&gt;Node5 -->
<g id="edge4" class="edge">
<title>Node4&#45;&gt;Node5</title>
<path fill="none" stroke="midnightblue" d="M976.72,-329.17C963.88,-319.23 948.74,-307.51 937.19,-298.58"/>
<polygon fill="midnightblue" stroke="midnightblue" points="974.72,-332.04 984.77,-335.4 979.01,-326.51 974.72,-332.04"/>
</g>
<!-- Node6 -->
<g id="node6" class="node">
<title>Node6</title>
<g id="a_node6"><a xlink:href="future_8hpp.html" target="_top" xlink:title=" ">
<polygon fill="none" stroke="black" points="899,-201.5 899,-231.5 1003,-231.5 1003,-201.5 899,-201.5"/>
<text text-anchor="start" x="907" y="-219.5" font-family="Helvetica,sans-Serif" font-size="10.00">include/yaclib/async</text>
<text text-anchor="middle" x="951" y="-208.5" font-family="Helvetica,sans-Serif" font-size="10.00">/future.hpp</text>
</a>
</g>
</g>
<!-- Node5&#45;&gt;Node6 -->
<g id="edge5" class="edge">
<title>Node5&#45;&gt;Node6</title>
<path fill="none" stroke="midnightblue" d="M930.43,-259.28C934.99,-250.02 940.09,-239.66 944.07,-231.58"/>
<polygon fill="midnightblue" stroke="midnightblue" points="927.22,-257.88 925.94,-268.4 933.5,-260.97 927.22,-257.88"/>
</g>
<!-- Node6&#45;&gt;Node4 -->
<g id="edge15" class="edge">
<title>Node6&#45;&gt;Node4</title>
<path fill="none" stroke="midnightblue" d="M968.08,-239.94C973.84,-248.37 979.85,-258.28 984,-268 993.65,-290.58 998.84,-318.86 1001.25,-335.48"/>
<polygon fill="midnightblue" stroke="midnightblue" points="970.91,-237.88 962.26,-231.75 965.2,-241.93 970.91,-237.88"/>
</g>
<!-- Node7 -->
<g id="node7" class="node">
<title>Node7</title>
<g id="a_node7"><a xlink:href="when__all__impl_8hpp.html" target="_top" xlink:title=" ">
<polygon fill="none" stroke="black" points="746.5,-134.5 746.5,-164.5 871.5,-164.5 871.5,-134.5 746.5,-134.5"/>
<text text-anchor="start" x="754.5" y="-152.5" font-family="Helvetica,sans-Serif" font-size="10.00">include/yaclib/algo</text>
<text text-anchor="middle" x="809" y="-141.5" font-family="Helvetica,sans-Serif" font-size="10.00">/detail/when_all_impl.hpp</text>
</a>
</g>
</g>
<!-- Node6&#45;&gt;Node7 -->
<g id="edge6" class="edge">
<title>Node6&#45;&gt;Node7</title>
<path fill="none" stroke="midnightblue" d="M910.87,-197.13C888.31,-186.8 860.58,-174.11 839.75,-164.58"/>
<polygon fill="midnightblue" stroke="midnightblue" points="909.64,-200.42 920.19,-201.4 912.55,-194.05 909.64,-200.42"/>
</g>
<!-- Node8 -->
<g id="node8" class="node">
<title>Node8</title>
<g id="a_node8"><a xlink:href="when__all_8hpp.html" target="_top" xlink:title=" ">
<polygon fill="none" stroke="black" points="802,-67.5 802,-97.5 898,-97.5 898,-67.5 802,-67.5"/>
<text text-anchor="start" x="810" y="-85.5" font-family="Helvetica,sans-Serif" font-size="10.00">include/yaclib/algo</text>
<text text-anchor="middle" x="850" y="-74.5" font-family="Helvetica,sans-Serif" font-size="10.00">/when_all.hpp</text>
</a>
</g>
</g>
<!-- Node6&#45;&gt;Node8 -->
<g id="edge20" class="edge">
<title>Node6&#45;&gt;Node8</title>
<path fill="none" stroke="midnightblue" d="M933.93,-193.19C913.02,-165.86 878.22,-120.38 860.73,-97.52"/>
<polygon fill="midnightblue" stroke="midnightblue" points="931.33,-195.56 940.19,-201.37 936.89,-191.3 931.33,-195.56"/>
</g>
<!-- Node10 -->
<g id="node10" class="node">
<title>Node10</title>
<g id="a_node10"><a xlink:href="when__any__impl_8hpp.html" target="_top" xlink:title=" ">
<polygon fill="none" stroke="black" points="1278.5,-134.5 1278.5,-164.5 1409.5,-164.5 1409.5,-134.5 1278.5,-134.5"/>
<text text-anchor="start" x="1286.5" y="-152.5" font-family="Helvetica,sans-Serif" font-size="10.00">include/yaclib/algo</text>
<text text-anchor="middle" x="1344" y="-141.5" font-family="Helvetica,sans-Serif" font-size="10.00">/detail/when_any_impl.hpp</text>
</a>
</g>
</g>
<!-- Node6&#45;&gt;Node10 -->
<g id="edge9" class="edge">
<title>Node6&#45;&gt;Node10</title>
<path fill="none" stroke="midnightblue" d="M1013.31,-205.81C1076.52,-195.9 1177.15,-179.88 1264,-165 1268.59,-164.21 1273.33,-163.39 1278.1,-162.55"/>
<polygon fill="midnightblue" stroke="midnightblue" points="1012.45,-202.4 1003.11,-207.41 1013.53,-209.32 1012.45,-202.4"/>
</g>
<!-- Node11 -->
<g id="node11" class="node">
<title>Node11</title>
<g id="a_node11"><a xlink:href="when__any_8hpp.html" target="_top" xlink:title=" ">
<polygon fill="none" stroke="black" points="1006,-67.5 1006,-97.5 1102,-97.5 1102,-67.5 1006,-67.5"/>
<text text-anchor="start" x="1014" y="-85.5" font-family="Helvetica,sans-Serif" font-size="10.00">include/yaclib/algo</text>
<text text-anchor="middle" x="1054" y="-74.5" font-family="Helvetica,sans-Serif" font-size="10.00">/when_any.hpp</text>
</a>
</g>
</g>
<!-- Node6&#45;&gt;Node11 -->
<g id="edge21" class="edge">
<title>Node6&#45;&gt;Node11</title>
<path fill="none" stroke="midnightblue" d="M1013.17,-211.25C1077.21,-205.43 1170.74,-192.38 1193,-165 1222.73,-128.42 1153.11,-104.69 1102.04,-92.74"/>
<polygon fill="midnightblue" stroke="midnightblue" points="1012.82,-207.77 1003.16,-212.12 1013.43,-214.74 1012.82,-207.77"/>
</g>
<!-- Node13 -->
<g id="node13" class="node">
<title>Node13</title>
<g id="a_node13"><a xlink:href="when__impl_8hpp.html" target="_top" xlink:title=" ">
<polygon fill="none" stroke="black" points="928,-134.5 928,-164.5 1038,-164.5 1038,-134.5 928,-134.5"/>
<text text-anchor="start" x="936" y="-152.5" font-family="Helvetica,sans-Serif" font-size="10.00">include/yaclib/algo</text>
<text text-anchor="middle" x="983" y="-141.5" font-family="Helvetica,sans-Serif" font-size="10.00">/detail/when_impl.hpp</text>
</a>
</g>
</g>
<!-- Node6&#45;&gt;Node13 -->
<g id="edge12" class="edge">
<title>Node6&#45;&gt;Node13</title>
<path fill="none" stroke="midnightblue" d="M962.43,-192.28C966.99,-183.02 972.09,-172.66 976.07,-164.58"/>
<polygon fill="midnightblue" stroke="midnightblue" points="959.22,-190.88 957.94,-201.4 965.5,-193.97 959.22,-190.88"/>
</g>
<!-- Node6&#45;&gt;Node14 -->
<g id="edge16" class="edge">
<title>Node6&#45;&gt;Node14</title>
<path fill="none" stroke="midnightblue" d="M1013.46,-214.91C1139.52,-212.9 1433.06,-204.04 1676,-165 1678.92,-164.53 1681.92,-163.98 1684.93,-163.38"/>
<polygon fill="midnightblue" stroke="midnightblue" points="1013.18,-211.42 1003.23,-215.07 1013.28,-218.42 1013.18,-211.42"/>
</g>
<!-- Node15 -->
<g id="node15" class="node">
<title>Node15</title>
<g id="a_node15"><a xlink:href="wait__group_8hpp.html" target="_top" xlink:title=" ">
<polygon fill="none" stroke="black" points="1571,-134.5 1571,-164.5 1667,-164.5 1667,-134.5 1571,-134.5"/>
<text text-anchor="start" x="1579" y="-152.5" font-family="Helvetica,sans-Serif" font-size="10.00">include/yaclib/algo</text>
<text text-anchor="middle" x="1619" y="-141.5" font-family="Helvetica,sans-Serif" font-size="10.00">/wait_group.hpp</text>
</a>
</g>
</g>
<!-- Node6&#45;&gt;Node15 -->
<g id="edge17" class="edge">
<title>Node6&#45;&gt;Node15</title>
<path fill="none" stroke="midnightblue" d="M1013.28,-213.78C1124.26,-209.94 1363.23,-198.26 1562,-165 1564.92,-164.51 1567.91,-163.95 1570.92,-163.33"/>
<polygon fill="midnightblue" stroke="midnightblue" points="1013.14,-210.28 1003.26,-214.11 1013.38,-217.27 1013.14,-210.28"/>
</g>
<!-- Node6&#45;&gt;Node17 -->
<g id="edge19" class="edge">
<title>Node6&#45;&gt;Node17</title>
<path fill="none" stroke="midnightblue" d="M1013.51,-215.76C1153.48,-215.46 1502.34,-209.83 1790,-165 1792.93,-164.54 1795.92,-164.01 1798.93,-163.41"/>
<polygon fill="midnightblue" stroke="midnightblue" points="1013.4,-212.26 1003.4,-215.77 1013.41,-219.26 1013.4,-212.26"/>
</g>
<!-- Node18 -->
<g id="node18" class="node">
<title>Node18</title>
<g id="a_node18"><a xlink:href="contract_8hpp.html" target="_top" xlink:title=" ">
<polygon fill="none" stroke="black" points="426,-134.5 426,-164.5 530,-164.5 530,-134.5 426,-134.5"/>
<text text-anchor="start" x="434" y="-152.5" font-family="Helvetica,sans-Serif" font-size="10.00">include/yaclib/async</text>
<text text-anchor="middle" x="478" y="-141.5" font-family="Helvetica,sans-Serif" font-size="10.00">/contract.hpp</text>
</a>
</g>
</g>
<!-- Node6&#45;&gt;Node18 -->
<g id="edge22" class="edge">
<title>Node6&#45;&gt;Node18</title>
<path fill="none" stroke="midnightblue" d="M888.32,-209.55C808.17,-201.52 665.23,-185.79 544,-165 539.49,-164.23 534.82,-163.35 530.15,-162.43"/>
<polygon fill="midnightblue" stroke="midnightblue" points="888.43,-213.08 898.73,-210.58 889.13,-206.11 888.43,-213.08"/>
</g>
<!-- Node19 -->
<g id="node19" class="node">
<title>Node19</title>
<g id="a_node19"><a xlink:href="simple_8cpp.html" target="_top" xlink:title=" ">
<polygon fill="none" stroke="black" points="467.5,-67.5 467.5,-97.5 568.5,-97.5 568.5,-67.5 467.5,-67.5"/>
<text text-anchor="start" x="475.5" y="-85.5" font-family="Helvetica,sans-Serif" font-size="10.00">test/example/async</text>
<text text-anchor="middle" x="518" y="-74.5" font-family="Helvetica,sans-Serif" font-size="10.00">/simple.cpp</text>
</a>
</g>
</g>
<!-- Node6&#45;&gt;Node19 -->
<g id="edge38" class="edge">
<title>Node6&#45;&gt;Node19</title>
<path fill="none" stroke="midnightblue" d="M888.77,-212.99C796.37,-208.28 628.28,-195.68 577,-165 550.62,-149.21 532.62,-116.61 523.96,-97.78"/>
<polygon fill="midnightblue" stroke="midnightblue" points="888.67,-216.49 898.83,-213.48 889.01,-209.49 888.67,-216.49"/>
</g>
<!-- Node20 -->
<g id="node20" class="node">
<title>Node20</title>
<g id="a_node20"><a xlink:href="run_8hpp.html" target="_top" xlink:title=" ">
<polygon fill="none" stroke="black" points="586,-134.5 586,-164.5 690,-164.5 690,-134.5 586,-134.5"/>
<text text-anchor="start" x="594" y="-152.5" font-family="Helvetica,sans-Serif" font-size="10.00">include/yaclib/async</text>
<text text-anchor="middle" x="638" y="-141.5" font-family="Helvetica,sans-Serif" font-size="10.00">/run.hpp</text>
</a>
</g>
</g>
<!-- Node6&#45;&gt;Node20 -->
<g id="edge24" class="edge">
<title>Node6&#45;&gt;Node20</title>
<path fill="none" stroke="midnightblue" d="M888.91,-203.07C838.92,-192.99 766.89,-178.34 704,-165 699.52,-164.05 694.88,-163.05 690.22,-162.05"/>
<polygon fill="midnightblue" stroke="midnightblue" points="888.42,-206.54 898.91,-205.08 889.8,-199.68 888.42,-206.54"/>
</g>
<!-- Node21 -->
<g id="node21" class="node">
<title>Node21</title>
<g id="a_node21"><a xlink:href="await_8hpp.html" target="_top" xlink:title=" ">
<polygon fill="none" stroke="black" points="1311,-67.5 1311,-97.5 1429,-97.5 1429,-67.5 1311,-67.5"/>
<text text-anchor="start" x="1319" y="-85.5" font-family="Helvetica,sans-Serif" font-size="10.00">include/yaclib/coroutine</text>
<text text-anchor="middle" x="1370" y="-74.5" font-family="Helvetica,sans-Serif" font-size="10.00">/await.hpp</text>
</a>
</g>
</g>
<!-- Node6&#45;&gt;Node21 -->
<g id="edge28" class="edge">
<title>Node6&#45;&gt;Node21</title>
<path fill="none" stroke="midnightblue" d="M1013.05,-208.75C1066.61,-201.68 1145.46,-188.28 1211,-165 1238.54,-155.22 1243.04,-147.43 1269,-134 1293.21,-121.48 1320.9,-107.67 1341.16,-97.66"/>
<polygon fill="midnightblue" stroke="midnightblue" points="1012.49,-205.29 1003.02,-210.04 1013.38,-212.23 1012.49,-205.29"/>
</g>
<!-- Node22 -->
<g id="node22" class="node">
<title>Node22</title>
<g id="a_node22"><a xlink:href="coroutine__deleter_8hpp.html" target="_top" xlink:title=" ">
<polygon fill="none" stroke="black" points="0,-134.5 0,-164.5 138,-164.5 138,-134.5 0,-134.5"/>
<text text-anchor="start" x="8" y="-152.5" font-family="Helvetica,sans-Serif" font-size="10.00">include/yaclib/coroutine</text>
<text text-anchor="middle" x="69" y="-141.5" font-family="Helvetica,sans-Serif" font-size="10.00">/detail/coroutine_deleter.hpp</text>
</a>
</g>
</g>
<!-- Node6&#45;&gt;Node22 -->
<g id="edge29" class="edge">
<title>Node6&#45;&gt;Node22</title>
<path fill="none" stroke="midnightblue" d="M888.69,-212.63C758.05,-206.34 445.93,-189.89 185,-165 169.85,-163.55 153.62,-161.71 138.24,-159.83"/>
<polygon fill="midnightblue" stroke="midnightblue" points="888.75,-216.14 898.9,-213.12 889.08,-209.15 888.75,-216.14"/>
</g>
<!-- Node23 -->
<g id="node23" class="node">
<title>Node23</title>
<g id="a_node23"><a xlink:href="promise__type_8hpp.html" target="_top" xlink:title=" ">
<polygon fill="none" stroke="black" points="105,-67.5 105,-97.5 227,-97.5 227,-67.5 105,-67.5"/>
<text text-anchor="start" x="113" y="-85.5" font-family="Helvetica,sans-Serif" font-size="10.00">include/yaclib/coroutine</text>
<text text-anchor="middle" x="166" y="-74.5" font-family="Helvetica,sans-Serif" font-size="10.00">/detail/promise_type.hpp</text>
</a>
</g>
</g>
<!-- Node6&#45;&gt;Node23 -->
<g id="edge35" class="edge">
<title>Node6&#45;&gt;Node23</title>
<path fill="none" stroke="midnightblue" d="M888.63,-215.39C787.97,-213.92 584.09,-205.63 417,-165 381.15,-156.28 374.87,-146.05 340,-134 300.16,-120.24 254.35,-107.05 219.74,-97.6"/>
<polygon fill="midnightblue" stroke="midnightblue" points="888.59,-218.89 898.63,-215.51 888.68,-211.89 888.59,-218.89"/>
</g>
<!-- Node24 -->
<g id="node24" class="node">
<title>Node24</title>
<g id="a_node24"><a xlink:href="future__coro__traits_8hpp.html" target="_top" xlink:title=" ">
<polygon fill="none" stroke="black" points="107,-0.5 107,-30.5 225,-30.5 225,-0.5 107,-0.5"/>
<text text-anchor="start" x="115" y="-18.5" font-family="Helvetica,sans-Serif" font-size="10.00">include/yaclib/coroutine</text>
<text text-anchor="middle" x="166" y="-7.5" font-family="Helvetica,sans-Serif" font-size="10.00">/future_coro_traits.hpp</text>
</a>
</g>
</g>
<!-- Node6&#45;&gt;Node24 -->
<g id="edge36" class="edge">
<title>Node6&#45;&gt;Node24</title>
<path fill="none" stroke="midnightblue" d="M888.61,-208.36C844.52,-201.53 784.96,-188.65 737,-165 717.45,-155.36 717.07,-146.19 699,-134 647.71,-99.42 635.87,-86 577,-67 456.08,-27.97 306.21,-18.76 225.01,-16.8"/>
<polygon fill="midnightblue" stroke="midnightblue" points="888.22,-211.84 898.62,-209.85 889.24,-204.91 888.22,-211.84"/>
</g>
<!-- Node25 -->
<g id="node25" class="node">
<title>Node25</title>
<g id="a_node25"><a xlink:href="future__awaiter_8hpp.html" target="_top" xlink:title=" ">
<polygon fill="none" stroke="black" points="1427.5,-134.5 1427.5,-164.5 1552.5,-164.5 1552.5,-134.5 1427.5,-134.5"/>
<text text-anchor="start" x="1435.5" y="-152.5" font-family="Helvetica,sans-Serif" font-size="10.00">include/yaclib/coroutine</text>
<text text-anchor="middle" x="1490" y="-141.5" font-family="Helvetica,sans-Serif" font-size="10.00">/detail/future_awaiter.hpp</text>
</a>
</g>
</g>
<!-- Node6&#45;&gt;Node25 -->
<g id="edge33" class="edge">
<title>Node6&#45;&gt;Node25</title>
<path fill="none" stroke="midnightblue" d="M1013.17,-210.66C1103.05,-203.25 1274.38,-187.52 1419,-165 1421.73,-164.57 1424.52,-164.11 1427.34,-163.63"/>
<polygon fill="midnightblue" stroke="midnightblue" points="1012.83,-207.18 1003.15,-211.48 1013.4,-214.16 1012.83,-207.18"/>
</g>
<!-- Node26 -->
<g id="node26" class="node">
<title>Node26</title>
<g id="a_node26"><a xlink:href="future__impl_8cpp.html" target="_top" xlink:title=" ">
<polygon fill="none" stroke="black" points="1056,-140 1056,-159 1184,-159 1184,-140 1056,-140"/>
<text text-anchor="middle" x="1120" y="-147" font-family="Helvetica,sans-Serif" font-size="10.00">src/async/future_impl.cpp</text>
</a>
</g>
</g>
<!-- Node6&#45;&gt;Node26 -->
<g id="edge37" class="edge">
<title>Node6&#45;&gt;Node26</title>
<path fill="none" stroke="midnightblue" d="M997.06,-197.78C1029.83,-185.18 1072.4,-168.81 1097.88,-159.01"/>
<polygon fill="midnightblue" stroke="midnightblue" points="995.75,-194.54 987.67,-201.4 998.26,-201.07 995.75,-194.54"/>
</g>
<!-- Node7&#45;&gt;Node8 -->
<g id="edge7" class="edge">
<title>Node7&#45;&gt;Node8</title>
<path fill="none" stroke="midnightblue" d="M823.28,-125.87C829.21,-116.46 835.91,-105.83 841.12,-97.58"/>
<polygon fill="midnightblue" stroke="midnightblue" points="820.27,-124.07 817.9,-134.4 826.19,-127.81 820.27,-124.07"/>
</g>
<!-- Node9 -->
<g id="node9" class="node">
<title>Node9</title>
<g id="a_node9"><a xlink:href="when__all_8cpp.html" target="_top" xlink:title=" ">
<polygon fill="none" stroke="black" points="664.5,-0.5 664.5,-30.5 765.5,-30.5 765.5,-0.5 664.5,-0.5"/>
<text text-anchor="start" x="672.5" y="-18.5" font-family="Helvetica,sans-Serif" font-size="10.00">test/example/async</text>
<text text-anchor="middle" x="715" y="-7.5" font-family="Helvetica,sans-Serif" font-size="10.00">/when_all.cpp</text>
</a>
</g>
</g>
<!-- Node8&#45;&gt;Node9 -->
<g id="edge8" class="edge">
<title>Node8&#45;&gt;Node9</title>
<path fill="none" stroke="midnightblue" d="M811.56,-62.99C790.16,-52.69 763.95,-40.07 744.24,-30.58"/>
<polygon fill="midnightblue" stroke="midnightblue" points="810.18,-66.21 820.71,-67.4 813.22,-59.9 810.18,-66.21"/>
</g>
<!-- Node10&#45;&gt;Node11 -->
<g id="edge10" class="edge">
<title>Node10&#45;&gt;Node11</title>
<path fill="none" stroke="midnightblue" d="M1271.42,-132.23C1218.49,-120.37 1148.24,-104.62 1102.11,-94.28"/>
<polygon fill="midnightblue" stroke="midnightblue" points="1270.91,-135.7 1281.43,-134.48 1272.44,-128.87 1270.91,-135.7"/>
</g>
<!-- Node12 -->
<g id="node12" class="node">
<title>Node12</title>
<g id="a_node12"><a xlink:href="when__any_8cpp.html" target="_top" xlink:title=" ">
<polygon fill="none" stroke="black" points="896.5,-0.5 896.5,-30.5 997.5,-30.5 997.5,-0.5 896.5,-0.5"/>
<text text-anchor="start" x="904.5" y="-18.5" font-family="Helvetica,sans-Serif" font-size="10.00">test/example/async</text>
<text text-anchor="middle" x="947" y="-7.5" font-family="Helvetica,sans-Serif" font-size="10.00">/when_any.cpp</text>
</a>
</g>
</g>
<!-- Node11&#45;&gt;Node12 -->
<g id="edge11" class="edge">
<title>Node11&#45;&gt;Node12</title>
<path fill="none" stroke="midnightblue" d="M1021.92,-62.02C1005.27,-51.9 985.31,-39.77 970.17,-30.58"/>
<polygon fill="midnightblue" stroke="midnightblue" points="1020.42,-65.2 1030.78,-67.4 1024.05,-59.21 1020.42,-65.2"/>
</g>
<!-- Node13&#45;&gt;Node8 -->
<g id="edge13" class="edge">
<title>Node13&#45;&gt;Node8</title>
<path fill="none" stroke="midnightblue" d="M945.13,-129.99C924.05,-119.69 898.22,-107.07 878.8,-97.58"/>
<polygon fill="midnightblue" stroke="midnightblue" points="943.62,-133.15 954.14,-134.4 946.69,-126.86 943.62,-133.15"/>
</g>
<!-- Node13&#45;&gt;Node11 -->
<g id="edge14" class="edge">
<title>Node13&#45;&gt;Node11</title>
<path fill="none" stroke="midnightblue" d="M1005.83,-127.6C1016.55,-117.78 1029.05,-106.34 1038.62,-97.58"/>
<polygon fill="midnightblue" stroke="midnightblue" points="1003.42,-125.06 998.41,-134.4 1008.15,-130.22 1003.42,-125.06"/>
</g>
<!-- Node15&#45;&gt;Node16 -->
<g id="edge18" class="edge">
<title>Node15&#45;&gt;Node16</title>
<path fill="none" stroke="midnightblue" d="M1661.19,-130.46C1690.56,-117.9 1728.38,-101.72 1751.11,-92.01"/>
<polygon fill="midnightblue" stroke="midnightblue" points="1659.8,-127.25 1651.98,-134.4 1662.55,-133.68 1659.8,-127.25"/>
</g>
<!-- Node18&#45;&gt;Node19 -->
<g id="edge23" class="edge">
<title>Node18&#45;&gt;Node19</title>
<path fill="none" stroke="midnightblue" d="M491.93,-125.87C497.72,-116.46 504.26,-105.83 509.34,-97.58"/>
<polygon fill="midnightblue" stroke="midnightblue" points="488.94,-124.05 486.68,-134.4 494.9,-127.71 488.94,-124.05"/>
</g>
<!-- Node20&#45;&gt;Node9 -->
<g id="edge26" class="edge">
<title>Node20&#45;&gt;Node9</title>
<path fill="none" stroke="midnightblue" d="M651.43,-125.48C667.42,-98.07 693.6,-53.19 706.82,-30.52"/>
<polygon fill="midnightblue" stroke="midnightblue" points="648.26,-123.97 646.24,-134.37 654.3,-127.5 648.26,-123.97"/>
</g>
<!-- Node20&#45;&gt;Node12 -->
<g id="edge27" class="edge">
<title>Node20&#45;&gt;Node12</title>
<path fill="none" stroke="midnightblue" d="M670.83,-129.18C701.68,-111.52 749.49,-85.42 793,-67 826.94,-52.63 866.47,-39.74 896.98,-30.58"/>
<polygon fill="midnightblue" stroke="midnightblue" points="668.74,-126.34 661.82,-134.37 672.23,-132.41 668.74,-126.34"/>
</g>
<!-- Node20&#45;&gt;Node19 -->
<g id="edge25" class="edge">
<title>Node20&#45;&gt;Node19</title>
<path fill="none" stroke="midnightblue" d="M603.06,-129.57C584.18,-119.35 561.27,-106.94 543.99,-97.58"/>
<polygon fill="midnightblue" stroke="midnightblue" points="601.5,-132.71 611.96,-134.4 604.84,-126.56 601.5,-132.71"/>
</g>
<!-- Node22&#45;&gt;Node23 -->
<g id="edge30" class="edge">
<title>Node22&#45;&gt;Node23</title>
<path fill="none" stroke="midnightblue" d="M98.5,-128.73C113.51,-118.68 131.4,-106.68 144.99,-97.58"/>
<polygon fill="midnightblue" stroke="midnightblue" points="96.41,-125.92 90.05,-134.4 100.3,-131.74 96.41,-125.92"/>
</g>
<!-- Node22&#45;&gt;Node24 -->
<g id="edge32" class="edge">
<title>Node22&#45;&gt;Node24</title>
<path fill="none" stroke="midnightblue" d="M72.88,-124.42C76.58,-107.15 83.52,-84.02 96,-67 107.17,-51.78 124.3,-39.3 138.82,-30.56"/>
<polygon fill="midnightblue" stroke="midnightblue" points="69.43,-123.83 70.97,-134.31 76.3,-125.15 69.43,-123.83"/>
</g>
<!-- Node23&#45;&gt;Node24 -->
<g id="edge31" class="edge">
<title>Node23&#45;&gt;Node24</title>
<path fill="none" stroke="midnightblue" d="M166,-57.11C166,-48.15 166,-38.32 166,-30.58"/>
<polygon fill="midnightblue" stroke="midnightblue" points="162.5,-57.4 166,-67.4 169.5,-57.4 162.5,-57.4"/>
</g>
<!-- Node25&#45;&gt;Node21 -->
<g id="edge34" class="edge">
<title>Node25&#45;&gt;Node21</title>
<path fill="none" stroke="midnightblue" d="M1455.06,-129.57C1436.18,-119.35 1413.27,-106.94 1395.99,-97.58"/>
<polygon fill="midnightblue" stroke="midnightblue" points="1453.5,-132.71 1463.96,-134.4 1456.84,-126.56 1453.5,-132.71"/>
</g>
<!-- Node28&#45;&gt;Node6 -->
<g id="edge48" class="edge">
<title>Node28&#45;&gt;Node6</title>
<path fill="none" stroke="midnightblue" d="M763.38,-393.13C779.76,-361.45 812.61,-304.63 854,-268 871.49,-252.52 894.56,-240.26 913.82,-231.7"/>
<polygon fill="midnightblue" stroke="midnightblue" points="760.23,-391.61 758.83,-402.11 766.48,-394.77 760.23,-391.61"/>
</g>
<!-- Node28&#45;&gt;Node7 -->
<g id="edge43" class="edge">
<title>Node28&#45;&gt;Node7</title>
<path fill="none" stroke="midnightblue" d="M757.16,-392.41C768.8,-338.12 796.76,-207.61 805.99,-164.55"/>
<polygon fill="midnightblue" stroke="midnightblue" points="753.74,-391.69 755.06,-402.2 760.58,-393.15 753.74,-391.69"/>
</g>
<!-- Node28&#45;&gt;Node10 -->
<g id="edge44" class="edge">
<title>Node28&#45;&gt;Node10</title>
<path fill="none" stroke="midnightblue" d="M818.21,-414.83C882.4,-411.12 981.32,-399.81 1060,-366 1178.57,-315.06 1292.39,-204.15 1330.54,-164.74"/>
<polygon fill="midnightblue" stroke="midnightblue" points="818.02,-411.33 808.22,-415.36 818.39,-418.32 818.02,-411.33"/>
</g>
<!-- Node28&#45;&gt;Node22 -->
<g id="edge53" class="edge">
<title>Node28&#45;&gt;Node22</title>
<path fill="none" stroke="midnightblue" d="M685.82,-416.78C518.38,-416.8 88.12,-412.31 45,-366 -8.23,-308.83 40.6,-202.76 61.01,-164.62"/>
<polygon fill="midnightblue" stroke="midnightblue" points="685.99,-420.28 695.99,-416.77 685.98,-413.28 685.99,-420.28"/>
</g>
<!-- Node28&#45;&gt;Node23 -->
<g id="edge54" class="edge">
<title>Node28&#45;&gt;Node23</title>
<path fill="none" stroke="midnightblue" d="M702.57,-399.05C676.87,-389.72 645.04,-377.75 617,-366 421.68,-284.17 318.51,-329.37 185,-165 169.24,-145.6 166.08,-115.48 165.71,-97.8"/>
<polygon fill="midnightblue" stroke="midnightblue" points="701.51,-402.39 712.1,-402.5 703.89,-395.81 701.51,-402.39"/>
</g>
<!-- Node29 -->
<g id="node29" class="node">
<title>Node29</title>
<g id="a_node29"><a xlink:href="core_8hpp.html" target="_top" xlink:title=" ">
<polygon fill="none" stroke="black" points="818,-335.5 818,-365.5 922,-365.5 922,-335.5 818,-335.5"/>
<text text-anchor="start" x="826" y="-353.5" font-family="Helvetica,sans-Serif" font-size="10.00">include/yaclib/async</text>
<text text-anchor="middle" x="870" y="-342.5" font-family="Helvetica,sans-Serif" font-size="10.00">/detail/core.hpp</text>
</a>
</g>
</g>
<!-- Node28&#45;&gt;Node29 -->
<g id="edge45" class="edge">
<title>Node28&#45;&gt;Node29</title>
<path fill="none" stroke="midnightblue" d="M786.61,-397.44C805.12,-387.24 827.52,-374.9 844.45,-365.58"/>
<polygon fill="midnightblue" stroke="midnightblue" points="784.67,-394.51 777.6,-402.4 788.05,-400.64 784.67,-394.51"/>
</g>
<!-- Node30 -->
<g id="node30" class="node">
<title>Node30</title>
<g id="a_node30"><a xlink:href="promise_8hpp.html" target="_top" xlink:title=" ">
<polygon fill="none" stroke="black" points="367,-201.5 367,-231.5 471,-231.5 471,-201.5 367,-201.5"/>
<text text-anchor="start" x="375" y="-219.5" font-family="Helvetica,sans-Serif" font-size="10.00">include/yaclib/async</text>
<text text-anchor="middle" x="419" y="-208.5" font-family="Helvetica,sans-Serif" font-size="10.00">/promise.hpp</text>
</a>
</g>
</g>
<!-- Node28&#45;&gt;Node30 -->
<g id="edge49" class="edge">
<title>Node28&#45;&gt;Node30</title>
<path fill="none" stroke="midnightblue" d="M719.47,-397.06C652.66,-357.14 501.36,-266.72 442.78,-231.71"/>
<polygon fill="midnightblue" stroke="midnightblue" points="717.94,-400.22 728.32,-402.35 721.53,-394.21 717.94,-400.22"/>
</g>
<!-- Node32 -->
<g id="node32" class="node">
<title>Node32</title>
<g id="a_node32"><a xlink:href="result__core_8cpp.html" target="_top" xlink:title=" ">
<polygon fill="none" stroke="black" points="54,-341 54,-360 182,-360 182,-341 54,-341"/>
<text text-anchor="middle" x="118" y="-348" font-family="Helvetica,sans-Serif" font-size="10.00">src/async/result_core.cpp</text>
</a>
</g>
</g>
<!-- Node28&#45;&gt;Node32 -->
<g id="edge55" class="edge">
<title>Node28&#45;&gt;Node32</title>
<path fill="none" stroke="midnightblue" d="M685.69,-412.48C581.22,-405.71 372.08,-390.31 196,-366 184.27,-364.38 171.61,-362.21 159.98,-360.05"/>
<polygon fill="midnightblue" stroke="midnightblue" points="685.57,-415.98 695.77,-413.13 686.02,-409 685.57,-415.98"/>
</g>
<!-- Node29&#45;&gt;Node5 -->
<g id="edge46" class="edge">
<title>Node29&#45;&gt;Node5</title>
<path fill="none" stroke="midnightblue" d="M886.84,-327.16C893.99,-317.68 902.1,-306.92 908.39,-298.58"/>
<polygon fill="midnightblue" stroke="midnightblue" points="883.86,-325.3 880.63,-335.4 889.45,-329.52 883.86,-325.3"/>
</g>
<!-- Node29&#45;&gt;Node20 -->
<g id="edge47" class="edge">
<title>Node29&#45;&gt;Node20</title>
<path fill="none" stroke="midnightblue" d="M845.68,-328.64C798.32,-288.02 694.84,-199.26 654.53,-164.68"/>
<polygon fill="midnightblue" stroke="midnightblue" points="843.45,-331.33 853.32,-335.19 848,-326.02 843.45,-331.33"/>
</g>
<!-- Node30&#45;&gt;Node18 -->
<g id="edge50" class="edge">
<title>Node30&#45;&gt;Node18</title>
<path fill="none" stroke="midnightblue" d="M438.75,-193.74C447.48,-184.12 457.5,-173.09 465.22,-164.58"/>
<polygon fill="midnightblue" stroke="midnightblue" points="435.93,-191.64 431.8,-201.4 441.11,-196.34 435.93,-191.64"/>
</g>
<!-- Node30&#45;&gt;Node19 -->
<g id="edge52" class="edge">
<title>Node30&#45;&gt;Node19</title>
<path fill="none" stroke="midnightblue" d="M411.85,-191.44C408.2,-174.17 406.46,-151.05 417,-134 428.23,-115.82 448.21,-103.97 467.45,-96.35"/>
<polygon fill="midnightblue" stroke="midnightblue" points="408.49,-192.45 414.28,-201.32 415.29,-190.77 408.49,-192.45"/>
</g>
<!-- Node31 -->
<g id="node31" class="node">
<title>Node31</title>
<g id="a_node31"><a xlink:href="promise__impl_8cpp.html" target="_top" xlink:title=" ">
<polygon fill="none" stroke="black" points="194.5,-140 194.5,-159 331.5,-159 331.5,-140 194.5,-140"/>
<text text-anchor="middle" x="263" y="-147" font-family="Helvetica,sans-Serif" font-size="10.00">src/async/promise_impl.cpp</text>
</a>
</g>
</g>
<!-- Node30&#45;&gt;Node31 -->
<g id="edge51" class="edge">
<title>Node30&#45;&gt;Node31</title>
<path fill="none" stroke="midnightblue" d="M375.7,-197.46C345.56,-184.9 306.74,-168.72 283.42,-159.01"/>
<polygon fill="midnightblue" stroke="midnightblue" points="374.57,-200.78 385.15,-201.4 377.27,-194.32 374.57,-200.78"/>
</g>
</g>
</svg>
