<?xml version="1.0" encoding="UTF-8" standalone="no"?>
<!DOCTYPE svg PUBLIC "-//W3C//DTD SVG 1.1//EN"
 "http://www.w3.org/Graphics/SVG/1.1/DTD/svg11.dtd">
<!-- Generated by graphviz version 2.50.0 (20220203.2022)
 -->
<!-- Title: include/yaclib/async/detail/inline_core.hpp Pages: 1 -->
<svg width="890pt" height="408pt"
 viewBox="0.00 0.00 890.00 408.00" xmlns="http://www.w3.org/2000/svg" xmlns:xlink="http://www.w3.org/1999/xlink">
<g id="graph0" class="graph" transform="scale(1 1) rotate(0) translate(4 404)">
<title>include/yaclib/async/detail/inline_core.hpp</title>
<!-- Node1 -->
<g id="node1" class="node">
<title>Node1</title>
<g id="a_node1"><a xlink:title=" ">
<polygon fill="#bfbfbf" stroke="black" points="772,-369.5 772,-399.5 882,-399.5 882,-369.5 772,-369.5"/>
<text text-anchor="start" x="780" y="-387.5" font-family="Helvetica,sans-Serif" font-size="10.00">include/yaclib/async</text>
<text text-anchor="middle" x="827" y="-376.5" font-family="Helvetica,sans-Serif" font-size="10.00">/detail/inline_core.hpp</text>
</a>
</g>
</g>
<!-- Node2 -->
<g id="node2" class="node">
<title>Node2</title>
<g id="a_node2"><a xlink:title=" ">
<polygon fill="none" stroke="#bfbfbf" points="545,-0.5 545,-19.5 633,-19.5 633,-0.5 545,-0.5"/>
<text text-anchor="middle" x="589" y="-7.5" font-family="Helvetica,sans-Serif" font-size="10.00">yaclib/config.hpp</text>
</a>
</g>
</g>
<!-- Node1&#45;&gt;Node2 -->
<g id="edge1" class="edge">
<title>Node1&#45;&gt;Node2</title>
<path fill="none" stroke="midnightblue" d="M838.72,-369.19C854.6,-348.3 881,-307.62 881,-268 881,-268 881,-268 881,-137.5 881,-35.01 727.66,-14.63 643.22,-11.18"/>
<polygon fill="midnightblue" stroke="midnightblue" points="643.15,-7.67 633.03,-10.83 642.91,-14.67 643.15,-7.67"/>
</g>
<!-- Node3 -->
<g id="node3" class="node">
<title>Node3</title>
<g id="a_node3"><a xlink:href="task_8hpp.html" target="_top" xlink:title=" ">
<polygon fill="none" stroke="black" points="722.5,-313.5 722.5,-332.5 843.5,-332.5 843.5,-313.5 722.5,-313.5"/>
<text text-anchor="middle" x="783" y="-320.5" font-family="Helvetica,sans-Serif" font-size="10.00">yaclib/executor/task.hpp</text>
</a>
</g>
</g>
<!-- Node1&#45;&gt;Node3 -->
<g id="edge2" class="edge">
<title>Node1&#45;&gt;Node3</title>
<path fill="none" stroke="midnightblue" d="M816.57,-369.4C810.24,-360.84 802.13,-349.87 795.47,-340.86"/>
<polygon fill="midnightblue" stroke="midnightblue" points="798.16,-338.62 789.4,-332.66 792.53,-342.78 798.16,-338.62"/>
</g>
<!-- Node3&#45;&gt;Node2 -->
<g id="edge3" class="edge">
<title>Node3&#45;&gt;Node2</title>
<path fill="none" stroke="midnightblue" d="M791.34,-313.24C807.83,-294.96 843,-250.79 843,-206.5 843,-206.5 843,-206.5 843,-137.5 843,-49.05 718.05,-22.44 643.42,-14.44"/>
<polygon fill="midnightblue" stroke="midnightblue" points="643.54,-10.94 633.24,-13.43 642.85,-17.9 643.54,-10.94"/>
</g>
<!-- Node4 -->
<g id="node4" class="node">
<title>Node4</title>
<g id="a_node4"><a xlink:href="node_8hpp.html" target="_top" xlink:title=" ">
<polygon fill="none" stroke="black" points="731.5,-190.5 731.5,-220.5 814.5,-220.5 814.5,-190.5 731.5,-190.5"/>
<text text-anchor="start" x="739.5" y="-208.5" font-family="Helvetica,sans-Serif" font-size="10.00">yaclib/util/detail</text>
<text text-anchor="middle" x="773" y="-197.5" font-family="Helvetica,sans-Serif" font-size="10.00">/node.hpp</text>
</a>
</g>
</g>
<!-- Node3&#45;&gt;Node4 -->
<g id="edge4" class="edge">
<title>Node3&#45;&gt;Node4</title>
<path fill="none" stroke="midnightblue" d="M782.25,-313.32C780.75,-295.97 777.33,-256.46 775.09,-230.66"/>
<polygon fill="midnightblue" stroke="midnightblue" points="778.57,-230.21 774.22,-220.55 771.59,-230.81 778.57,-230.21"/>
</g>
<!-- Node5 -->
<g id="node5" class="node">
<title>Node5</title>
<g id="a_node5"><a xlink:href="func_8hpp.html" target="_top" xlink:title=" ">
<polygon fill="none" stroke="black" points="402.5,-257.5 402.5,-276.5 499.5,-276.5 499.5,-257.5 402.5,-257.5"/>
<text text-anchor="middle" x="451" y="-264.5" font-family="Helvetica,sans-Serif" font-size="10.00">yaclib/util/func.hpp</text>
</a>
</g>
</g>
<!-- Node3&#45;&gt;Node5 -->
<g id="edge6" class="edge">
<title>Node3&#45;&gt;Node5</title>
<path fill="none" stroke="midnightblue" d="M730.39,-313.44C670.29,-303.67 572.21,-287.71 509.68,-277.54"/>
<polygon fill="midnightblue" stroke="midnightblue" points="510.01,-274.05 499.58,-275.9 508.89,-280.96 510.01,-274.05"/>
</g>
<!-- Node4&#45;&gt;Node2 -->
<g id="edge5" class="edge">
<title>Node4&#45;&gt;Node2</title>
<path fill="none" stroke="midnightblue" d="M775.28,-190.15C779.04,-160.95 783.08,-94.2 749,-56 722.6,-26.41 678.43,-15.62 643.18,-11.97"/>
<polygon fill="midnightblue" stroke="midnightblue" points="643.3,-8.47 633.03,-11.09 642.69,-15.44 643.3,-8.47"/>
</g>
<!-- Node5&#45;&gt;Node2 -->
<g id="edge7" class="edge">
<title>Node5&#45;&gt;Node2</title>
<path fill="none" stroke="midnightblue" d="M478.78,-257.36C536.04,-237.84 666.03,-184.29 716,-87 722.3,-74.74 723.95,-67.25 716,-56 699.48,-32.62 669.74,-21.31 643.19,-15.87"/>
<polygon fill="midnightblue" stroke="midnightblue" points="643.66,-12.4 633.2,-14.06 642.42,-19.29 643.66,-12.4"/>
</g>
<!-- Node6 -->
<g id="node6" class="node">
<title>Node6</title>
<g id="a_node6"><a xlink:href="safe__call_8hpp.html" target="_top" xlink:title=" ">
<polygon fill="none" stroke="black" points="319.5,-123.5 319.5,-153.5 402.5,-153.5 402.5,-123.5 319.5,-123.5"/>
<text text-anchor="start" x="327.5" y="-141.5" font-family="Helvetica,sans-Serif" font-size="10.00">yaclib/util/detail</text>
<text text-anchor="middle" x="361" y="-130.5" font-family="Helvetica,sans-Serif" font-size="10.00">/safe_call.hpp</text>
</a>
</g>
</g>
<!-- Node5&#45;&gt;Node6 -->
<g id="edge8" class="edge">
<title>Node5&#45;&gt;Node6</title>
<path fill="none" stroke="midnightblue" d="M444.37,-257.46C437.43,-248.47 426.28,-233.87 417,-221 402.86,-201.38 387.32,-178.66 376.2,-162.21"/>
<polygon fill="midnightblue" stroke="midnightblue" points="379.01,-160.11 370.52,-153.77 373.2,-164.02 379.01,-160.11"/>
</g>
<!-- Node7 -->
<g id="node7" class="node">
<title>Node7</title>
<g id="a_node7"><a xlink:title=" ">
<polygon fill="none" stroke="#bfbfbf" points="367,-62 367,-81 429,-81 429,-62 367,-62"/>
<text text-anchor="middle" x="398" y="-69" font-family="Helvetica,sans-Serif" font-size="10.00">type_traits</text>
</a>
</g>
</g>
<!-- Node5&#45;&gt;Node7 -->
<g id="edge34" class="edge">
<title>Node5&#45;&gt;Node7</title>
<path fill="none" stroke="midnightblue" d="M448.64,-257.29C442.58,-234.97 425.99,-173.86 412,-123 409.06,-112.29 405.74,-100.31 403.07,-90.71"/>
<polygon fill="midnightblue" stroke="midnightblue" points="406.44,-89.77 400.39,-81.07 399.7,-91.65 406.44,-89.77"/>
</g>
<!-- Node8 -->
<g id="node8" class="node">
<title>Node8</title>
<g id="a_node8"><a xlink:title=" ">
<polygon fill="none" stroke="#bfbfbf" points="271.5,-62 271.5,-81 310.5,-81 310.5,-62 271.5,-62"/>
<text text-anchor="middle" x="291" y="-69" font-family="Helvetica,sans-Serif" font-size="10.00">utility</text>
</a>
</g>
</g>
<!-- Node5&#45;&gt;Node8 -->
<g id="edge35" class="edge">
<title>Node5&#45;&gt;Node8</title>
<path fill="none" stroke="midnightblue" d="M433.53,-257.29C403.29,-241.24 341.4,-204.05 310,-154 297.9,-134.72 293.5,-108.51 291.9,-91.08"/>
<polygon fill="midnightblue" stroke="midnightblue" points="295.39,-90.78 291.2,-81.05 288.4,-91.27 295.39,-90.78"/>
</g>
<!-- Node9 -->
<g id="node9" class="node">
<title>Node9</title>
<g id="a_node9"><a xlink:href="helper_8hpp.html" target="_top" xlink:title=" ">
<polygon fill="none" stroke="black" points="159,-196 159,-215 263,-215 263,-196 159,-196"/>
<text text-anchor="middle" x="211" y="-203" font-family="Helvetica,sans-Serif" font-size="10.00">yaclib/util/helper.hpp</text>
</a>
</g>
</g>
<!-- Node5&#45;&gt;Node9 -->
<g id="edge12" class="edge">
<title>Node5&#45;&gt;Node9</title>
<path fill="none" stroke="midnightblue" d="M416.61,-257.48C374.11,-246.94 301.7,-228.99 255.13,-217.44"/>
<polygon fill="midnightblue" stroke="midnightblue" points="255.87,-214.02 245.32,-215.01 254.19,-220.81 255.87,-214.02"/>
</g>
<!-- Node15 -->
<g id="node15" class="node">
<title>Node15</title>
<g id="a_node15"><a xlink:href="intrusive__ptr_8hpp.html" target="_top" xlink:title=" ">
<polygon fill="none" stroke="black" points="459.5,-123.5 459.5,-153.5 556.5,-153.5 556.5,-123.5 459.5,-123.5"/>
<text text-anchor="start" x="467.5" y="-141.5" font-family="Helvetica,sans-Serif" font-size="10.00">yaclib/util/intrusive</text>
<text text-anchor="middle" x="508" y="-130.5" font-family="Helvetica,sans-Serif" font-size="10.00">_ptr.hpp</text>
</a>
</g>
</g>
<!-- Node5&#45;&gt;Node15 -->
<g id="edge32" class="edge">
<title>Node5&#45;&gt;Node15</title>
<path fill="none" stroke="midnightblue" d="M454.92,-257.31C463.56,-238.13 484.5,-191.66 497.34,-163.15"/>
<polygon fill="midnightblue" stroke="midnightblue" points="500.6,-164.44 501.52,-153.89 494.22,-161.57 500.6,-164.44"/>
</g>
<!-- Node16 -->
<g id="node16" class="node">
<title>Node16</title>
<g id="a_node16"><a xlink:href="ref_8hpp.html" target="_top" xlink:title=" ">
<polygon fill="none" stroke="black" points="617.5,-62 617.5,-81 706.5,-81 706.5,-62 617.5,-62"/>
<text text-anchor="middle" x="662" y="-69" font-family="Helvetica,sans-Serif" font-size="10.00">yaclib/util/ref.hpp</text>
</a>
</g>
</g>
<!-- Node5&#45;&gt;Node16 -->
<g id="edge33" class="edge">
<title>Node5&#45;&gt;Node16</title>
<path fill="none" stroke="midnightblue" d="M460.34,-257.44C492.94,-227.54 602.02,-127.51 644.68,-88.38"/>
<polygon fill="midnightblue" stroke="midnightblue" points="647.28,-90.75 652.29,-81.41 642.55,-85.59 647.28,-90.75"/>
</g>
<!-- Node6&#45;&gt;Node2 -->
<g id="edge9" class="edge">
<title>Node6&#45;&gt;Node2</title>
<path fill="none" stroke="midnightblue" d="M355.35,-123.32C349.27,-105.48 342.42,-74.9 358,-56 360.84,-52.56 467.47,-32.84 534.85,-20.67"/>
<polygon fill="midnightblue" stroke="midnightblue" points="535.68,-24.08 544.9,-18.86 534.44,-17.19 535.68,-24.08"/>
</g>
<!-- Node6&#45;&gt;Node7 -->
<g id="edge10" class="edge">
<title>Node6&#45;&gt;Node7</title>
<path fill="none" stroke="midnightblue" d="M369.03,-123.4C374.63,-113.56 382.13,-100.38 388.1,-89.89"/>
<polygon fill="midnightblue" stroke="midnightblue" points="391.15,-91.62 393.05,-81.19 385.06,-88.15 391.15,-91.62"/>
</g>
<!-- Node6&#45;&gt;Node8 -->
<g id="edge11" class="edge">
<title>Node6&#45;&gt;Node8</title>
<path fill="none" stroke="midnightblue" d="M345.81,-123.4C334.68,-113.06 319.56,-99.02 308.03,-88.31"/>
<polygon fill="midnightblue" stroke="midnightblue" points="310.07,-85.43 300.36,-81.19 305.31,-90.56 310.07,-85.43"/>
</g>
<!-- Node9&#45;&gt;Node2 -->
<g id="edge13" class="edge">
<title>Node9&#45;&gt;Node2</title>
<path fill="none" stroke="midnightblue" d="M213.39,-195.86C221.87,-165.55 250.55,-65.36 262,-56 307.49,-18.83 460.73,-28.22 534.48,-20.11"/>
<polygon fill="midnightblue" stroke="midnightblue" points="535.3,-23.54 544.77,-18.78 534.4,-16.6 535.3,-23.54"/>
</g>
<!-- Node10 -->
<g id="node10" class="node">
<title>Node10</title>
<g id="a_node10"><a xlink:href="atomic_8hpp.html" target="_top" xlink:title=" ">
<polygon fill="none" stroke="black" points="25.5,-62 25.5,-81 138.5,-81 138.5,-62 25.5,-62"/>
<text text-anchor="middle" x="82" y="-69" font-family="Helvetica,sans-Serif" font-size="10.00">yaclib/fault/atomic.hpp</text>
</a>
</g>
</g>
<!-- Node9&#45;&gt;Node10 -->
<g id="edge14" class="edge">
<title>Node9&#45;&gt;Node10</title>
<path fill="none" stroke="midnightblue" d="M173.22,-195.97C149.45,-188.69 119.96,-175.82 102,-154 87.35,-136.2 83.17,-109.26 82.11,-91.29"/>
<polygon fill="midnightblue" stroke="midnightblue" points="85.61,-91.07 81.79,-81.19 78.61,-91.29 85.61,-91.07"/>
</g>
<!-- Node14 -->
<g id="node14" class="node">
<title>Node14</title>
<g id="a_node14"><a xlink:href="atomic__counter_8hpp.html" target="_top" xlink:title=" ">
<polygon fill="none" stroke="black" points="111,-123.5 111,-153.5 215,-153.5 215,-123.5 111,-123.5"/>
<text text-anchor="start" x="119" y="-141.5" font-family="Helvetica,sans-Serif" font-size="10.00">yaclib/util/detail</text>
<text text-anchor="middle" x="163" y="-130.5" font-family="Helvetica,sans-Serif" font-size="10.00">/atomic_counter.hpp</text>
</a>
</g>
</g>
<!-- Node9&#45;&gt;Node14 -->
<g id="edge19" class="edge">
<title>Node9&#45;&gt;Node14</title>
<path fill="none" stroke="midnightblue" d="M204.53,-195.73C198.1,-187.03 187.99,-173.34 179.36,-161.65"/>
<polygon fill="midnightblue" stroke="midnightblue" points="182.16,-159.55 173.4,-153.59 176.53,-163.71 182.16,-159.55"/>
</g>
<!-- Node9&#45;&gt;Node15 -->
<g id="edge24" class="edge">
<title>Node9&#45;&gt;Node15</title>
<path fill="none" stroke="midnightblue" d="M250.13,-195.94C301.06,-184.79 390.49,-165.22 449.49,-152.31"/>
<polygon fill="midnightblue" stroke="midnightblue" points="450.39,-155.69 459.41,-150.13 448.89,-148.85 450.39,-155.69"/>
</g>
<!-- Node10&#45;&gt;Node2 -->
<g id="edge15" class="edge">
<title>Node10&#45;&gt;Node2</title>
<path fill="none" stroke="midnightblue" d="M138.53,-62.67C155.4,-60.41 173.94,-58.02 191,-56 341.23,-38.2 382.11,-41.06 534.57,-20.27"/>
<polygon fill="midnightblue" stroke="midnightblue" points="535.35,-23.69 544.78,-18.86 534.39,-16.76 535.35,-23.69"/>
</g>
<!-- Node11 -->
<g id="node11" class="node">
<title>Node11</title>
<g id="a_node11"><a xlink:title=" ">
<polygon fill="none" stroke="#bfbfbf" points="137.5,-0.5 137.5,-19.5 186.5,-19.5 186.5,-0.5 137.5,-0.5"/>
<text text-anchor="middle" x="162" y="-7.5" font-family="Helvetica,sans-Serif" font-size="10.00">cstddef</text>
</a>
</g>
</g>
<!-- Node10&#45;&gt;Node11 -->
<g id="edge16" class="edge">
<title>Node10&#45;&gt;Node11</title>
<path fill="none" stroke="midnightblue" d="M93.46,-61.98C106.17,-52.52 126.91,-37.1 142.25,-25.69"/>
<polygon fill="midnightblue" stroke="midnightblue" points="144.62,-28.29 150.56,-19.51 140.45,-22.67 144.62,-28.29"/>
</g>
<!-- Node12 -->
<g id="node12" class="node">
<title>Node12</title>
<g id="a_node12"><a xlink:title=" ">
<polygon fill="none" stroke="#bfbfbf" points="64,-0.5 64,-19.5 110,-19.5 110,-0.5 64,-0.5"/>
<text text-anchor="middle" x="87" y="-7.5" font-family="Helvetica,sans-Serif" font-size="10.00">cstdint</text>
</a>
</g>
</g>
<!-- Node10&#45;&gt;Node12 -->
<g id="edge17" class="edge">
<title>Node10&#45;&gt;Node12</title>
<path fill="none" stroke="midnightblue" d="M82.72,-61.98C83.42,-53.58 84.52,-40.48 85.43,-29.66"/>
<polygon fill="midnightblue" stroke="midnightblue" points="88.94,-29.77 86.28,-19.51 81.96,-29.18 88.94,-29.77"/>
</g>
<!-- Node13 -->
<g id="node13" class="node">
<title>Node13</title>
<g id="a_node13"><a xlink:title=" ">
<polygon fill="none" stroke="#bfbfbf" points="0,-0.5 0,-19.5 46,-19.5 46,-0.5 0,-0.5"/>
<text text-anchor="middle" x="23" y="-7.5" font-family="Helvetica,sans-Serif" font-size="10.00">atomic</text>
</a>
</g>
</g>
<!-- Node10&#45;&gt;Node13 -->
<g id="edge18" class="edge">
<title>Node10&#45;&gt;Node13</title>
<path fill="none" stroke="midnightblue" d="M73.55,-61.98C64.43,-52.78 49.73,-37.96 38.52,-26.66"/>
<polygon fill="midnightblue" stroke="midnightblue" points="40.96,-24.15 31.44,-19.51 35.99,-29.07 40.96,-24.15"/>
</g>
<!-- Node14&#45;&gt;Node2 -->
<g id="edge20" class="edge">
<title>Node14&#45;&gt;Node2</title>
<path fill="none" stroke="midnightblue" d="M169.91,-123.45C180.03,-104.55 200.77,-71.54 229,-56 346.91,8.91 398.18,-37.47 534.79,-20.18"/>
<polygon fill="midnightblue" stroke="midnightblue" points="535.33,-23.64 544.77,-18.83 534.39,-16.7 535.33,-23.64"/>
</g>
<!-- Node14&#45;&gt;Node8 -->
<g id="edge23" class="edge">
<title>Node14&#45;&gt;Node8</title>
<path fill="none" stroke="midnightblue" d="M190.77,-123.4C212.94,-112.14 243.74,-96.5 265.33,-85.54"/>
<polygon fill="midnightblue" stroke="midnightblue" points="266.92,-88.66 274.25,-81.01 263.75,-82.41 266.92,-88.66"/>
</g>
<!-- Node14&#45;&gt;Node10 -->
<g id="edge21" class="edge">
<title>Node14&#45;&gt;Node10</title>
<path fill="none" stroke="midnightblue" d="M145.42,-123.4C132.29,-112.86 114.37,-98.48 100.93,-87.69"/>
<polygon fill="midnightblue" stroke="midnightblue" points="102.82,-84.72 92.83,-81.19 98.44,-90.18 102.82,-84.72"/>
</g>
<!-- Node14&#45;&gt;Node11 -->
<g id="edge22" class="edge">
<title>Node14&#45;&gt;Node11</title>
<path fill="none" stroke="midnightblue" d="M162.89,-123.48C162.71,-100.72 162.35,-55.7 162.15,-30.06"/>
<polygon fill="midnightblue" stroke="midnightblue" points="165.65,-29.76 162.07,-19.79 158.65,-29.82 165.65,-29.76"/>
</g>
<!-- Node15&#45;&gt;Node2 -->
<g id="edge25" class="edge">
<title>Node15&#45;&gt;Node2</title>
<path fill="none" stroke="midnightblue" d="M531.85,-123.5C544.97,-114.62 560.47,-102 570,-87 581.04,-69.63 585.66,-46.25 587.6,-30.03"/>
<polygon fill="midnightblue" stroke="midnightblue" points="591.13,-29.96 588.59,-19.67 584.16,-29.29 591.13,-29.96"/>
</g>
<!-- Node15&#45;&gt;Node7 -->
<g id="edge28" class="edge">
<title>Node15&#45;&gt;Node7</title>
<path fill="none" stroke="midnightblue" d="M484.13,-123.4C465.43,-112.34 439.56,-97.06 421.07,-86.13"/>
<polygon fill="midnightblue" stroke="midnightblue" points="422.79,-83.08 412.4,-81.01 419.23,-89.11 422.79,-83.08"/>
</g>
<!-- Node15&#45;&gt;Node16 -->
<g id="edge26" class="edge">
<title>Node15&#45;&gt;Node16</title>
<path fill="none" stroke="midnightblue" d="M541.42,-123.4C568.56,-111.94 606.47,-95.94 632.5,-84.95"/>
<polygon fill="midnightblue" stroke="midnightblue" points="633.99,-88.12 641.84,-81.01 631.27,-81.67 633.99,-88.12"/>
</g>
<!-- Node17 -->
<g id="node17" class="node">
<title>Node17</title>
<g id="a_node17"><a xlink:href="intrusive__ptr__impl_8hpp.html" target="_top" xlink:title=" ">
<polygon fill="none" stroke="black" points="447,-56.5 447,-86.5 561,-86.5 561,-56.5 447,-56.5"/>
<text text-anchor="start" x="455" y="-74.5" font-family="Helvetica,sans-Serif" font-size="10.00">yaclib/util/detail</text>
<text text-anchor="middle" x="504" y="-63.5" font-family="Helvetica,sans-Serif" font-size="10.00">/intrusive_ptr_impl.hpp</text>
</a>
</g>
</g>
<!-- Node15&#45;&gt;Node17 -->
<g id="edge29" class="edge">
<title>Node15&#45;&gt;Node17</title>
<path fill="none" stroke="midnightblue" d="M507.13,-123.4C506.65,-115.56 506.04,-105.6 505.48,-96.57"/>
<polygon fill="midnightblue" stroke="midnightblue" points="508.97,-96.34 504.87,-86.58 501.99,-96.77 508.97,-96.34"/>
</g>
<!-- Node16&#45;&gt;Node2 -->
<g id="edge27" class="edge">
<title>Node16&#45;&gt;Node2</title>
<path fill="none" stroke="midnightblue" d="M651.54,-61.98C640.05,-52.61 621.37,-37.38 607.41,-26.01"/>
<polygon fill="midnightblue" stroke="midnightblue" points="609.4,-23.11 599.44,-19.51 604.98,-28.54 609.4,-23.11"/>
</g>
<!-- Node17&#45;&gt;Node2 -->
<g id="edge30" class="edge">
<title>Node17&#45;&gt;Node2</title>
<path fill="none" stroke="midnightblue" d="M524.14,-56.4C537.39,-47.13 554.68,-35.03 568.08,-25.65"/>
<polygon fill="midnightblue" stroke="midnightblue" points="570.45,-28.26 576.63,-19.66 566.43,-22.53 570.45,-28.26"/>
</g>
<!-- Node18 -->
<g id="node18" class="node">
<title>Node18</title>
<g id="a_node18"><a xlink:title=" ">
<polygon fill="none" stroke="#bfbfbf" points="478.5,-0.5 478.5,-19.5 527.5,-19.5 527.5,-0.5 478.5,-0.5"/>
<text text-anchor="middle" x="503" y="-7.5" font-family="Helvetica,sans-Serif" font-size="10.00">cassert</text>
</a>
</g>
</g>
<!-- Node17&#45;&gt;Node18 -->
<g id="edge31" class="edge">
<title>Node17&#45;&gt;Node18</title>
<path fill="none" stroke="midnightblue" d="M503.76,-56.4C503.63,-48.47 503.46,-38.46 503.32,-29.86"/>
<polygon fill="midnightblue" stroke="midnightblue" points="506.81,-29.6 503.15,-19.66 499.81,-29.72 506.81,-29.6"/>
</g>
</g>
</svg>
