<?xml version="1.0" encoding="UTF-8" standalone="no"?>
<!DOCTYPE svg PUBLIC "-//W3C//DTD SVG 1.1//EN"
 "http://www.w3.org/Graphics/SVG/1.1/DTD/svg11.dtd">
<!-- Generated by graphviz version 2.50.0 (20220203.2022)
 -->
<!-- Title: include/yaclib/async/detail/inline_core.hpp Pages: 1 -->
<svg width="2085pt" height="575pt"
 viewBox="0.00 0.00 2084.50 575.00" xmlns="http://www.w3.org/2000/svg" xmlns:xlink="http://www.w3.org/1999/xlink">
<g id="graph0" class="graph" transform="scale(1 1) rotate(0) translate(4 571)">
<title>include/yaclib/async/detail/inline_core.hpp</title>
<!-- Node1 -->
<g id="node1" class="node">
<title>Node1</title>
<g id="a_node1"><a xlink:title=" ">
<polygon fill="#bfbfbf" stroke="black" points="1768,-536.5 1768,-566.5 1878,-566.5 1878,-536.5 1768,-536.5"/>
<text text-anchor="start" x="1776" y="-554.5" font-family="Helvetica,sans-Serif" font-size="10.00">include/yaclib/async</text>
<text text-anchor="middle" x="1823" y="-543.5" font-family="Helvetica,sans-Serif" font-size="10.00">/detail/inline_core.hpp</text>
</a>
</g>
</g>
<!-- Node2 -->
<g id="node2" class="node">
<title>Node2</title>
<g id="a_node2"><a xlink:href="base__core_8hpp.html" target="_top" xlink:title=" ">
<polygon fill="none" stroke="black" points="1768.5,-469.5 1768.5,-499.5 1877.5,-499.5 1877.5,-469.5 1768.5,-469.5"/>
<text text-anchor="start" x="1776.5" y="-487.5" font-family="Helvetica,sans-Serif" font-size="10.00">include/yaclib/async</text>
<text text-anchor="middle" x="1823" y="-476.5" font-family="Helvetica,sans-Serif" font-size="10.00">/detail/base_core.hpp</text>
</a>
</g>
</g>
<!-- Node1&#45;&gt;Node2 -->
<g id="edge1" class="edge">
<title>Node1&#45;&gt;Node2</title>
<path fill="none" stroke="midnightblue" d="M1823,-526.11C1823,-517.15 1823,-507.32 1823,-499.58"/>
<polygon fill="midnightblue" stroke="midnightblue" points="1819.5,-526.4 1823,-536.4 1826.5,-526.4 1819.5,-526.4"/>
</g>
<!-- Node28 -->
<g id="node28" class="node">
<title>Node28</title>
<g id="a_node28"><a xlink:href="result__core_8hpp.html" target="_top" xlink:title=" ">
<polygon fill="none" stroke="black" points="772,-402.5 772,-432.5 884,-432.5 884,-402.5 772,-402.5"/>
<text text-anchor="start" x="780" y="-420.5" font-family="Helvetica,sans-Serif" font-size="10.00">include/yaclib/async</text>
<text text-anchor="middle" x="828" y="-409.5" font-family="Helvetica,sans-Serif" font-size="10.00">/detail/result_core.hpp</text>
</a>
</g>
</g>
<!-- Node1&#45;&gt;Node28 -->
<g id="edge58" class="edge">
<title>Node1&#45;&gt;Node28</title>
<path fill="none" stroke="midnightblue" d="M1757.69,-541.84C1574.17,-517.49 1056.12,-448.76 884.22,-425.96"/>
<polygon fill="midnightblue" stroke="midnightblue" points="1757.36,-545.32 1767.73,-543.17 1758.28,-538.38 1757.36,-545.32"/>
</g>
<!-- Node33 -->
<g id="node33" class="node">
<title>Node33</title>
<g id="a_node33"><a xlink:href="base__core_8cpp.html" target="_top" xlink:title=" ">
<polygon fill="none" stroke="black" points="1951.5,-408 1951.5,-427 2076.5,-427 2076.5,-408 1951.5,-408"/>
<text text-anchor="middle" x="2014" y="-415" font-family="Helvetica,sans-Serif" font-size="10.00">src/async/base_core.cpp</text>
</a>
</g>
</g>
<!-- Node1&#45;&gt;Node33 -->
<g id="edge59" class="edge">
<title>Node1&#45;&gt;Node33</title>
<path fill="none" stroke="midnightblue" d="M1851.93,-530.51C1894.31,-501.22 1971.51,-447.87 2001.56,-427.1"/>
<polygon fill="midnightblue" stroke="midnightblue" points="1849.68,-527.81 1843.44,-536.37 1853.66,-533.57 1849.68,-527.81"/>
</g>
<!-- Node3 -->
<g id="node3" class="node">
<title>Node3</title>
<g id="a_node3"><a xlink:href="wait__impl_8hpp.html" target="_top" xlink:title=" ">
<polygon fill="none" stroke="black" points="1728.5,-402.5 1728.5,-432.5 1833.5,-432.5 1833.5,-402.5 1728.5,-402.5"/>
<text text-anchor="start" x="1736.5" y="-420.5" font-family="Helvetica,sans-Serif" font-size="10.00">include/yaclib/algo</text>
<text text-anchor="middle" x="1781" y="-409.5" font-family="Helvetica,sans-Serif" font-size="10.00">/detail/wait_impl.hpp</text>
</a>
</g>
</g>
<!-- Node2&#45;&gt;Node3 -->
<g id="edge2" class="edge">
<title>Node2&#45;&gt;Node3</title>
<path fill="none" stroke="midnightblue" d="M1808.38,-460.87C1802.3,-451.46 1795.43,-440.83 1790.1,-432.58"/>
<polygon fill="midnightblue" stroke="midnightblue" points="1805.52,-462.9 1813.89,-469.4 1811.4,-459.1 1805.52,-462.9"/>
</g>
<!-- Node16 -->
<g id="node16" class="node">
<title>Node16</title>
<g id="a_node16"><a xlink:href="wait__group_8cpp.html" target="_top" xlink:title=" ">
<polygon fill="none" stroke="black" points="1711.5,-73 1711.5,-92 1830.5,-92 1830.5,-73 1711.5,-73"/>
<text text-anchor="middle" x="1771" y="-80" font-family="Helvetica,sans-Serif" font-size="10.00">src/algo/wait_group.cpp</text>
</a>
</g>
</g>
<!-- Node2&#45;&gt;Node16 -->
<g id="edge56" class="edge">
<title>Node2&#45;&gt;Node16</title>
<path fill="none" stroke="midnightblue" d="M1852.18,-463.1C1881.69,-439.83 1923,-398.8 1923,-351.5 1923,-351.5 1923,-351.5 1923,-215.5 1923,-178.31 1928.48,-162 1904,-134 1884.33,-111.5 1853.54,-98.99 1826.54,-92.05"/>
<polygon fill="midnightblue" stroke="midnightblue" points="1850.03,-460.34 1844.21,-469.19 1854.28,-465.9 1850.03,-460.34"/>
</g>
<!-- Node2&#45;&gt;Node28 -->
<g id="edge42" class="edge">
<title>Node2&#45;&gt;Node28</title>
<path fill="none" stroke="midnightblue" d="M1758.43,-479.28C1575.52,-467.33 1055.98,-433.39 884.03,-422.16"/>
<polygon fill="midnightblue" stroke="midnightblue" points="1758.24,-482.78 1768.44,-479.94 1758.69,-475.79 1758.24,-482.78"/>
</g>
<!-- Node2&#45;&gt;Node33 -->
<g id="edge57" class="edge">
<title>Node2&#45;&gt;Node33</title>
<path fill="none" stroke="midnightblue" d="M1874.11,-466.11C1911.26,-453.46 1959.95,-436.89 1989,-427.01"/>
<polygon fill="midnightblue" stroke="midnightblue" points="1872.78,-462.86 1864.44,-469.4 1875.04,-469.49 1872.78,-462.86"/>
</g>
<!-- Node4 -->
<g id="node4" class="node">
<title>Node4</title>
<g id="a_node4"><a xlink:href="wait_8hpp.html" target="_top" xlink:title=" ">
<polygon fill="none" stroke="black" points="1009,-335.5 1009,-365.5 1105,-365.5 1105,-335.5 1009,-335.5"/>
<text text-anchor="start" x="1017" y="-353.5" font-family="Helvetica,sans-Serif" font-size="10.00">include/yaclib/algo</text>
<text text-anchor="middle" x="1057" y="-342.5" font-family="Helvetica,sans-Serif" font-size="10.00">/wait.hpp</text>
</a>
</g>
</g>
<!-- Node3&#45;&gt;Node4 -->
<g id="edge3" class="edge">
<title>Node3&#45;&gt;Node4</title>
<path fill="none" stroke="midnightblue" d="M1718.05,-410.85C1575.81,-398.08 1232.08,-367.22 1105.15,-355.82"/>
<polygon fill="midnightblue" stroke="midnightblue" points="1718.08,-414.36 1728.35,-411.77 1718.7,-407.39 1718.08,-414.36"/>
</g>
<!-- Node14 -->
<g id="node14" class="node">
<title>Node14</title>
<g id="a_node14"><a xlink:href="wait__for_8hpp.html" target="_top" xlink:title=" ">
<polygon fill="none" stroke="black" points="1685,-134.5 1685,-164.5 1781,-164.5 1781,-134.5 1685,-134.5"/>
<text text-anchor="start" x="1693" y="-152.5" font-family="Helvetica,sans-Serif" font-size="10.00">include/yaclib/algo</text>
<text text-anchor="middle" x="1733" y="-141.5" font-family="Helvetica,sans-Serif" font-size="10.00">/wait_for.hpp</text>
</a>
</g>
</g>
<!-- Node3&#45;&gt;Node14 -->
<g id="edge39" class="edge">
<title>Node3&#45;&gt;Node14</title>
<path fill="none" stroke="midnightblue" d="M1743.5,-396.83C1732.22,-388.88 1721.21,-378.58 1715,-366 1680.91,-297 1712.96,-200.32 1727.08,-164.53"/>
<polygon fill="midnightblue" stroke="midnightblue" points="1741.8,-399.91 1752.09,-402.45 1745.63,-394.05 1741.8,-399.91"/>
</g>
<!-- Node17 -->
<g id="node17" class="node">
<title>Node17</title>
<g id="a_node17"><a xlink:href="wait__until_8hpp.html" target="_top" xlink:title=" ">
<polygon fill="none" stroke="black" points="1799,-134.5 1799,-164.5 1895,-164.5 1895,-134.5 1799,-134.5"/>
<text text-anchor="start" x="1807" y="-152.5" font-family="Helvetica,sans-Serif" font-size="10.00">include/yaclib/algo</text>
<text text-anchor="middle" x="1847" y="-141.5" font-family="Helvetica,sans-Serif" font-size="10.00">/wait_until.hpp</text>
</a>
</g>
</g>
<!-- Node3&#45;&gt;Node17 -->
<g id="edge40" class="edge">
<title>Node3&#45;&gt;Node17</title>
<path fill="none" stroke="midnightblue" d="M1817.92,-396.7C1829.01,-388.74 1839.86,-378.46 1846,-366 1879.88,-297.19 1860.14,-200.39 1850.93,-164.56"/>
<polygon fill="midnightblue" stroke="midnightblue" points="1815.84,-393.88 1809.45,-402.33 1819.72,-399.71 1815.84,-393.88"/>
</g>
<!-- Node27 -->
<g id="node27" class="node">
<title>Node27</title>
<g id="a_node27"><a xlink:href="wait__impl_8cpp.html" target="_top" xlink:title=" ">
<polygon fill="none" stroke="black" points="1724.5,-341 1724.5,-360 1837.5,-360 1837.5,-341 1724.5,-341"/>
<text text-anchor="middle" x="1781" y="-348" font-family="Helvetica,sans-Serif" font-size="10.00">src/algo/wait_impl.cpp</text>
</a>
</g>
</g>
<!-- Node3&#45;&gt;Node27 -->
<g id="edge41" class="edge">
<title>Node3&#45;&gt;Node27</title>
<path fill="none" stroke="midnightblue" d="M1781,-392.25C1781,-381.02 1781,-368.38 1781,-360.19"/>
<polygon fill="midnightblue" stroke="midnightblue" points="1777.5,-392.4 1781,-402.4 1784.5,-392.4 1777.5,-392.4"/>
</g>
<!-- Node5 -->
<g id="node5" class="node">
<title>Node5</title>
<g id="a_node5"><a xlink:href="future__impl_8hpp.html" target="_top" xlink:title=" ">
<polygon fill="none" stroke="black" points="917,-268.5 917,-298.5 1029,-298.5 1029,-268.5 917,-268.5"/>
<text text-anchor="start" x="925" y="-286.5" font-family="Helvetica,sans-Serif" font-size="10.00">include/yaclib/async</text>
<text text-anchor="middle" x="973" y="-275.5" font-family="Helvetica,sans-Serif" font-size="10.00">/detail/future_impl.hpp</text>
</a>
</g>
</g>
<!-- Node4&#45;&gt;Node5 -->
<g id="edge4" class="edge">
<title>Node4&#45;&gt;Node5</title>
<path fill="none" stroke="midnightblue" d="M1030.72,-329.17C1017.88,-319.23 1002.74,-307.51 991.19,-298.58"/>
<polygon fill="midnightblue" stroke="midnightblue" points="1028.72,-332.04 1038.77,-335.4 1033.01,-326.51 1028.72,-332.04"/>
</g>
<!-- Node6 -->
<g id="node6" class="node">
<title>Node6</title>
<g id="a_node6"><a xlink:href="future_8hpp.html" target="_top" xlink:title=" ">
<polygon fill="none" stroke="black" points="924,-201.5 924,-231.5 1028,-231.5 1028,-201.5 924,-201.5"/>
<text text-anchor="start" x="932" y="-219.5" font-family="Helvetica,sans-Serif" font-size="10.00">include/yaclib/async</text>
<text text-anchor="middle" x="976" y="-208.5" font-family="Helvetica,sans-Serif" font-size="10.00">/future.hpp</text>
</a>
</g>
</g>
<!-- Node5&#45;&gt;Node6 -->
<g id="edge5" class="edge">
<title>Node5&#45;&gt;Node6</title>
<path fill="none" stroke="midnightblue" d="M974.11,-258.4C974.53,-249.37 974.99,-239.41 975.35,-231.58"/>
<polygon fill="midnightblue" stroke="midnightblue" points="970.62,-258.25 973.65,-268.4 977.61,-258.57 970.62,-258.25"/>
</g>
<!-- Node6&#45;&gt;Node4 -->
<g id="edge15" class="edge">
<title>Node6&#45;&gt;Node4</title>
<path fill="none" stroke="midnightblue" d="M1008.43,-237.49C1019.31,-245.7 1030.56,-256.08 1038,-268 1051.16,-289.07 1055.22,-318.36 1056.46,-335.48"/>
<polygon fill="midnightblue" stroke="midnightblue" points="1010.42,-234.61 1000.25,-231.65 1006.36,-240.31 1010.42,-234.61"/>
</g>
<!-- Node7 -->
<g id="node7" class="node">
<title>Node7</title>
<g id="a_node7"><a xlink:href="when__all__impl_8hpp.html" target="_top" xlink:title=" ">
<polygon fill="none" stroke="black" points="746.5,-134.5 746.5,-164.5 871.5,-164.5 871.5,-134.5 746.5,-134.5"/>
<text text-anchor="start" x="754.5" y="-152.5" font-family="Helvetica,sans-Serif" font-size="10.00">include/yaclib/algo</text>
<text text-anchor="middle" x="809" y="-141.5" font-family="Helvetica,sans-Serif" font-size="10.00">/detail/when_all_impl.hpp</text>
</a>
</g>
</g>
<!-- Node6&#45;&gt;Node7 -->
<g id="edge6" class="edge">
<title>Node6&#45;&gt;Node7</title>
<path fill="none" stroke="midnightblue" d="M930.22,-197.68C903.44,-187.26 870.1,-174.28 845.17,-164.58"/>
<polygon fill="midnightblue" stroke="midnightblue" points="929.17,-201.03 939.76,-201.4 931.71,-194.51 929.17,-201.03"/>
</g>
<!-- Node8 -->
<g id="node8" class="node">
<title>Node8</title>
<g id="a_node8"><a xlink:href="when__all_8hpp.html" target="_top" xlink:title=" ">
<polygon fill="none" stroke="black" points="811,-67.5 811,-97.5 907,-97.5 907,-67.5 811,-67.5"/>
<text text-anchor="start" x="819" y="-85.5" font-family="Helvetica,sans-Serif" font-size="10.00">include/yaclib/algo</text>
<text text-anchor="middle" x="859" y="-74.5" font-family="Helvetica,sans-Serif" font-size="10.00">/when_all.hpp</text>
</a>
</g>
</g>
<!-- Node6&#45;&gt;Node8 -->
<g id="edge20" class="edge">
<title>Node6&#45;&gt;Node8</title>
<path fill="none" stroke="midnightblue" d="M950.33,-194.78C940.13,-186.04 928.57,-175.48 919,-165 898.97,-143.08 879.24,-114.58 868.14,-97.74"/>
<polygon fill="midnightblue" stroke="midnightblue" points="948.26,-197.61 958.16,-201.37 952.76,-192.25 948.26,-197.61"/>
</g>
<!-- Node10 -->
<g id="node10" class="node">
<title>Node10</title>
<g id="a_node10"><a xlink:href="when__any__impl_8hpp.html" target="_top" xlink:title=" ">
<polygon fill="none" stroke="black" points="1278.5,-134.5 1278.5,-164.5 1409.5,-164.5 1409.5,-134.5 1278.5,-134.5"/>
<text text-anchor="start" x="1286.5" y="-152.5" font-family="Helvetica,sans-Serif" font-size="10.00">include/yaclib/algo</text>
<text text-anchor="middle" x="1344" y="-141.5" font-family="Helvetica,sans-Serif" font-size="10.00">/detail/when_any_impl.hpp</text>
</a>
</g>
</g>
<!-- Node6&#45;&gt;Node10 -->
<g id="edge9" class="edge">
<title>Node6&#45;&gt;Node10</title>
<path fill="none" stroke="midnightblue" d="M1038.2,-204.7C1096.55,-194.54 1186.21,-178.87 1264,-165 1268.59,-164.18 1273.32,-163.33 1278.08,-162.48"/>
<polygon fill="midnightblue" stroke="midnightblue" points="1037.3,-201.3 1028.04,-206.47 1038.5,-208.2 1037.3,-201.3"/>
</g>
<!-- Node11 -->
<g id="node11" class="node">
<title>Node11</title>
<g id="a_node11"><a xlink:href="when__any_8hpp.html" target="_top" xlink:title=" ">
<polygon fill="none" stroke="black" points="1006,-67.5 1006,-97.5 1102,-97.5 1102,-67.5 1006,-67.5"/>
<text text-anchor="start" x="1014" y="-85.5" font-family="Helvetica,sans-Serif" font-size="10.00">include/yaclib/algo</text>
<text text-anchor="middle" x="1054" y="-74.5" font-family="Helvetica,sans-Serif" font-size="10.00">/when_any.hpp</text>
</a>
</g>
</g>
<!-- Node6&#45;&gt;Node11 -->
<g id="edge21" class="edge">
<title>Node6&#45;&gt;Node11</title>
<path fill="none" stroke="midnightblue" d="M1038.18,-209.55C1095.31,-202.64 1173.94,-189 1193,-165 1222.22,-128.19 1153.23,-104.6 1102.34,-92.72"/>
<polygon fill="midnightblue" stroke="midnightblue" points="1037.66,-206.09 1028.13,-210.72 1038.47,-213.04 1037.66,-206.09"/>
</g>
<!-- Node13 -->
<g id="node13" class="node">
<title>Node13</title>
<g id="a_node13"><a xlink:href="when__impl_8hpp.html" target="_top" xlink:title=" ">
<polygon fill="none" stroke="black" points="928,-134.5 928,-164.5 1038,-164.5 1038,-134.5 928,-134.5"/>
<text text-anchor="start" x="936" y="-152.5" font-family="Helvetica,sans-Serif" font-size="10.00">include/yaclib/algo</text>
<text text-anchor="middle" x="983" y="-141.5" font-family="Helvetica,sans-Serif" font-size="10.00">/detail/when_impl.hpp</text>
</a>
</g>
</g>
<!-- Node6&#45;&gt;Node13 -->
<g id="edge12" class="edge">
<title>Node6&#45;&gt;Node13</title>
<path fill="none" stroke="midnightblue" d="M978.6,-191.4C979.57,-182.37 980.64,-172.41 981.48,-164.58"/>
<polygon fill="midnightblue" stroke="midnightblue" points="975.11,-191.08 977.52,-201.4 982.07,-191.83 975.11,-191.08"/>
</g>
<!-- Node6&#45;&gt;Node14 -->
<g id="edge16" class="edge">
<title>Node6&#45;&gt;Node14</title>
<path fill="none" stroke="midnightblue" d="M1038.51,-214.69C1161.42,-212.29 1442.84,-202.76 1676,-165 1678.92,-164.53 1681.92,-163.97 1684.92,-163.37"/>
<polygon fill="midnightblue" stroke="midnightblue" points="1038.11,-211.2 1028.18,-214.89 1038.24,-218.2 1038.11,-211.2"/>
</g>
<!-- Node15 -->
<g id="node15" class="node">
<title>Node15</title>
<g id="a_node15"><a xlink:href="wait__group_8hpp.html" target="_top" xlink:title=" ">
<polygon fill="none" stroke="black" points="1571,-134.5 1571,-164.5 1667,-164.5 1667,-134.5 1571,-134.5"/>
<text text-anchor="start" x="1579" y="-152.5" font-family="Helvetica,sans-Serif" font-size="10.00">include/yaclib/algo</text>
<text text-anchor="middle" x="1619" y="-141.5" font-family="Helvetica,sans-Serif" font-size="10.00">/wait_group.hpp</text>
</a>
</g>
</g>
<!-- Node6&#45;&gt;Node15 -->
<g id="edge17" class="edge">
<title>Node6&#45;&gt;Node15</title>
<path fill="none" stroke="midnightblue" d="M1038.41,-213.37C1145.82,-208.97 1372.28,-196.53 1561,-165 1564.17,-164.47 1567.43,-163.86 1570.7,-163.18"/>
<polygon fill="midnightblue" stroke="midnightblue" points="1038.24,-209.87 1028.39,-213.77 1038.52,-216.87 1038.24,-209.87"/>
</g>
<!-- Node6&#45;&gt;Node17 -->
<g id="edge19" class="edge">
<title>Node6&#45;&gt;Node17</title>
<path fill="none" stroke="midnightblue" d="M1038.57,-215.59C1175.61,-214.92 1512.23,-208.55 1790,-165 1792.93,-164.54 1795.92,-164 1798.93,-163.4"/>
<polygon fill="midnightblue" stroke="midnightblue" points="1038.25,-212.09 1028.27,-215.63 1038.28,-219.09 1038.25,-212.09"/>
</g>
<!-- Node18 -->
<g id="node18" class="node">
<title>Node18</title>
<g id="a_node18"><a xlink:href="contract_8hpp.html" target="_top" xlink:title=" ">
<polygon fill="none" stroke="black" points="426,-134.5 426,-164.5 530,-164.5 530,-134.5 426,-134.5"/>
<text text-anchor="start" x="434" y="-152.5" font-family="Helvetica,sans-Serif" font-size="10.00">include/yaclib/async</text>
<text text-anchor="middle" x="478" y="-141.5" font-family="Helvetica,sans-Serif" font-size="10.00">/contract.hpp</text>
</a>
</g>
</g>
<!-- Node6&#45;&gt;Node18 -->
<g id="edge22" class="edge">
<title>Node6&#45;&gt;Node18</title>
<path fill="none" stroke="midnightblue" d="M913.73,-210.19C829.53,-202.56 674.82,-186.96 544,-165 539.49,-164.24 534.82,-163.38 530.15,-162.46"/>
<polygon fill="midnightblue" stroke="midnightblue" points="913.62,-213.69 923.89,-211.1 914.25,-206.72 913.62,-213.69"/>
</g>
<!-- Node19 -->
<g id="node19" class="node">
<title>Node19</title>
<g id="a_node19"><a xlink:href="simple_8cpp.html" target="_top" xlink:title=" ">
<polygon fill="none" stroke="black" points="467.5,-67.5 467.5,-97.5 568.5,-97.5 568.5,-67.5 467.5,-67.5"/>
<text text-anchor="start" x="475.5" y="-85.5" font-family="Helvetica,sans-Serif" font-size="10.00">test/example/async</text>
<text text-anchor="middle" x="518" y="-74.5" font-family="Helvetica,sans-Serif" font-size="10.00">/simple.cpp</text>
</a>
</g>
</g>
<!-- Node6&#45;&gt;Node19 -->
<g id="edge38" class="edge">
<title>Node6&#45;&gt;Node19</title>
<path fill="none" stroke="midnightblue" d="M913.7,-213.6C816.1,-209.63 632.55,-197.92 577,-165 550.55,-149.32 532.58,-116.68 523.94,-97.81"/>
<polygon fill="midnightblue" stroke="midnightblue" points="913.6,-217.1 923.73,-213.99 913.87,-210.1 913.6,-217.1"/>
</g>
<!-- Node20 -->
<g id="node20" class="node">
<title>Node20</title>
<g id="a_node20"><a xlink:href="run_8hpp.html" target="_top" xlink:title=" ">
<polygon fill="none" stroke="black" points="586,-134.5 586,-164.5 690,-164.5 690,-134.5 586,-134.5"/>
<text text-anchor="start" x="594" y="-152.5" font-family="Helvetica,sans-Serif" font-size="10.00">include/yaclib/async</text>
<text text-anchor="middle" x="638" y="-141.5" font-family="Helvetica,sans-Serif" font-size="10.00">/run.hpp</text>
</a>
</g>
</g>
<!-- Node6&#45;&gt;Node20 -->
<g id="edge24" class="edge">
<title>Node6&#45;&gt;Node20</title>
<path fill="none" stroke="midnightblue" d="M913.78,-204.55C858.58,-194.68 775.79,-179.55 704,-165 699.52,-164.09 694.87,-163.12 690.21,-162.13"/>
<polygon fill="midnightblue" stroke="midnightblue" points="913.3,-208.01 923.76,-206.32 914.53,-201.12 913.3,-208.01"/>
</g>
<!-- Node21 -->
<g id="node21" class="node">
<title>Node21</title>
<g id="a_node21"><a xlink:href="await_8hpp.html" target="_top" xlink:title=" ">
<polygon fill="none" stroke="black" points="1311,-67.5 1311,-97.5 1429,-97.5 1429,-67.5 1311,-67.5"/>
<text text-anchor="start" x="1319" y="-85.5" font-family="Helvetica,sans-Serif" font-size="10.00">include/yaclib/coroutine</text>
<text text-anchor="middle" x="1370" y="-74.5" font-family="Helvetica,sans-Serif" font-size="10.00">/await.hpp</text>
</a>
</g>
</g>
<!-- Node6&#45;&gt;Node21 -->
<g id="edge28" class="edge">
<title>Node6&#45;&gt;Node21</title>
<path fill="none" stroke="midnightblue" d="M1038.01,-207.02C1086.18,-199.29 1154.12,-185.84 1211,-165 1238.44,-154.94 1243.04,-147.43 1269,-134 1293.21,-121.48 1320.9,-107.67 1341.16,-97.66"/>
<polygon fill="midnightblue" stroke="midnightblue" points="1037.38,-203.58 1028.05,-208.59 1038.47,-210.49 1037.38,-203.58"/>
</g>
<!-- Node22 -->
<g id="node22" class="node">
<title>Node22</title>
<g id="a_node22"><a xlink:href="coroutine__deleter_8hpp.html" target="_top" xlink:title=" ">
<polygon fill="none" stroke="black" points="0,-134.5 0,-164.5 138,-164.5 138,-134.5 0,-134.5"/>
<text text-anchor="start" x="8" y="-152.5" font-family="Helvetica,sans-Serif" font-size="10.00">include/yaclib/coroutine</text>
<text text-anchor="middle" x="69" y="-141.5" font-family="Helvetica,sans-Serif" font-size="10.00">/detail/coroutine_deleter.hpp</text>
</a>
</g>
</g>
<!-- Node6&#45;&gt;Node22 -->
<g id="edge29" class="edge">
<title>Node6&#45;&gt;Node22</title>
<path fill="none" stroke="midnightblue" d="M913.56,-212.8C779.79,-206.74 455.71,-190.54 185,-165 169.85,-163.57 153.61,-161.73 138.24,-159.85"/>
<polygon fill="midnightblue" stroke="midnightblue" points="913.47,-216.3 923.62,-213.26 913.79,-209.31 913.47,-216.3"/>
</g>
<!-- Node23 -->
<g id="node23" class="node">
<title>Node23</title>
<g id="a_node23"><a xlink:href="promise__type_8hpp.html" target="_top" xlink:title=" ">
<polygon fill="none" stroke="black" points="105,-67.5 105,-97.5 227,-97.5 227,-67.5 105,-67.5"/>
<text text-anchor="start" x="113" y="-85.5" font-family="Helvetica,sans-Serif" font-size="10.00">include/yaclib/coroutine</text>
<text text-anchor="middle" x="166" y="-74.5" font-family="Helvetica,sans-Serif" font-size="10.00">/detail/promise_type.hpp</text>
</a>
</g>
</g>
<!-- Node6&#45;&gt;Node23 -->
<g id="edge35" class="edge">
<title>Node6&#45;&gt;Node23</title>
<path fill="none" stroke="midnightblue" d="M913.9,-215.77C809.7,-214.92 593.71,-207.57 417,-165 381.13,-156.36 374.87,-146.05 340,-134 300.16,-120.24 254.35,-107.05 219.74,-97.6"/>
<polygon fill="midnightblue" stroke="midnightblue" points="913.91,-219.27 923.93,-215.83 913.95,-212.27 913.91,-219.27"/>
</g>
<!-- Node24 -->
<g id="node24" class="node">
<title>Node24</title>
<g id="a_node24"><a xlink:href="future__coro__traits_8hpp.html" target="_top" xlink:title=" ">
<polygon fill="none" stroke="black" points="107,-0.5 107,-30.5 225,-30.5 225,-0.5 107,-0.5"/>
<text text-anchor="start" x="115" y="-18.5" font-family="Helvetica,sans-Serif" font-size="10.00">include/yaclib/coroutine</text>
<text text-anchor="middle" x="166" y="-7.5" font-family="Helvetica,sans-Serif" font-size="10.00">/future_coro_traits.hpp</text>
</a>
</g>
</g>
<!-- Node6&#45;&gt;Node24 -->
<g id="edge36" class="edge">
<title>Node6&#45;&gt;Node24</title>
<path fill="none" stroke="midnightblue" d="M913.85,-210.51C864.03,-204.62 793.37,-191.97 737,-165 717.34,-155.59 717.07,-146.19 699,-134 647.71,-99.42 635.87,-86 577,-67 456.08,-27.97 306.21,-18.76 225.01,-16.8"/>
<polygon fill="midnightblue" stroke="midnightblue" points="913.51,-213.99 923.84,-211.63 914.29,-207.03 913.51,-213.99"/>
</g>
<!-- Node25 -->
<g id="node25" class="node">
<title>Node25</title>
<g id="a_node25"><a xlink:href="future__awaiter_8hpp.html" target="_top" xlink:title=" ">
<polygon fill="none" stroke="black" points="1427.5,-134.5 1427.5,-164.5 1552.5,-164.5 1552.5,-134.5 1427.5,-134.5"/>
<text text-anchor="start" x="1435.5" y="-152.5" font-family="Helvetica,sans-Serif" font-size="10.00">include/yaclib/coroutine</text>
<text text-anchor="middle" x="1490" y="-141.5" font-family="Helvetica,sans-Serif" font-size="10.00">/detail/future_awaiter.hpp</text>
</a>
</g>
</g>
<!-- Node6&#45;&gt;Node25 -->
<g id="edge33" class="edge">
<title>Node6&#45;&gt;Node25</title>
<path fill="none" stroke="midnightblue" d="M1038.34,-210.06C1124.13,-202.19 1283.29,-186.22 1418,-165 1421.02,-164.52 1424.11,-164.01 1427.23,-163.47"/>
<polygon fill="midnightblue" stroke="midnightblue" points="1037.89,-206.59 1028.25,-210.98 1038.52,-213.56 1037.89,-206.59"/>
</g>
<!-- Node26 -->
<g id="node26" class="node">
<title>Node26</title>
<g id="a_node26"><a xlink:href="future__impl_8cpp.html" target="_top" xlink:title=" ">
<polygon fill="none" stroke="black" points="1056,-140 1056,-159 1184,-159 1184,-140 1056,-140"/>
<text text-anchor="middle" x="1120" y="-147" font-family="Helvetica,sans-Serif" font-size="10.00">src/async/future_impl.cpp</text>
</a>
</g>
</g>
<!-- Node6&#45;&gt;Node26 -->
<g id="edge37" class="edge">
<title>Node6&#45;&gt;Node26</title>
<path fill="none" stroke="midnightblue" d="M1016.69,-197.13C1044.41,-184.62 1079.81,-168.64 1101.15,-159.01"/>
<polygon fill="midnightblue" stroke="midnightblue" points="1014.92,-194.09 1007.25,-201.4 1017.8,-200.47 1014.92,-194.09"/>
</g>
<!-- Node7&#45;&gt;Node8 -->
<g id="edge7" class="edge">
<title>Node7&#45;&gt;Node8</title>
<path fill="none" stroke="midnightblue" d="M825.96,-126.45C833.31,-116.9 841.69,-106 848.17,-97.58"/>
<polygon fill="midnightblue" stroke="midnightblue" points="823.17,-124.34 819.85,-134.4 828.72,-128.6 823.17,-124.34"/>
</g>
<!-- Node9 -->
<g id="node9" class="node">
<title>Node9</title>
<g id="a_node9"><a xlink:href="when__all_8cpp.html" target="_top" xlink:title=" ">
<polygon fill="none" stroke="black" points="664.5,-0.5 664.5,-30.5 765.5,-30.5 765.5,-0.5 664.5,-0.5"/>
<text text-anchor="start" x="672.5" y="-18.5" font-family="Helvetica,sans-Serif" font-size="10.00">test/example/async</text>
<text text-anchor="middle" x="715" y="-7.5" font-family="Helvetica,sans-Serif" font-size="10.00">/when_all.cpp</text>
</a>
</g>
</g>
<!-- Node8&#45;&gt;Node9 -->
<g id="edge8" class="edge">
<title>Node8&#45;&gt;Node9</title>
<path fill="none" stroke="midnightblue" d="M818.61,-63.27C795.68,-52.92 767.4,-40.15 746.18,-30.58"/>
<polygon fill="midnightblue" stroke="midnightblue" points="817.2,-66.47 827.75,-67.4 820.08,-60.09 817.2,-66.47"/>
</g>
<!-- Node10&#45;&gt;Node11 -->
<g id="edge10" class="edge">
<title>Node10&#45;&gt;Node11</title>
<path fill="none" stroke="midnightblue" d="M1271.42,-132.23C1218.49,-120.37 1148.24,-104.62 1102.11,-94.28"/>
<polygon fill="midnightblue" stroke="midnightblue" points="1270.91,-135.7 1281.43,-134.48 1272.44,-128.87 1270.91,-135.7"/>
</g>
<!-- Node12 -->
<g id="node12" class="node">
<title>Node12</title>
<g id="a_node12"><a xlink:href="when__any_8cpp.html" target="_top" xlink:title=" ">
<polygon fill="none" stroke="black" points="896.5,-0.5 896.5,-30.5 997.5,-30.5 997.5,-0.5 896.5,-0.5"/>
<text text-anchor="start" x="904.5" y="-18.5" font-family="Helvetica,sans-Serif" font-size="10.00">test/example/async</text>
<text text-anchor="middle" x="947" y="-7.5" font-family="Helvetica,sans-Serif" font-size="10.00">/when_any.cpp</text>
</a>
</g>
</g>
<!-- Node11&#45;&gt;Node12 -->
<g id="edge11" class="edge">
<title>Node11&#45;&gt;Node12</title>
<path fill="none" stroke="midnightblue" d="M1021.92,-62.02C1005.27,-51.9 985.31,-39.77 970.17,-30.58"/>
<polygon fill="midnightblue" stroke="midnightblue" points="1020.42,-65.2 1030.78,-67.4 1024.05,-59.21 1020.42,-65.2"/>
</g>
<!-- Node13&#45;&gt;Node8 -->
<g id="edge13" class="edge">
<title>Node13&#45;&gt;Node8</title>
<path fill="none" stroke="midnightblue" d="M947.16,-129.71C927.61,-119.46 903.8,-106.98 885.85,-97.58"/>
<polygon fill="midnightblue" stroke="midnightblue" points="945.61,-132.85 956.09,-134.4 948.86,-126.65 945.61,-132.85"/>
</g>
<!-- Node13&#45;&gt;Node11 -->
<g id="edge14" class="edge">
<title>Node13&#45;&gt;Node11</title>
<path fill="none" stroke="midnightblue" d="M1005.83,-127.6C1016.55,-117.78 1029.05,-106.34 1038.62,-97.58"/>
<polygon fill="midnightblue" stroke="midnightblue" points="1003.42,-125.06 998.41,-134.4 1008.15,-130.22 1003.42,-125.06"/>
</g>
<!-- Node15&#45;&gt;Node16 -->
<g id="edge18" class="edge">
<title>Node15&#45;&gt;Node16</title>
<path fill="none" stroke="midnightblue" d="M1661.19,-130.46C1690.56,-117.9 1728.38,-101.72 1751.11,-92.01"/>
<polygon fill="midnightblue" stroke="midnightblue" points="1659.8,-127.25 1651.98,-134.4 1662.55,-133.68 1659.8,-127.25"/>
</g>
<!-- Node18&#45;&gt;Node19 -->
<g id="edge23" class="edge">
<title>Node18&#45;&gt;Node19</title>
<path fill="none" stroke="midnightblue" d="M491.93,-125.87C497.72,-116.46 504.26,-105.83 509.34,-97.58"/>
<polygon fill="midnightblue" stroke="midnightblue" points="488.94,-124.05 486.68,-134.4 494.9,-127.71 488.94,-124.05"/>
</g>
<!-- Node20&#45;&gt;Node9 -->
<g id="edge26" class="edge">
<title>Node20&#45;&gt;Node9</title>
<path fill="none" stroke="midnightblue" d="M651.43,-125.48C667.42,-98.07 693.6,-53.19 706.82,-30.52"/>
<polygon fill="midnightblue" stroke="midnightblue" points="648.26,-123.97 646.24,-134.37 654.3,-127.5 648.26,-123.97"/>
</g>
<!-- Node20&#45;&gt;Node12 -->
<g id="edge27" class="edge">
<title>Node20&#45;&gt;Node12</title>
<path fill="none" stroke="midnightblue" d="M672.82,-129.59C705.62,-112.17 756.39,-86.19 802,-67 834.93,-53.15 873.11,-39.96 902.03,-30.54"/>
<polygon fill="midnightblue" stroke="midnightblue" points="670.83,-126.69 663.66,-134.48 674.13,-132.86 670.83,-126.69"/>
</g>
<!-- Node20&#45;&gt;Node19 -->
<g id="edge25" class="edge">
<title>Node20&#45;&gt;Node19</title>
<path fill="none" stroke="midnightblue" d="M603.06,-129.57C584.18,-119.35 561.27,-106.94 543.99,-97.58"/>
<polygon fill="midnightblue" stroke="midnightblue" points="601.5,-132.71 611.96,-134.4 604.84,-126.56 601.5,-132.71"/>
</g>
<!-- Node22&#45;&gt;Node23 -->
<g id="edge30" class="edge">
<title>Node22&#45;&gt;Node23</title>
<path fill="none" stroke="midnightblue" d="M98.5,-128.73C113.51,-118.68 131.4,-106.68 144.99,-97.58"/>
<polygon fill="midnightblue" stroke="midnightblue" points="96.41,-125.92 90.05,-134.4 100.3,-131.74 96.41,-125.92"/>
</g>
<!-- Node22&#45;&gt;Node24 -->
<g id="edge32" class="edge">
<title>Node22&#45;&gt;Node24</title>
<path fill="none" stroke="midnightblue" d="M72.88,-124.42C76.58,-107.15 83.52,-84.02 96,-67 107.17,-51.78 124.3,-39.3 138.82,-30.56"/>
<polygon fill="midnightblue" stroke="midnightblue" points="69.43,-123.83 70.97,-134.31 76.3,-125.15 69.43,-123.83"/>
</g>
<!-- Node23&#45;&gt;Node24 -->
<g id="edge31" class="edge">
<title>Node23&#45;&gt;Node24</title>
<path fill="none" stroke="midnightblue" d="M166,-57.11C166,-48.15 166,-38.32 166,-30.58"/>
<polygon fill="midnightblue" stroke="midnightblue" points="162.5,-57.4 166,-67.4 169.5,-57.4 162.5,-57.4"/>
</g>
<!-- Node25&#45;&gt;Node21 -->
<g id="edge34" class="edge">
<title>Node25&#45;&gt;Node21</title>
<path fill="none" stroke="midnightblue" d="M1455.06,-129.57C1436.18,-119.35 1413.27,-106.94 1395.99,-97.58"/>
<polygon fill="midnightblue" stroke="midnightblue" points="1453.5,-132.71 1463.96,-134.4 1456.84,-126.56 1453.5,-132.71"/>
</g>
<!-- Node28&#45;&gt;Node6 -->
<g id="edge48" class="edge">
<title>Node28&#45;&gt;Node6</title>
<path fill="none" stroke="midnightblue" d="M836.47,-392.72C848.55,-361.34 873.18,-305.68 908,-268 921.17,-253.74 938.84,-240.76 952.87,-231.53"/>
<polygon fill="midnightblue" stroke="midnightblue" points="833.09,-391.77 832.86,-402.37 839.64,-394.23 833.09,-391.77"/>
</g>
<!-- Node28&#45;&gt;Node7 -->
<g id="edge43" class="edge">
<title>Node28&#45;&gt;Node7</title>
<path fill="none" stroke="midnightblue" d="M826.25,-392.07C822.36,-337.57 813.07,-207.52 810,-164.55"/>
<polygon fill="midnightblue" stroke="midnightblue" points="822.77,-392.47 826.98,-402.2 829.76,-391.97 822.77,-392.47"/>
</g>
<!-- Node28&#45;&gt;Node10 -->
<g id="edge44" class="edge">
<title>Node28&#45;&gt;Node10</title>
<path fill="none" stroke="midnightblue" d="M894.3,-415.42C954.52,-412.04 1044.3,-400.86 1114,-366 1216.04,-314.96 1304.43,-204.11 1333.72,-164.73"/>
<polygon fill="midnightblue" stroke="midnightblue" points="893.97,-411.93 884.16,-415.93 894.32,-418.92 893.97,-411.93"/>
</g>
<!-- Node28&#45;&gt;Node22 -->
<g id="edge53" class="edge">
<title>Node28&#45;&gt;Node22</title>
<path fill="none" stroke="midnightblue" d="M761.75,-414.67C577.24,-409.24 69.38,-392 45,-366 -8.43,-309.02 40.52,-202.83 60.99,-164.64"/>
<polygon fill="midnightblue" stroke="midnightblue" points="761.77,-418.17 771.87,-414.96 761.97,-411.17 761.77,-418.17"/>
</g>
<!-- Node28&#45;&gt;Node23 -->
<g id="edge54" class="edge">
<title>Node28&#45;&gt;Node23</title>
<path fill="none" stroke="midnightblue" d="M767.83,-399.52C736.61,-390.32 697.99,-378.33 664,-366 446.97,-287.27 333.96,-341.39 185,-165 168.78,-145.8 165.81,-115.33 165.58,-97.59"/>
<polygon fill="midnightblue" stroke="midnightblue" points="767.11,-402.96 777.7,-402.41 769.08,-396.24 767.11,-402.96"/>
</g>
<!-- Node29 -->
<g id="node29" class="node">
<title>Node29</title>
<g id="a_node29"><a xlink:href="core_8hpp.html" target="_top" xlink:title=" ">
<polygon fill="none" stroke="black" points="875,-335.5 875,-365.5 979,-365.5 979,-335.5 875,-335.5"/>
<text text-anchor="start" x="883" y="-353.5" font-family="Helvetica,sans-Serif" font-size="10.00">include/yaclib/async</text>
<text text-anchor="middle" x="927" y="-342.5" font-family="Helvetica,sans-Serif" font-size="10.00">/detail/core.hpp</text>
</a>
</g>
</g>
<!-- Node28&#45;&gt;Node29 -->
<g id="edge45" class="edge">
<title>Node28&#45;&gt;Node29</title>
<path fill="none" stroke="midnightblue" d="M858.11,-396.73C873.42,-386.68 891.69,-374.68 905.56,-365.58"/>
<polygon fill="midnightblue" stroke="midnightblue" points="855.92,-393.98 849.48,-402.4 859.76,-399.83 855.92,-393.98"/>
</g>
<!-- Node30 -->
<g id="node30" class="node">
<title>Node30</title>
<g id="a_node30"><a xlink:href="promise_8hpp.html" target="_top" xlink:title=" ">
<polygon fill="none" stroke="black" points="367,-201.5 367,-231.5 471,-231.5 471,-201.5 367,-201.5"/>
<text text-anchor="start" x="375" y="-219.5" font-family="Helvetica,sans-Serif" font-size="10.00">include/yaclib/async</text>
<text text-anchor="middle" x="419" y="-208.5" font-family="Helvetica,sans-Serif" font-size="10.00">/promise.hpp</text>
</a>
</g>
</g>
<!-- Node28&#45;&gt;Node30 -->
<g id="edge49" class="edge">
<title>Node28&#45;&gt;Node30</title>
<path fill="none" stroke="midnightblue" d="M789.53,-397.78C708.15,-358.19 520.12,-266.7 447.94,-231.58"/>
<polygon fill="midnightblue" stroke="midnightblue" points="788.39,-401.12 798.91,-402.35 791.45,-394.83 788.39,-401.12"/>
</g>
<!-- Node32 -->
<g id="node32" class="node">
<title>Node32</title>
<g id="a_node32"><a xlink:href="result__core_8cpp.html" target="_top" xlink:title=" ">
<polygon fill="none" stroke="black" points="54,-341 54,-360 182,-360 182,-341 54,-341"/>
<text text-anchor="middle" x="118" y="-348" font-family="Helvetica,sans-Serif" font-size="10.00">src/async/result_core.cpp</text>
</a>
</g>
</g>
<!-- Node28&#45;&gt;Node32 -->
<g id="edge55" class="edge">
<title>Node28&#45;&gt;Node32</title>
<path fill="none" stroke="midnightblue" d="M761.92,-413.49C646.65,-407.73 401.49,-393.23 196,-366 184.12,-364.43 171.31,-362.25 159.57,-360.06"/>
<polygon fill="midnightblue" stroke="midnightblue" points="761.84,-416.99 772,-413.99 762.18,-410 761.84,-416.99"/>
</g>
<!-- Node29&#45;&gt;Node5 -->
<g id="edge46" class="edge">
<title>Node29&#45;&gt;Node5</title>
<path fill="none" stroke="midnightblue" d="M942.81,-327.16C949.52,-317.68 957.13,-306.92 963.04,-298.58"/>
<polygon fill="midnightblue" stroke="midnightblue" points="939.9,-325.21 936.98,-335.4 945.62,-329.26 939.9,-325.21"/>
</g>
<!-- Node29&#45;&gt;Node20 -->
<g id="edge47" class="edge">
<title>Node29&#45;&gt;Node20</title>
<path fill="none" stroke="midnightblue" d="M897.8,-329.39C839.32,-289.12 709.12,-199.47 658.6,-164.68"/>
<polygon fill="midnightblue" stroke="midnightblue" points="895.99,-332.4 906.22,-335.19 899.96,-326.63 895.99,-332.4"/>
</g>
<!-- Node30&#45;&gt;Node18 -->
<g id="edge50" class="edge">
<title>Node30&#45;&gt;Node18</title>
<path fill="none" stroke="midnightblue" d="M438.75,-193.74C447.48,-184.12 457.5,-173.09 465.22,-164.58"/>
<polygon fill="midnightblue" stroke="midnightblue" points="435.93,-191.64 431.8,-201.4 441.11,-196.34 435.93,-191.64"/>
</g>
<!-- Node30&#45;&gt;Node19 -->
<g id="edge52" class="edge">
<title>Node30&#45;&gt;Node19</title>
<path fill="none" stroke="midnightblue" d="M411.85,-191.44C408.2,-174.17 406.46,-151.05 417,-134 428.23,-115.82 448.21,-103.97 467.45,-96.35"/>
<polygon fill="midnightblue" stroke="midnightblue" points="408.49,-192.45 414.28,-201.32 415.29,-190.77 408.49,-192.45"/>
</g>
<!-- Node31 -->
<g id="node31" class="node">
<title>Node31</title>
<g id="a_node31"><a xlink:href="promise__impl_8cpp.html" target="_top" xlink:title=" ">
<polygon fill="none" stroke="black" points="194.5,-140 194.5,-159 331.5,-159 331.5,-140 194.5,-140"/>
<text text-anchor="middle" x="263" y="-147" font-family="Helvetica,sans-Serif" font-size="10.00">src/async/promise_impl.cpp</text>
</a>
</g>
</g>
<!-- Node30&#45;&gt;Node31 -->
<g id="edge51" class="edge">
<title>Node30&#45;&gt;Node31</title>
<path fill="none" stroke="midnightblue" d="M375.7,-197.46C345.56,-184.9 306.74,-168.72 283.42,-159.01"/>
<polygon fill="midnightblue" stroke="midnightblue" points="374.57,-200.78 385.15,-201.4 377.27,-194.32 374.57,-200.78"/>
</g>
</g>
</svg>
