<?xml version="1.0" encoding="UTF-8" standalone="no"?>
<!DOCTYPE svg PUBLIC "-//W3C//DTD SVG 1.1//EN"
 "http://www.w3.org/Graphics/SVG/1.1/DTD/svg11.dtd">
<!-- Generated by graphviz version 2.50.0 (20220203.2022)
 -->
<!-- Title: src/executor/inline.cpp Pages: 1 -->
<!--zoomable 509 -->
<svg id="main" version="1.1" xmlns="http://www.w3.org/2000/svg" xmlns:xlink="http://www.w3.org/1999/xlink" xml:space="preserve" onload="init(evt)">
<style type="text/css"><![CDATA[
.edge:hover path { stroke: red; }
.edge:hover polygon { stroke: red; fill: red; }
]]></style>
<script type="text/javascript"><![CDATA[
var edges = document.getElementsByTagName('g');
if (edges && edges.length) {
  for (var i=0;i<edges.length;i++) {
    if (edges[i].id.substr(0,4)=='edge') {
      edges[i].setAttribute('class','edge');
    }
  }
}
]]></script>
        <defs>
                <circle id="rim" cx="0" cy="0" r="7"/>
                <circle id="rim2" cx="0" cy="0" r="3.5"/>
                <g id="zoomPlus">
                        <use xlink:href="#rim" fill="#404040">
                                <set attributeName="fill" to="#808080" begin="zoomplus.mouseover" end="zoomplus.mouseout"/>
                        </use>
                        <path d="M-4,0h8M0,-4v8" fill="none" stroke="white" stroke-width="1.5" pointer-events="none"/>
                </g>
                <g id="zoomMin">
                        <use xlink:href="#rim" fill="#404040">
                                <set attributeName="fill" to="#808080" begin="zoomminus.mouseover" end="zoomminus.mouseout"/>
                        </use>
                        <path d="M-4,0h8" fill="none" stroke="white" stroke-width="1.5" pointer-events="none"/>
                </g>
                <g id="dirArrow">
                        <path fill="none" stroke="white" stroke-width="1.5" d="M0,-3.0v7 M-2.5,-0.5L0,-3.0L2.5,-0.5"/>
                </g>
               <g id="resetDef">
                       <use xlink:href="#rim2" fill="#404040">
                               <set attributeName="fill" to="#808080" begin="reset.mouseover" end="reset.mouseout"/>
                       </use>
               </g>
        </defs>

<script type="text/javascript">
var viewWidth = 979;
var viewHeight = 509;
var sectionId = 'dynsection-0';
</script>
<script xlink:href="svgpan.js"/>
<svg id="graph" class="graph">
<g id="viewport">
<title>src/executor/inline.cpp</title>
<!-- Node1 -->
<g id="node1" class="node">
<title>Node1</title>
<g id="a_node1"><a xlink:title=" ">
<polygon fill="#bfbfbf" stroke="black" points="669.5,-481.5 669.5,-500.5 782.5,-500.5 782.5,-481.5 669.5,-481.5"/>
<text text-anchor="middle" x="726" y="-488.5" font-family="Helvetica,sans-Serif" font-size="10.00">src/executor/inline.cpp</text>
</a>
</g>
</g>
<!-- Node2 -->
<g id="node2" class="node">
<title>Node2</title>
<g id="a_node2"><a xlink:title=" ">
<polygon fill="none" stroke="#bfbfbf" points="570,-0.5 570,-19.5 658,-19.5 658,-0.5 570,-0.5"/>
<text text-anchor="middle" x="614" y="-7.5" font-family="Helvetica,sans-Serif" font-size="10.00">yaclib/config.hpp</text>
</a>
</g>
</g>
<!-- Node1&#45;&gt;Node2 -->
<g id="edge1" class="edge">
<title>Node1&#45;&gt;Node2</title>
<path fill="none" stroke="midnightblue" d="M669.36,-490.91C525.44,-491.71 157,-483.63 157,-380 157,-380 157,-380 157,-137.5 157,-86.43 192.1,-78.39 238,-56 293.47,-28.94 469.84,-17.37 559.92,-13.12"/>
<polygon fill="midnightblue" stroke="midnightblue" points="560.11,-16.62 569.94,-12.66 559.79,-9.62 560.11,-16.62"/>
</g>
<!-- Node3 -->
<g id="node3" class="node">
<title>Node3</title>
<g id="a_node3"><a xlink:href="executor_8hpp.html" target="_top" xlink:title=" ">
<polygon fill="none" stroke="black" points="735.5,-369.5 735.5,-388.5 874.5,-388.5 874.5,-369.5 735.5,-369.5"/>
<text text-anchor="middle" x="805" y="-376.5" font-family="Helvetica,sans-Serif" font-size="10.00">yaclib/executor/executor.hpp</text>
</a>
</g>
</g>
<!-- Node1&#45;&gt;Node3 -->
<g id="edge2" class="edge">
<title>Node1&#45;&gt;Node3</title>
<path fill="none" stroke="midnightblue" d="M730.37,-481.23C736.94,-468.39 750.06,-443.96 764,-425 771.5,-414.8 780.95,-404.3 788.89,-396.01"/>
<polygon fill="midnightblue" stroke="midnightblue" points="791.43,-398.42 795.92,-388.82 786.43,-393.52 791.43,-398.42"/>
</g>
<!-- Node4 -->
<g id="node4" class="node">
<title>Node4</title>
<g id="a_node4"><a xlink:href="task_8hpp.html" target="_top" xlink:title=" ">
<polygon fill="none" stroke="black" points="651.5,-313.5 651.5,-332.5 772.5,-332.5 772.5,-313.5 651.5,-313.5"/>
<text text-anchor="middle" x="712" y="-320.5" font-family="Helvetica,sans-Serif" font-size="10.00">yaclib/executor/task.hpp</text>
</a>
</g>
</g>
<!-- Node1&#45;&gt;Node4 -->
<g id="edge42" class="edge">
<title>Node1&#45;&gt;Node4</title>
<path fill="none" stroke="midnightblue" d="M725.25,-481.08C723.04,-454.95 716.57,-378.21 713.57,-342.58"/>
<polygon fill="midnightblue" stroke="midnightblue" points="717.05,-342.24 712.72,-332.57 710.08,-342.83 717.05,-342.24"/>
</g>
<!-- Node20 -->
<g id="node20" class="node">
<title>Node20</title>
<g id="a_node20"><a xlink:href="inline_8hpp.html" target="_top" xlink:title=" ">
<polygon fill="none" stroke="black" points="773.5,-425.5 773.5,-444.5 898.5,-444.5 898.5,-425.5 773.5,-425.5"/>
<text text-anchor="middle" x="836" y="-432.5" font-family="Helvetica,sans-Serif" font-size="10.00">yaclib/executor/inline.hpp</text>
</a>
</g>
</g>
<!-- Node1&#45;&gt;Node20 -->
<g id="edge39" class="edge">
<title>Node1&#45;&gt;Node20</title>
<path fill="none" stroke="midnightblue" d="M743.67,-481.32C761.39,-472.62 788.9,-459.12 809.29,-449.11"/>
<polygon fill="midnightblue" stroke="midnightblue" points="810.94,-452.2 818.37,-444.65 807.85,-445.92 810.94,-452.2"/>
</g>
<!-- Node3&#45;&gt;Node2 -->
<g id="edge3" class="edge">
<title>Node3&#45;&gt;Node2</title>
<path fill="none" stroke="midnightblue" d="M829.98,-369.47C867.23,-354.97 933,-321.77 933,-268 933,-268 933,-268 933,-137.5 933,-100.31 941.33,-81.23 914,-56 879.21,-23.89 745.31,-14.69 668.68,-12.05"/>
<polygon fill="midnightblue" stroke="midnightblue" points="668.37,-8.54 658.26,-11.72 668.14,-15.54 668.37,-8.54"/>
</g>
<!-- Node3&#45;&gt;Node4 -->
<g id="edge4" class="edge">
<title>Node3&#45;&gt;Node4</title>
<path fill="none" stroke="midnightblue" d="M790.06,-369.32C775.41,-360.82 752.87,-347.73 735.76,-337.8"/>
<polygon fill="midnightblue" stroke="midnightblue" points="737.31,-334.65 726.9,-332.65 733.8,-340.7 737.31,-334.65"/>
</g>
<!-- Node16 -->
<g id="node16" class="node">
<title>Node16</title>
<g id="a_node16"><a xlink:href="intrusive__ptr_8hpp.html" target="_top" xlink:title=" ">
<polygon fill="none" stroke="black" points="599.5,-123.5 599.5,-153.5 696.5,-153.5 696.5,-123.5 599.5,-123.5"/>
<text text-anchor="start" x="607.5" y="-141.5" font-family="Helvetica,sans-Serif" font-size="10.00">yaclib/util/intrusive</text>
<text text-anchor="middle" x="648" y="-130.5" font-family="Helvetica,sans-Serif" font-size="10.00">_ptr.hpp</text>
</a>
</g>
</g>
<!-- Node3&#45;&gt;Node16 -->
<g id="edge38" class="edge">
<title>Node3&#45;&gt;Node16</title>
<path fill="none" stroke="midnightblue" d="M802.67,-369.23C799.07,-356.39 791.45,-331.96 781,-313 748.37,-253.81 696.77,-193.01 668.39,-161.48"/>
<polygon fill="midnightblue" stroke="midnightblue" points="670.68,-158.8 661.37,-153.75 665.5,-163.51 670.68,-158.8"/>
</g>
<!-- Node4&#45;&gt;Node2 -->
<g id="edge5" class="edge">
<title>Node4&#45;&gt;Node2</title>
<path fill="none" stroke="midnightblue" d="M713.65,-313.34C717.14,-294.17 725,-246.66 725,-206.5 725,-206.5 725,-206.5 725,-137.5 725,-96.95 711.12,-86.14 684,-56 672.3,-43 656.01,-32.23 642.09,-24.49"/>
<polygon fill="midnightblue" stroke="midnightblue" points="643.39,-21.22 632.92,-19.63 640.11,-27.4 643.39,-21.22"/>
</g>
<!-- Node5 -->
<g id="node5" class="node">
<title>Node5</title>
<g id="a_node5"><a xlink:href="node_8hpp.html" target="_top" xlink:title=" ">
<polygon fill="none" stroke="black" points="821.5,-190.5 821.5,-220.5 904.5,-220.5 904.5,-190.5 821.5,-190.5"/>
<text text-anchor="start" x="829.5" y="-208.5" font-family="Helvetica,sans-Serif" font-size="10.00">yaclib/util/detail</text>
<text text-anchor="middle" x="863" y="-197.5" font-family="Helvetica,sans-Serif" font-size="10.00">/node.hpp</text>
</a>
</g>
</g>
<!-- Node4&#45;&gt;Node5 -->
<g id="edge6" class="edge">
<title>Node4&#45;&gt;Node5</title>
<path fill="none" stroke="midnightblue" d="M723.35,-313.32C747.25,-295.04 803.31,-252.16 836.68,-226.64"/>
<polygon fill="midnightblue" stroke="midnightblue" points="838.82,-229.4 844.64,-220.55 834.57,-223.84 838.82,-229.4"/>
</g>
<!-- Node6 -->
<g id="node6" class="node">
<title>Node6</title>
<g id="a_node6"><a xlink:href="func_8hpp.html" target="_top" xlink:title=" ">
<polygon fill="none" stroke="black" points="457.5,-257.5 457.5,-276.5 554.5,-276.5 554.5,-257.5 457.5,-257.5"/>
<text text-anchor="middle" x="506" y="-264.5" font-family="Helvetica,sans-Serif" font-size="10.00">yaclib/util/func.hpp</text>
</a>
</g>
</g>
<!-- Node4&#45;&gt;Node6 -->
<g id="edge8" class="edge">
<title>Node4&#45;&gt;Node6</title>
<path fill="none" stroke="midnightblue" d="M679.36,-313.44C643.95,-304.16 587.29,-289.31 548.45,-279.13"/>
<polygon fill="midnightblue" stroke="midnightblue" points="549.05,-275.67 538.49,-276.52 547.27,-282.44 549.05,-275.67"/>
</g>
<!-- Node5&#45;&gt;Node2 -->
<g id="edge7" class="edge">
<title>Node5&#45;&gt;Node2</title>
<path fill="none" stroke="midnightblue" d="M854.65,-190.07C836.97,-160.73 792.95,-93.73 739,-56 716.41,-40.2 687.66,-29.34 663.43,-22.26"/>
<polygon fill="midnightblue" stroke="midnightblue" points="664.28,-18.86 653.7,-19.54 662.39,-25.6 664.28,-18.86"/>
</g>
<!-- Node6&#45;&gt;Node2 -->
<g id="edge9" class="edge">
<title>Node6&#45;&gt;Node2</title>
<path fill="none" stroke="midnightblue" d="M457.34,-262.3C393.09,-256.59 284.32,-243.84 252,-221 213.85,-194.04 193.03,-164.75 214,-123 236.38,-78.44 257.92,-75.05 304,-56 388.62,-21.01 496.03,-12.58 559.65,-10.91"/>
<polygon fill="midnightblue" stroke="midnightblue" points="559.93,-14.41 569.85,-10.69 559.78,-7.41 559.93,-14.41"/>
</g>
<!-- Node7 -->
<g id="node7" class="node">
<title>Node7</title>
<g id="a_node7"><a xlink:href="safe__call_8hpp.html" target="_top" xlink:title=" ">
<polygon fill="none" stroke="black" points="421.5,-123.5 421.5,-153.5 504.5,-153.5 504.5,-123.5 421.5,-123.5"/>
<text text-anchor="start" x="429.5" y="-141.5" font-family="Helvetica,sans-Serif" font-size="10.00">yaclib/util/detail</text>
<text text-anchor="middle" x="463" y="-130.5" font-family="Helvetica,sans-Serif" font-size="10.00">/safe_call.hpp</text>
</a>
</g>
</g>
<!-- Node6&#45;&gt;Node7 -->
<g id="edge10" class="edge">
<title>Node6&#45;&gt;Node7</title>
<path fill="none" stroke="midnightblue" d="M503.04,-257.31C496.56,-238.21 480.87,-192.07 471.17,-163.52"/>
<polygon fill="midnightblue" stroke="midnightblue" points="474.42,-162.23 467.89,-153.89 467.8,-164.48 474.42,-162.23"/>
</g>
<!-- Node8 -->
<g id="node8" class="node">
<title>Node8</title>
<g id="a_node8"><a xlink:title=" ">
<polygon fill="none" stroke="#bfbfbf" points="490,-62 490,-81 552,-81 552,-62 490,-62"/>
<text text-anchor="middle" x="521" y="-69" font-family="Helvetica,sans-Serif" font-size="10.00">type_traits</text>
</a>
</g>
</g>
<!-- Node6&#45;&gt;Node8 -->
<g id="edge36" class="edge">
<title>Node6&#45;&gt;Node8</title>
<path fill="none" stroke="midnightblue" d="M506.66,-257.44C508.92,-228.29 516.35,-132.47 519.53,-91.43"/>
<polygon fill="midnightblue" stroke="midnightblue" points="523.03,-91.65 520.31,-81.41 516.05,-91.11 523.03,-91.65"/>
</g>
<!-- Node9 -->
<g id="node9" class="node">
<title>Node9</title>
<g id="a_node9"><a xlink:title=" ">
<polygon fill="none" stroke="#bfbfbf" points="383.5,-62 383.5,-81 422.5,-81 422.5,-62 383.5,-62"/>
<text text-anchor="middle" x="403" y="-69" font-family="Helvetica,sans-Serif" font-size="10.00">utility</text>
</a>
</g>
</g>
<!-- Node6&#45;&gt;Node9 -->
<g id="edge37" class="edge">
<title>Node6&#45;&gt;Node9</title>
<path fill="none" stroke="midnightblue" d="M495.54,-257.44C475.36,-240.25 431.36,-199.28 412,-154 403.45,-134.01 401.9,-108.86 402.04,-91.82"/>
<polygon fill="midnightblue" stroke="midnightblue" points="405.55,-91.59 402.34,-81.49 398.55,-91.38 405.55,-91.59"/>
</g>
<!-- Node10 -->
<g id="node10" class="node">
<title>Node10</title>
<g id="a_node10"><a xlink:href="helper_8hpp.html" target="_top" xlink:title=" ">
<polygon fill="none" stroke="black" points="261,-196 261,-215 365,-215 365,-196 261,-196"/>
<text text-anchor="middle" x="313" y="-203" font-family="Helvetica,sans-Serif" font-size="10.00">yaclib/util/helper.hpp</text>
</a>
</g>
</g>
<!-- Node6&#45;&gt;Node10 -->
<g id="edge14" class="edge">
<title>Node6&#45;&gt;Node10</title>
<path fill="none" stroke="midnightblue" d="M478.35,-257.48C444.81,-247.14 388.13,-229.66 350.63,-218.1"/>
<polygon fill="midnightblue" stroke="midnightblue" points="351.19,-214.61 340.6,-215.01 349.13,-221.3 351.19,-214.61"/>
</g>
<!-- Node6&#45;&gt;Node16 -->
<g id="edge34" class="edge">
<title>Node6&#45;&gt;Node16</title>
<path fill="none" stroke="midnightblue" d="M525.89,-257.39C542.75,-249.48 567.01,-236.63 585,-221 604.77,-203.82 622.54,-179.62 634.13,-162.06"/>
<polygon fill="midnightblue" stroke="midnightblue" points="637.14,-163.85 639.6,-153.55 631.25,-160.07 637.14,-163.85"/>
</g>
<!-- Node17 -->
<g id="node17" class="node">
<title>Node17</title>
<g id="a_node17"><a xlink:href="ref_8hpp.html" target="_top" xlink:title=" ">
<polygon fill="none" stroke="black" points="569.5,-62 569.5,-81 658.5,-81 658.5,-62 569.5,-62"/>
<text text-anchor="middle" x="614" y="-69" font-family="Helvetica,sans-Serif" font-size="10.00">yaclib/util/ref.hpp</text>
</a>
</g>
</g>
<!-- Node6&#45;&gt;Node17 -->
<g id="edge35" class="edge">
<title>Node6&#45;&gt;Node17</title>
<path fill="none" stroke="midnightblue" d="M510.78,-257.44C527.19,-228.04 581.45,-130.82 604.02,-90.39"/>
<polygon fill="midnightblue" stroke="midnightblue" points="607.21,-91.84 609.03,-81.41 601.1,-88.43 607.21,-91.84"/>
</g>
<!-- Node7&#45;&gt;Node2 -->
<g id="edge11" class="edge">
<title>Node7&#45;&gt;Node2</title>
<path fill="none" stroke="midnightblue" d="M462.17,-123.24C461.93,-105.32 464.26,-74.66 481,-56 501.07,-33.61 532.68,-22.35 560.05,-16.69"/>
<polygon fill="midnightblue" stroke="midnightblue" points="560.72,-20.13 569.91,-14.85 559.44,-13.25 560.72,-20.13"/>
</g>
<!-- Node7&#45;&gt;Node8 -->
<g id="edge12" class="edge">
<title>Node7&#45;&gt;Node8</title>
<path fill="none" stroke="midnightblue" d="M475.59,-123.4C484.63,-113.26 496.85,-99.57 506.33,-88.94"/>
<polygon fill="midnightblue" stroke="midnightblue" points="509.2,-90.99 513.24,-81.19 503.97,-86.33 509.2,-90.99"/>
</g>
<!-- Node7&#45;&gt;Node9 -->
<g id="edge13" class="edge">
<title>Node7&#45;&gt;Node9</title>
<path fill="none" stroke="midnightblue" d="M449.98,-123.4C440.53,-113.16 427.73,-99.3 417.88,-88.62"/>
<polygon fill="midnightblue" stroke="midnightblue" points="420.38,-86.17 411.03,-81.19 415.24,-90.92 420.38,-86.17"/>
</g>
<!-- Node10&#45;&gt;Node2 -->
<g id="edge15" class="edge">
<title>Node10&#45;&gt;Node2</title>
<path fill="none" stroke="midnightblue" d="M317.06,-195.99C321.78,-186 329.72,-168.92 336,-154 354.13,-110.95 338.06,-85.85 374,-56 401.65,-33.04 497.96,-20.75 559.85,-15.07"/>
<polygon fill="midnightblue" stroke="midnightblue" points="560.19,-18.56 569.85,-14.18 559.57,-11.58 560.19,-18.56"/>
</g>
<!-- Node11 -->
<g id="node11" class="node">
<title>Node11</title>
<g id="a_node11"><a xlink:href="atomic_8hpp.html" target="_top" xlink:title=" ">
<polygon fill="none" stroke="black" points="15.5,-62 15.5,-81 128.5,-81 128.5,-62 15.5,-62"/>
<text text-anchor="middle" x="72" y="-69" font-family="Helvetica,sans-Serif" font-size="10.00">yaclib/fault/atomic.hpp</text>
</a>
</g>
</g>
<!-- Node10&#45;&gt;Node11 -->
<g id="edge16" class="edge">
<title>Node10&#45;&gt;Node11</title>
<path fill="none" stroke="midnightblue" d="M295.7,-196C275.83,-186.16 242.33,-169.35 214,-154 171.56,-131.01 122.94,-102.66 95.02,-86.18"/>
<polygon fill="midnightblue" stroke="midnightblue" points="96.77,-83.15 86.38,-81.07 93.21,-89.17 96.77,-83.15"/>
</g>
<!-- Node15 -->
<g id="node15" class="node">
<title>Node15</title>
<g id="a_node15"><a xlink:href="atomic__counter_8hpp.html" target="_top" xlink:title=" ">
<polygon fill="none" stroke="black" points="223,-123.5 223,-153.5 327,-153.5 327,-123.5 223,-123.5"/>
<text text-anchor="start" x="231" y="-141.5" font-family="Helvetica,sans-Serif" font-size="10.00">yaclib/util/detail</text>
<text text-anchor="middle" x="275" y="-130.5" font-family="Helvetica,sans-Serif" font-size="10.00">/atomic_counter.hpp</text>
</a>
</g>
</g>
<!-- Node10&#45;&gt;Node15 -->
<g id="edge21" class="edge">
<title>Node10&#45;&gt;Node15</title>
<path fill="none" stroke="midnightblue" d="M307.88,-195.73C302.89,-187.2 295.1,-173.87 288.35,-162.33"/>
<polygon fill="midnightblue" stroke="midnightblue" points="291.31,-160.46 283.24,-153.59 285.26,-163.99 291.31,-160.46"/>
</g>
<!-- Node10&#45;&gt;Node16 -->
<g id="edge26" class="edge">
<title>Node10&#45;&gt;Node16</title>
<path fill="none" stroke="midnightblue" d="M357.14,-195.94C416.79,-184.36 523.29,-163.7 589.54,-150.84"/>
<polygon fill="midnightblue" stroke="midnightblue" points="590.27,-154.27 599.42,-148.93 588.93,-147.4 590.27,-154.27"/>
</g>
<!-- Node11&#45;&gt;Node2 -->
<g id="edge17" class="edge">
<title>Node11&#45;&gt;Node2</title>
<path fill="none" stroke="midnightblue" d="M110.19,-61.93C120.78,-59.76 132.3,-57.6 143,-56 293.24,-33.55 472.2,-20.05 559.99,-14.29"/>
<polygon fill="midnightblue" stroke="midnightblue" points="560.23,-17.78 569.98,-13.64 559.77,-10.79 560.23,-17.78"/>
</g>
<!-- Node12 -->
<g id="node12" class="node">
<title>Node12</title>
<g id="a_node12"><a xlink:title=" ">
<polygon fill="none" stroke="#bfbfbf" points="156.5,-0.5 156.5,-19.5 205.5,-19.5 205.5,-0.5 156.5,-0.5"/>
<text text-anchor="middle" x="181" y="-7.5" font-family="Helvetica,sans-Serif" font-size="10.00">cstddef</text>
</a>
</g>
</g>
<!-- Node11&#45;&gt;Node12 -->
<g id="edge18" class="edge">
<title>Node11&#45;&gt;Node12</title>
<path fill="none" stroke="midnightblue" d="M87.62,-61.98C105.59,-52.17 135.32,-35.93 156.41,-24.42"/>
<polygon fill="midnightblue" stroke="midnightblue" points="158.31,-27.37 165.41,-19.51 154.96,-21.23 158.31,-27.37"/>
</g>
<!-- Node13 -->
<g id="node13" class="node">
<title>Node13</title>
<g id="a_node13"><a xlink:title=" ">
<polygon fill="none" stroke="#bfbfbf" points="0,-0.5 0,-19.5 46,-19.5 46,-0.5 0,-0.5"/>
<text text-anchor="middle" x="23" y="-7.5" font-family="Helvetica,sans-Serif" font-size="10.00">cstdint</text>
</a>
</g>
</g>
<!-- Node11&#45;&gt;Node13 -->
<g id="edge19" class="edge">
<title>Node11&#45;&gt;Node13</title>
<path fill="none" stroke="midnightblue" d="M64.98,-61.98C57.56,-52.96 45.67,-38.52 36.43,-27.31"/>
<polygon fill="midnightblue" stroke="midnightblue" points="39.07,-25 30.01,-19.51 33.66,-29.45 39.07,-25"/>
</g>
<!-- Node14 -->
<g id="node14" class="node">
<title>Node14</title>
<g id="a_node14"><a xlink:title=" ">
<polygon fill="none" stroke="#bfbfbf" points="64,-0.5 64,-19.5 110,-19.5 110,-0.5 64,-0.5"/>
<text text-anchor="middle" x="87" y="-7.5" font-family="Helvetica,sans-Serif" font-size="10.00">atomic</text>
</a>
</g>
</g>
<!-- Node11&#45;&gt;Node14 -->
<g id="edge20" class="edge">
<title>Node11&#45;&gt;Node14</title>
<path fill="none" stroke="midnightblue" d="M74.15,-61.98C76.29,-53.49 79.64,-40.2 82.38,-29.32"/>
<polygon fill="midnightblue" stroke="midnightblue" points="85.8,-30.06 84.85,-19.51 79.02,-28.35 85.8,-30.06"/>
</g>
<!-- Node15&#45;&gt;Node2 -->
<g id="edge22" class="edge">
<title>Node15&#45;&gt;Node2</title>
<path fill="none" stroke="midnightblue" d="M282.19,-123.32C292.49,-104.59 313.3,-72.11 341,-56 377.24,-34.93 490.97,-21.67 559.67,-15.37"/>
<polygon fill="midnightblue" stroke="midnightblue" points="560.23,-18.83 569.88,-14.45 559.61,-11.86 560.23,-18.83"/>
</g>
<!-- Node15&#45;&gt;Node9 -->
<g id="edge25" class="edge">
<title>Node15&#45;&gt;Node9</title>
<path fill="none" stroke="midnightblue" d="M302.77,-123.4C324.94,-112.14 355.74,-96.5 377.33,-85.54"/>
<polygon fill="midnightblue" stroke="midnightblue" points="378.92,-88.66 386.25,-81.01 375.75,-82.41 378.92,-88.66"/>
</g>
<!-- Node15&#45;&gt;Node11 -->
<g id="edge23" class="edge">
<title>Node15&#45;&gt;Node11</title>
<path fill="none" stroke="midnightblue" d="M230.95,-123.4C194.23,-111.64 142.55,-95.09 108.2,-84.09"/>
<polygon fill="midnightblue" stroke="midnightblue" points="109.16,-80.72 98.57,-81.01 107.02,-87.39 109.16,-80.72"/>
</g>
<!-- Node15&#45;&gt;Node12 -->
<g id="edge24" class="edge">
<title>Node15&#45;&gt;Node12</title>
<path fill="none" stroke="midnightblue" d="M264.58,-123.48C247.21,-100.1 212.4,-53.25 193.65,-28.02"/>
<polygon fill="midnightblue" stroke="midnightblue" points="196.3,-25.73 187.53,-19.79 190.69,-29.9 196.3,-25.73"/>
</g>
<!-- Node16&#45;&gt;Node2 -->
<g id="edge27" class="edge">
<title>Node16&#45;&gt;Node2</title>
<path fill="none" stroke="midnightblue" d="M656.66,-123.38C665.73,-106.66 677.31,-78.28 667,-56 661.08,-43.21 649.53,-32.72 638.72,-25.1"/>
<polygon fill="midnightblue" stroke="midnightblue" points="640.62,-22.16 630.33,-19.61 636.79,-28.02 640.62,-22.16"/>
</g>
<!-- Node16&#45;&gt;Node8 -->
<g id="edge30" class="edge">
<title>Node16&#45;&gt;Node8</title>
<path fill="none" stroke="midnightblue" d="M620.44,-123.4C598.55,-112.19 568.17,-96.64 546.76,-85.69"/>
<polygon fill="midnightblue" stroke="midnightblue" points="548.12,-82.45 537.62,-81.01 544.93,-88.68 548.12,-82.45"/>
</g>
<!-- Node16&#45;&gt;Node17 -->
<g id="edge28" class="edge">
<title>Node16&#45;&gt;Node17</title>
<path fill="none" stroke="midnightblue" d="M640.62,-123.4C635.53,-113.66 628.72,-100.65 623.27,-90.21"/>
<polygon fill="midnightblue" stroke="midnightblue" points="626.28,-88.43 618.55,-81.19 620.08,-91.68 626.28,-88.43"/>
</g>
<!-- Node18 -->
<g id="node18" class="node">
<title>Node18</title>
<g id="a_node18"><a xlink:href="intrusive__ptr__impl_8hpp.html" target="_top" xlink:title=" ">
<polygon fill="none" stroke="black" points="791,-56.5 791,-86.5 905,-86.5 905,-56.5 791,-56.5"/>
<text text-anchor="start" x="799" y="-74.5" font-family="Helvetica,sans-Serif" font-size="10.00">yaclib/util/detail</text>
<text text-anchor="middle" x="848" y="-63.5" font-family="Helvetica,sans-Serif" font-size="10.00">/intrusive_ptr_impl.hpp</text>
</a>
</g>
</g>
<!-- Node16&#45;&gt;Node18 -->
<g id="edge31" class="edge">
<title>Node16&#45;&gt;Node18</title>
<path fill="none" stroke="midnightblue" d="M691.4,-123.4C721.8,-113.52 762.61,-100.25 794.94,-89.74"/>
<polygon fill="midnightblue" stroke="midnightblue" points="796.26,-93 804.69,-86.58 794.1,-86.34 796.26,-93"/>
</g>
<!-- Node17&#45;&gt;Node2 -->
<g id="edge29" class="edge">
<title>Node17&#45;&gt;Node2</title>
<path fill="none" stroke="midnightblue" d="M614,-61.98C614,-53.58 614,-40.48 614,-29.66"/>
<polygon fill="midnightblue" stroke="midnightblue" points="617.5,-29.51 614,-19.51 610.5,-29.51 617.5,-29.51"/>
</g>
<!-- Node18&#45;&gt;Node2 -->
<g id="edge32" class="edge">
<title>Node18&#45;&gt;Node2</title>
<path fill="none" stroke="midnightblue" d="M792.84,-56.47C751.41,-45.94 695.47,-31.72 657.25,-22"/>
<polygon fill="midnightblue" stroke="midnightblue" points="658.01,-18.58 647.45,-19.51 656.28,-25.36 658.01,-18.58"/>
</g>
<!-- Node19 -->
<g id="node19" class="node">
<title>Node19</title>
<g id="a_node19"><a xlink:title=" ">
<polygon fill="none" stroke="#bfbfbf" points="823.5,-0.5 823.5,-19.5 872.5,-19.5 872.5,-0.5 823.5,-0.5"/>
<text text-anchor="middle" x="848" y="-7.5" font-family="Helvetica,sans-Serif" font-size="10.00">cassert</text>
</a>
</g>
</g>
<!-- Node18&#45;&gt;Node19 -->
<g id="edge33" class="edge">
<title>Node18&#45;&gt;Node19</title>
<path fill="none" stroke="midnightblue" d="M848,-56.4C848,-48.47 848,-38.46 848,-29.86"/>
<polygon fill="midnightblue" stroke="midnightblue" points="851.5,-29.66 848,-19.66 844.5,-29.66 851.5,-29.66"/>
</g>
<!-- Node20&#45;&gt;Node2 -->
<g id="edge40" class="edge">
<title>Node20&#45;&gt;Node2</title>
<path fill="none" stroke="midnightblue" d="M863.65,-425.42C903.14,-411.23 971,-378.87 971,-324 971,-324 971,-324 971,-137.5 971,-98.42 968.82,-80.02 938,-56 897.03,-24.07 749.18,-14.8 668.11,-12.1"/>
<polygon fill="midnightblue" stroke="midnightblue" points="668.19,-8.6 658.09,-11.79 667.98,-15.6 668.19,-8.6"/>
</g>
<!-- Node20&#45;&gt;Node3 -->
<g id="edge41" class="edge">
<title>Node20&#45;&gt;Node3</title>
<path fill="none" stroke="midnightblue" d="M830.88,-425.08C826.59,-417.61 820.34,-406.72 815.06,-397.52"/>
<polygon fill="midnightblue" stroke="midnightblue" points="818.04,-395.68 810.02,-388.75 811.97,-399.17 818.04,-395.68"/>
</g>
</g>
</svg>
        <g id="navigator" transform="translate(0 0)" fill="#404254">
                <rect fill="#f2f5e9" fill-opacity="0.5" stroke="#606060" stroke-width=".5" x="0" y="0" width="60" height="60"/>
                <use id="zoomplus" xlink:href="#zoomPlus" x="17" y="9" onmousedown="handleZoom(evt,'in')"/>
                <use id="zoomminus" xlink:href="#zoomMin" x="42" y="9" onmousedown="handleZoom(evt,'out')"/>
                <use id="reset" xlink:href="#resetDef" x="30" y="36" onmousedown="handleReset()"/>
                <g id="arrowUp" xlink:href="#dirArrow" transform="translate(30 24)" onmousedown="handlePan(0,-1)">
                  <use xlink:href="#rim" fill="#404040">
                        <set attributeName="fill" to="#808080" begin="arrowUp.mouseover" end="arrowUp.mouseout"/>
                  </use>
                  <path fill="none" stroke="white" stroke-width="1.5" d="M0,-3.0v7 M-2.5,-0.5L0,-3.0L2.5,-0.5"/>
                </g>
                <g id="arrowRight" xlink:href="#dirArrow" transform="rotate(90) translate(36 -43)" onmousedown="handlePan(1,0)">
                  <use xlink:href="#rim" fill="#404040">
                        <set attributeName="fill" to="#808080" begin="arrowRight.mouseover" end="arrowRight.mouseout"/>
                  </use>
                  <path fill="none" stroke="white" stroke-width="1.5" d="M0,-3.0v7 M-2.5,-0.5L0,-3.0L2.5,-0.5"/>
                </g>
                <g id="arrowDown" xlink:href="#dirArrow" transform="rotate(180) translate(-30 -48)" onmousedown="handlePan(0,1)">
                  <use xlink:href="#rim" fill="#404040">
                        <set attributeName="fill" to="#808080" begin="arrowDown.mouseover" end="arrowDown.mouseout"/>
                  </use>
                  <path fill="none" stroke="white" stroke-width="1.5" d="M0,-3.0v7 M-2.5,-0.5L0,-3.0L2.5,-0.5"/>
                </g>
                <g id="arrowLeft" xlink:href="#dirArrow" transform="rotate(270) translate(-36 17)" onmousedown="handlePan(-1,0)">
                  <use xlink:href="#rim" fill="#404040">
                        <set attributeName="fill" to="#808080" begin="arrowLeft.mouseover" end="arrowLeft.mouseout"/>
                  </use>
                  <path fill="none" stroke="white" stroke-width="1.5" d="M0,-3.0v7 M-2.5,-0.5L0,-3.0L2.5,-0.5"/>
                </g>
        </g>
        <svg viewBox="0 0 15 15" width="100%" height="30px" preserveAspectRatio="xMaxYMin meet">
         <g id="arrow_out" transform="scale(0.3 0.3)">
          <a xlink:href="inline_8cpp__incl_org.svg" target="_base">
           <rect id="button" ry="5" rx="5" y="6" x="6" height="38" width="38"
                fill="#f2f5e9" fill-opacity="0.5" stroke="#606060" stroke-width="1.0"/>
           <path id="arrow"
             d="M 11.500037,31.436501 C 11.940474,20.09759 22.043105,11.32322 32.158766,21.979434 L 37.068811,17.246167 C 37.068811,17.246167 37.088388,32 37.088388,32 L 22.160133,31.978069 C 22.160133,31.978069 26.997745,27.140456 26.997745,27.140456 C 18.528582,18.264221 13.291696,25.230495 11.500037,31.436501 z"
             style="fill:#404040;"/>
          </a>
         </g>
        </svg>
</svg>
