<?xml version="1.0" encoding="UTF-8" standalone="no"?>
<!DOCTYPE svg PUBLIC "-//W3C//DTD SVG 1.1//EN"
 "http://www.w3.org/Graphics/SVG/1.1/DTD/svg11.dtd">
<!-- Generated by graphviz version 2.50.0 (20220203.2022)
 -->
<!-- Title: include/yaclib/executor/inline.hpp Pages: 1 -->
<svg width="931pt" height="464pt"
 viewBox="0.00 0.00 931.00 464.00" xmlns="http://www.w3.org/2000/svg" xmlns:xlink="http://www.w3.org/1999/xlink">
<g id="graph0" class="graph" transform="scale(1 1) rotate(0) translate(4 460)">
<title>include/yaclib/executor/inline.hpp</title>
<!-- Node1 -->
<g id="node1" class="node">
<title>Node1</title>
<g id="a_node1"><a xlink:title=" ">
<polygon fill="#bfbfbf" stroke="black" points="766.5,-425.5 766.5,-455.5 881.5,-455.5 881.5,-425.5 766.5,-425.5"/>
<text text-anchor="start" x="774.5" y="-443.5" font-family="Helvetica,sans-Serif" font-size="10.00">include/yaclib/executor</text>
<text text-anchor="middle" x="824" y="-432.5" font-family="Helvetica,sans-Serif" font-size="10.00">/inline.hpp</text>
</a>
</g>
</g>
<!-- Node2 -->
<g id="node2" class="node">
<title>Node2</title>
<g id="a_node2"><a xlink:title=" ">
<polygon fill="none" stroke="#bfbfbf" points="466,-0.5 466,-19.5 554,-19.5 554,-0.5 466,-0.5"/>
<text text-anchor="middle" x="510" y="-7.5" font-family="Helvetica,sans-Serif" font-size="10.00">yaclib/config.hpp</text>
</a>
</g>
</g>
<!-- Node1&#45;&gt;Node2 -->
<g id="edge1" class="edge">
<title>Node1&#45;&gt;Node2</title>
<path fill="none" stroke="midnightblue" d="M848.47,-425.36C877.79,-406.37 923,-369.69 923,-324 923,-324 923,-324 923,-137.5 923,-98.25 920.32,-79.65 889,-56 839.11,-18.32 656.8,-11.74 564.43,-10.88"/>
<polygon fill="midnightblue" stroke="midnightblue" points="564.18,-7.38 554.16,-10.81 564.13,-14.38 564.18,-7.38"/>
</g>
<!-- Node3 -->
<g id="node3" class="node">
<title>Node3</title>
<g id="a_node3"><a xlink:href="executor_8hpp.html" target="_top" xlink:title=" ">
<polygon fill="none" stroke="black" points="705.5,-369.5 705.5,-388.5 844.5,-388.5 844.5,-369.5 705.5,-369.5"/>
<text text-anchor="middle" x="775" y="-376.5" font-family="Helvetica,sans-Serif" font-size="10.00">yaclib/executor/executor.hpp</text>
</a>
</g>
</g>
<!-- Node1&#45;&gt;Node3 -->
<g id="edge2" class="edge">
<title>Node1&#45;&gt;Node3</title>
<path fill="none" stroke="midnightblue" d="M812.39,-425.4C805.27,-416.75 796.12,-405.64 788.65,-396.58"/>
<polygon fill="midnightblue" stroke="midnightblue" points="791.19,-394.15 782.13,-388.66 785.79,-398.6 791.19,-394.15"/>
</g>
<!-- Node3&#45;&gt;Node2 -->
<g id="edge3" class="edge">
<title>Node3&#45;&gt;Node2</title>
<path fill="none" stroke="midnightblue" d="M794.41,-369.46C825.99,-354.11 885,-318.64 885,-268 885,-268 885,-268 885,-137.5 885,-100.31 893.62,-80.91 866,-56 822.78,-17.02 652.99,-10.97 564.43,-10.55"/>
<polygon fill="midnightblue" stroke="midnightblue" points="564.31,-7.04 554.3,-10.52 564.29,-14.04 564.31,-7.04"/>
</g>
<!-- Node4 -->
<g id="node4" class="node">
<title>Node4</title>
<g id="a_node4"><a xlink:href="task_8hpp.html" target="_top" xlink:title=" ">
<polygon fill="none" stroke="black" points="489.5,-313.5 489.5,-332.5 610.5,-332.5 610.5,-313.5 489.5,-313.5"/>
<text text-anchor="middle" x="550" y="-320.5" font-family="Helvetica,sans-Serif" font-size="10.00">yaclib/executor/task.hpp</text>
</a>
</g>
</g>
<!-- Node3&#45;&gt;Node4 -->
<g id="edge4" class="edge">
<title>Node3&#45;&gt;Node4</title>
<path fill="none" stroke="midnightblue" d="M739.35,-369.44C700.34,-360.08 637.73,-345.06 595.28,-334.87"/>
<polygon fill="midnightblue" stroke="midnightblue" points="596.03,-331.45 585.49,-332.52 594.39,-338.25 596.03,-331.45"/>
</g>
<!-- Node16 -->
<g id="node16" class="node">
<title>Node16</title>
<g id="a_node16"><a xlink:href="intrusive__ptr_8hpp.html" target="_top" xlink:title=" ">
<polygon fill="none" stroke="black" points="561.5,-123.5 561.5,-153.5 658.5,-153.5 658.5,-123.5 561.5,-123.5"/>
<text text-anchor="start" x="569.5" y="-141.5" font-family="Helvetica,sans-Serif" font-size="10.00">yaclib/util/intrusive</text>
<text text-anchor="middle" x="610" y="-130.5" font-family="Helvetica,sans-Serif" font-size="10.00">_ptr.hpp</text>
</a>
</g>
</g>
<!-- Node3&#45;&gt;Node16 -->
<g id="edge38" class="edge">
<title>Node3&#45;&gt;Node16</title>
<path fill="none" stroke="midnightblue" d="M768.93,-369.23C745.57,-335.46 660.97,-213.17 625.65,-162.13"/>
<polygon fill="midnightblue" stroke="midnightblue" points="628.42,-159.97 619.85,-153.74 622.66,-163.95 628.42,-159.97"/>
</g>
<!-- Node4&#45;&gt;Node2 -->
<g id="edge5" class="edge">
<title>Node4&#45;&gt;Node2</title>
<path fill="none" stroke="midnightblue" d="M489.46,-316.84C379.22,-305.76 157,-274.95 157,-206.5 157,-206.5 157,-206.5 157,-137.5 157,-89.75 185.31,-79.29 227,-56 265.24,-34.64 384.77,-21.37 455.67,-15.17"/>
<polygon fill="midnightblue" stroke="midnightblue" points="456.1,-18.65 465.76,-14.31 455.5,-11.67 456.1,-18.65"/>
</g>
<!-- Node5 -->
<g id="node5" class="node">
<title>Node5</title>
<g id="a_node5"><a xlink:href="node_8hpp.html" target="_top" xlink:title=" ">
<polygon fill="none" stroke="black" points="753.5,-190.5 753.5,-220.5 836.5,-220.5 836.5,-190.5 753.5,-190.5"/>
<text text-anchor="start" x="761.5" y="-208.5" font-family="Helvetica,sans-Serif" font-size="10.00">yaclib/util/detail</text>
<text text-anchor="middle" x="795" y="-197.5" font-family="Helvetica,sans-Serif" font-size="10.00">/node.hpp</text>
</a>
</g>
</g>
<!-- Node4&#45;&gt;Node5 -->
<g id="edge6" class="edge">
<title>Node4&#45;&gt;Node5</title>
<path fill="none" stroke="midnightblue" d="M568.41,-313.32C608.1,-294.61 702.41,-250.15 756.01,-224.88"/>
<polygon fill="midnightblue" stroke="midnightblue" points="757.65,-227.98 765.21,-220.55 754.67,-221.64 757.65,-227.98"/>
</g>
<!-- Node6 -->
<g id="node6" class="node">
<title>Node6</title>
<g id="a_node6"><a xlink:href="func_8hpp.html" target="_top" xlink:title=" ">
<polygon fill="none" stroke="black" points="465.5,-257.5 465.5,-276.5 562.5,-276.5 562.5,-257.5 465.5,-257.5"/>
<text text-anchor="middle" x="514" y="-264.5" font-family="Helvetica,sans-Serif" font-size="10.00">yaclib/util/func.hpp</text>
</a>
</g>
</g>
<!-- Node4&#45;&gt;Node6 -->
<g id="edge8" class="edge">
<title>Node4&#45;&gt;Node6</title>
<path fill="none" stroke="midnightblue" d="M544.06,-313.08C539.02,-305.53 531.66,-294.49 525.49,-285.23"/>
<polygon fill="midnightblue" stroke="midnightblue" points="528.29,-283.13 519.83,-276.75 522.47,-287.01 528.29,-283.13"/>
</g>
<!-- Node5&#45;&gt;Node2 -->
<g id="edge7" class="edge">
<title>Node5&#45;&gt;Node2</title>
<path fill="none" stroke="midnightblue" d="M789.8,-190.5C778.01,-160.76 746.28,-91.15 696,-56 657.17,-28.86 603.9,-17.99 564.31,-13.69"/>
<polygon fill="midnightblue" stroke="midnightblue" points="564.6,-10.2 554.3,-12.71 563.91,-17.17 564.6,-10.2"/>
</g>
<!-- Node6&#45;&gt;Node2 -->
<g id="edge9" class="edge">
<title>Node6&#45;&gt;Node2</title>
<path fill="none" stroke="midnightblue" d="M465.49,-262.61C399.47,-257.18 285.66,-244.65 252,-221 223.99,-201.32 222.73,-187.1 214,-154 186.32,-49.08 363.01,-21.13 455.79,-13.69"/>
<polygon fill="midnightblue" stroke="midnightblue" points="456.14,-17.18 465.85,-12.94 455.62,-10.2 456.14,-17.18"/>
</g>
<!-- Node7 -->
<g id="node7" class="node">
<title>Node7</title>
<g id="a_node7"><a xlink:href="safe__call_8hpp.html" target="_top" xlink:title=" ">
<polygon fill="none" stroke="black" points="421.5,-123.5 421.5,-153.5 504.5,-153.5 504.5,-123.5 421.5,-123.5"/>
<text text-anchor="start" x="429.5" y="-141.5" font-family="Helvetica,sans-Serif" font-size="10.00">yaclib/util/detail</text>
<text text-anchor="middle" x="463" y="-130.5" font-family="Helvetica,sans-Serif" font-size="10.00">/safe_call.hpp</text>
</a>
</g>
</g>
<!-- Node6&#45;&gt;Node7 -->
<g id="edge10" class="edge">
<title>Node6&#45;&gt;Node7</title>
<path fill="none" stroke="midnightblue" d="M510.49,-257.31C502.8,-238.21 484.19,-192.07 472.69,-163.52"/>
<polygon fill="midnightblue" stroke="midnightblue" points="475.79,-161.85 468.8,-153.89 469.29,-164.47 475.79,-161.85"/>
</g>
<!-- Node8 -->
<g id="node8" class="node">
<title>Node8</title>
<g id="a_node8"><a xlink:title=" ">
<polygon fill="none" stroke="#bfbfbf" points="479,-62 479,-81 541,-81 541,-62 479,-62"/>
<text text-anchor="middle" x="510" y="-69" font-family="Helvetica,sans-Serif" font-size="10.00">type_traits</text>
</a>
</g>
</g>
<!-- Node6&#45;&gt;Node8 -->
<g id="edge36" class="edge">
<title>Node6&#45;&gt;Node8</title>
<path fill="none" stroke="midnightblue" d="M514.1,-257.29C514.31,-234.97 514.69,-173.87 513,-123 512.65,-112.52 511.98,-100.82 511.35,-91.33"/>
<polygon fill="midnightblue" stroke="midnightblue" points="514.83,-90.81 510.65,-81.07 507.84,-91.29 514.83,-90.81"/>
</g>
<!-- Node9 -->
<g id="node9" class="node">
<title>Node9</title>
<g id="a_node9"><a xlink:title=" ">
<polygon fill="none" stroke="#bfbfbf" points="383.5,-62 383.5,-81 422.5,-81 422.5,-62 383.5,-62"/>
<text text-anchor="middle" x="403" y="-69" font-family="Helvetica,sans-Serif" font-size="10.00">utility</text>
</a>
</g>
</g>
<!-- Node6&#45;&gt;Node9 -->
<g id="edge37" class="edge">
<title>Node6&#45;&gt;Node9</title>
<path fill="none" stroke="midnightblue" d="M502.31,-257.39C480.26,-240.42 432.9,-200.26 412,-154 402.95,-133.97 401.54,-108.46 401.85,-91.37"/>
<polygon fill="midnightblue" stroke="midnightblue" points="405.36,-91.18 402.27,-81.04 398.37,-90.89 405.36,-91.18"/>
</g>
<!-- Node10 -->
<g id="node10" class="node">
<title>Node10</title>
<g id="a_node10"><a xlink:href="helper_8hpp.html" target="_top" xlink:title=" ">
<polygon fill="none" stroke="black" points="261,-196 261,-215 365,-215 365,-196 261,-196"/>
<text text-anchor="middle" x="313" y="-203" font-family="Helvetica,sans-Serif" font-size="10.00">yaclib/util/helper.hpp</text>
</a>
</g>
</g>
<!-- Node6&#45;&gt;Node10 -->
<g id="edge14" class="edge">
<title>Node6&#45;&gt;Node10</title>
<path fill="none" stroke="midnightblue" d="M485.2,-257.48C450.13,-247.09 390.74,-229.51 351.69,-217.95"/>
<polygon fill="midnightblue" stroke="midnightblue" points="352.33,-214.49 341.74,-215.01 350.34,-221.2 352.33,-214.49"/>
</g>
<!-- Node6&#45;&gt;Node16 -->
<g id="edge34" class="edge">
<title>Node6&#45;&gt;Node16</title>
<path fill="none" stroke="midnightblue" d="M520.6,-257.31C535.34,-237.88 571.34,-190.44 592.9,-162.04"/>
<polygon fill="midnightblue" stroke="midnightblue" points="595.82,-163.97 599.08,-153.89 590.25,-159.74 595.82,-163.97"/>
</g>
<!-- Node17 -->
<g id="node17" class="node">
<title>Node17</title>
<g id="a_node17"><a xlink:href="ref_8hpp.html" target="_top" xlink:title=" ">
<polygon fill="none" stroke="black" points="597.5,-62 597.5,-81 686.5,-81 686.5,-62 597.5,-62"/>
<text text-anchor="middle" x="642" y="-69" font-family="Helvetica,sans-Serif" font-size="10.00">yaclib/util/ref.hpp</text>
</a>
</g>
</g>
<!-- Node6&#45;&gt;Node17 -->
<g id="edge35" class="edge">
<title>Node6&#45;&gt;Node17</title>
<path fill="none" stroke="midnightblue" d="M536.85,-257.39C572.55,-242.54 640.32,-208.35 668,-154 678.69,-133.01 666.15,-106.74 655.06,-89.79"/>
<polygon fill="midnightblue" stroke="midnightblue" points="657.81,-87.62 649.21,-81.43 652.08,-91.63 657.81,-87.62"/>
</g>
<!-- Node7&#45;&gt;Node2 -->
<g id="edge11" class="edge">
<title>Node7&#45;&gt;Node2</title>
<path fill="none" stroke="midnightblue" d="M461.59,-123.3C460.5,-106.5 460.52,-78.05 470,-56 474.77,-44.91 483.38,-34.67 491.39,-26.76"/>
<polygon fill="midnightblue" stroke="midnightblue" points="494.07,-29.05 499.04,-19.7 489.32,-23.91 494.07,-29.05"/>
</g>
<!-- Node7&#45;&gt;Node8 -->
<g id="edge12" class="edge">
<title>Node7&#45;&gt;Node8</title>
<path fill="none" stroke="midnightblue" d="M473.2,-123.4C480.38,-113.46 490.04,-100.11 497.66,-89.57"/>
<polygon fill="midnightblue" stroke="midnightblue" points="500.69,-91.35 503.71,-81.19 495.02,-87.25 500.69,-91.35"/>
</g>
<!-- Node7&#45;&gt;Node9 -->
<g id="edge13" class="edge">
<title>Node7&#45;&gt;Node9</title>
<path fill="none" stroke="midnightblue" d="M449.98,-123.4C440.53,-113.16 427.73,-99.3 417.88,-88.62"/>
<polygon fill="midnightblue" stroke="midnightblue" points="420.38,-86.17 411.03,-81.19 415.24,-90.92 420.38,-86.17"/>
</g>
<!-- Node10&#45;&gt;Node2 -->
<g id="edge15" class="edge">
<title>Node10&#45;&gt;Node2</title>
<path fill="none" stroke="midnightblue" d="M317.06,-195.99C321.78,-186 329.72,-168.92 336,-154 354.13,-110.95 340.15,-88.19 374,-56 396.15,-34.94 428.38,-23.73 455.91,-17.76"/>
<polygon fill="midnightblue" stroke="midnightblue" points="456.68,-21.18 465.81,-15.79 455.31,-14.31 456.68,-21.18"/>
</g>
<!-- Node11 -->
<g id="node11" class="node">
<title>Node11</title>
<g id="a_node11"><a xlink:href="atomic_8hpp.html" target="_top" xlink:title=" ">
<polygon fill="none" stroke="black" points="15.5,-62 15.5,-81 128.5,-81 128.5,-62 15.5,-62"/>
<text text-anchor="middle" x="72" y="-69" font-family="Helvetica,sans-Serif" font-size="10.00">yaclib/fault/atomic.hpp</text>
</a>
</g>
</g>
<!-- Node10&#45;&gt;Node11 -->
<g id="edge16" class="edge">
<title>Node10&#45;&gt;Node11</title>
<path fill="none" stroke="midnightblue" d="M295.7,-196C275.83,-186.16 242.33,-169.35 214,-154 171.56,-131.01 122.94,-102.66 95.02,-86.18"/>
<polygon fill="midnightblue" stroke="midnightblue" points="96.77,-83.15 86.38,-81.07 93.21,-89.17 96.77,-83.15"/>
</g>
<!-- Node15 -->
<g id="node15" class="node">
<title>Node15</title>
<g id="a_node15"><a xlink:href="atomic__counter_8hpp.html" target="_top" xlink:title=" ">
<polygon fill="none" stroke="black" points="223,-123.5 223,-153.5 327,-153.5 327,-123.5 223,-123.5"/>
<text text-anchor="start" x="231" y="-141.5" font-family="Helvetica,sans-Serif" font-size="10.00">yaclib/util/detail</text>
<text text-anchor="middle" x="275" y="-130.5" font-family="Helvetica,sans-Serif" font-size="10.00">/atomic_counter.hpp</text>
</a>
</g>
</g>
<!-- Node10&#45;&gt;Node15 -->
<g id="edge21" class="edge">
<title>Node10&#45;&gt;Node15</title>
<path fill="none" stroke="midnightblue" d="M307.88,-195.73C302.89,-187.2 295.1,-173.87 288.35,-162.33"/>
<polygon fill="midnightblue" stroke="midnightblue" points="291.31,-160.46 283.24,-153.59 285.26,-163.99 291.31,-160.46"/>
</g>
<!-- Node10&#45;&gt;Node16 -->
<g id="edge26" class="edge">
<title>Node10&#45;&gt;Node16</title>
<path fill="none" stroke="midnightblue" d="M352.13,-195.94C403.06,-184.79 492.49,-165.22 551.49,-152.31"/>
<polygon fill="midnightblue" stroke="midnightblue" points="552.39,-155.69 561.41,-150.13 550.89,-148.85 552.39,-155.69"/>
</g>
<!-- Node11&#45;&gt;Node2 -->
<g id="edge17" class="edge">
<title>Node11&#45;&gt;Node2</title>
<path fill="none" stroke="midnightblue" d="M110.96,-61.96C121.34,-59.85 132.57,-57.7 143,-56 253.5,-37.97 383.8,-23.62 455.61,-16.3"/>
<polygon fill="midnightblue" stroke="midnightblue" points="456.18,-19.76 465.78,-15.28 455.47,-12.8 456.18,-19.76"/>
</g>
<!-- Node12 -->
<g id="node12" class="node">
<title>Node12</title>
<g id="a_node12"><a xlink:title=" ">
<polygon fill="none" stroke="#bfbfbf" points="156.5,-0.5 156.5,-19.5 205.5,-19.5 205.5,-0.5 156.5,-0.5"/>
<text text-anchor="middle" x="181" y="-7.5" font-family="Helvetica,sans-Serif" font-size="10.00">cstddef</text>
</a>
</g>
</g>
<!-- Node11&#45;&gt;Node12 -->
<g id="edge18" class="edge">
<title>Node11&#45;&gt;Node12</title>
<path fill="none" stroke="midnightblue" d="M87.62,-61.98C105.59,-52.17 135.32,-35.93 156.41,-24.42"/>
<polygon fill="midnightblue" stroke="midnightblue" points="158.31,-27.37 165.41,-19.51 154.96,-21.23 158.31,-27.37"/>
</g>
<!-- Node13 -->
<g id="node13" class="node">
<title>Node13</title>
<g id="a_node13"><a xlink:title=" ">
<polygon fill="none" stroke="#bfbfbf" points="0,-0.5 0,-19.5 46,-19.5 46,-0.5 0,-0.5"/>
<text text-anchor="middle" x="23" y="-7.5" font-family="Helvetica,sans-Serif" font-size="10.00">cstdint</text>
</a>
</g>
</g>
<!-- Node11&#45;&gt;Node13 -->
<g id="edge19" class="edge">
<title>Node11&#45;&gt;Node13</title>
<path fill="none" stroke="midnightblue" d="M64.98,-61.98C57.56,-52.96 45.67,-38.52 36.43,-27.31"/>
<polygon fill="midnightblue" stroke="midnightblue" points="39.07,-25 30.01,-19.51 33.66,-29.45 39.07,-25"/>
</g>
<!-- Node14 -->
<g id="node14" class="node">
<title>Node14</title>
<g id="a_node14"><a xlink:title=" ">
<polygon fill="none" stroke="#bfbfbf" points="64,-0.5 64,-19.5 110,-19.5 110,-0.5 64,-0.5"/>
<text text-anchor="middle" x="87" y="-7.5" font-family="Helvetica,sans-Serif" font-size="10.00">atomic</text>
</a>
</g>
</g>
<!-- Node11&#45;&gt;Node14 -->
<g id="edge20" class="edge">
<title>Node11&#45;&gt;Node14</title>
<path fill="none" stroke="midnightblue" d="M74.15,-61.98C76.29,-53.49 79.64,-40.2 82.38,-29.32"/>
<polygon fill="midnightblue" stroke="midnightblue" points="85.8,-30.06 84.85,-19.51 79.02,-28.35 85.8,-30.06"/>
</g>
<!-- Node15&#45;&gt;Node2 -->
<g id="edge22" class="edge">
<title>Node15&#45;&gt;Node2</title>
<path fill="none" stroke="midnightblue" d="M282.61,-123.39C293.24,-105.05 314.26,-73.33 341,-56 375.43,-33.68 420.62,-22.38 455.6,-16.69"/>
<polygon fill="midnightblue" stroke="midnightblue" points="456.28,-20.13 465.64,-15.17 455.23,-13.21 456.28,-20.13"/>
</g>
<!-- Node15&#45;&gt;Node9 -->
<g id="edge25" class="edge">
<title>Node15&#45;&gt;Node9</title>
<path fill="none" stroke="midnightblue" d="M302.77,-123.4C324.94,-112.14 355.74,-96.5 377.33,-85.54"/>
<polygon fill="midnightblue" stroke="midnightblue" points="378.92,-88.66 386.25,-81.01 375.75,-82.41 378.92,-88.66"/>
</g>
<!-- Node15&#45;&gt;Node11 -->
<g id="edge23" class="edge">
<title>Node15&#45;&gt;Node11</title>
<path fill="none" stroke="midnightblue" d="M230.95,-123.4C194.23,-111.64 142.55,-95.09 108.2,-84.09"/>
<polygon fill="midnightblue" stroke="midnightblue" points="109.16,-80.72 98.57,-81.01 107.02,-87.39 109.16,-80.72"/>
</g>
<!-- Node15&#45;&gt;Node12 -->
<g id="edge24" class="edge">
<title>Node15&#45;&gt;Node12</title>
<path fill="none" stroke="midnightblue" d="M264.58,-123.48C247.21,-100.1 212.4,-53.25 193.65,-28.02"/>
<polygon fill="midnightblue" stroke="midnightblue" points="196.3,-25.73 187.53,-19.79 190.69,-29.9 196.3,-25.73"/>
</g>
<!-- Node16&#45;&gt;Node2 -->
<g id="edge27" class="edge">
<title>Node16&#45;&gt;Node2</title>
<path fill="none" stroke="midnightblue" d="M600.19,-123.36C588.61,-106.87 568.57,-78.94 550,-56 542.11,-46.25 532.82,-35.75 525.19,-27.35"/>
<polygon fill="midnightblue" stroke="midnightblue" points="527.56,-24.76 518.22,-19.75 522.4,-29.49 527.56,-24.76"/>
</g>
<!-- Node16&#45;&gt;Node8 -->
<g id="edge30" class="edge">
<title>Node16&#45;&gt;Node8</title>
<path fill="none" stroke="midnightblue" d="M588.3,-123.4C571.53,-112.5 548.43,-97.48 531.67,-86.58"/>
<polygon fill="midnightblue" stroke="midnightblue" points="533.38,-83.52 523.09,-81.01 529.56,-89.39 533.38,-83.52"/>
</g>
<!-- Node16&#45;&gt;Node17 -->
<g id="edge28" class="edge">
<title>Node16&#45;&gt;Node17</title>
<path fill="none" stroke="midnightblue" d="M616.94,-123.4C621.74,-113.66 628.14,-100.65 633.28,-90.21"/>
<polygon fill="midnightblue" stroke="midnightblue" points="636.44,-91.71 637.72,-81.19 630.16,-88.62 636.44,-91.71"/>
</g>
<!-- Node18 -->
<g id="node18" class="node">
<title>Node18</title>
<g id="a_node18"><a xlink:href="intrusive__ptr__impl_8hpp.html" target="_top" xlink:title=" ">
<polygon fill="none" stroke="black" points="743,-56.5 743,-86.5 857,-86.5 857,-56.5 743,-56.5"/>
<text text-anchor="start" x="751" y="-74.5" font-family="Helvetica,sans-Serif" font-size="10.00">yaclib/util/detail</text>
<text text-anchor="middle" x="800" y="-63.5" font-family="Helvetica,sans-Serif" font-size="10.00">/intrusive_ptr_impl.hpp</text>
</a>
</g>
</g>
<!-- Node16&#45;&gt;Node18 -->
<g id="edge31" class="edge">
<title>Node16&#45;&gt;Node18</title>
<path fill="none" stroke="midnightblue" d="M651.23,-123.4C679.98,-113.56 718.54,-100.37 749.2,-89.88"/>
<polygon fill="midnightblue" stroke="midnightblue" points="750.52,-93.13 758.85,-86.58 748.26,-86.5 750.52,-93.13"/>
</g>
<!-- Node17&#45;&gt;Node2 -->
<g id="edge29" class="edge">
<title>Node17&#45;&gt;Node2</title>
<path fill="none" stroke="midnightblue" d="M623.09,-61.98C600.84,-51.95 563.69,-35.2 538.07,-23.65"/>
<polygon fill="midnightblue" stroke="midnightblue" points="539.43,-20.43 528.88,-19.51 536.56,-26.81 539.43,-20.43"/>
</g>
<!-- Node18&#45;&gt;Node2 -->
<g id="edge32" class="edge">
<title>Node18&#45;&gt;Node2</title>
<path fill="none" stroke="midnightblue" d="M742.71,-58.74C689.94,-47.92 612.34,-32 561.49,-21.57"/>
<polygon fill="midnightblue" stroke="midnightblue" points="562.2,-18.14 551.7,-19.56 560.79,-24.99 562.2,-18.14"/>
</g>
<!-- Node19 -->
<g id="node19" class="node">
<title>Node19</title>
<g id="a_node19"><a xlink:title=" ">
<polygon fill="none" stroke="#bfbfbf" points="775.5,-0.5 775.5,-19.5 824.5,-19.5 824.5,-0.5 775.5,-0.5"/>
<text text-anchor="middle" x="800" y="-7.5" font-family="Helvetica,sans-Serif" font-size="10.00">cassert</text>
</a>
</g>
</g>
<!-- Node18&#45;&gt;Node19 -->
<g id="edge33" class="edge">
<title>Node18&#45;&gt;Node19</title>
<path fill="none" stroke="midnightblue" d="M800,-56.4C800,-48.47 800,-38.46 800,-29.86"/>
<polygon fill="midnightblue" stroke="midnightblue" points="803.5,-29.66 800,-19.66 796.5,-29.66 803.5,-29.66"/>
</g>
</g>
</svg>
