<?xml version="1.0" encoding="UTF-8" standalone="no"?>
<!DOCTYPE svg PUBLIC "-//W3C//DTD SVG 1.1//EN"
 "http://www.w3.org/Graphics/SVG/1.1/DTD/svg11.dtd">
<!-- Generated by graphviz version 2.50.0 (20220203.2022)
 -->
<!-- Title: src/util/intrusive_list.cpp Pages: 1 -->
<!--zoomable 531 -->
<svg id="main" version="1.1" xmlns="http://www.w3.org/2000/svg" xmlns:xlink="http://www.w3.org/1999/xlink" xml:space="preserve" onload="init(evt)">
<style type="text/css"><![CDATA[
.edge:hover path { stroke: red; }
.edge:hover polygon { stroke: red; fill: red; }
]]></style>
<script type="text/javascript"><![CDATA[
var edges = document.getElementsByTagName('g');
if (edges && edges.length) {
  for (var i=0;i<edges.length;i++) {
    if (edges[i].id.substr(0,4)=='edge') {
      edges[i].setAttribute('class','edge');
    }
  }
}
]]></script>
        <defs>
                <circle id="rim" cx="0" cy="0" r="7"/>
                <circle id="rim2" cx="0" cy="0" r="3.5"/>
                <g id="zoomPlus">
                        <use xlink:href="#rim" fill="#404040">
                                <set attributeName="fill" to="#808080" begin="zoomplus.mouseover" end="zoomplus.mouseout"/>
                        </use>
                        <path d="M-4,0h8M0,-4v8" fill="none" stroke="white" stroke-width="1.5" pointer-events="none"/>
                </g>
                <g id="zoomMin">
                        <use xlink:href="#rim" fill="#404040">
                                <set attributeName="fill" to="#808080" begin="zoomminus.mouseover" end="zoomminus.mouseout"/>
                        </use>
                        <path d="M-4,0h8" fill="none" stroke="white" stroke-width="1.5" pointer-events="none"/>
                </g>
                <g id="dirArrow">
                        <path fill="none" stroke="white" stroke-width="1.5" d="M0,-3.0v7 M-2.5,-0.5L0,-3.0L2.5,-0.5"/>
                </g>
               <g id="resetDef">
                       <use xlink:href="#rim2" fill="#404040">
                               <set attributeName="fill" to="#808080" begin="reset.mouseover" end="reset.mouseout"/>
                       </use>
               </g>
        </defs>

<script type="text/javascript">
var viewWidth = 1058;
var viewHeight = 531;
var sectionId = 'dynsection-0';
</script>
<script xlink:href="svgpan.js"/>
<svg id="graph" class="graph">
<g id="viewport">
<title>src/util/intrusive_list.cpp</title>
<!-- Node1 -->
<g id="node1" class="node">
<title>Node1</title>
<g id="a_node1"><a xlink:title=" ">
<polygon fill="#bfbfbf" stroke="black" points="477,-492.5 477,-522.5 563,-522.5 563,-492.5 477,-492.5"/>
<text text-anchor="start" x="485" y="-510.5" font-family="Helvetica,sans-Serif" font-size="10.00">src/util/intrusive</text>
<text text-anchor="middle" x="520" y="-499.5" font-family="Helvetica,sans-Serif" font-size="10.00">_list.cpp</text>
</a>
</g>
</g>
<!-- Node2 -->
<g id="node2" class="node">
<title>Node2</title>
<g id="a_node2"><a xlink:href="intrusive__list_8hpp.html" target="_top" xlink:title=" ">
<polygon fill="none" stroke="black" points="274.5,-436.5 274.5,-455.5 379.5,-455.5 379.5,-436.5 274.5,-436.5"/>
<text text-anchor="middle" x="327" y="-443.5" font-family="Helvetica,sans-Serif" font-size="10.00">util/intrusive_list.hpp</text>
</a>
</g>
</g>
<!-- Node1&#45;&gt;Node2 -->
<g id="edge1" class="edge">
<title>Node1&#45;&gt;Node2</title>
<path fill="none" stroke="midnightblue" d="M476.69,-493.15C442.99,-482.76 396.71,-468.49 364.57,-458.58"/>
<polygon fill="midnightblue" stroke="midnightblue" points="365.25,-455.13 354.67,-455.53 363.19,-461.82 365.25,-455.13"/>
</g>
<!-- Node3 -->
<g id="node3" class="node">
<title>Node3</title>
<g id="a_node3"><a xlink:title=" ">
<polygon fill="none" stroke="#bfbfbf" points="534,-0.5 534,-19.5 622,-19.5 622,-0.5 534,-0.5"/>
<text text-anchor="middle" x="578" y="-7.5" font-family="Helvetica,sans-Serif" font-size="10.00">yaclib/config.hpp</text>
</a>
</g>
</g>
<!-- Node1&#45;&gt;Node3 -->
<g id="edge45" class="edge">
<title>Node1&#45;&gt;Node3</title>
<path fill="none" stroke="midnightblue" d="M563.37,-505.83C689.95,-502.71 1050,-485.07 1050,-385.5 1050,-385.5 1050,-385.5 1050,-137.5 1050,-96.95 1042.37,-79.04 1009,-56 949.22,-14.72 734.37,-10.11 632.42,-10.34"/>
<polygon fill="midnightblue" stroke="midnightblue" points="632.31,-6.84 622.33,-10.38 632.34,-13.84 632.31,-6.84"/>
</g>
<!-- Node9 -->
<g id="node9" class="node">
<title>Node9</title>
<g id="a_node9"><a xlink:title=" ">
<polygon fill="none" stroke="#bfbfbf" points="510.5,-62 510.5,-81 549.5,-81 549.5,-62 510.5,-62"/>
<text text-anchor="middle" x="530" y="-69" font-family="Helvetica,sans-Serif" font-size="10.00">utility</text>
</a>
</g>
</g>
<!-- Node1&#45;&gt;Node9 -->
<g id="edge46" class="edge">
<title>Node1&#45;&gt;Node9</title>
<path fill="none" stroke="midnightblue" d="M520,-492.34C520,-469.75 520,-424.15 520,-385.5 520,-385.5 520,-385.5 520,-199 520,-160.58 524.64,-115.81 527.6,-91.16"/>
<polygon fill="midnightblue" stroke="midnightblue" points="531.09,-91.43 528.85,-81.07 524.15,-90.56 531.09,-91.43"/>
</g>
<!-- Node2&#45;&gt;Node3 -->
<g id="edge2" class="edge">
<title>Node2&#45;&gt;Node3</title>
<path fill="none" stroke="midnightblue" d="M379.58,-437.11C514.93,-413.5 873.14,-329.4 993,-87 999.11,-74.65 1002.2,-66.25 993,-56 969.34,-29.64 739.82,-17.3 632.63,-12.94"/>
<polygon fill="midnightblue" stroke="midnightblue" points="632.47,-9.43 622.34,-12.53 632.2,-16.42 632.47,-9.43"/>
</g>
<!-- Node4 -->
<g id="node4" class="node">
<title>Node4</title>
<g id="a_node4"><a xlink:href="task_8hpp.html" target="_top" xlink:title=" ">
<polygon fill="none" stroke="black" points="312.5,-313.5 312.5,-332.5 433.5,-332.5 433.5,-313.5 312.5,-313.5"/>
<text text-anchor="middle" x="373" y="-320.5" font-family="Helvetica,sans-Serif" font-size="10.00">yaclib/executor/task.hpp</text>
</a>
</g>
</g>
<!-- Node2&#45;&gt;Node4 -->
<g id="edge3" class="edge">
<title>Node2&#45;&gt;Node4</title>
<path fill="none" stroke="midnightblue" d="M330.31,-436.3C337.77,-416.68 356.03,-368.64 366.08,-342.19"/>
<polygon fill="midnightblue" stroke="midnightblue" points="369.44,-343.21 369.72,-332.62 362.9,-340.73 369.44,-343.21"/>
</g>
<!-- Node5 -->
<g id="node5" class="node">
<title>Node5</title>
<g id="a_node5"><a xlink:href="node_8hpp.html" target="_top" xlink:title=" ">
<polygon fill="none" stroke="black" points="172.5,-246.5 172.5,-276.5 255.5,-276.5 255.5,-246.5 172.5,-246.5"/>
<text text-anchor="start" x="180.5" y="-264.5" font-family="Helvetica,sans-Serif" font-size="10.00">yaclib/util/detail</text>
<text text-anchor="middle" x="214" y="-253.5" font-family="Helvetica,sans-Serif" font-size="10.00">/node.hpp</text>
</a>
</g>
</g>
<!-- Node2&#45;&gt;Node5 -->
<g id="edge43" class="edge">
<title>Node2&#45;&gt;Node5</title>
<path fill="none" stroke="midnightblue" d="M287.37,-436.44C261.25,-429.51 227.17,-417.91 201,-400 168.5,-377.76 156.76,-369.91 143,-333 135.18,-312.02 153.24,-294.29 173.1,-281.86"/>
<polygon fill="midnightblue" stroke="midnightblue" points="175.08,-284.75 181.96,-276.69 171.56,-278.71 175.08,-284.75"/>
</g>
<!-- Node12 -->
<g id="node12" class="node">
<title>Node12</title>
<g id="a_node12"><a xlink:title=" ">
<polygon fill="none" stroke="#bfbfbf" points="32.5,-0.5 32.5,-19.5 81.5,-19.5 81.5,-0.5 32.5,-0.5"/>
<text text-anchor="middle" x="57" y="-7.5" font-family="Helvetica,sans-Serif" font-size="10.00">cstddef</text>
</a>
</g>
</g>
<!-- Node2&#45;&gt;Node12 -->
<g id="edge44" class="edge">
<title>Node2&#45;&gt;Node12</title>
<path fill="none" stroke="midnightblue" d="M274.46,-436.74C182.03,-420.71 0,-381.81 0,-324 0,-324 0,-324 0,-137.5 0,-94.97 27.11,-50.93 43.94,-27.7"/>
<polygon fill="midnightblue" stroke="midnightblue" points="46.82,-29.7 50.01,-19.6 41.21,-25.5 46.82,-29.7"/>
</g>
<!-- Node20 -->
<g id="node20" class="node">
<title>Node20</title>
<g id="a_node20"><a xlink:href="thread__factory_8hpp.html" target="_top" xlink:title=" ">
<polygon fill="none" stroke="black" points="209.5,-369.5 209.5,-399.5 320.5,-399.5 320.5,-369.5 209.5,-369.5"/>
<text text-anchor="start" x="217.5" y="-387.5" font-family="Helvetica,sans-Serif" font-size="10.00">yaclib/executor/thread</text>
<text text-anchor="middle" x="265" y="-376.5" font-family="Helvetica,sans-Serif" font-size="10.00">_factory.hpp</text>
</a>
</g>
</g>
<!-- Node2&#45;&gt;Node20 -->
<g id="edge37" class="edge">
<title>Node2&#45;&gt;Node20</title>
<path fill="none" stroke="midnightblue" d="M318.12,-436.48C310.03,-428.72 297.76,-416.94 287.05,-406.66"/>
<polygon fill="midnightblue" stroke="midnightblue" points="289.25,-403.92 279.61,-399.52 284.4,-408.97 289.25,-403.92"/>
</g>
<!-- Node4&#45;&gt;Node3 -->
<g id="edge4" class="edge">
<title>Node4&#45;&gt;Node3</title>
<path fill="none" stroke="midnightblue" d="M366.54,-313.42C352.82,-294.32 322,-246.37 322,-201 322,-201 322,-201 322,-137.5 322,-48.25 448.61,-21.97 523.75,-14.23"/>
<polygon fill="midnightblue" stroke="midnightblue" points="524.37,-17.69 533.99,-13.26 523.71,-10.72 524.37,-17.69"/>
</g>
<!-- Node4&#45;&gt;Node5 -->
<g id="edge5" class="edge">
<title>Node4&#45;&gt;Node5</title>
<path fill="none" stroke="midnightblue" d="M350.22,-313.48C327.07,-304.81 290.55,-291.15 261.14,-280.14"/>
<polygon fill="midnightblue" stroke="midnightblue" points="262.07,-276.75 251.47,-276.52 259.61,-283.31 262.07,-276.75"/>
</g>
<!-- Node6 -->
<g id="node6" class="node">
<title>Node6</title>
<g id="a_node6"><a xlink:href="func_8hpp.html" target="_top" xlink:title=" ">
<polygon fill="none" stroke="black" points="630.5,-252 630.5,-271 727.5,-271 727.5,-252 630.5,-252"/>
<text text-anchor="middle" x="679" y="-259" font-family="Helvetica,sans-Serif" font-size="10.00">yaclib/util/func.hpp</text>
</a>
</g>
</g>
<!-- Node4&#45;&gt;Node6 -->
<g id="edge7" class="edge">
<title>Node4&#45;&gt;Node6</title>
<path fill="none" stroke="midnightblue" d="M416.84,-313.48C471.83,-302.78 566.07,-284.46 625.32,-272.94"/>
<polygon fill="midnightblue" stroke="midnightblue" points="626.09,-276.35 635.24,-271.01 624.75,-269.48 626.09,-276.35"/>
</g>
<!-- Node5&#45;&gt;Node3 -->
<g id="edge6" class="edge">
<title>Node5&#45;&gt;Node3</title>
<path fill="none" stroke="midnightblue" d="M213.1,-246.44C211.54,-209.03 212.93,-106.49 270,-56 306.65,-23.57 445.61,-14.51 523.77,-11.97"/>
<polygon fill="midnightblue" stroke="midnightblue" points="524.02,-15.47 533.91,-11.67 523.81,-8.47 524.02,-15.47"/>
</g>
<!-- Node6&#45;&gt;Node3 -->
<g id="edge8" class="edge">
<title>Node6&#45;&gt;Node3</title>
<path fill="none" stroke="midnightblue" d="M715.36,-251.94C742.57,-244.23 779.65,-230.86 807,-210 841.14,-183.96 856.9,-165.2 849,-123 843.12,-91.6 847.61,-76.36 823,-56 794.59,-32.5 695.34,-20.34 632.22,-14.84"/>
<polygon fill="midnightblue" stroke="midnightblue" points="632.29,-11.33 622.03,-13.98 631.7,-18.31 632.29,-11.33"/>
</g>
<!-- Node7 -->
<g id="node7" class="node">
<title>Node7</title>
<g id="a_node7"><a xlink:href="safe__call_8hpp.html" target="_top" xlink:title=" ">
<polygon fill="none" stroke="black" points="586.5,-123.5 586.5,-153.5 669.5,-153.5 669.5,-123.5 586.5,-123.5"/>
<text text-anchor="start" x="594.5" y="-141.5" font-family="Helvetica,sans-Serif" font-size="10.00">yaclib/util/detail</text>
<text text-anchor="middle" x="628" y="-130.5" font-family="Helvetica,sans-Serif" font-size="10.00">/safe_call.hpp</text>
</a>
</g>
</g>
<!-- Node6&#45;&gt;Node7 -->
<g id="edge9" class="edge">
<title>Node6&#45;&gt;Node7</title>
<path fill="none" stroke="midnightblue" d="M675.33,-251.8C667.6,-233.44 649.38,-190.22 637.94,-163.07"/>
<polygon fill="midnightblue" stroke="midnightblue" points="641.03,-161.39 633.92,-153.54 634.58,-164.11 641.03,-161.39"/>
</g>
<!-- Node8 -->
<g id="node8" class="node">
<title>Node8</title>
<g id="a_node8"><a xlink:title=" ">
<polygon fill="none" stroke="#bfbfbf" points="606,-62 606,-81 668,-81 668,-62 606,-62"/>
<text text-anchor="middle" x="637" y="-69" font-family="Helvetica,sans-Serif" font-size="10.00">type_traits</text>
</a>
</g>
</g>
<!-- Node6&#45;&gt;Node8 -->
<g id="edge35" class="edge">
<title>Node6&#45;&gt;Node8</title>
<path fill="none" stroke="midnightblue" d="M680.98,-251.78C685.63,-229.51 695.64,-169.02 679,-123 674.2,-109.73 664.23,-97.49 655.2,-88.38"/>
<polygon fill="midnightblue" stroke="midnightblue" points="657.34,-85.58 647.67,-81.24 652.52,-90.66 657.34,-85.58"/>
</g>
<!-- Node6&#45;&gt;Node9 -->
<g id="edge36" class="edge">
<title>Node6&#45;&gt;Node9</title>
<path fill="none" stroke="midnightblue" d="M669.33,-251.73C650.41,-234.29 607.74,-193.49 578,-154 562.62,-133.58 548.19,-107.85 539.25,-90.83"/>
<polygon fill="midnightblue" stroke="midnightblue" points="542.12,-88.76 534.43,-81.48 535.9,-91.97 542.12,-88.76"/>
</g>
<!-- Node10 -->
<g id="node10" class="node">
<title>Node10</title>
<g id="a_node10"><a xlink:href="helper_8hpp.html" target="_top" xlink:title=" ">
<polygon fill="none" stroke="black" points="388,-190.5 388,-209.5 492,-209.5 492,-190.5 388,-190.5"/>
<text text-anchor="middle" x="440" y="-197.5" font-family="Helvetica,sans-Serif" font-size="10.00">yaclib/util/helper.hpp</text>
</a>
</g>
</g>
<!-- Node6&#45;&gt;Node10 -->
<g id="edge13" class="edge">
<title>Node6&#45;&gt;Node10</title>
<path fill="none" stroke="midnightblue" d="M644.76,-251.98C602.43,-241.44 530.32,-223.49 483.95,-211.94"/>
<polygon fill="midnightblue" stroke="midnightblue" points="484.73,-208.53 474.18,-209.51 483.04,-215.32 484.73,-208.53"/>
</g>
<!-- Node16 -->
<g id="node16" class="node">
<title>Node16</title>
<g id="a_node16"><a xlink:href="intrusive__ptr_8hpp.html" target="_top" xlink:title=" ">
<polygon fill="none" stroke="black" points="726.5,-123.5 726.5,-153.5 823.5,-153.5 823.5,-123.5 726.5,-123.5"/>
<text text-anchor="start" x="734.5" y="-141.5" font-family="Helvetica,sans-Serif" font-size="10.00">yaclib/util/intrusive</text>
<text text-anchor="middle" x="775" y="-130.5" font-family="Helvetica,sans-Serif" font-size="10.00">_ptr.hpp</text>
</a>
</g>
</g>
<!-- Node6&#45;&gt;Node16 -->
<g id="edge33" class="edge">
<title>Node6&#45;&gt;Node16</title>
<path fill="none" stroke="midnightblue" d="M685.9,-251.8C700.72,-233.12 735.97,-188.69 757.42,-161.65"/>
<polygon fill="midnightblue" stroke="midnightblue" points="760.39,-163.55 763.86,-153.54 754.9,-159.2 760.39,-163.55"/>
</g>
<!-- Node17 -->
<g id="node17" class="node">
<title>Node17</title>
<g id="a_node17"><a xlink:href="ref_8hpp.html" target="_top" xlink:title=" ">
<polygon fill="none" stroke="black" points="724.5,-62 724.5,-81 813.5,-81 813.5,-62 724.5,-62"/>
<text text-anchor="middle" x="769" y="-69" font-family="Helvetica,sans-Serif" font-size="10.00">yaclib/util/ref.hpp</text>
</a>
</g>
</g>
<!-- Node6&#45;&gt;Node17 -->
<g id="edge34" class="edge">
<title>Node6&#45;&gt;Node17</title>
<path fill="none" stroke="midnightblue" d="M703.58,-251.97C739.65,-237.95 805.6,-206.25 833,-154 839.4,-141.8 839.01,-135.4 833,-123 825.3,-107.12 809.92,-94.73 796.17,-86.2"/>
<polygon fill="midnightblue" stroke="midnightblue" points="797.87,-83.14 787.46,-81.15 794.35,-89.19 797.87,-83.14"/>
</g>
<!-- Node7&#45;&gt;Node3 -->
<g id="edge10" class="edge">
<title>Node7&#45;&gt;Node3</title>
<path fill="none" stroke="midnightblue" d="M617.52,-123.12C610.83,-113.34 602.42,-99.9 597,-87 589.11,-68.23 583.96,-45.43 581.03,-29.73"/>
<polygon fill="midnightblue" stroke="midnightblue" points="584.45,-28.96 579.29,-19.71 577.55,-30.16 584.45,-28.96"/>
</g>
<!-- Node7&#45;&gt;Node8 -->
<g id="edge11" class="edge">
<title>Node7&#45;&gt;Node8</title>
<path fill="none" stroke="midnightblue" d="M629.95,-123.4C631.26,-113.96 632.99,-101.45 634.41,-91.19"/>
<polygon fill="midnightblue" stroke="midnightblue" points="637.89,-91.58 635.8,-81.19 630.96,-90.62 637.89,-91.58"/>
</g>
<!-- Node7&#45;&gt;Node9 -->
<g id="edge12" class="edge">
<title>Node7&#45;&gt;Node9</title>
<path fill="none" stroke="midnightblue" d="M606.74,-123.4C590.3,-112.5 567.66,-97.48 551.23,-86.58"/>
<polygon fill="midnightblue" stroke="midnightblue" points="553.09,-83.62 542.83,-81.01 549.22,-89.45 553.09,-83.62"/>
</g>
<!-- Node10&#45;&gt;Node3 -->
<g id="edge14" class="edge">
<title>Node10&#45;&gt;Node3</title>
<path fill="none" stroke="midnightblue" d="M444.65,-190.49C449.48,-181.53 457.13,-166.95 463,-154 482.36,-111.3 471.53,-91.63 502,-56 513.97,-42.01 531.43,-31.24 546.6,-23.75"/>
<polygon fill="midnightblue" stroke="midnightblue" points="548.1,-26.91 555.68,-19.51 545.13,-20.57 548.1,-26.91"/>
</g>
<!-- Node11 -->
<g id="node11" class="node">
<title>Node11</title>
<g id="a_node11"><a xlink:href="atomic_8hpp.html" target="_top" xlink:title=" ">
<polygon fill="none" stroke="black" points="104.5,-62 104.5,-81 217.5,-81 217.5,-62 104.5,-62"/>
<text text-anchor="middle" x="161" y="-69" font-family="Helvetica,sans-Serif" font-size="10.00">yaclib/fault/atomic.hpp</text>
</a>
</g>
</g>
<!-- Node10&#45;&gt;Node11 -->
<g id="edge15" class="edge">
<title>Node10&#45;&gt;Node11</title>
<path fill="none" stroke="midnightblue" d="M420.82,-190.31C372.63,-168.45 246.22,-111.14 189.39,-85.37"/>
<polygon fill="midnightblue" stroke="midnightblue" points="190.49,-82.03 179.94,-81.09 187.6,-88.41 190.49,-82.03"/>
</g>
<!-- Node15 -->
<g id="node15" class="node">
<title>Node15</title>
<g id="a_node15"><a xlink:href="atomic__counter_8hpp.html" target="_top" xlink:title=" ">
<polygon fill="none" stroke="black" points="350,-123.5 350,-153.5 454,-153.5 454,-123.5 350,-123.5"/>
<text text-anchor="start" x="358" y="-141.5" font-family="Helvetica,sans-Serif" font-size="10.00">yaclib/util/detail</text>
<text text-anchor="middle" x="402" y="-130.5" font-family="Helvetica,sans-Serif" font-size="10.00">/atomic_counter.hpp</text>
</a>
</g>
</g>
<!-- Node10&#45;&gt;Node15 -->
<g id="edge20" class="edge">
<title>Node10&#45;&gt;Node15</title>
<path fill="none" stroke="midnightblue" d="M434.56,-190.48C429.84,-183.09 422.81,-172.08 416.48,-162.17"/>
<polygon fill="midnightblue" stroke="midnightblue" points="419.29,-160.07 410.96,-153.52 413.39,-163.83 419.29,-160.07"/>
</g>
<!-- Node10&#45;&gt;Node16 -->
<g id="edge25" class="edge">
<title>Node10&#45;&gt;Node16</title>
<path fill="none" stroke="midnightblue" d="M488,-190.48C548.19,-179.78 651.34,-161.46 716.21,-149.94"/>
<polygon fill="midnightblue" stroke="midnightblue" points="717.04,-153.35 726.28,-148.15 715.82,-146.46 717.04,-153.35"/>
</g>
<!-- Node11&#45;&gt;Node3 -->
<g id="edge16" class="edge">
<title>Node11&#45;&gt;Node3</title>
<path fill="none" stroke="midnightblue" d="M200.34,-61.94C210.62,-59.85 221.7,-57.72 232,-56 334.72,-38.85 455.52,-24.44 523.79,-16.82"/>
<polygon fill="midnightblue" stroke="midnightblue" points="524.33,-20.29 533.88,-15.71 523.56,-13.33 524.33,-20.29"/>
</g>
<!-- Node11&#45;&gt;Node12 -->
<g id="edge17" class="edge">
<title>Node11&#45;&gt;Node12</title>
<path fill="none" stroke="midnightblue" d="M146.1,-61.98C129.03,-52.21 100.84,-36.08 80.74,-24.58"/>
<polygon fill="midnightblue" stroke="midnightblue" points="82.29,-21.44 71.87,-19.51 78.81,-27.51 82.29,-21.44"/>
</g>
<!-- Node13 -->
<g id="node13" class="node">
<title>Node13</title>
<g id="a_node13"><a xlink:title=" ">
<polygon fill="none" stroke="#bfbfbf" points="183,-0.5 183,-19.5 229,-19.5 229,-0.5 183,-0.5"/>
<text text-anchor="middle" x="206" y="-7.5" font-family="Helvetica,sans-Serif" font-size="10.00">cstdint</text>
</a>
</g>
</g>
<!-- Node11&#45;&gt;Node13 -->
<g id="edge18" class="edge">
<title>Node11&#45;&gt;Node13</title>
<path fill="none" stroke="midnightblue" d="M167.45,-61.98C174.2,-53.05 184.97,-38.81 193.41,-27.64"/>
<polygon fill="midnightblue" stroke="midnightblue" points="196.32,-29.6 199.56,-19.51 190.74,-25.37 196.32,-29.6"/>
</g>
<!-- Node14 -->
<g id="node14" class="node">
<title>Node14</title>
<g id="a_node14"><a xlink:title=" ">
<polygon fill="none" stroke="#bfbfbf" points="119,-0.5 119,-19.5 165,-19.5 165,-0.5 119,-0.5"/>
<text text-anchor="middle" x="142" y="-7.5" font-family="Helvetica,sans-Serif" font-size="10.00">atomic</text>
</a>
</g>
</g>
<!-- Node11&#45;&gt;Node14 -->
<g id="edge19" class="edge">
<title>Node11&#45;&gt;Node14</title>
<path fill="none" stroke="midnightblue" d="M158.28,-61.98C155.57,-53.49 151.33,-40.2 147.85,-29.32"/>
<polygon fill="midnightblue" stroke="midnightblue" points="151.09,-27.97 144.72,-19.51 144.43,-30.1 151.09,-27.97"/>
</g>
<!-- Node15&#45;&gt;Node3 -->
<g id="edge21" class="edge">
<title>Node15&#45;&gt;Node3</title>
<path fill="none" stroke="midnightblue" d="M410.34,-123.28C421.47,-105.4 442.72,-74.79 468,-56 488.25,-40.95 514.25,-30.01 535.89,-22.69"/>
<polygon fill="midnightblue" stroke="midnightblue" points="537.05,-25.99 545.49,-19.58 534.89,-19.33 537.05,-25.99"/>
</g>
<!-- Node15&#45;&gt;Node9 -->
<g id="edge24" class="edge">
<title>Node15&#45;&gt;Node9</title>
<path fill="none" stroke="midnightblue" d="M429.77,-123.4C451.94,-112.14 482.74,-96.5 504.33,-85.54"/>
<polygon fill="midnightblue" stroke="midnightblue" points="505.92,-88.66 513.25,-81.01 502.75,-82.41 505.92,-88.66"/>
</g>
<!-- Node15&#45;&gt;Node11 -->
<g id="edge22" class="edge">
<title>Node15&#45;&gt;Node11</title>
<path fill="none" stroke="midnightblue" d="M350,-123.48C305.87,-111.57 243.37,-94.72 202.52,-83.7"/>
<polygon fill="midnightblue" stroke="midnightblue" points="203.19,-80.25 192.62,-81.03 201.37,-87.01 203.19,-80.25"/>
</g>
<!-- Node15&#45;&gt;Node12 -->
<g id="edge23" class="edge">
<title>Node15&#45;&gt;Node12</title>
<path fill="none" stroke="midnightblue" d="M349.79,-134.59C273.04,-129.38 134.57,-116.16 95,-87 76.12,-73.09 66.03,-47.14 61.1,-29.47"/>
<polygon fill="midnightblue" stroke="midnightblue" points="64.48,-28.58 58.66,-19.72 57.69,-30.27 64.48,-28.58"/>
</g>
<!-- Node16&#45;&gt;Node3 -->
<g id="edge26" class="edge">
<title>Node16&#45;&gt;Node3</title>
<path fill="none" stroke="midnightblue" d="M758.57,-123.43C732.99,-101.58 685.67,-61.44 677,-56 656.07,-42.87 630.66,-31.4 610.83,-23.33"/>
<polygon fill="midnightblue" stroke="midnightblue" points="611.88,-19.98 601.3,-19.54 609.29,-26.49 611.88,-19.98"/>
</g>
<!-- Node16&#45;&gt;Node8 -->
<g id="edge29" class="edge">
<title>Node16&#45;&gt;Node8</title>
<path fill="none" stroke="midnightblue" d="M745.06,-123.4C721.06,-112.09 687.66,-96.36 664.37,-85.39"/>
<polygon fill="midnightblue" stroke="midnightblue" points="665.6,-82.1 655.06,-81.01 662.62,-88.43 665.6,-82.1"/>
</g>
<!-- Node16&#45;&gt;Node17 -->
<g id="edge27" class="edge">
<title>Node16&#45;&gt;Node17</title>
<path fill="none" stroke="midnightblue" d="M773.7,-123.4C772.83,-113.96 771.67,-101.45 770.73,-91.19"/>
<polygon fill="midnightblue" stroke="midnightblue" points="774.21,-90.83 769.8,-81.19 767.24,-91.47 774.21,-90.83"/>
</g>
<!-- Node18 -->
<g id="node18" class="node">
<title>Node18</title>
<g id="a_node18"><a xlink:href="intrusive__ptr__impl_8hpp.html" target="_top" xlink:title=" ">
<polygon fill="none" stroke="black" points="870,-56.5 870,-86.5 984,-86.5 984,-56.5 870,-56.5"/>
<text text-anchor="start" x="878" y="-74.5" font-family="Helvetica,sans-Serif" font-size="10.00">yaclib/util/detail</text>
<text text-anchor="middle" x="927" y="-63.5" font-family="Helvetica,sans-Serif" font-size="10.00">/intrusive_ptr_impl.hpp</text>
</a>
</g>
</g>
<!-- Node16&#45;&gt;Node18 -->
<g id="edge30" class="edge">
<title>Node16&#45;&gt;Node18</title>
<path fill="none" stroke="midnightblue" d="M807.98,-123.4C830.49,-113.77 860.5,-100.94 884.76,-90.56"/>
<polygon fill="midnightblue" stroke="midnightblue" points="886.26,-93.73 894.08,-86.58 883.51,-87.29 886.26,-93.73"/>
</g>
<!-- Node17&#45;&gt;Node3 -->
<g id="edge28" class="edge">
<title>Node17&#45;&gt;Node3</title>
<path fill="none" stroke="midnightblue" d="M741.63,-61.98C708.45,-51.64 652.35,-34.16 615.24,-22.6"/>
<polygon fill="midnightblue" stroke="midnightblue" points="615.9,-19.14 605.31,-19.51 613.82,-25.82 615.9,-19.14"/>
</g>
<!-- Node18&#45;&gt;Node3 -->
<g id="edge31" class="edge">
<title>Node18&#45;&gt;Node3</title>
<path fill="none" stroke="midnightblue" d="M869.69,-58.59C865.06,-57.69 860.46,-56.82 856,-56 778.58,-41.83 688.6,-27.69 632.47,-19.14"/>
<polygon fill="midnightblue" stroke="midnightblue" points="632.8,-15.65 622.39,-17.61 631.75,-22.57 632.8,-15.65"/>
</g>
<!-- Node19 -->
<g id="node19" class="node">
<title>Node19</title>
<g id="a_node19"><a xlink:title=" ">
<polygon fill="none" stroke="#bfbfbf" points="902.5,-0.5 902.5,-19.5 951.5,-19.5 951.5,-0.5 902.5,-0.5"/>
<text text-anchor="middle" x="927" y="-7.5" font-family="Helvetica,sans-Serif" font-size="10.00">cassert</text>
</a>
</g>
</g>
<!-- Node18&#45;&gt;Node19 -->
<g id="edge32" class="edge">
<title>Node18&#45;&gt;Node19</title>
<path fill="none" stroke="midnightblue" d="M927,-56.4C927,-48.47 927,-38.46 927,-29.86"/>
<polygon fill="midnightblue" stroke="midnightblue" points="930.5,-29.66 927,-19.66 923.5,-29.66 930.5,-29.66"/>
</g>
<!-- Node20&#45;&gt;Node3 -->
<g id="edge38" class="edge">
<title>Node20&#45;&gt;Node3</title>
<path fill="none" stroke="midnightblue" d="M268.66,-369.45C274.18,-347.02 284,-301.63 284,-262.5 284,-262.5 284,-262.5 284,-137.5 284,-34.28 438.79,-14.25 523.74,-11.03"/>
<polygon fill="midnightblue" stroke="midnightblue" points="524.1,-14.52 533.99,-10.71 523.88,-7.53 524.1,-14.52"/>
</g>
<!-- Node20&#45;&gt;Node4 -->
<g id="edge39" class="edge">
<title>Node20&#45;&gt;Node4</title>
<path fill="none" stroke="midnightblue" d="M290.59,-369.4C308.07,-359.77 331.09,-347.09 348.36,-337.58"/>
<polygon fill="midnightblue" stroke="midnightblue" points="350.22,-340.55 357.29,-332.66 346.84,-334.42 350.22,-340.55"/>
</g>
<!-- Node20&#45;&gt;Node5 -->
<g id="edge40" class="edge">
<title>Node20&#45;&gt;Node5</title>
<path fill="none" stroke="midnightblue" d="M258.95,-369.14C250.32,-348.68 234.38,-310.86 223.99,-286.2"/>
<polygon fill="midnightblue" stroke="midnightblue" points="227.15,-284.69 220.04,-276.84 220.7,-287.41 227.15,-284.69"/>
</g>
<!-- Node20&#45;&gt;Node12 -->
<g id="edge41" class="edge">
<title>Node20&#45;&gt;Node12</title>
<path fill="none" stroke="midnightblue" d="M209.31,-371.68C185.99,-364.16 160.33,-352.09 143,-333 61.29,-243 55.77,-83.86 56.42,-29.67"/>
<polygon fill="midnightblue" stroke="midnightblue" points="59.92,-29.58 56.64,-19.51 52.93,-29.43 59.92,-29.58"/>
</g>
<!-- Node21 -->
<g id="node21" class="node">
<title>Node21</title>
<g id="a_node21"><a xlink:title=" ">
<polygon fill="none" stroke="#bfbfbf" points="152,-313.5 152,-332.5 218,-332.5 218,-313.5 152,-313.5"/>
<text text-anchor="middle" x="185" y="-320.5" font-family="Helvetica,sans-Serif" font-size="10.00">string_view</text>
</a>
</g>
</g>
<!-- Node20&#45;&gt;Node21 -->
<g id="edge42" class="edge">
<title>Node20&#45;&gt;Node21</title>
<path fill="none" stroke="midnightblue" d="M246.04,-369.4C233.58,-360.13 217.3,-348.03 204.69,-338.65"/>
<polygon fill="midnightblue" stroke="midnightblue" points="206.75,-335.82 196.64,-332.66 202.58,-341.43 206.75,-335.82"/>
</g>
</g>
</svg>
        <g id="navigator" transform="translate(0 0)" fill="#404254">
                <rect fill="#f2f5e9" fill-opacity="0.5" stroke="#606060" stroke-width=".5" x="0" y="0" width="60" height="60"/>
                <use id="zoomplus" xlink:href="#zoomPlus" x="17" y="9" onmousedown="handleZoom(evt,'in')"/>
                <use id="zoomminus" xlink:href="#zoomMin" x="42" y="9" onmousedown="handleZoom(evt,'out')"/>
                <use id="reset" xlink:href="#resetDef" x="30" y="36" onmousedown="handleReset()"/>
                <g id="arrowUp" xlink:href="#dirArrow" transform="translate(30 24)" onmousedown="handlePan(0,-1)">
                  <use xlink:href="#rim" fill="#404040">
                        <set attributeName="fill" to="#808080" begin="arrowUp.mouseover" end="arrowUp.mouseout"/>
                  </use>
                  <path fill="none" stroke="white" stroke-width="1.5" d="M0,-3.0v7 M-2.5,-0.5L0,-3.0L2.5,-0.5"/>
                </g>
                <g id="arrowRight" xlink:href="#dirArrow" transform="rotate(90) translate(36 -43)" onmousedown="handlePan(1,0)">
                  <use xlink:href="#rim" fill="#404040">
                        <set attributeName="fill" to="#808080" begin="arrowRight.mouseover" end="arrowRight.mouseout"/>
                  </use>
                  <path fill="none" stroke="white" stroke-width="1.5" d="M0,-3.0v7 M-2.5,-0.5L0,-3.0L2.5,-0.5"/>
                </g>
                <g id="arrowDown" xlink:href="#dirArrow" transform="rotate(180) translate(-30 -48)" onmousedown="handlePan(0,1)">
                  <use xlink:href="#rim" fill="#404040">
                        <set attributeName="fill" to="#808080" begin="arrowDown.mouseover" end="arrowDown.mouseout"/>
                  </use>
                  <path fill="none" stroke="white" stroke-width="1.5" d="M0,-3.0v7 M-2.5,-0.5L0,-3.0L2.5,-0.5"/>
                </g>
                <g id="arrowLeft" xlink:href="#dirArrow" transform="rotate(270) translate(-36 17)" onmousedown="handlePan(-1,0)">
                  <use xlink:href="#rim" fill="#404040">
                        <set attributeName="fill" to="#808080" begin="arrowLeft.mouseover" end="arrowLeft.mouseout"/>
                  </use>
                  <path fill="none" stroke="white" stroke-width="1.5" d="M0,-3.0v7 M-2.5,-0.5L0,-3.0L2.5,-0.5"/>
                </g>
        </g>
        <svg viewBox="0 0 15 15" width="100%" height="30px" preserveAspectRatio="xMaxYMin meet">
         <g id="arrow_out" transform="scale(0.3 0.3)">
          <a xlink:href="intrusive__list_8cpp__incl_org.svg" target="_base">
           <rect id="button" ry="5" rx="5" y="6" x="6" height="38" width="38"
                fill="#f2f5e9" fill-opacity="0.5" stroke="#606060" stroke-width="1.0"/>
           <path id="arrow"
             d="M 11.500037,31.436501 C 11.940474,20.09759 22.043105,11.32322 32.158766,21.979434 L 37.068811,17.246167 C 37.068811,17.246167 37.088388,32 37.088388,32 L 22.160133,31.978069 C 22.160133,31.978069 26.997745,27.140456 26.997745,27.140456 C 18.528582,18.264221 13.291696,25.230495 11.500037,31.436501 z"
             style="fill:#404040;"/>
          </a>
         </g>
        </svg>
</svg>
