<?xml version="1.0" encoding="UTF-8" standalone="no"?>
<!DOCTYPE svg PUBLIC "-//W3C//DTD SVG 1.1//EN"
 "http://www.w3.org/Graphics/SVG/1.1/DTD/svg11.dtd">
<!-- Generated by graphviz version 2.50.0 (20220203.2022)
 -->
<!-- Title: src/util/intrusive_list.hpp Pages: 1 -->
<!--zoomable 475 -->
<svg id="main" version="1.1" xmlns="http://www.w3.org/2000/svg" xmlns:xlink="http://www.w3.org/1999/xlink" xml:space="preserve" onload="init(evt)">
<style type="text/css"><![CDATA[
.edge:hover path { stroke: red; }
.edge:hover polygon { stroke: red; fill: red; }
]]></style>
<script type="text/javascript"><![CDATA[
var edges = document.getElementsByTagName('g');
if (edges && edges.length) {
  for (var i=0;i<edges.length;i++) {
    if (edges[i].id.substr(0,4)=='edge') {
      edges[i].setAttribute('class','edge');
    }
  }
}
]]></script>
        <defs>
                <circle id="rim" cx="0" cy="0" r="7"/>
                <circle id="rim2" cx="0" cy="0" r="3.5"/>
                <g id="zoomPlus">
                        <use xlink:href="#rim" fill="#404040">
                                <set attributeName="fill" to="#808080" begin="zoomplus.mouseover" end="zoomplus.mouseout"/>
                        </use>
                        <path d="M-4,0h8M0,-4v8" fill="none" stroke="white" stroke-width="1.5" pointer-events="none"/>
                </g>
                <g id="zoomMin">
                        <use xlink:href="#rim" fill="#404040">
                                <set attributeName="fill" to="#808080" begin="zoomminus.mouseover" end="zoomminus.mouseout"/>
                        </use>
                        <path d="M-4,0h8" fill="none" stroke="white" stroke-width="1.5" pointer-events="none"/>
                </g>
                <g id="dirArrow">
                        <path fill="none" stroke="white" stroke-width="1.5" d="M0,-3.0v7 M-2.5,-0.5L0,-3.0L2.5,-0.5"/>
                </g>
               <g id="resetDef">
                       <use xlink:href="#rim2" fill="#404040">
                               <set attributeName="fill" to="#808080" begin="reset.mouseover" end="reset.mouseout"/>
                       </use>
               </g>
        </defs>

<script type="text/javascript">
var viewWidth = 946;
var viewHeight = 475;
var sectionId = 'dynsection-0';
</script>
<script xlink:href="svgpan.js"/>
<svg id="graph" class="graph">
<g id="viewport">
<title>src/util/intrusive_list.hpp</title>
<!-- Node1 -->
<g id="node1" class="node">
<title>Node1</title>
<g id="a_node1"><a xlink:title=" ">
<polygon fill="#bfbfbf" stroke="black" points="202,-436.5 202,-466.5 288,-466.5 288,-436.5 202,-436.5"/>
<text text-anchor="start" x="210" y="-454.5" font-family="Helvetica,sans-Serif" font-size="10.00">src/util/intrusive</text>
<text text-anchor="middle" x="245" y="-443.5" font-family="Helvetica,sans-Serif" font-size="10.00">_list.hpp</text>
</a>
</g>
</g>
<!-- Node2 -->
<g id="node2" class="node">
<title>Node2</title>
<g id="a_node2"><a xlink:title=" ">
<polygon fill="none" stroke="#bfbfbf" points="416,-0.5 416,-19.5 504,-19.5 504,-0.5 416,-0.5"/>
<text text-anchor="middle" x="460" y="-7.5" font-family="Helvetica,sans-Serif" font-size="10.00">yaclib/config.hpp</text>
</a>
</g>
</g>
<!-- Node1&#45;&gt;Node2 -->
<g id="edge1" class="edge">
<title>Node1&#45;&gt;Node2</title>
<path fill="none" stroke="midnightblue" d="M201.76,-447.45C131.43,-439.89 0,-413.76 0,-324 0,-324 0,-324 0,-137.5 0,-96.95 7.57,-78.94 41,-56 105.95,-11.43 310.47,-29.41 405.57,-19.93"/>
<polygon fill="midnightblue" stroke="midnightblue" points="406.26,-23.38 415.79,-18.75 405.45,-16.42 406.26,-23.38"/>
</g>
<!-- Node3 -->
<g id="node3" class="node">
<title>Node3</title>
<g id="a_node3"><a xlink:href="task_8hpp.html" target="_top" xlink:title=" ">
<polygon fill="none" stroke="black" points="184.5,-313.5 184.5,-332.5 305.5,-332.5 305.5,-313.5 184.5,-313.5"/>
<text text-anchor="middle" x="245" y="-320.5" font-family="Helvetica,sans-Serif" font-size="10.00">yaclib/executor/task.hpp</text>
</a>
</g>
</g>
<!-- Node1&#45;&gt;Node3 -->
<g id="edge2" class="edge">
<title>Node1&#45;&gt;Node3</title>
<path fill="none" stroke="midnightblue" d="M245,-436.48C245,-413.72 245,-368.7 245,-343.06"/>
<polygon fill="midnightblue" stroke="midnightblue" points="248.5,-342.79 245,-332.79 241.5,-342.79 248.5,-342.79"/>
</g>
<!-- Node4 -->
<g id="node4" class="node">
<title>Node4</title>
<g id="a_node4"><a xlink:href="node_8hpp.html" target="_top" xlink:title=" ">
<polygon fill="none" stroke="black" points="28.5,-246.5 28.5,-276.5 111.5,-276.5 111.5,-246.5 28.5,-246.5"/>
<text text-anchor="start" x="36.5" y="-264.5" font-family="Helvetica,sans-Serif" font-size="10.00">yaclib/util/detail</text>
<text text-anchor="middle" x="70" y="-253.5" font-family="Helvetica,sans-Serif" font-size="10.00">/node.hpp</text>
</a>
</g>
</g>
<!-- Node1&#45;&gt;Node4 -->
<g id="edge42" class="edge">
<title>Node1&#45;&gt;Node4</title>
<path fill="none" stroke="midnightblue" d="M231.58,-436.48C210.62,-414.53 168.89,-370.68 134,-333 118.98,-316.78 102.18,-298.26 89.57,-284.28"/>
<polygon fill="midnightblue" stroke="midnightblue" points="91.96,-281.71 82.67,-276.62 86.76,-286.39 91.96,-281.71"/>
</g>
<!-- Node11 -->
<g id="node11" class="node">
<title>Node11</title>
<g id="a_node11"><a xlink:title=" ">
<polygon fill="none" stroke="#bfbfbf" points="846.5,-0.5 846.5,-19.5 895.5,-19.5 895.5,-0.5 846.5,-0.5"/>
<text text-anchor="middle" x="871" y="-7.5" font-family="Helvetica,sans-Serif" font-size="10.00">cstddef</text>
</a>
</g>
</g>
<!-- Node1&#45;&gt;Node11 -->
<g id="edge43" class="edge">
<title>Node1&#45;&gt;Node11</title>
<path fill="none" stroke="midnightblue" d="M288.09,-447.23C439.49,-435.16 938,-390.39 938,-324 938,-324 938,-324 938,-137.5 938,-93.65 906.17,-50.15 886.39,-27.35"/>
<polygon fill="midnightblue" stroke="midnightblue" points="888.77,-24.77 879.49,-19.67 883.56,-29.44 888.77,-24.77"/>
</g>
<!-- Node19 -->
<g id="node19" class="node">
<title>Node19</title>
<g id="a_node19"><a xlink:href="thread__factory_8hpp.html" target="_top" xlink:title=" ">
<polygon fill="none" stroke="black" points="450.5,-369.5 450.5,-399.5 561.5,-399.5 561.5,-369.5 450.5,-369.5"/>
<text text-anchor="start" x="458.5" y="-387.5" font-family="Helvetica,sans-Serif" font-size="10.00">yaclib/executor/thread</text>
<text text-anchor="middle" x="506" y="-376.5" font-family="Helvetica,sans-Serif" font-size="10.00">_factory.hpp</text>
</a>
</g>
</g>
<!-- Node1&#45;&gt;Node19 -->
<g id="edge36" class="edge">
<title>Node1&#45;&gt;Node19</title>
<path fill="none" stroke="midnightblue" d="M288.1,-439.77C329.46,-429.47 392.51,-413.77 440.16,-401.9"/>
<polygon fill="midnightblue" stroke="midnightblue" points="441.22,-405.24 450.08,-399.43 439.53,-398.45 441.22,-405.24"/>
</g>
<!-- Node3&#45;&gt;Node2 -->
<g id="edge3" class="edge">
<title>Node3&#45;&gt;Node2</title>
<path fill="none" stroke="midnightblue" d="M236,-313.47C199.2,-277.64 65.62,-137.34 140,-56 178.51,-13.89 332.4,-27.54 405.58,-19.91"/>
<polygon fill="midnightblue" stroke="midnightblue" points="406.29,-23.35 415.77,-18.63 405.41,-16.41 406.29,-23.35"/>
</g>
<!-- Node3&#45;&gt;Node4 -->
<g id="edge4" class="edge">
<title>Node3&#45;&gt;Node4</title>
<path fill="none" stroke="midnightblue" d="M219.93,-313.48C194.23,-304.74 153.55,-290.91 121.04,-279.86"/>
<polygon fill="midnightblue" stroke="midnightblue" points="121.84,-276.43 111.24,-276.52 119.59,-283.06 121.84,-276.43"/>
</g>
<!-- Node5 -->
<g id="node5" class="node">
<title>Node5</title>
<g id="a_node5"><a xlink:href="func_8hpp.html" target="_top" xlink:title=" ">
<polygon fill="none" stroke="black" points="227.5,-252 227.5,-271 324.5,-271 324.5,-252 227.5,-252"/>
<text text-anchor="middle" x="276" y="-259" font-family="Helvetica,sans-Serif" font-size="10.00">yaclib/util/func.hpp</text>
</a>
</g>
</g>
<!-- Node3&#45;&gt;Node5 -->
<g id="edge6" class="edge">
<title>Node3&#45;&gt;Node5</title>
<path fill="none" stroke="midnightblue" d="M249.44,-313.48C253.95,-304.82 261.07,-291.15 266.81,-280.15"/>
<polygon fill="midnightblue" stroke="midnightblue" points="270.05,-281.49 271.57,-271.01 263.84,-278.26 270.05,-281.49"/>
</g>
<!-- Node4&#45;&gt;Node2 -->
<g id="edge5" class="edge">
<title>Node4&#45;&gt;Node2</title>
<path fill="none" stroke="midnightblue" d="M63.6,-246.37C48.04,-209.66 13,-110.37 62,-56 111.69,-0.86 314.75,-28.23 405.78,-19.86"/>
<polygon fill="midnightblue" stroke="midnightblue" points="406.24,-23.33 415.79,-18.73 405.46,-16.37 406.24,-23.33"/>
</g>
<!-- Node5&#45;&gt;Node2 -->
<g id="edge7" class="edge">
<title>Node5&#45;&gt;Node2</title>
<path fill="none" stroke="midnightblue" d="M254.16,-251.86C235.54,-243.54 209.15,-229.36 192,-210 145.78,-157.79 116.42,-108.77 162,-56 196.15,-16.47 337.24,-27.3 405.47,-19.94"/>
<polygon fill="midnightblue" stroke="midnightblue" points="406.31,-23.36 415.77,-18.59 405.4,-16.42 406.31,-23.36"/>
</g>
<!-- Node6 -->
<g id="node6" class="node">
<title>Node6</title>
<g id="a_node6"><a xlink:href="safe__call_8hpp.html" target="_top" xlink:title=" ">
<polygon fill="none" stroke="black" points="183.5,-123.5 183.5,-153.5 266.5,-153.5 266.5,-123.5 183.5,-123.5"/>
<text text-anchor="start" x="191.5" y="-141.5" font-family="Helvetica,sans-Serif" font-size="10.00">yaclib/util/detail</text>
<text text-anchor="middle" x="225" y="-130.5" font-family="Helvetica,sans-Serif" font-size="10.00">/safe_call.hpp</text>
</a>
</g>
</g>
<!-- Node5&#45;&gt;Node6 -->
<g id="edge8" class="edge">
<title>Node5&#45;&gt;Node6</title>
<path fill="none" stroke="midnightblue" d="M272.33,-251.8C264.6,-233.44 246.38,-190.22 234.94,-163.07"/>
<polygon fill="midnightblue" stroke="midnightblue" points="238.03,-161.39 230.92,-153.54 231.58,-164.11 238.03,-161.39"/>
</g>
<!-- Node7 -->
<g id="node7" class="node">
<title>Node7</title>
<g id="a_node7"><a xlink:title=" ">
<polygon fill="none" stroke="#bfbfbf" points="180,-62 180,-81 242,-81 242,-62 180,-62"/>
<text text-anchor="middle" x="211" y="-69" font-family="Helvetica,sans-Serif" font-size="10.00">type_traits</text>
</a>
</g>
</g>
<!-- Node5&#45;&gt;Node7 -->
<g id="edge34" class="edge">
<title>Node5&#45;&gt;Node7</title>
<path fill="none" stroke="midnightblue" d="M262.77,-251.91C239.53,-235.94 192.13,-199.14 174,-154 168.87,-141.21 169.72,-136.09 174,-123 178.19,-110.19 187.01,-97.94 194.98,-88.71"/>
<polygon fill="midnightblue" stroke="midnightblue" points="197.73,-90.89 201.91,-81.16 192.57,-86.16 197.73,-90.89"/>
</g>
<!-- Node8 -->
<g id="node8" class="node">
<title>Node8</title>
<g id="a_node8"><a xlink:title=" ">
<polygon fill="none" stroke="#bfbfbf" points="260.5,-62 260.5,-81 299.5,-81 299.5,-62 260.5,-62"/>
<text text-anchor="middle" x="280" y="-69" font-family="Helvetica,sans-Serif" font-size="10.00">utility</text>
</a>
</g>
</g>
<!-- Node5&#45;&gt;Node8 -->
<g id="edge35" class="edge">
<title>Node5&#45;&gt;Node8</title>
<path fill="none" stroke="midnightblue" d="M276.18,-251.93C276.79,-223.43 278.75,-131.32 279.6,-91.33"/>
<polygon fill="midnightblue" stroke="midnightblue" points="283.1,-91.19 279.82,-81.12 276.1,-91.04 283.1,-91.19"/>
</g>
<!-- Node9 -->
<g id="node9" class="node">
<title>Node9</title>
<g id="a_node9"><a xlink:href="helper_8hpp.html" target="_top" xlink:title=" ">
<polygon fill="none" stroke="black" points="496,-190.5 496,-209.5 600,-209.5 600,-190.5 496,-190.5"/>
<text text-anchor="middle" x="548" y="-197.5" font-family="Helvetica,sans-Serif" font-size="10.00">yaclib/util/helper.hpp</text>
</a>
</g>
</g>
<!-- Node5&#45;&gt;Node9 -->
<g id="edge12" class="edge">
<title>Node5&#45;&gt;Node9</title>
<path fill="none" stroke="midnightblue" d="M314.97,-251.98C363.55,-241.35 446.58,-223.18 499.3,-211.65"/>
<polygon fill="midnightblue" stroke="midnightblue" points="500.08,-215.07 509.1,-209.51 498.58,-208.23 500.08,-215.07"/>
</g>
<!-- Node15 -->
<g id="node15" class="node">
<title>Node15</title>
<g id="a_node15"><a xlink:href="intrusive__ptr_8hpp.html" target="_top" xlink:title=" ">
<polygon fill="none" stroke="black" points="330.5,-123.5 330.5,-153.5 427.5,-153.5 427.5,-123.5 330.5,-123.5"/>
<text text-anchor="start" x="338.5" y="-141.5" font-family="Helvetica,sans-Serif" font-size="10.00">yaclib/util/intrusive</text>
<text text-anchor="middle" x="379" y="-130.5" font-family="Helvetica,sans-Serif" font-size="10.00">_ptr.hpp</text>
</a>
</g>
</g>
<!-- Node5&#45;&gt;Node15 -->
<g id="edge32" class="edge">
<title>Node5&#45;&gt;Node15</title>
<path fill="none" stroke="midnightblue" d="M283.41,-251.8C299.38,-233.04 337.45,-188.31 360.44,-161.3"/>
<polygon fill="midnightblue" stroke="midnightblue" points="363.23,-163.42 367.05,-153.54 357.9,-158.89 363.23,-163.42"/>
</g>
<!-- Node16 -->
<g id="node16" class="node">
<title>Node16</title>
<g id="a_node16"><a xlink:href="ref_8hpp.html" target="_top" xlink:title=" ">
<polygon fill="none" stroke="black" points="488.5,-62 488.5,-81 577.5,-81 577.5,-62 488.5,-62"/>
<text text-anchor="middle" x="533" y="-69" font-family="Helvetica,sans-Serif" font-size="10.00">yaclib/util/ref.hpp</text>
</a>
</g>
</g>
<!-- Node5&#45;&gt;Node16 -->
<g id="edge33" class="edge">
<title>Node5&#45;&gt;Node16</title>
<path fill="none" stroke="midnightblue" d="M290.05,-251.89C318.35,-234.39 383.93,-193.02 436,-154 464.98,-132.29 496.8,-104.79 515.83,-87.94"/>
<polygon fill="midnightblue" stroke="midnightblue" points="518.24,-90.47 523.38,-81.2 513.59,-85.24 518.24,-90.47"/>
</g>
<!-- Node6&#45;&gt;Node2 -->
<g id="edge9" class="edge">
<title>Node6&#45;&gt;Node2</title>
<path fill="none" stroke="midnightblue" d="M204.45,-123.5C182.18,-106.65 152.2,-77.89 171,-56 203.81,-17.8 339.78,-27.29 405.8,-19.91"/>
<polygon fill="midnightblue" stroke="midnightblue" points="406.32,-23.37 415.76,-18.57 405.39,-16.43 406.32,-23.37"/>
</g>
<!-- Node6&#45;&gt;Node7 -->
<g id="edge10" class="edge">
<title>Node6&#45;&gt;Node7</title>
<path fill="none" stroke="midnightblue" d="M221.96,-123.4C219.93,-113.96 217.24,-101.45 215.03,-91.19"/>
<polygon fill="midnightblue" stroke="midnightblue" points="218.4,-90.23 212.87,-81.19 211.56,-91.71 218.4,-90.23"/>
</g>
<!-- Node6&#45;&gt;Node8 -->
<g id="edge11" class="edge">
<title>Node6&#45;&gt;Node8</title>
<path fill="none" stroke="midnightblue" d="M236.93,-123.4C245.51,-113.26 257.1,-99.57 266.09,-88.94"/>
<polygon fill="midnightblue" stroke="midnightblue" points="268.86,-91.09 272.64,-81.19 263.51,-86.57 268.86,-91.09"/>
</g>
<!-- Node9&#45;&gt;Node2 -->
<g id="edge13" class="edge">
<title>Node9&#45;&gt;Node2</title>
<path fill="none" stroke="midnightblue" d="M549.46,-190.36C552.03,-176.04 557.96,-146.63 567,-123 573.46,-106.1 581.65,-104.56 586,-87 589.31,-73.63 593.94,-67.26 586,-56 569.69,-32.85 540.33,-21.54 514.06,-16.05"/>
<polygon fill="midnightblue" stroke="midnightblue" points="514.64,-12.6 504.17,-14.22 513.37,-19.48 514.64,-12.6"/>
</g>
<!-- Node10 -->
<g id="node10" class="node">
<title>Node10</title>
<g id="a_node10"><a xlink:href="atomic_8hpp.html" target="_top" xlink:title=" ">
<polygon fill="none" stroke="black" points="710.5,-62 710.5,-81 823.5,-81 823.5,-62 710.5,-62"/>
<text text-anchor="middle" x="767" y="-69" font-family="Helvetica,sans-Serif" font-size="10.00">yaclib/fault/atomic.hpp</text>
</a>
</g>
</g>
<!-- Node9&#45;&gt;Node10 -->
<g id="edge14" class="edge">
<title>Node9&#45;&gt;Node10</title>
<path fill="none" stroke="midnightblue" d="M593.97,-190.43C622.81,-183.62 659.9,-172.17 689,-154 716.55,-136.8 741.15,-107.67 755.05,-89.3"/>
<polygon fill="midnightblue" stroke="midnightblue" points="757.87,-91.37 760.98,-81.24 752.23,-87.22 757.87,-91.37"/>
</g>
<!-- Node14 -->
<g id="node14" class="node">
<title>Node14</title>
<g id="a_node14"><a xlink:href="atomic__counter_8hpp.html" target="_top" xlink:title=" ">
<polygon fill="none" stroke="black" points="576,-123.5 576,-153.5 680,-153.5 680,-123.5 576,-123.5"/>
<text text-anchor="start" x="584" y="-141.5" font-family="Helvetica,sans-Serif" font-size="10.00">yaclib/util/detail</text>
<text text-anchor="middle" x="628" y="-130.5" font-family="Helvetica,sans-Serif" font-size="10.00">/atomic_counter.hpp</text>
</a>
</g>
</g>
<!-- Node9&#45;&gt;Node14 -->
<g id="edge19" class="edge">
<title>Node9&#45;&gt;Node14</title>
<path fill="none" stroke="midnightblue" d="M559.46,-190.48C570.2,-182.49 586.65,-170.25 600.75,-159.77"/>
<polygon fill="midnightblue" stroke="midnightblue" points="603.21,-162.3 609.15,-153.52 599.03,-156.68 603.21,-162.3"/>
</g>
<!-- Node9&#45;&gt;Node15 -->
<g id="edge24" class="edge">
<title>Node9&#45;&gt;Node15</title>
<path fill="none" stroke="midnightblue" d="M523.79,-190.48C498.97,-181.74 459.69,-167.91 428.29,-156.86"/>
<polygon fill="midnightblue" stroke="midnightblue" points="429.42,-153.54 418.83,-153.52 427.1,-160.15 429.42,-153.54"/>
</g>
<!-- Node10&#45;&gt;Node2 -->
<g id="edge15" class="edge">
<title>Node10&#45;&gt;Node2</title>
<path fill="none" stroke="midnightblue" d="M725.72,-61.97C715.98,-59.99 705.63,-57.9 696,-56 633.73,-43.71 562.1,-30.13 514.24,-21.13"/>
<polygon fill="midnightblue" stroke="midnightblue" points="514.87,-17.69 504.4,-19.29 513.58,-24.57 514.87,-17.69"/>
</g>
<!-- Node10&#45;&gt;Node11 -->
<g id="edge16" class="edge">
<title>Node10&#45;&gt;Node11</title>
<path fill="none" stroke="midnightblue" d="M781.9,-61.98C798.97,-52.21 827.16,-36.08 847.26,-24.58"/>
<polygon fill="midnightblue" stroke="midnightblue" points="849.19,-27.51 856.13,-19.51 845.71,-21.44 849.19,-27.51"/>
</g>
<!-- Node12 -->
<g id="node12" class="node">
<title>Node12</title>
<g id="a_node12"><a xlink:title=" ">
<polygon fill="none" stroke="#bfbfbf" points="773,-0.5 773,-19.5 819,-19.5 819,-0.5 773,-0.5"/>
<text text-anchor="middle" x="796" y="-7.5" font-family="Helvetica,sans-Serif" font-size="10.00">cstdint</text>
</a>
</g>
</g>
<!-- Node10&#45;&gt;Node12 -->
<g id="edge17" class="edge">
<title>Node10&#45;&gt;Node12</title>
<path fill="none" stroke="midnightblue" d="M771.15,-61.98C775.38,-53.32 782.04,-39.65 787.4,-28.65"/>
<polygon fill="midnightblue" stroke="midnightblue" points="790.62,-30.03 791.85,-19.51 784.33,-26.96 790.62,-30.03"/>
</g>
<!-- Node13 -->
<g id="node13" class="node">
<title>Node13</title>
<g id="a_node13"><a xlink:title=" ">
<polygon fill="none" stroke="#bfbfbf" points="709,-0.5 709,-19.5 755,-19.5 755,-0.5 709,-0.5"/>
<text text-anchor="middle" x="732" y="-7.5" font-family="Helvetica,sans-Serif" font-size="10.00">atomic</text>
</a>
</g>
</g>
<!-- Node10&#45;&gt;Node13 -->
<g id="edge18" class="edge">
<title>Node10&#45;&gt;Node13</title>
<path fill="none" stroke="midnightblue" d="M761.99,-61.98C756.84,-53.23 748.69,-39.37 742.18,-28.31"/>
<polygon fill="midnightblue" stroke="midnightblue" points="745.09,-26.35 737.01,-19.51 739.06,-29.9 745.09,-26.35"/>
</g>
<!-- Node14&#45;&gt;Node2 -->
<g id="edge20" class="edge">
<title>Node14&#45;&gt;Node2</title>
<path fill="none" stroke="midnightblue" d="M631,-123.3C633.89,-105.45 635.79,-74.86 620,-56 594.45,-25.5 550.01,-14.8 514.43,-11.42"/>
<polygon fill="midnightblue" stroke="midnightblue" points="514.43,-7.91 504.18,-10.62 513.88,-14.89 514.43,-7.91"/>
</g>
<!-- Node14&#45;&gt;Node8 -->
<g id="edge23" class="edge">
<title>Node14&#45;&gt;Node8</title>
<path fill="none" stroke="midnightblue" d="M575.77,-134.16C511.64,-128.94 400.17,-116.24 309,-87 307.38,-86.48 305.74,-85.88 304.1,-85.23"/>
<polygon fill="midnightblue" stroke="midnightblue" points="305.53,-82.04 294.98,-81.08 302.64,-88.41 305.53,-82.04"/>
</g>
<!-- Node14&#45;&gt;Node10 -->
<g id="edge21" class="edge">
<title>Node14&#45;&gt;Node10</title>
<path fill="none" stroke="midnightblue" d="M658.16,-123.4C682.44,-112.04 716.28,-96.22 739.75,-85.24"/>
<polygon fill="midnightblue" stroke="midnightblue" points="741.23,-88.41 748.81,-81.01 738.27,-82.07 741.23,-88.41"/>
</g>
<!-- Node14&#45;&gt;Node11 -->
<g id="edge22" class="edge">
<title>Node14&#45;&gt;Node11</title>
<path fill="none" stroke="midnightblue" d="M680.02,-136.53C724.95,-133.14 789.34,-121.9 833,-87 851.15,-72.49 861.35,-47.07 866.51,-29.65"/>
<polygon fill="midnightblue" stroke="midnightblue" points="870.01,-30.12 869.21,-19.56 863.25,-28.32 870.01,-30.12"/>
</g>
<!-- Node15&#45;&gt;Node2 -->
<g id="edge25" class="edge">
<title>Node15&#45;&gt;Node2</title>
<path fill="none" stroke="midnightblue" d="M402.85,-123.5C415.97,-114.62 431.47,-102 441,-87 452.04,-69.63 456.66,-46.25 458.6,-30.03"/>
<polygon fill="midnightblue" stroke="midnightblue" points="462.13,-29.96 459.59,-19.67 455.16,-29.29 462.13,-29.96"/>
</g>
<!-- Node15&#45;&gt;Node7 -->
<g id="edge28" class="edge">
<title>Node15&#45;&gt;Node7</title>
<path fill="none" stroke="midnightblue" d="M342.55,-123.4C312.68,-111.84 270.85,-95.66 242.44,-84.66"/>
<polygon fill="midnightblue" stroke="midnightblue" points="243.58,-81.35 232.99,-81.01 241.05,-87.88 243.58,-81.35"/>
</g>
<!-- Node15&#45;&gt;Node16 -->
<g id="edge26" class="edge">
<title>Node15&#45;&gt;Node16</title>
<path fill="none" stroke="midnightblue" d="M412.42,-123.4C439.56,-111.94 477.47,-95.94 503.5,-84.95"/>
<polygon fill="midnightblue" stroke="midnightblue" points="504.99,-88.12 512.84,-81.01 502.27,-81.67 504.99,-88.12"/>
</g>
<!-- Node17 -->
<g id="node17" class="node">
<title>Node17</title>
<g id="a_node17"><a xlink:href="intrusive__ptr__impl_8hpp.html" target="_top" xlink:title=" ">
<polygon fill="none" stroke="black" points="318,-56.5 318,-86.5 432,-86.5 432,-56.5 318,-56.5"/>
<text text-anchor="start" x="326" y="-74.5" font-family="Helvetica,sans-Serif" font-size="10.00">yaclib/util/detail</text>
<text text-anchor="middle" x="375" y="-63.5" font-family="Helvetica,sans-Serif" font-size="10.00">/intrusive_ptr_impl.hpp</text>
</a>
</g>
</g>
<!-- Node15&#45;&gt;Node17 -->
<g id="edge29" class="edge">
<title>Node15&#45;&gt;Node17</title>
<path fill="none" stroke="midnightblue" d="M378.13,-123.4C377.65,-115.56 377.04,-105.6 376.48,-96.57"/>
<polygon fill="midnightblue" stroke="midnightblue" points="379.97,-96.34 375.87,-86.58 372.99,-96.77 379.97,-96.34"/>
</g>
<!-- Node16&#45;&gt;Node2 -->
<g id="edge27" class="edge">
<title>Node16&#45;&gt;Node2</title>
<path fill="none" stroke="midnightblue" d="M522.54,-61.98C511.05,-52.61 492.37,-37.38 478.41,-26.01"/>
<polygon fill="midnightblue" stroke="midnightblue" points="480.4,-23.11 470.44,-19.51 475.98,-28.54 480.4,-23.11"/>
</g>
<!-- Node17&#45;&gt;Node2 -->
<g id="edge30" class="edge">
<title>Node17&#45;&gt;Node2</title>
<path fill="none" stroke="midnightblue" d="M395.14,-56.4C408.39,-47.13 425.68,-35.03 439.08,-25.65"/>
<polygon fill="midnightblue" stroke="midnightblue" points="441.45,-28.26 447.63,-19.66 437.43,-22.53 441.45,-28.26"/>
</g>
<!-- Node18 -->
<g id="node18" class="node">
<title>Node18</title>
<g id="a_node18"><a xlink:title=" ">
<polygon fill="none" stroke="#bfbfbf" points="349.5,-0.5 349.5,-19.5 398.5,-19.5 398.5,-0.5 349.5,-0.5"/>
<text text-anchor="middle" x="374" y="-7.5" font-family="Helvetica,sans-Serif" font-size="10.00">cassert</text>
</a>
</g>
</g>
<!-- Node17&#45;&gt;Node18 -->
<g id="edge31" class="edge">
<title>Node17&#45;&gt;Node18</title>
<path fill="none" stroke="midnightblue" d="M374.76,-56.4C374.63,-48.47 374.46,-38.46 374.32,-29.86"/>
<polygon fill="midnightblue" stroke="midnightblue" points="377.81,-29.6 374.15,-19.66 370.81,-29.72 377.81,-29.6"/>
</g>
<!-- Node19&#45;&gt;Node2 -->
<g id="edge37" class="edge">
<title>Node19&#45;&gt;Node2</title>
<path fill="none" stroke="midnightblue" d="M561.66,-379.5C632.56,-371.02 746,-344.63 746,-262.5 746,-262.5 746,-262.5 746,-199 746,-120.15 706.49,-99.9 641,-56 603.39,-30.78 552.85,-19.69 514.74,-14.81"/>
<polygon fill="midnightblue" stroke="midnightblue" points="514.68,-11.28 504.34,-13.6 513.86,-18.23 514.68,-11.28"/>
</g>
<!-- Node19&#45;&gt;Node3 -->
<g id="edge38" class="edge">
<title>Node19&#45;&gt;Node3</title>
<path fill="none" stroke="midnightblue" d="M450.33,-370.81C403.38,-360.11 336.92,-344.96 292.46,-334.82"/>
<polygon fill="midnightblue" stroke="midnightblue" points="293.02,-331.36 282.49,-332.55 291.46,-338.18 293.02,-331.36"/>
</g>
<!-- Node19&#45;&gt;Node4 -->
<g id="edge39" class="edge">
<title>Node19&#45;&gt;Node4</title>
<path fill="none" stroke="midnightblue" d="M450.21,-382.37C382.83,-379.36 267.09,-368.86 175,-333 144.61,-321.17 114.14,-299.33 93.91,-283.08"/>
<polygon fill="midnightblue" stroke="midnightblue" points="96.11,-280.36 86.16,-276.73 91.67,-285.77 96.11,-280.36"/>
</g>
<!-- Node19&#45;&gt;Node11 -->
<g id="edge40" class="edge">
<title>Node19&#45;&gt;Node11</title>
<path fill="none" stroke="midnightblue" d="M561.68,-376.63C619.99,-368.49 706.68,-353.42 733,-333 834.61,-254.18 862.51,-85.91 869.15,-29.71"/>
<polygon fill="midnightblue" stroke="midnightblue" points="872.63,-30.08 870.23,-19.76 865.67,-29.32 872.63,-30.08"/>
</g>
<!-- Node20 -->
<g id="node20" class="node">
<title>Node20</title>
<g id="a_node20"><a xlink:title=" ">
<polygon fill="none" stroke="#bfbfbf" points="844,-313.5 844,-332.5 910,-332.5 910,-313.5 844,-313.5"/>
<text text-anchor="middle" x="877" y="-320.5" font-family="Helvetica,sans-Serif" font-size="10.00">string_view</text>
</a>
</g>
</g>
<!-- Node19&#45;&gt;Node20 -->
<g id="edge41" class="edge">
<title>Node19&#45;&gt;Node20</title>
<path fill="none" stroke="midnightblue" d="M561.71,-375.42C626.34,-365.9 736.05,-349.31 830,-333 831.27,-332.78 832.55,-332.55 833.85,-332.32"/>
<polygon fill="midnightblue" stroke="midnightblue" points="834.69,-335.73 843.9,-330.49 833.44,-328.84 834.69,-335.73"/>
</g>
</g>
</svg>
        <g id="navigator" transform="translate(0 0)" fill="#404254">
                <rect fill="#f2f5e9" fill-opacity="0.5" stroke="#606060" stroke-width=".5" x="0" y="0" width="60" height="60"/>
                <use id="zoomplus" xlink:href="#zoomPlus" x="17" y="9" onmousedown="handleZoom(evt,'in')"/>
                <use id="zoomminus" xlink:href="#zoomMin" x="42" y="9" onmousedown="handleZoom(evt,'out')"/>
                <use id="reset" xlink:href="#resetDef" x="30" y="36" onmousedown="handleReset()"/>
                <g id="arrowUp" xlink:href="#dirArrow" transform="translate(30 24)" onmousedown="handlePan(0,-1)">
                  <use xlink:href="#rim" fill="#404040">
                        <set attributeName="fill" to="#808080" begin="arrowUp.mouseover" end="arrowUp.mouseout"/>
                  </use>
                  <path fill="none" stroke="white" stroke-width="1.5" d="M0,-3.0v7 M-2.5,-0.5L0,-3.0L2.5,-0.5"/>
                </g>
                <g id="arrowRight" xlink:href="#dirArrow" transform="rotate(90) translate(36 -43)" onmousedown="handlePan(1,0)">
                  <use xlink:href="#rim" fill="#404040">
                        <set attributeName="fill" to="#808080" begin="arrowRight.mouseover" end="arrowRight.mouseout"/>
                  </use>
                  <path fill="none" stroke="white" stroke-width="1.5" d="M0,-3.0v7 M-2.5,-0.5L0,-3.0L2.5,-0.5"/>
                </g>
                <g id="arrowDown" xlink:href="#dirArrow" transform="rotate(180) translate(-30 -48)" onmousedown="handlePan(0,1)">
                  <use xlink:href="#rim" fill="#404040">
                        <set attributeName="fill" to="#808080" begin="arrowDown.mouseover" end="arrowDown.mouseout"/>
                  </use>
                  <path fill="none" stroke="white" stroke-width="1.5" d="M0,-3.0v7 M-2.5,-0.5L0,-3.0L2.5,-0.5"/>
                </g>
                <g id="arrowLeft" xlink:href="#dirArrow" transform="rotate(270) translate(-36 17)" onmousedown="handlePan(-1,0)">
                  <use xlink:href="#rim" fill="#404040">
                        <set attributeName="fill" to="#808080" begin="arrowLeft.mouseover" end="arrowLeft.mouseout"/>
                  </use>
                  <path fill="none" stroke="white" stroke-width="1.5" d="M0,-3.0v7 M-2.5,-0.5L0,-3.0L2.5,-0.5"/>
                </g>
        </g>
        <svg viewBox="0 0 15 15" width="100%" height="30px" preserveAspectRatio="xMaxYMin meet">
         <g id="arrow_out" transform="scale(0.3 0.3)">
          <a xlink:href="intrusive__list_8hpp__incl_org.svg" target="_base">
           <rect id="button" ry="5" rx="5" y="6" x="6" height="38" width="38"
                fill="#f2f5e9" fill-opacity="0.5" stroke="#606060" stroke-width="1.0"/>
           <path id="arrow"
             d="M 11.500037,31.436501 C 11.940474,20.09759 22.043105,11.32322 32.158766,21.979434 L 37.068811,17.246167 C 37.068811,17.246167 37.088388,32 37.088388,32 L 22.160133,31.978069 C 22.160133,31.978069 26.997745,27.140456 26.997745,27.140456 C 18.528582,18.264221 13.291696,25.230495 11.500037,31.436501 z"
             style="fill:#404040;"/>
          </a>
         </g>
        </svg>
</svg>
