<?xml version="1.0" encoding="UTF-8" standalone="no"?>
<!DOCTYPE svg PUBLIC "-//W3C//DTD SVG 1.1//EN"
 "http://www.w3.org/Graphics/SVG/1.1/DTD/svg11.dtd">
<!-- Generated by graphviz version 2.50.0 (20220203.2022)
 -->
<!-- Title: include/yaclib/util/intrusive_ptr.hpp Pages: 1 -->
<svg width="323pt" height="162pt"
 viewBox="0.00 0.00 323.07 162.00" xmlns="http://www.w3.org/2000/svg" xmlns:xlink="http://www.w3.org/1999/xlink">
<g id="graph0" class="graph" transform="scale(1 1) rotate(0) translate(4 158)">
<title>include/yaclib/util/intrusive_ptr.hpp</title>
<!-- Node1 -->
<g id="node1" class="node">
<title>Node1</title>
<g id="a_node1"><a xlink:title=" ">
<polygon fill="#bfbfbf" stroke="black" points="59.57,-123.5 59.57,-153.5 150.57,-153.5 150.57,-123.5 59.57,-123.5"/>
<text text-anchor="start" x="67.57" y="-141.5" font-family="Helvetica,sans-Serif" font-size="10.00">include/yaclib/util</text>
<text text-anchor="middle" x="105.07" y="-130.5" font-family="Helvetica,sans-Serif" font-size="10.00">/intrusive_ptr.hpp</text>
</a>
</g>
</g>
<!-- Node2 -->
<g id="node2" class="node">
<title>Node2</title>
<g id="a_node2"><a xlink:title=" ">
<polygon fill="none" stroke="#bfbfbf" points="15.07,-0.5 15.07,-19.5 103.07,-19.5 103.07,-0.5 15.07,-0.5"/>
<text text-anchor="middle" x="59.07" y="-7.5" font-family="Helvetica,sans-Serif" font-size="10.00">yaclib/config.hpp</text>
</a>
</g>
</g>
<!-- Node1&#45;&gt;Node2 -->
<g id="edge1" class="edge">
<title>Node1&#45;&gt;Node2</title>
<path fill="none" stroke="midnightblue" d="M59.45,-126.24C39.1,-118.7 17.05,-106.46 5.07,-87 -2.15,-75.27 -0.77,-68.48 5.07,-56 11.12,-43.09 22.88,-32.6 33.89,-25"/>
<polygon fill="midnightblue" stroke="midnightblue" points="35.9,-27.87 42.44,-19.54 32.13,-21.97 35.9,-27.87"/>
</g>
<!-- Node3 -->
<g id="node3" class="node">
<title>Node3</title>
<g id="a_node3"><a xlink:href="ref_8hpp.html" target="_top" xlink:title=" ">
<polygon fill="none" stroke="black" points="14.57,-62 14.57,-81 103.57,-81 103.57,-62 14.57,-62"/>
<text text-anchor="middle" x="59.07" y="-69" font-family="Helvetica,sans-Serif" font-size="10.00">yaclib/util/ref.hpp</text>
</a>
</g>
</g>
<!-- Node1&#45;&gt;Node3 -->
<g id="edge2" class="edge">
<title>Node1&#45;&gt;Node3</title>
<path fill="none" stroke="midnightblue" d="M95.09,-123.4C88.06,-113.46 78.61,-100.11 71.15,-89.57"/>
<polygon fill="midnightblue" stroke="midnightblue" points="73.86,-87.34 65.22,-81.19 68.14,-91.38 73.86,-87.34"/>
</g>
<!-- Node4 -->
<g id="node4" class="node">
<title>Node4</title>
<g id="a_node4"><a xlink:title=" ">
<polygon fill="none" stroke="#bfbfbf" points="121.07,-62 121.07,-81 183.07,-81 183.07,-62 121.07,-62"/>
<text text-anchor="middle" x="152.07" y="-69" font-family="Helvetica,sans-Serif" font-size="10.00">type_traits</text>
</a>
</g>
</g>
<!-- Node1&#45;&gt;Node4 -->
<g id="edge4" class="edge">
<title>Node1&#45;&gt;Node4</title>
<path fill="none" stroke="midnightblue" d="M115.27,-123.4C122.45,-113.46 132.11,-100.11 139.73,-89.57"/>
<polygon fill="midnightblue" stroke="midnightblue" points="142.76,-91.35 145.78,-81.19 137.09,-87.25 142.76,-91.35"/>
</g>
<!-- Node5 -->
<g id="node5" class="node">
<title>Node5</title>
<g id="a_node5"><a xlink:href="intrusive__ptr__impl_8hpp.html" target="_top" xlink:title=" ">
<polygon fill="none" stroke="black" points="201.07,-56.5 201.07,-86.5 315.07,-86.5 315.07,-56.5 201.07,-56.5"/>
<text text-anchor="start" x="209.07" y="-74.5" font-family="Helvetica,sans-Serif" font-size="10.00">yaclib/util/detail</text>
<text text-anchor="middle" x="258.07" y="-63.5" font-family="Helvetica,sans-Serif" font-size="10.00">/intrusive_ptr_impl.hpp</text>
</a>
</g>
</g>
<!-- Node1&#45;&gt;Node5 -->
<g id="edge5" class="edge">
<title>Node1&#45;&gt;Node5</title>
<path fill="none" stroke="midnightblue" d="M138.27,-123.4C160.93,-113.77 191.14,-100.94 215.55,-90.56"/>
<polygon fill="midnightblue" stroke="midnightblue" points="217.1,-93.71 224.94,-86.58 214.36,-87.27 217.1,-93.71"/>
</g>
<!-- Node3&#45;&gt;Node2 -->
<g id="edge3" class="edge">
<title>Node3&#45;&gt;Node2</title>
<path fill="none" stroke="midnightblue" d="M59.07,-61.98C59.07,-53.58 59.07,-40.48 59.07,-29.66"/>
<polygon fill="midnightblue" stroke="midnightblue" points="62.57,-29.51 59.07,-19.51 55.57,-29.51 62.57,-29.51"/>
</g>
<!-- Node5&#45;&gt;Node2 -->
<g id="edge6" class="edge">
<title>Node5&#45;&gt;Node2</title>
<path fill="none" stroke="midnightblue" d="M211.16,-56.47C176.38,-46.08 129.57,-32.08 97.11,-22.37"/>
<polygon fill="midnightblue" stroke="midnightblue" points="98.1,-19.02 87.52,-19.51 96.1,-25.72 98.1,-19.02"/>
</g>
<!-- Node6 -->
<g id="node6" class="node">
<title>Node6</title>
<g id="a_node6"><a xlink:title=" ">
<polygon fill="none" stroke="#bfbfbf" points="233.57,-0.5 233.57,-19.5 282.57,-19.5 282.57,-0.5 233.57,-0.5"/>
<text text-anchor="middle" x="258.07" y="-7.5" font-family="Helvetica,sans-Serif" font-size="10.00">cassert</text>
</a>
</g>
</g>
<!-- Node5&#45;&gt;Node6 -->
<g id="edge7" class="edge">
<title>Node5&#45;&gt;Node6</title>
<path fill="none" stroke="midnightblue" d="M258.07,-56.4C258.07,-48.47 258.07,-38.46 258.07,-29.86"/>
<polygon fill="midnightblue" stroke="midnightblue" points="261.57,-29.66 258.07,-19.66 254.57,-29.66 261.57,-29.66"/>
</g>
</g>
</svg>
