<?xml version="1.0" encoding="UTF-8" standalone="no"?>
<!DOCTYPE svg PUBLIC "-//W3C//DTD SVG 1.1//EN"
 "http://www.w3.org/Graphics/SVG/1.1/DTD/svg11.dtd">
<!-- Generated by graphviz version 2.50.0 (20220203.2022)
 -->
<!-- Title: include/yaclib/log.hpp Pages: 1 -->
<!--zoomable 374 -->
<svg id="main" version="1.1" xmlns="http://www.w3.org/2000/svg" xmlns:xlink="http://www.w3.org/1999/xlink" xml:space="preserve" onload="init(evt)">
<style type="text/css"><![CDATA[
.edge:hover path { stroke: red; }
.edge:hover polygon { stroke: red; fill: red; }
]]></style>
<script type="text/javascript"><![CDATA[
var edges = document.getElementsByTagName('g');
if (edges && edges.length) {
  for (var i=0;i<edges.length;i++) {
    if (edges[i].id.substr(0,4)=='edge') {
      edges[i].setAttribute('class','edge');
    }
  }
}
]]></script>
        <defs>
                <circle id="rim" cx="0" cy="0" r="7"/>
                <circle id="rim2" cx="0" cy="0" r="3.5"/>
                <g id="zoomPlus">
                        <use xlink:href="#rim" fill="#404040">
                                <set attributeName="fill" to="#808080" begin="zoomplus.mouseover" end="zoomplus.mouseout"/>
                        </use>
                        <path d="M-4,0h8M0,-4v8" fill="none" stroke="white" stroke-width="1.5" pointer-events="none"/>
                </g>
                <g id="zoomMin">
                        <use xlink:href="#rim" fill="#404040">
                                <set attributeName="fill" to="#808080" begin="zoomminus.mouseover" end="zoomminus.mouseout"/>
                        </use>
                        <path d="M-4,0h8" fill="none" stroke="white" stroke-width="1.5" pointer-events="none"/>
                </g>
                <g id="dirArrow">
                        <path fill="none" stroke="white" stroke-width="1.5" d="M0,-3.0v7 M-2.5,-0.5L0,-3.0L2.5,-0.5"/>
                </g>
               <g id="resetDef">
                       <use xlink:href="#rim2" fill="#404040">
                               <set attributeName="fill" to="#808080" begin="reset.mouseover" end="reset.mouseout"/>
                       </use>
               </g>
        </defs>

<script type="text/javascript">
var viewWidth = 2284;
var viewHeight = 374;
var sectionId = 'dynsection-1';
</script>
<script xlink:href="svgpan.js"/>
<svg id="graph" class="graph">
<g id="viewport">
<title>include/yaclib/log.hpp</title>
<!-- Node1 -->
<g id="node1" class="node">
<title>Node1</title>
<g id="a_node1"><a xlink:title=" ">
<polygon fill="#bfbfbf" stroke="black" points="1412,-346.5 1412,-365.5 1521,-365.5 1521,-346.5 1412,-346.5"/>
<text text-anchor="middle" x="1466.5" y="-353.5" font-family="Helvetica,sans-Serif" font-size="10.00">include/yaclib/log.hpp</text>
</a>
</g>
</g>
<!-- Node2 -->
<g id="node2" class="node">
<title>Node2</title>
<g id="a_node2"><a xlink:href="when__any__impl_8hpp.html" target="_top" xlink:title=" ">
<polygon fill="none" stroke="black" points="0,-134.5 0,-164.5 131,-164.5 131,-134.5 0,-134.5"/>
<text text-anchor="start" x="8" y="-152.5" font-family="Helvetica,sans-Serif" font-size="10.00">include/yaclib/algo</text>
<text text-anchor="middle" x="65.5" y="-141.5" font-family="Helvetica,sans-Serif" font-size="10.00">/detail/when_any_impl.hpp</text>
</a>
</g>
</g>
<!-- Node1&#45;&gt;Node2 -->
<g id="edge1" class="edge">
<title>Node1&#45;&gt;Node2</title>
<path fill="none" stroke="midnightblue" d="M1401.59,-353.45C1284.82,-350.01 1031.8,-339.53 820.5,-310 554.81,-272.86 242.81,-196.23 119.52,-164.61"/>
<polygon fill="midnightblue" stroke="midnightblue" points="1401.69,-356.96 1411.79,-353.75 1401.89,-349.96 1401.69,-356.96"/>
</g>
<!-- Node5 -->
<g id="node5" class="node">
<title>Node5</title>
<g id="a_node5"><a xlink:href="future__impl_8hpp.html" target="_top" xlink:title=" ">
<polygon fill="none" stroke="black" points="829.5,-274 829.5,-304 941.5,-304 941.5,-274 829.5,-274"/>
<text text-anchor="start" x="837.5" y="-292" font-family="Helvetica,sans-Serif" font-size="10.00">include/yaclib/async</text>
<text text-anchor="middle" x="885.5" y="-281" font-family="Helvetica,sans-Serif" font-size="10.00">/detail/future_impl.hpp</text>
</a>
</g>
</g>
<!-- Node1&#45;&gt;Node5 -->
<g id="edge4" class="edge">
<title>Node1&#45;&gt;Node5</title>
<path fill="none" stroke="midnightblue" d="M1401.68,-353.24C1304.13,-349.71 1114.13,-339.37 955.5,-310 947.17,-308.46 938.41,-306.35 930.01,-304.09"/>
<polygon fill="midnightblue" stroke="midnightblue" points="1401.85,-356.75 1411.96,-353.6 1402.09,-349.75 1401.85,-356.75"/>
</g>
<!-- Node18 -->
<g id="node18" class="node">
<title>Node18</title>
<g id="a_node18"><a xlink:href="run_8hpp.html" target="_top" xlink:title=" ">
<polygon fill="none" stroke="black" points="1113.5,-134.5 1113.5,-164.5 1217.5,-164.5 1217.5,-134.5 1113.5,-134.5"/>
<text text-anchor="start" x="1121.5" y="-152.5" font-family="Helvetica,sans-Serif" font-size="10.00">include/yaclib/async</text>
<text text-anchor="middle" x="1165.5" y="-141.5" font-family="Helvetica,sans-Serif" font-size="10.00">/run.hpp</text>
</a>
</g>
</g>
<!-- Node1&#45;&gt;Node18 -->
<g id="edge38" class="edge">
<title>Node1&#45;&gt;Node18</title>
<path fill="none" stroke="midnightblue" d="M1401.37,-353.27C1279.04,-349.37 1024.65,-337.96 996.5,-310 962.04,-275.77 959.24,-239.77 988.5,-201 996.22,-190.76 1063.84,-173.51 1113.21,-162.07"/>
<polygon fill="midnightblue" stroke="midnightblue" points="1401.62,-356.78 1411.72,-353.59 1401.83,-349.78 1401.62,-356.78"/>
</g>
<!-- Node25 -->
<g id="node25" class="node">
<title>Node25</title>
<g id="a_node25"><a xlink:href="detail_2mutex_2mutex_8hpp.html" target="_top" xlink:title=" ">
<polygon fill="none" stroke="black" points="1006,-274 1006,-304 1125,-304 1125,-274 1006,-274"/>
<text text-anchor="start" x="1014" y="-292" font-family="Helvetica,sans-Serif" font-size="10.00">include/yaclib/fault</text>
<text text-anchor="middle" x="1065.5" y="-281" font-family="Helvetica,sans-Serif" font-size="10.00">/detail/mutex/mutex.hpp</text>
</a>
</g>
</g>
<!-- Node1&#45;&gt;Node25 -->
<g id="edge39" class="edge">
<title>Node1&#45;&gt;Node25</title>
<path fill="none" stroke="midnightblue" d="M1401.54,-348.63C1335.06,-341.51 1228.97,-328.52 1138.5,-310 1130.26,-308.31 1121.58,-306.22 1113.19,-304.03"/>
<polygon fill="midnightblue" stroke="midnightblue" points="1401.55,-352.15 1411.87,-349.72 1402.29,-345.19 1401.55,-352.15"/>
</g>
<!-- Node27 -->
<g id="node27" class="node">
<title>Node27</title>
<g id="a_node27"><a xlink:href="recursive__mutex_8hpp.html" target="_top" xlink:title=" ">
<polygon fill="none" stroke="black" points="1148,-268.5 1148,-309.5 1263,-309.5 1263,-268.5 1148,-268.5"/>
<text text-anchor="start" x="1156" y="-297.5" font-family="Helvetica,sans-Serif" font-size="10.00">include/yaclib/fault</text>
<text text-anchor="start" x="1156" y="-286.5" font-family="Helvetica,sans-Serif" font-size="10.00">/detail/mutex/recursive</text>
<text text-anchor="middle" x="1205.5" y="-275.5" font-family="Helvetica,sans-Serif" font-size="10.00">_mutex.hpp</text>
</a>
</g>
</g>
<!-- Node1&#45;&gt;Node27 -->
<g id="edge41" class="edge">
<title>Node1&#45;&gt;Node27</title>
<path fill="none" stroke="midnightblue" d="M1416.05,-344.34C1376.54,-335.75 1320.3,-323.01 1271.5,-310 1268.72,-309.26 1265.89,-308.48 1263.03,-307.68"/>
<polygon fill="midnightblue" stroke="midnightblue" points="1415.46,-347.79 1425.97,-346.48 1416.93,-340.95 1415.46,-347.79"/>
</g>
<!-- Node29 -->
<g id="node29" class="node">
<title>Node29</title>
<g id="a_node29"><a xlink:href="recursive__timed__mutex_8hpp.html" target="_top" xlink:title=" ">
<polygon fill="none" stroke="black" points="1281,-268.5 1281,-309.5 1396,-309.5 1396,-268.5 1281,-268.5"/>
<text text-anchor="start" x="1289" y="-297.5" font-family="Helvetica,sans-Serif" font-size="10.00">include/yaclib/fault</text>
<text text-anchor="start" x="1289" y="-286.5" font-family="Helvetica,sans-Serif" font-size="10.00">/detail/mutex/recursive</text>
<text text-anchor="middle" x="1338.5" y="-275.5" font-family="Helvetica,sans-Serif" font-size="10.00">_timed_mutex.hpp</text>
</a>
</g>
</g>
<!-- Node1&#45;&gt;Node29 -->
<g id="edge43" class="edge">
<title>Node1&#45;&gt;Node29</title>
<path fill="none" stroke="midnightblue" d="M1440.12,-341.6C1421.95,-332.38 1397.51,-319.96 1377.15,-309.63"/>
<polygon fill="midnightblue" stroke="midnightblue" points="1439,-344.96 1449.5,-346.37 1442.17,-338.72 1439,-344.96"/>
</g>
<!-- Node31 -->
<g id="node31" class="node">
<title>Node31</title>
<g id="a_node31"><a xlink:href="detail_2mutex_2shared__mutex_8hpp.html" target="_top" xlink:title=" ">
<polygon fill="none" stroke="black" points="1414.5,-268.5 1414.5,-309.5 1518.5,-309.5 1518.5,-268.5 1414.5,-268.5"/>
<text text-anchor="start" x="1422.5" y="-297.5" font-family="Helvetica,sans-Serif" font-size="10.00">include/yaclib/fault</text>
<text text-anchor="start" x="1422.5" y="-286.5" font-family="Helvetica,sans-Serif" font-size="10.00">/detail/mutex/shared</text>
<text text-anchor="middle" x="1466.5" y="-275.5" font-family="Helvetica,sans-Serif" font-size="10.00">_mutex.hpp</text>
</a>
</g>
</g>
<!-- Node1&#45;&gt;Node31 -->
<g id="edge45" class="edge">
<title>Node1&#45;&gt;Node31</title>
<path fill="none" stroke="midnightblue" d="M1466.5,-336.04C1466.5,-327.71 1466.5,-317.94 1466.5,-309.54"/>
<polygon fill="midnightblue" stroke="midnightblue" points="1463,-336.23 1466.5,-346.23 1470,-336.23 1463,-336.23"/>
</g>
<!-- Node33 -->
<g id="node33" class="node">
<title>Node33</title>
<g id="a_node33"><a xlink:href="shared__timed__mutex_8hpp.html" target="_top" xlink:title=" ">
<polygon fill="none" stroke="black" points="1536.5,-268.5 1536.5,-309.5 1640.5,-309.5 1640.5,-268.5 1536.5,-268.5"/>
<text text-anchor="start" x="1544.5" y="-297.5" font-family="Helvetica,sans-Serif" font-size="10.00">include/yaclib/fault</text>
<text text-anchor="start" x="1544.5" y="-286.5" font-family="Helvetica,sans-Serif" font-size="10.00">/detail/mutex/shared</text>
<text text-anchor="middle" x="1588.5" y="-275.5" font-family="Helvetica,sans-Serif" font-size="10.00">_timed_mutex.hpp</text>
</a>
</g>
</g>
<!-- Node1&#45;&gt;Node33 -->
<g id="edge47" class="edge">
<title>Node1&#45;&gt;Node33</title>
<path fill="none" stroke="midnightblue" d="M1491.64,-341.6C1508.96,-332.38 1532.26,-319.96 1551.66,-309.63"/>
<polygon fill="midnightblue" stroke="midnightblue" points="1489.88,-338.58 1482.7,-346.37 1493.17,-344.76 1489.88,-338.58"/>
</g>
<!-- Node35 -->
<g id="node35" class="node">
<title>Node35</title>
<g id="a_node35"><a xlink:href="timed__mutex_8hpp.html" target="_top" xlink:title=" ">
<polygon fill="none" stroke="black" points="1659,-274 1659,-304 1808,-304 1808,-274 1659,-274"/>
<text text-anchor="start" x="1667" y="-292" font-family="Helvetica,sans-Serif" font-size="10.00">include/yaclib/fault</text>
<text text-anchor="middle" x="1733.5" y="-281" font-family="Helvetica,sans-Serif" font-size="10.00">/detail/mutex/timed_mutex.hpp</text>
</a>
</g>
</g>
<!-- Node1&#45;&gt;Node35 -->
<g id="edge49" class="edge">
<title>Node1&#45;&gt;Node35</title>
<path fill="none" stroke="midnightblue" d="M1511.49,-344.05C1556.68,-333.05 1626.5,-316.05 1675.75,-304.06"/>
<polygon fill="midnightblue" stroke="midnightblue" points="1510.57,-340.67 1501.68,-346.44 1512.22,-347.47 1510.57,-340.67"/>
</g>
<!-- Node37 -->
<g id="node37" class="node">
<title>Node37</title>
<g id="a_node37"><a xlink:href="detail_2thread_2thread_8hpp.html" target="_top" xlink:title=" ">
<polygon fill="none" stroke="black" points="1826,-274 1826,-304 1947,-304 1947,-274 1826,-274"/>
<text text-anchor="start" x="1834" y="-292" font-family="Helvetica,sans-Serif" font-size="10.00">include/yaclib/fault</text>
<text text-anchor="middle" x="1886.5" y="-281" font-family="Helvetica,sans-Serif" font-size="10.00">/detail/thread/thread.hpp</text>
</a>
</g>
</g>
<!-- Node1&#45;&gt;Node37 -->
<g id="edge51" class="edge">
<title>Node1&#45;&gt;Node37</title>
<path fill="none" stroke="midnightblue" d="M1531.26,-349.61C1601.88,-343.06 1717.99,-330.29 1816.5,-310 1824.55,-308.34 1833.02,-306.24 1841.18,-304.02"/>
<polygon fill="midnightblue" stroke="midnightblue" points="1530.82,-346.14 1521.18,-350.54 1531.46,-353.11 1530.82,-346.14"/>
</g>
<!-- Node39 -->
<g id="node39" class="node">
<title>Node39</title>
<g id="a_node39"><a xlink:href="thread__factory_8cpp.html" target="_top" xlink:title=" ">
<polygon fill="none" stroke="black" points="1965.5,-274 1965.5,-304 2065.5,-304 2065.5,-274 1965.5,-274"/>
<text text-anchor="start" x="1973.5" y="-292" font-family="Helvetica,sans-Serif" font-size="10.00">src/executor/thread</text>
<text text-anchor="middle" x="2015.5" y="-281" font-family="Helvetica,sans-Serif" font-size="10.00">_factory.cpp</text>
</a>
</g>
</g>
<!-- Node1&#45;&gt;Node39 -->
<g id="edge53" class="edge">
<title>Node1&#45;&gt;Node39</title>
<path fill="none" stroke="midnightblue" d="M1531.4,-353.88C1625.91,-351.16 1806.48,-341.85 1956.5,-310 1963.69,-308.47 1971.23,-306.35 1978.42,-304.05"/>
<polygon fill="midnightblue" stroke="midnightblue" points="1531.04,-350.39 1521.14,-354.16 1531.23,-357.38 1531.04,-350.39"/>
</g>
<!-- Node40 -->
<g id="node40" class="node">
<title>Node40</title>
<g id="a_node40"><a xlink:href="log__error_8cpp.html" target="_top" xlink:title=" ">
<polygon fill="none" stroke="black" points="2084,-279.5 2084,-298.5 2173,-298.5 2173,-279.5 2084,-279.5"/>
<text text-anchor="middle" x="2128.5" y="-286.5" font-family="Helvetica,sans-Serif" font-size="10.00">src/log_error.cpp</text>
</a>
</g>
</g>
<!-- Node1&#45;&gt;Node40 -->
<g id="edge54" class="edge">
<title>Node1&#45;&gt;Node40</title>
<path fill="none" stroke="midnightblue" d="M1531.53,-352.49C1666.39,-346.92 1972.44,-332.21 2074.5,-310 2086.42,-307.41 2099.24,-302.74 2109.4,-298.57"/>
<polygon fill="midnightblue" stroke="midnightblue" points="1531.19,-349.01 1521.34,-352.91 1531.48,-356 1531.19,-349.01"/>
</g>
<!-- Node41 -->
<g id="node41" class="node">
<title>Node41</title>
<g id="a_node41"><a xlink:href="log__info_8cpp.html" target="_top" xlink:title=" ">
<polygon fill="none" stroke="black" points="2191,-279.5 2191,-298.5 2276,-298.5 2276,-279.5 2191,-279.5"/>
<text text-anchor="middle" x="2233.5" y="-286.5" font-family="Helvetica,sans-Serif" font-size="10.00">src/log_info.cpp</text>
</a>
</g>
</g>
<!-- Node1&#45;&gt;Node41 -->
<g id="edge55" class="edge">
<title>Node1&#45;&gt;Node41</title>
<path fill="none" stroke="midnightblue" d="M1531.17,-353.5C1683.14,-349.57 2059.4,-337.3 2182.5,-310 2193.83,-307.49 2205.94,-302.83 2215.52,-298.64"/>
<polygon fill="midnightblue" stroke="midnightblue" points="1530.97,-350.01 1521.06,-353.76 1531.14,-357 1530.97,-350.01"/>
</g>
<!-- Node3 -->
<g id="node3" class="node">
<title>Node3</title>
<g id="a_node3"><a xlink:href="when__any_8hpp.html" target="_top" xlink:title=" ">
<polygon fill="none" stroke="black" points="267.5,-67.5 267.5,-97.5 363.5,-97.5 363.5,-67.5 267.5,-67.5"/>
<text text-anchor="start" x="275.5" y="-85.5" font-family="Helvetica,sans-Serif" font-size="10.00">include/yaclib/algo</text>
<text text-anchor="middle" x="315.5" y="-74.5" font-family="Helvetica,sans-Serif" font-size="10.00">/when_any.hpp</text>
</a>
</g>
</g>
<!-- Node2&#45;&gt;Node3 -->
<g id="edge2" class="edge">
<title>Node2&#45;&gt;Node3</title>
<path fill="none" stroke="midnightblue" d="M129.22,-131.93C172.14,-120.77 227.87,-106.28 267.16,-96.07"/>
<polygon fill="midnightblue" stroke="midnightblue" points="128.24,-128.57 119.44,-134.48 130,-135.35 128.24,-128.57"/>
</g>
<!-- Node4 -->
<g id="node4" class="node">
<title>Node4</title>
<g id="a_node4"><a xlink:href="when__any_8cpp.html" target="_top" xlink:title=" ">
<polygon fill="none" stroke="black" points="506,-0.5 506,-30.5 607,-30.5 607,-0.5 506,-0.5"/>
<text text-anchor="start" x="514" y="-18.5" font-family="Helvetica,sans-Serif" font-size="10.00">test/example/async</text>
<text text-anchor="middle" x="556.5" y="-7.5" font-family="Helvetica,sans-Serif" font-size="10.00">/when_any.cpp</text>
</a>
</g>
</g>
<!-- Node3&#45;&gt;Node4 -->
<g id="edge3" class="edge">
<title>Node3&#45;&gt;Node4</title>
<path fill="none" stroke="midnightblue" d="M373.4,-65.88C413.81,-54.99 467.2,-40.58 505.9,-30.15"/>
<polygon fill="midnightblue" stroke="midnightblue" points="372.43,-62.52 363.69,-68.5 374.26,-69.28 372.43,-62.52"/>
</g>
<!-- Node6 -->
<g id="node6" class="node">
<title>Node6</title>
<g id="a_node6"><a xlink:href="future_8hpp.html" target="_top" xlink:title=" ">
<polygon fill="none" stroke="black" points="835.5,-201.5 835.5,-231.5 939.5,-231.5 939.5,-201.5 835.5,-201.5"/>
<text text-anchor="start" x="843.5" y="-219.5" font-family="Helvetica,sans-Serif" font-size="10.00">include/yaclib/async</text>
<text text-anchor="middle" x="887.5" y="-208.5" font-family="Helvetica,sans-Serif" font-size="10.00">/future.hpp</text>
</a>
</g>
</g>
<!-- Node5&#45;&gt;Node6 -->
<g id="edge5" class="edge">
<title>Node5&#45;&gt;Node6</title>
<path fill="none" stroke="midnightblue" d="M886.19,-263.73C886.49,-253.07 886.84,-240.91 887.1,-231.75"/>
<polygon fill="midnightblue" stroke="midnightblue" points="882.69,-263.64 885.9,-273.73 889.69,-263.84 882.69,-263.64"/>
</g>
<!-- Node6&#45;&gt;Node2 -->
<g id="edge9" class="edge">
<title>Node6&#45;&gt;Node2</title>
<path fill="none" stroke="midnightblue" d="M825.16,-213.89C696.63,-209.99 393.07,-197.82 140.5,-165 137.48,-164.61 134.39,-164.17 131.28,-163.69"/>
<polygon fill="midnightblue" stroke="midnightblue" points="825.11,-217.39 835.21,-214.18 825.32,-210.39 825.11,-217.39"/>
</g>
<!-- Node6&#45;&gt;Node3 -->
<g id="edge20" class="edge">
<title>Node6&#45;&gt;Node3</title>
<path fill="none" stroke="midnightblue" d="M825.34,-211.33C674.63,-201.07 301.45,-174.74 292.5,-165 275.29,-146.27 291.85,-115.64 304.39,-97.74"/>
<polygon fill="midnightblue" stroke="midnightblue" points="825.15,-214.82 835.37,-212.01 825.63,-207.84 825.15,-214.82"/>
</g>
<!-- Node7 -->
<g id="node7" class="node">
<title>Node7</title>
<g id="a_node7"><a xlink:href="when__all__impl_8hpp.html" target="_top" xlink:title=" ">
<polygon fill="none" stroke="black" points="430,-134.5 430,-164.5 555,-164.5 555,-134.5 430,-134.5"/>
<text text-anchor="start" x="438" y="-152.5" font-family="Helvetica,sans-Serif" font-size="10.00">include/yaclib/algo</text>
<text text-anchor="middle" x="492.5" y="-141.5" font-family="Helvetica,sans-Serif" font-size="10.00">/detail/when_all_impl.hpp</text>
</a>
</g>
</g>
<!-- Node6&#45;&gt;Node7 -->
<g id="edge6" class="edge">
<title>Node6&#45;&gt;Node7</title>
<path fill="none" stroke="midnightblue" d="M825.42,-206.18C761.26,-196.42 658.25,-180.4 569.5,-165 564.81,-164.19 559.96,-163.32 555.09,-162.44"/>
<polygon fill="midnightblue" stroke="midnightblue" points="824.96,-209.65 835.37,-207.69 826.01,-202.73 824.96,-209.65"/>
</g>
<!-- Node8 -->
<g id="node8" class="node">
<title>Node8</title>
<g id="a_node8"><a xlink:href="when__all_8hpp.html" target="_top" xlink:title=" ">
<polygon fill="none" stroke="black" points="490.5,-67.5 490.5,-97.5 586.5,-97.5 586.5,-67.5 490.5,-67.5"/>
<text text-anchor="start" x="498.5" y="-85.5" font-family="Helvetica,sans-Serif" font-size="10.00">include/yaclib/algo</text>
<text text-anchor="middle" x="538.5" y="-74.5" font-family="Helvetica,sans-Serif" font-size="10.00">/when_all.hpp</text>
</a>
</g>
</g>
<!-- Node6&#45;&gt;Node8 -->
<g id="edge19" class="edge">
<title>Node6&#45;&gt;Node8</title>
<path fill="none" stroke="midnightblue" d="M824.89,-209.66C752.65,-202.01 639.11,-186.95 602.5,-165 575.35,-148.71 555.28,-116.3 545.39,-97.63"/>
<polygon fill="midnightblue" stroke="midnightblue" points="824.92,-213.18 835.23,-210.73 825.65,-206.22 824.92,-213.18"/>
</g>
<!-- Node10 -->
<g id="node10" class="node">
<title>Node10</title>
<g id="a_node10"><a xlink:href="when__impl_8hpp.html" target="_top" xlink:title=" ">
<polygon fill="none" stroke="black" points="301.5,-134.5 301.5,-164.5 411.5,-164.5 411.5,-134.5 301.5,-134.5"/>
<text text-anchor="start" x="309.5" y="-152.5" font-family="Helvetica,sans-Serif" font-size="10.00">include/yaclib/algo</text>
<text text-anchor="middle" x="356.5" y="-141.5" font-family="Helvetica,sans-Serif" font-size="10.00">/detail/when_impl.hpp</text>
</a>
</g>
</g>
<!-- Node6&#45;&gt;Node10 -->
<g id="edge10" class="edge">
<title>Node6&#45;&gt;Node10</title>
<path fill="none" stroke="midnightblue" d="M825.39,-211.07C735.62,-204.15 564.56,-189.03 420.5,-165 417.58,-164.51 414.59,-163.97 411.58,-163.4"/>
<polygon fill="midnightblue" stroke="midnightblue" points="825.17,-214.56 835.4,-211.83 825.7,-207.58 825.17,-214.56"/>
</g>
<!-- Node11 -->
<g id="node11" class="node">
<title>Node11</title>
<g id="a_node11"><a xlink:href="wait_8hpp.html" target="_top" xlink:title=" ">
<polygon fill="none" stroke="black" points="149.5,-134.5 149.5,-164.5 245.5,-164.5 245.5,-134.5 149.5,-134.5"/>
<text text-anchor="start" x="157.5" y="-152.5" font-family="Helvetica,sans-Serif" font-size="10.00">include/yaclib/algo</text>
<text text-anchor="middle" x="197.5" y="-141.5" font-family="Helvetica,sans-Serif" font-size="10.00">/wait.hpp</text>
</a>
</g>
</g>
<!-- Node6&#45;&gt;Node11 -->
<g id="edge13" class="edge">
<title>Node6&#45;&gt;Node11</title>
<path fill="none" stroke="midnightblue" d="M825.09,-211.67C688.63,-203.11 367.33,-181.85 259.5,-165 255.02,-164.3 250.39,-163.45 245.76,-162.52"/>
<polygon fill="midnightblue" stroke="midnightblue" points="825.17,-215.19 835.37,-212.32 825.61,-208.2 825.17,-215.19"/>
</g>
<!-- Node12 -->
<g id="node12" class="node">
<title>Node12</title>
<g id="a_node12"><a xlink:href="wait__for_8hpp.html" target="_top" xlink:title=" ">
<polygon fill="none" stroke="black" points="611.5,-134.5 611.5,-164.5 707.5,-164.5 707.5,-134.5 611.5,-134.5"/>
<text text-anchor="start" x="619.5" y="-152.5" font-family="Helvetica,sans-Serif" font-size="10.00">include/yaclib/algo</text>
<text text-anchor="middle" x="659.5" y="-141.5" font-family="Helvetica,sans-Serif" font-size="10.00">/wait_for.hpp</text>
</a>
</g>
</g>
<!-- Node6&#45;&gt;Node12 -->
<g id="edge15" class="edge">
<title>Node6&#45;&gt;Node12</title>
<path fill="none" stroke="midnightblue" d="M828.52,-198.69C791.02,-187.99 743.06,-174.32 707.82,-164.28"/>
<polygon fill="midnightblue" stroke="midnightblue" points="827.73,-202.1 838.31,-201.48 829.65,-195.37 827.73,-202.1"/>
</g>
<!-- Node13 -->
<g id="node13" class="node">
<title>Node13</title>
<g id="a_node13"><a xlink:href="wait__group_8hpp.html" target="_top" xlink:title=" ">
<polygon fill="none" stroke="black" points="725.5,-134.5 725.5,-164.5 821.5,-164.5 821.5,-134.5 725.5,-134.5"/>
<text text-anchor="start" x="733.5" y="-152.5" font-family="Helvetica,sans-Serif" font-size="10.00">include/yaclib/algo</text>
<text text-anchor="middle" x="773.5" y="-141.5" font-family="Helvetica,sans-Serif" font-size="10.00">/wait_group.hpp</text>
</a>
</g>
</g>
<!-- Node6&#45;&gt;Node13 -->
<g id="edge16" class="edge">
<title>Node6&#45;&gt;Node13</title>
<path fill="none" stroke="midnightblue" d="M853.82,-196.3C835.98,-186.12 814.46,-173.85 798.19,-164.58"/>
<polygon fill="midnightblue" stroke="midnightblue" points="852.34,-199.48 862.76,-201.4 855.81,-193.4 852.34,-199.48"/>
</g>
<!-- Node15 -->
<g id="node15" class="node">
<title>Node15</title>
<g id="a_node15"><a xlink:href="wait__until_8hpp.html" target="_top" xlink:title=" ">
<polygon fill="none" stroke="black" points="839.5,-134.5 839.5,-164.5 935.5,-164.5 935.5,-134.5 839.5,-134.5"/>
<text text-anchor="start" x="847.5" y="-152.5" font-family="Helvetica,sans-Serif" font-size="10.00">include/yaclib/algo</text>
<text text-anchor="middle" x="887.5" y="-141.5" font-family="Helvetica,sans-Serif" font-size="10.00">/wait_until.hpp</text>
</a>
</g>
</g>
<!-- Node6&#45;&gt;Node15 -->
<g id="edge18" class="edge">
<title>Node6&#45;&gt;Node15</title>
<path fill="none" stroke="midnightblue" d="M887.5,-191.11C887.5,-182.15 887.5,-172.32 887.5,-164.58"/>
<polygon fill="midnightblue" stroke="midnightblue" points="884,-191.4 887.5,-201.4 891,-191.4 884,-191.4"/>
</g>
<!-- Node16 -->
<g id="node16" class="node">
<title>Node16</title>
<g id="a_node16"><a xlink:href="contract_8hpp.html" target="_top" xlink:title=" ">
<polygon fill="none" stroke="black" points="953.5,-134.5 953.5,-164.5 1057.5,-164.5 1057.5,-134.5 953.5,-134.5"/>
<text text-anchor="start" x="961.5" y="-152.5" font-family="Helvetica,sans-Serif" font-size="10.00">include/yaclib/async</text>
<text text-anchor="middle" x="1005.5" y="-141.5" font-family="Helvetica,sans-Serif" font-size="10.00">/contract.hpp</text>
</a>
</g>
</g>
<!-- Node6&#45;&gt;Node16 -->
<g id="edge21" class="edge">
<title>Node6&#45;&gt;Node16</title>
<path fill="none" stroke="midnightblue" d="M922.11,-196.44C940.62,-186.24 963.02,-173.9 979.95,-164.58"/>
<polygon fill="midnightblue" stroke="midnightblue" points="920.17,-193.51 913.1,-201.4 923.55,-199.64 920.17,-193.51"/>
</g>
<!-- Node17 -->
<g id="node17" class="node">
<title>Node17</title>
<g id="a_node17"><a xlink:href="simple_8cpp.html" target="_top" xlink:title=" ">
<polygon fill="none" stroke="black" points="998,-67.5 998,-97.5 1099,-97.5 1099,-67.5 998,-67.5"/>
<text text-anchor="start" x="1006" y="-85.5" font-family="Helvetica,sans-Serif" font-size="10.00">test/example/async</text>
<text text-anchor="middle" x="1048.5" y="-74.5" font-family="Helvetica,sans-Serif" font-size="10.00">/simple.cpp</text>
</a>
</g>
</g>
<!-- Node6&#45;&gt;Node17 -->
<g id="edge37" class="edge">
<title>Node6&#45;&gt;Node17</title>
<path fill="none" stroke="midnightblue" d="M949.79,-201.8C998.49,-190.46 1059.16,-174.69 1066.5,-165 1081.54,-145.13 1068.25,-115.17 1057.9,-97.65"/>
<polygon fill="midnightblue" stroke="midnightblue" points="948.87,-198.42 939.92,-204.08 950.45,-205.24 948.87,-198.42"/>
</g>
<!-- Node6&#45;&gt;Node18 -->
<g id="edge23" class="edge">
<title>Node6&#45;&gt;Node18</title>
<path fill="none" stroke="midnightblue" d="M949.69,-200.96C998.97,-189.44 1067.02,-173.53 1113.44,-162.67"/>
<polygon fill="midnightblue" stroke="midnightblue" points="948.73,-197.59 939.79,-203.27 950.32,-204.41 948.73,-197.59"/>
</g>
<!-- Node19 -->
<g id="node19" class="node">
<title>Node19</title>
<g id="a_node19"><a xlink:href="await_8hpp.html" target="_top" xlink:title=" ">
<polygon fill="none" stroke="black" points="1245.5,-67.5 1245.5,-97.5 1363.5,-97.5 1363.5,-67.5 1245.5,-67.5"/>
<text text-anchor="start" x="1253.5" y="-85.5" font-family="Helvetica,sans-Serif" font-size="10.00">include/yaclib/coroutine</text>
<text text-anchor="middle" x="1304.5" y="-74.5" font-family="Helvetica,sans-Serif" font-size="10.00">/await.hpp</text>
</a>
</g>
</g>
<!-- Node6&#45;&gt;Node19 -->
<g id="edge27" class="edge">
<title>Node6&#45;&gt;Node19</title>
<path fill="none" stroke="midnightblue" d="M949.49,-206.52C1046.48,-192.44 1223.43,-166.59 1226.5,-165 1242.42,-156.76 1275.43,-118.66 1292.97,-97.59"/>
<polygon fill="midnightblue" stroke="midnightblue" points="948.9,-203.07 939.51,-207.97 949.91,-210 948.9,-203.07"/>
</g>
<!-- Node20 -->
<g id="node20" class="node">
<title>Node20</title>
<g id="a_node20"><a xlink:href="coroutine__deleter_8hpp.html" target="_top" xlink:title=" ">
<polygon fill="none" stroke="black" points="1455.5,-134.5 1455.5,-164.5 1593.5,-164.5 1593.5,-134.5 1455.5,-134.5"/>
<text text-anchor="start" x="1463.5" y="-152.5" font-family="Helvetica,sans-Serif" font-size="10.00">include/yaclib/coroutine</text>
<text text-anchor="middle" x="1524.5" y="-141.5" font-family="Helvetica,sans-Serif" font-size="10.00">/detail/coroutine_deleter.hpp</text>
</a>
</g>
</g>
<!-- Node6&#45;&gt;Node20 -->
<g id="edge28" class="edge">
<title>Node6&#45;&gt;Node20</title>
<path fill="none" stroke="midnightblue" d="M949.7,-205.94C962.51,-204.15 975.93,-202.4 988.5,-201 1189.23,-178.64 1241.14,-190.41 1441.5,-165 1446,-164.43 1450.62,-163.78 1455.28,-163.09"/>
<polygon fill="midnightblue" stroke="midnightblue" points="948.99,-202.51 939.58,-207.38 949.97,-209.44 948.99,-202.51"/>
</g>
<!-- Node21 -->
<g id="node21" class="node">
<title>Node21</title>
<g id="a_node21"><a xlink:href="promise__type_8hpp.html" target="_top" xlink:title=" ">
<polygon fill="none" stroke="black" points="1403.5,-67.5 1403.5,-97.5 1525.5,-97.5 1525.5,-67.5 1403.5,-67.5"/>
<text text-anchor="start" x="1411.5" y="-85.5" font-family="Helvetica,sans-Serif" font-size="10.00">include/yaclib/coroutine</text>
<text text-anchor="middle" x="1464.5" y="-74.5" font-family="Helvetica,sans-Serif" font-size="10.00">/detail/promise_type.hpp</text>
</a>
</g>
</g>
<!-- Node6&#45;&gt;Node21 -->
<g id="edge34" class="edge">
<title>Node6&#45;&gt;Node21</title>
<path fill="none" stroke="midnightblue" d="M949.71,-206C962.52,-204.21 975.93,-202.44 988.5,-201 1081.35,-190.36 1326.54,-211.69 1407.5,-165 1433.97,-149.73 1451.09,-116.62 1459.13,-97.63"/>
<polygon fill="midnightblue" stroke="midnightblue" points="948.99,-202.57 939.59,-207.44 949.98,-209.5 948.99,-202.57"/>
</g>
<!-- Node22 -->
<g id="node22" class="node">
<title>Node22</title>
<g id="a_node22"><a xlink:href="future__coro__traits_8hpp.html" target="_top" xlink:title=" ">
<polygon fill="none" stroke="black" points="1494.5,-0.5 1494.5,-30.5 1612.5,-30.5 1612.5,-0.5 1494.5,-0.5"/>
<text text-anchor="start" x="1502.5" y="-18.5" font-family="Helvetica,sans-Serif" font-size="10.00">include/yaclib/coroutine</text>
<text text-anchor="middle" x="1553.5" y="-7.5" font-family="Helvetica,sans-Serif" font-size="10.00">/future_coro_traits.hpp</text>
</a>
</g>
</g>
<!-- Node6&#45;&gt;Node22 -->
<g id="edge35" class="edge">
<title>Node6&#45;&gt;Node22</title>
<path fill="none" stroke="midnightblue" d="M949.68,-205.74C962.49,-203.96 975.91,-202.27 988.5,-201 1056.49,-194.14 1555.61,-214.72 1602.5,-165 1639.01,-126.29 1590.89,-59.81 1566.33,-30.77"/>
<polygon fill="midnightblue" stroke="midnightblue" points="948.97,-202.3 939.56,-207.17 949.95,-209.23 948.97,-202.3"/>
</g>
<!-- Node23 -->
<g id="node23" class="node">
<title>Node23</title>
<g id="a_node23"><a xlink:href="future__awaiter_8hpp.html" target="_top" xlink:title=" ">
<polygon fill="none" stroke="black" points="1274,-134.5 1274,-164.5 1399,-164.5 1399,-134.5 1274,-134.5"/>
<text text-anchor="start" x="1282" y="-152.5" font-family="Helvetica,sans-Serif" font-size="10.00">include/yaclib/coroutine</text>
<text text-anchor="middle" x="1336.5" y="-141.5" font-family="Helvetica,sans-Serif" font-size="10.00">/detail/future_awaiter.hpp</text>
</a>
</g>
</g>
<!-- Node6&#45;&gt;Node23 -->
<g id="edge32" class="edge">
<title>Node6&#45;&gt;Node23</title>
<path fill="none" stroke="midnightblue" d="M949.76,-206.46C962.57,-204.63 975.97,-202.73 988.5,-201 1108.86,-184.37 1139.53,-184.25 1259.5,-165 1264.2,-164.25 1269.06,-163.43 1273.93,-162.57"/>
<polygon fill="midnightblue" stroke="midnightblue" points="949.05,-203.02 939.65,-207.91 950.04,-209.95 949.05,-203.02"/>
</g>
<!-- Node24 -->
<g id="node24" class="node">
<title>Node24</title>
<g id="a_node24"><a xlink:href="future__impl_8cpp.html" target="_top" xlink:title=" ">
<polygon fill="none" stroke="black" points="1649.5,-140 1649.5,-159 1777.5,-159 1777.5,-140 1649.5,-140"/>
<text text-anchor="middle" x="1713.5" y="-147" font-family="Helvetica,sans-Serif" font-size="10.00">src/async/future_impl.cpp</text>
</a>
</g>
</g>
<!-- Node6&#45;&gt;Node24 -->
<g id="edge36" class="edge">
<title>Node6&#45;&gt;Node24</title>
<path fill="none" stroke="midnightblue" d="M949.67,-205.71C962.49,-203.93 975.91,-202.25 988.5,-201 1275.09,-172.51 1349.56,-199.39 1635.5,-165 1647.81,-163.52 1661.1,-161.29 1673.17,-159.02"/>
<polygon fill="midnightblue" stroke="midnightblue" points="948.96,-202.27 939.56,-207.14 949.95,-209.2 948.96,-202.27"/>
</g>
<!-- Node7&#45;&gt;Node8 -->
<g id="edge7" class="edge">
<title>Node7&#45;&gt;Node8</title>
<path fill="none" stroke="midnightblue" d="M508.31,-126.16C515.02,-116.68 522.63,-105.92 528.54,-97.58"/>
<polygon fill="midnightblue" stroke="midnightblue" points="505.4,-124.21 502.48,-134.4 511.12,-128.26 505.4,-124.21"/>
</g>
<!-- Node9 -->
<g id="node9" class="node">
<title>Node9</title>
<g id="a_node9"><a xlink:href="when__all_8cpp.html" target="_top" xlink:title=" ">
<polygon fill="none" stroke="black" points="824,-0.5 824,-30.5 925,-30.5 925,-0.5 824,-0.5"/>
<text text-anchor="start" x="832" y="-18.5" font-family="Helvetica,sans-Serif" font-size="10.00">test/example/async</text>
<text text-anchor="middle" x="874.5" y="-7.5" font-family="Helvetica,sans-Serif" font-size="10.00">/when_all.cpp</text>
</a>
</g>
</g>
<!-- Node8&#45;&gt;Node9 -->
<g id="edge8" class="edge">
<title>Node8&#45;&gt;Node9</title>
<path fill="none" stroke="midnightblue" d="M596.6,-70.26C660.76,-57.85 763.02,-38.07 823.98,-26.27"/>
<polygon fill="midnightblue" stroke="midnightblue" points="595.79,-66.85 586.64,-72.19 597.12,-73.72 595.79,-66.85"/>
</g>
<!-- Node10&#45;&gt;Node3 -->
<g id="edge12" class="edge">
<title>Node10&#45;&gt;Node3</title>
<path fill="none" stroke="midnightblue" d="M342.22,-125.87C336.29,-116.46 329.59,-105.83 324.38,-97.58"/>
<polygon fill="midnightblue" stroke="midnightblue" points="339.31,-127.81 347.6,-134.4 345.23,-124.07 339.31,-127.81"/>
</g>
<!-- Node10&#45;&gt;Node8 -->
<g id="edge11" class="edge">
<title>Node10&#45;&gt;Node8</title>
<path fill="none" stroke="midnightblue" d="M405.63,-130.96C434.94,-120.48 471.68,-107.37 499.09,-97.58"/>
<polygon fill="midnightblue" stroke="midnightblue" points="404.23,-127.74 395.99,-134.4 406.59,-134.33 404.23,-127.74"/>
</g>
<!-- Node11&#45;&gt;Node5 -->
<g id="edge14" class="edge">
<title>Node11&#45;&gt;Node5</title>
<path fill="none" stroke="midnightblue" d="M255.57,-162.1C386.03,-188.18 700.99,-251.12 829.49,-276.81"/>
<polygon fill="midnightblue" stroke="midnightblue" points="256.24,-158.67 245.75,-160.14 254.87,-165.54 256.24,-158.67"/>
</g>
<!-- Node14 -->
<g id="node14" class="node">
<title>Node14</title>
<g id="a_node14"><a xlink:href="wait__group_8cpp.html" target="_top" xlink:title=" ">
<polygon fill="none" stroke="black" points="714,-73 714,-92 833,-92 833,-73 714,-73"/>
<text text-anchor="middle" x="773.5" y="-80" font-family="Helvetica,sans-Serif" font-size="10.00">src/algo/wait_group.cpp</text>
</a>
</g>
</g>
<!-- Node13&#45;&gt;Node14 -->
<g id="edge17" class="edge">
<title>Node13&#45;&gt;Node14</title>
<path fill="none" stroke="midnightblue" d="M773.5,-124.25C773.5,-113.02 773.5,-100.38 773.5,-92.19"/>
<polygon fill="midnightblue" stroke="midnightblue" points="770,-124.4 773.5,-134.4 777,-124.4 770,-124.4"/>
</g>
<!-- Node16&#45;&gt;Node17 -->
<g id="edge22" class="edge">
<title>Node16&#45;&gt;Node17</title>
<path fill="none" stroke="midnightblue" d="M1020.47,-125.87C1026.7,-116.46 1033.73,-105.83 1039.19,-97.58"/>
<polygon fill="midnightblue" stroke="midnightblue" points="1017.43,-124.12 1014.83,-134.4 1023.27,-127.99 1017.43,-124.12"/>
</g>
<!-- Node18&#45;&gt;Node4 -->
<g id="edge26" class="edge">
<title>Node18&#45;&gt;Node4</title>
<path fill="none" stroke="midnightblue" d="M1155.65,-125.11C1146.27,-105.98 1130.19,-80.05 1107.5,-67 1085.98,-54.62 739.83,-29.3 607.44,-20.01"/>
<polygon fill="midnightblue" stroke="midnightblue" points="1152.57,-126.78 1159.95,-134.38 1158.92,-123.84 1152.57,-126.78"/>
</g>
<!-- Node18&#45;&gt;Node9 -->
<g id="edge25" class="edge">
<title>Node18&#45;&gt;Node9</title>
<path fill="none" stroke="midnightblue" d="M1164.87,-124.4C1163.05,-106.02 1157.5,-81.48 1141.5,-67 1110.37,-38.82 993.45,-25.42 925.09,-19.86"/>
<polygon fill="midnightblue" stroke="midnightblue" points="1161.38,-124.65 1165.56,-134.39 1168.36,-124.17 1161.38,-124.65"/>
</g>
<!-- Node18&#45;&gt;Node17 -->
<g id="edge24" class="edge">
<title>Node18&#45;&gt;Node17</title>
<path fill="none" stroke="midnightblue" d="M1131.18,-129.44C1112.83,-119.24 1090.62,-106.9 1073.84,-97.58"/>
<polygon fill="midnightblue" stroke="midnightblue" points="1129.67,-132.6 1140.11,-134.4 1133.07,-126.48 1129.67,-132.6"/>
</g>
<!-- Node20&#45;&gt;Node21 -->
<g id="edge29" class="edge">
<title>Node20&#45;&gt;Node21</title>
<path fill="none" stroke="midnightblue" d="M1504.68,-127.02C1495.74,-117.34 1485.43,-106.17 1477.49,-97.58"/>
<polygon fill="midnightblue" stroke="midnightblue" points="1502.13,-129.42 1511.48,-134.4 1507.27,-124.67 1502.13,-129.42"/>
</g>
<!-- Node20&#45;&gt;Node22 -->
<g id="edge31" class="edge">
<title>Node20&#45;&gt;Node22</title>
<path fill="none" stroke="midnightblue" d="M1529.8,-124.39C1535.84,-96.9 1545.51,-52.89 1550.42,-30.52"/>
<polygon fill="midnightblue" stroke="midnightblue" points="1526.33,-123.86 1527.6,-134.37 1533.17,-125.36 1526.33,-123.86"/>
</g>
<!-- Node21&#45;&gt;Node22 -->
<g id="edge30" class="edge">
<title>Node21&#45;&gt;Node22</title>
<path fill="none" stroke="midnightblue" d="M1491.95,-61.45C1505.64,-51.45 1521.87,-39.6 1534.23,-30.58"/>
<polygon fill="midnightblue" stroke="midnightblue" points="1489.82,-58.67 1483.81,-67.4 1493.95,-64.32 1489.82,-58.67"/>
</g>
<!-- Node23&#45;&gt;Node19 -->
<g id="edge33" class="edge">
<title>Node23&#45;&gt;Node19</title>
<path fill="none" stroke="midnightblue" d="M1325.07,-125.28C1320.51,-116.02 1315.41,-105.66 1311.43,-97.58"/>
<polygon fill="midnightblue" stroke="midnightblue" points="1322,-126.97 1329.56,-134.4 1328.28,-123.88 1322,-126.97"/>
</g>
<!-- Node26 -->
<g id="node26" class="node">
<title>Node26</title>
<g id="a_node26"><a xlink:href="mutex_8cpp.html" target="_top" xlink:title=" ">
<polygon fill="none" stroke="black" points="997.5,-207 997.5,-226 1125.5,-226 1125.5,-207 997.5,-207"/>
<text text-anchor="middle" x="1061.5" y="-214" font-family="Helvetica,sans-Serif" font-size="10.00">src/fault/mutex/mutex.cpp</text>
</a>
</g>
</g>
<!-- Node25&#45;&gt;Node26 -->
<g id="edge40" class="edge">
<title>Node25&#45;&gt;Node26</title>
<path fill="none" stroke="midnightblue" d="M1064.12,-263.59C1063.38,-250.71 1062.53,-235.7 1062,-226.39"/>
<polygon fill="midnightblue" stroke="midnightblue" points="1060.63,-263.95 1064.69,-273.73 1067.62,-263.55 1060.63,-263.95"/>
</g>
<!-- Node28 -->
<g id="node28" class="node">
<title>Node28</title>
<g id="a_node28"><a xlink:href="recursive__mutex_8cpp.html" target="_top" xlink:title=" ">
<polygon fill="none" stroke="black" points="1143.5,-201.5 1143.5,-231.5 1267.5,-231.5 1267.5,-201.5 1143.5,-201.5"/>
<text text-anchor="start" x="1151.5" y="-219.5" font-family="Helvetica,sans-Serif" font-size="10.00">src/fault/mutex/recursive</text>
<text text-anchor="middle" x="1205.5" y="-208.5" font-family="Helvetica,sans-Serif" font-size="10.00">_mutex.cpp</text>
</a>
</g>
</g>
<!-- Node27&#45;&gt;Node28 -->
<g id="edge42" class="edge">
<title>Node27&#45;&gt;Node28</title>
<path fill="none" stroke="midnightblue" d="M1205.5,-258.08C1205.5,-249.01 1205.5,-239.45 1205.5,-231.89"/>
<polygon fill="midnightblue" stroke="midnightblue" points="1202,-258.36 1205.5,-268.36 1209,-258.36 1202,-258.36"/>
</g>
<!-- Node30 -->
<g id="node30" class="node">
<title>Node30</title>
<g id="a_node30"><a xlink:href="recursive__timed__mutex_8cpp.html" target="_top" xlink:title=" ">
<polygon fill="none" stroke="black" points="1285.5,-201.5 1285.5,-231.5 1409.5,-231.5 1409.5,-201.5 1285.5,-201.5"/>
<text text-anchor="start" x="1293.5" y="-219.5" font-family="Helvetica,sans-Serif" font-size="10.00">src/fault/mutex/recursive</text>
<text text-anchor="middle" x="1347.5" y="-208.5" font-family="Helvetica,sans-Serif" font-size="10.00">_timed_mutex.cpp</text>
</a>
</g>
</g>
<!-- Node29&#45;&gt;Node30 -->
<g id="edge44" class="edge">
<title>Node29&#45;&gt;Node30</title>
<path fill="none" stroke="midnightblue" d="M1342.28,-258.38C1343.45,-249.21 1344.69,-239.53 1345.66,-231.89"/>
<polygon fill="midnightblue" stroke="midnightblue" points="1338.8,-258 1341.01,-268.36 1345.75,-258.89 1338.8,-258"/>
</g>
<!-- Node32 -->
<g id="node32" class="node">
<title>Node32</title>
<g id="a_node32"><a xlink:href="shared__mutex_8cpp.html" target="_top" xlink:title=" ">
<polygon fill="none" stroke="black" points="1428,-201.5 1428,-231.5 1541,-231.5 1541,-201.5 1428,-201.5"/>
<text text-anchor="start" x="1436" y="-219.5" font-family="Helvetica,sans-Serif" font-size="10.00">src/fault/mutex/shared</text>
<text text-anchor="middle" x="1484.5" y="-208.5" font-family="Helvetica,sans-Serif" font-size="10.00">_mutex.cpp</text>
</a>
</g>
</g>
<!-- Node31&#45;&gt;Node32 -->
<g id="edge46" class="edge">
<title>Node31&#45;&gt;Node32</title>
<path fill="none" stroke="midnightblue" d="M1473.99,-258.67C1476.35,-249.42 1478.85,-239.61 1480.83,-231.89"/>
<polygon fill="midnightblue" stroke="midnightblue" points="1470.6,-257.81 1471.51,-268.36 1477.38,-259.54 1470.6,-257.81"/>
</g>
<!-- Node34 -->
<g id="node34" class="node">
<title>Node34</title>
<g id="a_node34"><a xlink:href="shared__timed__mutex_8cpp.html" target="_top" xlink:title=" ">
<polygon fill="none" stroke="black" points="1559,-201.5 1559,-231.5 1672,-231.5 1672,-201.5 1559,-201.5"/>
<text text-anchor="start" x="1567" y="-219.5" font-family="Helvetica,sans-Serif" font-size="10.00">src/fault/mutex/shared</text>
<text text-anchor="middle" x="1615.5" y="-208.5" font-family="Helvetica,sans-Serif" font-size="10.00">_timed_mutex.cpp</text>
</a>
</g>
</g>
<!-- Node33&#45;&gt;Node34 -->
<g id="edge48" class="edge">
<title>Node33&#45;&gt;Node34</title>
<path fill="none" stroke="midnightblue" d="M1599.62,-258.97C1603.19,-249.63 1607,-239.7 1609.99,-231.89"/>
<polygon fill="midnightblue" stroke="midnightblue" points="1596.33,-257.77 1596.02,-268.36 1602.87,-260.28 1596.33,-257.77"/>
</g>
<!-- Node36 -->
<g id="node36" class="node">
<title>Node36</title>
<g id="a_node36"><a xlink:href="timed__mutex_8cpp.html" target="_top" xlink:title=" ">
<polygon fill="none" stroke="black" points="1690.5,-201.5 1690.5,-231.5 1798.5,-231.5 1798.5,-201.5 1690.5,-201.5"/>
<text text-anchor="start" x="1698.5" y="-219.5" font-family="Helvetica,sans-Serif" font-size="10.00">src/fault/mutex/timed</text>
<text text-anchor="middle" x="1744.5" y="-208.5" font-family="Helvetica,sans-Serif" font-size="10.00">_mutex.cpp</text>
</a>
</g>
</g>
<!-- Node35&#45;&gt;Node36 -->
<g id="edge50" class="edge">
<title>Node35&#45;&gt;Node36</title>
<path fill="none" stroke="midnightblue" d="M1737.29,-263.73C1738.95,-253.07 1740.85,-240.91 1742.28,-231.75"/>
<polygon fill="midnightblue" stroke="midnightblue" points="1733.81,-263.31 1735.73,-273.73 1740.73,-264.39 1733.81,-263.31"/>
</g>
<!-- Node38 -->
<g id="node38" class="node">
<title>Node38</title>
<g id="a_node38"><a xlink:href="thread_8cpp.html" target="_top" xlink:title=" ">
<polygon fill="none" stroke="black" points="1821.5,-207 1821.5,-226 1951.5,-226 1951.5,-207 1821.5,-207"/>
<text text-anchor="middle" x="1886.5" y="-214" font-family="Helvetica,sans-Serif" font-size="10.00">src/fault/thread/thread.cpp</text>
</a>
</g>
</g>
<!-- Node37&#45;&gt;Node38 -->
<g id="edge52" class="edge">
<title>Node37&#45;&gt;Node38</title>
<path fill="none" stroke="midnightblue" d="M1886.5,-263.59C1886.5,-250.71 1886.5,-235.7 1886.5,-226.39"/>
<polygon fill="midnightblue" stroke="midnightblue" points="1883,-263.73 1886.5,-273.73 1890,-263.73 1883,-263.73"/>
</g>
</g>
</svg>
        <g id="navigator" transform="translate(0 0)" fill="#404254">
                <rect fill="#f2f5e9" fill-opacity="0.5" stroke="#606060" stroke-width=".5" x="0" y="0" width="60" height="60"/>
                <use id="zoomplus" xlink:href="#zoomPlus" x="17" y="9" onmousedown="handleZoom(evt,'in')"/>
                <use id="zoomminus" xlink:href="#zoomMin" x="42" y="9" onmousedown="handleZoom(evt,'out')"/>
                <use id="reset" xlink:href="#resetDef" x="30" y="36" onmousedown="handleReset()"/>
                <g id="arrowUp" xlink:href="#dirArrow" transform="translate(30 24)" onmousedown="handlePan(0,-1)">
                  <use xlink:href="#rim" fill="#404040">
                        <set attributeName="fill" to="#808080" begin="arrowUp.mouseover" end="arrowUp.mouseout"/>
                  </use>
                  <path fill="none" stroke="white" stroke-width="1.5" d="M0,-3.0v7 M-2.5,-0.5L0,-3.0L2.5,-0.5"/>
                </g>
                <g id="arrowRight" xlink:href="#dirArrow" transform="rotate(90) translate(36 -43)" onmousedown="handlePan(1,0)">
                  <use xlink:href="#rim" fill="#404040">
                        <set attributeName="fill" to="#808080" begin="arrowRight.mouseover" end="arrowRight.mouseout"/>
                  </use>
                  <path fill="none" stroke="white" stroke-width="1.5" d="M0,-3.0v7 M-2.5,-0.5L0,-3.0L2.5,-0.5"/>
                </g>
                <g id="arrowDown" xlink:href="#dirArrow" transform="rotate(180) translate(-30 -48)" onmousedown="handlePan(0,1)">
                  <use xlink:href="#rim" fill="#404040">
                        <set attributeName="fill" to="#808080" begin="arrowDown.mouseover" end="arrowDown.mouseout"/>
                  </use>
                  <path fill="none" stroke="white" stroke-width="1.5" d="M0,-3.0v7 M-2.5,-0.5L0,-3.0L2.5,-0.5"/>
                </g>
                <g id="arrowLeft" xlink:href="#dirArrow" transform="rotate(270) translate(-36 17)" onmousedown="handlePan(-1,0)">
                  <use xlink:href="#rim" fill="#404040">
                        <set attributeName="fill" to="#808080" begin="arrowLeft.mouseover" end="arrowLeft.mouseout"/>
                  </use>
                  <path fill="none" stroke="white" stroke-width="1.5" d="M0,-3.0v7 M-2.5,-0.5L0,-3.0L2.5,-0.5"/>
                </g>
        </g>
        <svg viewBox="0 0 15 15" width="100%" height="30px" preserveAspectRatio="xMaxYMin meet">
         <g id="arrow_out" transform="scale(0.3 0.3)">
          <a xlink:href="log_8hpp__dep__incl_org.svg" target="_base">
           <rect id="button" ry="5" rx="5" y="6" x="6" height="38" width="38"
                fill="#f2f5e9" fill-opacity="0.5" stroke="#606060" stroke-width="1.0"/>
           <path id="arrow"
             d="M 11.500037,31.436501 C 11.940474,20.09759 22.043105,11.32322 32.158766,21.979434 L 37.068811,17.246167 C 37.068811,17.246167 37.088388,32 37.088388,32 L 22.160133,31.978069 C 22.160133,31.978069 26.997745,27.140456 26.997745,27.140456 C 18.528582,18.264221 13.291696,25.230495 11.500037,31.436501 z"
             style="fill:#404040;"/>
          </a>
         </g>
        </svg>
</svg>
