<?xml version="1.0" encoding="UTF-8" standalone="no"?>
<!DOCTYPE svg PUBLIC "-//W3C//DTD SVG 1.1//EN"
 "http://www.w3.org/Graphics/SVG/1.1/DTD/svg11.dtd">
<!-- Generated by graphviz version 2.50.0 (20220203.2022)
 -->
<!-- Title: src/log_info.cpp Pages: 1 -->
<svg width="213pt" height="140pt"
 viewBox="0.00 0.00 212.50 140.00" xmlns="http://www.w3.org/2000/svg" xmlns:xlink="http://www.w3.org/1999/xlink">
<g id="graph0" class="graph" transform="scale(1 1) rotate(0) translate(4 136)">
<title>src/log_info.cpp</title>
<!-- Node1 -->
<g id="node1" class="node">
<title>Node1</title>
<g id="a_node1"><a xlink:title=" ">
<polygon fill="#bfbfbf" stroke="black" points="67.5,-112.5 67.5,-131.5 152.5,-131.5 152.5,-112.5 67.5,-112.5"/>
<text text-anchor="middle" x="110" y="-119.5" font-family="Helvetica,sans-Serif" font-size="10.00">src/log_info.cpp</text>
</a>
</g>
</g>
<!-- Node2 -->
<g id="node2" class="node">
<title>Node2</title>
<g id="a_node2"><a xlink:title=" ">
<polygon fill="none" stroke="#bfbfbf" points="0,-0.5 0,-19.5 88,-19.5 88,-0.5 0,-0.5"/>
<text text-anchor="middle" x="44" y="-7.5" font-family="Helvetica,sans-Serif" font-size="10.00">yaclib/config.hpp</text>
</a>
</g>
</g>
<!-- Node1&#45;&gt;Node2 -->
<g id="edge1" class="edge">
<title>Node1&#45;&gt;Node2</title>
<path fill="none" stroke="midnightblue" d="M98.18,-112.26C87.78,-103.99 72.96,-90.69 64,-76 55.26,-61.67 50.06,-43.2 47.16,-29.62"/>
<polygon fill="midnightblue" stroke="midnightblue" points="50.55,-28.72 45.24,-19.55 43.68,-30.03 50.55,-28.72"/>
</g>
<!-- Node3 -->
<g id="node3" class="node">
<title>Node3</title>
<g id="a_node3"><a xlink:href="log_8hpp.html" target="_top" xlink:title=" ">
<polygon fill="none" stroke="black" points="72.5,-56.5 72.5,-75.5 147.5,-75.5 147.5,-56.5 72.5,-56.5"/>
<text text-anchor="middle" x="110" y="-63.5" font-family="Helvetica,sans-Serif" font-size="10.00">yaclib/log.hpp</text>
</a>
</g>
</g>
<!-- Node1&#45;&gt;Node3 -->
<g id="edge2" class="edge">
<title>Node1&#45;&gt;Node3</title>
<path fill="none" stroke="midnightblue" d="M110,-112.08C110,-105.01 110,-94.86 110,-85.99"/>
<polygon fill="midnightblue" stroke="midnightblue" points="113.5,-85.75 110,-75.75 106.5,-85.75 113.5,-85.75"/>
</g>
<!-- Node5 -->
<g id="node5" class="node">
<title>Node5</title>
<g id="a_node5"><a xlink:title=" ">
<polygon fill="none" stroke="#bfbfbf" points="165.5,-56.5 165.5,-75.5 204.5,-75.5 204.5,-56.5 165.5,-56.5"/>
<text text-anchor="middle" x="185" y="-63.5" font-family="Helvetica,sans-Serif" font-size="10.00">utility</text>
</a>
</g>
</g>
<!-- Node1&#45;&gt;Node5 -->
<g id="edge5" class="edge">
<title>Node1&#45;&gt;Node5</title>
<path fill="none" stroke="midnightblue" d="M122.05,-112.32C133.46,-104.11 150.83,-91.6 164.43,-81.81"/>
<polygon fill="midnightblue" stroke="midnightblue" points="166.66,-84.52 172.73,-75.83 162.57,-78.84 166.66,-84.52"/>
</g>
<!-- Node3&#45;&gt;Node2 -->
<g id="edge3" class="edge">
<title>Node3&#45;&gt;Node2</title>
<path fill="none" stroke="midnightblue" d="M99.4,-56.32C89.54,-48.26 74.65,-36.08 62.78,-26.37"/>
<polygon fill="midnightblue" stroke="midnightblue" points="64.75,-23.46 54.8,-19.83 60.32,-28.88 64.75,-23.46"/>
</g>
<!-- Node4 -->
<g id="node4" class="node">
<title>Node4</title>
<g id="a_node4"><a xlink:title=" ">
<polygon fill="none" stroke="#bfbfbf" points="106,-0.5 106,-19.5 172,-19.5 172,-0.5 106,-0.5"/>
<text text-anchor="middle" x="139" y="-7.5" font-family="Helvetica,sans-Serif" font-size="10.00">string_view</text>
</a>
</g>
</g>
<!-- Node3&#45;&gt;Node4 -->
<g id="edge4" class="edge">
<title>Node3&#45;&gt;Node4</title>
<path fill="none" stroke="midnightblue" d="M114.79,-56.08C118.76,-48.69 124.53,-37.95 129.43,-28.81"/>
<polygon fill="midnightblue" stroke="midnightblue" points="132.65,-30.22 134.3,-19.75 126.49,-26.91 132.65,-30.22"/>
</g>
</g>
</svg>
