<?xml version="1.0" encoding="UTF-8" standalone="no"?>
<!DOCTYPE svg PUBLIC "-//W3C//DTD SVG 1.1//EN"
 "http://www.w3.org/Graphics/SVG/1.1/DTD/svg11.dtd">
<!-- Generated by graphviz version 2.50.0 (20220203.2022)
 -->
<!-- Title: src/util/mpsc_stack.hpp Pages: 1 -->
<svg width="291pt" height="151pt"
 viewBox="0.00 0.00 291.00 151.00" xmlns="http://www.w3.org/2000/svg" xmlns:xlink="http://www.w3.org/1999/xlink">
<g id="graph0" class="graph" transform="scale(1 1) rotate(0) translate(4 147)">
<title>src/util/mpsc_stack.hpp</title>
<!-- Node1 -->
<g id="node1" class="node">
<title>Node1</title>
<g id="a_node1"><a xlink:title=" ">
<polygon fill="#bfbfbf" stroke="black" points="2,-123.5 2,-142.5 122,-142.5 122,-123.5 2,-123.5"/>
<text text-anchor="middle" x="62" y="-130.5" font-family="Helvetica,sans-Serif" font-size="10.00">src/util/mpsc_stack.hpp</text>
</a>
</g>
</g>
<!-- Node2 -->
<g id="node2" class="node">
<title>Node2</title>
<g id="a_node2"><a xlink:title=" ">
<polygon fill="none" stroke="#bfbfbf" points="0,-0.5 0,-19.5 88,-19.5 88,-0.5 0,-0.5"/>
<text text-anchor="middle" x="44" y="-7.5" font-family="Helvetica,sans-Serif" font-size="10.00">yaclib/config.hpp</text>
</a>
</g>
</g>
<!-- Node1&#45;&gt;Node2 -->
<g id="edge1" class="edge">
<title>Node1&#45;&gt;Node2</title>
<path fill="none" stroke="midnightblue" d="M46.27,-123.24C34.11,-115.48 18.19,-102.93 11,-87 5.33,-74.44 6.71,-69.09 11,-56 14.49,-45.34 21.57,-35.12 28.29,-27.12"/>
<polygon fill="midnightblue" stroke="midnightblue" points="30.9,-29.44 34.98,-19.66 25.7,-24.76 30.9,-29.44"/>
</g>
<!-- Node3 -->
<g id="node3" class="node">
<title>Node3</title>
<g id="a_node3"><a xlink:href="atomic_8hpp.html" target="_top" xlink:title=" ">
<polygon fill="none" stroke="black" points="121.5,-62 121.5,-81 234.5,-81 234.5,-62 121.5,-62"/>
<text text-anchor="middle" x="178" y="-69" font-family="Helvetica,sans-Serif" font-size="10.00">yaclib/fault/atomic.hpp</text>
</a>
</g>
</g>
<!-- Node1&#45;&gt;Node3 -->
<g id="edge2" class="edge">
<title>Node1&#45;&gt;Node3</title>
<path fill="none" stroke="midnightblue" d="M78.62,-123.48C97.92,-113.58 129.96,-97.14 152.43,-85.62"/>
<polygon fill="midnightblue" stroke="midnightblue" points="154.11,-88.69 161.41,-81.01 150.92,-82.46 154.11,-88.69"/>
</g>
<!-- Node7 -->
<g id="node7" class="node">
<title>Node7</title>
<g id="a_node7"><a xlink:href="node_8hpp.html" target="_top" xlink:title=" ">
<polygon fill="none" stroke="black" points="20.5,-56.5 20.5,-86.5 103.5,-86.5 103.5,-56.5 20.5,-56.5"/>
<text text-anchor="start" x="28.5" y="-74.5" font-family="Helvetica,sans-Serif" font-size="10.00">yaclib/util/detail</text>
<text text-anchor="middle" x="62" y="-63.5" font-family="Helvetica,sans-Serif" font-size="10.00">/node.hpp</text>
</a>
</g>
</g>
<!-- Node1&#45;&gt;Node7 -->
<g id="edge7" class="edge">
<title>Node1&#45;&gt;Node7</title>
<path fill="none" stroke="midnightblue" d="M62,-123.48C62,-116.47 62,-106.19 62,-96.7"/>
<polygon fill="midnightblue" stroke="midnightblue" points="65.5,-96.52 62,-86.52 58.5,-96.52 65.5,-96.52"/>
</g>
<!-- Node3&#45;&gt;Node2 -->
<g id="edge3" class="edge">
<title>Node3&#45;&gt;Node2</title>
<path fill="none" stroke="midnightblue" d="M158.8,-61.98C136.21,-51.95 98.5,-35.2 72.5,-23.65"/>
<polygon fill="midnightblue" stroke="midnightblue" points="73.72,-20.37 63.16,-19.51 70.88,-26.77 73.72,-20.37"/>
</g>
<!-- Node4 -->
<g id="node4" class="node">
<title>Node4</title>
<g id="a_node4"><a xlink:title=" ">
<polygon fill="none" stroke="#bfbfbf" points="105.5,-0.5 105.5,-19.5 154.5,-19.5 154.5,-0.5 105.5,-0.5"/>
<text text-anchor="middle" x="130" y="-7.5" font-family="Helvetica,sans-Serif" font-size="10.00">cstddef</text>
</a>
</g>
</g>
<!-- Node3&#45;&gt;Node4 -->
<g id="edge4" class="edge">
<title>Node3&#45;&gt;Node4</title>
<path fill="none" stroke="midnightblue" d="M171.12,-61.98C163.85,-52.96 152.2,-38.52 143.16,-27.31"/>
<polygon fill="midnightblue" stroke="midnightblue" points="145.87,-25.09 136.86,-19.51 140.42,-29.49 145.87,-25.09"/>
</g>
<!-- Node5 -->
<g id="node5" class="node">
<title>Node5</title>
<g id="a_node5"><a xlink:title=" ">
<polygon fill="none" stroke="#bfbfbf" points="173,-0.5 173,-19.5 219,-19.5 219,-0.5 173,-0.5"/>
<text text-anchor="middle" x="196" y="-7.5" font-family="Helvetica,sans-Serif" font-size="10.00">cstdint</text>
</a>
</g>
</g>
<!-- Node3&#45;&gt;Node5 -->
<g id="edge5" class="edge">
<title>Node3&#45;&gt;Node5</title>
<path fill="none" stroke="midnightblue" d="M180.58,-61.98C183.15,-53.49 187.17,-40.2 190.46,-29.32"/>
<polygon fill="midnightblue" stroke="midnightblue" points="193.88,-30.09 193.43,-19.51 187.18,-28.07 193.88,-30.09"/>
</g>
<!-- Node6 -->
<g id="node6" class="node">
<title>Node6</title>
<g id="a_node6"><a xlink:title=" ">
<polygon fill="none" stroke="#bfbfbf" points="237,-0.5 237,-19.5 283,-19.5 283,-0.5 237,-0.5"/>
<text text-anchor="middle" x="260" y="-7.5" font-family="Helvetica,sans-Serif" font-size="10.00">atomic</text>
</a>
</g>
</g>
<!-- Node3&#45;&gt;Node6 -->
<g id="edge6" class="edge">
<title>Node3&#45;&gt;Node6</title>
<path fill="none" stroke="midnightblue" d="M189.75,-61.98C202.78,-52.52 224.04,-37.1 239.76,-25.69"/>
<polygon fill="midnightblue" stroke="midnightblue" points="242.23,-28.21 248.27,-19.51 238.12,-22.55 242.23,-28.21"/>
</g>
<!-- Node7&#45;&gt;Node2 -->
<g id="edge8" class="edge">
<title>Node7&#45;&gt;Node2</title>
<path fill="none" stroke="midnightblue" d="M57.73,-56.4C55.28,-48.29 52.17,-38.01 49.53,-29.28"/>
<polygon fill="midnightblue" stroke="midnightblue" points="52.86,-28.22 46.62,-19.66 46.16,-30.24 52.86,-28.22"/>
</g>
</g>
</svg>
