<?xml version="1.0" encoding="UTF-8" standalone="no"?>
<!DOCTYPE svg PUBLIC "-//W3C//DTD SVG 1.1//EN"
 "http://www.w3.org/Graphics/SVG/1.1/DTD/svg11.dtd">
<!-- Generated by graphviz version 2.50.0 (20220203.2022)
 -->
<!-- Title: src/util/mpsc_stack.cpp Pages: 1 -->
<svg width="324pt" height="207pt"
 viewBox="0.00 0.00 323.50 207.00" xmlns="http://www.w3.org/2000/svg" xmlns:xlink="http://www.w3.org/1999/xlink">
<g id="graph0" class="graph" transform="scale(1 1) rotate(0) translate(4 203)">
<title>src/util/mpsc_stack.cpp</title>
<!-- Node1 -->
<g id="node1" class="node">
<title>Node1</title>
<g id="a_node1"><a xlink:title=" ">
<polygon fill="#bfbfbf" stroke="black" points="195.5,-179.5 195.5,-198.5 315.5,-198.5 315.5,-179.5 195.5,-179.5"/>
<text text-anchor="middle" x="255.5" y="-186.5" font-family="Helvetica,sans-Serif" font-size="10.00">src/util/mpsc_stack.cpp</text>
</a>
</g>
</g>
<!-- Node2 -->
<g id="node2" class="node">
<title>Node2</title>
<g id="a_node2"><a xlink:href="mpsc__stack_8hpp.html" target="_top" xlink:title=" ">
<polygon fill="none" stroke="black" points="123.5,-123.5 123.5,-142.5 227.5,-142.5 227.5,-123.5 123.5,-123.5"/>
<text text-anchor="middle" x="175.5" y="-130.5" font-family="Helvetica,sans-Serif" font-size="10.00">util/mpsc_stack.hpp</text>
</a>
</g>
</g>
<!-- Node1&#45;&gt;Node2 -->
<g id="edge1" class="edge">
<title>Node1&#45;&gt;Node2</title>
<path fill="none" stroke="midnightblue" d="M242.65,-179.32C230.28,-170.98 211.37,-158.21 196.76,-148.35"/>
<polygon fill="midnightblue" stroke="midnightblue" points="198.57,-145.35 188.32,-142.65 194.65,-151.15 198.57,-145.35"/>
</g>
<!-- Node3 -->
<g id="node3" class="node">
<title>Node3</title>
<g id="a_node3"><a xlink:title=" ">
<polygon fill="none" stroke="#bfbfbf" points="198.5,-0.5 198.5,-19.5 286.5,-19.5 286.5,-0.5 198.5,-0.5"/>
<text text-anchor="middle" x="242.5" y="-7.5" font-family="Helvetica,sans-Serif" font-size="10.00">yaclib/config.hpp</text>
</a>
</g>
</g>
<!-- Node1&#45;&gt;Node3 -->
<g id="edge10" class="edge">
<title>Node1&#45;&gt;Node3</title>
<path fill="none" stroke="midnightblue" d="M262.32,-179.36C278.43,-157.83 316.02,-100.33 295.5,-56 289.58,-43.21 278.03,-32.72 267.22,-25.1"/>
<polygon fill="midnightblue" stroke="midnightblue" points="269.12,-22.16 258.83,-19.61 265.29,-28.02 269.12,-22.16"/>
</g>
<!-- Node8 -->
<g id="node8" class="node">
<title>Node8</title>
<g id="a_node8"><a xlink:href="node_8hpp.html" target="_top" xlink:title=" ">
<polygon fill="none" stroke="black" points="204,-56.5 204,-86.5 287,-86.5 287,-56.5 204,-56.5"/>
<text text-anchor="start" x="212" y="-74.5" font-family="Helvetica,sans-Serif" font-size="10.00">yaclib/util/detail</text>
<text text-anchor="middle" x="245.5" y="-63.5" font-family="Helvetica,sans-Serif" font-size="10.00">/node.hpp</text>
</a>
</g>
</g>
<!-- Node1&#45;&gt;Node8 -->
<g id="edge11" class="edge">
<title>Node1&#45;&gt;Node8</title>
<path fill="none" stroke="midnightblue" d="M254.75,-179.32C253.25,-161.97 249.83,-122.46 247.59,-96.66"/>
<polygon fill="midnightblue" stroke="midnightblue" points="251.07,-96.21 246.72,-86.55 244.09,-96.81 251.07,-96.21"/>
</g>
<!-- Node2&#45;&gt;Node3 -->
<g id="edge2" class="edge">
<title>Node2&#45;&gt;Node3</title>
<path fill="none" stroke="midnightblue" d="M176.07,-123.43C177.37,-108.7 181.55,-78.04 194.5,-56 201.39,-44.27 212.26,-33.71 221.92,-25.78"/>
<polygon fill="midnightblue" stroke="midnightblue" points="224.22,-28.42 229.96,-19.52 219.92,-22.9 224.22,-28.42"/>
</g>
<!-- Node4 -->
<g id="node4" class="node">
<title>Node4</title>
<g id="a_node4"><a xlink:href="atomic_8hpp.html" target="_top" xlink:title=" ">
<polygon fill="none" stroke="black" points="34,-62 34,-81 147,-81 147,-62 34,-62"/>
<text text-anchor="middle" x="90.5" y="-69" font-family="Helvetica,sans-Serif" font-size="10.00">yaclib/fault/atomic.hpp</text>
</a>
</g>
</g>
<!-- Node2&#45;&gt;Node4 -->
<g id="edge3" class="edge">
<title>Node2&#45;&gt;Node4</title>
<path fill="none" stroke="midnightblue" d="M163.32,-123.48C149.69,-113.93 127.37,-98.31 111.03,-86.87"/>
<polygon fill="midnightblue" stroke="midnightblue" points="112.86,-83.88 102.66,-81.01 108.84,-89.61 112.86,-83.88"/>
</g>
<!-- Node2&#45;&gt;Node8 -->
<g id="edge8" class="edge">
<title>Node2&#45;&gt;Node8</title>
<path fill="none" stroke="midnightblue" d="M185.53,-123.48C194.83,-115.57 209.05,-103.48 221.3,-93.07"/>
<polygon fill="midnightblue" stroke="midnightblue" points="223.65,-95.67 229,-86.52 219.12,-90.33 223.65,-95.67"/>
</g>
<!-- Node4&#45;&gt;Node3 -->
<g id="edge4" class="edge">
<title>Node4&#45;&gt;Node3</title>
<path fill="none" stroke="midnightblue" d="M112.28,-61.98C138.24,-51.81 181.81,-34.76 211.33,-23.2"/>
<polygon fill="midnightblue" stroke="midnightblue" points="212.73,-26.41 220.76,-19.51 210.17,-19.9 212.73,-26.41"/>
</g>
<!-- Node5 -->
<g id="node5" class="node">
<title>Node5</title>
<g id="a_node5"><a xlink:title=" ">
<polygon fill="none" stroke="#bfbfbf" points="0,-0.5 0,-19.5 49,-19.5 49,-0.5 0,-0.5"/>
<text text-anchor="middle" x="24.5" y="-7.5" font-family="Helvetica,sans-Serif" font-size="10.00">cstddef</text>
</a>
</g>
</g>
<!-- Node4&#45;&gt;Node5 -->
<g id="edge5" class="edge">
<title>Node4&#45;&gt;Node5</title>
<path fill="none" stroke="midnightblue" d="M81.04,-61.98C70.75,-52.7 54.08,-37.67 41.51,-26.33"/>
<polygon fill="midnightblue" stroke="midnightblue" points="43.71,-23.61 33.94,-19.51 39.02,-28.8 43.71,-23.61"/>
</g>
<!-- Node6 -->
<g id="node6" class="node">
<title>Node6</title>
<g id="a_node6"><a xlink:title=" ">
<polygon fill="none" stroke="#bfbfbf" points="67.5,-0.5 67.5,-19.5 113.5,-19.5 113.5,-0.5 67.5,-0.5"/>
<text text-anchor="middle" x="90.5" y="-7.5" font-family="Helvetica,sans-Serif" font-size="10.00">cstdint</text>
</a>
</g>
</g>
<!-- Node4&#45;&gt;Node6 -->
<g id="edge6" class="edge">
<title>Node4&#45;&gt;Node6</title>
<path fill="none" stroke="midnightblue" d="M90.5,-61.98C90.5,-53.58 90.5,-40.48 90.5,-29.66"/>
<polygon fill="midnightblue" stroke="midnightblue" points="94,-29.51 90.5,-19.51 87,-29.51 94,-29.51"/>
</g>
<!-- Node7 -->
<g id="node7" class="node">
<title>Node7</title>
<g id="a_node7"><a xlink:title=" ">
<polygon fill="none" stroke="#bfbfbf" points="131.5,-0.5 131.5,-19.5 177.5,-19.5 177.5,-0.5 131.5,-0.5"/>
<text text-anchor="middle" x="154.5" y="-7.5" font-family="Helvetica,sans-Serif" font-size="10.00">atomic</text>
</a>
</g>
</g>
<!-- Node4&#45;&gt;Node7 -->
<g id="edge7" class="edge">
<title>Node4&#45;&gt;Node7</title>
<path fill="none" stroke="midnightblue" d="M99.67,-61.98C109.65,-52.7 125.81,-37.67 138.01,-26.33"/>
<polygon fill="midnightblue" stroke="midnightblue" points="140.41,-28.88 145.35,-19.51 135.64,-23.75 140.41,-28.88"/>
</g>
<!-- Node8&#45;&gt;Node3 -->
<g id="edge9" class="edge">
<title>Node8&#45;&gt;Node3</title>
<path fill="none" stroke="midnightblue" d="M244.79,-56.4C244.39,-48.47 243.88,-38.46 243.45,-29.86"/>
<polygon fill="midnightblue" stroke="midnightblue" points="246.94,-29.47 242.94,-19.66 239.94,-29.82 246.94,-29.47"/>
</g>
</g>
</svg>
