<?xml version="1.0" encoding="UTF-8" standalone="no"?>
<!DOCTYPE svg PUBLIC "-//W3C//DTD SVG 1.1//EN"
 "http://www.w3.org/Graphics/SVG/1.1/DTD/svg11.dtd">
<!-- Generated by graphviz version 2.50.0 (20220203.2022)
 -->
<!-- Title: include/yaclib/util/detail/mutex_event.hpp Pages: 1 -->
<svg width="1684pt" height="508pt"
 viewBox="0.00 0.00 1683.50 508.00" xmlns="http://www.w3.org/2000/svg" xmlns:xlink="http://www.w3.org/1999/xlink">
<g id="graph0" class="graph" transform="scale(1 1) rotate(0) translate(4 504)">
<title>include/yaclib/util/detail/mutex_event.hpp</title>
<!-- Node1 -->
<g id="node1" class="node">
<title>Node1</title>
<g id="a_node1"><a xlink:title=" ">
<polygon fill="#bfbfbf" stroke="black" points="1398.5,-469.5 1398.5,-499.5 1517.5,-499.5 1517.5,-469.5 1398.5,-469.5"/>
<text text-anchor="start" x="1406.5" y="-487.5" font-family="Helvetica,sans-Serif" font-size="10.00">include/yaclib/util</text>
<text text-anchor="middle" x="1458" y="-476.5" font-family="Helvetica,sans-Serif" font-size="10.00">/detail/mutex_event.hpp</text>
</a>
</g>
</g>
<!-- Node2 -->
<g id="node2" class="node">
<title>Node2</title>
<g id="a_node2"><a xlink:href="wait__impl_8hpp.html" target="_top" xlink:title=" ">
<polygon fill="none" stroke="black" points="1060.5,-402.5 1060.5,-432.5 1165.5,-432.5 1165.5,-402.5 1060.5,-402.5"/>
<text text-anchor="start" x="1068.5" y="-420.5" font-family="Helvetica,sans-Serif" font-size="10.00">include/yaclib/algo</text>
<text text-anchor="middle" x="1113" y="-409.5" font-family="Helvetica,sans-Serif" font-size="10.00">/detail/wait_impl.hpp</text>
</a>
</g>
</g>
<!-- Node1&#45;&gt;Node2 -->
<g id="edge1" class="edge">
<title>Node1&#45;&gt;Node2</title>
<path fill="none" stroke="midnightblue" d="M1388.43,-470.39C1322.64,-458 1225.37,-439.67 1165.76,-428.44"/>
<polygon fill="midnightblue" stroke="midnightblue" points="1387.82,-473.84 1398.3,-472.25 1389.12,-466.96 1387.82,-473.84"/>
</g>
<!-- Node13 -->
<g id="node13" class="node">
<title>Node13</title>
<g id="a_node13"><a xlink:href="wait__for_8hpp.html" target="_top" xlink:title=" ">
<polygon fill="none" stroke="black" points="0,-134.5 0,-164.5 96,-164.5 96,-134.5 0,-134.5"/>
<text text-anchor="start" x="8" y="-152.5" font-family="Helvetica,sans-Serif" font-size="10.00">include/yaclib/algo</text>
<text text-anchor="middle" x="48" y="-141.5" font-family="Helvetica,sans-Serif" font-size="10.00">/wait_for.hpp</text>
</a>
</g>
</g>
<!-- Node1&#45;&gt;Node13 -->
<g id="edge41" class="edge">
<title>Node1&#45;&gt;Node13</title>
<path fill="none" stroke="midnightblue" d="M1387.96,-483.23C1130.87,-481.31 254,-466.35 254,-351.5 254,-351.5 254,-351.5 254,-282.5 254,-242.36 141.72,-189.54 82.95,-164.64"/>
<polygon fill="midnightblue" stroke="midnightblue" points="1388.27,-486.73 1398.29,-483.3 1388.32,-479.73 1388.27,-486.73"/>
</g>
<!-- Node14 -->
<g id="node14" class="node">
<title>Node14</title>
<g id="a_node14"><a xlink:href="wait__group_8hpp.html" target="_top" xlink:title=" ">
<polygon fill="none" stroke="black" points="1568,-134.5 1568,-164.5 1664,-164.5 1664,-134.5 1568,-134.5"/>
<text text-anchor="start" x="1576" y="-152.5" font-family="Helvetica,sans-Serif" font-size="10.00">include/yaclib/algo</text>
<text text-anchor="middle" x="1616" y="-141.5" font-family="Helvetica,sans-Serif" font-size="10.00">/wait_group.hpp</text>
</a>
</g>
</g>
<!-- Node1&#45;&gt;Node14 -->
<g id="edge42" class="edge">
<title>Node1&#45;&gt;Node14</title>
<path fill="none" stroke="midnightblue" d="M1469.15,-459.86C1480.37,-433.89 1496,-390.66 1496,-351.5 1496,-351.5 1496,-351.5 1496,-282.5 1496,-227.53 1553.69,-185.33 1589.07,-164.62"/>
<polygon fill="midnightblue" stroke="midnightblue" points="1465.85,-458.68 1464.97,-469.24 1472.24,-461.53 1465.85,-458.68"/>
</g>
<!-- Node16 -->
<g id="node16" class="node">
<title>Node16</title>
<g id="a_node16"><a xlink:href="wait__until_8hpp.html" target="_top" xlink:title=" ">
<polygon fill="none" stroke="black" points="1454,-134.5 1454,-164.5 1550,-164.5 1550,-134.5 1454,-134.5"/>
<text text-anchor="start" x="1462" y="-152.5" font-family="Helvetica,sans-Serif" font-size="10.00">include/yaclib/algo</text>
<text text-anchor="middle" x="1502" y="-141.5" font-family="Helvetica,sans-Serif" font-size="10.00">/wait_until.hpp</text>
</a>
</g>
</g>
<!-- Node1&#45;&gt;Node16 -->
<g id="edge43" class="edge">
<title>Node1&#45;&gt;Node16</title>
<path fill="none" stroke="midnightblue" d="M1458,-458.99C1458,-432.49 1458,-389 1458,-351.5 1458,-351.5 1458,-351.5 1458,-282.5 1458,-237.57 1481.23,-188.25 1493.93,-164.63"/>
<polygon fill="midnightblue" stroke="midnightblue" points="1454.5,-459.24 1458,-469.24 1461.5,-459.24 1454.5,-459.24"/>
</g>
<!-- Node27 -->
<g id="node27" class="node">
<title>Node27</title>
<g id="a_node27"><a xlink:href="mutex__event_8cpp.html" target="_top" xlink:title=" ">
<polygon fill="none" stroke="black" points="1524,-408 1524,-427 1646,-427 1646,-408 1524,-408"/>
<text text-anchor="middle" x="1585" y="-415" font-family="Helvetica,sans-Serif" font-size="10.00">src/util/mutex_event.cpp</text>
</a>
</g>
</g>
<!-- Node1&#45;&gt;Node27 -->
<g id="edge44" class="edge">
<title>Node1&#45;&gt;Node27</title>
<path fill="none" stroke="midnightblue" d="M1494.53,-464.8C1518.88,-452.34 1549.72,-436.56 1568.38,-427.01"/>
<polygon fill="midnightblue" stroke="midnightblue" points="1492.86,-461.72 1485.56,-469.4 1496.05,-467.96 1492.86,-461.72"/>
</g>
<!-- Node3 -->
<g id="node3" class="node">
<title>Node3</title>
<g id="a_node3"><a xlink:href="wait_8hpp.html" target="_top" xlink:title=" ">
<polygon fill="none" stroke="black" points="893,-335.5 893,-365.5 989,-365.5 989,-335.5 893,-335.5"/>
<text text-anchor="start" x="901" y="-353.5" font-family="Helvetica,sans-Serif" font-size="10.00">include/yaclib/algo</text>
<text text-anchor="middle" x="941" y="-342.5" font-family="Helvetica,sans-Serif" font-size="10.00">/wait.hpp</text>
</a>
</g>
</g>
<!-- Node2&#45;&gt;Node3 -->
<g id="edge2" class="edge">
<title>Node2&#45;&gt;Node3</title>
<path fill="none" stroke="midnightblue" d="M1066.21,-398.82C1038.57,-388.37 1004.04,-375.32 978.25,-365.58"/>
<polygon fill="midnightblue" stroke="midnightblue" points="1065.09,-402.13 1075.68,-402.4 1067.56,-395.59 1065.09,-402.13"/>
</g>
<!-- Node2&#45;&gt;Node13 -->
<g id="edge38" class="edge">
<title>Node2&#45;&gt;Node13</title>
<path fill="none" stroke="midnightblue" d="M1050.24,-403.45C1004.12,-393.67 940.01,-379.67 884,-366 608.65,-298.8 543.34,-268.25 268,-201 195.93,-183.4 177.18,-182.15 105,-165 102.12,-164.32 99.16,-163.6 96.18,-162.87"/>
<polygon fill="midnightblue" stroke="midnightblue" points="1049.58,-406.89 1060.09,-405.53 1051.03,-400.04 1049.58,-406.89"/>
</g>
<!-- Node2&#45;&gt;Node16 -->
<g id="edge39" class="edge">
<title>Node2&#45;&gt;Node16</title>
<path fill="none" stroke="midnightblue" d="M1113.33,-392.2C1114.74,-374.64 1119.17,-351.24 1132,-335 1215.21,-229.68 1374.28,-179.78 1453.99,-160.53"/>
<polygon fill="midnightblue" stroke="midnightblue" points="1109.83,-392.1 1112.79,-402.27 1116.82,-392.47 1109.83,-392.1"/>
</g>
<!-- Node26 -->
<g id="node26" class="node">
<title>Node26</title>
<g id="a_node26"><a xlink:href="wait__impl_8cpp.html" target="_top" xlink:title=" ">
<polygon fill="none" stroke="black" points="1141.5,-341 1141.5,-360 1254.5,-360 1254.5,-341 1141.5,-341"/>
<text text-anchor="middle" x="1198" y="-348" font-family="Helvetica,sans-Serif" font-size="10.00">src/algo/wait_impl.cpp</text>
</a>
</g>
</g>
<!-- Node2&#45;&gt;Node26 -->
<g id="edge40" class="edge">
<title>Node2&#45;&gt;Node26</title>
<path fill="none" stroke="midnightblue" d="M1139.8,-396.01C1155.58,-383.94 1174.72,-369.3 1186.63,-360.19"/>
<polygon fill="midnightblue" stroke="midnightblue" points="1137.26,-393.54 1131.44,-402.4 1141.51,-399.1 1137.26,-393.54"/>
</g>
<!-- Node4 -->
<g id="node4" class="node">
<title>Node4</title>
<g id="a_node4"><a xlink:href="future__impl_8hpp.html" target="_top" xlink:title=" ">
<polygon fill="none" stroke="black" points="885,-268.5 885,-298.5 997,-298.5 997,-268.5 885,-268.5"/>
<text text-anchor="start" x="893" y="-286.5" font-family="Helvetica,sans-Serif" font-size="10.00">include/yaclib/async</text>
<text text-anchor="middle" x="941" y="-275.5" font-family="Helvetica,sans-Serif" font-size="10.00">/detail/future_impl.hpp</text>
</a>
</g>
</g>
<!-- Node3&#45;&gt;Node4 -->
<g id="edge3" class="edge">
<title>Node3&#45;&gt;Node4</title>
<path fill="none" stroke="midnightblue" d="M941,-325.11C941,-316.15 941,-306.32 941,-298.58"/>
<polygon fill="midnightblue" stroke="midnightblue" points="937.5,-325.4 941,-335.4 944.5,-325.4 937.5,-325.4"/>
</g>
<!-- Node5 -->
<g id="node5" class="node">
<title>Node5</title>
<g id="a_node5"><a xlink:href="future_8hpp.html" target="_top" xlink:title=" ">
<polygon fill="none" stroke="black" points="805,-201.5 805,-231.5 909,-231.5 909,-201.5 805,-201.5"/>
<text text-anchor="start" x="813" y="-219.5" font-family="Helvetica,sans-Serif" font-size="10.00">include/yaclib/async</text>
<text text-anchor="middle" x="857" y="-208.5" font-family="Helvetica,sans-Serif" font-size="10.00">/future.hpp</text>
</a>
</g>
</g>
<!-- Node4&#45;&gt;Node5 -->
<g id="edge4" class="edge">
<title>Node4&#45;&gt;Node5</title>
<path fill="none" stroke="midnightblue" d="M914.72,-262.17C901.88,-252.23 886.74,-240.51 875.19,-231.58"/>
<polygon fill="midnightblue" stroke="midnightblue" points="912.72,-265.04 922.77,-268.4 917.01,-259.51 912.72,-265.04"/>
</g>
<!-- Node5&#45;&gt;Node3 -->
<g id="edge14" class="edge">
<title>Node5&#45;&gt;Node3</title>
<path fill="none" stroke="midnightblue" d="M858.4,-241.89C860.36,-259.01 865.01,-281.84 876,-299 885.71,-314.16 901.61,-326.63 915.25,-335.39"/>
<polygon fill="midnightblue" stroke="midnightblue" points="861.85,-241.21 857.46,-231.57 854.88,-241.84 861.85,-241.21"/>
</g>
<!-- Node6 -->
<g id="node6" class="node">
<title>Node6</title>
<g id="a_node6"><a xlink:href="when__all__impl_8hpp.html" target="_top" xlink:title=" ">
<polygon fill="none" stroke="black" points="750.5,-134.5 750.5,-164.5 875.5,-164.5 875.5,-134.5 750.5,-134.5"/>
<text text-anchor="start" x="758.5" y="-152.5" font-family="Helvetica,sans-Serif" font-size="10.00">include/yaclib/algo</text>
<text text-anchor="middle" x="813" y="-141.5" font-family="Helvetica,sans-Serif" font-size="10.00">/detail/when_all_impl.hpp</text>
</a>
</g>
</g>
<!-- Node5&#45;&gt;Node6 -->
<g id="edge5" class="edge">
<title>Node5&#45;&gt;Node6</title>
<path fill="none" stroke="midnightblue" d="M841.68,-192.87C835.31,-183.46 828.12,-172.83 822.53,-164.58"/>
<polygon fill="midnightblue" stroke="midnightblue" points="838.95,-195.08 847.45,-201.4 844.75,-191.15 838.95,-195.08"/>
</g>
<!-- Node7 -->
<g id="node7" class="node">
<title>Node7</title>
<g id="a_node7"><a xlink:href="when__all_8hpp.html" target="_top" xlink:title=" ">
<polygon fill="none" stroke="black" points="670,-67.5 670,-97.5 766,-97.5 766,-67.5 670,-67.5"/>
<text text-anchor="start" x="678" y="-85.5" font-family="Helvetica,sans-Serif" font-size="10.00">include/yaclib/algo</text>
<text text-anchor="middle" x="718" y="-74.5" font-family="Helvetica,sans-Serif" font-size="10.00">/when_all.hpp</text>
</a>
</g>
</g>
<!-- Node5&#45;&gt;Node7 -->
<g id="edge19" class="edge">
<title>Node5&#45;&gt;Node7</title>
<path fill="none" stroke="midnightblue" d="M795.14,-200.06C775.46,-192.41 755.15,-181.21 741,-165 724.27,-145.84 719.65,-115.36 718.41,-97.6"/>
<polygon fill="midnightblue" stroke="midnightblue" points="794.13,-203.42 804.72,-203.54 796.51,-196.84 794.13,-203.42"/>
</g>
<!-- Node9 -->
<g id="node9" class="node">
<title>Node9</title>
<g id="a_node9"><a xlink:href="when__any__impl_8hpp.html" target="_top" xlink:title=" ">
<polygon fill="none" stroke="black" points="274.5,-134.5 274.5,-164.5 405.5,-164.5 405.5,-134.5 274.5,-134.5"/>
<text text-anchor="start" x="282.5" y="-152.5" font-family="Helvetica,sans-Serif" font-size="10.00">include/yaclib/algo</text>
<text text-anchor="middle" x="340" y="-141.5" font-family="Helvetica,sans-Serif" font-size="10.00">/detail/when_any_impl.hpp</text>
</a>
</g>
</g>
<!-- Node5&#45;&gt;Node9 -->
<g id="edge8" class="edge">
<title>Node5&#45;&gt;Node9</title>
<path fill="none" stroke="midnightblue" d="M794.73,-209.58C709.82,-201.21 553.03,-184.72 420,-165 415.39,-164.32 410.64,-163.57 405.87,-162.78"/>
<polygon fill="midnightblue" stroke="midnightblue" points="794.43,-213.06 804.72,-210.56 795.11,-206.1 794.43,-213.06"/>
</g>
<!-- Node10 -->
<g id="node10" class="node">
<title>Node10</title>
<g id="a_node10"><a xlink:href="when__any_8hpp.html" target="_top" xlink:title=" ">
<polygon fill="none" stroke="black" points="387,-67.5 387,-97.5 483,-97.5 483,-67.5 387,-67.5"/>
<text text-anchor="start" x="395" y="-85.5" font-family="Helvetica,sans-Serif" font-size="10.00">include/yaclib/algo</text>
<text text-anchor="middle" x="435" y="-74.5" font-family="Helvetica,sans-Serif" font-size="10.00">/when_any.hpp</text>
</a>
</g>
</g>
<!-- Node5&#45;&gt;Node10 -->
<g id="edge20" class="edge">
<title>Node5&#45;&gt;Node10</title>
<path fill="none" stroke="midnightblue" d="M794.62,-211.63C687.52,-204.41 477.77,-187.57 453,-165 434.25,-147.92 432.73,-116.11 433.64,-97.69"/>
<polygon fill="midnightblue" stroke="midnightblue" points="794.44,-215.12 804.65,-212.3 794.9,-208.14 794.44,-215.12"/>
</g>
<!-- Node12 -->
<g id="node12" class="node">
<title>Node12</title>
<g id="a_node12"><a xlink:href="when__impl_8hpp.html" target="_top" xlink:title=" ">
<polygon fill="none" stroke="black" points="584,-134.5 584,-164.5 694,-164.5 694,-134.5 584,-134.5"/>
<text text-anchor="start" x="592" y="-152.5" font-family="Helvetica,sans-Serif" font-size="10.00">include/yaclib/algo</text>
<text text-anchor="middle" x="639" y="-141.5" font-family="Helvetica,sans-Serif" font-size="10.00">/detail/when_impl.hpp</text>
</a>
</g>
</g>
<!-- Node5&#45;&gt;Node12 -->
<g id="edge11" class="edge">
<title>Node5&#45;&gt;Node12</title>
<path fill="none" stroke="midnightblue" d="M800.25,-198.58C764.84,-188.02 719.8,-174.59 686.33,-164.61"/>
<polygon fill="midnightblue" stroke="midnightblue" points="799.38,-201.97 809.97,-201.48 801.38,-195.26 799.38,-201.97"/>
</g>
<!-- Node5&#45;&gt;Node13 -->
<g id="edge15" class="edge">
<title>Node5&#45;&gt;Node13</title>
<path fill="none" stroke="midnightblue" d="M794.69,-211.47C617.43,-199.97 121.97,-167.7 105,-165 102.08,-164.53 99.08,-163.99 96.07,-163.38"/>
<polygon fill="midnightblue" stroke="midnightblue" points="794.7,-214.97 804.9,-212.13 795.15,-207.99 794.7,-214.97"/>
</g>
<!-- Node5&#45;&gt;Node14 -->
<g id="edge16" class="edge">
<title>Node5&#45;&gt;Node14</title>
<path fill="none" stroke="midnightblue" d="M919.69,-214.71C1042.95,-212.33 1325.18,-202.84 1559,-165 1561.92,-164.53 1564.92,-163.97 1567.92,-163.37"/>
<polygon fill="midnightblue" stroke="midnightblue" points="919.26,-211.21 909.33,-214.9 919.39,-218.21 919.26,-211.21"/>
</g>
<!-- Node5&#45;&gt;Node16 -->
<g id="edge18" class="edge">
<title>Node5&#45;&gt;Node16</title>
<path fill="none" stroke="midnightblue" d="M919.56,-211.22C1048.73,-202.2 1341.1,-180.77 1440,-165 1444.48,-164.29 1449.11,-163.43 1453.73,-162.49"/>
<polygon fill="midnightblue" stroke="midnightblue" points="919.17,-207.74 909.43,-211.93 919.65,-214.72 919.17,-207.74"/>
</g>
<!-- Node17 -->
<g id="node17" class="node">
<title>Node17</title>
<g id="a_node17"><a xlink:href="contract_8hpp.html" target="_top" xlink:title=" ">
<polygon fill="none" stroke="black" points="114,-134.5 114,-164.5 218,-164.5 218,-134.5 114,-134.5"/>
<text text-anchor="start" x="122" y="-152.5" font-family="Helvetica,sans-Serif" font-size="10.00">include/yaclib/async</text>
<text text-anchor="middle" x="166" y="-141.5" font-family="Helvetica,sans-Serif" font-size="10.00">/contract.hpp</text>
</a>
</g>
</g>
<!-- Node5&#45;&gt;Node17 -->
<g id="edge21" class="edge">
<title>Node5&#45;&gt;Node17</title>
<path fill="none" stroke="midnightblue" d="M794.41,-211.53C658.35,-202.72 339.29,-181.04 232,-165 227.47,-164.32 222.8,-163.52 218.12,-162.63"/>
<polygon fill="midnightblue" stroke="midnightblue" points="794.46,-215.04 804.66,-212.19 794.91,-208.05 794.46,-215.04"/>
</g>
<!-- Node18 -->
<g id="node18" class="node">
<title>Node18</title>
<g id="a_node18"><a xlink:href="simple_8cpp.html" target="_top" xlink:title=" ">
<polygon fill="none" stroke="black" points="195.5,-67.5 195.5,-97.5 296.5,-97.5 296.5,-67.5 195.5,-67.5"/>
<text text-anchor="start" x="203.5" y="-85.5" font-family="Helvetica,sans-Serif" font-size="10.00">test/example/async</text>
<text text-anchor="middle" x="246" y="-74.5" font-family="Helvetica,sans-Serif" font-size="10.00">/simple.cpp</text>
</a>
</g>
</g>
<!-- Node5&#45;&gt;Node18 -->
<g id="edge37" class="edge">
<title>Node5&#45;&gt;Node18</title>
<path fill="none" stroke="midnightblue" d="M794.56,-211.14C644.45,-200.53 274.94,-173.6 265,-165 245.67,-148.27 243.94,-116.02 244.74,-97.5"/>
<polygon fill="midnightblue" stroke="midnightblue" points="794.76,-214.66 804.98,-211.87 795.25,-207.68 794.76,-214.66"/>
</g>
<!-- Node19 -->
<g id="node19" class="node">
<title>Node19</title>
<g id="a_node19"><a xlink:href="run_8hpp.html" target="_top" xlink:title=" ">
<polygon fill="none" stroke="black" points="462,-134.5 462,-164.5 566,-164.5 566,-134.5 462,-134.5"/>
<text text-anchor="start" x="470" y="-152.5" font-family="Helvetica,sans-Serif" font-size="10.00">include/yaclib/async</text>
<text text-anchor="middle" x="514" y="-141.5" font-family="Helvetica,sans-Serif" font-size="10.00">/run.hpp</text>
</a>
</g>
</g>
<!-- Node5&#45;&gt;Node19 -->
<g id="edge23" class="edge">
<title>Node5&#45;&gt;Node19</title>
<path fill="none" stroke="midnightblue" d="M794.87,-205.41C737.61,-195.86 650.33,-180.69 575,-165 572.12,-164.4 569.17,-163.77 566.2,-163.11"/>
<polygon fill="midnightblue" stroke="midnightblue" points="794.42,-208.88 804.86,-207.06 795.57,-201.97 794.42,-208.88"/>
</g>
<!-- Node20 -->
<g id="node20" class="node">
<title>Node20</title>
<g id="a_node20"><a xlink:href="await_8hpp.html" target="_top" xlink:title=" ">
<polygon fill="none" stroke="black" points="1065,-67.5 1065,-97.5 1183,-97.5 1183,-67.5 1065,-67.5"/>
<text text-anchor="start" x="1073" y="-85.5" font-family="Helvetica,sans-Serif" font-size="10.00">include/yaclib/coroutine</text>
<text text-anchor="middle" x="1124" y="-74.5" font-family="Helvetica,sans-Serif" font-size="10.00">/await.hpp</text>
</a>
</g>
</g>
<!-- Node5&#45;&gt;Node20 -->
<g id="edge27" class="edge">
<title>Node5&#45;&gt;Node20</title>
<path fill="none" stroke="midnightblue" d="M919.29,-214.77C1002.15,-212.34 1141.92,-202.59 1174,-165 1192.32,-143.53 1164.26,-114.64 1143.34,-97.65"/>
<polygon fill="midnightblue" stroke="midnightblue" points="919.14,-211.28 909.23,-215.04 919.32,-218.27 919.14,-211.28"/>
</g>
<!-- Node21 -->
<g id="node21" class="node">
<title>Node21</title>
<g id="a_node21"><a xlink:href="coroutine__deleter_8hpp.html" target="_top" xlink:title=" ">
<polygon fill="none" stroke="black" points="1260,-134.5 1260,-164.5 1398,-164.5 1398,-134.5 1260,-134.5"/>
<text text-anchor="start" x="1268" y="-152.5" font-family="Helvetica,sans-Serif" font-size="10.00">include/yaclib/coroutine</text>
<text text-anchor="middle" x="1329" y="-141.5" font-family="Helvetica,sans-Serif" font-size="10.00">/detail/coroutine_deleter.hpp</text>
</a>
</g>
</g>
<!-- Node5&#45;&gt;Node21 -->
<g id="edge28" class="edge">
<title>Node5&#45;&gt;Node21</title>
<path fill="none" stroke="midnightblue" d="M919.01,-208.3C995.87,-199.18 1130.83,-182.53 1246,-165 1250.48,-164.32 1255.1,-163.59 1259.75,-162.83"/>
<polygon fill="midnightblue" stroke="midnightblue" points="918.53,-204.83 909.01,-209.48 919.35,-211.78 918.53,-204.83"/>
</g>
<!-- Node22 -->
<g id="node22" class="node">
<title>Node22</title>
<g id="a_node22"><a xlink:href="promise__type_8hpp.html" target="_top" xlink:title=" ">
<polygon fill="none" stroke="black" points="1327,-67.5 1327,-97.5 1449,-97.5 1449,-67.5 1327,-67.5"/>
<text text-anchor="start" x="1335" y="-85.5" font-family="Helvetica,sans-Serif" font-size="10.00">include/yaclib/coroutine</text>
<text text-anchor="middle" x="1388" y="-74.5" font-family="Helvetica,sans-Serif" font-size="10.00">/detail/promise_type.hpp</text>
</a>
</g>
</g>
<!-- Node5&#45;&gt;Node22 -->
<g id="edge34" class="edge">
<title>Node5&#45;&gt;Node22</title>
<path fill="none" stroke="midnightblue" d="M919.55,-212C1060.26,-203.82 1390.74,-182.82 1407,-165 1423.94,-146.43 1409.31,-115.74 1398.04,-97.79"/>
<polygon fill="midnightblue" stroke="midnightblue" points="919.13,-208.52 909.35,-212.59 919.54,-215.51 919.13,-208.52"/>
</g>
<!-- Node23 -->
<g id="node23" class="node">
<title>Node23</title>
<g id="a_node23"><a xlink:href="future__coro__traits_8hpp.html" target="_top" xlink:title=" ">
<polygon fill="none" stroke="black" points="1240,-0.5 1240,-30.5 1358,-30.5 1358,-0.5 1240,-0.5"/>
<text text-anchor="start" x="1248" y="-18.5" font-family="Helvetica,sans-Serif" font-size="10.00">include/yaclib/coroutine</text>
<text text-anchor="middle" x="1299" y="-7.5" font-family="Helvetica,sans-Serif" font-size="10.00">/future_coro_traits.hpp</text>
</a>
</g>
</g>
<!-- Node5&#45;&gt;Node23 -->
<g id="edge35" class="edge">
<title>Node5&#45;&gt;Node23</title>
<path fill="none" stroke="midnightblue" d="M919.28,-211.8C1003,-205.87 1146.5,-192.04 1191,-165 1244.94,-132.22 1280.05,-61.31 1293.19,-30.87"/>
<polygon fill="midnightblue" stroke="midnightblue" points="918.86,-208.32 909.13,-212.5 919.34,-215.3 918.86,-208.32"/>
</g>
<!-- Node24 -->
<g id="node24" class="node">
<title>Node24</title>
<g id="a_node24"><a xlink:href="future__awaiter_8hpp.html" target="_top" xlink:title=" ">
<polygon fill="none" stroke="black" points="1040.5,-134.5 1040.5,-164.5 1165.5,-164.5 1165.5,-134.5 1040.5,-134.5"/>
<text text-anchor="start" x="1048.5" y="-152.5" font-family="Helvetica,sans-Serif" font-size="10.00">include/yaclib/coroutine</text>
<text text-anchor="middle" x="1103" y="-141.5" font-family="Helvetica,sans-Serif" font-size="10.00">/detail/future_awaiter.hpp</text>
</a>
</g>
</g>
<!-- Node5&#45;&gt;Node24 -->
<g id="edge32" class="edge">
<title>Node5&#45;&gt;Node24</title>
<path fill="none" stroke="midnightblue" d="M918.88,-199.15C959.16,-188.51 1011.17,-174.76 1049.63,-164.6"/>
<polygon fill="midnightblue" stroke="midnightblue" points="917.94,-195.78 909.17,-201.72 919.73,-202.54 917.94,-195.78"/>
</g>
<!-- Node25 -->
<g id="node25" class="node">
<title>Node25</title>
<g id="a_node25"><a xlink:href="future__impl_8cpp.html" target="_top" xlink:title=" ">
<polygon fill="none" stroke="black" points="894,-140 894,-159 1022,-159 1022,-140 894,-140"/>
<text text-anchor="middle" x="958" y="-147" font-family="Helvetica,sans-Serif" font-size="10.00">src/async/future_impl.cpp</text>
</a>
</g>
</g>
<!-- Node5&#45;&gt;Node25 -->
<g id="edge36" class="edge">
<title>Node5&#45;&gt;Node25</title>
<path fill="none" stroke="midnightblue" d="M887.34,-195.97C906.49,-183.65 930.27,-168.35 944.78,-159.01"/>
<polygon fill="midnightblue" stroke="midnightblue" points="885.43,-193.04 878.92,-201.4 889.22,-198.93 885.43,-193.04"/>
</g>
<!-- Node6&#45;&gt;Node7 -->
<g id="edge6" class="edge">
<title>Node6&#45;&gt;Node7</title>
<path fill="none" stroke="midnightblue" d="M784.11,-128.73C769.41,-118.68 751.89,-106.68 738.57,-97.58"/>
<polygon fill="midnightblue" stroke="midnightblue" points="782.16,-131.64 792.39,-134.4 786.11,-125.86 782.16,-131.64"/>
</g>
<!-- Node8 -->
<g id="node8" class="node">
<title>Node8</title>
<g id="a_node8"><a xlink:href="when__all_8cpp.html" target="_top" xlink:title=" ">
<polygon fill="none" stroke="black" points="625.5,-0.5 625.5,-30.5 726.5,-30.5 726.5,-0.5 625.5,-0.5"/>
<text text-anchor="start" x="633.5" y="-18.5" font-family="Helvetica,sans-Serif" font-size="10.00">test/example/async</text>
<text text-anchor="middle" x="676" y="-7.5" font-family="Helvetica,sans-Serif" font-size="10.00">/when_all.cpp</text>
</a>
</g>
</g>
<!-- Node7&#45;&gt;Node8 -->
<g id="edge7" class="edge">
<title>Node7&#45;&gt;Node8</title>
<path fill="none" stroke="midnightblue" d="M703.38,-58.87C697.3,-49.46 690.43,-38.83 685.1,-30.58"/>
<polygon fill="midnightblue" stroke="midnightblue" points="700.52,-60.9 708.89,-67.4 706.4,-57.1 700.52,-60.9"/>
</g>
<!-- Node9&#45;&gt;Node10 -->
<g id="edge9" class="edge">
<title>Node9&#45;&gt;Node10</title>
<path fill="none" stroke="midnightblue" d="M368.89,-128.73C383.59,-118.68 401.11,-106.68 414.43,-97.58"/>
<polygon fill="midnightblue" stroke="midnightblue" points="366.89,-125.86 360.61,-134.4 370.84,-131.64 366.89,-125.86"/>
</g>
<!-- Node11 -->
<g id="node11" class="node">
<title>Node11</title>
<g id="a_node11"><a xlink:href="when__any_8cpp.html" target="_top" xlink:title=" ">
<polygon fill="none" stroke="black" points="423.5,-0.5 423.5,-30.5 524.5,-30.5 524.5,-0.5 423.5,-0.5"/>
<text text-anchor="start" x="431.5" y="-18.5" font-family="Helvetica,sans-Serif" font-size="10.00">test/example/async</text>
<text text-anchor="middle" x="474" y="-7.5" font-family="Helvetica,sans-Serif" font-size="10.00">/when_any.cpp</text>
</a>
</g>
</g>
<!-- Node10&#45;&gt;Node11 -->
<g id="edge10" class="edge">
<title>Node10&#45;&gt;Node11</title>
<path fill="none" stroke="midnightblue" d="M448.75,-58.58C454.36,-49.24 460.65,-38.75 465.55,-30.58"/>
<polygon fill="midnightblue" stroke="midnightblue" points="445.61,-57.02 443.46,-67.4 451.61,-60.62 445.61,-57.02"/>
</g>
<!-- Node12&#45;&gt;Node7 -->
<g id="edge12" class="edge">
<title>Node12&#45;&gt;Node7</title>
<path fill="none" stroke="midnightblue" d="M664.06,-127.88C676.06,-118.01 690.13,-106.43 700.89,-97.58"/>
<polygon fill="midnightblue" stroke="midnightblue" points="661.64,-125.34 656.14,-134.4 666.09,-130.75 661.64,-125.34"/>
</g>
<!-- Node12&#45;&gt;Node10 -->
<g id="edge13" class="edge">
<title>Node12&#45;&gt;Node10</title>
<path fill="none" stroke="midnightblue" d="M585.04,-131.31C552.04,-120.79 510.34,-107.51 479.29,-97.61"/>
<polygon fill="midnightblue" stroke="midnightblue" points="584.4,-134.77 594.99,-134.48 586.52,-128.11 584.4,-134.77"/>
</g>
<!-- Node15 -->
<g id="node15" class="node">
<title>Node15</title>
<g id="a_node15"><a xlink:href="wait__group_8cpp.html" target="_top" xlink:title=" ">
<polygon fill="none" stroke="black" points="1556.5,-73 1556.5,-92 1675.5,-92 1675.5,-73 1556.5,-73"/>
<text text-anchor="middle" x="1616" y="-80" font-family="Helvetica,sans-Serif" font-size="10.00">src/algo/wait_group.cpp</text>
</a>
</g>
</g>
<!-- Node14&#45;&gt;Node15 -->
<g id="edge17" class="edge">
<title>Node14&#45;&gt;Node15</title>
<path fill="none" stroke="midnightblue" d="M1616,-124.25C1616,-113.02 1616,-100.38 1616,-92.19"/>
<polygon fill="midnightblue" stroke="midnightblue" points="1612.5,-124.4 1616,-134.4 1619.5,-124.4 1612.5,-124.4"/>
</g>
<!-- Node17&#45;&gt;Node18 -->
<g id="edge22" class="edge">
<title>Node17&#45;&gt;Node18</title>
<path fill="none" stroke="midnightblue" d="M191.37,-127.88C203.53,-118.01 217.78,-106.43 228.68,-97.58"/>
<polygon fill="midnightblue" stroke="midnightblue" points="188.91,-125.37 183.36,-134.4 193.33,-130.81 188.91,-125.37"/>
</g>
<!-- Node19&#45;&gt;Node8 -->
<g id="edge25" class="edge">
<title>Node19&#45;&gt;Node8</title>
<path fill="none" stroke="midnightblue" d="M539.23,-127.94C572.49,-100.84 630.13,-53.88 658.79,-30.52"/>
<polygon fill="midnightblue" stroke="midnightblue" points="536.88,-125.34 531.34,-134.37 541.3,-130.77 536.88,-125.34"/>
</g>
<!-- Node19&#45;&gt;Node11 -->
<g id="edge26" class="edge">
<title>Node19&#45;&gt;Node11</title>
<path fill="none" stroke="midnightblue" d="M508.04,-124.46C503.87,-108.15 497.99,-86.16 492,-67 488.11,-54.56 483.09,-40.63 479.34,-30.55"/>
<polygon fill="midnightblue" stroke="midnightblue" points="504.68,-125.43 510.52,-134.27 511.46,-123.72 504.68,-125.43"/>
</g>
<!-- Node19&#45;&gt;Node18 -->
<g id="edge24" class="edge">
<title>Node19&#45;&gt;Node18</title>
<path fill="none" stroke="midnightblue" d="M451.91,-133.44C404.82,-122.02 340.88,-106.51 296.81,-95.82"/>
<polygon fill="midnightblue" stroke="midnightblue" points="451.15,-136.86 461.69,-135.81 452.8,-130.05 451.15,-136.86"/>
</g>
<!-- Node21&#45;&gt;Node22 -->
<g id="edge29" class="edge">
<title>Node21&#45;&gt;Node22</title>
<path fill="none" stroke="midnightblue" d="M1348.75,-126.74C1357.48,-117.12 1367.5,-106.09 1375.22,-97.58"/>
<polygon fill="midnightblue" stroke="midnightblue" points="1345.93,-124.64 1341.8,-134.4 1351.11,-129.34 1345.93,-124.64"/>
</g>
<!-- Node21&#45;&gt;Node23 -->
<g id="edge31" class="edge">
<title>Node21&#45;&gt;Node23</title>
<path fill="none" stroke="midnightblue" d="M1323.52,-124.39C1317.27,-96.9 1307.27,-52.89 1302.19,-30.52"/>
<polygon fill="midnightblue" stroke="midnightblue" points="1320.16,-125.4 1325.79,-134.37 1326.99,-123.85 1320.16,-125.4"/>
</g>
<!-- Node22&#45;&gt;Node23 -->
<g id="edge30" class="edge">
<title>Node22&#45;&gt;Node23</title>
<path fill="none" stroke="midnightblue" d="M1360.55,-61.45C1346.86,-51.45 1330.63,-39.6 1318.27,-30.58"/>
<polygon fill="midnightblue" stroke="midnightblue" points="1358.55,-64.32 1368.69,-67.4 1362.68,-58.67 1358.55,-64.32"/>
</g>
<!-- Node24&#45;&gt;Node20 -->
<g id="edge33" class="edge">
<title>Node24&#45;&gt;Node20</title>
<path fill="none" stroke="midnightblue" d="M1110.69,-124.7C1113.63,-115.59 1116.89,-105.49 1119.45,-97.58"/>
<polygon fill="midnightblue" stroke="midnightblue" points="1107.3,-123.8 1107.56,-134.4 1113.96,-125.96 1107.3,-123.8"/>
</g>
</g>
</svg>
