<?xml version="1.0" encoding="UTF-8" standalone="no"?>
<!DOCTYPE svg PUBLIC "-//W3C//DTD SVG 1.1//EN"
 "http://www.w3.org/Graphics/SVG/1.1/DTD/svg11.dtd">
<!-- Generated by graphviz version 2.50.0 (20220203.2022)
 -->
<!-- Title: include/yaclib/util/detail/mutex_event.hpp Pages: 1 -->
<svg width="452pt" height="162pt"
 viewBox="0.00 0.00 451.50 162.00" xmlns="http://www.w3.org/2000/svg" xmlns:xlink="http://www.w3.org/1999/xlink">
<g id="graph0" class="graph" transform="scale(1 1) rotate(0) translate(4 158)">
<title>include/yaclib/util/detail/mutex_event.hpp</title>
<!-- Node1 -->
<g id="node1" class="node">
<title>Node1</title>
<g id="a_node1"><a xlink:title=" ">
<polygon fill="#bfbfbf" stroke="black" points="147,-123.5 147,-153.5 266,-153.5 266,-123.5 147,-123.5"/>
<text text-anchor="start" x="155" y="-141.5" font-family="Helvetica,sans-Serif" font-size="10.00">include/yaclib/util</text>
<text text-anchor="middle" x="206.5" y="-130.5" font-family="Helvetica,sans-Serif" font-size="10.00">/detail/mutex_event.hpp</text>
</a>
</g>
</g>
<!-- Node2 -->
<g id="node2" class="node">
<title>Node2</title>
<g id="a_node2"><a xlink:title=" ">
<polygon fill="none" stroke="#bfbfbf" points="140.5,-0.5 140.5,-19.5 228.5,-19.5 228.5,-0.5 140.5,-0.5"/>
<text text-anchor="middle" x="184.5" y="-7.5" font-family="Helvetica,sans-Serif" font-size="10.00">yaclib/config.hpp</text>
</a>
</g>
</g>
<!-- Node1&#45;&gt;Node2 -->
<g id="edge1" class="edge">
<title>Node1&#45;&gt;Node2</title>
<path fill="none" stroke="midnightblue" d="M184.13,-123.35C172.33,-114.5 158.99,-101.95 152.5,-87 147.02,-74.36 148.31,-69.12 152.5,-56 155.84,-45.54 162.6,-35.43 169.05,-27.45"/>
<polygon fill="midnightblue" stroke="midnightblue" points="171.85,-29.56 175.75,-19.71 166.56,-24.98 171.85,-29.56"/>
</g>
<!-- Node3 -->
<g id="node3" class="node">
<title>Node3</title>
<g id="a_node3"><a xlink:href="condition__variable_8hpp.html" target="_top" xlink:title=" ">
<polygon fill="none" stroke="black" points="0,-56.5 0,-86.5 105,-86.5 105,-56.5 0,-56.5"/>
<text text-anchor="start" x="8" y="-74.5" font-family="Helvetica,sans-Serif" font-size="10.00">yaclib/fault/condition</text>
<text text-anchor="middle" x="52.5" y="-63.5" font-family="Helvetica,sans-Serif" font-size="10.00">_variable.hpp</text>
</a>
</g>
</g>
<!-- Node1&#45;&gt;Node3 -->
<g id="edge2" class="edge">
<title>Node1&#45;&gt;Node3</title>
<path fill="none" stroke="midnightblue" d="M173.08,-123.4C150.28,-113.77 119.87,-100.94 95.3,-90.56"/>
<polygon fill="midnightblue" stroke="midnightblue" points="96.42,-87.24 85.85,-86.58 93.7,-93.69 96.42,-87.24"/>
</g>
<!-- Node5 -->
<g id="node5" class="node">
<title>Node5</title>
<g id="a_node5"><a xlink:href="mutex_8hpp.html" target="_top" xlink:title=" ">
<polygon fill="none" stroke="black" points="269.5,-62 269.5,-81 379.5,-81 379.5,-62 269.5,-62"/>
<text text-anchor="middle" x="324.5" y="-69" font-family="Helvetica,sans-Serif" font-size="10.00">yaclib/fault/mutex.hpp</text>
</a>
</g>
</g>
<!-- Node1&#45;&gt;Node5 -->
<g id="edge5" class="edge">
<title>Node1&#45;&gt;Node5</title>
<path fill="none" stroke="midnightblue" d="M232.1,-123.4C252.35,-112.24 280.42,-96.78 300.29,-85.83"/>
<polygon fill="midnightblue" stroke="midnightblue" points="301.99,-88.9 309.06,-81.01 298.61,-82.77 301.99,-88.9"/>
</g>
<!-- Node7 -->
<g id="node7" class="node">
<title>Node7</title>
<g id="a_node7"><a xlink:href="ref_8hpp.html" target="_top" xlink:title=" ">
<polygon fill="none" stroke="black" points="162,-62 162,-81 251,-81 251,-62 162,-62"/>
<text text-anchor="middle" x="206.5" y="-69" font-family="Helvetica,sans-Serif" font-size="10.00">yaclib/util/ref.hpp</text>
</a>
</g>
</g>
<!-- Node1&#45;&gt;Node7 -->
<g id="edge8" class="edge">
<title>Node1&#45;&gt;Node7</title>
<path fill="none" stroke="midnightblue" d="M206.5,-123.4C206.5,-114.06 206.5,-101.71 206.5,-91.52"/>
<polygon fill="midnightblue" stroke="midnightblue" points="210,-91.19 206.5,-81.19 203,-91.19 210,-91.19"/>
</g>
<!-- Node8 -->
<g id="node8" class="node">
<title>Node8</title>
<g id="a_node8"><a xlink:title=" ">
<polygon fill="none" stroke="#bfbfbf" points="397.5,-62 397.5,-81 443.5,-81 443.5,-62 397.5,-62"/>
<text text-anchor="middle" x="420.5" y="-69" font-family="Helvetica,sans-Serif" font-size="10.00">chrono</text>
</a>
</g>
</g>
<!-- Node1&#45;&gt;Node8 -->
<g id="edge10" class="edge">
<title>Node1&#45;&gt;Node8</title>
<path fill="none" stroke="midnightblue" d="M266.25,-123.41C302.12,-114.33 348.43,-101.54 388.5,-87 390.12,-86.41 391.76,-85.78 393.42,-85.12"/>
<polygon fill="midnightblue" stroke="midnightblue" points="394.94,-88.27 402.76,-81.13 392.19,-81.84 394.94,-88.27"/>
</g>
<!-- Node3&#45;&gt;Node2 -->
<g id="edge3" class="edge">
<title>Node3&#45;&gt;Node2</title>
<path fill="none" stroke="midnightblue" d="M83.78,-56.4C105.73,-46.51 134.84,-33.38 156.12,-23.79"/>
<polygon fill="midnightblue" stroke="midnightblue" points="157.61,-26.96 165.29,-19.66 154.74,-20.58 157.61,-26.96"/>
</g>
<!-- Node4 -->
<g id="node4" class="node">
<title>Node4</title>
<g id="a_node4"><a xlink:title=" ">
<polygon fill="none" stroke="#bfbfbf" points="5,-0.5 5,-19.5 100,-19.5 100,-0.5 5,-0.5"/>
<text text-anchor="middle" x="52.5" y="-7.5" font-family="Helvetica,sans-Serif" font-size="10.00">condition_variable</text>
</a>
</g>
</g>
<!-- Node3&#45;&gt;Node4 -->
<g id="edge4" class="edge">
<title>Node3&#45;&gt;Node4</title>
<path fill="none" stroke="midnightblue" d="M52.5,-56.4C52.5,-48.47 52.5,-38.46 52.5,-29.86"/>
<polygon fill="midnightblue" stroke="midnightblue" points="56,-29.66 52.5,-19.66 49,-29.66 56,-29.66"/>
</g>
<!-- Node5&#45;&gt;Node2 -->
<g id="edge6" class="edge">
<title>Node5&#45;&gt;Node2</title>
<path fill="none" stroke="midnightblue" d="M304.44,-61.98C280.74,-51.9 241.09,-35.05 213.92,-23.5"/>
<polygon fill="midnightblue" stroke="midnightblue" points="215.09,-20.2 204.52,-19.51 212.36,-26.64 215.09,-20.2"/>
</g>
<!-- Node6 -->
<g id="node6" class="node">
<title>Node6</title>
<g id="a_node6"><a xlink:title=" ">
<polygon fill="none" stroke="#bfbfbf" points="303,-0.5 303,-19.5 346,-19.5 346,-0.5 303,-0.5"/>
<text text-anchor="middle" x="324.5" y="-7.5" font-family="Helvetica,sans-Serif" font-size="10.00">mutex</text>
</a>
</g>
</g>
<!-- Node5&#45;&gt;Node6 -->
<g id="edge7" class="edge">
<title>Node5&#45;&gt;Node6</title>
<path fill="none" stroke="midnightblue" d="M324.5,-61.98C324.5,-53.58 324.5,-40.48 324.5,-29.66"/>
<polygon fill="midnightblue" stroke="midnightblue" points="328,-29.51 324.5,-19.51 321,-29.51 328,-29.51"/>
</g>
<!-- Node7&#45;&gt;Node2 -->
<g id="edge9" class="edge">
<title>Node7&#45;&gt;Node2</title>
<path fill="none" stroke="midnightblue" d="M203.35,-61.98C200.18,-53.4 195.2,-39.93 191.15,-28.98"/>
<polygon fill="midnightblue" stroke="midnightblue" points="194.4,-27.67 187.65,-19.51 187.83,-30.1 194.4,-27.67"/>
</g>
</g>
</svg>
