<?xml version="1.0" encoding="UTF-8" standalone="no"?>
<!DOCTYPE svg PUBLIC "-//W3C//DTD SVG 1.1//EN"
 "http://www.w3.org/Graphics/SVG/1.1/DTD/svg11.dtd">
<!-- Generated by graphviz version 2.50.0 (20220203.2022)
 -->
<!-- Title: include/yaclib/fault/mutex.hpp Pages: 1 -->
<svg width="1683pt" height="586pt"
 viewBox="0.00 0.00 1682.50 586.00" xmlns="http://www.w3.org/2000/svg" xmlns:xlink="http://www.w3.org/1999/xlink">
<g id="graph0" class="graph" transform="scale(1 1) rotate(0) translate(4 582)">
<title>include/yaclib/fault/mutex.hpp</title>
<!-- Node1 -->
<g id="node1" class="node">
<title>Node1</title>
<g id="a_node1"><a xlink:title=" ">
<polygon fill="#bfbfbf" stroke="black" points="454,-547.5 454,-577.5 551,-577.5 551,-547.5 454,-547.5"/>
<text text-anchor="start" x="462" y="-565.5" font-family="Helvetica,sans-Serif" font-size="10.00">include/yaclib/fault</text>
<text text-anchor="middle" x="502.5" y="-554.5" font-family="Helvetica,sans-Serif" font-size="10.00">/mutex.hpp</text>
</a>
</g>
</g>
<!-- Node2 -->
<g id="node2" class="node">
<title>Node2</title>
<g id="a_node2"><a xlink:href="detail_2condition_2condition__variable_8hpp.html" target="_top" xlink:title=" ">
<polygon fill="none" stroke="black" points="208,-469.5 208,-510.5 335,-510.5 335,-469.5 208,-469.5"/>
<text text-anchor="start" x="216" y="-498.5" font-family="Helvetica,sans-Serif" font-size="10.00">include/yaclib/fault</text>
<text text-anchor="start" x="216" y="-487.5" font-family="Helvetica,sans-Serif" font-size="10.00">/detail/condition/condition</text>
<text text-anchor="middle" x="271.5" y="-476.5" font-family="Helvetica,sans-Serif" font-size="10.00">_variable.hpp</text>
</a>
</g>
</g>
<!-- Node1&#45;&gt;Node2 -->
<g id="edge1" class="edge">
<title>Node1&#45;&gt;Node2</title>
<path fill="none" stroke="midnightblue" d="M446.92,-544.54C413.28,-534.27 370.27,-521.14 335.26,-510.46"/>
<polygon fill="midnightblue" stroke="midnightblue" points="446,-547.92 456.59,-547.49 448.04,-541.22 446,-547.92"/>
</g>
<!-- Node4 -->
<g id="node4" class="node">
<title>Node4</title>
<g id="a_node4"><a xlink:href="mutex__event_8hpp.html" target="_top" xlink:title=" ">
<polygon fill="none" stroke="black" points="379,-475 379,-505 498,-505 498,-475 379,-475"/>
<text text-anchor="start" x="387" y="-493" font-family="Helvetica,sans-Serif" font-size="10.00">include/yaclib/util</text>
<text text-anchor="middle" x="438.5" y="-482" font-family="Helvetica,sans-Serif" font-size="10.00">/detail/mutex_event.hpp</text>
</a>
</g>
</g>
<!-- Node1&#45;&gt;Node4 -->
<g id="edge3" class="edge">
<title>Node1&#45;&gt;Node4</title>
<path fill="none" stroke="midnightblue" d="M482.56,-539.54C472.41,-528.36 460.36,-515.08 451.43,-505.25"/>
<polygon fill="midnightblue" stroke="midnightblue" points="480.24,-542.18 489.55,-547.23 485.42,-537.48 480.24,-542.18"/>
</g>
<!-- Node31 -->
<g id="node31" class="node">
<title>Node31</title>
<g id="a_node31"><a xlink:href="thread__factory_8cpp.html" target="_top" xlink:title=" ">
<polygon fill="none" stroke="black" points="516.5,-475 516.5,-505 616.5,-505 616.5,-475 516.5,-475"/>
<text text-anchor="start" x="524.5" y="-493" font-family="Helvetica,sans-Serif" font-size="10.00">src/executor/thread</text>
<text text-anchor="middle" x="566.5" y="-482" font-family="Helvetica,sans-Serif" font-size="10.00">_factory.cpp</text>
</a>
</g>
</g>
<!-- Node1&#45;&gt;Node31 -->
<g id="edge48" class="edge">
<title>Node1&#45;&gt;Node31</title>
<path fill="none" stroke="midnightblue" d="M522.44,-539.54C532.59,-528.36 544.64,-515.08 553.57,-505.25"/>
<polygon fill="midnightblue" stroke="midnightblue" points="519.58,-537.48 515.45,-547.23 524.76,-542.18 519.58,-537.48"/>
</g>
<!-- Node32 -->
<g id="node32" class="node">
<title>Node32</title>
<g id="a_node32"><a xlink:href="src_2executor_2thread__pool_8cpp.html" target="_top" xlink:title=" ">
<polygon fill="none" stroke="black" points="634.5,-475 634.5,-505 734.5,-505 734.5,-475 634.5,-475"/>
<text text-anchor="start" x="642.5" y="-493" font-family="Helvetica,sans-Serif" font-size="10.00">src/executor/thread</text>
<text text-anchor="middle" x="684.5" y="-482" font-family="Helvetica,sans-Serif" font-size="10.00">_pool.cpp</text>
</a>
</g>
</g>
<!-- Node1&#45;&gt;Node32 -->
<g id="edge49" class="edge">
<title>Node1&#45;&gt;Node32</title>
<path fill="none" stroke="midnightblue" d="M548.57,-543.65C579.45,-531.69 619.54,-516.16 648.17,-505.07"/>
<polygon fill="midnightblue" stroke="midnightblue" points="546.95,-540.53 538.89,-547.4 549.48,-547.05 546.95,-540.53"/>
</g>
<!-- Node3 -->
<g id="node3" class="node">
<title>Node3</title>
<g id="a_node3"><a xlink:href="condition__variable_8cpp.html" target="_top" xlink:title=" ">
<polygon fill="none" stroke="black" points="160.5,-402.5 160.5,-432.5 276.5,-432.5 276.5,-402.5 160.5,-402.5"/>
<text text-anchor="start" x="168.5" y="-420.5" font-family="Helvetica,sans-Serif" font-size="10.00">src/fault/condition</text>
<text text-anchor="middle" x="218.5" y="-409.5" font-family="Helvetica,sans-Serif" font-size="10.00">/condition_variable.cpp</text>
</a>
</g>
</g>
<!-- Node2&#45;&gt;Node3 -->
<g id="edge2" class="edge">
<title>Node2&#45;&gt;Node3</title>
<path fill="none" stroke="midnightblue" d="M250.56,-461.14C243.29,-451.47 235.43,-441.02 229.32,-432.89"/>
<polygon fill="midnightblue" stroke="midnightblue" points="247.93,-463.47 256.74,-469.36 253.53,-459.27 247.93,-463.47"/>
</g>
<!-- Node5 -->
<g id="node5" class="node">
<title>Node5</title>
<g id="a_node5"><a xlink:href="wait__impl_8hpp.html" target="_top" xlink:title=" ">
<polygon fill="none" stroke="black" points="400,-402.5 400,-432.5 505,-432.5 505,-402.5 400,-402.5"/>
<text text-anchor="start" x="408" y="-420.5" font-family="Helvetica,sans-Serif" font-size="10.00">include/yaclib/algo</text>
<text text-anchor="middle" x="452.5" y="-409.5" font-family="Helvetica,sans-Serif" font-size="10.00">/detail/wait_impl.hpp</text>
</a>
</g>
</g>
<!-- Node4&#45;&gt;Node5 -->
<g id="edge4" class="edge">
<title>Node4&#45;&gt;Node5</title>
<path fill="none" stroke="midnightblue" d="M443.32,-464.73C445.44,-454.07 447.85,-441.91 449.67,-432.75"/>
<polygon fill="midnightblue" stroke="midnightblue" points="439.85,-464.24 441.33,-474.73 446.71,-465.61 439.85,-464.24"/>
</g>
<!-- Node16 -->
<g id="node16" class="node">
<title>Node16</title>
<g id="a_node16"><a xlink:href="wait__for_8hpp.html" target="_top" xlink:title=" ">
<polygon fill="none" stroke="black" points="125.5,-134.5 125.5,-164.5 221.5,-164.5 221.5,-134.5 125.5,-134.5"/>
<text text-anchor="start" x="133.5" y="-152.5" font-family="Helvetica,sans-Serif" font-size="10.00">include/yaclib/algo</text>
<text text-anchor="middle" x="173.5" y="-141.5" font-family="Helvetica,sans-Serif" font-size="10.00">/wait_for.hpp</text>
</a>
</g>
</g>
<!-- Node4&#45;&gt;Node16 -->
<g id="edge44" class="edge">
<title>Node4&#45;&gt;Node16</title>
<path fill="none" stroke="midnightblue" d="M411.53,-468.13C383.14,-443.59 342.5,-399.99 342.5,-351.5 342.5,-351.5 342.5,-351.5 342.5,-282.5 342.5,-244.74 344.54,-228.34 318.5,-201 293.22,-174.46 253.27,-161.86 221.69,-155.88"/>
<polygon fill="midnightblue" stroke="midnightblue" points="409.62,-471.1 419.53,-474.83 414.11,-465.73 409.62,-471.1"/>
</g>
<!-- Node17 -->
<g id="node17" class="node">
<title>Node17</title>
<g id="a_node17"><a xlink:href="wait__group_8hpp.html" target="_top" xlink:title=" ">
<polygon fill="none" stroke="black" points="11.5,-134.5 11.5,-164.5 107.5,-164.5 107.5,-134.5 11.5,-134.5"/>
<text text-anchor="start" x="19.5" y="-152.5" font-family="Helvetica,sans-Serif" font-size="10.00">include/yaclib/algo</text>
<text text-anchor="middle" x="59.5" y="-141.5" font-family="Helvetica,sans-Serif" font-size="10.00">/wait_group.hpp</text>
</a>
</g>
</g>
<!-- Node4&#45;&gt;Node17 -->
<g id="edge45" class="edge">
<title>Node4&#45;&gt;Node17</title>
<path fill="none" stroke="midnightblue" d="M399.26,-469.8C359.71,-447.38 304.5,-406.27 304.5,-351.5 304.5,-351.5 304.5,-351.5 304.5,-282.5 304.5,-237.51 174.82,-188.11 104.15,-164.54"/>
<polygon fill="midnightblue" stroke="midnightblue" points="397.98,-473.09 408.43,-474.83 401.34,-466.96 397.98,-473.09"/>
</g>
<!-- Node19 -->
<g id="node19" class="node">
<title>Node19</title>
<g id="a_node19"><a xlink:href="wait__until_8hpp.html" target="_top" xlink:title=" ">
<polygon fill="none" stroke="black" points="1578.5,-134.5 1578.5,-164.5 1674.5,-164.5 1674.5,-134.5 1578.5,-134.5"/>
<text text-anchor="start" x="1586.5" y="-152.5" font-family="Helvetica,sans-Serif" font-size="10.00">include/yaclib/algo</text>
<text text-anchor="middle" x="1626.5" y="-141.5" font-family="Helvetica,sans-Serif" font-size="10.00">/wait_until.hpp</text>
</a>
</g>
</g>
<!-- Node4&#45;&gt;Node19 -->
<g id="edge46" class="edge">
<title>Node4&#45;&gt;Node19</title>
<path fill="none" stroke="midnightblue" d="M493.06,-472.31C497.92,-471.09 502.78,-469.96 507.5,-469 613,-447.41 1469.5,-459.18 1469.5,-351.5 1469.5,-351.5 1469.5,-351.5 1469.5,-282.5 1469.5,-221.78 1539.14,-183.39 1585.66,-164.52"/>
<polygon fill="midnightblue" stroke="midnightblue" points="491.93,-468.99 483.15,-474.93 493.71,-475.76 491.93,-468.99"/>
</g>
<!-- Node30 -->
<g id="node30" class="node">
<title>Node30</title>
<g id="a_node30"><a xlink:href="mutex__event_8cpp.html" target="_top" xlink:title=" ">
<polygon fill="none" stroke="black" points="523.5,-408 523.5,-427 645.5,-427 645.5,-408 523.5,-408"/>
<text text-anchor="middle" x="584.5" y="-415" font-family="Helvetica,sans-Serif" font-size="10.00">src/util/mutex_event.cpp</text>
</a>
</g>
</g>
<!-- Node4&#45;&gt;Node30 -->
<g id="edge47" class="edge">
<title>Node4&#45;&gt;Node30</title>
<path fill="none" stroke="midnightblue" d="M476.78,-470.52C505.89,-456.46 544.62,-437.76 566.83,-427.03"/>
<polygon fill="midnightblue" stroke="midnightblue" points="475.18,-467.4 467.69,-474.9 478.22,-473.71 475.18,-467.4"/>
</g>
<!-- Node6 -->
<g id="node6" class="node">
<title>Node6</title>
<g id="a_node6"><a xlink:href="wait_8hpp.html" target="_top" xlink:title=" ">
<polygon fill="none" stroke="black" points="690.5,-335.5 690.5,-365.5 786.5,-365.5 786.5,-335.5 690.5,-335.5"/>
<text text-anchor="start" x="698.5" y="-353.5" font-family="Helvetica,sans-Serif" font-size="10.00">include/yaclib/algo</text>
<text text-anchor="middle" x="738.5" y="-342.5" font-family="Helvetica,sans-Serif" font-size="10.00">/wait.hpp</text>
</a>
</g>
</g>
<!-- Node5&#45;&gt;Node6 -->
<g id="edge5" class="edge">
<title>Node5&#45;&gt;Node6</title>
<path fill="none" stroke="midnightblue" d="M515.08,-401.88C581.61,-386.62 647.16,-371.9 690.41,-362.23"/>
<polygon fill="midnightblue" stroke="midnightblue" points="514.22,-398.48 505.26,-404.13 515.79,-405.31 514.22,-398.48"/>
</g>
<!-- Node5&#45;&gt;Node16 -->
<g id="edge41" class="edge">
<title>Node5&#45;&gt;Node16</title>
<path fill="none" stroke="midnightblue" d="M425.27,-395.87C415.89,-387.53 406.1,-377.21 399.5,-366 361.04,-300.7 409.7,-254.97 356.5,-201 337.76,-181.99 269.45,-166.82 221.82,-158.24"/>
<polygon fill="midnightblue" stroke="midnightblue" points="423.08,-398.6 432.97,-402.4 427.61,-393.26 423.08,-398.6"/>
</g>
<!-- Node5&#45;&gt;Node19 -->
<g id="edge42" class="edge">
<title>Node5&#45;&gt;Node19</title>
<path fill="none" stroke="midnightblue" d="M515.15,-402.02C640.16,-380.13 675.01,-389.25 795.5,-366 951.72,-335.86 1425.36,-206.11 1578.31,-163.85"/>
<polygon fill="midnightblue" stroke="midnightblue" points="514.42,-398.59 505.19,-403.79 515.65,-405.48 514.42,-398.59"/>
</g>
<!-- Node29 -->
<g id="node29" class="node">
<title>Node29</title>
<g id="a_node29"><a xlink:href="wait__impl_8cpp.html" target="_top" xlink:title=" ">
<polygon fill="none" stroke="black" points="409,-341 409,-360 522,-360 522,-341 409,-341"/>
<text text-anchor="middle" x="465.5" y="-348" font-family="Helvetica,sans-Serif" font-size="10.00">src/algo/wait_impl.cpp</text>
</a>
</g>
</g>
<!-- Node5&#45;&gt;Node29 -->
<g id="edge43" class="edge">
<title>Node5&#45;&gt;Node29</title>
<path fill="none" stroke="midnightblue" d="M457.35,-392.25C459.6,-381.02 462.12,-368.38 463.76,-360.19"/>
<polygon fill="midnightblue" stroke="midnightblue" points="453.85,-391.9 455.32,-402.4 460.71,-393.28 453.85,-391.9"/>
</g>
<!-- Node7 -->
<g id="node7" class="node">
<title>Node7</title>
<g id="a_node7"><a xlink:href="future__impl_8hpp.html" target="_top" xlink:title=" ">
<polygon fill="none" stroke="black" points="766.5,-268.5 766.5,-298.5 878.5,-298.5 878.5,-268.5 766.5,-268.5"/>
<text text-anchor="start" x="774.5" y="-286.5" font-family="Helvetica,sans-Serif" font-size="10.00">include/yaclib/async</text>
<text text-anchor="middle" x="822.5" y="-275.5" font-family="Helvetica,sans-Serif" font-size="10.00">/detail/future_impl.hpp</text>
</a>
</g>
</g>
<!-- Node6&#45;&gt;Node7 -->
<g id="edge6" class="edge">
<title>Node6&#45;&gt;Node7</title>
<path fill="none" stroke="midnightblue" d="M764.78,-329.17C777.62,-319.23 792.76,-307.51 804.31,-298.58"/>
<polygon fill="midnightblue" stroke="midnightblue" points="762.49,-326.51 756.73,-335.4 766.78,-332.04 762.49,-326.51"/>
</g>
<!-- Node8 -->
<g id="node8" class="node">
<title>Node8</title>
<g id="a_node8"><a xlink:href="future_8hpp.html" target="_top" xlink:title=" ">
<polygon fill="none" stroke="black" points="770.5,-201.5 770.5,-231.5 874.5,-231.5 874.5,-201.5 770.5,-201.5"/>
<text text-anchor="start" x="778.5" y="-219.5" font-family="Helvetica,sans-Serif" font-size="10.00">include/yaclib/async</text>
<text text-anchor="middle" x="822.5" y="-208.5" font-family="Helvetica,sans-Serif" font-size="10.00">/future.hpp</text>
</a>
</g>
</g>
<!-- Node7&#45;&gt;Node8 -->
<g id="edge7" class="edge">
<title>Node7&#45;&gt;Node8</title>
<path fill="none" stroke="midnightblue" d="M822.5,-258.11C822.5,-249.15 822.5,-239.32 822.5,-231.58"/>
<polygon fill="midnightblue" stroke="midnightblue" points="819,-258.4 822.5,-268.4 826,-258.4 819,-258.4"/>
</g>
<!-- Node8&#45;&gt;Node6 -->
<g id="edge17" class="edge">
<title>Node8&#45;&gt;Node6</title>
<path fill="none" stroke="midnightblue" d="M788.23,-237.4C776.91,-245.54 765.24,-255.92 757.5,-268 744.1,-288.92 740.12,-318.26 738.96,-335.43"/>
<polygon fill="midnightblue" stroke="midnightblue" points="790.44,-240.13 796.75,-231.61 786.51,-234.33 790.44,-240.13"/>
</g>
<!-- Node9 -->
<g id="node9" class="node">
<title>Node9</title>
<g id="a_node9"><a xlink:href="when__all__impl_8hpp.html" target="_top" xlink:title=" ">
<polygon fill="none" stroke="black" points="278,-134.5 278,-164.5 403,-164.5 403,-134.5 278,-134.5"/>
<text text-anchor="start" x="286" y="-152.5" font-family="Helvetica,sans-Serif" font-size="10.00">include/yaclib/algo</text>
<text text-anchor="middle" x="340.5" y="-141.5" font-family="Helvetica,sans-Serif" font-size="10.00">/detail/when_all_impl.hpp</text>
</a>
</g>
</g>
<!-- Node8&#45;&gt;Node9 -->
<g id="edge8" class="edge">
<title>Node8&#45;&gt;Node9</title>
<path fill="none" stroke="midnightblue" d="M760.24,-209.32C679.72,-200.99 535.21,-184.88 412.5,-165 409.48,-164.51 406.39,-163.99 403.28,-163.44"/>
<polygon fill="midnightblue" stroke="midnightblue" points="759.91,-212.81 770.22,-210.35 760.63,-205.84 759.91,-212.81"/>
</g>
<!-- Node10 -->
<g id="node10" class="node">
<title>Node10</title>
<g id="a_node10"><a xlink:href="when__all_8hpp.html" target="_top" xlink:title=" ">
<polygon fill="none" stroke="black" points="338.5,-67.5 338.5,-97.5 434.5,-97.5 434.5,-67.5 338.5,-67.5"/>
<text text-anchor="start" x="346.5" y="-85.5" font-family="Helvetica,sans-Serif" font-size="10.00">include/yaclib/algo</text>
<text text-anchor="middle" x="386.5" y="-74.5" font-family="Helvetica,sans-Serif" font-size="10.00">/when_all.hpp</text>
</a>
</g>
</g>
<!-- Node8&#45;&gt;Node10 -->
<g id="edge22" class="edge">
<title>Node8&#45;&gt;Node10</title>
<path fill="none" stroke="midnightblue" d="M759.83,-214.44C621.78,-211.46 301.11,-200.71 268.5,-165 241.56,-135.49 294.78,-110.95 338.24,-96.74"/>
<polygon fill="midnightblue" stroke="midnightblue" points="760.17,-217.95 770.24,-214.66 760.31,-210.95 760.17,-217.95"/>
</g>
<!-- Node12 -->
<g id="node12" class="node">
<title>Node12</title>
<g id="a_node12"><a xlink:href="when__any__impl_8hpp.html" target="_top" xlink:title=" ">
<polygon fill="none" stroke="black" points="870,-134.5 870,-164.5 1001,-164.5 1001,-134.5 870,-134.5"/>
<text text-anchor="start" x="878" y="-152.5" font-family="Helvetica,sans-Serif" font-size="10.00">include/yaclib/algo</text>
<text text-anchor="middle" x="935.5" y="-141.5" font-family="Helvetica,sans-Serif" font-size="10.00">/detail/when_any_impl.hpp</text>
</a>
</g>
</g>
<!-- Node8&#45;&gt;Node12 -->
<g id="edge11" class="edge">
<title>Node8&#45;&gt;Node12</title>
<path fill="none" stroke="midnightblue" d="M855.89,-196.3C873.57,-186.12 894.9,-173.85 911.03,-164.58"/>
<polygon fill="midnightblue" stroke="midnightblue" points="853.94,-193.38 847.02,-201.4 857.43,-199.44 853.94,-193.38"/>
</g>
<!-- Node13 -->
<g id="node13" class="node">
<title>Node13</title>
<g id="a_node13"><a xlink:href="when__any_8hpp.html" target="_top" xlink:title=" ">
<polygon fill="none" stroke="black" points="793.5,-67.5 793.5,-97.5 889.5,-97.5 889.5,-67.5 793.5,-67.5"/>
<text text-anchor="start" x="801.5" y="-85.5" font-family="Helvetica,sans-Serif" font-size="10.00">include/yaclib/algo</text>
<text text-anchor="middle" x="841.5" y="-74.5" font-family="Helvetica,sans-Serif" font-size="10.00">/when_any.hpp</text>
</a>
</g>
</g>
<!-- Node8&#45;&gt;Node13 -->
<g id="edge23" class="edge">
<title>Node8&#45;&gt;Node13</title>
<path fill="none" stroke="midnightblue" d="M825.97,-191.39C829.93,-163.9 836.26,-119.89 839.48,-97.52"/>
<polygon fill="midnightblue" stroke="midnightblue" points="822.49,-190.98 824.53,-201.37 829.42,-191.97 822.49,-190.98"/>
</g>
<!-- Node15 -->
<g id="node15" class="node">
<title>Node15</title>
<g id="a_node15"><a xlink:href="when__impl_8hpp.html" target="_top" xlink:title=" ">
<polygon fill="none" stroke="black" points="421.5,-134.5 421.5,-164.5 531.5,-164.5 531.5,-134.5 421.5,-134.5"/>
<text text-anchor="start" x="429.5" y="-152.5" font-family="Helvetica,sans-Serif" font-size="10.00">include/yaclib/algo</text>
<text text-anchor="middle" x="476.5" y="-141.5" font-family="Helvetica,sans-Serif" font-size="10.00">/detail/when_impl.hpp</text>
</a>
</g>
</g>
<!-- Node8&#45;&gt;Node15 -->
<g id="edge14" class="edge">
<title>Node8&#45;&gt;Node15</title>
<path fill="none" stroke="midnightblue" d="M760.41,-205.22C703.17,-195.54 615.91,-180.29 540.5,-165 537.6,-164.41 534.62,-163.79 531.62,-163.16"/>
<polygon fill="midnightblue" stroke="midnightblue" points="759.95,-208.69 770.39,-206.9 761.11,-201.79 759.95,-208.69"/>
</g>
<!-- Node8&#45;&gt;Node16 -->
<g id="edge18" class="edge">
<title>Node8&#45;&gt;Node16</title>
<path fill="none" stroke="midnightblue" d="M760.34,-213.09C652.81,-208.28 425.35,-195.21 235.5,-165 231.02,-164.29 226.39,-163.43 221.77,-162.5"/>
<polygon fill="midnightblue" stroke="midnightblue" points="760.23,-216.59 770.37,-213.54 760.53,-209.6 760.23,-216.59"/>
</g>
<!-- Node8&#45;&gt;Node17 -->
<g id="edge19" class="edge">
<title>Node8&#45;&gt;Node17</title>
<path fill="none" stroke="midnightblue" d="M760.29,-214.75C636.78,-212.45 352.19,-203.1 116.5,-165 113.58,-164.53 110.58,-163.98 107.58,-163.37"/>
<polygon fill="midnightblue" stroke="midnightblue" points="760.26,-218.25 770.32,-214.93 760.38,-211.25 760.26,-218.25"/>
</g>
<!-- Node8&#45;&gt;Node19 -->
<g id="edge21" class="edge">
<title>Node8&#45;&gt;Node19</title>
<path fill="none" stroke="midnightblue" d="M884.58,-211.61C1057.79,-200.72 1535.91,-170.36 1569.5,-165 1572.42,-164.53 1575.42,-163.99 1578.43,-163.38"/>
<polygon fill="midnightblue" stroke="midnightblue" points="884.36,-208.12 874.6,-212.24 884.8,-215.1 884.36,-208.12"/>
</g>
<!-- Node20 -->
<g id="node20" class="node">
<title>Node20</title>
<g id="a_node20"><a xlink:href="contract_8hpp.html" target="_top" xlink:title=" ">
<polygon fill="none" stroke="black" points="671.5,-134.5 671.5,-164.5 775.5,-164.5 775.5,-134.5 671.5,-134.5"/>
<text text-anchor="start" x="679.5" y="-152.5" font-family="Helvetica,sans-Serif" font-size="10.00">include/yaclib/async</text>
<text text-anchor="middle" x="723.5" y="-141.5" font-family="Helvetica,sans-Serif" font-size="10.00">/contract.hpp</text>
</a>
</g>
</g>
<!-- Node8&#45;&gt;Node20 -->
<g id="edge24" class="edge">
<title>Node8&#45;&gt;Node20</title>
<path fill="none" stroke="midnightblue" d="M792.39,-195.73C777.08,-185.68 758.81,-173.68 744.94,-164.58"/>
<polygon fill="midnightblue" stroke="midnightblue" points="790.74,-198.83 801.02,-201.4 794.58,-192.98 790.74,-198.83"/>
</g>
<!-- Node21 -->
<g id="node21" class="node">
<title>Node21</title>
<g id="a_node21"><a xlink:href="simple_8cpp.html" target="_top" xlink:title=" ">
<polygon fill="none" stroke="black" points="673,-67.5 673,-97.5 774,-97.5 774,-67.5 673,-67.5"/>
<text text-anchor="start" x="681" y="-85.5" font-family="Helvetica,sans-Serif" font-size="10.00">test/example/async</text>
<text text-anchor="middle" x="723.5" y="-74.5" font-family="Helvetica,sans-Serif" font-size="10.00">/simple.cpp</text>
</a>
</g>
</g>
<!-- Node8&#45;&gt;Node21 -->
<g id="edge40" class="edge">
<title>Node8&#45;&gt;Node21</title>
<path fill="none" stroke="midnightblue" d="M814.61,-191.7C808.21,-174.57 798.02,-151.49 784.5,-134 773.49,-119.75 757.77,-106.86 745.05,-97.67"/>
<polygon fill="midnightblue" stroke="midnightblue" points="811.45,-193.26 818.11,-201.5 818.05,-190.9 811.45,-193.26"/>
</g>
<!-- Node22 -->
<g id="node22" class="node">
<title>Node22</title>
<g id="a_node22"><a xlink:href="run_8hpp.html" target="_top" xlink:title=" ">
<polygon fill="none" stroke="black" points="549.5,-134.5 549.5,-164.5 653.5,-164.5 653.5,-134.5 549.5,-134.5"/>
<text text-anchor="start" x="557.5" y="-152.5" font-family="Helvetica,sans-Serif" font-size="10.00">include/yaclib/async</text>
<text text-anchor="middle" x="601.5" y="-141.5" font-family="Helvetica,sans-Serif" font-size="10.00">/run.hpp</text>
</a>
</g>
</g>
<!-- Node8&#45;&gt;Node22 -->
<g id="edge26" class="edge">
<title>Node8&#45;&gt;Node22</title>
<path fill="none" stroke="midnightblue" d="M764.97,-198.58C729.08,-188.02 683.41,-174.59 649.48,-164.61"/>
<polygon fill="midnightblue" stroke="midnightblue" points="764.24,-202.01 774.82,-201.48 766.21,-195.3 764.24,-202.01"/>
</g>
<!-- Node23 -->
<g id="node23" class="node">
<title>Node23</title>
<g id="a_node23"><a xlink:href="await_8hpp.html" target="_top" xlink:title=" ">
<polygon fill="none" stroke="black" points="1043.5,-67.5 1043.5,-97.5 1161.5,-97.5 1161.5,-67.5 1043.5,-67.5"/>
<text text-anchor="start" x="1051.5" y="-85.5" font-family="Helvetica,sans-Serif" font-size="10.00">include/yaclib/coroutine</text>
<text text-anchor="middle" x="1102.5" y="-74.5" font-family="Helvetica,sans-Serif" font-size="10.00">/await.hpp</text>
</a>
</g>
</g>
<!-- Node8&#45;&gt;Node23 -->
<g id="edge30" class="edge">
<title>Node8&#45;&gt;Node23</title>
<path fill="none" stroke="midnightblue" d="M884.97,-215.22C970.87,-213.36 1118.71,-204.35 1152.5,-165 1170.88,-143.59 1142.8,-114.68 1121.86,-97.66"/>
<polygon fill="midnightblue" stroke="midnightblue" points="884.74,-211.73 874.81,-215.42 884.88,-218.73 884.74,-211.73"/>
</g>
<!-- Node24 -->
<g id="node24" class="node">
<title>Node24</title>
<g id="a_node24"><a xlink:href="coroutine__deleter_8hpp.html" target="_top" xlink:title=" ">
<polygon fill="none" stroke="black" points="1422.5,-134.5 1422.5,-164.5 1560.5,-164.5 1560.5,-134.5 1422.5,-134.5"/>
<text text-anchor="start" x="1430.5" y="-152.5" font-family="Helvetica,sans-Serif" font-size="10.00">include/yaclib/coroutine</text>
<text text-anchor="middle" x="1491.5" y="-141.5" font-family="Helvetica,sans-Serif" font-size="10.00">/detail/coroutine_deleter.hpp</text>
</a>
</g>
</g>
<!-- Node8&#45;&gt;Node24 -->
<g id="edge31" class="edge">
<title>Node8&#45;&gt;Node24</title>
<path fill="none" stroke="midnightblue" d="M884.94,-212.19C993,-206.02 1221.71,-190.96 1413.5,-165 1416.37,-164.61 1419.29,-164.19 1422.23,-163.74"/>
<polygon fill="midnightblue" stroke="midnightblue" points="884.65,-208.7 874.87,-212.76 885.05,-215.69 884.65,-208.7"/>
</g>
<!-- Node25 -->
<g id="node25" class="node">
<title>Node25</title>
<g id="a_node25"><a xlink:href="promise__type_8hpp.html" target="_top" xlink:title=" ">
<polygon fill="none" stroke="black" points="1289.5,-67.5 1289.5,-97.5 1411.5,-97.5 1411.5,-67.5 1289.5,-67.5"/>
<text text-anchor="start" x="1297.5" y="-85.5" font-family="Helvetica,sans-Serif" font-size="10.00">include/yaclib/coroutine</text>
<text text-anchor="middle" x="1350.5" y="-74.5" font-family="Helvetica,sans-Serif" font-size="10.00">/detail/promise_type.hpp</text>
</a>
</g>
</g>
<!-- Node8&#45;&gt;Node25 -->
<g id="edge37" class="edge">
<title>Node8&#45;&gt;Node25</title>
<path fill="none" stroke="midnightblue" d="M884.89,-211.44C981.91,-204.5 1164.11,-188.76 1224.5,-165 1246.42,-156.38 1247.87,-147.02 1267.5,-134 1286.9,-121.13 1309.5,-107.46 1326.22,-97.6"/>
<polygon fill="midnightblue" stroke="midnightblue" points="884.36,-207.97 874.63,-212.17 884.85,-214.96 884.36,-207.97"/>
</g>
<!-- Node26 -->
<g id="node26" class="node">
<title>Node26</title>
<g id="a_node26"><a xlink:href="future__coro__traits_8hpp.html" target="_top" xlink:title=" ">
<polygon fill="none" stroke="black" points="1291.5,-0.5 1291.5,-30.5 1409.5,-30.5 1409.5,-0.5 1291.5,-0.5"/>
<text text-anchor="start" x="1299.5" y="-18.5" font-family="Helvetica,sans-Serif" font-size="10.00">include/yaclib/coroutine</text>
<text text-anchor="middle" x="1350.5" y="-7.5" font-family="Helvetica,sans-Serif" font-size="10.00">/future_coro_traits.hpp</text>
</a>
</g>
</g>
<!-- Node8&#45;&gt;Node26 -->
<g id="edge38" class="edge">
<title>Node8&#45;&gt;Node26</title>
<path fill="none" stroke="midnightblue" d="M884.76,-210.73C970.55,-203.42 1120.14,-187.87 1169.5,-165 1229.21,-137.33 1229.09,-108.08 1280.5,-67 1296.66,-54.09 1315.74,-40.43 1329.89,-30.57"/>
<polygon fill="midnightblue" stroke="midnightblue" points="884.3,-207.25 874.62,-211.58 884.88,-214.23 884.3,-207.25"/>
</g>
<!-- Node27 -->
<g id="node27" class="node">
<title>Node27</title>
<g id="a_node27"><a xlink:href="future__awaiter_8hpp.html" target="_top" xlink:title=" ">
<polygon fill="none" stroke="black" points="1019,-134.5 1019,-164.5 1144,-164.5 1144,-134.5 1019,-134.5"/>
<text text-anchor="start" x="1027" y="-152.5" font-family="Helvetica,sans-Serif" font-size="10.00">include/yaclib/coroutine</text>
<text text-anchor="middle" x="1081.5" y="-141.5" font-family="Helvetica,sans-Serif" font-size="10.00">/detail/future_awaiter.hpp</text>
</a>
</g>
</g>
<!-- Node8&#45;&gt;Node27 -->
<g id="edge35" class="edge">
<title>Node8&#45;&gt;Node27</title>
<path fill="none" stroke="midnightblue" d="M884.36,-199.98C927.24,-189.21 983.88,-175 1025.45,-164.57"/>
<polygon fill="midnightblue" stroke="midnightblue" points="883.45,-196.6 874.6,-202.42 885.15,-203.38 883.45,-196.6"/>
</g>
<!-- Node28 -->
<g id="node28" class="node">
<title>Node28</title>
<g id="a_node28"><a xlink:href="future__impl_8cpp.html" target="_top" xlink:title=" ">
<polygon fill="none" stroke="black" points="1276.5,-140 1276.5,-159 1404.5,-159 1404.5,-140 1276.5,-140"/>
<text text-anchor="middle" x="1340.5" y="-147" font-family="Helvetica,sans-Serif" font-size="10.00">src/async/future_impl.cpp</text>
</a>
</g>
</g>
<!-- Node8&#45;&gt;Node28 -->
<g id="edge39" class="edge">
<title>Node8&#45;&gt;Node28</title>
<path fill="none" stroke="midnightblue" d="M884.86,-209.72C970.29,-201.49 1128.42,-185.13 1262.5,-165 1273.94,-163.28 1286.27,-161.13 1297.68,-159.01"/>
<polygon fill="midnightblue" stroke="midnightblue" points="884.43,-206.25 874.81,-210.68 885.1,-213.21 884.43,-206.25"/>
</g>
<!-- Node9&#45;&gt;Node10 -->
<g id="edge9" class="edge">
<title>Node9&#45;&gt;Node10</title>
<path fill="none" stroke="midnightblue" d="M356.31,-126.16C363.02,-116.68 370.63,-105.92 376.54,-97.58"/>
<polygon fill="midnightblue" stroke="midnightblue" points="353.4,-124.21 350.48,-134.4 359.12,-128.26 353.4,-124.21"/>
</g>
<!-- Node11 -->
<g id="node11" class="node">
<title>Node11</title>
<g id="a_node11"><a xlink:href="when__all_8cpp.html" target="_top" xlink:title=" ">
<polygon fill="none" stroke="black" points="466,-0.5 466,-30.5 567,-30.5 567,-0.5 466,-0.5"/>
<text text-anchor="start" x="474" y="-18.5" font-family="Helvetica,sans-Serif" font-size="10.00">test/example/async</text>
<text text-anchor="middle" x="516.5" y="-7.5" font-family="Helvetica,sans-Serif" font-size="10.00">/when_all.cpp</text>
</a>
</g>
</g>
<!-- Node10&#45;&gt;Node11 -->
<g id="edge10" class="edge">
<title>Node10&#45;&gt;Node11</title>
<path fill="none" stroke="midnightblue" d="M423.79,-62.85C444.35,-52.58 469.45,-40.03 488.35,-30.58"/>
<polygon fill="midnightblue" stroke="midnightblue" points="422.09,-59.79 414.71,-67.4 425.22,-66.05 422.09,-59.79"/>
</g>
<!-- Node12&#45;&gt;Node13 -->
<g id="edge12" class="edge">
<title>Node12&#45;&gt;Node13</title>
<path fill="none" stroke="midnightblue" d="M906.51,-128.45C892.05,-118.45 874.91,-106.6 861.86,-97.58"/>
<polygon fill="midnightblue" stroke="midnightblue" points="904.89,-131.59 915.1,-134.4 908.87,-125.83 904.89,-131.59"/>
</g>
<!-- Node14 -->
<g id="node14" class="node">
<title>Node14</title>
<g id="a_node14"><a xlink:href="when__any_8cpp.html" target="_top" xlink:title=" ">
<polygon fill="none" stroke="black" points="676,-0.5 676,-30.5 777,-30.5 777,-0.5 676,-0.5"/>
<text text-anchor="start" x="684" y="-18.5" font-family="Helvetica,sans-Serif" font-size="10.00">test/example/async</text>
<text text-anchor="middle" x="726.5" y="-7.5" font-family="Helvetica,sans-Serif" font-size="10.00">/when_any.cpp</text>
</a>
</g>
</g>
<!-- Node13&#45;&gt;Node14 -->
<g id="edge13" class="edge">
<title>Node13&#45;&gt;Node14</title>
<path fill="none" stroke="midnightblue" d="M807.52,-62.3C789.53,-52.12 767.82,-39.85 751.4,-30.58"/>
<polygon fill="midnightblue" stroke="midnightblue" points="806.12,-65.52 816.55,-67.4 809.56,-59.43 806.12,-65.52"/>
</g>
<!-- Node15&#45;&gt;Node10 -->
<g id="edge15" class="edge">
<title>Node15&#45;&gt;Node10</title>
<path fill="none" stroke="midnightblue" d="M448.74,-128.45C434.89,-118.45 418.48,-106.6 405.99,-97.58"/>
<polygon fill="midnightblue" stroke="midnightblue" points="446.82,-131.38 456.97,-134.4 450.91,-125.7 446.82,-131.38"/>
</g>
<!-- Node15&#45;&gt;Node13 -->
<g id="edge16" class="edge">
<title>Node15&#45;&gt;Node13</title>
<path fill="none" stroke="midnightblue" d="M541.56,-133.89C649.11,-114.24 678.93,-118.38 782.5,-98 786.02,-97.31 789.64,-96.54 793.28,-95.74"/>
<polygon fill="midnightblue" stroke="midnightblue" points="540.8,-130.48 531.6,-135.74 542.07,-137.36 540.8,-130.48"/>
</g>
<!-- Node18 -->
<g id="node18" class="node">
<title>Node18</title>
<g id="a_node18"><a xlink:href="wait__group_8cpp.html" target="_top" xlink:title=" ">
<polygon fill="none" stroke="black" points="0,-73 0,-92 119,-92 119,-73 0,-73"/>
<text text-anchor="middle" x="59.5" y="-80" font-family="Helvetica,sans-Serif" font-size="10.00">src/algo/wait_group.cpp</text>
</a>
</g>
</g>
<!-- Node17&#45;&gt;Node18 -->
<g id="edge20" class="edge">
<title>Node17&#45;&gt;Node18</title>
<path fill="none" stroke="midnightblue" d="M59.5,-124.25C59.5,-113.02 59.5,-100.38 59.5,-92.19"/>
<polygon fill="midnightblue" stroke="midnightblue" points="56,-124.4 59.5,-134.4 63,-124.4 56,-124.4"/>
</g>
<!-- Node20&#45;&gt;Node21 -->
<g id="edge25" class="edge">
<title>Node20&#45;&gt;Node21</title>
<path fill="none" stroke="midnightblue" d="M723.5,-124.11C723.5,-115.15 723.5,-105.32 723.5,-97.58"/>
<polygon fill="midnightblue" stroke="midnightblue" points="720,-124.4 723.5,-134.4 727,-124.4 720,-124.4"/>
</g>
<!-- Node22&#45;&gt;Node11 -->
<g id="edge28" class="edge">
<title>Node22&#45;&gt;Node11</title>
<path fill="none" stroke="midnightblue" d="M586.9,-125.83C569.28,-98.47 540.19,-53.28 525.53,-30.52"/>
<polygon fill="midnightblue" stroke="midnightblue" points="584.05,-127.86 592.4,-134.37 589.93,-124.07 584.05,-127.86"/>
</g>
<!-- Node22&#45;&gt;Node14 -->
<g id="edge29" class="edge">
<title>Node22&#45;&gt;Node14</title>
<path fill="none" stroke="midnightblue" d="M616.59,-125.68C628.38,-108.64 645.7,-85.26 663.5,-67 676.71,-53.45 693.51,-40.15 706.44,-30.6"/>
<polygon fill="midnightblue" stroke="midnightblue" points="613.38,-124.18 610.65,-134.41 619.17,-128.12 613.38,-124.18"/>
</g>
<!-- Node22&#45;&gt;Node21 -->
<g id="edge27" class="edge">
<title>Node22&#45;&gt;Node21</title>
<path fill="none" stroke="midnightblue" d="M637.02,-129.57C656.21,-119.35 679.5,-106.94 697.08,-97.58"/>
<polygon fill="midnightblue" stroke="midnightblue" points="635.15,-126.6 627.97,-134.4 638.44,-132.78 635.15,-126.6"/>
</g>
<!-- Node24&#45;&gt;Node25 -->
<g id="edge32" class="edge">
<title>Node24&#45;&gt;Node25</title>
<path fill="none" stroke="midnightblue" d="M1451.65,-130.13C1429.25,-119.8 1401.72,-107.11 1381.04,-97.58"/>
<polygon fill="midnightblue" stroke="midnightblue" points="1450.36,-133.39 1460.91,-134.4 1453.29,-127.03 1450.36,-133.39"/>
</g>
<!-- Node24&#45;&gt;Node26 -->
<g id="edge34" class="edge">
<title>Node24&#45;&gt;Node26</title>
<path fill="none" stroke="midnightblue" d="M1474.3,-126.08C1460.65,-108.97 1440.57,-85.31 1420.5,-67 1405.55,-53.37 1386.91,-40.07 1372.62,-30.54"/>
<polygon fill="midnightblue" stroke="midnightblue" points="1471.89,-128.67 1480.82,-134.37 1477.39,-124.34 1471.89,-128.67"/>
</g>
<!-- Node25&#45;&gt;Node26 -->
<g id="edge33" class="edge">
<title>Node25&#45;&gt;Node26</title>
<path fill="none" stroke="midnightblue" d="M1350.5,-57.11C1350.5,-48.15 1350.5,-38.32 1350.5,-30.58"/>
<polygon fill="midnightblue" stroke="midnightblue" points="1347,-57.4 1350.5,-67.4 1354,-57.4 1347,-57.4"/>
</g>
<!-- Node27&#45;&gt;Node23 -->
<g id="edge36" class="edge">
<title>Node27&#45;&gt;Node23</title>
<path fill="none" stroke="midnightblue" d="M1089.19,-124.7C1092.13,-115.59 1095.39,-105.49 1097.95,-97.58"/>
<polygon fill="midnightblue" stroke="midnightblue" points="1085.8,-123.8 1086.06,-134.4 1092.46,-125.96 1085.8,-123.8"/>
</g>
</g>
</svg>
