<?xml version="1.0" encoding="UTF-8" standalone="no"?>
<!DOCTYPE svg PUBLIC "-//W3C//DTD SVG 1.1//EN"
 "http://www.w3.org/Graphics/SVG/1.1/DTD/svg11.dtd">
<!-- Generated by graphviz version 2.50.0 (20220203.2022)
 -->
<!-- Title: src/util/mutex_event.cpp Pages: 1 -->
<svg width="470pt" height="218pt"
 viewBox="0.00 0.00 470.13 218.00" xmlns="http://www.w3.org/2000/svg" xmlns:xlink="http://www.w3.org/1999/xlink">
<g id="graph0" class="graph" transform="scale(1 1) rotate(0) translate(4 214)">
<title>src/util/mutex_event.cpp</title>
<!-- Node1 -->
<g id="node1" class="node">
<title>Node1</title>
<g id="a_node1"><a xlink:title=" ">
<polygon fill="#bfbfbf" stroke="black" points="19.63,-190.5 19.63,-209.5 141.63,-209.5 141.63,-190.5 19.63,-190.5"/>
<text text-anchor="middle" x="80.63" y="-197.5" font-family="Helvetica,sans-Serif" font-size="10.00">src/util/mutex_event.cpp</text>
</a>
</g>
</g>
<!-- Node2 -->
<g id="node2" class="node">
<title>Node2</title>
<g id="a_node2"><a xlink:title=" ">
<polygon fill="none" stroke="#bfbfbf" points="177.63,-0.5 177.63,-19.5 265.63,-19.5 265.63,-0.5 177.63,-0.5"/>
<text text-anchor="middle" x="221.63" y="-7.5" font-family="Helvetica,sans-Serif" font-size="10.00">yaclib/config.hpp</text>
</a>
</g>
</g>
<!-- Node1&#45;&gt;Node2 -->
<g id="edge1" class="edge">
<title>Node1&#45;&gt;Node2</title>
<path fill="none" stroke="midnightblue" d="M69.96,-190.18C42.62,-166.52 -25.36,-100.48 10.63,-56 29.98,-32.08 111.38,-20.33 167.23,-14.98"/>
<polygon fill="midnightblue" stroke="midnightblue" points="167.7,-18.45 177.34,-14.05 167.06,-11.48 167.7,-18.45"/>
</g>
<!-- Node3 -->
<g id="node3" class="node">
<title>Node3</title>
<g id="a_node3"><a xlink:href="mutex__event_8hpp.html" target="_top" xlink:title=" ">
<polygon fill="none" stroke="black" points="149.13,-123.5 149.13,-153.5 242.13,-153.5 242.13,-123.5 149.13,-123.5"/>
<text text-anchor="start" x="157.13" y="-141.5" font-family="Helvetica,sans-Serif" font-size="10.00">yaclib/util/detail</text>
<text text-anchor="middle" x="195.63" y="-130.5" font-family="Helvetica,sans-Serif" font-size="10.00">/mutex_event.hpp</text>
</a>
</g>
</g>
<!-- Node1&#45;&gt;Node3 -->
<g id="edge2" class="edge">
<title>Node1&#45;&gt;Node3</title>
<path fill="none" stroke="midnightblue" d="M97.11,-190.48C113.34,-182.08 138.66,-168.97 159.58,-158.15"/>
<polygon fill="midnightblue" stroke="midnightblue" points="161.25,-161.23 168.53,-153.52 158.04,-155.01 161.25,-161.23"/>
</g>
<!-- Node3&#45;&gt;Node2 -->
<g id="edge3" class="edge">
<title>Node3&#45;&gt;Node2</title>
<path fill="none" stroke="midnightblue" d="M198.51,-123.48C203.21,-100.62 212.52,-55.3 217.78,-29.71"/>
<polygon fill="midnightblue" stroke="midnightblue" points="221.24,-30.29 219.82,-19.79 214.38,-28.88 221.24,-30.29"/>
</g>
<!-- Node4 -->
<g id="node4" class="node">
<title>Node4</title>
<g id="a_node4"><a xlink:href="condition__variable_8hpp.html" target="_top" xlink:title=" ">
<polygon fill="none" stroke="black" points="357.13,-56.5 357.13,-86.5 462.13,-86.5 462.13,-56.5 357.13,-56.5"/>
<text text-anchor="start" x="365.13" y="-74.5" font-family="Helvetica,sans-Serif" font-size="10.00">yaclib/fault/condition</text>
<text text-anchor="middle" x="409.63" y="-63.5" font-family="Helvetica,sans-Serif" font-size="10.00">_variable.hpp</text>
</a>
</g>
</g>
<!-- Node3&#45;&gt;Node4 -->
<g id="edge4" class="edge">
<title>Node3&#45;&gt;Node4</title>
<path fill="none" stroke="midnightblue" d="M241.8,-123.48C274.45,-113.56 318.43,-100.2 353.17,-89.65"/>
<polygon fill="midnightblue" stroke="midnightblue" points="354.62,-92.87 363.17,-86.61 352.59,-86.17 354.62,-92.87"/>
</g>
<!-- Node6 -->
<g id="node6" class="node">
<title>Node6</title>
<g id="a_node6"><a xlink:href="mutex_8hpp.html" target="_top" xlink:title=" ">
<polygon fill="none" stroke="black" points="19.63,-62 19.63,-81 129.63,-81 129.63,-62 19.63,-62"/>
<text text-anchor="middle" x="74.63" y="-69" font-family="Helvetica,sans-Serif" font-size="10.00">yaclib/fault/mutex.hpp</text>
</a>
</g>
</g>
<!-- Node3&#45;&gt;Node6 -->
<g id="edge7" class="edge">
<title>Node3&#45;&gt;Node6</title>
<path fill="none" stroke="midnightblue" d="M169.37,-123.4C148.61,-112.24 119.83,-96.78 99.45,-85.83"/>
<polygon fill="midnightblue" stroke="midnightblue" points="100.93,-82.66 90.46,-81.01 97.62,-88.82 100.93,-82.66"/>
</g>
<!-- Node8 -->
<g id="node8" class="node">
<title>Node8</title>
<g id="a_node8"><a xlink:href="ref_8hpp.html" target="_top" xlink:title=" ">
<polygon fill="none" stroke="black" points="250.13,-62 250.13,-81 339.13,-81 339.13,-62 250.13,-62"/>
<text text-anchor="middle" x="294.63" y="-69" font-family="Helvetica,sans-Serif" font-size="10.00">yaclib/util/ref.hpp</text>
</a>
</g>
</g>
<!-- Node3&#45;&gt;Node8 -->
<g id="edge10" class="edge">
<title>Node3&#45;&gt;Node8</title>
<path fill="none" stroke="midnightblue" d="M217.11,-123.4C233.71,-112.5 256.58,-97.48 273.18,-86.58"/>
<polygon fill="midnightblue" stroke="midnightblue" points="275.23,-89.42 281.67,-81.01 271.39,-83.57 275.23,-89.42"/>
</g>
<!-- Node9 -->
<g id="node9" class="node">
<title>Node9</title>
<g id="a_node9"><a xlink:title=" ">
<polygon fill="none" stroke="#bfbfbf" points="147.63,-62 147.63,-81 193.63,-81 193.63,-62 147.63,-62"/>
<text text-anchor="middle" x="170.63" y="-69" font-family="Helvetica,sans-Serif" font-size="10.00">chrono</text>
</a>
</g>
</g>
<!-- Node3&#45;&gt;Node9 -->
<g id="edge12" class="edge">
<title>Node3&#45;&gt;Node9</title>
<path fill="none" stroke="midnightblue" d="M190.2,-123.4C186.5,-113.76 181.56,-100.91 177.57,-90.54"/>
<polygon fill="midnightblue" stroke="midnightblue" points="180.83,-89.27 173.97,-81.19 174.3,-91.78 180.83,-89.27"/>
</g>
<!-- Node4&#45;&gt;Node2 -->
<g id="edge5" class="edge">
<title>Node4&#45;&gt;Node2</title>
<path fill="none" stroke="midnightblue" d="M365.08,-56.4C332.59,-46.12 289.09,-32.35 258.54,-22.68"/>
<polygon fill="midnightblue" stroke="midnightblue" points="259.3,-19.25 248.71,-19.57 257.19,-25.93 259.3,-19.25"/>
</g>
<!-- Node5 -->
<g id="node5" class="node">
<title>Node5</title>
<g id="a_node5"><a xlink:title=" ">
<polygon fill="none" stroke="#bfbfbf" points="362.13,-0.5 362.13,-19.5 457.13,-19.5 457.13,-0.5 362.13,-0.5"/>
<text text-anchor="middle" x="409.63" y="-7.5" font-family="Helvetica,sans-Serif" font-size="10.00">condition_variable</text>
</a>
</g>
</g>
<!-- Node4&#45;&gt;Node5 -->
<g id="edge6" class="edge">
<title>Node4&#45;&gt;Node5</title>
<path fill="none" stroke="midnightblue" d="M409.63,-56.4C409.63,-48.47 409.63,-38.46 409.63,-29.86"/>
<polygon fill="midnightblue" stroke="midnightblue" points="413.13,-29.66 409.63,-19.66 406.13,-29.66 413.13,-29.66"/>
</g>
<!-- Node6&#45;&gt;Node2 -->
<g id="edge8" class="edge">
<title>Node6&#45;&gt;Node2</title>
<path fill="none" stroke="midnightblue" d="M95.69,-61.98C120.69,-51.86 162.57,-34.9 191.12,-23.35"/>
<polygon fill="midnightblue" stroke="midnightblue" points="192.65,-26.51 200.61,-19.51 190.02,-20.02 192.65,-26.51"/>
</g>
<!-- Node7 -->
<g id="node7" class="node">
<title>Node7</title>
<g id="a_node7"><a xlink:title=" ">
<polygon fill="none" stroke="#bfbfbf" points="53.13,-0.5 53.13,-19.5 96.13,-19.5 96.13,-0.5 53.13,-0.5"/>
<text text-anchor="middle" x="74.63" y="-7.5" font-family="Helvetica,sans-Serif" font-size="10.00">mutex</text>
</a>
</g>
</g>
<!-- Node6&#45;&gt;Node7 -->
<g id="edge9" class="edge">
<title>Node6&#45;&gt;Node7</title>
<path fill="none" stroke="midnightblue" d="M74.63,-61.98C74.63,-53.58 74.63,-40.48 74.63,-29.66"/>
<polygon fill="midnightblue" stroke="midnightblue" points="78.13,-29.51 74.63,-19.51 71.13,-29.51 78.13,-29.51"/>
</g>
<!-- Node8&#45;&gt;Node2 -->
<g id="edge11" class="edge">
<title>Node8&#45;&gt;Node2</title>
<path fill="none" stroke="midnightblue" d="M284.17,-61.98C272.68,-52.61 254,-37.38 240.04,-26.01"/>
<polygon fill="midnightblue" stroke="midnightblue" points="242.03,-23.11 232.07,-19.51 237.61,-28.54 242.03,-23.11"/>
</g>
</g>
</svg>
