<?xml version="1.0" encoding="UTF-8" standalone="no"?>
<!DOCTYPE svg PUBLIC "-//W3C//DTD SVG 1.1//EN"
 "http://www.w3.org/Graphics/SVG/1.1/DTD/svg11.dtd">
<!-- Generated by graphviz version 2.50.0 (20220203.2022)
 -->
<!-- Title: include/yaclib/async/promise.hpp Pages: 1 -->
<svg width="1522pt" height="665pt"
 viewBox="0.00 0.00 1521.69 665.00" xmlns="http://www.w3.org/2000/svg" xmlns:xlink="http://www.w3.org/1999/xlink">
<g id="graph0" class="graph" transform="scale(1 1) rotate(0) translate(4 661)">
<title>include/yaclib/async/promise.hpp</title>
<!-- Node1 -->
<g id="node1" class="node">
<title>Node1</title>
<g id="a_node1"><a xlink:title=" ">
<polygon fill="#bfbfbf" stroke="black" points="1238,-626.5 1238,-656.5 1342,-656.5 1342,-626.5 1238,-626.5"/>
<text text-anchor="start" x="1246" y="-644.5" font-family="Helvetica,sans-Serif" font-size="10.00">include/yaclib/async</text>
<text text-anchor="middle" x="1290" y="-633.5" font-family="Helvetica,sans-Serif" font-size="10.00">/promise.hpp</text>
</a>
</g>
</g>
<!-- Node2 -->
<g id="node2" class="node">
<title>Node2</title>
<g id="a_node2"><a xlink:href="result__core_8hpp.html" target="_top" xlink:title=" ">
<polygon fill="none" stroke="black" points="949,-559.5 949,-589.5 1045,-589.5 1045,-559.5 949,-559.5"/>
<text text-anchor="start" x="957" y="-577.5" font-family="Helvetica,sans-Serif" font-size="10.00">yaclib/async/detail</text>
<text text-anchor="middle" x="997" y="-566.5" font-family="Helvetica,sans-Serif" font-size="10.00">/result_core.hpp</text>
</a>
</g>
</g>
<!-- Node1&#45;&gt;Node2 -->
<g id="edge1" class="edge">
<title>Node1&#45;&gt;Node2</title>
<path fill="none" stroke="midnightblue" d="M1237.96,-628.95C1186.66,-617.58 1108.45,-600.22 1055.14,-588.4"/>
<polygon fill="midnightblue" stroke="midnightblue" points="1055.68,-584.93 1045.16,-586.18 1054.16,-591.77 1055.68,-584.93"/>
</g>
<!-- Node5 -->
<g id="node5" class="node">
<title>Node5</title>
<g id="a_node5"><a xlink:title=" ">
<polygon fill="none" stroke="#bfbfbf" points="801,-0.5 801,-19.5 889,-19.5 889,-0.5 801,-0.5"/>
<text text-anchor="middle" x="845" y="-7.5" font-family="Helvetica,sans-Serif" font-size="10.00">yaclib/config.hpp</text>
</a>
</g>
</g>
<!-- Node1&#45;&gt;Node5 -->
<g id="edge68" class="edge">
<title>Node1&#45;&gt;Node5</title>
<path fill="none" stroke="midnightblue" d="M1342.16,-631.44C1404.64,-617.25 1501,-583.25 1501,-508.5 1501,-508.5 1501,-508.5 1501,-137.5 1501,-122.9 1567.37,-122.36 1393,-56 1303.71,-22.02 1019.02,-13.67 899.09,-11.64"/>
<polygon fill="midnightblue" stroke="midnightblue" points="899.09,-8.14 889.03,-11.48 898.97,-15.14 899.09,-8.14"/>
</g>
<!-- Node25 -->
<g id="node25" class="node">
<title>Node25</title>
<g id="a_node25"><a xlink:href="type__traits_8hpp.html" target="_top" xlink:title=" ">
<polygon fill="none" stroke="black" points="1130.5,-190.5 1130.5,-209.5 1253.5,-209.5 1253.5,-190.5 1130.5,-190.5"/>
<text text-anchor="middle" x="1192" y="-197.5" font-family="Helvetica,sans-Serif" font-size="10.00">yaclib/util/type_traits.hpp</text>
</a>
</g>
</g>
<!-- Node1&#45;&gt;Node25 -->
<g id="edge69" class="edge">
<title>Node1&#45;&gt;Node25</title>
<path fill="none" stroke="midnightblue" d="M1283.03,-626.24C1272.06,-602.44 1252,-552.86 1252,-508.5 1252,-508.5 1252,-508.5 1252,-322 1252,-281.01 1224.03,-239.59 1206.28,-217.43"/>
<polygon fill="midnightblue" stroke="midnightblue" points="1208.92,-215.13 1199.84,-209.67 1203.54,-219.6 1208.92,-215.13"/>
</g>
<!-- Node30 -->
<g id="node30" class="node">
<title>Node30</title>
<g id="a_node30"><a xlink:href="promise__impl_8hpp.html" target="_top" xlink:title=" ">
<polygon fill="none" stroke="black" points="1377,-123.5 1377,-153.5 1473,-153.5 1473,-123.5 1377,-123.5"/>
<text text-anchor="start" x="1385" y="-141.5" font-family="Helvetica,sans-Serif" font-size="10.00">yaclib/async/detail</text>
<text text-anchor="middle" x="1425" y="-130.5" font-family="Helvetica,sans-Serif" font-size="10.00">/promise_impl.hpp</text>
</a>
</g>
</g>
<!-- Node1&#45;&gt;Node30 -->
<g id="edge70" class="edge">
<title>Node1&#45;&gt;Node30</title>
<path fill="none" stroke="midnightblue" d="M1315.74,-626.33C1349.92,-605.41 1406,-562.8 1406,-508.5 1406,-508.5 1406,-508.5 1406,-260.5 1406,-226.42 1413.45,-187.58 1419.02,-163.3"/>
<polygon fill="midnightblue" stroke="midnightblue" points="1422.43,-164.08 1421.34,-153.55 1415.62,-162.46 1422.43,-164.08"/>
</g>
<!-- Node3 -->
<g id="node3" class="node">
<title>Node3</title>
<g id="a_node3"><a xlink:href="base__core_8hpp.html" target="_top" xlink:title=" ">
<polygon fill="none" stroke="black" points="684,-492.5 684,-522.5 780,-522.5 780,-492.5 684,-492.5"/>
<text text-anchor="start" x="692" y="-510.5" font-family="Helvetica,sans-Serif" font-size="10.00">yaclib/async/detail</text>
<text text-anchor="middle" x="732" y="-499.5" font-family="Helvetica,sans-Serif" font-size="10.00">/base_core.hpp</text>
</a>
</g>
</g>
<!-- Node2&#45;&gt;Node3 -->
<g id="edge2" class="edge">
<title>Node2&#45;&gt;Node3</title>
<path fill="none" stroke="midnightblue" d="M948.7,-561.65C904.1,-550.71 837.77,-534.44 790.25,-522.79"/>
<polygon fill="midnightblue" stroke="midnightblue" points="790.96,-519.36 780.41,-520.37 789.29,-526.16 790.96,-519.36"/>
</g>
<!-- Node4 -->
<g id="node4" class="node">
<title>Node4</title>
<g id="a_node4"><a xlink:href="inline__core_8hpp.html" target="_top" xlink:title=" ">
<polygon fill="none" stroke="black" points="949,-369.5 949,-399.5 1045,-399.5 1045,-369.5 949,-369.5"/>
<text text-anchor="start" x="957" y="-387.5" font-family="Helvetica,sans-Serif" font-size="10.00">yaclib/async/detail</text>
<text text-anchor="middle" x="997" y="-376.5" font-family="Helvetica,sans-Serif" font-size="10.00">/inline_core.hpp</text>
</a>
</g>
</g>
<!-- Node2&#45;&gt;Node4 -->
<g id="edge51" class="edge">
<title>Node2&#45;&gt;Node4</title>
<path fill="none" stroke="midnightblue" d="M997,-559.37C997,-527.44 997,-449.44 997,-409.67"/>
<polygon fill="midnightblue" stroke="midnightblue" points="1000.5,-409.54 997,-399.54 993.5,-409.54 1000.5,-409.54"/>
</g>
<!-- Node2&#45;&gt;Node5 -->
<g id="edge52" class="edge">
<title>Node2&#45;&gt;Node5</title>
<path fill="none" stroke="midnightblue" d="M1045.21,-566.52C1141.61,-551.19 1349,-510.8 1349,-447 1349,-447 1349,-447 1349,-137.5 1349,-100.31 1358.03,-80.44 1330,-56 1298.07,-28.15 1018.9,-16.33 899.16,-12.51"/>
<polygon fill="midnightblue" stroke="midnightblue" points="899.21,-9.01 889.11,-12.19 898.99,-16 899.21,-9.01"/>
</g>
<!-- Node11 -->
<g id="node11" class="node">
<title>Node11</title>
<g id="a_node11"><a xlink:title=" ">
<polygon fill="none" stroke="#bfbfbf" points="548.5,-62 548.5,-81 587.5,-81 587.5,-62 548.5,-62"/>
<text text-anchor="middle" x="568" y="-69" font-family="Helvetica,sans-Serif" font-size="10.00">utility</text>
</a>
</g>
</g>
<!-- Node2&#45;&gt;Node11 -->
<g id="edge67" class="edge">
<title>Node2&#45;&gt;Node11</title>
<path fill="none" stroke="midnightblue" d="M948.75,-573.6C805.9,-572.61 395,-559.94 395,-447 395,-447 395,-447 395,-383.5 395,-255.54 508.23,-131.07 551.48,-88.2"/>
<polygon fill="midnightblue" stroke="midnightblue" points="553.98,-90.64 558.7,-81.16 549.1,-85.63 553.98,-90.64"/>
</g>
<!-- Node18 -->
<g id="node18" class="node">
<title>Node18</title>
<g id="a_node18"><a xlink:href="intrusive__ptr_8hpp.html" target="_top" xlink:title=" ">
<polygon fill="none" stroke="black" points="313.5,-123.5 313.5,-153.5 410.5,-153.5 410.5,-123.5 313.5,-123.5"/>
<text text-anchor="start" x="321.5" y="-141.5" font-family="Helvetica,sans-Serif" font-size="10.00">yaclib/util/intrusive</text>
<text text-anchor="middle" x="362" y="-130.5" font-family="Helvetica,sans-Serif" font-size="10.00">_ptr.hpp</text>
</a>
</g>
</g>
<!-- Node2&#45;&gt;Node18 -->
<g id="edge53" class="edge">
<title>Node2&#45;&gt;Node18</title>
<path fill="none" stroke="midnightblue" d="M948.88,-573.02C822.64,-571.21 484.58,-562.68 381,-523 328.87,-503.03 281,-502.82 281,-447 281,-447 281,-447 281,-383.5 281,-298.41 325.92,-204.73 348.86,-162.45"/>
<polygon fill="midnightblue" stroke="midnightblue" points="352.01,-163.98 353.79,-153.53 345.89,-160.59 352.01,-163.98"/>
</g>
<!-- Node24 -->
<g id="node24" class="node">
<title>Node24</title>
<g id="a_node24"><a xlink:href="result_8hpp.html" target="_top" xlink:title=" ">
<polygon fill="none" stroke="black" points="1022,-252 1022,-271 1124,-271 1124,-252 1022,-252"/>
<text text-anchor="middle" x="1073" y="-259" font-family="Helvetica,sans-Serif" font-size="10.00">yaclib/util/result.hpp</text>
</a>
</g>
</g>
<!-- Node2&#45;&gt;Node24 -->
<g id="edge54" class="edge">
<title>Node2&#45;&gt;Node24</title>
<path fill="none" stroke="midnightblue" d="M1012.75,-559.23C1035.01,-537.41 1073,-493.37 1073,-447 1073,-447 1073,-447 1073,-383.5 1073,-347.21 1073,-304.81 1073,-281.06"/>
<polygon fill="midnightblue" stroke="midnightblue" points="1076.5,-281.01 1073,-271.01 1069.5,-281.01 1076.5,-281.01"/>
</g>
<!-- Node3&#45;&gt;Node4 -->
<g id="edge3" class="edge">
<title>Node3&#45;&gt;Node4</title>
<path fill="none" stroke="midnightblue" d="M780.24,-502.68C823.47,-497.44 887.22,-485.07 935,-456 954.55,-444.1 971.31,-424.04 982.46,-408.35"/>
<polygon fill="midnightblue" stroke="midnightblue" points="985.61,-409.95 988.35,-399.72 979.82,-406.01 985.61,-409.95"/>
</g>
<!-- Node3&#45;&gt;Node5 -->
<g id="edge39" class="edge">
<title>Node3&#45;&gt;Node5</title>
<path fill="none" stroke="midnightblue" d="M780.13,-502.63C815.67,-497.38 863.06,-485.03 894,-456 918.47,-433.04 921,-419.05 921,-385.5 921,-385.5 921,-385.5 921,-137.5 921,-92.12 884.62,-48.98 862.2,-26.7"/>
<polygon fill="midnightblue" stroke="midnightblue" points="864.57,-24.13 854.94,-19.73 859.72,-29.18 864.57,-24.13"/>
</g>
<!-- Node6 -->
<g id="node6" class="node">
<title>Node6</title>
<g id="a_node6"><a xlink:href="task_8hpp.html" target="_top" xlink:title=" ">
<polygon fill="none" stroke="black" points="685.5,-313.5 685.5,-332.5 806.5,-332.5 806.5,-313.5 685.5,-313.5"/>
<text text-anchor="middle" x="746" y="-320.5" font-family="Helvetica,sans-Serif" font-size="10.00">yaclib/executor/task.hpp</text>
</a>
</g>
</g>
<!-- Node3&#45;&gt;Node6 -->
<g id="edge47" class="edge">
<title>Node3&#45;&gt;Node6</title>
<path fill="none" stroke="midnightblue" d="M724.44,-492.4C711.86,-466.99 689.6,-412.15 706,-369 710.34,-357.6 719.03,-347.24 727.21,-339.34"/>
<polygon fill="midnightblue" stroke="midnightblue" points="729.64,-341.86 734.73,-332.57 724.96,-336.66 729.64,-341.86"/>
</g>
<!-- Node13 -->
<g id="node13" class="node">
<title>Node13</title>
<g id="a_node13"><a xlink:href="atomic_8hpp.html" target="_top" xlink:title=" ">
<polygon fill="none" stroke="black" points="25.5,-62 25.5,-81 138.5,-81 138.5,-62 25.5,-62"/>
<text text-anchor="middle" x="82" y="-69" font-family="Helvetica,sans-Serif" font-size="10.00">yaclib/fault/atomic.hpp</text>
</a>
</g>
</g>
<!-- Node3&#45;&gt;Node13 -->
<g id="edge48" class="edge">
<title>Node3&#45;&gt;Node13</title>
<path fill="none" stroke="midnightblue" d="M683.89,-502.48C605.89,-495.38 455.77,-479.16 408,-456 263.4,-385.89 239.37,-338.6 143,-210 114.52,-171.99 95.72,-118.6 87.22,-90.86"/>
<polygon fill="midnightblue" stroke="midnightblue" points="90.57,-89.86 84.38,-81.26 83.86,-91.84 90.57,-89.86"/>
</g>
<!-- Node3&#45;&gt;Node18 -->
<g id="edge49" class="edge">
<title>Node3&#45;&gt;Node18</title>
<path fill="none" stroke="midnightblue" d="M715.76,-492.35C668.37,-450.79 526.92,-324.86 420,-210 405.6,-194.53 390.47,-176.05 379.27,-161.9"/>
<polygon fill="midnightblue" stroke="midnightblue" points="381.77,-159.42 372.85,-153.7 376.27,-163.73 381.77,-159.42"/>
</g>
<!-- Node19 -->
<g id="node19" class="node">
<title>Node19</title>
<g id="a_node19"><a xlink:href="ref_8hpp.html" target="_top" xlink:title=" ">
<polygon fill="none" stroke="black" points="441.5,-62 441.5,-81 530.5,-81 530.5,-62 441.5,-62"/>
<text text-anchor="middle" x="486" y="-69" font-family="Helvetica,sans-Serif" font-size="10.00">yaclib/util/ref.hpp</text>
</a>
</g>
</g>
<!-- Node3&#45;&gt;Node19 -->
<g id="edge50" class="edge">
<title>Node3&#45;&gt;Node19</title>
<path fill="none" stroke="midnightblue" d="M683.74,-501.21C582.46,-488.75 357,-453.4 357,-385.5 357,-385.5 357,-385.5 357,-260.5 357,-240.17 440.04,-131.45 472.87,-89.25"/>
<polygon fill="midnightblue" stroke="midnightblue" points="475.67,-91.35 479.06,-81.32 470.15,-87.05 475.67,-91.35"/>
</g>
<!-- Node22 -->
<g id="node22" class="node">
<title>Node22</title>
<g id="a_node22"><a xlink:href="executor_8hpp.html" target="_top" xlink:title=" ">
<polygon fill="none" stroke="black" points="715.5,-375 715.5,-394 854.5,-394 854.5,-375 715.5,-375"/>
<text text-anchor="middle" x="785" y="-382" font-family="Helvetica,sans-Serif" font-size="10.00">yaclib/executor/executor.hpp</text>
</a>
</g>
</g>
<!-- Node3&#45;&gt;Node22 -->
<g id="edge40" class="edge">
<title>Node3&#45;&gt;Node22</title>
<path fill="none" stroke="midnightblue" d="M734.41,-492.25C737.2,-477.67 742.53,-454.57 751,-436 756.45,-424.05 764.62,-411.8 771.59,-402.36"/>
<polygon fill="midnightblue" stroke="midnightblue" points="774.48,-404.34 777.77,-394.27 768.92,-400.09 774.48,-404.34"/>
</g>
<!-- Node23 -->
<g id="node23" class="node">
<title>Node23</title>
<g id="a_node23"><a xlink:href="inline_8hpp.html" target="_top" xlink:title=" ">
<polygon fill="none" stroke="black" points="760.5,-436.5 760.5,-455.5 885.5,-455.5 885.5,-436.5 760.5,-436.5"/>
<text text-anchor="middle" x="823" y="-443.5" font-family="Helvetica,sans-Serif" font-size="10.00">yaclib/executor/inline.hpp</text>
</a>
</g>
</g>
<!-- Node3&#45;&gt;Node23 -->
<g id="edge44" class="edge">
<title>Node3&#45;&gt;Node23</title>
<path fill="none" stroke="midnightblue" d="M753.57,-492.4C767.88,-483.04 786.61,-470.79 801.01,-461.38"/>
<polygon fill="midnightblue" stroke="midnightblue" points="803.3,-464.06 809.76,-455.66 799.47,-458.2 803.3,-464.06"/>
</g>
<!-- Node4&#45;&gt;Node5 -->
<g id="edge4" class="edge">
<title>Node4&#45;&gt;Node5</title>
<path fill="none" stroke="midnightblue" d="M989.49,-369.42C978.42,-347.31 959,-302.79 959,-262.5 959,-262.5 959,-262.5 959,-137.5 959,-99.74 959.23,-84.96 935,-56 922.23,-40.74 903.01,-30.15 885.6,-23.1"/>
<polygon fill="midnightblue" stroke="midnightblue" points="886.76,-19.79 876.17,-19.53 884.29,-26.34 886.76,-19.79"/>
</g>
<!-- Node4&#45;&gt;Node6 -->
<g id="edge5" class="edge">
<title>Node4&#45;&gt;Node6</title>
<path fill="none" stroke="midnightblue" d="M948.9,-372.1C903.74,-361.39 836.63,-345.48 792.12,-334.93"/>
<polygon fill="midnightblue" stroke="midnightblue" points="792.69,-331.47 782.15,-332.57 791.07,-338.28 792.69,-331.47"/>
</g>
<!-- Node6&#45;&gt;Node5 -->
<g id="edge6" class="edge">
<title>Node6&#45;&gt;Node5</title>
<path fill="none" stroke="midnightblue" d="M756.27,-313.4C765.62,-305.03 779.12,-291.48 787,-277 803.69,-246.32 807,-235.93 807,-201 807,-201 807,-201 807,-137.5 807,-97.35 824.78,-52.95 836.01,-28.89"/>
<polygon fill="midnightblue" stroke="midnightblue" points="839.29,-30.15 840.49,-19.63 832.99,-27.1 839.29,-30.15"/>
</g>
<!-- Node7 -->
<g id="node7" class="node">
<title>Node7</title>
<g id="a_node7"><a xlink:href="node_8hpp.html" target="_top" xlink:title=" ">
<polygon fill="none" stroke="black" points="695.5,-246.5 695.5,-276.5 778.5,-276.5 778.5,-246.5 695.5,-246.5"/>
<text text-anchor="start" x="703.5" y="-264.5" font-family="Helvetica,sans-Serif" font-size="10.00">yaclib/util/detail</text>
<text text-anchor="middle" x="737" y="-253.5" font-family="Helvetica,sans-Serif" font-size="10.00">/node.hpp</text>
</a>
</g>
</g>
<!-- Node6&#45;&gt;Node7 -->
<g id="edge7" class="edge">
<title>Node6&#45;&gt;Node7</title>
<path fill="none" stroke="midnightblue" d="M744.71,-313.48C743.65,-306.47 742.1,-296.19 740.66,-286.7"/>
<polygon fill="midnightblue" stroke="midnightblue" points="744.08,-285.89 739.12,-276.52 737.16,-286.93 744.08,-285.89"/>
</g>
<!-- Node8 -->
<g id="node8" class="node">
<title>Node8</title>
<g id="a_node8"><a xlink:href="func_8hpp.html" target="_top" xlink:title=" ">
<polygon fill="none" stroke="black" points="555.5,-252 555.5,-271 652.5,-271 652.5,-252 555.5,-252"/>
<text text-anchor="middle" x="604" y="-259" font-family="Helvetica,sans-Serif" font-size="10.00">yaclib/util/func.hpp</text>
</a>
</g>
</g>
<!-- Node6&#45;&gt;Node8 -->
<g id="edge9" class="edge">
<title>Node6&#45;&gt;Node8</title>
<path fill="none" stroke="midnightblue" d="M725.65,-313.48C701.61,-303.4 661.4,-286.55 633.84,-275"/>
<polygon fill="midnightblue" stroke="midnightblue" points="634.88,-271.65 624.31,-271.01 632.18,-278.1 634.88,-271.65"/>
</g>
<!-- Node7&#45;&gt;Node5 -->
<g id="edge8" class="edge">
<title>Node7&#45;&gt;Node5</title>
<path fill="none" stroke="midnightblue" d="M738.04,-246.48C741.17,-211.67 752.96,-119.53 793,-56 800.56,-44.01 812.29,-33.46 822.7,-25.59"/>
<polygon fill="midnightblue" stroke="midnightblue" points="824.92,-28.31 831.02,-19.64 820.85,-22.62 824.92,-28.31"/>
</g>
<!-- Node8&#45;&gt;Node5 -->
<g id="edge10" class="edge">
<title>Node8&#45;&gt;Node5</title>
<path fill="none" stroke="midnightblue" d="M603.92,-251.91C603.73,-223.56 603.63,-134.15 610,-123 646.89,-58.39 733.51,-30.56 790.65,-18.93"/>
<polygon fill="midnightblue" stroke="midnightblue" points="791.45,-22.34 800.6,-17 790.12,-15.47 791.45,-22.34"/>
</g>
<!-- Node9 -->
<g id="node9" class="node">
<title>Node9</title>
<g id="a_node9"><a xlink:href="safe__call_8hpp.html" target="_top" xlink:title=" ">
<polygon fill="none" stroke="black" points="619.5,-123.5 619.5,-153.5 702.5,-153.5 702.5,-123.5 619.5,-123.5"/>
<text text-anchor="start" x="627.5" y="-141.5" font-family="Helvetica,sans-Serif" font-size="10.00">yaclib/util/detail</text>
<text text-anchor="middle" x="661" y="-130.5" font-family="Helvetica,sans-Serif" font-size="10.00">/safe_call.hpp</text>
</a>
</g>
</g>
<!-- Node8&#45;&gt;Node9 -->
<g id="edge11" class="edge">
<title>Node8&#45;&gt;Node9</title>
<path fill="none" stroke="midnightblue" d="M610.54,-251.96C617.77,-242.22 629.38,-225.63 637,-210 644.27,-195.09 650.28,-177.42 654.47,-163.5"/>
<polygon fill="midnightblue" stroke="midnightblue" points="657.89,-164.27 657.31,-153.69 651.16,-162.32 657.89,-164.27"/>
</g>
<!-- Node10 -->
<g id="node10" class="node">
<title>Node10</title>
<g id="a_node10"><a xlink:title=" ">
<polygon fill="none" stroke="#bfbfbf" points="1053,-62 1053,-81 1115,-81 1115,-62 1053,-62"/>
<text text-anchor="middle" x="1084" y="-69" font-family="Helvetica,sans-Serif" font-size="10.00">type_traits</text>
</a>
</g>
</g>
<!-- Node8&#45;&gt;Node10 -->
<g id="edge37" class="edge">
<title>Node8&#45;&gt;Node10</title>
<path fill="none" stroke="midnightblue" d="M625.87,-251.93C703.03,-221.71 962.73,-120 1052.87,-84.69"/>
<polygon fill="midnightblue" stroke="midnightblue" points="1054.24,-87.92 1062.27,-81.01 1051.69,-81.4 1054.24,-87.92"/>
</g>
<!-- Node8&#45;&gt;Node11 -->
<g id="edge38" class="edge">
<title>Node8&#45;&gt;Node11</title>
<path fill="none" stroke="midnightblue" d="M601.34,-251.75C595.95,-233.67 583.66,-190.79 577,-154 573.13,-132.6 570.67,-107.72 569.32,-91.14"/>
<polygon fill="midnightblue" stroke="midnightblue" points="572.81,-90.83 568.56,-81.12 565.83,-91.36 572.81,-90.83"/>
</g>
<!-- Node12 -->
<g id="node12" class="node">
<title>Node12</title>
<g id="a_node12"><a xlink:href="helper_8hpp.html" target="_top" xlink:title=" ">
<polygon fill="none" stroke="black" points="152,-190.5 152,-209.5 256,-209.5 256,-190.5 152,-190.5"/>
<text text-anchor="middle" x="204" y="-197.5" font-family="Helvetica,sans-Serif" font-size="10.00">yaclib/util/helper.hpp</text>
</a>
</g>
</g>
<!-- Node8&#45;&gt;Node12 -->
<g id="edge15" class="edge">
<title>Node8&#45;&gt;Node12</title>
<path fill="none" stroke="midnightblue" d="M555.35,-253.26C482.67,-242.45 345.78,-222.09 266.02,-210.22"/>
<polygon fill="midnightblue" stroke="midnightblue" points="266.51,-206.76 256.1,-208.75 265.48,-213.68 266.51,-206.76"/>
</g>
<!-- Node8&#45;&gt;Node18 -->
<g id="edge35" class="edge">
<title>Node8&#45;&gt;Node18</title>
<path fill="none" stroke="midnightblue" d="M590.79,-251.81C569.2,-237.81 524.76,-209.81 485,-190 460.77,-177.93 432.94,-166.32 409.88,-157.29"/>
<polygon fill="midnightblue" stroke="midnightblue" points="410.9,-153.93 400.32,-153.58 408.37,-160.46 410.9,-153.93"/>
</g>
<!-- Node8&#45;&gt;Node19 -->
<g id="edge36" class="edge">
<title>Node8&#45;&gt;Node19</title>
<path fill="none" stroke="midnightblue" d="M598.62,-251.93C580.5,-223.06 521.42,-128.94 496.86,-89.81"/>
<polygon fill="midnightblue" stroke="midnightblue" points="499.69,-87.73 491.41,-81.12 493.76,-91.45 499.69,-87.73"/>
</g>
<!-- Node9&#45;&gt;Node5 -->
<g id="edge12" class="edge">
<title>Node9&#45;&gt;Node5</title>
<path fill="none" stroke="midnightblue" d="M675.05,-123.3C692.66,-105.99 724.29,-76.52 755,-56 773.87,-43.39 796.78,-31.99 814.75,-23.82"/>
<polygon fill="midnightblue" stroke="midnightblue" points="816.46,-26.89 824.18,-19.62 813.62,-20.49 816.46,-26.89"/>
</g>
<!-- Node9&#45;&gt;Node10 -->
<g id="edge13" class="edge">
<title>Node9&#45;&gt;Node10</title>
<path fill="none" stroke="midnightblue" d="M702.77,-126.12C707.55,-124.98 712.37,-123.91 717,-123 834.09,-99.87 974.27,-83.74 1042.54,-76.61"/>
<polygon fill="midnightblue" stroke="midnightblue" points="1043.28,-80.05 1052.86,-75.54 1042.56,-73.09 1043.28,-80.05"/>
</g>
<!-- Node9&#45;&gt;Node11 -->
<g id="edge14" class="edge">
<title>Node9&#45;&gt;Node11</title>
<path fill="none" stroke="midnightblue" d="M640.82,-123.4C625.37,-112.6 604.14,-97.76 588.58,-86.89"/>
<polygon fill="midnightblue" stroke="midnightblue" points="590.37,-83.87 580.17,-81.01 586.36,-89.6 590.37,-83.87"/>
</g>
<!-- Node12&#45;&gt;Node5 -->
<g id="edge16" class="edge">
<title>Node12&#45;&gt;Node5</title>
<path fill="none" stroke="midnightblue" d="M216.5,-190.24C229.13,-181.31 249.14,-166.98 266,-154 283.27,-140.7 286.58,-136.1 304,-123 326.46,-106.1 333.65,-104.04 356,-87 373.06,-73.99 373.23,-64.32 393,-56 463.45,-26.35 686.36,-15.8 790.46,-12.43"/>
<polygon fill="midnightblue" stroke="midnightblue" points="790.87,-15.92 800.75,-12.1 790.65,-8.92 790.87,-15.92"/>
</g>
<!-- Node12&#45;&gt;Node13 -->
<g id="edge17" class="edge">
<title>Node12&#45;&gt;Node13</title>
<path fill="none" stroke="midnightblue" d="M190.28,-190.32C177.54,-181.89 158.41,-168.31 144,-154 123.78,-133.92 104.57,-107.03 93.04,-89.73"/>
<polygon fill="midnightblue" stroke="midnightblue" points="95.86,-87.66 87.46,-81.21 90.01,-91.5 95.86,-87.66"/>
</g>
<!-- Node17 -->
<g id="node17" class="node">
<title>Node17</title>
<g id="a_node17"><a xlink:href="atomic__counter_8hpp.html" target="_top" xlink:title=" ">
<polygon fill="none" stroke="black" points="153,-123.5 153,-153.5 257,-153.5 257,-123.5 153,-123.5"/>
<text text-anchor="start" x="161" y="-141.5" font-family="Helvetica,sans-Serif" font-size="10.00">yaclib/util/detail</text>
<text text-anchor="middle" x="205" y="-130.5" font-family="Helvetica,sans-Serif" font-size="10.00">/atomic_counter.hpp</text>
</a>
</g>
</g>
<!-- Node12&#45;&gt;Node17 -->
<g id="edge22" class="edge">
<title>Node12&#45;&gt;Node17</title>
<path fill="none" stroke="midnightblue" d="M204.14,-190.48C204.26,-183.47 204.43,-173.19 204.59,-163.7"/>
<polygon fill="midnightblue" stroke="midnightblue" points="208.1,-163.58 204.76,-153.52 201.1,-163.46 208.1,-163.58"/>
</g>
<!-- Node12&#45;&gt;Node18 -->
<g id="edge27" class="edge">
<title>Node12&#45;&gt;Node18</title>
<path fill="none" stroke="midnightblue" d="M226.64,-190.48C249.64,-181.81 285.93,-168.15 315.15,-157.14"/>
<polygon fill="midnightblue" stroke="midnightblue" points="316.64,-160.32 324.76,-153.52 314.17,-153.77 316.64,-160.32"/>
</g>
<!-- Node13&#45;&gt;Node5 -->
<g id="edge18" class="edge">
<title>Node13&#45;&gt;Node5</title>
<path fill="none" stroke="midnightblue" d="M138.77,-62.25C155.56,-60 174,-57.71 191,-56 413.09,-33.61 678.74,-19.11 790.86,-13.56"/>
<polygon fill="midnightblue" stroke="midnightblue" points="791.09,-17.05 800.9,-13.06 790.74,-10.06 791.09,-17.05"/>
</g>
<!-- Node14 -->
<g id="node14" class="node">
<title>Node14</title>
<g id="a_node14"><a xlink:title=" ">
<polygon fill="none" stroke="#bfbfbf" points="137.5,-0.5 137.5,-19.5 186.5,-19.5 186.5,-0.5 137.5,-0.5"/>
<text text-anchor="middle" x="162" y="-7.5" font-family="Helvetica,sans-Serif" font-size="10.00">cstddef</text>
</a>
</g>
</g>
<!-- Node13&#45;&gt;Node14 -->
<g id="edge19" class="edge">
<title>Node13&#45;&gt;Node14</title>
<path fill="none" stroke="midnightblue" d="M93.46,-61.98C106.17,-52.52 126.91,-37.1 142.25,-25.69"/>
<polygon fill="midnightblue" stroke="midnightblue" points="144.62,-28.29 150.56,-19.51 140.45,-22.67 144.62,-28.29"/>
</g>
<!-- Node15 -->
<g id="node15" class="node">
<title>Node15</title>
<g id="a_node15"><a xlink:title=" ">
<polygon fill="none" stroke="#bfbfbf" points="0,-0.5 0,-19.5 46,-19.5 46,-0.5 0,-0.5"/>
<text text-anchor="middle" x="23" y="-7.5" font-family="Helvetica,sans-Serif" font-size="10.00">cstdint</text>
</a>
</g>
</g>
<!-- Node13&#45;&gt;Node15 -->
<g id="edge20" class="edge">
<title>Node13&#45;&gt;Node15</title>
<path fill="none" stroke="midnightblue" d="M73.55,-61.98C64.43,-52.78 49.73,-37.96 38.52,-26.66"/>
<polygon fill="midnightblue" stroke="midnightblue" points="40.96,-24.15 31.44,-19.51 35.99,-29.07 40.96,-24.15"/>
</g>
<!-- Node16 -->
<g id="node16" class="node">
<title>Node16</title>
<g id="a_node16"><a xlink:title=" ">
<polygon fill="none" stroke="#bfbfbf" points="64,-0.5 64,-19.5 110,-19.5 110,-0.5 64,-0.5"/>
<text text-anchor="middle" x="87" y="-7.5" font-family="Helvetica,sans-Serif" font-size="10.00">atomic</text>
</a>
</g>
</g>
<!-- Node13&#45;&gt;Node16 -->
<g id="edge21" class="edge">
<title>Node13&#45;&gt;Node16</title>
<path fill="none" stroke="midnightblue" d="M82.72,-61.98C83.42,-53.58 84.52,-40.48 85.43,-29.66"/>
<polygon fill="midnightblue" stroke="midnightblue" points="88.94,-29.77 86.28,-19.51 81.96,-29.18 88.94,-29.77"/>
</g>
<!-- Node17&#45;&gt;Node5 -->
<g id="edge23" class="edge">
<title>Node17&#45;&gt;Node5</title>
<path fill="none" stroke="midnightblue" d="M203.71,-123.46C202.87,-104.9 204.56,-72.61 224,-56 266.54,-19.65 646.56,-12.66 790.27,-11.32"/>
<polygon fill="midnightblue" stroke="midnightblue" points="790.64,-14.82 800.61,-11.23 790.58,-7.82 790.64,-14.82"/>
</g>
<!-- Node17&#45;&gt;Node11 -->
<g id="edge26" class="edge">
<title>Node17&#45;&gt;Node11</title>
<path fill="none" stroke="midnightblue" d="M257.01,-129.85C349.21,-116.26 532.32,-89.12 539,-87 540.62,-86.49 542.27,-85.89 543.91,-85.24"/>
<polygon fill="midnightblue" stroke="midnightblue" points="545.36,-88.42 553.03,-81.1 542.47,-82.05 545.36,-88.42"/>
</g>
<!-- Node17&#45;&gt;Node13 -->
<g id="edge24" class="edge">
<title>Node17&#45;&gt;Node13</title>
<path fill="none" stroke="midnightblue" d="M178.31,-123.4C157.11,-112.19 127.68,-96.64 106.95,-85.69"/>
<polygon fill="midnightblue" stroke="midnightblue" points="108.57,-82.58 98.1,-81.01 105.3,-88.77 108.57,-82.58"/>
</g>
<!-- Node17&#45;&gt;Node14 -->
<g id="edge25" class="edge">
<title>Node17&#45;&gt;Node14</title>
<path fill="none" stroke="midnightblue" d="M200.23,-123.48C192.43,-100.51 176.92,-54.89 168.24,-29.37"/>
<polygon fill="midnightblue" stroke="midnightblue" points="171.52,-28.13 164.99,-19.79 164.89,-30.38 171.52,-28.13"/>
</g>
<!-- Node18&#45;&gt;Node5 -->
<g id="edge28" class="edge">
<title>Node18&#45;&gt;Node5</title>
<path fill="none" stroke="midnightblue" d="M369.54,-123.4C380.51,-104.46 402.79,-71.39 432,-56 492.95,-23.89 692.93,-14.64 790.49,-12.02"/>
<polygon fill="midnightblue" stroke="midnightblue" points="790.83,-15.51 800.74,-11.76 790.65,-8.51 790.83,-15.51"/>
</g>
<!-- Node18&#45;&gt;Node10 -->
<g id="edge31" class="edge">
<title>Node18&#45;&gt;Node10</title>
<path fill="none" stroke="midnightblue" d="M410.78,-133.11C544.83,-121.04 917.17,-87.52 1042.34,-76.25"/>
<polygon fill="midnightblue" stroke="midnightblue" points="1043,-79.71 1052.64,-75.32 1042.37,-72.73 1043,-79.71"/>
</g>
<!-- Node18&#45;&gt;Node19 -->
<g id="edge29" class="edge">
<title>Node18&#45;&gt;Node19</title>
<path fill="none" stroke="midnightblue" d="M388.91,-123.4C410.28,-112.19 439.95,-96.64 460.85,-85.69"/>
<polygon fill="midnightblue" stroke="midnightblue" points="462.54,-88.75 469.77,-81.01 459.29,-82.55 462.54,-88.75"/>
</g>
<!-- Node20 -->
<g id="node20" class="node">
<title>Node20</title>
<g id="a_node20"><a xlink:href="intrusive__ptr__impl_8hpp.html" target="_top" xlink:title=" ">
<polygon fill="none" stroke="black" points="233,-56.5 233,-86.5 347,-86.5 347,-56.5 233,-56.5"/>
<text text-anchor="start" x="241" y="-74.5" font-family="Helvetica,sans-Serif" font-size="10.00">yaclib/util/detail</text>
<text text-anchor="middle" x="290" y="-63.5" font-family="Helvetica,sans-Serif" font-size="10.00">/intrusive_ptr_impl.hpp</text>
</a>
</g>
</g>
<!-- Node18&#45;&gt;Node20 -->
<g id="edge32" class="edge">
<title>Node18&#45;&gt;Node20</title>
<path fill="none" stroke="midnightblue" d="M346.38,-123.4C336.66,-114.62 323.99,-103.18 313.12,-93.37"/>
<polygon fill="midnightblue" stroke="midnightblue" points="315.36,-90.68 305.59,-86.58 310.67,-95.88 315.36,-90.68"/>
</g>
<!-- Node19&#45;&gt;Node5 -->
<g id="edge30" class="edge">
<title>Node19&#45;&gt;Node5</title>
<path fill="none" stroke="midnightblue" d="M514.73,-61.96C522.55,-59.82 531.06,-57.66 539,-56 626.31,-37.71 729.18,-24.2 790.63,-16.98"/>
<polygon fill="midnightblue" stroke="midnightblue" points="791.34,-20.42 800.87,-15.79 790.54,-13.47 791.34,-20.42"/>
</g>
<!-- Node20&#45;&gt;Node5 -->
<g id="edge33" class="edge">
<title>Node20&#45;&gt;Node5</title>
<path fill="none" stroke="midnightblue" d="M347.26,-58.25C351.9,-57.43 356.52,-56.66 361,-56 515.98,-33.04 700.72,-19.71 790.55,-14.13"/>
<polygon fill="midnightblue" stroke="midnightblue" points="791,-17.6 800.76,-13.5 790.57,-10.62 791,-17.6"/>
</g>
<!-- Node21 -->
<g id="node21" class="node">
<title>Node21</title>
<g id="a_node21"><a xlink:title=" ">
<polygon fill="none" stroke="#bfbfbf" points="265.5,-0.5 265.5,-19.5 314.5,-19.5 314.5,-0.5 265.5,-0.5"/>
<text text-anchor="middle" x="290" y="-7.5" font-family="Helvetica,sans-Serif" font-size="10.00">cassert</text>
</a>
</g>
</g>
<!-- Node20&#45;&gt;Node21 -->
<g id="edge34" class="edge">
<title>Node20&#45;&gt;Node21</title>
<path fill="none" stroke="midnightblue" d="M290,-56.4C290,-48.47 290,-38.46 290,-29.86"/>
<polygon fill="midnightblue" stroke="midnightblue" points="293.5,-29.66 290,-19.66 286.5,-29.66 293.5,-29.66"/>
</g>
<!-- Node22&#45;&gt;Node5 -->
<g id="edge41" class="edge">
<title>Node22&#45;&gt;Node5</title>
<path fill="none" stroke="midnightblue" d="M792.84,-374.83C809.11,-355.92 845,-308.93 845,-262.5 845,-262.5 845,-262.5 845,-137.5 845,-99.2 845,-54.38 845,-29.7"/>
<polygon fill="midnightblue" stroke="midnightblue" points="848.5,-29.59 845,-19.59 841.5,-29.59 848.5,-29.59"/>
</g>
<!-- Node22&#45;&gt;Node6 -->
<g id="edge42" class="edge">
<title>Node22&#45;&gt;Node6</title>
<path fill="none" stroke="midnightblue" d="M779.41,-374.98C773.62,-366.14 764.41,-352.09 757.13,-340.98"/>
<polygon fill="midnightblue" stroke="midnightblue" points="759.99,-338.95 751.58,-332.51 754.13,-342.79 759.99,-338.95"/>
</g>
<!-- Node22&#45;&gt;Node18 -->
<g id="edge43" class="edge">
<title>Node22&#45;&gt;Node18</title>
<path fill="none" stroke="midnightblue" d="M761.07,-374.88C717.05,-358.58 620.84,-320.9 546,-277 485.12,-241.29 420.46,-189.23 386.36,-160.5"/>
<polygon fill="midnightblue" stroke="midnightblue" points="388.26,-157.52 378.37,-153.72 383.73,-162.86 388.26,-157.52"/>
</g>
<!-- Node23&#45;&gt;Node5 -->
<g id="edge45" class="edge">
<title>Node23&#45;&gt;Node5</title>
<path fill="none" stroke="midnightblue" d="M833.02,-436.34C842.13,-427.94 855.3,-414.37 863,-400 879.5,-369.21 883,-358.93 883,-324 883,-324 883,-324 883,-137.5 883,-97.35 865.22,-52.95 853.99,-28.89"/>
<polygon fill="midnightblue" stroke="midnightblue" points="857.01,-27.1 849.51,-19.63 850.71,-30.15 857.01,-27.1"/>
</g>
<!-- Node23&#45;&gt;Node22 -->
<g id="edge46" class="edge">
<title>Node23&#45;&gt;Node22</title>
<path fill="none" stroke="midnightblue" d="M817.56,-436.48C811.91,-427.64 802.94,-413.59 795.84,-402.48"/>
<polygon fill="midnightblue" stroke="midnightblue" points="798.77,-400.55 790.43,-394.01 792.87,-404.32 798.77,-400.55"/>
</g>
<!-- Node24&#45;&gt;Node5 -->
<g id="edge55" class="edge">
<title>Node24&#45;&gt;Node5</title>
<path fill="none" stroke="midnightblue" d="M1069.92,-251.97C1064.89,-238.43 1054.22,-211.35 1042,-190 1032.2,-172.87 1025.8,-171.13 1016,-154 992.39,-112.71 1007.88,-88.34 973,-56 952.64,-37.12 923.9,-26.09 898.81,-19.68"/>
<polygon fill="midnightblue" stroke="midnightblue" points="899.58,-16.26 889.04,-17.36 897.96,-23.07 899.58,-16.26"/>
</g>
<!-- Node24&#45;&gt;Node25 -->
<g id="edge56" class="edge">
<title>Node24&#45;&gt;Node25</title>
<path fill="none" stroke="midnightblue" d="M1090.05,-251.98C1109.84,-242.08 1142.72,-225.64 1165.77,-214.12"/>
<polygon fill="midnightblue" stroke="midnightblue" points="1167.6,-217.11 1174.98,-209.51 1164.47,-210.85 1167.6,-217.11"/>
</g>
<!-- Node28 -->
<g id="node28" class="node">
<title>Node28</title>
<g id="a_node28"><a xlink:title=" ">
<polygon fill="none" stroke="#bfbfbf" points="1025,-129 1025,-148 1083,-148 1083,-129 1025,-129"/>
<text text-anchor="middle" x="1054" y="-136" font-family="Helvetica,sans-Serif" font-size="10.00">exception</text>
</a>
</g>
</g>
<!-- Node24&#45;&gt;Node28 -->
<g id="edge65" class="edge">
<title>Node24&#45;&gt;Node28</title>
<path fill="none" stroke="midnightblue" d="M1074.5,-251.71C1076.51,-238.27 1079.36,-211.85 1075,-190 1072.73,-178.65 1067.86,-166.66 1063.38,-157.21"/>
<polygon fill="midnightblue" stroke="midnightblue" points="1066.43,-155.47 1058.82,-148.1 1060.17,-158.61 1066.43,-155.47"/>
</g>
<!-- Node29 -->
<g id="node29" class="node">
<title>Node29</title>
<g id="a_node29"><a xlink:title=" ">
<polygon fill="none" stroke="#bfbfbf" points="987,-190.5 987,-209.5 1033,-209.5 1033,-190.5 987,-190.5"/>
<text text-anchor="middle" x="1010" y="-197.5" font-family="Helvetica,sans-Serif" font-size="10.00">variant</text>
</a>
</g>
</g>
<!-- Node24&#45;&gt;Node29 -->
<g id="edge66" class="edge">
<title>Node24&#45;&gt;Node29</title>
<path fill="none" stroke="midnightblue" d="M1063.97,-251.98C1054.24,-242.78 1038.54,-227.96 1026.58,-216.66"/>
<polygon fill="midnightblue" stroke="midnightblue" points="1028.68,-213.83 1019.01,-209.51 1023.88,-218.92 1028.68,-213.83"/>
</g>
<!-- Node25&#45;&gt;Node5 -->
<g id="edge57" class="edge">
<title>Node25&#45;&gt;Node5</title>
<path fill="none" stroke="midnightblue" d="M1212.22,-190.49C1226.77,-183.17 1245.3,-171.06 1254,-154 1260.26,-141.73 1260.43,-135.19 1254,-123 1229.38,-76.34 1205.16,-75.16 1156,-56 1070.41,-22.64 962.87,-13.69 899.28,-11.48"/>
<polygon fill="midnightblue" stroke="midnightblue" points="899.18,-7.98 889.08,-11.17 898.97,-14.97 899.18,-7.98"/>
</g>
<!-- Node25&#45;&gt;Node10 -->
<g id="edge64" class="edge">
<title>Node25&#45;&gt;Node10</title>
<path fill="none" stroke="midnightblue" d="M1176.55,-190.38C1163.05,-182.29 1143.55,-169.19 1130,-154 1112.89,-134.82 1099.36,-108.23 1091.52,-90.71"/>
<polygon fill="midnightblue" stroke="midnightblue" points="1094.56,-88.92 1087.4,-81.12 1088.13,-91.68 1094.56,-88.92"/>
</g>
<!-- Node26 -->
<g id="node26" class="node">
<title>Node26</title>
<g id="a_node26"><a xlink:href="fwd_8hpp.html" target="_top" xlink:title=" ">
<polygon fill="none" stroke="black" points="1243,-62 1243,-81 1321,-81 1321,-62 1243,-62"/>
<text text-anchor="middle" x="1282" y="-69" font-family="Helvetica,sans-Serif" font-size="10.00">yaclib/fwd.hpp</text>
</a>
</g>
</g>
<!-- Node25&#45;&gt;Node26 -->
<g id="edge58" class="edge">
<title>Node25&#45;&gt;Node26</title>
<path fill="none" stroke="midnightblue" d="M1233.05,-190.38C1252.96,-183.92 1275.09,-172.81 1287,-154 1298.99,-135.05 1294.26,-108.41 1288.89,-90.81"/>
<polygon fill="midnightblue" stroke="midnightblue" points="1292.14,-89.51 1285.6,-81.17 1285.51,-91.76 1292.14,-89.51"/>
</g>
<!-- Node27 -->
<g id="node27" class="node">
<title>Node27</title>
<g id="a_node27"><a xlink:href="type__traits__impl_8hpp.html" target="_top" xlink:title=" ">
<polygon fill="none" stroke="black" points="1139,-123.5 1139,-153.5 1245,-153.5 1245,-123.5 1139,-123.5"/>
<text text-anchor="start" x="1147" y="-141.5" font-family="Helvetica,sans-Serif" font-size="10.00">yaclib/util/detail</text>
<text text-anchor="middle" x="1192" y="-130.5" font-family="Helvetica,sans-Serif" font-size="10.00">/type_traits_impl.hpp</text>
</a>
</g>
</g>
<!-- Node25&#45;&gt;Node27 -->
<g id="edge60" class="edge">
<title>Node25&#45;&gt;Node27</title>
<path fill="none" stroke="midnightblue" d="M1192,-190.48C1192,-183.47 1192,-173.19 1192,-163.7"/>
<polygon fill="midnightblue" stroke="midnightblue" points="1195.5,-163.52 1192,-153.52 1188.5,-163.52 1195.5,-163.52"/>
</g>
<!-- Node25&#45;&gt;Node28 -->
<g id="edge63" class="edge">
<title>Node25&#45;&gt;Node28</title>
<path fill="none" stroke="midnightblue" d="M1172.23,-190.48C1148.86,-180.4 1109.79,-163.55 1083,-152"/>
<polygon fill="midnightblue" stroke="midnightblue" points="1084.3,-148.75 1073.74,-148.01 1081.53,-155.18 1084.3,-148.75"/>
</g>
<!-- Node26&#45;&gt;Node5 -->
<g id="edge59" class="edge">
<title>Node26&#45;&gt;Node5</title>
<path fill="none" stroke="midnightblue" d="M1253.85,-61.95C1245.88,-59.76 1237.15,-57.58 1229,-56 1112.58,-33.39 973.94,-20.55 899.21,-14.77"/>
<polygon fill="midnightblue" stroke="midnightblue" points="899.33,-11.27 889.1,-14 898.8,-18.25 899.33,-11.27"/>
</g>
<!-- Node27&#45;&gt;Node5 -->
<g id="edge61" class="edge">
<title>Node27&#45;&gt;Node5</title>
<path fill="none" stroke="midnightblue" d="M1184.49,-123.3C1173.75,-104.55 1152.18,-72.05 1124,-56 1086.56,-34.68 969.2,-21.43 899.18,-15.22"/>
<polygon fill="midnightblue" stroke="midnightblue" points="899.47,-11.73 889.21,-14.35 898.87,-18.7 899.47,-11.73"/>
</g>
<!-- Node27&#45;&gt;Node10 -->
<g id="edge62" class="edge">
<title>Node27&#45;&gt;Node10</title>
<path fill="none" stroke="midnightblue" d="M1168.57,-123.4C1150.29,-112.39 1125.04,-97.2 1106.9,-86.28"/>
<polygon fill="midnightblue" stroke="midnightblue" points="1108.51,-83.16 1098.13,-81.01 1104.9,-89.16 1108.51,-83.16"/>
</g>
<!-- Node30&#45;&gt;Node5 -->
<g id="edge71" class="edge">
<title>Node30&#45;&gt;Node5</title>
<path fill="none" stroke="midnightblue" d="M1418.81,-123.34C1409.65,-104.33 1390.56,-71.18 1363,-56 1284.43,-12.71 1015.63,-9.52 899.34,-10.25"/>
<polygon fill="midnightblue" stroke="midnightblue" points="899.21,-6.75 889.24,-10.33 899.26,-13.75 899.21,-6.75"/>
</g>
<!-- Node30&#45;&gt;Node10 -->
<g id="edge72" class="edge">
<title>Node30&#45;&gt;Node10</title>
<path fill="none" stroke="midnightblue" d="M1376.87,-128.32C1309.56,-115.5 1188.5,-92.42 1125.16,-80.35"/>
<polygon fill="midnightblue" stroke="midnightblue" points="1125.62,-76.87 1115.14,-78.44 1124.31,-83.75 1125.62,-76.87"/>
</g>
</g>
</svg>
