<?xml version="1.0" encoding="UTF-8" standalone="no"?>
<!DOCTYPE svg PUBLIC "-//W3C//DTD SVG 1.1//EN"
 "http://www.w3.org/Graphics/SVG/1.1/DTD/svg11.dtd">
<!-- Generated by graphviz version 2.50.0 (20220203.2022)
 -->
<!-- Title: src/async/promise_impl.cpp Pages: 1 -->
<svg width="1578pt" height="710pt"
 viewBox="0.00 0.00 1577.50 710.00" xmlns="http://www.w3.org/2000/svg" xmlns:xlink="http://www.w3.org/1999/xlink">
<g id="graph0" class="graph" transform="scale(1 1) rotate(0) translate(4 706)">
<title>src/async/promise_impl.cpp</title>
<!-- Node1 -->
<g id="node1" class="node">
<title>Node1</title>
<g id="a_node1"><a xlink:title=" ">
<polygon fill="#bfbfbf" stroke="black" points="1432.5,-682.5 1432.5,-701.5 1569.5,-701.5 1569.5,-682.5 1432.5,-682.5"/>
<text text-anchor="middle" x="1501" y="-689.5" font-family="Helvetica,sans-Serif" font-size="10.00">src/async/promise_impl.cpp</text>
</a>
</g>
</g>
<!-- Node2 -->
<g id="node2" class="node">
<title>Node2</title>
<g id="a_node2"><a xlink:href="promise_8hpp.html" target="_top" xlink:title=" ">
<polygon fill="none" stroke="black" points="1381.5,-626.5 1381.5,-645.5 1506.5,-645.5 1506.5,-626.5 1381.5,-626.5"/>
<text text-anchor="middle" x="1444" y="-633.5" font-family="Helvetica,sans-Serif" font-size="10.00">yaclib/async/promise.hpp</text>
</a>
</g>
</g>
<!-- Node1&#45;&gt;Node2 -->
<g id="edge1" class="edge">
<title>Node1&#45;&gt;Node2</title>
<path fill="none" stroke="midnightblue" d="M1491.84,-682.32C1483.5,-674.42 1470.97,-662.55 1460.82,-652.94"/>
<polygon fill="midnightblue" stroke="midnightblue" points="1462.99,-650.17 1453.32,-645.83 1458.18,-655.25 1462.99,-650.17"/>
</g>
<!-- Node6 -->
<g id="node6" class="node">
<title>Node6</title>
<g id="a_node6"><a xlink:title=" ">
<polygon fill="none" stroke="#bfbfbf" points="801,-0.5 801,-19.5 889,-19.5 889,-0.5 801,-0.5"/>
<text text-anchor="middle" x="845" y="-7.5" font-family="Helvetica,sans-Serif" font-size="10.00">yaclib/config.hpp</text>
</a>
</g>
</g>
<!-- Node1&#45;&gt;Node6 -->
<g id="edge74" class="edge">
<title>Node1&#45;&gt;Node6</title>
<path fill="none" stroke="midnightblue" d="M1508.69,-682.44C1524.25,-664.2 1558,-619.55 1558,-575.5 1558,-575.5 1558,-575.5 1558,-137.5 1558,-81.53 1513.8,-77.19 1462,-56 1360.86,-14.62 1030.67,-10.59 899.46,-10.68"/>
<polygon fill="midnightblue" stroke="midnightblue" points="899.25,-7.18 889.25,-10.7 899.26,-14.18 899.25,-7.18"/>
</g>
<!-- Node3 -->
<g id="node3" class="node">
<title>Node3</title>
<g id="a_node3"><a xlink:href="result__core_8hpp.html" target="_top" xlink:title=" ">
<polygon fill="none" stroke="black" points="940,-559.5 940,-589.5 1036,-589.5 1036,-559.5 940,-559.5"/>
<text text-anchor="start" x="948" y="-577.5" font-family="Helvetica,sans-Serif" font-size="10.00">yaclib/async/detail</text>
<text text-anchor="middle" x="988" y="-566.5" font-family="Helvetica,sans-Serif" font-size="10.00">/result_core.hpp</text>
</a>
</g>
</g>
<!-- Node2&#45;&gt;Node3 -->
<g id="edge2" class="edge">
<title>Node2&#45;&gt;Node3</title>
<path fill="none" stroke="midnightblue" d="M1381.07,-626.79C1292.45,-615.22 1132.09,-594.3 1046.13,-583.09"/>
<polygon fill="midnightblue" stroke="midnightblue" points="1046.4,-579.59 1036.03,-581.77 1045.49,-586.53 1046.4,-579.59"/>
</g>
<!-- Node2&#45;&gt;Node6 -->
<g id="edge69" class="edge">
<title>Node2&#45;&gt;Node6</title>
<path fill="none" stroke="midnightblue" d="M1453.94,-626.27C1474.54,-607.16 1520,-559.23 1520,-508.5 1520,-508.5 1520,-508.5 1520,-137.5 1520,-122.84 1586.37,-122.08 1412,-56 1319.25,-20.85 1022.9,-13.16 899.61,-11.47"/>
<polygon fill="midnightblue" stroke="midnightblue" points="899.33,-7.97 889.28,-11.34 899.24,-14.97 899.33,-7.97"/>
</g>
<!-- Node26 -->
<g id="node26" class="node">
<title>Node26</title>
<g id="a_node26"><a xlink:href="type__traits_8hpp.html" target="_top" xlink:title=" ">
<polygon fill="none" stroke="black" points="1111.5,-190.5 1111.5,-209.5 1234.5,-209.5 1234.5,-190.5 1111.5,-190.5"/>
<text text-anchor="middle" x="1173" y="-197.5" font-family="Helvetica,sans-Serif" font-size="10.00">yaclib/util/type_traits.hpp</text>
</a>
</g>
</g>
<!-- Node2&#45;&gt;Node26 -->
<g id="edge70" class="edge">
<title>Node2&#45;&gt;Node26</title>
<path fill="none" stroke="midnightblue" d="M1438.59,-626.33C1405.39,-573.16 1229.26,-291.09 1183.74,-218.2"/>
<polygon fill="midnightblue" stroke="midnightblue" points="1186.69,-216.32 1178.43,-209.69 1180.75,-220.03 1186.69,-216.32"/>
</g>
<!-- Node31 -->
<g id="node31" class="node">
<title>Node31</title>
<g id="a_node31"><a xlink:href="promise__impl_8hpp.html" target="_top" xlink:title=" ">
<polygon fill="none" stroke="black" points="1396,-123.5 1396,-153.5 1492,-153.5 1492,-123.5 1396,-123.5"/>
<text text-anchor="start" x="1404" y="-141.5" font-family="Helvetica,sans-Serif" font-size="10.00">yaclib/async/detail</text>
<text text-anchor="middle" x="1444" y="-130.5" font-family="Helvetica,sans-Serif" font-size="10.00">/promise_impl.hpp</text>
</a>
</g>
</g>
<!-- Node2&#45;&gt;Node31 -->
<g id="edge71" class="edge">
<title>Node2&#45;&gt;Node31</title>
<path fill="none" stroke="midnightblue" d="M1444,-626.41C1444,-605.98 1444,-552.86 1444,-508.5 1444,-508.5 1444,-508.5 1444,-260.5 1444,-226.98 1444,-188.24 1444,-163.81"/>
<polygon fill="midnightblue" stroke="midnightblue" points="1447.5,-163.66 1444,-153.66 1440.5,-163.66 1447.5,-163.66"/>
</g>
<!-- Node4 -->
<g id="node4" class="node">
<title>Node4</title>
<g id="a_node4"><a xlink:href="base__core_8hpp.html" target="_top" xlink:title=" ">
<polygon fill="none" stroke="black" points="618,-492.5 618,-522.5 714,-522.5 714,-492.5 618,-492.5"/>
<text text-anchor="start" x="626" y="-510.5" font-family="Helvetica,sans-Serif" font-size="10.00">yaclib/async/detail</text>
<text text-anchor="middle" x="666" y="-499.5" font-family="Helvetica,sans-Serif" font-size="10.00">/base_core.hpp</text>
</a>
</g>
</g>
<!-- Node3&#45;&gt;Node4 -->
<g id="edge3" class="edge">
<title>Node3&#45;&gt;Node4</title>
<path fill="none" stroke="midnightblue" d="M939.79,-563.77C882.12,-552.13 785.66,-532.65 723.97,-520.2"/>
<polygon fill="midnightblue" stroke="midnightblue" points="724.5,-516.74 714.01,-518.19 723.12,-523.6 724.5,-516.74"/>
</g>
<!-- Node5 -->
<g id="node5" class="node">
<title>Node5</title>
<g id="a_node5"><a xlink:href="inline__core_8hpp.html" target="_top" xlink:title=" ">
<polygon fill="none" stroke="black" points="940,-369.5 940,-399.5 1036,-399.5 1036,-369.5 940,-369.5"/>
<text text-anchor="start" x="948" y="-387.5" font-family="Helvetica,sans-Serif" font-size="10.00">yaclib/async/detail</text>
<text text-anchor="middle" x="988" y="-376.5" font-family="Helvetica,sans-Serif" font-size="10.00">/inline_core.hpp</text>
</a>
</g>
</g>
<!-- Node3&#45;&gt;Node5 -->
<g id="edge52" class="edge">
<title>Node3&#45;&gt;Node5</title>
<path fill="none" stroke="midnightblue" d="M988,-559.37C988,-527.44 988,-449.44 988,-409.67"/>
<polygon fill="midnightblue" stroke="midnightblue" points="991.5,-409.54 988,-399.54 984.5,-409.54 991.5,-409.54"/>
</g>
<!-- Node3&#45;&gt;Node6 -->
<g id="edge53" class="edge">
<title>Node3&#45;&gt;Node6</title>
<path fill="none" stroke="midnightblue" d="M1035.74,-559.47C1137.8,-526.21 1368,-432.36 1368,-262.5 1368,-262.5 1368,-262.5 1368,-137.5 1368,-98.25 1365.63,-79.24 1334,-56 1299.58,-30.71 1019.37,-17.44 899.29,-12.87"/>
<polygon fill="midnightblue" stroke="midnightblue" points="899.34,-9.37 889.21,-12.49 899.07,-16.36 899.34,-9.37"/>
</g>
<!-- Node12 -->
<g id="node12" class="node">
<title>Node12</title>
<g id="a_node12"><a xlink:title=" ">
<polygon fill="none" stroke="#bfbfbf" points="571.5,-62 571.5,-81 610.5,-81 610.5,-62 571.5,-62"/>
<text text-anchor="middle" x="591" y="-69" font-family="Helvetica,sans-Serif" font-size="10.00">utility</text>
</a>
</g>
</g>
<!-- Node3&#45;&gt;Node12 -->
<g id="edge68" class="edge">
<title>Node3&#45;&gt;Node12</title>
<path fill="none" stroke="midnightblue" d="M963.9,-559.48C884.29,-512.61 632.44,-359.67 591,-277 560,-215.16 576.19,-128.99 585.69,-91.35"/>
<polygon fill="midnightblue" stroke="midnightblue" points="589.18,-91.87 588.37,-81.31 582.41,-90.07 589.18,-91.87"/>
</g>
<!-- Node19 -->
<g id="node19" class="node">
<title>Node19</title>
<g id="a_node19"><a xlink:href="intrusive__ptr_8hpp.html" target="_top" xlink:title=" ">
<polygon fill="none" stroke="black" points="134.5,-123.5 134.5,-153.5 231.5,-153.5 231.5,-123.5 134.5,-123.5"/>
<text text-anchor="start" x="142.5" y="-141.5" font-family="Helvetica,sans-Serif" font-size="10.00">yaclib/util/intrusive</text>
<text text-anchor="middle" x="183" y="-130.5" font-family="Helvetica,sans-Serif" font-size="10.00">_ptr.hpp</text>
</a>
</g>
</g>
<!-- Node3&#45;&gt;Node19 -->
<g id="edge54" class="edge">
<title>Node3&#45;&gt;Node19</title>
<path fill="none" stroke="midnightblue" d="M939.8,-570.33C793.1,-560.02 354.54,-524.09 231,-456 169.47,-422.08 144,-394.26 144,-324 144,-324 144,-324 144,-260.5 144,-225 159.39,-186.35 170.84,-162.51"/>
<polygon fill="midnightblue" stroke="midnightblue" points="173.98,-164.07 175.29,-153.55 167.71,-160.95 173.98,-164.07"/>
</g>
<!-- Node25 -->
<g id="node25" class="node">
<title>Node25</title>
<g id="a_node25"><a xlink:href="result_8hpp.html" target="_top" xlink:title=" ">
<polygon fill="none" stroke="black" points="992,-252 992,-271 1094,-271 1094,-252 992,-252"/>
<text text-anchor="middle" x="1043" y="-259" font-family="Helvetica,sans-Serif" font-size="10.00">yaclib/util/result.hpp</text>
</a>
</g>
</g>
<!-- Node3&#45;&gt;Node25 -->
<g id="edge55" class="edge">
<title>Node3&#45;&gt;Node25</title>
<path fill="none" stroke="midnightblue" d="M1003.75,-559.23C1026.01,-537.41 1064,-493.37 1064,-447 1064,-447 1064,-447 1064,-383.5 1064,-346.69 1054.45,-304.49 1048.23,-280.92"/>
<polygon fill="midnightblue" stroke="midnightblue" points="1051.59,-279.94 1045.58,-271.22 1044.84,-281.78 1051.59,-279.94"/>
</g>
<!-- Node4&#45;&gt;Node5 -->
<g id="edge4" class="edge">
<title>Node4&#45;&gt;Node5</title>
<path fill="none" stroke="midnightblue" d="M714,-498.64C755.94,-490.83 817.93,-476.95 869,-456 901.9,-442.5 936.55,-421.03 959.93,-405.33"/>
<polygon fill="midnightblue" stroke="midnightblue" points="962.01,-408.14 968.3,-399.62 958.07,-402.36 962.01,-408.14"/>
</g>
<!-- Node4&#45;&gt;Node6 -->
<g id="edge40" class="edge">
<title>Node4&#45;&gt;Node6</title>
<path fill="none" stroke="midnightblue" d="M698.56,-492.45C716.69,-483.64 738.97,-471.09 756,-456 826.58,-393.44 844.25,-367.74 870,-277 896.82,-182.51 903.8,-148.94 872,-56 868.65,-46.21 862.96,-36.25 857.66,-28.2"/>
<polygon fill="midnightblue" stroke="midnightblue" points="860.37,-25.96 851.79,-19.75 854.62,-29.96 860.37,-25.96"/>
</g>
<!-- Node7 -->
<g id="node7" class="node">
<title>Node7</title>
<g id="a_node7"><a xlink:href="task_8hpp.html" target="_top" xlink:title=" ">
<polygon fill="none" stroke="black" points="696.5,-313.5 696.5,-332.5 817.5,-332.5 817.5,-313.5 696.5,-313.5"/>
<text text-anchor="middle" x="757" y="-320.5" font-family="Helvetica,sans-Serif" font-size="10.00">yaclib/executor/task.hpp</text>
</a>
</g>
</g>
<!-- Node4&#45;&gt;Node7 -->
<g id="edge48" class="edge">
<title>Node4&#45;&gt;Node7</title>
<path fill="none" stroke="midnightblue" d="M696.05,-492.4C710.75,-483.92 727.33,-471.72 737,-456 758.78,-420.59 759.86,-369.99 758.55,-342.88"/>
<polygon fill="midnightblue" stroke="midnightblue" points="762.04,-342.56 757.9,-332.81 755.05,-343.02 762.04,-342.56"/>
</g>
<!-- Node14 -->
<g id="node14" class="node">
<title>Node14</title>
<g id="a_node14"><a xlink:href="atomic_8hpp.html" target="_top" xlink:title=" ">
<polygon fill="none" stroke="black" points="132.5,-62 132.5,-81 245.5,-81 245.5,-62 132.5,-62"/>
<text text-anchor="middle" x="189" y="-69" font-family="Helvetica,sans-Serif" font-size="10.00">yaclib/fault/atomic.hpp</text>
</a>
</g>
</g>
<!-- Node4&#45;&gt;Node14 -->
<g id="edge49" class="edge">
<title>Node4&#45;&gt;Node14</title>
<path fill="none" stroke="midnightblue" d="M617.63,-505.02C518.9,-501.33 297.88,-489.48 231,-456 158.75,-419.83 106,-404.8 106,-324 106,-324 106,-324 106,-199 106,-164.18 106.1,-152.24 125,-123 134.74,-107.93 150.52,-95.41 163.98,-86.6"/>
<polygon fill="midnightblue" stroke="midnightblue" points="166.17,-89.36 172.82,-81.11 162.48,-83.41 166.17,-89.36"/>
</g>
<!-- Node4&#45;&gt;Node19 -->
<g id="edge50" class="edge">
<title>Node4&#45;&gt;Node19</title>
<path fill="none" stroke="midnightblue" d="M617.58,-504.6C495.35,-498.5 184,-474.26 184,-385.5 184,-385.5 184,-385.5 184,-260.5 184,-226.98 183.61,-188.24 183.32,-163.81"/>
<polygon fill="midnightblue" stroke="midnightblue" points="186.82,-163.61 183.19,-153.66 179.82,-163.7 186.82,-163.61"/>
</g>
<!-- Node20 -->
<g id="node20" class="node">
<title>Node20</title>
<g id="a_node20"><a xlink:href="ref_8hpp.html" target="_top" xlink:title=" ">
<polygon fill="none" stroke="black" points="302.5,-62 302.5,-81 391.5,-81 391.5,-62 302.5,-62"/>
<text text-anchor="middle" x="347" y="-69" font-family="Helvetica,sans-Serif" font-size="10.00">yaclib/util/ref.hpp</text>
</a>
</g>
</g>
<!-- Node4&#45;&gt;Node20 -->
<g id="edge51" class="edge">
<title>Node4&#45;&gt;Node20</title>
<path fill="none" stroke="midnightblue" d="M617.89,-500.93C518.14,-488.05 298,-452.08 298,-385.5 298,-385.5 298,-385.5 298,-199 298,-157.6 321.1,-113.41 335.58,-89.78"/>
<polygon fill="midnightblue" stroke="midnightblue" points="338.59,-91.57 340.99,-81.25 332.68,-87.82 338.59,-91.57"/>
</g>
<!-- Node23 -->
<g id="node23" class="node">
<title>Node23</title>
<g id="a_node23"><a xlink:href="executor_8hpp.html" target="_top" xlink:title=" ">
<polygon fill="none" stroke="black" points="505.5,-375 505.5,-394 644.5,-394 644.5,-375 505.5,-375"/>
<text text-anchor="middle" x="575" y="-382" font-family="Helvetica,sans-Serif" font-size="10.00">yaclib/executor/executor.hpp</text>
</a>
</g>
</g>
<!-- Node4&#45;&gt;Node23 -->
<g id="edge41" class="edge">
<title>Node4&#45;&gt;Node23</title>
<path fill="none" stroke="midnightblue" d="M636.98,-492.43C622.1,-483.84 604.86,-471.51 594,-456 583.22,-440.61 578.55,-419.41 576.53,-404.28"/>
<polygon fill="midnightblue" stroke="midnightblue" points="579.99,-403.67 575.45,-394.1 573.03,-404.41 579.99,-403.67"/>
</g>
<!-- Node24 -->
<g id="node24" class="node">
<title>Node24</title>
<g id="a_node24"><a xlink:href="inline_8hpp.html" target="_top" xlink:title=" ">
<polygon fill="none" stroke="black" points="603.5,-436.5 603.5,-455.5 728.5,-455.5 728.5,-436.5 603.5,-436.5"/>
<text text-anchor="middle" x="666" y="-443.5" font-family="Helvetica,sans-Serif" font-size="10.00">yaclib/executor/inline.hpp</text>
</a>
</g>
</g>
<!-- Node4&#45;&gt;Node24 -->
<g id="edge45" class="edge">
<title>Node4&#45;&gt;Node24</title>
<path fill="none" stroke="midnightblue" d="M666,-492.4C666,-484.47 666,-474.46 666,-465.86"/>
<polygon fill="midnightblue" stroke="midnightblue" points="669.5,-465.66 666,-455.66 662.5,-465.66 669.5,-465.66"/>
</g>
<!-- Node5&#45;&gt;Node6 -->
<g id="edge5" class="edge">
<title>Node5&#45;&gt;Node6</title>
<path fill="none" stroke="midnightblue" d="M1036.27,-376.74C1130.55,-362.17 1330,-324.06 1330,-262.5 1330,-262.5 1330,-262.5 1330,-137.5 1330,-100.31 1338.99,-80.5 1311,-56 1280.57,-29.37 1015.88,-16.95 899.5,-12.74"/>
<polygon fill="midnightblue" stroke="midnightblue" points="899.5,-9.24 889.38,-12.38 899.25,-16.23 899.5,-9.24"/>
</g>
<!-- Node5&#45;&gt;Node7 -->
<g id="edge6" class="edge">
<title>Node5&#45;&gt;Node7</title>
<path fill="none" stroke="midnightblue" d="M939.86,-371.1C898.62,-360.48 839.78,-345.32 800.08,-335.1"/>
<polygon fill="midnightblue" stroke="midnightblue" points="800.73,-331.65 790.17,-332.54 798.98,-338.43 800.73,-331.65"/>
</g>
<!-- Node7&#45;&gt;Node6 -->
<g id="edge7" class="edge">
<title>Node7&#45;&gt;Node6</title>
<path fill="none" stroke="midnightblue" d="M771.38,-313.19C783.01,-305.25 798.76,-292.46 807,-277 851.43,-193.7 849.36,-75.86 846.54,-30.15"/>
<polygon fill="midnightblue" stroke="midnightblue" points="850.02,-29.66 845.82,-19.93 843.04,-30.15 850.02,-29.66"/>
</g>
<!-- Node8 -->
<g id="node8" class="node">
<title>Node8</title>
<g id="a_node8"><a xlink:href="node_8hpp.html" target="_top" xlink:title=" ">
<polygon fill="none" stroke="black" points="715.5,-246.5 715.5,-276.5 798.5,-276.5 798.5,-246.5 715.5,-246.5"/>
<text text-anchor="start" x="723.5" y="-264.5" font-family="Helvetica,sans-Serif" font-size="10.00">yaclib/util/detail</text>
<text text-anchor="middle" x="757" y="-253.5" font-family="Helvetica,sans-Serif" font-size="10.00">/node.hpp</text>
</a>
</g>
</g>
<!-- Node7&#45;&gt;Node8 -->
<g id="edge8" class="edge">
<title>Node7&#45;&gt;Node8</title>
<path fill="none" stroke="midnightblue" d="M757,-313.48C757,-306.47 757,-296.19 757,-286.7"/>
<polygon fill="midnightblue" stroke="midnightblue" points="760.5,-286.52 757,-276.52 753.5,-286.52 760.5,-286.52"/>
</g>
<!-- Node9 -->
<g id="node9" class="node">
<title>Node9</title>
<g id="a_node9"><a xlink:href="func_8hpp.html" target="_top" xlink:title=" ">
<polygon fill="none" stroke="black" points="600.5,-252 600.5,-271 697.5,-271 697.5,-252 600.5,-252"/>
<text text-anchor="middle" x="649" y="-259" font-family="Helvetica,sans-Serif" font-size="10.00">yaclib/util/func.hpp</text>
</a>
</g>
</g>
<!-- Node7&#45;&gt;Node9 -->
<g id="edge10" class="edge">
<title>Node7&#45;&gt;Node9</title>
<path fill="none" stroke="midnightblue" d="M741.53,-313.48C723.72,-303.67 694.26,-287.43 673.37,-275.92"/>
<polygon fill="midnightblue" stroke="midnightblue" points="674.89,-272.77 664.45,-271.01 671.51,-278.9 674.89,-272.77"/>
</g>
<!-- Node8&#45;&gt;Node6 -->
<g id="edge9" class="edge">
<title>Node8&#45;&gt;Node6</title>
<path fill="none" stroke="midnightblue" d="M758.91,-246.47C763.94,-212.4 779.46,-123.17 812,-56 816.9,-45.88 824.14,-35.69 830.59,-27.57"/>
<polygon fill="midnightblue" stroke="midnightblue" points="833.44,-29.61 837.13,-19.68 828.05,-25.15 833.44,-29.61"/>
</g>
<!-- Node9&#45;&gt;Node6 -->
<g id="edge11" class="edge">
<title>Node9&#45;&gt;Node6</title>
<path fill="none" stroke="midnightblue" d="M648.08,-251.8C646.08,-229.05 643.28,-166.55 667,-123 696.09,-69.61 762.65,-38.28 805.63,-22.91"/>
<polygon fill="midnightblue" stroke="midnightblue" points="806.9,-26.18 815.21,-19.61 804.62,-19.56 806.9,-26.18"/>
</g>
<!-- Node10 -->
<g id="node10" class="node">
<title>Node10</title>
<g id="a_node10"><a xlink:href="safe__call_8hpp.html" target="_top" xlink:title=" ">
<polygon fill="none" stroke="black" points="676.5,-123.5 676.5,-153.5 759.5,-153.5 759.5,-123.5 676.5,-123.5"/>
<text text-anchor="start" x="684.5" y="-141.5" font-family="Helvetica,sans-Serif" font-size="10.00">yaclib/util/detail</text>
<text text-anchor="middle" x="718" y="-130.5" font-family="Helvetica,sans-Serif" font-size="10.00">/safe_call.hpp</text>
</a>
</g>
</g>
<!-- Node9&#45;&gt;Node10 -->
<g id="edge12" class="edge">
<title>Node9&#45;&gt;Node10</title>
<path fill="none" stroke="midnightblue" d="M653.96,-251.8C664.52,-233.28 689.51,-189.46 704.96,-162.36"/>
<polygon fill="midnightblue" stroke="midnightblue" points="708.08,-163.96 709.99,-153.54 702,-160.49 708.08,-163.96"/>
</g>
<!-- Node11 -->
<g id="node11" class="node">
<title>Node11</title>
<g id="a_node11"><a xlink:title=" ">
<polygon fill="none" stroke="#bfbfbf" points="1015,-62 1015,-81 1077,-81 1077,-62 1015,-62"/>
<text text-anchor="middle" x="1046" y="-69" font-family="Helvetica,sans-Serif" font-size="10.00">type_traits</text>
</a>
</g>
</g>
<!-- Node9&#45;&gt;Node11 -->
<g id="edge38" class="edge">
<title>Node9&#45;&gt;Node11</title>
<path fill="none" stroke="midnightblue" d="M667.09,-251.93C730.38,-221.96 942.18,-121.67 1018.38,-85.58"/>
<polygon fill="midnightblue" stroke="midnightblue" points="1020.26,-88.56 1027.8,-81.12 1017.27,-82.23 1020.26,-88.56"/>
</g>
<!-- Node9&#45;&gt;Node12 -->
<g id="edge39" class="edge">
<title>Node9&#45;&gt;Node12</title>
<path fill="none" stroke="midnightblue" d="M646.36,-251.93C637.53,-223.31 608.9,-130.53 596.65,-90.81"/>
<polygon fill="midnightblue" stroke="midnightblue" points="599.95,-89.64 593.66,-81.12 593.26,-91.7 599.95,-89.64"/>
</g>
<!-- Node13 -->
<g id="node13" class="node">
<title>Node13</title>
<g id="a_node13"><a xlink:href="helper_8hpp.html" target="_top" xlink:title=" ">
<polygon fill="none" stroke="black" points="326,-190.5 326,-209.5 430,-209.5 430,-190.5 326,-190.5"/>
<text text-anchor="middle" x="378" y="-197.5" font-family="Helvetica,sans-Serif" font-size="10.00">yaclib/util/helper.hpp</text>
</a>
</g>
</g>
<!-- Node9&#45;&gt;Node13 -->
<g id="edge16" class="edge">
<title>Node9&#45;&gt;Node13</title>
<path fill="none" stroke="midnightblue" d="M610.17,-251.98C561.88,-241.37 479.39,-223.26 426.85,-211.72"/>
<polygon fill="midnightblue" stroke="midnightblue" points="427.27,-208.24 416.76,-209.51 425.77,-215.07 427.27,-208.24"/>
</g>
<!-- Node9&#45;&gt;Node19 -->
<g id="edge36" class="edge">
<title>Node9&#45;&gt;Node19</title>
<path fill="none" stroke="midnightblue" d="M600.28,-258.16C534.5,-253.87 414.34,-242 317,-210 279.25,-197.59 239.35,-175.25 213.01,-159.04"/>
<polygon fill="midnightblue" stroke="midnightblue" points="214.62,-155.92 204.29,-153.59 210.91,-161.85 214.62,-155.92"/>
</g>
<!-- Node9&#45;&gt;Node20 -->
<g id="edge37" class="edge">
<title>Node9&#45;&gt;Node20</title>
<path fill="none" stroke="midnightblue" d="M623.04,-251.93C552.79,-228.64 363.67,-165.16 355,-154 341.2,-136.23 341.4,-109.29 343.57,-91.3"/>
<polygon fill="midnightblue" stroke="midnightblue" points="347.06,-91.61 345.11,-81.19 340.14,-90.55 347.06,-91.61"/>
</g>
<!-- Node10&#45;&gt;Node6 -->
<g id="edge13" class="edge">
<title>Node10&#45;&gt;Node6</title>
<path fill="none" stroke="midnightblue" d="M725.43,-123.25C734.98,-105.89 752.86,-76.37 774,-56 787.1,-43.37 804.29,-32.37 818.47,-24.41"/>
<polygon fill="midnightblue" stroke="midnightblue" points="820.16,-27.47 827.28,-19.63 816.82,-21.32 820.16,-27.47"/>
</g>
<!-- Node10&#45;&gt;Node11 -->
<g id="edge14" class="edge">
<title>Node10&#45;&gt;Node11</title>
<path fill="none" stroke="midnightblue" d="M759.54,-129.27C822.57,-116.78 941.67,-93.17 1004.61,-80.7"/>
<polygon fill="midnightblue" stroke="midnightblue" points="1005.45,-84.1 1014.58,-78.73 1004.09,-77.24 1005.45,-84.1"/>
</g>
<!-- Node10&#45;&gt;Node12 -->
<g id="edge15" class="edge">
<title>Node10&#45;&gt;Node12</title>
<path fill="none" stroke="midnightblue" d="M690.44,-123.4C668.55,-112.19 638.17,-96.64 616.76,-85.69"/>
<polygon fill="midnightblue" stroke="midnightblue" points="618.12,-82.45 607.62,-81.01 614.93,-88.68 618.12,-82.45"/>
</g>
<!-- Node13&#45;&gt;Node6 -->
<g id="edge17" class="edge">
<title>Node13&#45;&gt;Node6</title>
<path fill="none" stroke="midnightblue" d="M411.91,-190.35C432.94,-183.49 459.23,-172.01 477,-154 510.41,-120.15 482.06,-84.69 520,-56 561.56,-24.58 709.67,-15.08 790.83,-12.23"/>
<polygon fill="midnightblue" stroke="midnightblue" points="790.99,-15.72 800.87,-11.89 790.76,-8.73 790.99,-15.72"/>
</g>
<!-- Node13&#45;&gt;Node14 -->
<g id="edge18" class="edge">
<title>Node13&#45;&gt;Node14</title>
<path fill="none" stroke="midnightblue" d="M365.01,-190.31C332.97,-168.86 249.91,-113.26 210.44,-86.85"/>
<polygon fill="midnightblue" stroke="midnightblue" points="212.09,-83.74 201.83,-81.09 208.2,-89.56 212.09,-83.74"/>
</g>
<!-- Node18 -->
<g id="node18" class="node">
<title>Node18</title>
<g id="a_node18"><a xlink:href="atomic__counter_8hpp.html" target="_top" xlink:title=" ">
<polygon fill="none" stroke="black" points="364,-123.5 364,-153.5 468,-153.5 468,-123.5 364,-123.5"/>
<text text-anchor="start" x="372" y="-141.5" font-family="Helvetica,sans-Serif" font-size="10.00">yaclib/util/detail</text>
<text text-anchor="middle" x="416" y="-130.5" font-family="Helvetica,sans-Serif" font-size="10.00">/atomic_counter.hpp</text>
</a>
</g>
</g>
<!-- Node13&#45;&gt;Node18 -->
<g id="edge23" class="edge">
<title>Node13&#45;&gt;Node18</title>
<path fill="none" stroke="midnightblue" d="M383.44,-190.48C388.16,-183.09 395.19,-172.08 401.52,-162.17"/>
<polygon fill="midnightblue" stroke="midnightblue" points="404.61,-163.83 407.04,-153.52 398.71,-160.07 404.61,-163.83"/>
</g>
<!-- Node13&#45;&gt;Node19 -->
<g id="edge28" class="edge">
<title>Node13&#45;&gt;Node19</title>
<path fill="none" stroke="midnightblue" d="M350.06,-190.48C321.18,-181.66 275.32,-167.67 238.94,-156.57"/>
<polygon fill="midnightblue" stroke="midnightblue" points="239.54,-153.09 228.96,-153.52 237.5,-159.79 239.54,-153.09"/>
</g>
<!-- Node14&#45;&gt;Node6 -->
<g id="edge19" class="edge">
<title>Node14&#45;&gt;Node6</title>
<path fill="none" stroke="midnightblue" d="M226.43,-61.95C237.22,-59.73 249.04,-57.54 260,-56 454.08,-28.82 686.86,-17.08 790.55,-12.92"/>
<polygon fill="midnightblue" stroke="midnightblue" points="790.91,-16.41 800.77,-12.52 790.64,-9.41 790.91,-16.41"/>
</g>
<!-- Node15 -->
<g id="node15" class="node">
<title>Node15</title>
<g id="a_node15"><a xlink:title=" ">
<polygon fill="none" stroke="#bfbfbf" points="313.5,-0.5 313.5,-19.5 362.5,-19.5 362.5,-0.5 313.5,-0.5"/>
<text text-anchor="middle" x="338" y="-7.5" font-family="Helvetica,sans-Serif" font-size="10.00">cstddef</text>
</a>
</g>
</g>
<!-- Node14&#45;&gt;Node15 -->
<g id="edge20" class="edge">
<title>Node14&#45;&gt;Node15</title>
<path fill="none" stroke="midnightblue" d="M210.35,-61.98C235.69,-51.86 278.14,-34.9 307.07,-23.35"/>
<polygon fill="midnightblue" stroke="midnightblue" points="308.7,-26.47 316.69,-19.51 306.11,-19.97 308.7,-26.47"/>
</g>
<!-- Node16 -->
<g id="node16" class="node">
<title>Node16</title>
<g id="a_node16"><a xlink:title=" ">
<polygon fill="none" stroke="#bfbfbf" points="134,-0.5 134,-19.5 180,-19.5 180,-0.5 134,-0.5"/>
<text text-anchor="middle" x="157" y="-7.5" font-family="Helvetica,sans-Serif" font-size="10.00">cstdint</text>
</a>
</g>
</g>
<!-- Node14&#45;&gt;Node16 -->
<g id="edge21" class="edge">
<title>Node14&#45;&gt;Node16</title>
<path fill="none" stroke="midnightblue" d="M184.42,-61.98C179.76,-53.32 172.41,-39.65 166.49,-28.65"/>
<polygon fill="midnightblue" stroke="midnightblue" points="169.4,-26.66 161.58,-19.51 163.23,-29.97 169.4,-26.66"/>
</g>
<!-- Node17 -->
<g id="node17" class="node">
<title>Node17</title>
<g id="a_node17"><a xlink:title=" ">
<polygon fill="none" stroke="#bfbfbf" points="198,-0.5 198,-19.5 244,-19.5 244,-0.5 198,-0.5"/>
<text text-anchor="middle" x="221" y="-7.5" font-family="Helvetica,sans-Serif" font-size="10.00">atomic</text>
</a>
</g>
</g>
<!-- Node14&#45;&gt;Node17 -->
<g id="edge22" class="edge">
<title>Node14&#45;&gt;Node17</title>
<path fill="none" stroke="midnightblue" d="M193.58,-61.98C198.24,-53.32 205.59,-39.65 211.51,-28.65"/>
<polygon fill="midnightblue" stroke="midnightblue" points="214.77,-29.97 216.42,-19.51 208.6,-26.66 214.77,-29.97"/>
</g>
<!-- Node18&#45;&gt;Node6 -->
<g id="edge24" class="edge">
<title>Node18&#45;&gt;Node6</title>
<path fill="none" stroke="midnightblue" d="M422.93,-123.47C433.06,-104.61 453.82,-71.64 482,-56 533.81,-27.24 702.97,-16.5 790.87,-12.79"/>
<polygon fill="midnightblue" stroke="midnightblue" points="791.07,-16.28 800.92,-12.38 790.78,-9.29 791.07,-16.28"/>
</g>
<!-- Node18&#45;&gt;Node12 -->
<g id="edge27" class="edge">
<title>Node18&#45;&gt;Node12</title>
<path fill="none" stroke="midnightblue" d="M453.97,-123.4C486.16,-111.44 531.69,-94.53 561.28,-83.54"/>
<polygon fill="midnightblue" stroke="midnightblue" points="562.88,-86.68 571.03,-79.92 560.44,-80.12 562.88,-86.68"/>
</g>
<!-- Node18&#45;&gt;Node14 -->
<g id="edge25" class="edge">
<title>Node18&#45;&gt;Node14</title>
<path fill="none" stroke="midnightblue" d="M367.02,-123.48C325.63,-111.62 267.08,-94.86 228.6,-83.84"/>
<polygon fill="midnightblue" stroke="midnightblue" points="229.36,-80.42 218.78,-81.03 227.43,-87.15 229.36,-80.42"/>
</g>
<!-- Node18&#45;&gt;Node15 -->
<g id="edge26" class="edge">
<title>Node18&#45;&gt;Node15</title>
<path fill="none" stroke="midnightblue" d="M416.27,-123.38C415.95,-106.16 413.27,-76.78 400,-56 391.53,-42.74 377.65,-32.13 365.17,-24.55"/>
<polygon fill="midnightblue" stroke="midnightblue" points="366.85,-21.47 356.42,-19.57 363.38,-27.56 366.85,-21.47"/>
</g>
<!-- Node19&#45;&gt;Node6 -->
<g id="edge29" class="edge">
<title>Node19&#45;&gt;Node6</title>
<path fill="none" stroke="midnightblue" d="M203.41,-123.42C217.71,-113.44 237.2,-99.64 254,-87 271.69,-73.69 272.41,-64.14 293,-56 382.49,-20.62 669.51,-13.06 790.45,-11.44"/>
<polygon fill="midnightblue" stroke="midnightblue" points="790.64,-14.94 800.59,-11.31 790.55,-7.94 790.64,-14.94"/>
</g>
<!-- Node19&#45;&gt;Node11 -->
<g id="edge32" class="edge">
<title>Node19&#45;&gt;Node11</title>
<path fill="none" stroke="midnightblue" d="M231.55,-133.26C266,-130.29 313.32,-126.28 355,-123 601.61,-103.59 897.93,-82.78 1004.95,-75.34"/>
<polygon fill="midnightblue" stroke="midnightblue" points="1005.26,-78.83 1015,-74.64 1004.78,-71.84 1005.26,-78.83"/>
</g>
<!-- Node19&#45;&gt;Node20 -->
<g id="edge30" class="edge">
<title>Node19&#45;&gt;Node20</title>
<path fill="none" stroke="midnightblue" d="M218.59,-123.4C247.62,-111.89 288.22,-95.8 315.95,-84.81"/>
<polygon fill="midnightblue" stroke="midnightblue" points="317.53,-87.95 325.54,-81.01 314.95,-81.44 317.53,-87.95"/>
</g>
<!-- Node21 -->
<g id="node21" class="node">
<title>Node21</title>
<g id="a_node21"><a xlink:href="intrusive__ptr__impl_8hpp.html" target="_top" xlink:title=" ">
<polygon fill="none" stroke="black" points="0,-56.5 0,-86.5 114,-86.5 114,-56.5 0,-56.5"/>
<text text-anchor="start" x="8" y="-74.5" font-family="Helvetica,sans-Serif" font-size="10.00">yaclib/util/detail</text>
<text text-anchor="middle" x="57" y="-63.5" font-family="Helvetica,sans-Serif" font-size="10.00">/intrusive_ptr_impl.hpp</text>
</a>
</g>
</g>
<!-- Node19&#45;&gt;Node21 -->
<g id="edge33" class="edge">
<title>Node19&#45;&gt;Node21</title>
<path fill="none" stroke="midnightblue" d="M155.66,-123.4C137.41,-113.98 113.22,-101.5 93.36,-91.26"/>
<polygon fill="midnightblue" stroke="midnightblue" points="94.78,-88.05 84.29,-86.58 91.57,-94.27 94.78,-88.05"/>
</g>
<!-- Node20&#45;&gt;Node6 -->
<g id="edge31" class="edge">
<title>Node20&#45;&gt;Node6</title>
<path fill="none" stroke="midnightblue" d="M391.86,-63.44C408.25,-60.96 426.95,-58.23 444,-56 567.82,-39.8 713.62,-24.35 790.76,-16.45"/>
<polygon fill="midnightblue" stroke="midnightblue" points="791.14,-19.93 800.73,-15.43 790.43,-12.97 791.14,-19.93"/>
</g>
<!-- Node21&#45;&gt;Node6 -->
<g id="edge34" class="edge">
<title>Node21&#45;&gt;Node6</title>
<path fill="none" stroke="midnightblue" d="M114.14,-57.38C117.13,-56.87 120.1,-56.41 123,-56 370.75,-21.28 670.08,-13.34 790.72,-11.53"/>
<polygon fill="midnightblue" stroke="midnightblue" points="790.86,-15.03 800.81,-11.39 790.76,-8.03 790.86,-15.03"/>
</g>
<!-- Node22 -->
<g id="node22" class="node">
<title>Node22</title>
<g id="a_node22"><a xlink:title=" ">
<polygon fill="none" stroke="#bfbfbf" points="32.5,-0.5 32.5,-19.5 81.5,-19.5 81.5,-0.5 32.5,-0.5"/>
<text text-anchor="middle" x="57" y="-7.5" font-family="Helvetica,sans-Serif" font-size="10.00">cassert</text>
</a>
</g>
</g>
<!-- Node21&#45;&gt;Node22 -->
<g id="edge35" class="edge">
<title>Node21&#45;&gt;Node22</title>
<path fill="none" stroke="midnightblue" d="M57,-56.4C57,-48.47 57,-38.46 57,-29.86"/>
<polygon fill="midnightblue" stroke="midnightblue" points="60.5,-29.66 57,-19.66 53.5,-29.66 60.5,-29.66"/>
</g>
<!-- Node23&#45;&gt;Node6 -->
<g id="edge42" class="edge">
<title>Node23&#45;&gt;Node6</title>
<path fill="none" stroke="midnightblue" d="M569.81,-374.74C558.77,-355.27 534,-306.64 534,-262.5 534,-262.5 534,-262.5 534,-137.5 534,-99.2 532.68,-80.64 562,-56 595.72,-27.67 718.15,-17 790.47,-13.12"/>
<polygon fill="midnightblue" stroke="midnightblue" points="790.95,-16.6 800.76,-12.59 790.59,-9.61 790.95,-16.6"/>
</g>
<!-- Node23&#45;&gt;Node7 -->
<g id="edge43" class="edge">
<title>Node23&#45;&gt;Node7</title>
<path fill="none" stroke="midnightblue" d="M601.08,-374.98C632.57,-364.68 685.7,-347.31 721.06,-335.75"/>
<polygon fill="midnightblue" stroke="midnightblue" points="722.55,-338.94 730.97,-332.51 720.38,-332.29 722.55,-338.94"/>
</g>
<!-- Node23&#45;&gt;Node19 -->
<g id="edge44" class="edge">
<title>Node23&#45;&gt;Node19</title>
<path fill="none" stroke="midnightblue" d="M557.3,-374.98C509.02,-351.46 371.7,-282.5 267,-210 245.07,-194.82 221.99,-175.14 205.59,-160.44"/>
<polygon fill="midnightblue" stroke="midnightblue" points="207.86,-157.78 198.1,-153.66 203.16,-162.97 207.86,-157.78"/>
</g>
<!-- Node24&#45;&gt;Node6 -->
<g id="edge46" class="edge">
<title>Node24&#45;&gt;Node6</title>
<path fill="none" stroke="midnightblue" d="M687.4,-436.47C722.48,-421.3 791.74,-386.15 826,-333 889.45,-234.55 861.9,-82.03 849.7,-29.51"/>
<polygon fill="midnightblue" stroke="midnightblue" points="853.06,-28.52 847.3,-19.63 846.26,-30.17 853.06,-28.52"/>
</g>
<!-- Node24&#45;&gt;Node23 -->
<g id="edge47" class="edge">
<title>Node24&#45;&gt;Node23</title>
<path fill="none" stroke="midnightblue" d="M652.96,-436.48C638.23,-426.84 614.03,-411.02 596.49,-399.55"/>
<polygon fill="midnightblue" stroke="midnightblue" points="598.3,-396.55 588.01,-394.01 594.47,-402.41 598.3,-396.55"/>
</g>
<!-- Node25&#45;&gt;Node6 -->
<g id="edge56" class="edge">
<title>Node25&#45;&gt;Node6</title>
<path fill="none" stroke="midnightblue" d="M1041.85,-251.84C1039.77,-238.11 1034.58,-210.79 1024,-190 1019.66,-181.48 923.13,-62.37 916,-56 902.25,-43.72 884.78,-32.61 870.61,-24.49"/>
<polygon fill="midnightblue" stroke="midnightblue" points="872.29,-21.42 861.85,-19.61 868.88,-27.54 872.29,-21.42"/>
</g>
<!-- Node25&#45;&gt;Node26 -->
<g id="edge57" class="edge">
<title>Node25&#45;&gt;Node26</title>
<path fill="none" stroke="midnightblue" d="M1061.63,-251.98C1083.44,-241.99 1119.8,-225.35 1145.02,-213.81"/>
<polygon fill="midnightblue" stroke="midnightblue" points="1146.77,-216.85 1154.41,-209.51 1143.86,-210.49 1146.77,-216.85"/>
</g>
<!-- Node29 -->
<g id="node29" class="node">
<title>Node29</title>
<g id="a_node29"><a xlink:title=" ">
<polygon fill="none" stroke="#bfbfbf" points="1006,-129 1006,-148 1064,-148 1064,-129 1006,-129"/>
<text text-anchor="middle" x="1035" y="-136" font-family="Helvetica,sans-Serif" font-size="10.00">exception</text>
</a>
</g>
</g>
<!-- Node25&#45;&gt;Node29 -->
<g id="edge66" class="edge">
<title>Node25&#45;&gt;Node29</title>
<path fill="none" stroke="midnightblue" d="M1015.67,-251.96C996.33,-244.32 971.82,-231.03 960,-210 946.35,-185.72 977.12,-164.87 1003.28,-152.28"/>
<polygon fill="midnightblue" stroke="midnightblue" points="1004.98,-155.35 1012.62,-148.02 1002.07,-148.98 1004.98,-155.35"/>
</g>
<!-- Node30 -->
<g id="node30" class="node">
<title>Node30</title>
<g id="a_node30"><a xlink:title=" ">
<polygon fill="none" stroke="#bfbfbf" points="969,-190.5 969,-209.5 1015,-209.5 1015,-190.5 969,-190.5"/>
<text text-anchor="middle" x="992" y="-197.5" font-family="Helvetica,sans-Serif" font-size="10.00">variant</text>
</a>
</g>
</g>
<!-- Node25&#45;&gt;Node30 -->
<g id="edge67" class="edge">
<title>Node25&#45;&gt;Node30</title>
<path fill="none" stroke="midnightblue" d="M1035.69,-251.98C1027.97,-242.96 1015.59,-228.52 1005.98,-217.31"/>
<polygon fill="midnightblue" stroke="midnightblue" points="1008.46,-214.82 999.29,-209.51 1003.14,-219.38 1008.46,-214.82"/>
</g>
<!-- Node26&#45;&gt;Node6 -->
<g id="edge58" class="edge">
<title>Node26&#45;&gt;Node6</title>
<path fill="none" stroke="midnightblue" d="M1193.22,-190.49C1207.77,-183.17 1226.3,-171.06 1235,-154 1241.26,-141.73 1241.82,-134.97 1235,-123 1206.1,-72.27 1176.88,-75.92 1122,-56 1047.84,-29.09 956.68,-18.22 899.69,-13.86"/>
<polygon fill="midnightblue" stroke="midnightblue" points="899.68,-10.35 889.46,-13.12 899.18,-17.33 899.68,-10.35"/>
</g>
<!-- Node26&#45;&gt;Node11 -->
<g id="edge65" class="edge">
<title>Node26&#45;&gt;Node11</title>
<path fill="none" stroke="midnightblue" d="M1159.13,-190.49C1146,-182.08 1126.1,-168.43 1111,-154 1090.02,-133.96 1069.83,-107.05 1057.66,-89.75"/>
<polygon fill="midnightblue" stroke="midnightblue" points="1060.34,-87.46 1051.78,-81.22 1054.58,-91.44 1060.34,-87.46"/>
</g>
<!-- Node27 -->
<g id="node27" class="node">
<title>Node27</title>
<g id="a_node27"><a xlink:href="fwd_8hpp.html" target="_top" xlink:title=" ">
<polygon fill="none" stroke="black" points="1224,-62 1224,-81 1302,-81 1302,-62 1224,-62"/>
<text text-anchor="middle" x="1263" y="-69" font-family="Helvetica,sans-Serif" font-size="10.00">yaclib/fwd.hpp</text>
</a>
</g>
</g>
<!-- Node26&#45;&gt;Node27 -->
<g id="edge59" class="edge">
<title>Node26&#45;&gt;Node27</title>
<path fill="none" stroke="midnightblue" d="M1214.05,-190.38C1233.96,-183.92 1256.09,-172.81 1268,-154 1279.99,-135.05 1275.26,-108.41 1269.89,-90.81"/>
<polygon fill="midnightblue" stroke="midnightblue" points="1273.14,-89.51 1266.6,-81.17 1266.51,-91.76 1273.14,-89.51"/>
</g>
<!-- Node28 -->
<g id="node28" class="node">
<title>Node28</title>
<g id="a_node28"><a xlink:href="type__traits__impl_8hpp.html" target="_top" xlink:title=" ">
<polygon fill="none" stroke="black" points="1120,-123.5 1120,-153.5 1226,-153.5 1226,-123.5 1120,-123.5"/>
<text text-anchor="start" x="1128" y="-141.5" font-family="Helvetica,sans-Serif" font-size="10.00">yaclib/util/detail</text>
<text text-anchor="middle" x="1173" y="-130.5" font-family="Helvetica,sans-Serif" font-size="10.00">/type_traits_impl.hpp</text>
</a>
</g>
</g>
<!-- Node26&#45;&gt;Node28 -->
<g id="edge61" class="edge">
<title>Node26&#45;&gt;Node28</title>
<path fill="none" stroke="midnightblue" d="M1173,-190.48C1173,-183.47 1173,-173.19 1173,-163.7"/>
<polygon fill="midnightblue" stroke="midnightblue" points="1176.5,-163.52 1173,-153.52 1169.5,-163.52 1176.5,-163.52"/>
</g>
<!-- Node26&#45;&gt;Node29 -->
<g id="edge64" class="edge">
<title>Node26&#45;&gt;Node29</title>
<path fill="none" stroke="midnightblue" d="M1153.23,-190.48C1129.86,-180.4 1090.79,-163.55 1064,-152"/>
<polygon fill="midnightblue" stroke="midnightblue" points="1065.3,-148.75 1054.74,-148.01 1062.53,-155.18 1065.3,-148.75"/>
</g>
<!-- Node27&#45;&gt;Node6 -->
<g id="edge60" class="edge">
<title>Node27&#45;&gt;Node6</title>
<path fill="none" stroke="midnightblue" d="M1234.85,-61.99C1226.87,-59.8 1218.14,-57.61 1210,-56 1100.74,-34.44 970.93,-21.37 899.29,-15.23"/>
<polygon fill="midnightblue" stroke="midnightblue" points="899.41,-11.73 889.15,-14.37 898.82,-18.7 899.41,-11.73"/>
</g>
<!-- Node28&#45;&gt;Node6 -->
<g id="edge62" class="edge">
<title>Node28&#45;&gt;Node6</title>
<path fill="none" stroke="midnightblue" d="M1162.34,-123.42C1147.43,-104.81 1118.5,-72.45 1086,-56 1026.67,-25.96 950,-15.83 899.24,-12.49"/>
<polygon fill="midnightblue" stroke="midnightblue" points="899.33,-8.99 889.14,-11.89 898.91,-15.98 899.33,-8.99"/>
</g>
<!-- Node28&#45;&gt;Node11 -->
<g id="edge63" class="edge">
<title>Node28&#45;&gt;Node11</title>
<path fill="none" stroke="midnightblue" d="M1145.44,-123.4C1123.55,-112.19 1093.17,-96.64 1071.76,-85.69"/>
<polygon fill="midnightblue" stroke="midnightblue" points="1073.12,-82.45 1062.62,-81.01 1069.93,-88.68 1073.12,-82.45"/>
</g>
<!-- Node31&#45;&gt;Node6 -->
<g id="edge72" class="edge">
<title>Node31&#45;&gt;Node6</title>
<path fill="none" stroke="midnightblue" d="M1437.81,-123.33C1428.66,-104.31 1409.58,-71.14 1382,-56 1340.42,-33.18 1027.72,-18.27 899.55,-13.07"/>
<polygon fill="midnightblue" stroke="midnightblue" points="899.32,-9.55 889.19,-12.65 899.04,-16.55 899.32,-9.55"/>
</g>
<!-- Node31&#45;&gt;Node11 -->
<g id="edge73" class="edge">
<title>Node31&#45;&gt;Node11</title>
<path fill="none" stroke="midnightblue" d="M1395.99,-129.66C1317.01,-116.76 1161.04,-91.29 1086.94,-79.19"/>
<polygon fill="midnightblue" stroke="midnightblue" points="1087.48,-75.73 1077.04,-77.57 1086.35,-82.64 1087.48,-75.73"/>
</g>
</g>
</svg>
