<?xml version="1.0" encoding="UTF-8" standalone="no"?>
<!DOCTYPE svg PUBLIC "-//W3C//DTD SVG 1.1//EN"
 "http://www.w3.org/Graphics/SVG/1.1/DTD/svg11.dtd">
<!-- Generated by graphviz version 2.50.0 (20220203.2022)
 -->
<!-- Title: src/fault/mutex/recursive_mutex.cpp Pages: 1 -->
<svg width="515pt" height="408pt"
 viewBox="0.00 0.00 514.70 408.00" xmlns="http://www.w3.org/2000/svg" xmlns:xlink="http://www.w3.org/1999/xlink">
<g id="graph0" class="graph" transform="scale(1 1) rotate(0) translate(4 404)">
<title>src/fault/mutex/recursive_mutex.cpp</title>
<!-- Node1 -->
<g id="node1" class="node">
<title>Node1</title>
<g id="a_node1"><a xlink:title=" ">
<polygon fill="#bfbfbf" stroke="black" points="0,-369.5 0,-399.5 124,-399.5 124,-369.5 0,-369.5"/>
<text text-anchor="start" x="8" y="-387.5" font-family="Helvetica,sans-Serif" font-size="10.00">src/fault/mutex/recursive</text>
<text text-anchor="middle" x="62" y="-376.5" font-family="Helvetica,sans-Serif" font-size="10.00">_mutex.cpp</text>
</a>
</g>
</g>
<!-- Node2 -->
<g id="node2" class="node">
<title>Node2</title>
<g id="a_node2"><a xlink:title=" ">
<polygon fill="none" stroke="#bfbfbf" points="168,-0.5 168,-19.5 256,-19.5 256,-0.5 168,-0.5"/>
<text text-anchor="middle" x="212" y="-7.5" font-family="Helvetica,sans-Serif" font-size="10.00">yaclib/config.hpp</text>
</a>
</g>
</g>
<!-- Node1&#45;&gt;Node2 -->
<g id="edge1" class="edge">
<title>Node1&#45;&gt;Node2</title>
<path fill="none" stroke="midnightblue" d="M52.45,-369.48C46.14,-359.64 38.11,-345.98 33,-333 19.37,-298.39 14,-288.69 14,-251.5 14,-251.5 14,-251.5 14,-121 14,-55.02 99.06,-28.27 157.68,-17.68"/>
<polygon fill="midnightblue" stroke="midnightblue" points="158.29,-21.12 167.56,-16 157.12,-14.22 158.29,-21.12"/>
</g>
<!-- Node3 -->
<g id="node3" class="node">
<title>Node3</title>
<g id="a_node3"><a xlink:href="recursive__mutex_8hpp.html" target="_top" xlink:title=" ">
<polygon fill="none" stroke="black" points="42,-302.5 42,-332.5 180,-332.5 180,-302.5 42,-302.5"/>
<text text-anchor="start" x="50" y="-320.5" font-family="Helvetica,sans-Serif" font-size="10.00">yaclib/fault/detail</text>
<text text-anchor="middle" x="111" y="-309.5" font-family="Helvetica,sans-Serif" font-size="10.00">/mutex/recursive_mutex.hpp</text>
</a>
</g>
</g>
<!-- Node1&#45;&gt;Node3 -->
<g id="edge2" class="edge">
<title>Node1&#45;&gt;Node3</title>
<path fill="none" stroke="midnightblue" d="M72.63,-369.4C78.92,-361.05 87.04,-350.29 94.18,-340.81"/>
<polygon fill="midnightblue" stroke="midnightblue" points="97.16,-342.67 100.39,-332.58 91.57,-338.45 97.16,-342.67"/>
</g>
<!-- Node3&#45;&gt;Node2 -->
<g id="edge3" class="edge">
<title>Node3&#45;&gt;Node2</title>
<path fill="none" stroke="midnightblue" d="M96.84,-302.22C88.17,-292.7 77.51,-279.5 71,-266 54.84,-232.5 52,-221.69 52,-184.5 52,-184.5 52,-184.5 52,-121 52,-66.24 116.42,-36.68 163.51,-22.4"/>
<polygon fill="midnightblue" stroke="midnightblue" points="164.63,-25.71 173.27,-19.57 162.69,-18.99 164.63,-25.71"/>
</g>
<!-- Node4 -->
<g id="node4" class="node">
<title>Node4</title>
<g id="a_node4"><a xlink:href="inject__fault_8hpp.html" target="_top" xlink:title=" ">
<polygon fill="none" stroke="black" points="259.5,-235.5 259.5,-265.5 348.5,-265.5 348.5,-235.5 259.5,-235.5"/>
<text text-anchor="start" x="267.5" y="-253.5" font-family="Helvetica,sans-Serif" font-size="10.00">yaclib/fault/detail</text>
<text text-anchor="middle" x="304" y="-242.5" font-family="Helvetica,sans-Serif" font-size="10.00">/inject_fault.hpp</text>
</a>
</g>
</g>
<!-- Node3&#45;&gt;Node4 -->
<g id="edge4" class="edge">
<title>Node3&#45;&gt;Node4</title>
<path fill="none" stroke="midnightblue" d="M152.88,-302.4C182.09,-292.56 221.26,-279.37 252.4,-268.88"/>
<polygon fill="midnightblue" stroke="midnightblue" points="253.84,-272.09 262.2,-265.58 251.61,-265.45 253.84,-272.09"/>
</g>
<!-- Node12 -->
<g id="node12" class="node">
<title>Node12</title>
<g id="a_node12"><a xlink:href="log_8hpp.html" target="_top" xlink:title=" ">
<polygon fill="none" stroke="black" points="141.5,-241 141.5,-260 216.5,-260 216.5,-241 141.5,-241"/>
<text text-anchor="middle" x="179" y="-248" font-family="Helvetica,sans-Serif" font-size="10.00">yaclib/log.hpp</text>
</a>
</g>
</g>
<!-- Node3&#45;&gt;Node12 -->
<g id="edge16" class="edge">
<title>Node3&#45;&gt;Node12</title>
<path fill="none" stroke="midnightblue" d="M125.75,-302.4C136.57,-292.06 151.25,-278.02 162.46,-267.31"/>
<polygon fill="midnightblue" stroke="midnightblue" points="165.09,-269.63 169.9,-260.19 160.26,-264.57 165.09,-269.63"/>
</g>
<!-- Node14 -->
<g id="node14" class="node">
<title>Node14</title>
<g id="a_node14"><a xlink:title=" ">
<polygon fill="none" stroke="#bfbfbf" points="80.5,-241 80.5,-260 123.5,-260 123.5,-241 80.5,-241"/>
<text text-anchor="middle" x="102" y="-248" font-family="Helvetica,sans-Serif" font-size="10.00">mutex</text>
</a>
</g>
</g>
<!-- Node3&#45;&gt;Node14 -->
<g id="edge19" class="edge">
<title>Node3&#45;&gt;Node14</title>
<path fill="none" stroke="midnightblue" d="M109.05,-302.4C107.74,-292.96 106.01,-280.45 104.59,-270.19"/>
<polygon fill="midnightblue" stroke="midnightblue" points="108.04,-269.62 103.2,-260.19 101.11,-270.58 108.04,-269.62"/>
</g>
<!-- Node4&#45;&gt;Node2 -->
<g id="edge5" class="edge">
<title>Node4&#45;&gt;Node2</title>
<path fill="none" stroke="midnightblue" d="M348.78,-235.82C394.1,-219.3 461.68,-186.7 492,-132 508.37,-102.46 513.91,-81.71 492,-56 463.62,-22.69 339.65,-13.94 266.52,-11.71"/>
<polygon fill="midnightblue" stroke="midnightblue" points="266.21,-8.2 256.12,-11.42 266.02,-15.19 266.21,-8.2"/>
</g>
<!-- Node5 -->
<g id="node5" class="node">
<title>Node5</title>
<g id="a_node5"><a xlink:href="yielder_8hpp.html" target="_top" xlink:title=" ">
<polygon fill="none" stroke="black" points="259.5,-168.5 259.5,-198.5 348.5,-198.5 348.5,-168.5 259.5,-168.5"/>
<text text-anchor="start" x="267.5" y="-186.5" font-family="Helvetica,sans-Serif" font-size="10.00">yaclib/fault/detail</text>
<text text-anchor="middle" x="304" y="-175.5" font-family="Helvetica,sans-Serif" font-size="10.00">/yielder.hpp</text>
</a>
</g>
</g>
<!-- Node4&#45;&gt;Node5 -->
<g id="edge6" class="edge">
<title>Node4&#45;&gt;Node5</title>
<path fill="none" stroke="midnightblue" d="M304,-235.4C304,-227.64 304,-217.81 304,-208.86"/>
<polygon fill="midnightblue" stroke="midnightblue" points="307.5,-208.58 304,-198.58 300.5,-208.58 307.5,-208.58"/>
</g>
<!-- Node5&#45;&gt;Node2 -->
<g id="edge7" class="edge">
<title>Node5&#45;&gt;Node2</title>
<path fill="none" stroke="midnightblue" d="M272.78,-168.36C257.77,-159.94 240.92,-147.79 231,-132 211.09,-100.3 209.58,-54.98 210.58,-29.76"/>
<polygon fill="midnightblue" stroke="midnightblue" points="214.07,-29.89 211.15,-19.71 207.09,-29.49 214.07,-29.89"/>
</g>
<!-- Node6 -->
<g id="node6" class="node">
<title>Node6</title>
<g id="a_node6"><a xlink:href="thread_8hpp.html" target="_top" xlink:title=" ">
<polygon fill="none" stroke="black" points="371.5,-112.5 371.5,-131.5 482.5,-131.5 482.5,-112.5 371.5,-112.5"/>
<text text-anchor="middle" x="427" y="-119.5" font-family="Helvetica,sans-Serif" font-size="10.00">yaclib/fault/thread.hpp</text>
</a>
</g>
</g>
<!-- Node5&#45;&gt;Node6 -->
<g id="edge8" class="edge">
<title>Node5&#45;&gt;Node6</title>
<path fill="none" stroke="midnightblue" d="M333.15,-168.4C353.42,-158.59 380.24,-145.62 400.02,-136.05"/>
<polygon fill="midnightblue" stroke="midnightblue" points="401.62,-139.16 409.1,-131.66 398.58,-132.86 401.62,-139.16"/>
</g>
<!-- Node10 -->
<g id="node10" class="node">
<title>Node10</title>
<g id="a_node10"><a xlink:title=" ">
<polygon fill="none" stroke="#bfbfbf" points="240,-112.5 240,-131.5 286,-131.5 286,-112.5 240,-112.5"/>
<text text-anchor="middle" x="263" y="-119.5" font-family="Helvetica,sans-Serif" font-size="10.00">atomic</text>
</a>
</g>
</g>
<!-- Node5&#45;&gt;Node10 -->
<g id="edge14" class="edge">
<title>Node5&#45;&gt;Node10</title>
<path fill="none" stroke="midnightblue" d="M294.28,-168.4C288.45,-159.93 280.98,-149.1 274.81,-140.14"/>
<polygon fill="midnightblue" stroke="midnightblue" points="277.52,-137.91 268.97,-131.66 271.76,-141.88 277.52,-137.91"/>
</g>
<!-- Node11 -->
<g id="node11" class="node">
<title>Node11</title>
<g id="a_node11"><a xlink:title=" ">
<polygon fill="none" stroke="#bfbfbf" points="304.5,-112.5 304.5,-131.5 353.5,-131.5 353.5,-112.5 304.5,-112.5"/>
<text text-anchor="middle" x="329" y="-119.5" font-family="Helvetica,sans-Serif" font-size="10.00">random</text>
</a>
</g>
</g>
<!-- Node5&#45;&gt;Node11 -->
<g id="edge15" class="edge">
<title>Node5&#45;&gt;Node11</title>
<path fill="none" stroke="midnightblue" d="M309.92,-168.4C313.37,-160.2 317.75,-149.78 321.44,-140.99"/>
<polygon fill="midnightblue" stroke="midnightblue" points="324.72,-142.23 325.36,-131.66 318.26,-139.52 324.72,-142.23"/>
</g>
<!-- Node6&#45;&gt;Node2 -->
<g id="edge9" class="edge">
<title>Node6&#45;&gt;Node2</title>
<path fill="none" stroke="midnightblue" d="M393.75,-112.5C366.97,-104.93 328.85,-92.51 298,-76 272.15,-62.16 245.72,-40.91 229.11,-26.51"/>
<polygon fill="midnightblue" stroke="midnightblue" points="231.19,-23.67 221.38,-19.68 226.56,-28.92 231.19,-23.67"/>
</g>
<!-- Node7 -->
<g id="node7" class="node">
<title>Node7</title>
<g id="a_node7"><a xlink:href="chrono_8hpp.html" target="_top" xlink:title=" ">
<polygon fill="none" stroke="black" points="369.5,-56.5 369.5,-75.5 482.5,-75.5 482.5,-56.5 369.5,-56.5"/>
<text text-anchor="middle" x="426" y="-63.5" font-family="Helvetica,sans-Serif" font-size="10.00">yaclib/fault/chrono.hpp</text>
</a>
</g>
</g>
<!-- Node6&#45;&gt;Node7 -->
<g id="edge10" class="edge">
<title>Node6&#45;&gt;Node7</title>
<path fill="none" stroke="midnightblue" d="M426.83,-112.08C426.7,-105.01 426.52,-94.86 426.35,-85.99"/>
<polygon fill="midnightblue" stroke="midnightblue" points="429.85,-85.68 426.16,-75.75 422.85,-85.81 429.85,-85.68"/>
</g>
<!-- Node9 -->
<g id="node9" class="node">
<title>Node9</title>
<g id="a_node9"><a xlink:title=" ">
<polygon fill="none" stroke="#bfbfbf" points="307,-56.5 307,-75.5 351,-75.5 351,-56.5 307,-56.5"/>
<text text-anchor="middle" x="329" y="-63.5" font-family="Helvetica,sans-Serif" font-size="10.00">thread</text>
</a>
</g>
</g>
<!-- Node6&#45;&gt;Node9 -->
<g id="edge13" class="edge">
<title>Node6&#45;&gt;Node9</title>
<path fill="none" stroke="midnightblue" d="M411.25,-112.32C395.68,-103.74 371.62,-90.49 353.54,-80.52"/>
<polygon fill="midnightblue" stroke="midnightblue" points="355.15,-77.42 344.71,-75.65 351.78,-83.55 355.15,-77.42"/>
</g>
<!-- Node7&#45;&gt;Node2 -->
<g id="edge11" class="edge">
<title>Node7&#45;&gt;Node2</title>
<path fill="none" stroke="midnightblue" d="M392.09,-56.44C355.15,-47.12 295.95,-32.18 255.58,-22"/>
<polygon fill="midnightblue" stroke="midnightblue" points="256.3,-18.57 245.75,-19.52 254.59,-25.36 256.3,-18.57"/>
</g>
<!-- Node8 -->
<g id="node8" class="node">
<title>Node8</title>
<g id="a_node8"><a xlink:title=" ">
<polygon fill="none" stroke="#bfbfbf" points="403,-0.5 403,-19.5 449,-19.5 449,-0.5 403,-0.5"/>
<text text-anchor="middle" x="426" y="-7.5" font-family="Helvetica,sans-Serif" font-size="10.00">chrono</text>
</a>
</g>
</g>
<!-- Node7&#45;&gt;Node8 -->
<g id="edge12" class="edge">
<title>Node7&#45;&gt;Node8</title>
<path fill="none" stroke="midnightblue" d="M426,-56.08C426,-49.01 426,-38.86 426,-29.99"/>
<polygon fill="midnightblue" stroke="midnightblue" points="429.5,-29.75 426,-19.75 422.5,-29.75 429.5,-29.75"/>
</g>
<!-- Node12&#45;&gt;Node2 -->
<g id="edge17" class="edge">
<title>Node12&#45;&gt;Node2</title>
<path fill="none" stroke="midnightblue" d="M180.21,-240.73C185.01,-206.03 202.74,-77.89 209.43,-29.59"/>
<polygon fill="midnightblue" stroke="midnightblue" points="212.91,-29.98 210.81,-19.6 205.97,-29.03 212.91,-29.98"/>
</g>
<!-- Node13 -->
<g id="node13" class="node">
<title>Node13</title>
<g id="a_node13"><a xlink:title=" ">
<polygon fill="none" stroke="#bfbfbf" points="80,-174 80,-193 146,-193 146,-174 80,-174"/>
<text text-anchor="middle" x="113" y="-181" font-family="Helvetica,sans-Serif" font-size="10.00">string_view</text>
</a>
</g>
</g>
<!-- Node12&#45;&gt;Node13 -->
<g id="edge18" class="edge">
<title>Node12&#45;&gt;Node13</title>
<path fill="none" stroke="midnightblue" d="M170.1,-240.73C159.61,-230.4 141.98,-213.04 129.08,-200.33"/>
<polygon fill="midnightblue" stroke="midnightblue" points="131.34,-197.65 121.76,-193.13 126.43,-202.64 131.34,-197.65"/>
</g>
</g>
</svg>
