<?xml version="1.0" encoding="UTF-8" standalone="no"?>
<!DOCTYPE svg PUBLIC "-//W3C//DTD SVG 1.1//EN"
 "http://www.w3.org/Graphics/SVG/1.1/DTD/svg11.dtd">
<!-- Generated by graphviz version 2.50.0 (20220203.2022)
 -->
<!-- Title: include/yaclib/fault/detail/mutex/recursive_mutex.hpp Pages: 1 -->
<!--zoomable 352 -->
<svg id="main" version="1.1" xmlns="http://www.w3.org/2000/svg" xmlns:xlink="http://www.w3.org/1999/xlink" xml:space="preserve" onload="init(evt)">
<style type="text/css"><![CDATA[
.edge:hover path { stroke: red; }
.edge:hover polygon { stroke: red; fill: red; }
]]></style>
<script type="text/javascript"><![CDATA[
var edges = document.getElementsByTagName('g');
if (edges && edges.length) {
  for (var i=0;i<edges.length;i++) {
    if (edges[i].id.substr(0,4)=='edge') {
      edges[i].setAttribute('class','edge');
    }
  }
}
]]></script>
        <defs>
                <circle id="rim" cx="0" cy="0" r="7"/>
                <circle id="rim2" cx="0" cy="0" r="3.5"/>
                <g id="zoomPlus">
                        <use xlink:href="#rim" fill="#404040">
                                <set attributeName="fill" to="#808080" begin="zoomplus.mouseover" end="zoomplus.mouseout"/>
                        </use>
                        <path d="M-4,0h8M0,-4v8" fill="none" stroke="white" stroke-width="1.5" pointer-events="none"/>
                </g>
                <g id="zoomMin">
                        <use xlink:href="#rim" fill="#404040">
                                <set attributeName="fill" to="#808080" begin="zoomminus.mouseover" end="zoomminus.mouseout"/>
                        </use>
                        <path d="M-4,0h8" fill="none" stroke="white" stroke-width="1.5" pointer-events="none"/>
                </g>
                <g id="dirArrow">
                        <path fill="none" stroke="white" stroke-width="1.5" d="M0,-3.0v7 M-2.5,-0.5L0,-3.0L2.5,-0.5"/>
                </g>
               <g id="resetDef">
                       <use xlink:href="#rim2" fill="#404040">
                               <set attributeName="fill" to="#808080" begin="reset.mouseover" end="reset.mouseout"/>
                       </use>
               </g>
        </defs>

<script type="text/javascript">
var viewWidth = 507;
var viewHeight = 352;
var sectionId = 'dynsection-0';
</script>
<script xlink:href="svgpan.js"/>
<svg id="graph" class="graph">
<g id="viewport">
<title>include/yaclib/fault/detail/mutex/recursive_mutex.hpp</title>
<!-- Node1 -->
<g id="node1" class="node">
<title>Node1</title>
<g id="a_node1"><a xlink:title=" ">
<polygon fill="#bfbfbf" stroke="black" points="310.25,-302.5 310.25,-343.5 425.25,-343.5 425.25,-302.5 310.25,-302.5"/>
<text text-anchor="start" x="318.25" y="-331.5" font-family="Helvetica,sans-Serif" font-size="10.00">include/yaclib/fault</text>
<text text-anchor="start" x="318.25" y="-320.5" font-family="Helvetica,sans-Serif" font-size="10.00">/detail/mutex/recursive</text>
<text text-anchor="middle" x="367.75" y="-309.5" font-family="Helvetica,sans-Serif" font-size="10.00">_mutex.hpp</text>
</a>
</g>
</g>
<!-- Node2 -->
<g id="node2" class="node">
<title>Node2</title>
<g id="a_node2"><a xlink:title=" ">
<polygon fill="none" stroke="#bfbfbf" points="225.75,-0.5 225.75,-19.5 313.75,-19.5 313.75,-0.5 225.75,-0.5"/>
<text text-anchor="middle" x="269.75" y="-7.5" font-family="Helvetica,sans-Serif" font-size="10.00">yaclib/config.hpp</text>
</a>
</g>
</g>
<!-- Node1&#45;&gt;Node2 -->
<g id="edge1" class="edge">
<title>Node1&#45;&gt;Node2</title>
<path fill="none" stroke="midnightblue" d="M359.93,-302.32C350.17,-275.94 334.75,-227.46 334.75,-184.5 334.75,-184.5 334.75,-184.5 334.75,-121 334.75,-83.18 305.91,-46.94 286.66,-26.96"/>
<polygon fill="midnightblue" stroke="midnightblue" points="288.89,-24.24 279.34,-19.66 283.95,-29.2 288.89,-24.24"/>
</g>
<!-- Node3 -->
<g id="node3" class="node">
<title>Node3</title>
<g id="a_node3"><a xlink:href="inject__fault_8hpp.html" target="_top" xlink:title=" ">
<polygon fill="none" stroke="black" points="217.25,-235.5 217.25,-265.5 306.25,-265.5 306.25,-235.5 217.25,-235.5"/>
<text text-anchor="start" x="225.25" y="-253.5" font-family="Helvetica,sans-Serif" font-size="10.00">yaclib/fault/detail</text>
<text text-anchor="middle" x="261.75" y="-242.5" font-family="Helvetica,sans-Serif" font-size="10.00">/inject_fault.hpp</text>
</a>
</g>
</g>
<!-- Node1&#45;&gt;Node3 -->
<g id="edge2" class="edge">
<title>Node1&#45;&gt;Node3</title>
<path fill="none" stroke="midnightblue" d="M338.22,-302.36C323.71,-292.71 306.26,-281.11 291.7,-271.42"/>
<polygon fill="midnightblue" stroke="midnightblue" points="293.32,-268.29 283.06,-265.67 289.44,-274.12 293.32,-268.29"/>
</g>
<!-- Node11 -->
<g id="node11" class="node">
<title>Node11</title>
<g id="a_node11"><a xlink:href="log_8hpp.html" target="_top" xlink:title=" ">
<polygon fill="none" stroke="black" points="363.25,-241 363.25,-260 438.25,-260 438.25,-241 363.25,-241"/>
<text text-anchor="middle" x="400.75" y="-248" font-family="Helvetica,sans-Serif" font-size="10.00">yaclib/log.hpp</text>
</a>
</g>
</g>
<!-- Node1&#45;&gt;Node11 -->
<g id="edge14" class="edge">
<title>Node1&#45;&gt;Node11</title>
<path fill="none" stroke="midnightblue" d="M376.94,-302.36C381.75,-292.08 387.61,-279.58 392.3,-269.54"/>
<polygon fill="midnightblue" stroke="midnightblue" points="395.62,-270.71 396.69,-260.17 389.28,-267.75 395.62,-270.71"/>
</g>
<!-- Node13 -->
<g id="node13" class="node">
<title>Node13</title>
<g id="a_node13"><a xlink:title=" ">
<polygon fill="none" stroke="#bfbfbf" points="456.25,-241 456.25,-260 499.25,-260 499.25,-241 456.25,-241"/>
<text text-anchor="middle" x="477.75" y="-248" font-family="Helvetica,sans-Serif" font-size="10.00">mutex</text>
</a>
</g>
</g>
<!-- Node1&#45;&gt;Node13 -->
<g id="edge17" class="edge">
<title>Node1&#45;&gt;Node13</title>
<path fill="none" stroke="midnightblue" d="M398.39,-302.36C416.63,-290.67 439.34,-276.12 455.79,-265.57"/>
<polygon fill="midnightblue" stroke="midnightblue" points="457.69,-268.52 464.22,-260.17 453.91,-262.62 457.69,-268.52"/>
</g>
<!-- Node3&#45;&gt;Node2 -->
<g id="edge3" class="edge">
<title>Node3&#45;&gt;Node2</title>
<path fill="none" stroke="midnightblue" d="M264.62,-235.5C269.4,-210.69 278.32,-157.36 276.75,-112 275.75,-83.23 273.17,-49.94 271.43,-29.68"/>
<polygon fill="midnightblue" stroke="midnightblue" points="274.91,-29.29 270.55,-19.64 267.94,-29.9 274.91,-29.29"/>
</g>
<!-- Node4 -->
<g id="node4" class="node">
<title>Node4</title>
<g id="a_node4"><a xlink:href="yielder_8hpp.html" target="_top" xlink:title=" ">
<polygon fill="none" stroke="black" points="133.25,-168.5 133.25,-198.5 222.25,-198.5 222.25,-168.5 133.25,-168.5"/>
<text text-anchor="start" x="141.25" y="-186.5" font-family="Helvetica,sans-Serif" font-size="10.00">yaclib/fault/detail</text>
<text text-anchor="middle" x="177.75" y="-175.5" font-family="Helvetica,sans-Serif" font-size="10.00">/yielder.hpp</text>
</a>
</g>
</g>
<!-- Node3&#45;&gt;Node4 -->
<g id="edge4" class="edge">
<title>Node3&#45;&gt;Node4</title>
<path fill="none" stroke="midnightblue" d="M243.52,-235.4C231.97,-226.45 216.83,-214.74 203.99,-204.8"/>
<polygon fill="midnightblue" stroke="midnightblue" points="205.99,-201.93 195.94,-198.58 201.71,-207.46 205.99,-201.93"/>
</g>
<!-- Node4&#45;&gt;Node2 -->
<g id="edge5" class="edge">
<title>Node4&#45;&gt;Node2</title>
<path fill="none" stroke="midnightblue" d="M133.15,-182.19C95.11,-179.25 42.46,-168.31 15.75,-132 -4.27,-104.79 -5.95,-81.88 15.75,-56 40.71,-26.23 148.47,-16.15 215.36,-12.73"/>
<polygon fill="midnightblue" stroke="midnightblue" points="215.9,-16.21 225.72,-12.24 215.57,-9.22 215.9,-16.21"/>
</g>
<!-- Node5 -->
<g id="node5" class="node">
<title>Node5</title>
<g id="a_node5"><a xlink:href="thread_8hpp.html" target="_top" xlink:title=" ">
<polygon fill="none" stroke="black" points="25.25,-112.5 25.25,-131.5 136.25,-131.5 136.25,-112.5 25.25,-112.5"/>
<text text-anchor="middle" x="80.75" y="-119.5" font-family="Helvetica,sans-Serif" font-size="10.00">yaclib/fault/thread.hpp</text>
</a>
</g>
</g>
<!-- Node4&#45;&gt;Node5 -->
<g id="edge6" class="edge">
<title>Node4&#45;&gt;Node5</title>
<path fill="none" stroke="midnightblue" d="M154.76,-168.4C139.36,-158.95 119.16,-146.56 103.75,-137.11"/>
<polygon fill="midnightblue" stroke="midnightblue" points="105.22,-133.9 94.86,-131.66 101.56,-139.87 105.22,-133.9"/>
</g>
<!-- Node9 -->
<g id="node9" class="node">
<title>Node9</title>
<g id="a_node9"><a xlink:title=" ">
<polygon fill="none" stroke="#bfbfbf" points="154.75,-112.5 154.75,-131.5 200.75,-131.5 200.75,-112.5 154.75,-112.5"/>
<text text-anchor="middle" x="177.75" y="-119.5" font-family="Helvetica,sans-Serif" font-size="10.00">atomic</text>
</a>
</g>
</g>
<!-- Node4&#45;&gt;Node9 -->
<g id="edge12" class="edge">
<title>Node4&#45;&gt;Node9</title>
<path fill="none" stroke="midnightblue" d="M177.75,-168.4C177.75,-160.47 177.75,-150.46 177.75,-141.86"/>
<polygon fill="midnightblue" stroke="midnightblue" points="181.25,-141.66 177.75,-131.66 174.25,-141.66 181.25,-141.66"/>
</g>
<!-- Node10 -->
<g id="node10" class="node">
<title>Node10</title>
<g id="a_node10"><a xlink:title=" ">
<polygon fill="none" stroke="#bfbfbf" points="219.25,-112.5 219.25,-131.5 268.25,-131.5 268.25,-112.5 219.25,-112.5"/>
<text text-anchor="middle" x="243.75" y="-119.5" font-family="Helvetica,sans-Serif" font-size="10.00">random</text>
</a>
</g>
</g>
<!-- Node4&#45;&gt;Node10 -->
<g id="edge13" class="edge">
<title>Node4&#45;&gt;Node10</title>
<path fill="none" stroke="midnightblue" d="M193.39,-168.4C203.38,-159.4 216.33,-147.72 226.6,-138.47"/>
<polygon fill="midnightblue" stroke="midnightblue" points="229.06,-140.95 234.15,-131.66 224.38,-135.75 229.06,-140.95"/>
</g>
<!-- Node5&#45;&gt;Node2 -->
<g id="edge7" class="edge">
<title>Node5&#45;&gt;Node2</title>
<path fill="none" stroke="midnightblue" d="M120.55,-112.5C147.29,-105.54 182.48,-93.89 209.75,-76 229.32,-63.17 246.85,-42.58 257.83,-28.02"/>
<polygon fill="midnightblue" stroke="midnightblue" points="260.72,-30 263.79,-19.85 255.07,-25.87 260.72,-30"/>
</g>
<!-- Node6 -->
<g id="node6" class="node">
<title>Node6</title>
<g id="a_node6"><a xlink:href="chrono_8hpp.html" target="_top" xlink:title=" ">
<polygon fill="none" stroke="black" points="25.25,-56.5 25.25,-75.5 138.25,-75.5 138.25,-56.5 25.25,-56.5"/>
<text text-anchor="middle" x="81.75" y="-63.5" font-family="Helvetica,sans-Serif" font-size="10.00">yaclib/fault/chrono.hpp</text>
</a>
</g>
</g>
<!-- Node5&#45;&gt;Node6 -->
<g id="edge8" class="edge">
<title>Node5&#45;&gt;Node6</title>
<path fill="none" stroke="midnightblue" d="M80.91,-112.08C81.05,-105.01 81.23,-94.86 81.4,-85.99"/>
<polygon fill="midnightblue" stroke="midnightblue" points="84.9,-85.81 81.59,-75.75 77.9,-85.68 84.9,-85.81"/>
</g>
<!-- Node8 -->
<g id="node8" class="node">
<title>Node8</title>
<g id="a_node8"><a xlink:title=" ">
<polygon fill="none" stroke="#bfbfbf" points="156.75,-56.5 156.75,-75.5 200.75,-75.5 200.75,-56.5 156.75,-56.5"/>
<text text-anchor="middle" x="178.75" y="-63.5" font-family="Helvetica,sans-Serif" font-size="10.00">thread</text>
</a>
</g>
</g>
<!-- Node5&#45;&gt;Node8 -->
<g id="edge11" class="edge">
<title>Node5&#45;&gt;Node8</title>
<path fill="none" stroke="midnightblue" d="M96.5,-112.32C112.07,-103.74 136.13,-90.49 154.21,-80.52"/>
<polygon fill="midnightblue" stroke="midnightblue" points="155.97,-83.55 163.04,-75.65 152.6,-77.42 155.97,-83.55"/>
</g>
<!-- Node6&#45;&gt;Node2 -->
<g id="edge9" class="edge">
<title>Node6&#45;&gt;Node2</title>
<path fill="none" stroke="midnightblue" d="M111.54,-56.44C143.58,-47.24 194.68,-32.56 230.1,-22.39"/>
<polygon fill="midnightblue" stroke="midnightblue" points="231.45,-25.64 240.1,-19.52 229.52,-18.91 231.45,-25.64"/>
</g>
<!-- Node7 -->
<g id="node7" class="node">
<title>Node7</title>
<g id="a_node7"><a xlink:title=" ">
<polygon fill="none" stroke="#bfbfbf" points="58.75,-0.5 58.75,-19.5 104.75,-19.5 104.75,-0.5 58.75,-0.5"/>
<text text-anchor="middle" x="81.75" y="-7.5" font-family="Helvetica,sans-Serif" font-size="10.00">chrono</text>
</a>
</g>
</g>
<!-- Node6&#45;&gt;Node7 -->
<g id="edge10" class="edge">
<title>Node6&#45;&gt;Node7</title>
<path fill="none" stroke="midnightblue" d="M81.75,-56.08C81.75,-49.01 81.75,-38.86 81.75,-29.99"/>
<polygon fill="midnightblue" stroke="midnightblue" points="85.25,-29.75 81.75,-19.75 78.25,-29.75 85.25,-29.75"/>
</g>
<!-- Node11&#45;&gt;Node2 -->
<g id="edge15" class="edge">
<title>Node11&#45;&gt;Node2</title>
<path fill="none" stroke="midnightblue" d="M399.34,-240.89C393.73,-207.42 372.14,-86.28 348.75,-56 337.56,-41.52 320.3,-30.92 304.77,-23.67"/>
<polygon fill="midnightblue" stroke="midnightblue" points="305.96,-20.36 295.39,-19.57 303.16,-26.78 305.96,-20.36"/>
</g>
<!-- Node12 -->
<g id="node12" class="node">
<title>Node12</title>
<g id="a_node12"><a xlink:title=" ">
<polygon fill="none" stroke="#bfbfbf" points="400.75,-174 400.75,-193 466.75,-193 466.75,-174 400.75,-174"/>
<text text-anchor="middle" x="433.75" y="-181" font-family="Helvetica,sans-Serif" font-size="10.00">string_view</text>
</a>
</g>
</g>
<!-- Node11&#45;&gt;Node12 -->
<g id="edge16" class="edge">
<title>Node11&#45;&gt;Node12</title>
<path fill="none" stroke="midnightblue" d="M405.2,-240.73C410.2,-230.89 418.44,-214.66 424.78,-202.16"/>
<polygon fill="midnightblue" stroke="midnightblue" points="427.96,-203.63 429.37,-193.13 421.72,-200.46 427.96,-203.63"/>
</g>
</g>
</svg>
        <g id="navigator" transform="translate(0 0)" fill="#404254">
                <rect fill="#f2f5e9" fill-opacity="0.5" stroke="#606060" stroke-width=".5" x="0" y="0" width="60" height="60"/>
                <use id="zoomplus" xlink:href="#zoomPlus" x="17" y="9" onmousedown="handleZoom(evt,'in')"/>
                <use id="zoomminus" xlink:href="#zoomMin" x="42" y="9" onmousedown="handleZoom(evt,'out')"/>
                <use id="reset" xlink:href="#resetDef" x="30" y="36" onmousedown="handleReset()"/>
                <g id="arrowUp" xlink:href="#dirArrow" transform="translate(30 24)" onmousedown="handlePan(0,-1)">
                  <use xlink:href="#rim" fill="#404040">
                        <set attributeName="fill" to="#808080" begin="arrowUp.mouseover" end="arrowUp.mouseout"/>
                  </use>
                  <path fill="none" stroke="white" stroke-width="1.5" d="M0,-3.0v7 M-2.5,-0.5L0,-3.0L2.5,-0.5"/>
                </g>
                <g id="arrowRight" xlink:href="#dirArrow" transform="rotate(90) translate(36 -43)" onmousedown="handlePan(1,0)">
                  <use xlink:href="#rim" fill="#404040">
                        <set attributeName="fill" to="#808080" begin="arrowRight.mouseover" end="arrowRight.mouseout"/>
                  </use>
                  <path fill="none" stroke="white" stroke-width="1.5" d="M0,-3.0v7 M-2.5,-0.5L0,-3.0L2.5,-0.5"/>
                </g>
                <g id="arrowDown" xlink:href="#dirArrow" transform="rotate(180) translate(-30 -48)" onmousedown="handlePan(0,1)">
                  <use xlink:href="#rim" fill="#404040">
                        <set attributeName="fill" to="#808080" begin="arrowDown.mouseover" end="arrowDown.mouseout"/>
                  </use>
                  <path fill="none" stroke="white" stroke-width="1.5" d="M0,-3.0v7 M-2.5,-0.5L0,-3.0L2.5,-0.5"/>
                </g>
                <g id="arrowLeft" xlink:href="#dirArrow" transform="rotate(270) translate(-36 17)" onmousedown="handlePan(-1,0)">
                  <use xlink:href="#rim" fill="#404040">
                        <set attributeName="fill" to="#808080" begin="arrowLeft.mouseover" end="arrowLeft.mouseout"/>
                  </use>
                  <path fill="none" stroke="white" stroke-width="1.5" d="M0,-3.0v7 M-2.5,-0.5L0,-3.0L2.5,-0.5"/>
                </g>
        </g>
        <svg viewBox="0 0 15 15" width="100%" height="30px" preserveAspectRatio="xMaxYMin meet">
         <g id="arrow_out" transform="scale(0.3 0.3)">
          <a xlink:href="recursive__mutex_8hpp__incl_org.svg" target="_base">
           <rect id="button" ry="5" rx="5" y="6" x="6" height="38" width="38"
                fill="#f2f5e9" fill-opacity="0.5" stroke="#606060" stroke-width="1.0"/>
           <path id="arrow"
             d="M 11.500037,31.436501 C 11.940474,20.09759 22.043105,11.32322 32.158766,21.979434 L 37.068811,17.246167 C 37.068811,17.246167 37.088388,32 37.088388,32 L 22.160133,31.978069 C 22.160133,31.978069 26.997745,27.140456 26.997745,27.140456 C 18.528582,18.264221 13.291696,25.230495 11.500037,31.436501 z"
             style="fill:#404040;"/>
          </a>
         </g>
        </svg>
</svg>
