<?xml version="1.0" encoding="UTF-8" standalone="no"?>
<!DOCTYPE svg PUBLIC "-//W3C//DTD SVG 1.1//EN"
 "http://www.w3.org/Graphics/SVG/1.1/DTD/svg11.dtd">
<!-- Generated by graphviz version 2.50.0 (20220203.2022)
 -->
<!-- Title: src/fault/mutex/recursive_timed_mutex.cpp Pages: 1 -->
<!--zoomable 419 -->
<svg id="main" version="1.1" xmlns="http://www.w3.org/2000/svg" xmlns:xlink="http://www.w3.org/1999/xlink" xml:space="preserve" onload="init(evt)">
<style type="text/css"><![CDATA[
.edge:hover path { stroke: red; }
.edge:hover polygon { stroke: red; fill: red; }
]]></style>
<script type="text/javascript"><![CDATA[
var edges = document.getElementsByTagName('g');
if (edges && edges.length) {
  for (var i=0;i<edges.length;i++) {
    if (edges[i].id.substr(0,4)=='edge') {
      edges[i].setAttribute('class','edge');
    }
  }
}
]]></script>
        <defs>
                <circle id="rim" cx="0" cy="0" r="7"/>
                <circle id="rim2" cx="0" cy="0" r="3.5"/>
                <g id="zoomPlus">
                        <use xlink:href="#rim" fill="#404040">
                                <set attributeName="fill" to="#808080" begin="zoomplus.mouseover" end="zoomplus.mouseout"/>
                        </use>
                        <path d="M-4,0h8M0,-4v8" fill="none" stroke="white" stroke-width="1.5" pointer-events="none"/>
                </g>
                <g id="zoomMin">
                        <use xlink:href="#rim" fill="#404040">
                                <set attributeName="fill" to="#808080" begin="zoomminus.mouseover" end="zoomminus.mouseout"/>
                        </use>
                        <path d="M-4,0h8" fill="none" stroke="white" stroke-width="1.5" pointer-events="none"/>
                </g>
                <g id="dirArrow">
                        <path fill="none" stroke="white" stroke-width="1.5" d="M0,-3.0v7 M-2.5,-0.5L0,-3.0L2.5,-0.5"/>
                </g>
               <g id="resetDef">
                       <use xlink:href="#rim2" fill="#404040">
                               <set attributeName="fill" to="#808080" begin="reset.mouseover" end="reset.mouseout"/>
                       </use>
               </g>
        </defs>

<script type="text/javascript">
var viewWidth = 564;
var viewHeight = 419;
var sectionId = 'dynsection-0';
</script>
<script xlink:href="svgpan.js"/>
<svg id="graph" class="graph">
<g id="viewport">
<title>src/fault/mutex/recursive_timed_mutex.cpp</title>
<!-- Node1 -->
<g id="node1" class="node">
<title>Node1</title>
<g id="a_node1"><a xlink:title=" ">
<polygon fill="#bfbfbf" stroke="black" points="374.5,-380.5 374.5,-410.5 498.5,-410.5 498.5,-380.5 374.5,-380.5"/>
<text text-anchor="start" x="382.5" y="-398.5" font-family="Helvetica,sans-Serif" font-size="10.00">src/fault/mutex/recursive</text>
<text text-anchor="middle" x="436.5" y="-387.5" font-family="Helvetica,sans-Serif" font-size="10.00">_timed_mutex.cpp</text>
</a>
</g>
</g>
<!-- Node2 -->
<g id="node2" class="node">
<title>Node2</title>
<g id="a_node2"><a xlink:title=" ">
<polygon fill="none" stroke="#bfbfbf" points="196.5,-0.5 196.5,-19.5 284.5,-19.5 284.5,-0.5 196.5,-0.5"/>
<text text-anchor="middle" x="240.5" y="-7.5" font-family="Helvetica,sans-Serif" font-size="10.00">yaclib/config.hpp</text>
</a>
</g>
</g>
<!-- Node1&#45;&gt;Node2 -->
<g id="edge1" class="edge">
<title>Node1&#45;&gt;Node2</title>
<path fill="none" stroke="midnightblue" d="M460.3,-380.48C495.02,-358.02 555.5,-310.44 555.5,-251.5 555.5,-251.5 555.5,-251.5 555.5,-121 555.5,-73.09 513.24,-75.56 469.5,-56 413.16,-30.8 342.79,-19.66 295.04,-14.76"/>
<polygon fill="midnightblue" stroke="midnightblue" points="295.19,-11.26 284.9,-13.78 294.52,-18.23 295.19,-11.26"/>
</g>
<!-- Node3 -->
<g id="node3" class="node">
<title>Node3</title>
<g id="a_node3"><a xlink:href="recursive__timed__mutex_8hpp.html" target="_top" xlink:title=" ">
<polygon fill="none" stroke="black" points="311.5,-302.5 311.5,-343.5 429.5,-343.5 429.5,-302.5 311.5,-302.5"/>
<text text-anchor="start" x="319.5" y="-331.5" font-family="Helvetica,sans-Serif" font-size="10.00">yaclib/fault/detail</text>
<text text-anchor="start" x="319.5" y="-320.5" font-family="Helvetica,sans-Serif" font-size="10.00">/mutex/recursive_timed</text>
<text text-anchor="middle" x="370.5" y="-309.5" font-family="Helvetica,sans-Serif" font-size="10.00">_mutex.hpp</text>
</a>
</g>
</g>
<!-- Node1&#45;&gt;Node3 -->
<g id="edge2" class="edge">
<title>Node1&#45;&gt;Node3</title>
<path fill="none" stroke="midnightblue" d="M423.14,-380.23C415.28,-371.83 405.08,-360.93 395.75,-350.97"/>
<polygon fill="midnightblue" stroke="midnightblue" points="398.23,-348.5 388.84,-343.59 393.12,-353.28 398.23,-348.5"/>
</g>
<!-- Node3&#45;&gt;Node2 -->
<g id="edge3" class="edge">
<title>Node3&#45;&gt;Node2</title>
<path fill="none" stroke="midnightblue" d="M416.21,-302.49C459.36,-280.64 517.5,-240.76 517.5,-184.5 517.5,-184.5 517.5,-184.5 517.5,-121 517.5,-71.66 472.33,-76.61 427.5,-56 385.03,-36.48 333.09,-24.85 294.73,-18.32"/>
<polygon fill="midnightblue" stroke="midnightblue" points="295.23,-14.86 284.79,-16.69 294.1,-21.76 295.23,-14.86"/>
</g>
<!-- Node4 -->
<g id="node4" class="node">
<title>Node4</title>
<g id="a_node4"><a xlink:href="chrono_8hpp.html" target="_top" xlink:title=" ">
<polygon fill="none" stroke="black" points="0,-56.5 0,-75.5 113,-75.5 113,-56.5 0,-56.5"/>
<text text-anchor="middle" x="56.5" y="-63.5" font-family="Helvetica,sans-Serif" font-size="10.00">yaclib/fault/chrono.hpp</text>
</a>
</g>
</g>
<!-- Node3&#45;&gt;Node4 -->
<g id="edge4" class="edge">
<title>Node3&#45;&gt;Node4</title>
<path fill="none" stroke="midnightblue" d="M311.11,-310.96C277.77,-302.63 236.72,-288.65 205.5,-266 135.91,-215.51 84.4,-123.11 64.97,-84.59"/>
<polygon fill="midnightblue" stroke="midnightblue" points="68.11,-83.03 60.54,-75.62 61.83,-86.13 68.11,-83.03"/>
</g>
<!-- Node6 -->
<g id="node6" class="node">
<title>Node6</title>
<g id="a_node6"><a xlink:href="inject__fault_8hpp.html" target="_top" xlink:title=" ">
<polygon fill="none" stroke="black" points="276,-235.5 276,-265.5 365,-265.5 365,-235.5 276,-235.5"/>
<text text-anchor="start" x="284" y="-253.5" font-family="Helvetica,sans-Serif" font-size="10.00">yaclib/fault/detail</text>
<text text-anchor="middle" x="320.5" y="-242.5" font-family="Helvetica,sans-Serif" font-size="10.00">/inject_fault.hpp</text>
</a>
</g>
</g>
<!-- Node3&#45;&gt;Node6 -->
<g id="edge7" class="edge">
<title>Node3&#45;&gt;Node6</title>
<path fill="none" stroke="midnightblue" d="M356.57,-302.36C350.35,-293.59 342.99,-283.21 336.54,-274.12"/>
<polygon fill="midnightblue" stroke="midnightblue" points="339.35,-272.02 330.71,-265.89 333.64,-276.07 339.35,-272.02"/>
</g>
<!-- Node12 -->
<g id="node12" class="node">
<title>Node12</title>
<g id="a_node12"><a xlink:href="log_8hpp.html" target="_top" xlink:title=" ">
<polygon fill="none" stroke="black" points="383,-241 383,-260 458,-260 458,-241 383,-241"/>
<text text-anchor="middle" x="420.5" y="-248" font-family="Helvetica,sans-Serif" font-size="10.00">yaclib/log.hpp</text>
</a>
</g>
</g>
<!-- Node3&#45;&gt;Node12 -->
<g id="edge17" class="edge">
<title>Node3&#45;&gt;Node12</title>
<path fill="none" stroke="midnightblue" d="M384.43,-302.36C391.95,-291.76 401.15,-278.79 408.37,-268.6"/>
<polygon fill="midnightblue" stroke="midnightblue" points="411.42,-270.35 414.35,-260.17 405.71,-266.31 411.42,-270.35"/>
</g>
<!-- Node14 -->
<g id="node14" class="node">
<title>Node14</title>
<g id="a_node14"><a xlink:title=" ">
<polygon fill="none" stroke="#bfbfbf" points="215,-241 215,-260 258,-260 258,-241 215,-241"/>
<text text-anchor="middle" x="236.5" y="-248" font-family="Helvetica,sans-Serif" font-size="10.00">mutex</text>
</a>
</g>
</g>
<!-- Node3&#45;&gt;Node14 -->
<g id="edge20" class="edge">
<title>Node3&#45;&gt;Node14</title>
<path fill="none" stroke="midnightblue" d="M333.17,-302.36C310.44,-290.4 282,-275.44 261.87,-264.85"/>
<polygon fill="midnightblue" stroke="midnightblue" points="263.47,-261.73 252.99,-260.17 260.21,-267.93 263.47,-261.73"/>
</g>
<!-- Node4&#45;&gt;Node2 -->
<g id="edge5" class="edge">
<title>Node4&#45;&gt;Node2</title>
<path fill="none" stroke="midnightblue" d="M85.66,-56.44C117.01,-47.24 167.03,-32.56 201.7,-22.39"/>
<polygon fill="midnightblue" stroke="midnightblue" points="202.87,-25.69 211.48,-19.52 200.9,-18.97 202.87,-25.69"/>
</g>
<!-- Node5 -->
<g id="node5" class="node">
<title>Node5</title>
<g id="a_node5"><a xlink:title=" ">
<polygon fill="none" stroke="#bfbfbf" points="33.5,-0.5 33.5,-19.5 79.5,-19.5 79.5,-0.5 33.5,-0.5"/>
<text text-anchor="middle" x="56.5" y="-7.5" font-family="Helvetica,sans-Serif" font-size="10.00">chrono</text>
</a>
</g>
</g>
<!-- Node4&#45;&gt;Node5 -->
<g id="edge6" class="edge">
<title>Node4&#45;&gt;Node5</title>
<path fill="none" stroke="midnightblue" d="M56.5,-56.08C56.5,-49.01 56.5,-38.86 56.5,-29.99"/>
<polygon fill="midnightblue" stroke="midnightblue" points="60,-29.75 56.5,-19.75 53,-29.75 60,-29.75"/>
</g>
<!-- Node6&#45;&gt;Node2 -->
<g id="edge8" class="edge">
<title>Node6&#45;&gt;Node2</title>
<path fill="none" stroke="midnightblue" d="M293.97,-235.45C261.83,-216.75 209.28,-180.31 187.5,-132 180.8,-117.13 183.57,-76.2 193.5,-56 199.36,-44.08 209.75,-33.62 219.27,-25.79"/>
<polygon fill="midnightblue" stroke="midnightblue" points="221.5,-28.49 227.28,-19.62 217.23,-22.95 221.5,-28.49"/>
</g>
<!-- Node7 -->
<g id="node7" class="node">
<title>Node7</title>
<g id="a_node7"><a xlink:href="yielder_8hpp.html" target="_top" xlink:title=" ">
<polygon fill="none" stroke="black" points="276,-168.5 276,-198.5 365,-198.5 365,-168.5 276,-168.5"/>
<text text-anchor="start" x="284" y="-186.5" font-family="Helvetica,sans-Serif" font-size="10.00">yaclib/fault/detail</text>
<text text-anchor="middle" x="320.5" y="-175.5" font-family="Helvetica,sans-Serif" font-size="10.00">/yielder.hpp</text>
</a>
</g>
</g>
<!-- Node6&#45;&gt;Node7 -->
<g id="edge9" class="edge">
<title>Node6&#45;&gt;Node7</title>
<path fill="none" stroke="midnightblue" d="M320.5,-235.4C320.5,-227.64 320.5,-217.81 320.5,-208.86"/>
<polygon fill="midnightblue" stroke="midnightblue" points="324,-208.58 320.5,-198.58 317,-208.58 324,-208.58"/>
</g>
<!-- Node7&#45;&gt;Node2 -->
<g id="edge10" class="edge">
<title>Node7&#45;&gt;Node2</title>
<path fill="none" stroke="midnightblue" d="M275.72,-176.49C248.44,-170.27 215.63,-157.63 198.5,-132 176.16,-98.58 206.32,-52.01 225.97,-27.54"/>
<polygon fill="midnightblue" stroke="midnightblue" points="228.89,-29.5 232.62,-19.59 223.52,-25.01 228.89,-29.5"/>
</g>
<!-- Node8 -->
<g id="node8" class="node">
<title>Node8</title>
<g id="a_node8"><a xlink:href="thread_8hpp.html" target="_top" xlink:title=" ">
<polygon fill="none" stroke="black" points="208,-112.5 208,-131.5 319,-131.5 319,-112.5 208,-112.5"/>
<text text-anchor="middle" x="263.5" y="-119.5" font-family="Helvetica,sans-Serif" font-size="10.00">yaclib/fault/thread.hpp</text>
</a>
</g>
</g>
<!-- Node7&#45;&gt;Node8 -->
<g id="edge11" class="edge">
<title>Node7&#45;&gt;Node8</title>
<path fill="none" stroke="midnightblue" d="M306.99,-168.4C298.54,-159.58 287.62,-148.18 278.84,-139.02"/>
<polygon fill="midnightblue" stroke="midnightblue" points="281.24,-136.46 271.79,-131.66 276.18,-141.3 281.24,-136.46"/>
</g>
<!-- Node10 -->
<g id="node10" class="node">
<title>Node10</title>
<g id="a_node10"><a xlink:title=" ">
<polygon fill="none" stroke="#bfbfbf" points="337.5,-112.5 337.5,-131.5 383.5,-131.5 383.5,-112.5 337.5,-112.5"/>
<text text-anchor="middle" x="360.5" y="-119.5" font-family="Helvetica,sans-Serif" font-size="10.00">atomic</text>
</a>
</g>
</g>
<!-- Node7&#45;&gt;Node10 -->
<g id="edge15" class="edge">
<title>Node7&#45;&gt;Node10</title>
<path fill="none" stroke="midnightblue" d="M329.98,-168.4C335.67,-159.93 342.95,-149.1 348.98,-140.14"/>
<polygon fill="midnightblue" stroke="midnightblue" points="352.01,-141.91 354.68,-131.66 346.2,-138 352.01,-141.91"/>
</g>
<!-- Node11 -->
<g id="node11" class="node">
<title>Node11</title>
<g id="a_node11"><a xlink:title=" ">
<polygon fill="none" stroke="#bfbfbf" points="402,-112.5 402,-131.5 451,-131.5 451,-112.5 402,-112.5"/>
<text text-anchor="middle" x="426.5" y="-119.5" font-family="Helvetica,sans-Serif" font-size="10.00">random</text>
</a>
</g>
</g>
<!-- Node7&#45;&gt;Node11 -->
<g id="edge16" class="edge">
<title>Node7&#45;&gt;Node11</title>
<path fill="none" stroke="midnightblue" d="M345.62,-168.4C362.77,-158.77 385.36,-146.09 402.31,-136.58"/>
<polygon fill="midnightblue" stroke="midnightblue" points="404.07,-139.6 411.08,-131.66 400.64,-133.5 404.07,-139.6"/>
</g>
<!-- Node8&#45;&gt;Node2 -->
<g id="edge12" class="edge">
<title>Node8&#45;&gt;Node2</title>
<path fill="none" stroke="midnightblue" d="M261.7,-112.37C257.98,-94.62 249.42,-53.67 244.39,-29.6"/>
<polygon fill="midnightblue" stroke="midnightblue" points="247.77,-28.66 242.3,-19.59 240.92,-30.1 247.77,-28.66"/>
</g>
<!-- Node8&#45;&gt;Node4 -->
<g id="edge13" class="edge">
<title>Node8&#45;&gt;Node4</title>
<path fill="none" stroke="midnightblue" d="M230.7,-112.44C195.12,-103.16 138.19,-88.31 99.15,-78.13"/>
<polygon fill="midnightblue" stroke="midnightblue" points="99.71,-74.65 89.15,-75.52 97.94,-81.43 99.71,-74.65"/>
</g>
<!-- Node9 -->
<g id="node9" class="node">
<title>Node9</title>
<g id="a_node9"><a xlink:title=" ">
<polygon fill="none" stroke="#bfbfbf" points="268.5,-56.5 268.5,-75.5 312.5,-75.5 312.5,-56.5 268.5,-56.5"/>
<text text-anchor="middle" x="290.5" y="-63.5" font-family="Helvetica,sans-Serif" font-size="10.00">thread</text>
</a>
</g>
</g>
<!-- Node8&#45;&gt;Node9 -->
<g id="edge14" class="edge">
<title>Node8&#45;&gt;Node9</title>
<path fill="none" stroke="midnightblue" d="M267.96,-112.08C271.65,-104.69 277.02,-93.95 281.59,-84.81"/>
<polygon fill="midnightblue" stroke="midnightblue" points="284.78,-86.26 286.12,-75.75 278.52,-83.13 284.78,-86.26"/>
</g>
<!-- Node12&#45;&gt;Node2 -->
<g id="edge18" class="edge">
<title>Node12&#45;&gt;Node2</title>
<path fill="none" stroke="midnightblue" d="M430.31,-241C440.11,-231.79 454.54,-216.11 460.5,-199 473.21,-162.48 481.37,-144.55 460.5,-112 424.16,-55.33 347.17,-30.04 294.62,-19.04"/>
<polygon fill="midnightblue" stroke="midnightblue" points="295.27,-15.6 284.78,-17.09 293.91,-22.47 295.27,-15.6"/>
</g>
<!-- Node13 -->
<g id="node13" class="node">
<title>Node13</title>
<g id="a_node13"><a xlink:title=" ">
<polygon fill="none" stroke="#bfbfbf" points="385.5,-174 385.5,-193 451.5,-193 451.5,-174 385.5,-174"/>
<text text-anchor="middle" x="418.5" y="-181" font-family="Helvetica,sans-Serif" font-size="10.00">string_view</text>
</a>
</g>
</g>
<!-- Node12&#45;&gt;Node13 -->
<g id="edge19" class="edge">
<title>Node12&#45;&gt;Node13</title>
<path fill="none" stroke="midnightblue" d="M420.23,-240.73C419.94,-231.18 419.46,-215.62 419.08,-203.28"/>
<polygon fill="midnightblue" stroke="midnightblue" points="422.57,-203.01 418.77,-193.13 415.57,-203.23 422.57,-203.01"/>
</g>
</g>
</svg>
        <g id="navigator" transform="translate(0 0)" fill="#404254">
                <rect fill="#f2f5e9" fill-opacity="0.5" stroke="#606060" stroke-width=".5" x="0" y="0" width="60" height="60"/>
                <use id="zoomplus" xlink:href="#zoomPlus" x="17" y="9" onmousedown="handleZoom(evt,'in')"/>
                <use id="zoomminus" xlink:href="#zoomMin" x="42" y="9" onmousedown="handleZoom(evt,'out')"/>
                <use id="reset" xlink:href="#resetDef" x="30" y="36" onmousedown="handleReset()"/>
                <g id="arrowUp" xlink:href="#dirArrow" transform="translate(30 24)" onmousedown="handlePan(0,-1)">
                  <use xlink:href="#rim" fill="#404040">
                        <set attributeName="fill" to="#808080" begin="arrowUp.mouseover" end="arrowUp.mouseout"/>
                  </use>
                  <path fill="none" stroke="white" stroke-width="1.5" d="M0,-3.0v7 M-2.5,-0.5L0,-3.0L2.5,-0.5"/>
                </g>
                <g id="arrowRight" xlink:href="#dirArrow" transform="rotate(90) translate(36 -43)" onmousedown="handlePan(1,0)">
                  <use xlink:href="#rim" fill="#404040">
                        <set attributeName="fill" to="#808080" begin="arrowRight.mouseover" end="arrowRight.mouseout"/>
                  </use>
                  <path fill="none" stroke="white" stroke-width="1.5" d="M0,-3.0v7 M-2.5,-0.5L0,-3.0L2.5,-0.5"/>
                </g>
                <g id="arrowDown" xlink:href="#dirArrow" transform="rotate(180) translate(-30 -48)" onmousedown="handlePan(0,1)">
                  <use xlink:href="#rim" fill="#404040">
                        <set attributeName="fill" to="#808080" begin="arrowDown.mouseover" end="arrowDown.mouseout"/>
                  </use>
                  <path fill="none" stroke="white" stroke-width="1.5" d="M0,-3.0v7 M-2.5,-0.5L0,-3.0L2.5,-0.5"/>
                </g>
                <g id="arrowLeft" xlink:href="#dirArrow" transform="rotate(270) translate(-36 17)" onmousedown="handlePan(-1,0)">
                  <use xlink:href="#rim" fill="#404040">
                        <set attributeName="fill" to="#808080" begin="arrowLeft.mouseover" end="arrowLeft.mouseout"/>
                  </use>
                  <path fill="none" stroke="white" stroke-width="1.5" d="M0,-3.0v7 M-2.5,-0.5L0,-3.0L2.5,-0.5"/>
                </g>
        </g>
        <svg viewBox="0 0 15 15" width="100%" height="30px" preserveAspectRatio="xMaxYMin meet">
         <g id="arrow_out" transform="scale(0.3 0.3)">
          <a xlink:href="recursive__timed__mutex_8cpp__incl_org.svg" target="_base">
           <rect id="button" ry="5" rx="5" y="6" x="6" height="38" width="38"
                fill="#f2f5e9" fill-opacity="0.5" stroke="#606060" stroke-width="1.0"/>
           <path id="arrow"
             d="M 11.500037,31.436501 C 11.940474,20.09759 22.043105,11.32322 32.158766,21.979434 L 37.068811,17.246167 C 37.068811,17.246167 37.088388,32 37.088388,32 L 22.160133,31.978069 C 22.160133,31.978069 26.997745,27.140456 26.997745,27.140456 C 18.528582,18.264221 13.291696,25.230495 11.500037,31.436501 z"
             style="fill:#404040;"/>
          </a>
         </g>
        </svg>
</svg>
