<?xml version="1.0" encoding="UTF-8" standalone="no"?>
<!DOCTYPE svg PUBLIC "-//W3C//DTD SVG 1.1//EN"
 "http://www.w3.org/Graphics/SVG/1.1/DTD/svg11.dtd">
<!-- Generated by graphviz version 2.50.0 (20220203.2022)
 -->
<!-- Title: include/yaclib/async/detail/result_core.hpp Pages: 1 -->
<!--zoomable 441 -->
<svg id="main" version="1.1" xmlns="http://www.w3.org/2000/svg" xmlns:xlink="http://www.w3.org/1999/xlink" xml:space="preserve" onload="init(evt)">
<style type="text/css"><![CDATA[
.edge:hover path { stroke: red; }
.edge:hover polygon { stroke: red; fill: red; }
]]></style>
<script type="text/javascript"><![CDATA[
var edges = document.getElementsByTagName('g');
if (edges && edges.length) {
  for (var i=0;i<edges.length;i++) {
    if (edges[i].id.substr(0,4)=='edge') {
      edges[i].setAttribute('class','edge');
    }
  }
}
]]></script>
        <defs>
                <circle id="rim" cx="0" cy="0" r="7"/>
                <circle id="rim2" cx="0" cy="0" r="3.5"/>
                <g id="zoomPlus">
                        <use xlink:href="#rim" fill="#404040">
                                <set attributeName="fill" to="#808080" begin="zoomplus.mouseover" end="zoomplus.mouseout"/>
                        </use>
                        <path d="M-4,0h8M0,-4v8" fill="none" stroke="white" stroke-width="1.5" pointer-events="none"/>
                </g>
                <g id="zoomMin">
                        <use xlink:href="#rim" fill="#404040">
                                <set attributeName="fill" to="#808080" begin="zoomminus.mouseover" end="zoomminus.mouseout"/>
                        </use>
                        <path d="M-4,0h8" fill="none" stroke="white" stroke-width="1.5" pointer-events="none"/>
                </g>
                <g id="dirArrow">
                        <path fill="none" stroke="white" stroke-width="1.5" d="M0,-3.0v7 M-2.5,-0.5L0,-3.0L2.5,-0.5"/>
                </g>
               <g id="resetDef">
                       <use xlink:href="#rim2" fill="#404040">
                               <set attributeName="fill" to="#808080" begin="reset.mouseover" end="reset.mouseout"/>
                       </use>
               </g>
        </defs>

<script type="text/javascript">
var viewWidth = 2017;
var viewHeight = 441;
var sectionId = 'dynsection-1';
</script>
<script xlink:href="svgpan.js"/>
<svg id="graph" class="graph">
<g id="viewport">
<title>include/yaclib/async/detail/result_core.hpp</title>
<!-- Node1 -->
<g id="node1" class="node">
<title>Node1</title>
<g id="a_node1"><a xlink:title=" ">
<polygon fill="#bfbfbf" stroke="black" points="1299.5,-402.5 1299.5,-432.5 1411.5,-432.5 1411.5,-402.5 1299.5,-402.5"/>
<text text-anchor="start" x="1307.5" y="-420.5" font-family="Helvetica,sans-Serif" font-size="10.00">include/yaclib/async</text>
<text text-anchor="middle" x="1355.5" y="-409.5" font-family="Helvetica,sans-Serif" font-size="10.00">/detail/result_core.hpp</text>
</a>
</g>
</g>
<!-- Node2 -->
<g id="node2" class="node">
<title>Node2</title>
<g id="a_node2"><a xlink:href="when__all__impl_8hpp.html" target="_top" xlink:title=" ">
<polygon fill="none" stroke="black" points="552,-134.5 552,-164.5 677,-164.5 677,-134.5 552,-134.5"/>
<text text-anchor="start" x="560" y="-152.5" font-family="Helvetica,sans-Serif" font-size="10.00">include/yaclib/algo</text>
<text text-anchor="middle" x="614.5" y="-141.5" font-family="Helvetica,sans-Serif" font-size="10.00">/detail/when_all_impl.hpp</text>
</a>
</g>
</g>
<!-- Node1&#45;&gt;Node2 -->
<g id="edge1" class="edge">
<title>Node1&#45;&gt;Node2</title>
<path fill="none" stroke="midnightblue" d="M1306.99,-399.09C1169.5,-349.73 779.11,-209.59 653.76,-164.59"/>
<polygon fill="midnightblue" stroke="midnightblue" points="1305.85,-402.4 1316.44,-402.48 1308.21,-395.81 1305.85,-402.4"/>
</g>
<!-- Node5 -->
<g id="node5" class="node">
<title>Node5</title>
<g id="a_node5"><a xlink:href="when__any__impl_8hpp.html" target="_top" xlink:title=" ">
<polygon fill="none" stroke="black" points="0,-134.5 0,-164.5 131,-164.5 131,-134.5 0,-134.5"/>
<text text-anchor="start" x="8" y="-152.5" font-family="Helvetica,sans-Serif" font-size="10.00">include/yaclib/algo</text>
<text text-anchor="middle" x="65.5" y="-141.5" font-family="Helvetica,sans-Serif" font-size="10.00">/detail/when_any_impl.hpp</text>
</a>
</g>
</g>
<!-- Node1&#45;&gt;Node5 -->
<g id="edge4" class="edge">
<title>Node1&#45;&gt;Node5</title>
<path fill="none" stroke="midnightblue" d="M1288.92,-413.94C1139.73,-407.84 782.49,-391.04 664.5,-366 438.28,-317.98 181.68,-204.48 95.5,-164.63"/>
<polygon fill="midnightblue" stroke="midnightblue" points="1289.16,-417.46 1299.29,-414.37 1289.45,-410.46 1289.16,-417.46"/>
</g>
<!-- Node8 -->
<g id="node8" class="node">
<title>Node8</title>
<g id="a_node8"><a xlink:href="core_8hpp.html" target="_top" xlink:title=" ">
<polygon fill="none" stroke="black" points="673.5,-335.5 673.5,-365.5 777.5,-365.5 777.5,-335.5 673.5,-335.5"/>
<text text-anchor="start" x="681.5" y="-353.5" font-family="Helvetica,sans-Serif" font-size="10.00">include/yaclib/async</text>
<text text-anchor="middle" x="725.5" y="-342.5" font-family="Helvetica,sans-Serif" font-size="10.00">/detail/core.hpp</text>
</a>
</g>
</g>
<!-- Node1&#45;&gt;Node8 -->
<g id="edge7" class="edge">
<title>Node1&#45;&gt;Node8</title>
<path fill="none" stroke="midnightblue" d="M1289.04,-409.64C1163,-396.64 891.69,-368.65 777.66,-356.88"/>
<polygon fill="midnightblue" stroke="midnightblue" points="1289.01,-413.16 1299.31,-410.7 1289.73,-406.2 1289.01,-413.16"/>
</g>
<!-- Node10 -->
<g id="node10" class="node">
<title>Node10</title>
<g id="a_node10"><a xlink:href="future_8hpp.html" target="_top" xlink:title=" ">
<polygon fill="none" stroke="black" points="966.5,-201.5 966.5,-231.5 1070.5,-231.5 1070.5,-201.5 966.5,-201.5"/>
<text text-anchor="start" x="974.5" y="-219.5" font-family="Helvetica,sans-Serif" font-size="10.00">include/yaclib/async</text>
<text text-anchor="middle" x="1018.5" y="-208.5" font-family="Helvetica,sans-Serif" font-size="10.00">/future.hpp</text>
</a>
</g>
</g>
<!-- Node1&#45;&gt;Node10 -->
<g id="edge41" class="edge">
<title>Node1&#45;&gt;Node10</title>
<path fill="none" stroke="midnightblue" d="M1322.58,-397.06C1254.97,-357.14 1101.85,-266.72 1042.57,-231.71"/>
<polygon fill="midnightblue" stroke="midnightblue" points="1321.14,-400.28 1331.53,-402.35 1324.7,-394.25 1321.14,-400.28"/>
</g>
<!-- Node21 -->
<g id="node21" class="node">
<title>Node21</title>
<g id="a_node21"><a xlink:href="coroutine__deleter_8hpp.html" target="_top" xlink:title=" ">
<polygon fill="none" stroke="black" points="1517.5,-134.5 1517.5,-164.5 1655.5,-164.5 1655.5,-134.5 1517.5,-134.5"/>
<text text-anchor="start" x="1525.5" y="-152.5" font-family="Helvetica,sans-Serif" font-size="10.00">include/yaclib/coroutine</text>
<text text-anchor="middle" x="1586.5" y="-141.5" font-family="Helvetica,sans-Serif" font-size="10.00">/detail/coroutine_deleter.hpp</text>
</a>
</g>
</g>
<!-- Node1&#45;&gt;Node21 -->
<g id="edge46" class="edge">
<title>Node1&#45;&gt;Node21</title>
<path fill="none" stroke="midnightblue" d="M1421.63,-406.77C1449.87,-399.63 1481.36,-387.3 1503.5,-366 1563.46,-308.33 1580.75,-202.57 1585.15,-164.56"/>
<polygon fill="midnightblue" stroke="midnightblue" points="1420.73,-403.39 1411.8,-409.08 1422.34,-410.2 1420.73,-403.39"/>
</g>
<!-- Node22 -->
<g id="node22" class="node">
<title>Node22</title>
<g id="a_node22"><a xlink:href="promise__type_8hpp.html" target="_top" xlink:title=" ">
<polygon fill="none" stroke="black" points="1428.5,-67.5 1428.5,-97.5 1550.5,-97.5 1550.5,-67.5 1428.5,-67.5"/>
<text text-anchor="start" x="1436.5" y="-85.5" font-family="Helvetica,sans-Serif" font-size="10.00">include/yaclib/coroutine</text>
<text text-anchor="middle" x="1489.5" y="-74.5" font-family="Helvetica,sans-Serif" font-size="10.00">/detail/promise_type.hpp</text>
</a>
</g>
</g>
<!-- Node1&#45;&gt;Node22 -->
<g id="edge47" class="edge">
<title>Node1&#45;&gt;Node22</title>
<path fill="none" stroke="midnightblue" d="M1396.42,-397.58C1435.83,-376.22 1489.5,-337.41 1489.5,-284.5 1489.5,-284.5 1489.5,-284.5 1489.5,-215.5 1489.5,-172.65 1489.5,-121.97 1489.5,-97.76"/>
<polygon fill="midnightblue" stroke="midnightblue" points="1394.49,-394.64 1387.26,-402.38 1397.74,-400.84 1394.49,-394.64"/>
</g>
<!-- Node26 -->
<g id="node26" class="node">
<title>Node26</title>
<g id="a_node26"><a xlink:href="promise_8hpp.html" target="_top" xlink:title=" ">
<polygon fill="none" stroke="black" points="1751.5,-201.5 1751.5,-231.5 1855.5,-231.5 1855.5,-201.5 1751.5,-201.5"/>
<text text-anchor="start" x="1759.5" y="-219.5" font-family="Helvetica,sans-Serif" font-size="10.00">include/yaclib/async</text>
<text text-anchor="middle" x="1803.5" y="-208.5" font-family="Helvetica,sans-Serif" font-size="10.00">/promise.hpp</text>
</a>
</g>
</g>
<!-- Node1&#45;&gt;Node26 -->
<g id="edge42" class="edge">
<title>Node1&#45;&gt;Node26</title>
<path fill="none" stroke="midnightblue" d="M1421.91,-404.55C1458.35,-396.51 1503.68,-384.03 1541.5,-366 1562.77,-355.86 1564.52,-347.49 1584.5,-335 1650.36,-293.84 1731.88,-252.47 1774.47,-231.54"/>
<polygon fill="midnightblue" stroke="midnightblue" points="1420.93,-401.18 1411.88,-406.7 1422.4,-408.02 1420.93,-401.18"/>
</g>
<!-- Node28 -->
<g id="node28" class="node">
<title>Node28</title>
<g id="a_node28"><a xlink:href="result__core_8cpp.html" target="_top" xlink:title=" ">
<polygon fill="none" stroke="black" points="1593.5,-341 1593.5,-360 1721.5,-360 1721.5,-341 1593.5,-341"/>
<text text-anchor="middle" x="1657.5" y="-348" font-family="Helvetica,sans-Serif" font-size="10.00">src/async/result_core.cpp</text>
</a>
</g>
</g>
<!-- Node1&#45;&gt;Node28 -->
<g id="edge48" class="edge">
<title>Node1&#45;&gt;Node28</title>
<path fill="none" stroke="midnightblue" d="M1421.71,-402.25C1481.56,-389.37 1567.71,-370.83 1617.61,-360.09"/>
<polygon fill="midnightblue" stroke="midnightblue" points="1420.64,-398.9 1411.6,-404.43 1422.11,-405.74 1420.64,-398.9"/>
</g>
<!-- Node3 -->
<g id="node3" class="node">
<title>Node3</title>
<g id="a_node3"><a xlink:href="when__all_8hpp.html" target="_top" xlink:title=" ">
<polygon fill="none" stroke="black" points="514.5,-67.5 514.5,-97.5 610.5,-97.5 610.5,-67.5 514.5,-67.5"/>
<text text-anchor="start" x="522.5" y="-85.5" font-family="Helvetica,sans-Serif" font-size="10.00">include/yaclib/algo</text>
<text text-anchor="middle" x="562.5" y="-74.5" font-family="Helvetica,sans-Serif" font-size="10.00">/when_all.hpp</text>
</a>
</g>
</g>
<!-- Node2&#45;&gt;Node3 -->
<g id="edge2" class="edge">
<title>Node2&#45;&gt;Node3</title>
<path fill="none" stroke="midnightblue" d="M596.86,-126.45C589.22,-116.9 580.5,-106 573.76,-97.58"/>
<polygon fill="midnightblue" stroke="midnightblue" points="594.24,-128.77 603.22,-134.4 599.7,-124.4 594.24,-128.77"/>
</g>
<!-- Node4 -->
<g id="node4" class="node">
<title>Node4</title>
<g id="a_node4"><a xlink:href="when__all_8cpp.html" target="_top" xlink:title=" ">
<polygon fill="none" stroke="black" points="460,-0.5 460,-30.5 561,-30.5 561,-0.5 460,-0.5"/>
<text text-anchor="start" x="468" y="-18.5" font-family="Helvetica,sans-Serif" font-size="10.00">test/example/async</text>
<text text-anchor="middle" x="510.5" y="-7.5" font-family="Helvetica,sans-Serif" font-size="10.00">/when_all.cpp</text>
</a>
</g>
</g>
<!-- Node3&#45;&gt;Node4 -->
<g id="edge3" class="edge">
<title>Node3&#45;&gt;Node4</title>
<path fill="none" stroke="midnightblue" d="M544.86,-59.45C537.22,-49.9 528.5,-39 521.76,-30.58"/>
<polygon fill="midnightblue" stroke="midnightblue" points="542.24,-61.77 551.22,-67.4 547.7,-57.4 542.24,-61.77"/>
</g>
<!-- Node6 -->
<g id="node6" class="node">
<title>Node6</title>
<g id="a_node6"><a xlink:href="when__any_8hpp.html" target="_top" xlink:title=" ">
<polygon fill="none" stroke="black" points="337.5,-67.5 337.5,-97.5 433.5,-97.5 433.5,-67.5 337.5,-67.5"/>
<text text-anchor="start" x="345.5" y="-85.5" font-family="Helvetica,sans-Serif" font-size="10.00">include/yaclib/algo</text>
<text text-anchor="middle" x="385.5" y="-74.5" font-family="Helvetica,sans-Serif" font-size="10.00">/when_any.hpp</text>
</a>
</g>
</g>
<!-- Node5&#45;&gt;Node6 -->
<g id="edge5" class="edge">
<title>Node5&#45;&gt;Node6</title>
<path fill="none" stroke="midnightblue" d="M140.95,-133.17C201.68,-120.84 285.22,-103.87 337.25,-93.3"/>
<polygon fill="midnightblue" stroke="midnightblue" points="140.13,-129.77 131.03,-135.19 141.53,-136.63 140.13,-129.77"/>
</g>
<!-- Node7 -->
<g id="node7" class="node">
<title>Node7</title>
<g id="a_node7"><a xlink:href="when__any_8cpp.html" target="_top" xlink:title=" ">
<polygon fill="none" stroke="black" points="278,-0.5 278,-30.5 379,-30.5 379,-0.5 278,-0.5"/>
<text text-anchor="start" x="286" y="-18.5" font-family="Helvetica,sans-Serif" font-size="10.00">test/example/async</text>
<text text-anchor="middle" x="328.5" y="-7.5" font-family="Helvetica,sans-Serif" font-size="10.00">/when_any.cpp</text>
</a>
</g>
</g>
<!-- Node6&#45;&gt;Node7 -->
<g id="edge6" class="edge">
<title>Node6&#45;&gt;Node7</title>
<path fill="none" stroke="midnightblue" d="M366.41,-59.74C357.98,-50.12 348.31,-39.09 340.84,-30.58"/>
<polygon fill="midnightblue" stroke="midnightblue" points="363.91,-62.18 373.13,-67.4 369.17,-57.57 363.91,-62.18"/>
</g>
<!-- Node9 -->
<g id="node9" class="node">
<title>Node9</title>
<g id="a_node9"><a xlink:href="future__impl_8hpp.html" target="_top" xlink:title=" ">
<polygon fill="none" stroke="black" points="669.5,-268.5 669.5,-298.5 781.5,-298.5 781.5,-268.5 669.5,-268.5"/>
<text text-anchor="start" x="677.5" y="-286.5" font-family="Helvetica,sans-Serif" font-size="10.00">include/yaclib/async</text>
<text text-anchor="middle" x="725.5" y="-275.5" font-family="Helvetica,sans-Serif" font-size="10.00">/detail/future_impl.hpp</text>
</a>
</g>
</g>
<!-- Node8&#45;&gt;Node9 -->
<g id="edge8" class="edge">
<title>Node8&#45;&gt;Node9</title>
<path fill="none" stroke="midnightblue" d="M725.5,-325.11C725.5,-316.15 725.5,-306.32 725.5,-298.58"/>
<polygon fill="midnightblue" stroke="midnightblue" points="722,-325.4 725.5,-335.4 729,-325.4 722,-325.4"/>
</g>
<!-- Node19 -->
<g id="node19" class="node">
<title>Node19</title>
<g id="a_node19"><a xlink:href="run_8hpp.html" target="_top" xlink:title=" ">
<polygon fill="none" stroke="black" points="149.5,-134.5 149.5,-164.5 253.5,-164.5 253.5,-134.5 149.5,-134.5"/>
<text text-anchor="start" x="157.5" y="-152.5" font-family="Helvetica,sans-Serif" font-size="10.00">include/yaclib/async</text>
<text text-anchor="middle" x="201.5" y="-141.5" font-family="Helvetica,sans-Serif" font-size="10.00">/run.hpp</text>
</a>
</g>
</g>
<!-- Node8&#45;&gt;Node19 -->
<g id="edge40" class="edge">
<title>Node8&#45;&gt;Node19</title>
<path fill="none" stroke="midnightblue" d="M678.73,-331.74C575.88,-292.68 331.8,-199.99 238.57,-164.58"/>
<polygon fill="midnightblue" stroke="midnightblue" points="677.64,-335.07 688.24,-335.35 680.13,-328.53 677.64,-335.07"/>
</g>
<!-- Node9&#45;&gt;Node10 -->
<g id="edge9" class="edge">
<title>Node9&#45;&gt;Node10</title>
<path fill="none" stroke="midnightblue" d="M791.61,-267.83C844.52,-256.1 917.69,-239.86 966.48,-229.04"/>
<polygon fill="midnightblue" stroke="midnightblue" points="790.65,-264.46 781.65,-270.04 792.17,-271.3 790.65,-264.46"/>
</g>
<!-- Node10&#45;&gt;Node2 -->
<g id="edge10" class="edge">
<title>Node10&#45;&gt;Node2</title>
<path fill="none" stroke="midnightblue" d="M956.39,-206.96C889.58,-197.56 780.29,-181.57 686.5,-165 683.49,-164.47 680.41,-163.91 677.3,-163.33"/>
<polygon fill="midnightblue" stroke="midnightblue" points="955.94,-210.43 966.33,-208.35 956.92,-203.5 955.94,-210.43"/>
</g>
<!-- Node10&#45;&gt;Node3 -->
<g id="edge21" class="edge">
<title>Node10&#45;&gt;Node3</title>
<path fill="none" stroke="midnightblue" d="M956.51,-204.69C920.67,-196.85 875.49,-184.21 838.5,-165 819.16,-154.96 820.16,-143.42 800.5,-134 738.98,-104.53 660.36,-92.15 610.7,-87.02"/>
<polygon fill="midnightblue" stroke="midnightblue" points="955.85,-208.12 966.36,-206.77 957.3,-201.28 955.85,-208.12"/>
</g>
<!-- Node10&#45;&gt;Node5 -->
<g id="edge11" class="edge">
<title>Node10&#45;&gt;Node5</title>
<path fill="none" stroke="midnightblue" d="M955.92,-214.76C811.61,-212.44 444.61,-202.97 140.5,-165 137.47,-164.62 134.38,-164.2 131.27,-163.73"/>
<polygon fill="midnightblue" stroke="midnightblue" points="956.27,-218.27 966.33,-214.93 956.38,-211.27 956.27,-218.27"/>
</g>
<!-- Node10&#45;&gt;Node6 -->
<g id="edge22" class="edge">
<title>Node10&#45;&gt;Node6</title>
<path fill="none" stroke="midnightblue" d="M956.21,-214.07C810.55,-210.2 456.74,-197.52 414.5,-165 393.56,-148.87 387.7,-116.4 386.09,-97.68"/>
<polygon fill="midnightblue" stroke="midnightblue" points="956.25,-217.57 966.33,-214.34 956.43,-210.58 956.25,-217.57"/>
</g>
<!-- Node11 -->
<g id="node11" class="node">
<title>Node11</title>
<g id="a_node11"><a xlink:href="when__impl_8hpp.html" target="_top" xlink:title=" ">
<polygon fill="none" stroke="black" points="423.5,-134.5 423.5,-164.5 533.5,-164.5 533.5,-134.5 423.5,-134.5"/>
<text text-anchor="start" x="431.5" y="-152.5" font-family="Helvetica,sans-Serif" font-size="10.00">include/yaclib/algo</text>
<text text-anchor="middle" x="478.5" y="-141.5" font-family="Helvetica,sans-Serif" font-size="10.00">/detail/when_impl.hpp</text>
</a>
</g>
</g>
<!-- Node10&#45;&gt;Node11 -->
<g id="edge12" class="edge">
<title>Node10&#45;&gt;Node11</title>
<path fill="none" stroke="midnightblue" d="M956.3,-211.24C865.1,-204.46 689.92,-189.43 542.5,-165 539.58,-164.52 536.59,-163.98 533.58,-163.41"/>
<polygon fill="midnightblue" stroke="midnightblue" points="956.23,-214.74 966.46,-211.98 956.74,-207.76 956.23,-214.74"/>
</g>
<!-- Node12 -->
<g id="node12" class="node">
<title>Node12</title>
<g id="a_node12"><a xlink:href="wait_8hpp.html" target="_top" xlink:title=" ">
<polygon fill="none" stroke="black" points="271.5,-134.5 271.5,-164.5 367.5,-164.5 367.5,-134.5 271.5,-134.5"/>
<text text-anchor="start" x="279.5" y="-152.5" font-family="Helvetica,sans-Serif" font-size="10.00">include/yaclib/algo</text>
<text text-anchor="middle" x="319.5" y="-141.5" font-family="Helvetica,sans-Serif" font-size="10.00">/wait.hpp</text>
</a>
</g>
</g>
<!-- Node10&#45;&gt;Node12 -->
<g id="edge15" class="edge">
<title>Node10&#45;&gt;Node12</title>
<path fill="none" stroke="midnightblue" d="M955.84,-213.66C841.23,-209.6 590.38,-197.52 381.5,-165 377.02,-164.3 372.39,-163.46 367.76,-162.53"/>
<polygon fill="midnightblue" stroke="midnightblue" points="956.06,-217.17 966.17,-214.02 956.3,-210.17 956.06,-217.17"/>
</g>
<!-- Node13 -->
<g id="node13" class="node">
<title>Node13</title>
<g id="a_node13"><a xlink:href="wait__for_8hpp.html" target="_top" xlink:title=" ">
<polygon fill="none" stroke="black" points="695.5,-134.5 695.5,-164.5 791.5,-164.5 791.5,-134.5 695.5,-134.5"/>
<text text-anchor="start" x="703.5" y="-152.5" font-family="Helvetica,sans-Serif" font-size="10.00">include/yaclib/algo</text>
<text text-anchor="middle" x="743.5" y="-141.5" font-family="Helvetica,sans-Serif" font-size="10.00">/wait_for.hpp</text>
</a>
</g>
</g>
<!-- Node10&#45;&gt;Node13 -->
<g id="edge17" class="edge">
<title>Node10&#45;&gt;Node13</title>
<path fill="none" stroke="midnightblue" d="M956.43,-200.83C906.53,-189.03 837.43,-172.7 791.65,-161.88"/>
<polygon fill="midnightblue" stroke="midnightblue" points="955.91,-204.3 966.45,-203.2 957.52,-197.49 955.91,-204.3"/>
</g>
<!-- Node14 -->
<g id="node14" class="node">
<title>Node14</title>
<g id="a_node14"><a xlink:href="wait__group_8hpp.html" target="_top" xlink:title=" ">
<polygon fill="none" stroke="black" points="1143.5,-134.5 1143.5,-164.5 1239.5,-164.5 1239.5,-134.5 1143.5,-134.5"/>
<text text-anchor="start" x="1151.5" y="-152.5" font-family="Helvetica,sans-Serif" font-size="10.00">include/yaclib/algo</text>
<text text-anchor="middle" x="1191.5" y="-141.5" font-family="Helvetica,sans-Serif" font-size="10.00">/wait_group.hpp</text>
</a>
</g>
</g>
<!-- Node10&#45;&gt;Node14 -->
<g id="edge18" class="edge">
<title>Node10&#45;&gt;Node14</title>
<path fill="none" stroke="midnightblue" d="M1065.56,-197.82C1093.37,-187.37 1128.09,-174.32 1154.03,-164.58"/>
<polygon fill="midnightblue" stroke="midnightblue" points="1064.17,-194.6 1056.04,-201.4 1066.63,-201.16 1064.17,-194.6"/>
</g>
<!-- Node16 -->
<g id="node16" class="node">
<title>Node16</title>
<g id="a_node16"><a xlink:href="wait__until_8hpp.html" target="_top" xlink:title=" ">
<polygon fill="none" stroke="black" points="991.5,-134.5 991.5,-164.5 1087.5,-164.5 1087.5,-134.5 991.5,-134.5"/>
<text text-anchor="start" x="999.5" y="-152.5" font-family="Helvetica,sans-Serif" font-size="10.00">include/yaclib/algo</text>
<text text-anchor="middle" x="1039.5" y="-141.5" font-family="Helvetica,sans-Serif" font-size="10.00">/wait_until.hpp</text>
</a>
</g>
</g>
<!-- Node10&#45;&gt;Node16 -->
<g id="edge20" class="edge">
<title>Node10&#45;&gt;Node16</title>
<path fill="none" stroke="midnightblue" d="M1026.19,-191.7C1029.13,-182.59 1032.39,-172.49 1034.95,-164.58"/>
<polygon fill="midnightblue" stroke="midnightblue" points="1022.8,-190.8 1023.06,-201.4 1029.46,-192.96 1022.8,-190.8"/>
</g>
<!-- Node17 -->
<g id="node17" class="node">
<title>Node17</title>
<g id="a_node17"><a xlink:href="contract_8hpp.html" target="_top" xlink:title=" ">
<polygon fill="none" stroke="black" points="1711.5,-134.5 1711.5,-164.5 1815.5,-164.5 1815.5,-134.5 1711.5,-134.5"/>
<text text-anchor="start" x="1719.5" y="-152.5" font-family="Helvetica,sans-Serif" font-size="10.00">include/yaclib/async</text>
<text text-anchor="middle" x="1763.5" y="-141.5" font-family="Helvetica,sans-Serif" font-size="10.00">/contract.hpp</text>
</a>
</g>
</g>
<!-- Node10&#45;&gt;Node17 -->
<g id="edge23" class="edge">
<title>Node10&#45;&gt;Node17</title>
<path fill="none" stroke="midnightblue" d="M1080.84,-213.82C1200.81,-209.94 1471.9,-198 1697.5,-165 1702.03,-164.34 1706.71,-163.54 1711.39,-162.67"/>
<polygon fill="midnightblue" stroke="midnightblue" points="1080.62,-210.33 1070.74,-214.14 1080.84,-217.32 1080.62,-210.33"/>
</g>
<!-- Node18 -->
<g id="node18" class="node">
<title>Node18</title>
<g id="a_node18"><a xlink:href="simple_8cpp.html" target="_top" xlink:title=" ">
<polygon fill="none" stroke="black" points="1673,-67.5 1673,-97.5 1774,-97.5 1774,-67.5 1673,-67.5"/>
<text text-anchor="start" x="1681" y="-85.5" font-family="Helvetica,sans-Serif" font-size="10.00">test/example/async</text>
<text text-anchor="middle" x="1723.5" y="-74.5" font-family="Helvetica,sans-Serif" font-size="10.00">/simple.cpp</text>
</a>
</g>
</g>
<!-- Node10&#45;&gt;Node18 -->
<g id="edge39" class="edge">
<title>Node10&#45;&gt;Node18</title>
<path fill="none" stroke="midnightblue" d="M1080.76,-213.59C1232.81,-208.51 1614.38,-193.11 1664.5,-165 1691.47,-149.88 1709.35,-116.71 1717.82,-97.67"/>
<polygon fill="midnightblue" stroke="midnightblue" points="1080.52,-210.1 1070.64,-213.93 1080.75,-217.09 1080.52,-210.1"/>
</g>
<!-- Node10&#45;&gt;Node19 -->
<g id="edge25" class="edge">
<title>Node10&#45;&gt;Node19</title>
<path fill="none" stroke="midnightblue" d="M956.25,-214.84C826.5,-212.71 517.99,-203.62 262.5,-165 259.59,-164.56 256.62,-164.05 253.63,-163.5"/>
<polygon fill="midnightblue" stroke="midnightblue" points="956.34,-218.34 966.39,-215 956.45,-211.35 956.34,-218.34"/>
</g>
<!-- Node20 -->
<g id="node20" class="node">
<title>Node20</title>
<g id="a_node20"><a xlink:href="await_8hpp.html" target="_top" xlink:title=" ">
<polygon fill="none" stroke="black" points="917.5,-67.5 917.5,-97.5 1035.5,-97.5 1035.5,-67.5 917.5,-67.5"/>
<text text-anchor="start" x="925.5" y="-85.5" font-family="Helvetica,sans-Serif" font-size="10.00">include/yaclib/coroutine</text>
<text text-anchor="middle" x="976.5" y="-74.5" font-family="Helvetica,sans-Serif" font-size="10.00">/await.hpp</text>
</a>
</g>
</g>
<!-- Node10&#45;&gt;Node20 -->
<g id="edge29" class="edge">
<title>Node10&#45;&gt;Node20</title>
<path fill="none" stroke="midnightblue" d="M1063.87,-196.49C1076.75,-188.72 1089.24,-178.36 1096.5,-165 1103.08,-152.9 1104.12,-145.48 1096.5,-134 1082.75,-113.29 1058.65,-101.05 1035.65,-93.83"/>
<polygon fill="midnightblue" stroke="midnightblue" points="1061.98,-193.54 1054.95,-201.46 1065.39,-199.65 1061.98,-193.54"/>
</g>
<!-- Node10&#45;&gt;Node21 -->
<g id="edge30" class="edge">
<title>Node10&#45;&gt;Node21</title>
<path fill="none" stroke="midnightblue" d="M1080.72,-208.81C1167.89,-199.38 1331.34,-181.47 1470.5,-165 1485.62,-163.21 1501.83,-161.23 1517.2,-159.31"/>
<polygon fill="midnightblue" stroke="midnightblue" points="1080.29,-205.33 1070.73,-209.89 1081.04,-212.29 1080.29,-205.33"/>
</g>
<!-- Node10&#45;&gt;Node22 -->
<g id="edge36" class="edge">
<title>Node10&#45;&gt;Node22</title>
<path fill="none" stroke="midnightblue" d="M1080.86,-211.17C1135.6,-205.61 1216.43,-193.06 1281.5,-165 1303.13,-155.67 1303.4,-144.48 1324.5,-134 1357.24,-117.75 1396.24,-105.52 1428.11,-97.17"/>
<polygon fill="midnightblue" stroke="midnightblue" points="1080.23,-207.72 1070.61,-212.16 1080.9,-214.68 1080.23,-207.72"/>
</g>
<!-- Node23 -->
<g id="node23" class="node">
<title>Node23</title>
<g id="a_node23"><a xlink:href="future__coro__traits_8hpp.html" target="_top" xlink:title=" ">
<polygon fill="none" stroke="black" points="1430.5,-0.5 1430.5,-30.5 1548.5,-30.5 1548.5,-0.5 1430.5,-0.5"/>
<text text-anchor="start" x="1438.5" y="-18.5" font-family="Helvetica,sans-Serif" font-size="10.00">include/yaclib/coroutine</text>
<text text-anchor="middle" x="1489.5" y="-7.5" font-family="Helvetica,sans-Serif" font-size="10.00">/future_coro_traits.hpp</text>
</a>
</g>
</g>
<!-- Node10&#45;&gt;Node23 -->
<g id="edge37" class="edge">
<title>Node10&#45;&gt;Node23</title>
<path fill="none" stroke="midnightblue" d="M1080.51,-210.92C1128.65,-205.28 1195.83,-192.77 1248.5,-165 1266.3,-155.62 1265.29,-145.92 1281.5,-134 1340.8,-90.38 1417.86,-50.76 1459.55,-30.56"/>
<polygon fill="midnightblue" stroke="midnightblue" points="1080.1,-207.44 1070.54,-212.02 1080.87,-214.4 1080.1,-207.44"/>
</g>
<!-- Node24 -->
<g id="node24" class="node">
<title>Node24</title>
<g id="a_node24"><a xlink:href="future__awaiter_8hpp.html" target="_top" xlink:title=" ">
<polygon fill="none" stroke="black" points="848,-134.5 848,-164.5 973,-164.5 973,-134.5 848,-134.5"/>
<text text-anchor="start" x="856" y="-152.5" font-family="Helvetica,sans-Serif" font-size="10.00">include/yaclib/coroutine</text>
<text text-anchor="middle" x="910.5" y="-141.5" font-family="Helvetica,sans-Serif" font-size="10.00">/detail/future_awaiter.hpp</text>
</a>
</g>
</g>
<!-- Node10&#45;&gt;Node24 -->
<g id="edge34" class="edge">
<title>Node10&#45;&gt;Node24</title>
<path fill="none" stroke="midnightblue" d="M986.13,-196.02C969.32,-185.9 949.16,-173.77 933.89,-164.58"/>
<polygon fill="midnightblue" stroke="midnightblue" points="984.69,-199.24 995.07,-201.4 988.3,-193.24 984.69,-199.24"/>
</g>
<!-- Node25 -->
<g id="node25" class="node">
<title>Node25</title>
<g id="a_node25"><a xlink:href="future__impl_8cpp.html" target="_top" xlink:title=" ">
<polygon fill="none" stroke="black" points="1333.5,-140 1333.5,-159 1461.5,-159 1461.5,-140 1333.5,-140"/>
<text text-anchor="middle" x="1397.5" y="-147" font-family="Helvetica,sans-Serif" font-size="10.00">src/async/future_impl.cpp</text>
</a>
</g>
</g>
<!-- Node10&#45;&gt;Node25 -->
<g id="edge38" class="edge">
<title>Node10&#45;&gt;Node25</title>
<path fill="none" stroke="midnightblue" d="M1080.97,-205.35C1141.88,-195.37 1237.13,-179.57 1319.5,-165 1330.08,-163.13 1341.45,-161.05 1352.15,-159.07"/>
<polygon fill="midnightblue" stroke="midnightblue" points="1080.05,-201.95 1070.75,-207.02 1081.18,-208.86 1080.05,-201.95"/>
</g>
<!-- Node11&#45;&gt;Node3 -->
<g id="edge13" class="edge">
<title>Node11&#45;&gt;Node3</title>
<path fill="none" stroke="midnightblue" d="M504.78,-128.17C517.62,-118.23 532.76,-106.51 544.31,-97.58"/>
<polygon fill="midnightblue" stroke="midnightblue" points="502.49,-125.51 496.73,-134.4 506.78,-131.04 502.49,-125.51"/>
</g>
<!-- Node11&#45;&gt;Node6 -->
<g id="edge14" class="edge">
<title>Node11&#45;&gt;Node6</title>
<path fill="none" stroke="midnightblue" d="M449.81,-128.45C435.51,-118.45 418.55,-106.6 405.64,-97.58"/>
<polygon fill="midnightblue" stroke="midnightblue" points="448.12,-131.54 458.32,-134.4 452.13,-125.8 448.12,-131.54"/>
</g>
<!-- Node12&#45;&gt;Node9 -->
<g id="edge16" class="edge">
<title>Node12&#45;&gt;Node9</title>
<path fill="none" stroke="midnightblue" d="M376.22,-167.57C407.85,-177.18 447.94,-189.54 483.5,-201 554.6,-223.91 636.94,-251.97 684.93,-268.48"/>
<polygon fill="midnightblue" stroke="midnightblue" points="376.84,-164.1 366.26,-164.54 374.81,-170.8 376.84,-164.1"/>
</g>
<!-- Node15 -->
<g id="node15" class="node">
<title>Node15</title>
<g id="a_node15"><a xlink:href="wait__group_8cpp.html" target="_top" xlink:title=" ">
<polygon fill="none" stroke="black" points="1120,-73 1120,-92 1239,-92 1239,-73 1120,-73"/>
<text text-anchor="middle" x="1179.5" y="-80" font-family="Helvetica,sans-Serif" font-size="10.00">src/algo/wait_group.cpp</text>
</a>
</g>
</g>
<!-- Node14&#45;&gt;Node15 -->
<g id="edge19" class="edge">
<title>Node14&#45;&gt;Node15</title>
<path fill="none" stroke="midnightblue" d="M1187.02,-124.25C1184.95,-113.02 1182.62,-100.38 1181.11,-92.19"/>
<polygon fill="midnightblue" stroke="midnightblue" points="1183.64,-125.2 1188.9,-134.4 1190.52,-123.93 1183.64,-125.2"/>
</g>
<!-- Node17&#45;&gt;Node18 -->
<g id="edge24" class="edge">
<title>Node17&#45;&gt;Node18</title>
<path fill="none" stroke="midnightblue" d="M1749.57,-125.87C1743.78,-116.46 1737.24,-105.83 1732.16,-97.58"/>
<polygon fill="midnightblue" stroke="midnightblue" points="1746.6,-127.71 1754.82,-134.4 1752.56,-124.05 1746.6,-127.71"/>
</g>
<!-- Node19&#45;&gt;Node4 -->
<g id="edge27" class="edge">
<title>Node19&#45;&gt;Node4</title>
<path fill="none" stroke="midnightblue" d="M230.39,-128.52C261.34,-107.38 308.69,-75.86 328.5,-67 371,-47.99 422.35,-34.53 459.66,-26.31"/>
<polygon fill="midnightblue" stroke="midnightblue" points="228.01,-125.91 221.75,-134.45 231.97,-131.68 228.01,-125.91"/>
</g>
<!-- Node19&#45;&gt;Node7 -->
<g id="edge28" class="edge">
<title>Node19&#45;&gt;Node7</title>
<path fill="none" stroke="midnightblue" d="M220.44,-126.79C235.15,-110.14 256.23,-86.74 275.5,-67 287.75,-54.45 302.2,-40.76 312.91,-30.8"/>
<polygon fill="midnightblue" stroke="midnightblue" points="217.75,-124.55 213.77,-134.37 223,-129.18 217.75,-124.55"/>
</g>
<!-- Node19&#45;&gt;Node18 -->
<g id="edge26" class="edge">
<title>Node19&#45;&gt;Node18</title>
<path fill="none" stroke="midnightblue" d="M263.77,-134.04C836.03,-59.77 987.18,-131.21 1559.5,-98 1597.59,-95.79 1640.56,-91.94 1672.95,-88.76"/>
<polygon fill="midnightblue" stroke="midnightblue" points="263.07,-130.6 253.61,-135.37 263.98,-137.54 263.07,-130.6"/>
</g>
<!-- Node21&#45;&gt;Node22 -->
<g id="edge31" class="edge">
<title>Node21&#45;&gt;Node22</title>
<path fill="none" stroke="midnightblue" d="M1557,-128.73C1541.99,-118.68 1524.1,-106.68 1510.51,-97.58"/>
<polygon fill="midnightblue" stroke="midnightblue" points="1555.2,-131.74 1565.45,-134.4 1559.09,-125.92 1555.2,-131.74"/>
</g>
<!-- Node21&#45;&gt;Node23 -->
<g id="edge33" class="edge">
<title>Node21&#45;&gt;Node23</title>
<path fill="none" stroke="midnightblue" d="M1582.62,-124.42C1578.92,-107.15 1571.98,-84.02 1559.5,-67 1548.33,-51.78 1531.2,-39.3 1516.68,-30.56"/>
<polygon fill="midnightblue" stroke="midnightblue" points="1579.2,-125.15 1584.53,-134.31 1586.07,-123.83 1579.2,-125.15"/>
</g>
<!-- Node22&#45;&gt;Node23 -->
<g id="edge32" class="edge">
<title>Node22&#45;&gt;Node23</title>
<path fill="none" stroke="midnightblue" d="M1489.5,-57.11C1489.5,-48.15 1489.5,-38.32 1489.5,-30.58"/>
<polygon fill="midnightblue" stroke="midnightblue" points="1486,-57.4 1489.5,-67.4 1493,-57.4 1486,-57.4"/>
</g>
<!-- Node24&#45;&gt;Node20 -->
<g id="edge35" class="edge">
<title>Node24&#45;&gt;Node20</title>
<path fill="none" stroke="midnightblue" d="M932.01,-127.31C941.91,-117.56 953.39,-106.26 962.21,-97.58"/>
<polygon fill="midnightblue" stroke="midnightblue" points="929.49,-124.89 924.82,-134.4 934.4,-129.87 929.49,-124.89"/>
</g>
<!-- Node26&#45;&gt;Node17 -->
<g id="edge43" class="edge">
<title>Node26&#45;&gt;Node17</title>
<path fill="none" stroke="midnightblue" d="M1789.57,-192.87C1783.78,-183.46 1777.24,-172.83 1772.16,-164.58"/>
<polygon fill="midnightblue" stroke="midnightblue" points="1786.6,-194.71 1794.82,-201.4 1792.56,-191.05 1786.6,-194.71"/>
</g>
<!-- Node26&#45;&gt;Node18 -->
<g id="edge45" class="edge">
<title>Node26&#45;&gt;Node18</title>
<path fill="none" stroke="midnightblue" d="M1818.5,-192.43C1827.6,-175.26 1835.52,-151.83 1824.5,-134 1813.27,-115.82 1793.29,-103.97 1774.05,-96.35"/>
<polygon fill="midnightblue" stroke="midnightblue" points="1815.38,-190.83 1813.44,-201.24 1821.45,-194.31 1815.38,-190.83"/>
</g>
<!-- Node27 -->
<g id="node27" class="node">
<title>Node27</title>
<g id="a_node27"><a xlink:href="promise__impl_8cpp.html" target="_top" xlink:title=" ">
<polygon fill="none" stroke="black" points="1872,-140 1872,-159 2009,-159 2009,-140 1872,-140"/>
<text text-anchor="middle" x="1940.5" y="-147" font-family="Helvetica,sans-Serif" font-size="10.00">src/async/promise_impl.cpp</text>
</a>
</g>
</g>
<!-- Node26&#45;&gt;Node27 -->
<g id="edge44" class="edge">
<title>Node26&#45;&gt;Node27</title>
<path fill="none" stroke="midnightblue" d="M1842.56,-196.97C1868.88,-184.48 1902.36,-168.6 1922.57,-159.01"/>
<polygon fill="midnightblue" stroke="midnightblue" points="1840.76,-193.95 1833.23,-201.4 1843.76,-200.27 1840.76,-193.95"/>
</g>
</g>
</svg>
        <g id="navigator" transform="translate(0 0)" fill="#404254">
                <rect fill="#f2f5e9" fill-opacity="0.5" stroke="#606060" stroke-width=".5" x="0" y="0" width="60" height="60"/>
                <use id="zoomplus" xlink:href="#zoomPlus" x="17" y="9" onmousedown="handleZoom(evt,'in')"/>
                <use id="zoomminus" xlink:href="#zoomMin" x="42" y="9" onmousedown="handleZoom(evt,'out')"/>
                <use id="reset" xlink:href="#resetDef" x="30" y="36" onmousedown="handleReset()"/>
                <g id="arrowUp" xlink:href="#dirArrow" transform="translate(30 24)" onmousedown="handlePan(0,-1)">
                  <use xlink:href="#rim" fill="#404040">
                        <set attributeName="fill" to="#808080" begin="arrowUp.mouseover" end="arrowUp.mouseout"/>
                  </use>
                  <path fill="none" stroke="white" stroke-width="1.5" d="M0,-3.0v7 M-2.5,-0.5L0,-3.0L2.5,-0.5"/>
                </g>
                <g id="arrowRight" xlink:href="#dirArrow" transform="rotate(90) translate(36 -43)" onmousedown="handlePan(1,0)">
                  <use xlink:href="#rim" fill="#404040">
                        <set attributeName="fill" to="#808080" begin="arrowRight.mouseover" end="arrowRight.mouseout"/>
                  </use>
                  <path fill="none" stroke="white" stroke-width="1.5" d="M0,-3.0v7 M-2.5,-0.5L0,-3.0L2.5,-0.5"/>
                </g>
                <g id="arrowDown" xlink:href="#dirArrow" transform="rotate(180) translate(-30 -48)" onmousedown="handlePan(0,1)">
                  <use xlink:href="#rim" fill="#404040">
                        <set attributeName="fill" to="#808080" begin="arrowDown.mouseover" end="arrowDown.mouseout"/>
                  </use>
                  <path fill="none" stroke="white" stroke-width="1.5" d="M0,-3.0v7 M-2.5,-0.5L0,-3.0L2.5,-0.5"/>
                </g>
                <g id="arrowLeft" xlink:href="#dirArrow" transform="rotate(270) translate(-36 17)" onmousedown="handlePan(-1,0)">
                  <use xlink:href="#rim" fill="#404040">
                        <set attributeName="fill" to="#808080" begin="arrowLeft.mouseover" end="arrowLeft.mouseout"/>
                  </use>
                  <path fill="none" stroke="white" stroke-width="1.5" d="M0,-3.0v7 M-2.5,-0.5L0,-3.0L2.5,-0.5"/>
                </g>
        </g>
        <svg viewBox="0 0 15 15" width="100%" height="30px" preserveAspectRatio="xMaxYMin meet">
         <g id="arrow_out" transform="scale(0.3 0.3)">
          <a xlink:href="result__core_8hpp__dep__incl_org.svg" target="_base">
           <rect id="button" ry="5" rx="5" y="6" x="6" height="38" width="38"
                fill="#f2f5e9" fill-opacity="0.5" stroke="#606060" stroke-width="1.0"/>
           <path id="arrow"
             d="M 11.500037,31.436501 C 11.940474,20.09759 22.043105,11.32322 32.158766,21.979434 L 37.068811,17.246167 C 37.068811,17.246167 37.088388,32 37.088388,32 L 22.160133,31.978069 C 22.160133,31.978069 26.997745,27.140456 26.997745,27.140456 C 18.528582,18.264221 13.291696,25.230495 11.500037,31.436501 z"
             style="fill:#404040;"/>
          </a>
         </g>
        </svg>
</svg>
