<?xml version="1.0" encoding="UTF-8" standalone="no"?>
<!DOCTYPE svg PUBLIC "-//W3C//DTD SVG 1.1//EN"
 "http://www.w3.org/Graphics/SVG/1.1/DTD/svg11.dtd">
<!-- Generated by graphviz version 2.50.0 (20220203.2022)
 -->
<!-- Title: include/yaclib/util/result.hpp Pages: 1 -->
<svg width="2131pt" height="508pt"
 viewBox="0.00 0.00 2130.76 508.00" xmlns="http://www.w3.org/2000/svg" xmlns:xlink="http://www.w3.org/1999/xlink">
<g id="graph0" class="graph" transform="scale(1 1) rotate(0) translate(4 504)">
<title>include/yaclib/util/result.hpp</title>
<!-- Node1 -->
<g id="node1" class="node">
<title>Node1</title>
<g id="a_node1"><a xlink:title=" ">
<polygon fill="#bfbfbf" stroke="black" points="976.26,-469.5 976.26,-499.5 1067.26,-499.5 1067.26,-469.5 976.26,-469.5"/>
<text text-anchor="start" x="984.26" y="-487.5" font-family="Helvetica,sans-Serif" font-size="10.00">include/yaclib/util</text>
<text text-anchor="middle" x="1021.76" y="-476.5" font-family="Helvetica,sans-Serif" font-size="10.00">/result.hpp</text>
</a>
</g>
</g>
<!-- Node2 -->
<g id="node2" class="node">
<title>Node2</title>
<g id="a_node2"><a xlink:href="future__impl_8hpp.html" target="_top" xlink:title=" ">
<polygon fill="none" stroke="black" points="883.76,-268.5 883.76,-298.5 995.76,-298.5 995.76,-268.5 883.76,-268.5"/>
<text text-anchor="start" x="891.76" y="-286.5" font-family="Helvetica,sans-Serif" font-size="10.00">include/yaclib/async</text>
<text text-anchor="middle" x="939.76" y="-275.5" font-family="Helvetica,sans-Serif" font-size="10.00">/detail/future_impl.hpp</text>
</a>
</g>
</g>
<!-- Node1&#45;&gt;Node2 -->
<g id="edge1" class="edge">
<title>Node1&#45;&gt;Node2</title>
<path fill="none" stroke="midnightblue" d="M1012,-459.8C994.78,-418.01 959.53,-332.47 945.61,-298.68"/>
<polygon fill="midnightblue" stroke="midnightblue" points="1008.82,-461.28 1015.87,-469.19 1015.29,-458.61 1008.82,-461.28"/>
</g>
<!-- Node6 -->
<g id="node6" class="node">
<title>Node6</title>
<g id="a_node6"><a xlink:href="when__all_8cpp.html" target="_top" xlink:title=" ">
<polygon fill="none" stroke="black" points="1143.26,-0.5 1143.26,-30.5 1244.26,-30.5 1244.26,-0.5 1143.26,-0.5"/>
<text text-anchor="start" x="1151.26" y="-18.5" font-family="Helvetica,sans-Serif" font-size="10.00">test/example/async</text>
<text text-anchor="middle" x="1193.76" y="-7.5" font-family="Helvetica,sans-Serif" font-size="10.00">/when_all.cpp</text>
</a>
</g>
</g>
<!-- Node1&#45;&gt;Node6 -->
<g id="edge53" class="edge">
<title>Node1&#45;&gt;Node6</title>
<path fill="none" stroke="midnightblue" d="M966.13,-482.46C807.58,-479.12 355.62,-466.82 211.76,-433 121.12,-411.69 18.76,-444.61 18.76,-351.5 18.76,-351.5 18.76,-351.5 18.76,-148.5 18.76,-126.79 -69.64,-134.57 142.76,-67 238.51,-36.54 945.88,-21.14 1142.94,-17.41"/>
<polygon fill="midnightblue" stroke="midnightblue" points="966.07,-485.96 976.14,-482.67 966.22,-478.96 966.07,-485.96"/>
</g>
<!-- Node9 -->
<g id="node9" class="node">
<title>Node9</title>
<g id="a_node9"><a xlink:href="when__any_8cpp.html" target="_top" xlink:title=" ">
<polygon fill="none" stroke="black" points="1600.26,-0.5 1600.26,-30.5 1701.26,-30.5 1701.26,-0.5 1600.26,-0.5"/>
<text text-anchor="start" x="1608.26" y="-18.5" font-family="Helvetica,sans-Serif" font-size="10.00">test/example/async</text>
<text text-anchor="middle" x="1650.76" y="-7.5" font-family="Helvetica,sans-Serif" font-size="10.00">/when_any.cpp</text>
</a>
</g>
</g>
<!-- Node1&#45;&gt;Node9 -->
<g id="edge54" class="edge">
<title>Node1&#45;&gt;Node9</title>
<path fill="none" stroke="midnightblue" d="M1077.46,-482.94C1249.82,-480.81 1772.8,-471.29 1937.76,-433 2025.28,-412.69 2122.76,-441.35 2122.76,-351.5 2122.76,-351.5 2122.76,-351.5 2122.76,-148.5 2122.76,-61.71 1823.04,-29.42 1701.27,-19.88"/>
<polygon fill="midnightblue" stroke="midnightblue" points="1077.3,-479.44 1067.34,-483.06 1077.38,-486.44 1077.3,-479.44"/>
</g>
<!-- Node17 -->
<g id="node17" class="node">
<title>Node17</title>
<g id="a_node17"><a xlink:href="simple_8cpp.html" target="_top" xlink:title=" ">
<polygon fill="none" stroke="black" points="1760.26,-67.5 1760.26,-97.5 1861.26,-97.5 1861.26,-67.5 1760.26,-67.5"/>
<text text-anchor="start" x="1768.26" y="-85.5" font-family="Helvetica,sans-Serif" font-size="10.00">test/example/async</text>
<text text-anchor="middle" x="1810.76" y="-74.5" font-family="Helvetica,sans-Serif" font-size="10.00">/simple.cpp</text>
</a>
</g>
</g>
<!-- Node1&#45;&gt;Node17 -->
<g id="edge52" class="edge">
<title>Node1&#45;&gt;Node17</title>
<path fill="none" stroke="midnightblue" d="M1077.74,-482.5C1296.92,-477.84 2084.76,-453.96 2084.76,-351.5 2084.76,-351.5 2084.76,-351.5 2084.76,-215.5 2084.76,-178.31 2092.5,-159.86 2065.76,-134 2037.21,-106.39 1927.39,-92.88 1861.54,-87.12"/>
<polygon fill="midnightblue" stroke="midnightblue" points="1077.36,-479 1067.44,-482.71 1077.51,-486 1077.36,-479"/>
</g>
<!-- Node20 -->
<g id="node20" class="node">
<title>Node20</title>
<g id="a_node20"><a xlink:href="coroutine__deleter_8hpp.html" target="_top" xlink:title=" ">
<polygon fill="none" stroke="black" points="46.76,-134.5 46.76,-164.5 184.76,-164.5 184.76,-134.5 46.76,-134.5"/>
<text text-anchor="start" x="54.76" y="-152.5" font-family="Helvetica,sans-Serif" font-size="10.00">include/yaclib/coroutine</text>
<text text-anchor="middle" x="115.76" y="-141.5" font-family="Helvetica,sans-Serif" font-size="10.00">/detail/coroutine_deleter.hpp</text>
</a>
</g>
</g>
<!-- Node1&#45;&gt;Node20 -->
<g id="edge51" class="edge">
<title>Node1&#45;&gt;Node20</title>
<path fill="none" stroke="midnightblue" d="M966.11,-481.24C769.85,-472.53 121.76,-437.27 121.76,-351.5 121.76,-351.5 121.76,-351.5 121.76,-282.5 121.76,-239.6 118.56,-188.94 116.84,-164.75"/>
<polygon fill="midnightblue" stroke="midnightblue" points="966.06,-484.74 976.2,-481.68 966.37,-477.74 966.06,-484.74"/>
</g>
<!-- Node25 -->
<g id="node25" class="node">
<title>Node25</title>
<g id="a_node25"><a xlink:href="result__core_8hpp.html" target="_top" xlink:title=" ">
<polygon fill="none" stroke="black" points="1047.76,-402.5 1047.76,-432.5 1159.76,-432.5 1159.76,-402.5 1047.76,-402.5"/>
<text text-anchor="start" x="1055.76" y="-420.5" font-family="Helvetica,sans-Serif" font-size="10.00">include/yaclib/async</text>
<text text-anchor="middle" x="1103.76" y="-409.5" font-family="Helvetica,sans-Serif" font-size="10.00">/detail/result_core.hpp</text>
</a>
</g>
</g>
<!-- Node1&#45;&gt;Node25 -->
<g id="edge37" class="edge">
<title>Node1&#45;&gt;Node25</title>
<path fill="none" stroke="midnightblue" d="M1047.41,-463.17C1059.95,-453.23 1074.73,-441.51 1086,-432.58"/>
<polygon fill="midnightblue" stroke="midnightblue" points="1045.22,-460.44 1039.56,-469.4 1049.57,-465.93 1045.22,-460.44"/>
</g>
<!-- Node3 -->
<g id="node3" class="node">
<title>Node3</title>
<g id="a_node3"><a xlink:href="future_8hpp.html" target="_top" xlink:title=" ">
<polygon fill="none" stroke="black" points="915.76,-201.5 915.76,-231.5 1019.76,-231.5 1019.76,-201.5 915.76,-201.5"/>
<text text-anchor="start" x="923.76" y="-219.5" font-family="Helvetica,sans-Serif" font-size="10.00">include/yaclib/async</text>
<text text-anchor="middle" x="967.76" y="-208.5" font-family="Helvetica,sans-Serif" font-size="10.00">/future.hpp</text>
</a>
</g>
</g>
<!-- Node2&#45;&gt;Node3 -->
<g id="edge2" class="edge">
<title>Node2&#45;&gt;Node3</title>
<path fill="none" stroke="midnightblue" d="M949.89,-258.99C953.85,-249.8 958.25,-239.58 961.7,-231.58"/>
<polygon fill="midnightblue" stroke="midnightblue" points="946.58,-257.83 945.84,-268.4 953.01,-260.6 946.58,-257.83"/>
</g>
<!-- Node4 -->
<g id="node4" class="node">
<title>Node4</title>
<g id="a_node4"><a xlink:href="when__all__impl_8hpp.html" target="_top" xlink:title=" ">
<polygon fill="none" stroke="black" points="1267.26,-134.5 1267.26,-164.5 1392.26,-164.5 1392.26,-134.5 1267.26,-134.5"/>
<text text-anchor="start" x="1275.26" y="-152.5" font-family="Helvetica,sans-Serif" font-size="10.00">include/yaclib/algo</text>
<text text-anchor="middle" x="1329.76" y="-141.5" font-family="Helvetica,sans-Serif" font-size="10.00">/detail/when_all_impl.hpp</text>
</a>
</g>
</g>
<!-- Node3&#45;&gt;Node4 -->
<g id="edge3" class="edge">
<title>Node3&#45;&gt;Node4</title>
<path fill="none" stroke="midnightblue" d="M1029.83,-205.18C1088.61,-195.29 1179.3,-179.73 1257.76,-165 1260.77,-164.44 1263.85,-163.85 1266.95,-163.25"/>
<polygon fill="midnightblue" stroke="midnightblue" points="1029.24,-201.73 1019.96,-206.84 1030.4,-208.63 1029.24,-201.73"/>
</g>
<!-- Node5 -->
<g id="node5" class="node">
<title>Node5</title>
<g id="a_node5"><a xlink:href="when__all_8hpp.html" target="_top" xlink:title=" ">
<polygon fill="none" stroke="black" points="1145.76,-67.5 1145.76,-97.5 1241.76,-97.5 1241.76,-67.5 1145.76,-67.5"/>
<text text-anchor="start" x="1153.76" y="-85.5" font-family="Helvetica,sans-Serif" font-size="10.00">include/yaclib/algo</text>
<text text-anchor="middle" x="1193.76" y="-74.5" font-family="Helvetica,sans-Serif" font-size="10.00">/when_all.hpp</text>
</a>
</g>
</g>
<!-- Node3&#45;&gt;Node5 -->
<g id="edge18" class="edge">
<title>Node3&#45;&gt;Node5</title>
<path fill="none" stroke="midnightblue" d="M975.96,-192.03C983.55,-173.66 996.57,-148.82 1015.76,-134 1053.39,-104.95 1107.01,-92.61 1145.54,-87.37"/>
<polygon fill="midnightblue" stroke="midnightblue" points="972.66,-190.87 972.31,-201.46 979.19,-193.4 972.66,-190.87"/>
</g>
<!-- Node7 -->
<g id="node7" class="node">
<title>Node7</title>
<g id="a_node7"><a xlink:href="when__any__impl_8hpp.html" target="_top" xlink:title=" ">
<polygon fill="none" stroke="black" points="1449.26,-134.5 1449.26,-164.5 1580.26,-164.5 1580.26,-134.5 1449.26,-134.5"/>
<text text-anchor="start" x="1457.26" y="-152.5" font-family="Helvetica,sans-Serif" font-size="10.00">include/yaclib/algo</text>
<text text-anchor="middle" x="1514.76" y="-141.5" font-family="Helvetica,sans-Serif" font-size="10.00">/detail/when_any_impl.hpp</text>
</a>
</g>
</g>
<!-- Node3&#45;&gt;Node7 -->
<g id="edge6" class="edge">
<title>Node3&#45;&gt;Node7</title>
<path fill="none" stroke="midnightblue" d="M1030.1,-210.19C1119.81,-202.22 1290.41,-185.86 1434.76,-165 1439.37,-164.33 1444.12,-163.6 1448.9,-162.82"/>
<polygon fill="midnightblue" stroke="midnightblue" points="1029.75,-206.71 1020.09,-211.07 1030.36,-213.68 1029.75,-206.71"/>
</g>
<!-- Node8 -->
<g id="node8" class="node">
<title>Node8</title>
<g id="a_node8"><a xlink:href="when__any_8hpp.html" target="_top" xlink:title=" ">
<polygon fill="none" stroke="black" points="1401.76,-67.5 1401.76,-97.5 1497.76,-97.5 1497.76,-67.5 1401.76,-67.5"/>
<text text-anchor="start" x="1409.76" y="-85.5" font-family="Helvetica,sans-Serif" font-size="10.00">include/yaclib/algo</text>
<text text-anchor="middle" x="1449.76" y="-74.5" font-family="Helvetica,sans-Serif" font-size="10.00">/when_any.hpp</text>
</a>
</g>
</g>
<!-- Node3&#45;&gt;Node8 -->
<g id="edge19" class="edge">
<title>Node3&#45;&gt;Node8</title>
<path fill="none" stroke="midnightblue" d="M1029.92,-214.95C1134.92,-212.95 1341.86,-204.01 1401.76,-165 1425.98,-149.23 1439.59,-116.62 1445.72,-97.78"/>
<polygon fill="midnightblue" stroke="midnightblue" points="1029.71,-211.46 1019.78,-215.13 1029.84,-218.46 1029.71,-211.46"/>
</g>
<!-- Node10 -->
<g id="node10" class="node">
<title>Node10</title>
<g id="a_node10"><a xlink:href="when__impl_8hpp.html" target="_top" xlink:title=" ">
<polygon fill="none" stroke="black" points="1138.76,-134.5 1138.76,-164.5 1248.76,-164.5 1248.76,-134.5 1138.76,-134.5"/>
<text text-anchor="start" x="1146.76" y="-152.5" font-family="Helvetica,sans-Serif" font-size="10.00">include/yaclib/algo</text>
<text text-anchor="middle" x="1193.76" y="-141.5" font-family="Helvetica,sans-Serif" font-size="10.00">/detail/when_impl.hpp</text>
</a>
</g>
</g>
<!-- Node3&#45;&gt;Node10 -->
<g id="edge9" class="edge">
<title>Node3&#45;&gt;Node10</title>
<path fill="none" stroke="midnightblue" d="M1026.59,-198.58C1063.3,-188.02 1110,-174.59 1144.7,-164.61"/>
<polygon fill="midnightblue" stroke="midnightblue" points="1025.17,-195.35 1016.52,-201.48 1027.1,-202.08 1025.17,-195.35"/>
</g>
<!-- Node11 -->
<g id="node11" class="node">
<title>Node11</title>
<g id="a_node11"><a xlink:href="wait_8hpp.html" target="_top" xlink:title=" ">
<polygon fill="none" stroke="black" points="240.76,-134.5 240.76,-164.5 336.76,-164.5 336.76,-134.5 240.76,-134.5"/>
<text text-anchor="start" x="248.76" y="-152.5" font-family="Helvetica,sans-Serif" font-size="10.00">include/yaclib/algo</text>
<text text-anchor="middle" x="288.76" y="-141.5" font-family="Helvetica,sans-Serif" font-size="10.00">/wait.hpp</text>
</a>
</g>
</g>
<!-- Node3&#45;&gt;Node11 -->
<g id="edge12" class="edge">
<title>Node3&#45;&gt;Node11</title>
<path fill="none" stroke="midnightblue" d="M905.37,-213.45C793.59,-209.09 552.05,-196.6 350.76,-165 346.28,-164.3 341.65,-163.45 337.03,-162.52"/>
<polygon fill="midnightblue" stroke="midnightblue" points="905.32,-216.95 915.45,-213.83 905.59,-209.95 905.32,-216.95"/>
</g>
<!-- Node12 -->
<g id="node12" class="node">
<title>Node12</title>
<g id="a_node12"><a xlink:href="wait__for_8hpp.html" target="_top" xlink:title=" ">
<polygon fill="none" stroke="black" points="872.76,-134.5 872.76,-164.5 968.76,-164.5 968.76,-134.5 872.76,-134.5"/>
<text text-anchor="start" x="880.76" y="-152.5" font-family="Helvetica,sans-Serif" font-size="10.00">include/yaclib/algo</text>
<text text-anchor="middle" x="920.76" y="-141.5" font-family="Helvetica,sans-Serif" font-size="10.00">/wait_for.hpp</text>
</a>
</g>
</g>
<!-- Node3&#45;&gt;Node12 -->
<g id="edge14" class="edge">
<title>Node3&#45;&gt;Node12</title>
<path fill="none" stroke="midnightblue" d="M951.61,-193.16C944.75,-183.68 936.97,-172.92 930.94,-164.58"/>
<polygon fill="midnightblue" stroke="midnightblue" points="948.87,-195.34 957.56,-201.4 954.54,-191.24 948.87,-195.34"/>
</g>
<!-- Node13 -->
<g id="node13" class="node">
<title>Node13</title>
<g id="a_node13"><a xlink:href="wait__group_8hpp.html" target="_top" xlink:title=" ">
<polygon fill="none" stroke="black" points="612.76,-134.5 612.76,-164.5 708.76,-164.5 708.76,-134.5 612.76,-134.5"/>
<text text-anchor="start" x="620.76" y="-152.5" font-family="Helvetica,sans-Serif" font-size="10.00">include/yaclib/algo</text>
<text text-anchor="middle" x="660.76" y="-141.5" font-family="Helvetica,sans-Serif" font-size="10.00">/wait_group.hpp</text>
</a>
</g>
</g>
<!-- Node3&#45;&gt;Node13 -->
<g id="edge15" class="edge">
<title>Node3&#45;&gt;Node13</title>
<path fill="none" stroke="midnightblue" d="M905.58,-203.83C854.89,-194.1 781.51,-179.54 717.76,-165 714.88,-164.34 711.91,-163.65 708.92,-162.93"/>
<polygon fill="midnightblue" stroke="midnightblue" points="904.93,-207.27 915.41,-205.71 906.24,-200.39 904.93,-207.27"/>
</g>
<!-- Node15 -->
<g id="node15" class="node">
<title>Node15</title>
<g id="a_node15"><a xlink:href="wait__until_8hpp.html" target="_top" xlink:title=" ">
<polygon fill="none" stroke="black" points="1024.76,-134.5 1024.76,-164.5 1120.76,-164.5 1120.76,-134.5 1024.76,-134.5"/>
<text text-anchor="start" x="1032.76" y="-152.5" font-family="Helvetica,sans-Serif" font-size="10.00">include/yaclib/algo</text>
<text text-anchor="middle" x="1072.76" y="-141.5" font-family="Helvetica,sans-Serif" font-size="10.00">/wait_until.hpp</text>
</a>
</g>
</g>
<!-- Node3&#45;&gt;Node15 -->
<g id="edge17" class="edge">
<title>Node3&#45;&gt;Node15</title>
<path fill="none" stroke="midnightblue" d="M999.24,-196.02C1015.58,-185.9 1035.17,-173.77 1050.02,-164.58"/>
<polygon fill="midnightblue" stroke="midnightblue" points="997.21,-193.16 990.55,-201.4 1000.89,-199.11 997.21,-193.16"/>
</g>
<!-- Node16 -->
<g id="node16" class="node">
<title>Node16</title>
<g id="a_node16"><a xlink:href="contract_8hpp.html" target="_top" xlink:title=" ">
<polygon fill="none" stroke="black" points="1758.76,-134.5 1758.76,-164.5 1862.76,-164.5 1862.76,-134.5 1758.76,-134.5"/>
<text text-anchor="start" x="1766.76" y="-152.5" font-family="Helvetica,sans-Serif" font-size="10.00">include/yaclib/async</text>
<text text-anchor="middle" x="1810.76" y="-141.5" font-family="Helvetica,sans-Serif" font-size="10.00">/contract.hpp</text>
</a>
</g>
</g>
<!-- Node3&#45;&gt;Node16 -->
<g id="edge20" class="edge">
<title>Node3&#45;&gt;Node16</title>
<path fill="none" stroke="midnightblue" d="M1030.21,-214.64C1162.58,-212.12 1480.87,-202.34 1744.76,-165 1749.29,-164.36 1753.97,-163.58 1758.66,-162.71"/>
<polygon fill="midnightblue" stroke="midnightblue" points="1029.81,-211.15 1019.87,-214.83 1029.93,-218.15 1029.81,-211.15"/>
</g>
<!-- Node3&#45;&gt;Node17 -->
<g id="edge36" class="edge">
<title>Node3&#45;&gt;Node17</title>
<path fill="none" stroke="midnightblue" d="M1030.37,-216.12C1186.34,-216.9 1588.57,-213.96 1711.76,-165 1712.98,-164.52 1765.8,-120.79 1793.78,-97.59"/>
<polygon fill="midnightblue" stroke="midnightblue" points="1030.03,-212.62 1020.01,-216.06 1029.99,-219.62 1030.03,-212.62"/>
</g>
<!-- Node18 -->
<g id="node18" class="node">
<title>Node18</title>
<g id="a_node18"><a xlink:href="run_8hpp.html" target="_top" xlink:title=" ">
<polygon fill="none" stroke="black" points="1598.76,-134.5 1598.76,-164.5 1702.76,-164.5 1702.76,-134.5 1598.76,-134.5"/>
<text text-anchor="start" x="1606.76" y="-152.5" font-family="Helvetica,sans-Serif" font-size="10.00">include/yaclib/async</text>
<text text-anchor="middle" x="1650.76" y="-141.5" font-family="Helvetica,sans-Serif" font-size="10.00">/run.hpp</text>
</a>
</g>
</g>
<!-- Node3&#45;&gt;Node18 -->
<g id="edge22" class="edge">
<title>Node3&#45;&gt;Node18</title>
<path fill="none" stroke="midnightblue" d="M1030.25,-213.58C1142.76,-209.41 1386.64,-197.2 1589.76,-165 1592.67,-164.54 1595.63,-164.02 1598.62,-163.45"/>
<polygon fill="midnightblue" stroke="midnightblue" points="1029.96,-210.08 1020.1,-213.94 1030.22,-217.08 1029.96,-210.08"/>
</g>
<!-- Node19 -->
<g id="node19" class="node">
<title>Node19</title>
<g id="a_node19"><a xlink:href="await_8hpp.html" target="_top" xlink:title=" ">
<polygon fill="none" stroke="black" points="449.76,-67.5 449.76,-97.5 567.76,-97.5 567.76,-67.5 449.76,-67.5"/>
<text text-anchor="start" x="457.76" y="-85.5" font-family="Helvetica,sans-Serif" font-size="10.00">include/yaclib/coroutine</text>
<text text-anchor="middle" x="508.76" y="-74.5" font-family="Helvetica,sans-Serif" font-size="10.00">/await.hpp</text>
</a>
</g>
</g>
<!-- Node3&#45;&gt;Node19 -->
<g id="edge26" class="edge">
<title>Node3&#45;&gt;Node19</title>
<path fill="none" stroke="midnightblue" d="M905.57,-211.12C816.18,-204.11 656.34,-188.7 603.76,-165 599.13,-162.91 550.58,-120.39 524.74,-97.62"/>
<polygon fill="midnightblue" stroke="midnightblue" points="905.34,-214.61 915.58,-211.89 905.88,-207.63 905.34,-214.61"/>
</g>
<!-- Node3&#45;&gt;Node20 -->
<g id="edge27" class="edge">
<title>Node3&#45;&gt;Node20</title>
<path fill="none" stroke="midnightblue" d="M905.17,-212.39C778.06,-205.81 480.69,-189.08 231.76,-165 216.61,-163.53 200.38,-161.68 185.01,-159.8"/>
<polygon fill="midnightblue" stroke="midnightblue" points="905.31,-215.9 915.48,-212.92 905.67,-208.91 905.31,-215.9"/>
</g>
<!-- Node21 -->
<g id="node21" class="node">
<title>Node21</title>
<g id="a_node21"><a xlink:href="promise__type_8hpp.html" target="_top" xlink:title=" ">
<polygon fill="none" stroke="black" points="151.76,-67.5 151.76,-97.5 273.76,-97.5 273.76,-67.5 151.76,-67.5"/>
<text text-anchor="start" x="159.76" y="-85.5" font-family="Helvetica,sans-Serif" font-size="10.00">include/yaclib/coroutine</text>
<text text-anchor="middle" x="212.76" y="-74.5" font-family="Helvetica,sans-Serif" font-size="10.00">/detail/promise_type.hpp</text>
</a>
</g>
</g>
<!-- Node3&#45;&gt;Node21 -->
<g id="edge33" class="edge">
<title>Node3&#45;&gt;Node21</title>
<path fill="none" stroke="midnightblue" d="M905.32,-214.23C775.78,-210.91 482.12,-199.69 388.76,-165 366.68,-156.79 366.51,-145.17 345.76,-134 317.92,-119.02 284.67,-106.39 258.38,-97.51"/>
<polygon fill="midnightblue" stroke="midnightblue" points="905.39,-217.73 915.47,-214.48 905.56,-210.73 905.39,-217.73"/>
</g>
<!-- Node22 -->
<g id="node22" class="node">
<title>Node22</title>
<g id="a_node22"><a xlink:href="future__coro__traits_8hpp.html" target="_top" xlink:title=" ">
<polygon fill="none" stroke="black" points="153.76,-0.5 153.76,-30.5 271.76,-30.5 271.76,-0.5 153.76,-0.5"/>
<text text-anchor="start" x="161.76" y="-18.5" font-family="Helvetica,sans-Serif" font-size="10.00">include/yaclib/coroutine</text>
<text text-anchor="middle" x="212.76" y="-7.5" font-family="Helvetica,sans-Serif" font-size="10.00">/future_coro_traits.hpp</text>
</a>
</g>
</g>
<!-- Node3&#45;&gt;Node22 -->
<g id="edge34" class="edge">
<title>Node3&#45;&gt;Node22</title>
<path fill="none" stroke="midnightblue" d="M905.67,-214.11C781.79,-210.62 508.43,-199.19 421.76,-165 400.84,-156.75 399.89,-147.31 381.76,-134 329.34,-95.5 266.04,-52.36 233.82,-30.63"/>
<polygon fill="midnightblue" stroke="midnightblue" points="905.66,-217.61 915.75,-214.38 905.85,-210.61 905.66,-217.61"/>
</g>
<!-- Node23 -->
<g id="node23" class="node">
<title>Node23</title>
<g id="a_node23"><a xlink:href="future__awaiter_8hpp.html" target="_top" xlink:title=" ">
<polygon fill="none" stroke="black" points="431.26,-134.5 431.26,-164.5 556.26,-164.5 556.26,-134.5 431.26,-134.5"/>
<text text-anchor="start" x="439.26" y="-152.5" font-family="Helvetica,sans-Serif" font-size="10.00">include/yaclib/coroutine</text>
<text text-anchor="middle" x="493.76" y="-141.5" font-family="Helvetica,sans-Serif" font-size="10.00">/detail/future_awaiter.hpp</text>
</a>
</g>
</g>
<!-- Node3&#45;&gt;Node23 -->
<g id="edge31" class="edge">
<title>Node3&#45;&gt;Node23</title>
<path fill="none" stroke="midnightblue" d="M905.42,-208.73C827.1,-199.97 688.66,-183.58 570.76,-165 566.06,-164.26 561.2,-163.45 556.32,-162.6"/>
<polygon fill="midnightblue" stroke="midnightblue" points="905.27,-212.24 915.6,-209.87 906.05,-205.28 905.27,-212.24"/>
</g>
<!-- Node24 -->
<g id="node24" class="node">
<title>Node24</title>
<g id="a_node24"><a xlink:href="future__impl_8cpp.html" target="_top" xlink:title=" ">
<polygon fill="none" stroke="black" points="726.76,-140 726.76,-159 854.76,-159 854.76,-140 726.76,-140"/>
<text text-anchor="middle" x="790.76" y="-147" font-family="Helvetica,sans-Serif" font-size="10.00">src/async/future_impl.cpp</text>
</a>
</g>
</g>
<!-- Node3&#45;&gt;Node24 -->
<g id="edge35" class="edge">
<title>Node3&#45;&gt;Node24</title>
<path fill="none" stroke="midnightblue" d="M919.96,-197.95C885.58,-185.32 840.73,-168.85 813.93,-159.01"/>
<polygon fill="midnightblue" stroke="midnightblue" points="918.76,-201.23 929.36,-201.4 921.18,-194.66 918.76,-201.23"/>
</g>
<!-- Node4&#45;&gt;Node5 -->
<g id="edge4" class="edge">
<title>Node4&#45;&gt;Node5</title>
<path fill="none" stroke="midnightblue" d="M1291.04,-129.99C1269.48,-119.69 1243.07,-107.07 1223.21,-97.58"/>
<polygon fill="midnightblue" stroke="midnightblue" points="1289.72,-133.24 1300.25,-134.4 1292.74,-126.93 1289.72,-133.24"/>
</g>
<!-- Node5&#45;&gt;Node6 -->
<g id="edge5" class="edge">
<title>Node5&#45;&gt;Node6</title>
<path fill="none" stroke="midnightblue" d="M1193.76,-57.11C1193.76,-48.15 1193.76,-38.32 1193.76,-30.58"/>
<polygon fill="midnightblue" stroke="midnightblue" points="1190.26,-57.4 1193.76,-67.4 1197.26,-57.4 1190.26,-57.4"/>
</g>
<!-- Node7&#45;&gt;Node8 -->
<g id="edge7" class="edge">
<title>Node7&#45;&gt;Node8</title>
<path fill="none" stroke="midnightblue" d="M1493.57,-127.31C1483.82,-117.56 1472.52,-106.26 1463.84,-97.58"/>
<polygon fill="midnightblue" stroke="midnightblue" points="1491.11,-129.8 1500.66,-134.4 1496.06,-124.85 1491.11,-129.8"/>
</g>
<!-- Node8&#45;&gt;Node9 -->
<g id="edge8" class="edge">
<title>Node8&#45;&gt;Node9</title>
<path fill="none" stroke="midnightblue" d="M1503.17,-64.23C1535.69,-53.71 1576.7,-40.45 1607.23,-30.58"/>
<polygon fill="midnightblue" stroke="midnightblue" points="1501.81,-60.99 1493.38,-67.4 1503.97,-67.65 1501.81,-60.99"/>
</g>
<!-- Node10&#45;&gt;Node5 -->
<g id="edge10" class="edge">
<title>Node10&#45;&gt;Node5</title>
<path fill="none" stroke="midnightblue" d="M1193.76,-124.11C1193.76,-115.15 1193.76,-105.32 1193.76,-97.58"/>
<polygon fill="midnightblue" stroke="midnightblue" points="1190.26,-124.4 1193.76,-134.4 1197.26,-124.4 1190.26,-124.4"/>
</g>
<!-- Node10&#45;&gt;Node8 -->
<g id="edge11" class="edge">
<title>Node10&#45;&gt;Node8</title>
<path fill="none" stroke="midnightblue" d="M1258.83,-131.98C1303.27,-120.69 1361.19,-105.99 1401.53,-95.75"/>
<polygon fill="midnightblue" stroke="midnightblue" points="1257.83,-128.62 1249,-134.48 1259.55,-135.41 1257.83,-128.62"/>
</g>
<!-- Node11&#45;&gt;Node2 -->
<g id="edge13" class="edge">
<title>Node11&#45;&gt;Node2</title>
<path fill="none" stroke="midnightblue" d="M346.9,-164.16C348.2,-164.44 349.49,-164.72 350.76,-165 545.92,-207.27 778.69,-252.05 883.6,-271.93"/>
<polygon fill="midnightblue" stroke="midnightblue" points="347.31,-160.66 336.79,-161.9 345.79,-167.49 347.31,-160.66"/>
</g>
<!-- Node14 -->
<g id="node14" class="node">
<title>Node14</title>
<g id="a_node14"><a xlink:href="wait__group_8cpp.html" target="_top" xlink:title=" ">
<polygon fill="none" stroke="black" points="601.26,-73 601.26,-92 720.26,-92 720.26,-73 601.26,-73"/>
<text text-anchor="middle" x="660.76" y="-80" font-family="Helvetica,sans-Serif" font-size="10.00">src/algo/wait_group.cpp</text>
</a>
</g>
</g>
<!-- Node13&#45;&gt;Node14 -->
<g id="edge16" class="edge">
<title>Node13&#45;&gt;Node14</title>
<path fill="none" stroke="midnightblue" d="M660.76,-124.25C660.76,-113.02 660.76,-100.38 660.76,-92.19"/>
<polygon fill="midnightblue" stroke="midnightblue" points="657.26,-124.4 660.76,-134.4 664.26,-124.4 657.26,-124.4"/>
</g>
<!-- Node16&#45;&gt;Node17 -->
<g id="edge21" class="edge">
<title>Node16&#45;&gt;Node17</title>
<path fill="none" stroke="midnightblue" d="M1810.76,-124.11C1810.76,-115.15 1810.76,-105.32 1810.76,-97.58"/>
<polygon fill="midnightblue" stroke="midnightblue" points="1807.26,-124.4 1810.76,-134.4 1814.26,-124.4 1807.26,-124.4"/>
</g>
<!-- Node18&#45;&gt;Node6 -->
<g id="edge24" class="edge">
<title>Node18&#45;&gt;Node6</title>
<path fill="none" stroke="midnightblue" d="M1622.39,-128.39C1594.35,-109.52 1549.57,-82.02 1506.76,-67 1417.69,-35.74 1307.49,-23.7 1244.44,-19.16"/>
<polygon fill="midnightblue" stroke="midnightblue" points="1620.65,-131.44 1630.88,-134.19 1624.6,-125.66 1620.65,-131.44"/>
</g>
<!-- Node18&#45;&gt;Node9 -->
<g id="edge25" class="edge">
<title>Node18&#45;&gt;Node9</title>
<path fill="none" stroke="midnightblue" d="M1650.76,-124.02C1650.76,-96.51 1650.76,-52.79 1650.76,-30.52"/>
<polygon fill="midnightblue" stroke="midnightblue" points="1647.26,-124.37 1650.76,-134.37 1654.26,-124.37 1647.26,-124.37"/>
</g>
<!-- Node18&#45;&gt;Node17 -->
<g id="edge23" class="edge">
<title>Node18&#45;&gt;Node17</title>
<path fill="none" stroke="midnightblue" d="M1694.96,-130.54C1720.56,-120.14 1752.33,-107.24 1776.11,-97.58"/>
<polygon fill="midnightblue" stroke="midnightblue" points="1693.43,-127.39 1685.48,-134.4 1696.06,-133.87 1693.43,-127.39"/>
</g>
<!-- Node20&#45;&gt;Node21 -->
<g id="edge28" class="edge">
<title>Node20&#45;&gt;Node21</title>
<path fill="none" stroke="midnightblue" d="M145.26,-128.73C160.27,-118.68 178.16,-106.68 191.76,-97.58"/>
<polygon fill="midnightblue" stroke="midnightblue" points="143.17,-125.92 136.81,-134.4 147.07,-131.74 143.17,-125.92"/>
</g>
<!-- Node20&#45;&gt;Node22 -->
<g id="edge30" class="edge">
<title>Node20&#45;&gt;Node22</title>
<path fill="none" stroke="midnightblue" d="M119.64,-124.42C123.34,-107.15 130.28,-84.02 142.76,-67 153.93,-51.78 171.06,-39.3 185.58,-30.56"/>
<polygon fill="midnightblue" stroke="midnightblue" points="116.19,-123.83 117.73,-134.31 123.06,-125.15 116.19,-123.83"/>
</g>
<!-- Node21&#45;&gt;Node22 -->
<g id="edge29" class="edge">
<title>Node21&#45;&gt;Node22</title>
<path fill="none" stroke="midnightblue" d="M212.76,-57.11C212.76,-48.15 212.76,-38.32 212.76,-30.58"/>
<polygon fill="midnightblue" stroke="midnightblue" points="209.26,-57.4 212.76,-67.4 216.26,-57.4 209.26,-57.4"/>
</g>
<!-- Node23&#45;&gt;Node19 -->
<g id="edge32" class="edge">
<title>Node23&#45;&gt;Node19</title>
<path fill="none" stroke="midnightblue" d="M499.32,-124.4C501.41,-115.37 503.71,-105.41 505.51,-97.58"/>
<polygon fill="midnightblue" stroke="midnightblue" points="495.86,-123.87 497.02,-134.4 502.68,-125.44 495.86,-123.87"/>
</g>
<!-- Node25&#45;&gt;Node3 -->
<g id="edge43" class="edge">
<title>Node25&#45;&gt;Node3</title>
<path fill="none" stroke="midnightblue" d="M1073.5,-396.4C1062.67,-388.03 1051.09,-377.55 1042.76,-366 1015.44,-328.1 1027.2,-308.97 1004.76,-268 997.66,-255.04 987.66,-241.59 979.85,-231.84"/>
<polygon fill="midnightblue" stroke="midnightblue" points="1071.45,-399.24 1081.57,-402.38 1075.62,-393.61 1071.45,-399.24"/>
</g>
<!-- Node25&#45;&gt;Node4 -->
<g id="edge38" class="edge">
<title>Node25&#45;&gt;Node4</title>
<path fill="none" stroke="midnightblue" d="M1169.97,-408.75C1223.37,-401.04 1292.5,-387.25 1310.76,-366 1361.42,-307.03 1342.58,-202.53 1333.51,-164.68"/>
<polygon fill="midnightblue" stroke="midnightblue" points="1169.27,-405.31 1159.85,-410.16 1170.24,-412.24 1169.27,-405.31"/>
</g>
<!-- Node25&#45;&gt;Node7 -->
<g id="edge39" class="edge">
<title>Node25&#45;&gt;Node7</title>
<path fill="none" stroke="midnightblue" d="M1170.04,-413.29C1218.42,-408.37 1283.96,-396.13 1333.76,-366 1420.92,-313.26 1486.17,-203.48 1507.38,-164.56"/>
<polygon fill="midnightblue" stroke="midnightblue" points="1169.62,-409.82 1159.99,-414.24 1170.28,-416.79 1169.62,-409.82"/>
</g>
<!-- Node25&#45;&gt;Node20 -->
<g id="edge48" class="edge">
<title>Node25&#45;&gt;Node20</title>
<path fill="none" stroke="midnightblue" d="M1037.23,-416.9C839.65,-417.53 265.94,-415.07 198.76,-366 135.38,-319.7 164.21,-274.16 135.76,-201 130.98,-188.7 125.44,-174.75 121.41,-164.63"/>
<polygon fill="midnightblue" stroke="midnightblue" points="1037.48,-420.4 1047.47,-416.87 1037.45,-413.4 1037.48,-420.4"/>
</g>
<!-- Node25&#45;&gt;Node21 -->
<g id="edge49" class="edge">
<title>Node25&#45;&gt;Node21</title>
<path fill="none" stroke="midnightblue" d="M1037.59,-413.66C831.17,-403.95 212.76,-367.88 212.76,-284.5 212.76,-284.5 212.76,-284.5 212.76,-215.5 212.76,-172.65 212.76,-121.97 212.76,-97.76"/>
<polygon fill="midnightblue" stroke="midnightblue" points="1037.54,-417.17 1047.69,-414.13 1037.86,-410.17 1037.54,-417.17"/>
</g>
<!-- Node26 -->
<g id="node26" class="node">
<title>Node26</title>
<g id="a_node26"><a xlink:href="core_8hpp.html" target="_top" xlink:title=" ">
<polygon fill="none" stroke="black" points="1051.76,-335.5 1051.76,-365.5 1155.76,-365.5 1155.76,-335.5 1051.76,-335.5"/>
<text text-anchor="start" x="1059.76" y="-353.5" font-family="Helvetica,sans-Serif" font-size="10.00">include/yaclib/async</text>
<text text-anchor="middle" x="1103.76" y="-342.5" font-family="Helvetica,sans-Serif" font-size="10.00">/detail/core.hpp</text>
</a>
</g>
</g>
<!-- Node25&#45;&gt;Node26 -->
<g id="edge40" class="edge">
<title>Node25&#45;&gt;Node26</title>
<path fill="none" stroke="midnightblue" d="M1103.76,-392.11C1103.76,-383.15 1103.76,-373.32 1103.76,-365.58"/>
<polygon fill="midnightblue" stroke="midnightblue" points="1100.26,-392.4 1103.76,-402.4 1107.26,-392.4 1100.26,-392.4"/>
</g>
<!-- Node27 -->
<g id="node27" class="node">
<title>Node27</title>
<g id="a_node27"><a xlink:href="promise_8hpp.html" target="_top" xlink:title=" ">
<polygon fill="none" stroke="black" points="1798.76,-201.5 1798.76,-231.5 1902.76,-231.5 1902.76,-201.5 1798.76,-201.5"/>
<text text-anchor="start" x="1806.76" y="-219.5" font-family="Helvetica,sans-Serif" font-size="10.00">include/yaclib/async</text>
<text text-anchor="middle" x="1850.76" y="-208.5" font-family="Helvetica,sans-Serif" font-size="10.00">/promise.hpp</text>
</a>
</g>
</g>
<!-- Node25&#45;&gt;Node27 -->
<g id="edge44" class="edge">
<title>Node25&#45;&gt;Node27</title>
<path fill="none" stroke="midnightblue" d="M1170.21,-410.59C1239.13,-403.54 1349.64,-389.63 1442.76,-366 1586.88,-329.43 1751.13,-261.06 1818.93,-231.6"/>
<polygon fill="midnightblue" stroke="midnightblue" points="1169.53,-407.14 1159.93,-411.62 1170.23,-414.11 1169.53,-407.14"/>
</g>
<!-- Node29 -->
<g id="node29" class="node">
<title>Node29</title>
<g id="a_node29"><a xlink:href="result__core_8cpp.html" target="_top" xlink:title=" ">
<polygon fill="none" stroke="black" points="1173.76,-341 1173.76,-360 1301.76,-360 1301.76,-341 1173.76,-341"/>
<text text-anchor="middle" x="1237.76" y="-348" font-family="Helvetica,sans-Serif" font-size="10.00">src/async/result_core.cpp</text>
</a>
</g>
</g>
<!-- Node25&#45;&gt;Node29 -->
<g id="edge50" class="edge">
<title>Node25&#45;&gt;Node29</title>
<path fill="none" stroke="midnightblue" d="M1141.97,-397.97C1167.71,-385.48 1200.45,-369.6 1220.22,-360.01"/>
<polygon fill="midnightblue" stroke="midnightblue" points="1140.31,-394.88 1132.84,-402.4 1143.36,-401.18 1140.31,-394.88"/>
</g>
<!-- Node26&#45;&gt;Node2 -->
<g id="edge41" class="edge">
<title>Node26&#45;&gt;Node2</title>
<path fill="none" stroke="midnightblue" d="M1058.8,-331.68C1032.5,-321.26 999.76,-308.28 975.28,-298.58"/>
<polygon fill="midnightblue" stroke="midnightblue" points="1057.59,-334.97 1068.18,-335.4 1060.17,-328.46 1057.59,-334.97"/>
</g>
<!-- Node26&#45;&gt;Node18 -->
<g id="edge42" class="edge">
<title>Node26&#45;&gt;Node18</title>
<path fill="none" stroke="midnightblue" d="M1152.26,-331.86C1259.43,-292.87 1514.64,-200.02 1612.06,-164.58"/>
<polygon fill="midnightblue" stroke="midnightblue" points="1150.86,-328.64 1142.66,-335.35 1153.26,-335.22 1150.86,-328.64"/>
</g>
<!-- Node27&#45;&gt;Node16 -->
<g id="edge45" class="edge">
<title>Node27&#45;&gt;Node16</title>
<path fill="none" stroke="midnightblue" d="M1836.83,-192.87C1831.05,-183.46 1824.51,-172.83 1819.42,-164.58"/>
<polygon fill="midnightblue" stroke="midnightblue" points="1833.86,-194.71 1842.08,-201.4 1839.82,-191.05 1833.86,-194.71"/>
</g>
<!-- Node27&#45;&gt;Node17 -->
<g id="edge47" class="edge">
<title>Node27&#45;&gt;Node17</title>
<path fill="none" stroke="midnightblue" d="M1864.93,-192.32C1873.24,-175.56 1880.55,-152.68 1871.76,-134 1864.51,-118.57 1849.97,-106.24 1836.9,-97.63"/>
<polygon fill="midnightblue" stroke="midnightblue" points="1861.7,-190.94 1860.03,-201.4 1867.86,-194.26 1861.7,-190.94"/>
</g>
<!-- Node28 -->
<g id="node28" class="node">
<title>Node28</title>
<g id="a_node28"><a xlink:href="promise__impl_8cpp.html" target="_top" xlink:title=" ">
<polygon fill="none" stroke="black" points="1919.26,-140 1919.26,-159 2056.26,-159 2056.26,-140 1919.26,-140"/>
<text text-anchor="middle" x="1987.76" y="-147" font-family="Helvetica,sans-Serif" font-size="10.00">src/async/promise_impl.cpp</text>
</a>
</g>
</g>
<!-- Node27&#45;&gt;Node28 -->
<g id="edge46" class="edge">
<title>Node27&#45;&gt;Node28</title>
<path fill="none" stroke="midnightblue" d="M1889.82,-196.97C1916.14,-184.48 1949.62,-168.6 1969.83,-159.01"/>
<polygon fill="midnightblue" stroke="midnightblue" points="1888.02,-193.95 1880.49,-201.4 1891.02,-200.27 1888.02,-193.95"/>
</g>
</g>
</svg>
