<?xml version="1.0" encoding="UTF-8" standalone="no"?>
<!DOCTYPE svg PUBLIC "-//W3C//DTD SVG 1.1//EN"
 "http://www.w3.org/Graphics/SVG/1.1/DTD/svg11.dtd">
<!-- Generated by graphviz version 2.50.0 (20220203.2022)
 -->
<!-- Title: include/yaclib/util/result.hpp Pages: 1 -->
<svg width="362pt" height="218pt"
 viewBox="0.00 0.00 362.00 218.00" xmlns="http://www.w3.org/2000/svg" xmlns:xlink="http://www.w3.org/1999/xlink">
<g id="graph0" class="graph" transform="scale(1 1) rotate(0) translate(4 214)">
<title>include/yaclib/util/result.hpp</title>
<!-- Node1 -->
<g id="node1" class="node">
<title>Node1</title>
<g id="a_node1"><a xlink:title=" ">
<polygon fill="#bfbfbf" stroke="black" points="186.5,-179.5 186.5,-209.5 277.5,-209.5 277.5,-179.5 186.5,-179.5"/>
<text text-anchor="start" x="194.5" y="-197.5" font-family="Helvetica,sans-Serif" font-size="10.00">include/yaclib/util</text>
<text text-anchor="middle" x="232" y="-186.5" font-family="Helvetica,sans-Serif" font-size="10.00">/result.hpp</text>
</a>
</g>
</g>
<!-- Node2 -->
<g id="node2" class="node">
<title>Node2</title>
<g id="a_node2"><a xlink:title=" ">
<polygon fill="none" stroke="#bfbfbf" points="0,-0.5 0,-19.5 88,-19.5 88,-0.5 0,-0.5"/>
<text text-anchor="middle" x="44" y="-7.5" font-family="Helvetica,sans-Serif" font-size="10.00">yaclib/config.hpp</text>
</a>
</g>
</g>
<!-- Node1&#45;&gt;Node2 -->
<g id="edge1" class="edge">
<title>Node1&#45;&gt;Node2</title>
<path fill="none" stroke="midnightblue" d="M186.11,-185.72C134.61,-174.22 53.73,-147.15 19,-87 8.2,-68.3 19.74,-44.28 30.47,-28.3"/>
<polygon fill="midnightblue" stroke="midnightblue" points="33.5,-30.08 36.52,-19.92 27.83,-25.98 33.5,-30.08"/>
</g>
<!-- Node3 -->
<g id="node3" class="node">
<title>Node3</title>
<g id="a_node3"><a xlink:href="type__traits_8hpp.html" target="_top" xlink:title=" ">
<polygon fill="none" stroke="black" points="125.5,-123.5 125.5,-142.5 248.5,-142.5 248.5,-123.5 125.5,-123.5"/>
<text text-anchor="middle" x="187" y="-130.5" font-family="Helvetica,sans-Serif" font-size="10.00">yaclib/util/type_traits.hpp</text>
</a>
</g>
</g>
<!-- Node1&#45;&gt;Node3 -->
<g id="edge2" class="edge">
<title>Node1&#45;&gt;Node3</title>
<path fill="none" stroke="midnightblue" d="M221.34,-179.4C214.86,-170.84 206.57,-159.87 199.75,-150.86"/>
<polygon fill="midnightblue" stroke="midnightblue" points="202.37,-148.52 193.55,-142.66 196.79,-152.74 202.37,-148.52"/>
</g>
<!-- Node7 -->
<g id="node7" class="node">
<title>Node7</title>
<g id="a_node7"><a xlink:title=" ">
<polygon fill="none" stroke="#bfbfbf" points="296,-62 296,-81 354,-81 354,-62 296,-62"/>
<text text-anchor="middle" x="325" y="-69" font-family="Helvetica,sans-Serif" font-size="10.00">exception</text>
</a>
</g>
</g>
<!-- Node1&#45;&gt;Node7 -->
<g id="edge11" class="edge">
<title>Node1&#45;&gt;Node7</title>
<path fill="none" stroke="midnightblue" d="M243.03,-179.14C260.36,-156.61 293.84,-113.04 312.2,-89.16"/>
<polygon fill="midnightblue" stroke="midnightblue" points="315.11,-91.11 318.43,-81.05 309.56,-86.85 315.11,-91.11"/>
</g>
<!-- Node8 -->
<g id="node8" class="node">
<title>Node8</title>
<g id="a_node8"><a xlink:title=" ">
<polygon fill="none" stroke="#bfbfbf" points="305,-123.5 305,-142.5 351,-142.5 351,-123.5 305,-123.5"/>
<text text-anchor="middle" x="328" y="-130.5" font-family="Helvetica,sans-Serif" font-size="10.00">variant</text>
</a>
</g>
</g>
<!-- Node1&#45;&gt;Node8 -->
<g id="edge12" class="edge">
<title>Node1&#45;&gt;Node8</title>
<path fill="none" stroke="midnightblue" d="M254.75,-179.4C269.99,-169.95 289.99,-157.56 305.24,-148.11"/>
<polygon fill="midnightblue" stroke="midnightblue" points="307.38,-150.9 314.03,-142.66 303.69,-144.95 307.38,-150.9"/>
</g>
<!-- Node3&#45;&gt;Node2 -->
<g id="edge3" class="edge">
<title>Node3&#45;&gt;Node2</title>
<path fill="none" stroke="midnightblue" d="M131.92,-123.5C91.51,-116 41.59,-103.67 29,-87 16.38,-70.29 24.66,-45.8 33.08,-29.17"/>
<polygon fill="midnightblue" stroke="midnightblue" points="36.39,-30.41 38.16,-19.97 30.27,-27.03 36.39,-30.41"/>
</g>
<!-- Node4 -->
<g id="node4" class="node">
<title>Node4</title>
<g id="a_node4"><a xlink:href="fwd_8hpp.html" target="_top" xlink:title=" ">
<polygon fill="none" stroke="black" points="38,-62 38,-81 116,-81 116,-62 38,-62"/>
<text text-anchor="middle" x="77" y="-69" font-family="Helvetica,sans-Serif" font-size="10.00">yaclib/fwd.hpp</text>
</a>
</g>
</g>
<!-- Node3&#45;&gt;Node4 -->
<g id="edge4" class="edge">
<title>Node3&#45;&gt;Node4</title>
<path fill="none" stroke="midnightblue" d="M171.24,-123.48C153.02,-113.62 122.83,-97.29 101.53,-85.77"/>
<polygon fill="midnightblue" stroke="midnightblue" points="103.19,-82.69 92.73,-81.01 99.86,-88.85 103.19,-82.69"/>
</g>
<!-- Node5 -->
<g id="node5" class="node">
<title>Node5</title>
<g id="a_node5"><a xlink:href="type__traits__impl_8hpp.html" target="_top" xlink:title=" ">
<polygon fill="none" stroke="black" points="134,-56.5 134,-86.5 240,-86.5 240,-56.5 134,-56.5"/>
<text text-anchor="start" x="142" y="-74.5" font-family="Helvetica,sans-Serif" font-size="10.00">yaclib/util/detail</text>
<text text-anchor="middle" x="187" y="-63.5" font-family="Helvetica,sans-Serif" font-size="10.00">/type_traits_impl.hpp</text>
</a>
</g>
</g>
<!-- Node3&#45;&gt;Node5 -->
<g id="edge6" class="edge">
<title>Node3&#45;&gt;Node5</title>
<path fill="none" stroke="midnightblue" d="M187,-123.48C187,-116.47 187,-106.19 187,-96.7"/>
<polygon fill="midnightblue" stroke="midnightblue" points="190.5,-96.52 187,-86.52 183.5,-96.52 190.5,-96.52"/>
</g>
<!-- Node6 -->
<g id="node6" class="node">
<title>Node6</title>
<g id="a_node6"><a xlink:title=" ">
<polygon fill="none" stroke="#bfbfbf" points="196,-0.5 196,-19.5 258,-19.5 258,-0.5 196,-0.5"/>
<text text-anchor="middle" x="227" y="-7.5" font-family="Helvetica,sans-Serif" font-size="10.00">type_traits</text>
</a>
</g>
</g>
<!-- Node3&#45;&gt;Node6 -->
<g id="edge10" class="edge">
<title>Node3&#45;&gt;Node6</title>
<path fill="none" stroke="midnightblue" d="M207.22,-123.49C221.77,-116.17 240.3,-104.06 249,-87 258.61,-68.15 248.69,-44.47 239.26,-28.6"/>
<polygon fill="midnightblue" stroke="midnightblue" points="241.99,-26.36 233.64,-19.83 236.1,-30.14 241.99,-26.36"/>
</g>
<!-- Node3&#45;&gt;Node7 -->
<g id="edge9" class="edge">
<title>Node3&#45;&gt;Node7</title>
<path fill="none" stroke="midnightblue" d="M206.77,-123.48C230.14,-113.4 269.21,-96.55 296,-85"/>
<polygon fill="midnightblue" stroke="midnightblue" points="297.47,-88.18 305.26,-81.01 294.7,-81.75 297.47,-88.18"/>
</g>
<!-- Node4&#45;&gt;Node2 -->
<g id="edge5" class="edge">
<title>Node4&#45;&gt;Node2</title>
<path fill="none" stroke="midnightblue" d="M72.27,-61.98C67.42,-53.23 59.73,-39.37 53.6,-28.31"/>
<polygon fill="midnightblue" stroke="midnightblue" points="56.63,-26.56 48.72,-19.51 50.51,-29.95 56.63,-26.56"/>
</g>
<!-- Node5&#45;&gt;Node2 -->
<g id="edge7" class="edge">
<title>Node5&#45;&gt;Node2</title>
<path fill="none" stroke="midnightblue" d="M153.11,-56.4C129.12,-46.42 97.23,-33.15 74.12,-23.53"/>
<polygon fill="midnightblue" stroke="midnightblue" points="75.39,-20.27 64.81,-19.66 72.7,-26.73 75.39,-20.27"/>
</g>
<!-- Node5&#45;&gt;Node6 -->
<g id="edge8" class="edge">
<title>Node5&#45;&gt;Node6</title>
<path fill="none" stroke="midnightblue" d="M196.48,-56.4C202.17,-47.93 209.45,-37.1 215.48,-28.14"/>
<polygon fill="midnightblue" stroke="midnightblue" points="218.51,-29.91 221.18,-19.66 212.7,-26 218.51,-29.91"/>
</g>
</g>
</svg>
