<?xml version="1.0" encoding="UTF-8" standalone="no"?>
<!DOCTYPE svg PUBLIC "-//W3C//DTD SVG 1.1//EN"
 "http://www.w3.org/Graphics/SVG/1.1/DTD/svg11.dtd">
<!-- Generated by graphviz version 2.50.0 (20220203.2022)
 -->
<!-- Title: include/yaclib/async/detail/result_core.hpp Pages: 1 -->
<!--zoomable 598 -->
<svg id="main" version="1.1" xmlns="http://www.w3.org/2000/svg" xmlns:xlink="http://www.w3.org/1999/xlink" xml:space="preserve" onload="init(evt)">
<style type="text/css"><![CDATA[
.edge:hover path { stroke: red; }
.edge:hover polygon { stroke: red; fill: red; }
]]></style>
<script type="text/javascript"><![CDATA[
var edges = document.getElementsByTagName('g');
if (edges && edges.length) {
  for (var i=0;i<edges.length;i++) {
    if (edges[i].id.substr(0,4)=='edge') {
      edges[i].setAttribute('class','edge');
    }
  }
}
]]></script>
        <defs>
                <circle id="rim" cx="0" cy="0" r="7"/>
                <circle id="rim2" cx="0" cy="0" r="3.5"/>
                <g id="zoomPlus">
                        <use xlink:href="#rim" fill="#404040">
                                <set attributeName="fill" to="#808080" begin="zoomplus.mouseover" end="zoomplus.mouseout"/>
                        </use>
                        <path d="M-4,0h8M0,-4v8" fill="none" stroke="white" stroke-width="1.5" pointer-events="none"/>
                </g>
                <g id="zoomMin">
                        <use xlink:href="#rim" fill="#404040">
                                <set attributeName="fill" to="#808080" begin="zoomminus.mouseover" end="zoomminus.mouseout"/>
                        </use>
                        <path d="M-4,0h8" fill="none" stroke="white" stroke-width="1.5" pointer-events="none"/>
                </g>
                <g id="dirArrow">
                        <path fill="none" stroke="white" stroke-width="1.5" d="M0,-3.0v7 M-2.5,-0.5L0,-3.0L2.5,-0.5"/>
                </g>
               <g id="resetDef">
                       <use xlink:href="#rim2" fill="#404040">
                               <set attributeName="fill" to="#808080" begin="reset.mouseover" end="reset.mouseout"/>
                       </use>
               </g>
        </defs>

<script type="text/javascript">
var viewWidth = 1356;
var viewHeight = 598;
var sectionId = 'dynsection-0';
</script>
<script xlink:href="svgpan.js"/>
<svg id="graph" class="graph">
<g id="viewport">
<title>include/yaclib/async/detail/result_core.hpp</title>
<!-- Node1 -->
<g id="node1" class="node">
<title>Node1</title>
<g id="a_node1"><a xlink:title=" ">
<polygon fill="#bfbfbf" stroke="black" points="679.5,-559.5 679.5,-589.5 791.5,-589.5 791.5,-559.5 679.5,-559.5"/>
<text text-anchor="start" x="687.5" y="-577.5" font-family="Helvetica,sans-Serif" font-size="10.00">include/yaclib/async</text>
<text text-anchor="middle" x="735.5" y="-566.5" font-family="Helvetica,sans-Serif" font-size="10.00">/detail/result_core.hpp</text>
</a>
</g>
</g>
<!-- Node2 -->
<g id="node2" class="node">
<title>Node2</title>
<g id="a_node2"><a xlink:href="base__core_8hpp.html" target="_top" xlink:title=" ">
<polygon fill="none" stroke="black" points="520.5,-492.5 520.5,-522.5 616.5,-522.5 616.5,-492.5 520.5,-492.5"/>
<text text-anchor="start" x="528.5" y="-510.5" font-family="Helvetica,sans-Serif" font-size="10.00">yaclib/async/detail</text>
<text text-anchor="middle" x="568.5" y="-499.5" font-family="Helvetica,sans-Serif" font-size="10.00">/base_core.hpp</text>
</a>
</g>
</g>
<!-- Node1&#45;&gt;Node2 -->
<g id="edge1" class="edge">
<title>Node1&#45;&gt;Node2</title>
<path fill="none" stroke="midnightblue" d="M699.26,-559.4C674.32,-549.69 640.97,-536.71 614.2,-526.29"/>
<polygon fill="midnightblue" stroke="midnightblue" points="615.25,-522.94 604.67,-522.58 612.72,-529.47 615.25,-522.94"/>
</g>
<!-- Node3 -->
<g id="node3" class="node">
<title>Node3</title>
<g id="a_node3"><a xlink:href="inline__core_8hpp.html" target="_top" xlink:title=" ">
<polygon fill="none" stroke="black" points="725.5,-369.5 725.5,-399.5 821.5,-399.5 821.5,-369.5 725.5,-369.5"/>
<text text-anchor="start" x="733.5" y="-387.5" font-family="Helvetica,sans-Serif" font-size="10.00">yaclib/async/detail</text>
<text text-anchor="middle" x="773.5" y="-376.5" font-family="Helvetica,sans-Serif" font-size="10.00">/inline_core.hpp</text>
</a>
</g>
</g>
<!-- Node1&#45;&gt;Node3 -->
<g id="edge50" class="edge">
<title>Node1&#45;&gt;Node3</title>
<path fill="none" stroke="midnightblue" d="M738.36,-559.37C744.82,-527.38 760.64,-449.11 768.67,-409.42"/>
<polygon fill="midnightblue" stroke="midnightblue" points="772.11,-410.03 770.66,-399.54 765.25,-408.65 772.11,-410.03"/>
</g>
<!-- Node4 -->
<g id="node4" class="node">
<title>Node4</title>
<g id="a_node4"><a xlink:title=" ">
<polygon fill="none" stroke="#bfbfbf" points="785.5,-0.5 785.5,-19.5 873.5,-19.5 873.5,-0.5 785.5,-0.5"/>
<text text-anchor="middle" x="829.5" y="-7.5" font-family="Helvetica,sans-Serif" font-size="10.00">yaclib/config.hpp</text>
</a>
</g>
</g>
<!-- Node1&#45;&gt;Node4 -->
<g id="edge51" class="edge">
<title>Node1&#45;&gt;Node4</title>
<path fill="none" stroke="midnightblue" d="M791.61,-572.6C874.38,-567.97 1019.5,-545.78 1019.5,-447 1019.5,-447 1019.5,-447 1019.5,-137.5 1019.5,-95.46 1004.38,-82.19 971.5,-56 946.35,-35.96 912.13,-24.77 883.59,-18.57"/>
<polygon fill="midnightblue" stroke="midnightblue" points="884.25,-15.13 873.75,-16.57 882.86,-21.99 884.25,-15.13"/>
</g>
<!-- Node10 -->
<g id="node10" class="node">
<title>Node10</title>
<g id="a_node10"><a xlink:title=" ">
<polygon fill="none" stroke="#bfbfbf" points="562,-62 562,-81 601,-81 601,-62 562,-62"/>
<text text-anchor="middle" x="581.5" y="-69" font-family="Helvetica,sans-Serif" font-size="10.00">utility</text>
</a>
</g>
</g>
<!-- Node1&#45;&gt;Node10 -->
<g id="edge66" class="edge">
<title>Node1&#45;&gt;Node10</title>
<path fill="none" stroke="midnightblue" d="M726.14,-559.29C693.26,-509.02 584.21,-339.3 569.5,-277 553.72,-210.16 568.57,-127.8 576.83,-91.36"/>
<polygon fill="midnightblue" stroke="midnightblue" points="580.33,-91.76 579.22,-81.23 573.52,-90.15 580.33,-91.76"/>
</g>
<!-- Node17 -->
<g id="node17" class="node">
<title>Node17</title>
<g id="a_node17"><a xlink:href="intrusive__ptr_8hpp.html" target="_top" xlink:title=" ">
<polygon fill="none" stroke="black" points="176,-123.5 176,-153.5 273,-153.5 273,-123.5 176,-123.5"/>
<text text-anchor="start" x="184" y="-141.5" font-family="Helvetica,sans-Serif" font-size="10.00">yaclib/util/intrusive</text>
<text text-anchor="middle" x="224.5" y="-130.5" font-family="Helvetica,sans-Serif" font-size="10.00">_ptr.hpp</text>
</a>
</g>
</g>
<!-- Node1&#45;&gt;Node17 -->
<g id="edge52" class="edge">
<title>Node1&#45;&gt;Node17</title>
<path fill="none" stroke="midnightblue" d="M679.31,-570.48C549.54,-562.22 235.23,-534.38 171.5,-456 99.75,-367.76 176.13,-219 210.02,-162.34"/>
<polygon fill="midnightblue" stroke="midnightblue" points="213.03,-164.12 215.25,-153.76 207.06,-160.48 213.03,-164.12"/>
</g>
<!-- Node23 -->
<g id="node23" class="node">
<title>Node23</title>
<g id="a_node23"><a xlink:href="result_8hpp.html" target="_top" xlink:title=" ">
<polygon fill="none" stroke="black" points="1132.5,-252 1132.5,-271 1234.5,-271 1234.5,-252 1132.5,-252"/>
<text text-anchor="middle" x="1183.5" y="-259" font-family="Helvetica,sans-Serif" font-size="10.00">yaclib/util/result.hpp</text>
</a>
</g>
</g>
<!-- Node1&#45;&gt;Node23 -->
<g id="edge53" class="edge">
<title>Node1&#45;&gt;Node23</title>
<path fill="none" stroke="midnightblue" d="M791.8,-568.38C866.26,-560.86 992.82,-545.26 1033.5,-523 1073.52,-501.1 1102.5,-492.62 1102.5,-447 1102.5,-447 1102.5,-447 1102.5,-383.5 1102.5,-339.18 1140.49,-298.81 1164.44,-277.77"/>
<polygon fill="midnightblue" stroke="midnightblue" points="1166.87,-280.3 1172.24,-271.16 1162.35,-274.96 1166.87,-280.3"/>
</g>
<!-- Node2&#45;&gt;Node3 -->
<g id="edge2" class="edge">
<title>Node2&#45;&gt;Node3</title>
<path fill="none" stroke="midnightblue" d="M601.39,-492.38C622.46,-482.92 650.13,-469.73 673.5,-456 699.5,-440.72 727.43,-420.7 747.14,-405.9"/>
<polygon fill="midnightblue" stroke="midnightblue" points="749.46,-408.54 755.32,-399.71 745.23,-402.96 749.46,-408.54"/>
</g>
<!-- Node2&#45;&gt;Node4 -->
<g id="edge38" class="edge">
<title>Node2&#45;&gt;Node4</title>
<path fill="none" stroke="midnightblue" d="M616.68,-502.62C725.63,-492.52 981.5,-460.78 981.5,-385.5 981.5,-385.5 981.5,-385.5 981.5,-137.5 981.5,-97.53 972.6,-83.4 943.5,-56 926.37,-39.87 902.77,-29.28 881.49,-22.45"/>
<polygon fill="midnightblue" stroke="midnightblue" points="882.49,-19.1 871.9,-19.58 880.47,-25.8 882.49,-19.1"/>
</g>
<!-- Node5 -->
<g id="node5" class="node">
<title>Node5</title>
<g id="a_node5"><a xlink:href="task_8hpp.html" target="_top" xlink:title=" ">
<polygon fill="none" stroke="black" points="607,-313.5 607,-332.5 728,-332.5 728,-313.5 607,-313.5"/>
<text text-anchor="middle" x="667.5" y="-320.5" font-family="Helvetica,sans-Serif" font-size="10.00">yaclib/executor/task.hpp</text>
</a>
</g>
</g>
<!-- Node2&#45;&gt;Node5 -->
<g id="edge46" class="edge">
<title>Node2&#45;&gt;Node5</title>
<path fill="none" stroke="midnightblue" d="M597.81,-492.37C612.5,-483.82 629.29,-471.55 639.5,-456 662.67,-420.7 667.09,-369.67 667.68,-342.56"/>
<polygon fill="midnightblue" stroke="midnightblue" points="671.18,-342.54 667.74,-332.52 664.18,-342.5 671.18,-342.54"/>
</g>
<!-- Node12 -->
<g id="node12" class="node">
<title>Node12</title>
<g id="a_node12"><a xlink:href="atomic_8hpp.html" target="_top" xlink:title=" ">
<polygon fill="none" stroke="black" points="240,-62 240,-81 353,-81 353,-62 240,-62"/>
<text text-anchor="middle" x="296.5" y="-69" font-family="Helvetica,sans-Serif" font-size="10.00">yaclib/fault/atomic.hpp</text>
</a>
</g>
</g>
<!-- Node2&#45;&gt;Node12 -->
<g id="edge47" class="edge">
<title>Node2&#45;&gt;Node12</title>
<path fill="none" stroke="midnightblue" d="M520.49,-506.64C426.67,-505.94 223.59,-499.31 171.5,-456 102.06,-398.26 109.5,-352.81 109.5,-262.5 109.5,-262.5 109.5,-262.5 109.5,-199 109.5,-133 190.41,-99.09 245.79,-83.62"/>
<polygon fill="midnightblue" stroke="midnightblue" points="246.71,-86.99 255.46,-81.02 244.9,-80.23 246.71,-86.99"/>
</g>
<!-- Node2&#45;&gt;Node17 -->
<g id="edge48" class="edge">
<title>Node2&#45;&gt;Node17</title>
<path fill="none" stroke="midnightblue" d="M520.31,-499.84C425.63,-485.41 224.5,-447.46 224.5,-385.5 224.5,-385.5 224.5,-385.5 224.5,-260.5 224.5,-226.98 224.5,-188.24 224.5,-163.81"/>
<polygon fill="midnightblue" stroke="midnightblue" points="228,-163.66 224.5,-153.66 221,-163.66 228,-163.66"/>
</g>
<!-- Node18 -->
<g id="node18" class="node">
<title>Node18</title>
<g id="a_node18"><a xlink:href="ref_8hpp.html" target="_top" xlink:title=" ">
<polygon fill="none" stroke="black" points="0,-62 0,-81 89,-81 89,-62 0,-62"/>
<text text-anchor="middle" x="44.5" y="-69" font-family="Helvetica,sans-Serif" font-size="10.00">yaclib/util/ref.hpp</text>
</a>
</g>
</g>
<!-- Node2&#45;&gt;Node18 -->
<g id="edge49" class="edge">
<title>Node2&#45;&gt;Node18</title>
<path fill="none" stroke="midnightblue" d="M520.47,-502.25C447.48,-495.14 312.64,-479.29 270.5,-456 124.06,-375.07 63.67,-156.74 48.52,-91.29"/>
<polygon fill="midnightblue" stroke="midnightblue" points="51.87,-90.22 46.27,-81.22 45.04,-91.74 51.87,-90.22"/>
</g>
<!-- Node21 -->
<g id="node21" class="node">
<title>Node21</title>
<g id="a_node21"><a xlink:href="executor_8hpp.html" target="_top" xlink:title=" ">
<polygon fill="none" stroke="black" points="430,-375 430,-394 569,-394 569,-375 430,-375"/>
<text text-anchor="middle" x="499.5" y="-382" font-family="Helvetica,sans-Serif" font-size="10.00">yaclib/executor/executor.hpp</text>
</a>
</g>
</g>
<!-- Node2&#45;&gt;Node21 -->
<g id="edge39" class="edge">
<title>Node2&#45;&gt;Node21</title>
<path fill="none" stroke="midnightblue" d="M535.91,-492.44C521.03,-484.16 504.88,-472.12 496.5,-456 488.21,-440.06 490.4,-419.26 493.79,-404.38"/>
<polygon fill="midnightblue" stroke="midnightblue" points="497.27,-404.91 496.45,-394.35 490.5,-403.11 497.27,-404.91"/>
</g>
<!-- Node22 -->
<g id="node22" class="node">
<title>Node22</title>
<g id="a_node22"><a xlink:href="inline_8hpp.html" target="_top" xlink:title=" ">
<polygon fill="none" stroke="black" points="506,-436.5 506,-455.5 631,-455.5 631,-436.5 506,-436.5"/>
<text text-anchor="middle" x="568.5" y="-443.5" font-family="Helvetica,sans-Serif" font-size="10.00">yaclib/executor/inline.hpp</text>
</a>
</g>
</g>
<!-- Node2&#45;&gt;Node22 -->
<g id="edge43" class="edge">
<title>Node2&#45;&gt;Node22</title>
<path fill="none" stroke="midnightblue" d="M568.5,-492.4C568.5,-484.47 568.5,-474.46 568.5,-465.86"/>
<polygon fill="midnightblue" stroke="midnightblue" points="572,-465.66 568.5,-455.66 565,-465.66 572,-465.66"/>
</g>
<!-- Node3&#45;&gt;Node4 -->
<g id="edge3" class="edge">
<title>Node3&#45;&gt;Node4</title>
<path fill="none" stroke="midnightblue" d="M821.76,-371.45C872.02,-355.66 943.5,-322.64 943.5,-262.5 943.5,-262.5 943.5,-262.5 943.5,-137.5 943.5,-99.74 943.73,-84.96 919.5,-56 906.73,-40.74 887.51,-30.15 870.1,-23.1"/>
<polygon fill="midnightblue" stroke="midnightblue" points="871.26,-19.79 860.67,-19.53 868.79,-26.34 871.26,-19.79"/>
</g>
<!-- Node3&#45;&gt;Node5 -->
<g id="edge4" class="edge">
<title>Node3&#45;&gt;Node5</title>
<path fill="none" stroke="midnightblue" d="M748.38,-369.4C731.23,-359.77 708.64,-347.09 691.69,-337.58"/>
<polygon fill="midnightblue" stroke="midnightblue" points="693.36,-334.5 682.92,-332.66 689.93,-340.6 693.36,-334.5"/>
</g>
<!-- Node5&#45;&gt;Node4 -->
<g id="edge5" class="edge">
<title>Node5&#45;&gt;Node4</title>
<path fill="none" stroke="midnightblue" d="M673.6,-313.45C694.67,-283.59 765.31,-180.74 806.5,-87 814.8,-68.11 821.26,-45.33 825.19,-29.67"/>
<polygon fill="midnightblue" stroke="midnightblue" points="828.66,-30.22 827.6,-19.67 821.85,-28.58 828.66,-30.22"/>
</g>
<!-- Node6 -->
<g id="node6" class="node">
<title>Node6</title>
<g id="a_node6"><a xlink:href="node_8hpp.html" target="_top" xlink:title=" ">
<polygon fill="none" stroke="black" points="794,-246.5 794,-276.5 877,-276.5 877,-246.5 794,-246.5"/>
<text text-anchor="start" x="802" y="-264.5" font-family="Helvetica,sans-Serif" font-size="10.00">yaclib/util/detail</text>
<text text-anchor="middle" x="835.5" y="-253.5" font-family="Helvetica,sans-Serif" font-size="10.00">/node.hpp</text>
</a>
</g>
</g>
<!-- Node5&#45;&gt;Node6 -->
<g id="edge6" class="edge">
<title>Node5&#45;&gt;Node6</title>
<path fill="none" stroke="midnightblue" d="M691.57,-313.48C716.13,-304.78 754.95,-291.03 786.09,-280"/>
<polygon fill="midnightblue" stroke="midnightblue" points="787.65,-283.16 795.91,-276.52 785.31,-276.56 787.65,-283.16"/>
</g>
<!-- Node7 -->
<g id="node7" class="node">
<title>Node7</title>
<g id="a_node7"><a xlink:href="func_8hpp.html" target="_top" xlink:title=" ">
<polygon fill="none" stroke="black" points="579,-252 579,-271 676,-271 676,-252 579,-252"/>
<text text-anchor="middle" x="627.5" y="-259" font-family="Helvetica,sans-Serif" font-size="10.00">yaclib/util/func.hpp</text>
</a>
</g>
</g>
<!-- Node5&#45;&gt;Node7 -->
<g id="edge8" class="edge">
<title>Node5&#45;&gt;Node7</title>
<path fill="none" stroke="midnightblue" d="M661.77,-313.48C655.83,-304.64 646.38,-290.59 638.91,-279.48"/>
<polygon fill="midnightblue" stroke="midnightblue" points="641.7,-277.36 633.22,-271.01 635.89,-281.26 641.7,-277.36"/>
</g>
<!-- Node6&#45;&gt;Node4 -->
<g id="edge7" class="edge">
<title>Node6&#45;&gt;Node4</title>
<path fill="none" stroke="midnightblue" d="M837.93,-246.02C843.18,-212.41 854.23,-126.61 843.5,-56 842.13,-47 839.31,-37.33 836.55,-29.26"/>
<polygon fill="midnightblue" stroke="midnightblue" points="839.81,-27.98 833.1,-19.78 833.23,-30.37 839.81,-27.98"/>
</g>
<!-- Node7&#45;&gt;Node4 -->
<g id="edge9" class="edge">
<title>Node7&#45;&gt;Node4</title>
<path fill="none" stroke="midnightblue" d="M639.31,-251.98C651.99,-242.52 672.35,-226.41 687.5,-210 744.08,-148.71 797.47,-64.25 819.23,-28.31"/>
<polygon fill="midnightblue" stroke="midnightblue" points="822.36,-29.89 824.5,-19.52 816.36,-26.29 822.36,-29.89"/>
</g>
<!-- Node8 -->
<g id="node8" class="node">
<title>Node8</title>
<g id="a_node8"><a xlink:href="safe__call_8hpp.html" target="_top" xlink:title=" ">
<polygon fill="none" stroke="black" points="604,-123.5 604,-153.5 687,-153.5 687,-123.5 604,-123.5"/>
<text text-anchor="start" x="612" y="-141.5" font-family="Helvetica,sans-Serif" font-size="10.00">yaclib/util/detail</text>
<text text-anchor="middle" x="645.5" y="-130.5" font-family="Helvetica,sans-Serif" font-size="10.00">/safe_call.hpp</text>
</a>
</g>
</g>
<!-- Node7&#45;&gt;Node8 -->
<g id="edge10" class="edge">
<title>Node7&#45;&gt;Node8</title>
<path fill="none" stroke="midnightblue" d="M628.79,-251.8C631.51,-233.52 637.9,-190.6 641.94,-163.43"/>
<polygon fill="midnightblue" stroke="midnightblue" points="645.4,-163.95 643.41,-153.54 638.48,-162.92 645.4,-163.95"/>
</g>
<!-- Node9 -->
<g id="node9" class="node">
<title>Node9</title>
<g id="a_node9"><a xlink:title=" ">
<polygon fill="none" stroke="#bfbfbf" points="668.5,-62 668.5,-81 730.5,-81 730.5,-62 668.5,-62"/>
<text text-anchor="middle" x="699.5" y="-69" font-family="Helvetica,sans-Serif" font-size="10.00">type_traits</text>
</a>
</g>
</g>
<!-- Node7&#45;&gt;Node9 -->
<g id="edge36" class="edge">
<title>Node7&#45;&gt;Node9</title>
<path fill="none" stroke="midnightblue" d="M635.26,-251.92C650.19,-234.8 682.57,-194.55 695.5,-154 702.07,-133.38 702.23,-108.35 701.28,-91.52"/>
<polygon fill="midnightblue" stroke="midnightblue" points="704.75,-91.04 700.52,-81.33 697.77,-91.56 704.75,-91.04"/>
</g>
<!-- Node7&#45;&gt;Node10 -->
<g id="edge37" class="edge">
<title>Node7&#45;&gt;Node10</title>
<path fill="none" stroke="midnightblue" d="M624.33,-251.78C617.89,-233.75 603.12,-190.95 594.5,-154 589.52,-132.69 585.86,-107.79 583.71,-91.18"/>
<polygon fill="midnightblue" stroke="midnightblue" points="587.17,-90.64 582.47,-81.14 580.22,-91.5 587.17,-90.64"/>
</g>
<!-- Node11 -->
<g id="node11" class="node">
<title>Node11</title>
<g id="a_node11"><a xlink:href="helper_8hpp.html" target="_top" xlink:title=" ">
<polygon fill="none" stroke="black" points="329.5,-190.5 329.5,-209.5 433.5,-209.5 433.5,-190.5 329.5,-190.5"/>
<text text-anchor="middle" x="381.5" y="-197.5" font-family="Helvetica,sans-Serif" font-size="10.00">yaclib/util/helper.hpp</text>
</a>
</g>
</g>
<!-- Node7&#45;&gt;Node11 -->
<g id="edge14" class="edge">
<title>Node7&#45;&gt;Node11</title>
<path fill="none" stroke="midnightblue" d="M592.25,-251.98C548.6,-241.42 474.16,-223.41 426.44,-211.87"/>
<polygon fill="midnightblue" stroke="midnightblue" points="427.22,-208.46 416.68,-209.51 425.58,-215.26 427.22,-208.46"/>
</g>
<!-- Node7&#45;&gt;Node17 -->
<g id="edge34" class="edge">
<title>Node7&#45;&gt;Node17</title>
<path fill="none" stroke="midnightblue" d="M578.77,-259.44C516.55,-256.56 406.63,-246.24 320.5,-210 292.57,-198.25 265.15,-176.85 246.82,-160.7"/>
<polygon fill="midnightblue" stroke="midnightblue" points="248.83,-157.8 239.07,-153.7 244.14,-163 248.83,-157.8"/>
</g>
<!-- Node7&#45;&gt;Node18 -->
<g id="edge35" class="edge">
<title>Node7&#45;&gt;Node18</title>
<path fill="none" stroke="midnightblue" d="M578.77,-258.03C511,-253.56 385.08,-241.46 282.5,-210 227.77,-193.22 216.2,-182.41 166.5,-154 129.24,-132.7 88.19,-104.14 64.47,-87.1"/>
<polygon fill="midnightblue" stroke="midnightblue" points="66.42,-84.19 56.27,-81.17 62.32,-89.86 66.42,-84.19"/>
</g>
<!-- Node8&#45;&gt;Node4 -->
<g id="edge11" class="edge">
<title>Node8&#45;&gt;Node4</title>
<path fill="none" stroke="midnightblue" d="M643.7,-123.44C642.23,-105.46 642.64,-74.43 659.5,-56 675.08,-38.97 731.58,-26.36 775.21,-18.89"/>
<polygon fill="midnightblue" stroke="midnightblue" points="775.85,-22.33 785.14,-17.23 774.71,-15.42 775.85,-22.33"/>
</g>
<!-- Node8&#45;&gt;Node9 -->
<g id="edge12" class="edge">
<title>Node8&#45;&gt;Node9</title>
<path fill="none" stroke="midnightblue" d="M657.22,-123.4C665.64,-113.26 677.01,-99.57 685.84,-88.94"/>
<polygon fill="midnightblue" stroke="midnightblue" points="688.58,-91.12 692.28,-81.19 683.19,-86.65 688.58,-91.12"/>
</g>
<!-- Node8&#45;&gt;Node10 -->
<g id="edge13" class="edge">
<title>Node8&#45;&gt;Node10</title>
<path fill="none" stroke="midnightblue" d="M631.61,-123.4C621.54,-113.16 607.88,-99.3 597.37,-88.62"/>
<polygon fill="midnightblue" stroke="midnightblue" points="599.57,-85.86 590.06,-81.19 594.58,-90.78 599.57,-85.86"/>
</g>
<!-- Node11&#45;&gt;Node4 -->
<g id="edge15" class="edge">
<title>Node11&#45;&gt;Node4</title>
<path fill="none" stroke="midnightblue" d="M395.41,-190.31C408.34,-181.88 427.76,-168.29 442.5,-154 482.26,-115.43 471.55,-83.74 519.5,-56 561.96,-31.44 698.52,-19.15 775.47,-14.03"/>
<polygon fill="midnightblue" stroke="midnightblue" points="775.71,-17.52 785.46,-13.38 775.26,-10.54 775.71,-17.52"/>
</g>
<!-- Node11&#45;&gt;Node12 -->
<g id="edge16" class="edge">
<title>Node11&#45;&gt;Node12</title>
<path fill="none" stroke="midnightblue" d="M364.33,-190.41C350.57,-182.67 331.75,-170.06 320.5,-154 307.25,-135.07 301.23,-108.78 298.55,-91.23"/>
<polygon fill="midnightblue" stroke="midnightblue" points="302,-90.59 297.23,-81.13 295.05,-91.5 302,-90.59"/>
</g>
<!-- Node16 -->
<g id="node16" class="node">
<title>Node16</title>
<g id="a_node16"><a xlink:href="atomic__counter_8hpp.html" target="_top" xlink:title=" ">
<polygon fill="none" stroke="black" points="329.5,-123.5 329.5,-153.5 433.5,-153.5 433.5,-123.5 329.5,-123.5"/>
<text text-anchor="start" x="337.5" y="-141.5" font-family="Helvetica,sans-Serif" font-size="10.00">yaclib/util/detail</text>
<text text-anchor="middle" x="381.5" y="-130.5" font-family="Helvetica,sans-Serif" font-size="10.00">/atomic_counter.hpp</text>
</a>
</g>
</g>
<!-- Node11&#45;&gt;Node16 -->
<g id="edge21" class="edge">
<title>Node11&#45;&gt;Node16</title>
<path fill="none" stroke="midnightblue" d="M381.5,-190.48C381.5,-183.47 381.5,-173.19 381.5,-163.7"/>
<polygon fill="midnightblue" stroke="midnightblue" points="385,-163.52 381.5,-153.52 378,-163.52 385,-163.52"/>
</g>
<!-- Node11&#45;&gt;Node17 -->
<g id="edge26" class="edge">
<title>Node11&#45;&gt;Node17</title>
<path fill="none" stroke="midnightblue" d="M359.01,-190.48C336.15,-181.81 300.09,-168.15 271.05,-157.14"/>
<polygon fill="midnightblue" stroke="midnightblue" points="272.09,-153.79 261.5,-153.52 269.61,-160.34 272.09,-153.79"/>
</g>
<!-- Node12&#45;&gt;Node4 -->
<g id="edge17" class="edge">
<title>Node12&#45;&gt;Node4</title>
<path fill="none" stroke="midnightblue" d="M353.04,-62.69C369.9,-60.44 388.44,-58.04 405.5,-56 537.92,-40.17 693.95,-24.33 774.78,-16.34"/>
<polygon fill="midnightblue" stroke="midnightblue" points="775.59,-19.78 785.2,-15.31 774.91,-12.81 775.59,-19.78"/>
</g>
<!-- Node13 -->
<g id="node13" class="node">
<title>Node13</title>
<g id="a_node13"><a xlink:title=" ">
<polygon fill="none" stroke="#bfbfbf" points="352,-0.5 352,-19.5 401,-19.5 401,-0.5 352,-0.5"/>
<text text-anchor="middle" x="376.5" y="-7.5" font-family="Helvetica,sans-Serif" font-size="10.00">cstddef</text>
</a>
</g>
</g>
<!-- Node12&#45;&gt;Node13 -->
<g id="edge18" class="edge">
<title>Node12&#45;&gt;Node13</title>
<path fill="none" stroke="midnightblue" d="M307.96,-61.98C320.67,-52.52 341.41,-37.1 356.75,-25.69"/>
<polygon fill="midnightblue" stroke="midnightblue" points="359.12,-28.29 365.06,-19.51 354.95,-22.67 359.12,-28.29"/>
</g>
<!-- Node14 -->
<g id="node14" class="node">
<title>Node14</title>
<g id="a_node14"><a xlink:title=" ">
<polygon fill="none" stroke="#bfbfbf" points="282.5,-0.5 282.5,-19.5 328.5,-19.5 328.5,-0.5 282.5,-0.5"/>
<text text-anchor="middle" x="305.5" y="-7.5" font-family="Helvetica,sans-Serif" font-size="10.00">cstdint</text>
</a>
</g>
</g>
<!-- Node12&#45;&gt;Node14 -->
<g id="edge19" class="edge">
<title>Node12&#45;&gt;Node14</title>
<path fill="none" stroke="midnightblue" d="M297.79,-61.98C299.06,-53.58 301.04,-40.48 302.68,-29.66"/>
<polygon fill="midnightblue" stroke="midnightblue" points="306.18,-29.92 304.21,-19.51 299.26,-28.87 306.18,-29.92"/>
</g>
<!-- Node15 -->
<g id="node15" class="node">
<title>Node15</title>
<g id="a_node15"><a xlink:title=" ">
<polygon fill="none" stroke="#bfbfbf" points="218.5,-0.5 218.5,-19.5 264.5,-19.5 264.5,-0.5 218.5,-0.5"/>
<text text-anchor="middle" x="241.5" y="-7.5" font-family="Helvetica,sans-Serif" font-size="10.00">atomic</text>
</a>
</g>
</g>
<!-- Node12&#45;&gt;Node15 -->
<g id="edge20" class="edge">
<title>Node12&#45;&gt;Node15</title>
<path fill="none" stroke="midnightblue" d="M288.62,-61.98C280.21,-52.87 266.68,-38.24 256.27,-26.98"/>
<polygon fill="midnightblue" stroke="midnightblue" points="258.72,-24.48 249.37,-19.51 253.58,-29.23 258.72,-24.48"/>
</g>
<!-- Node16&#45;&gt;Node4 -->
<g id="edge22" class="edge">
<title>Node16&#45;&gt;Node4</title>
<path fill="none" stroke="midnightblue" d="M396.66,-123.37C419.66,-102.26 462.67,-64.1 481.5,-56 533.07,-33.82 690.77,-20.25 775.05,-14.39"/>
<polygon fill="midnightblue" stroke="midnightblue" points="775.46,-17.87 785.2,-13.7 774.98,-10.89 775.46,-17.87"/>
</g>
<!-- Node16&#45;&gt;Node10 -->
<g id="edge25" class="edge">
<title>Node16&#45;&gt;Node10</title>
<path fill="none" stroke="midnightblue" d="M424.9,-123.4C463.42,-110.88 518.65,-92.93 552.19,-82.03"/>
<polygon fill="midnightblue" stroke="midnightblue" points="553.42,-85.3 561.85,-78.89 551.26,-78.65 553.42,-85.3"/>
</g>
<!-- Node16&#45;&gt;Node12 -->
<g id="edge23" class="edge">
<title>Node16&#45;&gt;Node12</title>
<path fill="none" stroke="midnightblue" d="M363.06,-123.4C349.15,-112.76 330.11,-98.2 315.96,-87.38"/>
<polygon fill="midnightblue" stroke="midnightblue" points="317.94,-84.49 307.87,-81.19 313.69,-90.05 317.94,-84.49"/>
</g>
<!-- Node16&#45;&gt;Node13 -->
<g id="edge24" class="edge">
<title>Node16&#45;&gt;Node13</title>
<path fill="none" stroke="midnightblue" d="M380.95,-123.48C380.05,-100.72 378.27,-55.7 377.25,-30.06"/>
<polygon fill="midnightblue" stroke="midnightblue" points="380.74,-29.64 376.85,-19.79 373.75,-29.92 380.74,-29.64"/>
</g>
<!-- Node17&#45;&gt;Node4 -->
<g id="edge27" class="edge">
<title>Node17&#45;&gt;Node4</title>
<path fill="none" stroke="midnightblue" d="M263.92,-123.43C291.38,-113.51 328.8,-99.78 361.5,-87 395.09,-73.87 401.58,-65.03 436.5,-56 554.77,-25.42 698.43,-15.61 775.09,-12.47"/>
<polygon fill="midnightblue" stroke="midnightblue" points="775.6,-15.96 785.45,-12.07 775.33,-8.96 775.6,-15.96"/>
</g>
<!-- Node17&#45;&gt;Node9 -->
<g id="edge30" class="edge">
<title>Node17&#45;&gt;Node9</title>
<path fill="none" stroke="midnightblue" d="M273.3,-129.88C288.42,-127.58 305.14,-125.12 320.5,-123 448.73,-105.33 481.36,-105.3 609.5,-87 625.41,-84.73 642.86,-81.98 658.13,-79.48"/>
<polygon fill="midnightblue" stroke="midnightblue" points="659,-82.89 668.3,-77.81 657.87,-75.98 659,-82.89"/>
</g>
<!-- Node17&#45;&gt;Node18 -->
<g id="edge28" class="edge">
<title>Node17&#45;&gt;Node18</title>
<path fill="none" stroke="midnightblue" d="M185.44,-123.4C153.3,-111.79 108.23,-95.51 77.78,-84.52"/>
<polygon fill="midnightblue" stroke="midnightblue" points="78.65,-81.11 68.06,-81.01 76.27,-87.7 78.65,-81.11"/>
</g>
<!-- Node19 -->
<g id="node19" class="node">
<title>Node19</title>
<g id="a_node19"><a xlink:href="intrusive__ptr__impl_8hpp.html" target="_top" xlink:title=" ">
<polygon fill="none" stroke="black" points="107.5,-56.5 107.5,-86.5 221.5,-86.5 221.5,-56.5 107.5,-56.5"/>
<text text-anchor="start" x="115.5" y="-74.5" font-family="Helvetica,sans-Serif" font-size="10.00">yaclib/util/detail</text>
<text text-anchor="middle" x="164.5" y="-63.5" font-family="Helvetica,sans-Serif" font-size="10.00">/intrusive_ptr_impl.hpp</text>
</a>
</g>
</g>
<!-- Node17&#45;&gt;Node19 -->
<g id="edge31" class="edge">
<title>Node17&#45;&gt;Node19</title>
<path fill="none" stroke="midnightblue" d="M211.48,-123.4C203.54,-114.79 193.23,-103.63 184.3,-93.94"/>
<polygon fill="midnightblue" stroke="midnightblue" points="186.85,-91.55 177.49,-86.58 181.7,-96.3 186.85,-91.55"/>
</g>
<!-- Node18&#45;&gt;Node4 -->
<g id="edge29" class="edge">
<title>Node18&#45;&gt;Node4</title>
<path fill="none" stroke="midnightblue" d="M72.02,-61.97C80.44,-59.67 89.78,-57.42 98.5,-56 349.07,-15.07 653.49,-10.61 775.31,-10.63"/>
<polygon fill="midnightblue" stroke="midnightblue" points="775.49,-14.13 785.49,-10.65 775.49,-7.13 775.49,-14.13"/>
</g>
<!-- Node19&#45;&gt;Node4 -->
<g id="edge32" class="edge">
<title>Node19&#45;&gt;Node4</title>
<path fill="none" stroke="midnightblue" d="M221.65,-57.43C224.63,-56.91 227.6,-56.43 230.5,-56 429.96,-26.75 669.75,-16.01 775.22,-12.51"/>
<polygon fill="midnightblue" stroke="midnightblue" points="775.42,-16.01 785.3,-12.18 775.19,-9.01 775.42,-16.01"/>
</g>
<!-- Node20 -->
<g id="node20" class="node">
<title>Node20</title>
<g id="a_node20"><a xlink:title=" ">
<polygon fill="none" stroke="#bfbfbf" points="140,-0.5 140,-19.5 189,-19.5 189,-0.5 140,-0.5"/>
<text text-anchor="middle" x="164.5" y="-7.5" font-family="Helvetica,sans-Serif" font-size="10.00">cassert</text>
</a>
</g>
</g>
<!-- Node19&#45;&gt;Node20 -->
<g id="edge33" class="edge">
<title>Node19&#45;&gt;Node20</title>
<path fill="none" stroke="midnightblue" d="M164.5,-56.4C164.5,-48.47 164.5,-38.46 164.5,-29.86"/>
<polygon fill="midnightblue" stroke="midnightblue" points="168,-29.66 164.5,-19.66 161,-29.66 168,-29.66"/>
</g>
<!-- Node21&#45;&gt;Node4 -->
<g id="edge40" class="edge">
<title>Node21&#45;&gt;Node4</title>
<path fill="none" stroke="midnightblue" d="M499.5,-374.99C499.5,-355.24 499.5,-304.72 499.5,-262.5 499.5,-262.5 499.5,-262.5 499.5,-199 499.5,-131.22 499.02,-97.65 552.5,-56 586.34,-29.64 704.69,-18.25 775.27,-13.71"/>
<polygon fill="midnightblue" stroke="midnightblue" points="775.56,-17.2 785.32,-13.09 775.13,-10.21 775.56,-17.2"/>
</g>
<!-- Node21&#45;&gt;Node5 -->
<g id="edge41" class="edge">
<title>Node21&#45;&gt;Node5</title>
<path fill="none" stroke="midnightblue" d="M523.57,-374.98C552.51,-364.72 601.26,-347.46 633.9,-335.9"/>
<polygon fill="midnightblue" stroke="midnightblue" points="635.22,-339.15 643.47,-332.51 632.88,-332.55 635.22,-339.15"/>
</g>
<!-- Node21&#45;&gt;Node17 -->
<g id="edge42" class="edge">
<title>Node21&#45;&gt;Node17</title>
<path fill="none" stroke="midnightblue" d="M487.01,-374.92C452.54,-350.95 353.94,-280.45 282.5,-210 267.36,-195.07 252.16,-176.43 241.12,-162.06"/>
<polygon fill="midnightblue" stroke="midnightblue" points="243.65,-159.6 234.82,-153.74 238.07,-163.83 243.65,-159.6"/>
</g>
<!-- Node22&#45;&gt;Node4 -->
<g id="edge44" class="edge">
<title>Node22&#45;&gt;Node4</title>
<path fill="none" stroke="midnightblue" d="M585.23,-436.37C649.89,-402.96 880.18,-283.71 885.5,-277 907.2,-249.63 905.5,-235.93 905.5,-201 905.5,-201 905.5,-201 905.5,-137.5 905.5,-92.12 869.12,-48.98 846.7,-26.7"/>
<polygon fill="midnightblue" stroke="midnightblue" points="849.07,-24.13 839.44,-19.73 844.22,-29.18 849.07,-24.13"/>
</g>
<!-- Node22&#45;&gt;Node21 -->
<g id="edge45" class="edge">
<title>Node22&#45;&gt;Node21</title>
<path fill="none" stroke="midnightblue" d="M558.61,-436.48C547.85,-427.2 530.43,-412.17 517.28,-400.83"/>
<polygon fill="midnightblue" stroke="midnightblue" points="519.23,-397.89 509.37,-394.01 514.66,-403.19 519.23,-397.89"/>
</g>
<!-- Node23&#45;&gt;Node4 -->
<g id="edge54" class="edge">
<title>Node23&#45;&gt;Node4</title>
<path fill="none" stroke="midnightblue" d="M1168.64,-251.99C1153.59,-242.89 1130.21,-227.41 1113.5,-210 1092.84,-188.48 1090.77,-180.2 1076.5,-154 1053.75,-112.23 1070.27,-86.17 1033.5,-56 1010.96,-37.5 936.27,-24.49 883.82,-17.37"/>
<polygon fill="midnightblue" stroke="midnightblue" points="884.02,-13.87 873.65,-16.02 883.1,-20.8 884.02,-13.87"/>
</g>
<!-- Node24 -->
<g id="node24" class="node">
<title>Node24</title>
<g id="a_node24"><a xlink:href="type__traits_8hpp.html" target="_top" xlink:title=" ">
<polygon fill="none" stroke="black" points="1122,-190.5 1122,-209.5 1245,-209.5 1245,-190.5 1122,-190.5"/>
<text text-anchor="middle" x="1183.5" y="-197.5" font-family="Helvetica,sans-Serif" font-size="10.00">yaclib/util/type_traits.hpp</text>
</a>
</g>
</g>
<!-- Node23&#45;&gt;Node24 -->
<g id="edge55" class="edge">
<title>Node23&#45;&gt;Node24</title>
<path fill="none" stroke="midnightblue" d="M1183.5,-251.98C1183.5,-243.58 1183.5,-230.48 1183.5,-219.66"/>
<polygon fill="midnightblue" stroke="midnightblue" points="1187,-219.51 1183.5,-209.51 1180,-219.51 1187,-219.51"/>
</g>
<!-- Node27 -->
<g id="node27" class="node">
<title>Node27</title>
<g id="a_node27"><a xlink:title=" ">
<polygon fill="none" stroke="#bfbfbf" points="1285.5,-129 1285.5,-148 1343.5,-148 1343.5,-129 1285.5,-129"/>
<text text-anchor="middle" x="1314.5" y="-136" font-family="Helvetica,sans-Serif" font-size="10.00">exception</text>
</a>
</g>
</g>
<!-- Node23&#45;&gt;Node27 -->
<g id="edge64" class="edge">
<title>Node23&#45;&gt;Node27</title>
<path fill="none" stroke="midnightblue" d="M1197.61,-251.94C1212.51,-242.58 1236.33,-226.66 1254.5,-210 1272.55,-193.45 1290.37,-171.63 1301.84,-156.67"/>
<polygon fill="midnightblue" stroke="midnightblue" points="1304.88,-158.44 1308.1,-148.35 1299.29,-154.23 1304.88,-158.44"/>
</g>
<!-- Node28 -->
<g id="node28" class="node">
<title>Node28</title>
<g id="a_node28"><a xlink:title=" ">
<polygon fill="none" stroke="#bfbfbf" points="1301.5,-190.5 1301.5,-209.5 1347.5,-209.5 1347.5,-190.5 1301.5,-190.5"/>
<text text-anchor="middle" x="1324.5" y="-197.5" font-family="Helvetica,sans-Serif" font-size="10.00">variant</text>
</a>
</g>
</g>
<!-- Node23&#45;&gt;Node28 -->
<g id="edge65" class="edge">
<title>Node23&#45;&gt;Node28</title>
<path fill="none" stroke="midnightblue" d="M1203.7,-251.98C1227.57,-241.9 1267.5,-225.05 1294.87,-213.5"/>
<polygon fill="midnightblue" stroke="midnightblue" points="1296.48,-216.62 1304.34,-209.51 1293.76,-210.17 1296.48,-216.62"/>
</g>
<!-- Node24&#45;&gt;Node4 -->
<g id="edge56" class="edge">
<title>Node24&#45;&gt;Node4</title>
<path fill="none" stroke="midnightblue" d="M1189.25,-190.05C1197.94,-175.28 1212.24,-145.24 1200.5,-123 1175.88,-76.34 1151.47,-75.65 1102.5,-56 1030.31,-27.04 940.23,-16.71 883.76,-13.03"/>
<polygon fill="midnightblue" stroke="midnightblue" points="883.81,-9.53 873.62,-12.42 883.39,-16.52 883.81,-9.53"/>
</g>
<!-- Node24&#45;&gt;Node9 -->
<g id="edge63" class="edge">
<title>Node24&#45;&gt;Node9</title>
<path fill="none" stroke="midnightblue" d="M1150.61,-190.4C1064.8,-167.98 834.27,-107.72 740.26,-83.15"/>
<polygon fill="midnightblue" stroke="midnightblue" points="741.1,-79.76 730.54,-80.61 739.33,-86.53 741.1,-79.76"/>
</g>
<!-- Node25 -->
<g id="node25" class="node">
<title>Node25</title>
<g id="a_node25"><a xlink:href="fwd_8hpp.html" target="_top" xlink:title=" ">
<polygon fill="none" stroke="black" points="1247.5,-62 1247.5,-81 1325.5,-81 1325.5,-62 1247.5,-62"/>
<text text-anchor="middle" x="1286.5" y="-69" font-family="Helvetica,sans-Serif" font-size="10.00">yaclib/fwd.hpp</text>
</a>
</g>
</g>
<!-- Node24&#45;&gt;Node25 -->
<g id="edge57" class="edge">
<title>Node24&#45;&gt;Node25</title>
<path fill="none" stroke="midnightblue" d="M1194.6,-190.43C1205.27,-181.88 1221.51,-168.03 1233.5,-154 1250.92,-133.62 1267.12,-107.16 1276.92,-90.01"/>
<polygon fill="midnightblue" stroke="midnightblue" points="1280.07,-91.53 1281.9,-81.1 1273.96,-88.11 1280.07,-91.53"/>
</g>
<!-- Node26 -->
<g id="node26" class="node">
<title>Node26</title>
<g id="a_node26"><a xlink:href="type__traits__impl_8hpp.html" target="_top" xlink:title=" ">
<polygon fill="none" stroke="black" points="1085.5,-123.5 1085.5,-153.5 1191.5,-153.5 1191.5,-123.5 1085.5,-123.5"/>
<text text-anchor="start" x="1093.5" y="-141.5" font-family="Helvetica,sans-Serif" font-size="10.00">yaclib/util/detail</text>
<text text-anchor="middle" x="1138.5" y="-130.5" font-family="Helvetica,sans-Serif" font-size="10.00">/type_traits_impl.hpp</text>
</a>
</g>
</g>
<!-- Node24&#45;&gt;Node26 -->
<g id="edge59" class="edge">
<title>Node24&#45;&gt;Node26</title>
<path fill="none" stroke="midnightblue" d="M1177.05,-190.48C1171.36,-182.94 1162.8,-171.63 1155.19,-161.57"/>
<polygon fill="midnightblue" stroke="midnightblue" points="1157.93,-159.39 1149.11,-153.52 1152.35,-163.61 1157.93,-159.39"/>
</g>
<!-- Node24&#45;&gt;Node27 -->
<g id="edge62" class="edge">
<title>Node24&#45;&gt;Node27</title>
<path fill="none" stroke="midnightblue" d="M1202.27,-190.48C1224.35,-180.45 1261.22,-163.7 1286.64,-152.15"/>
<polygon fill="midnightblue" stroke="midnightblue" points="1288.11,-155.33 1295.77,-148.01 1285.21,-148.96 1288.11,-155.33"/>
</g>
<!-- Node25&#45;&gt;Node4 -->
<g id="edge58" class="edge">
<title>Node25&#45;&gt;Node4</title>
<path fill="none" stroke="midnightblue" d="M1258.64,-62C1250.58,-59.78 1241.75,-57.58 1233.5,-56 1109.61,-32.3 961.8,-19.76 883.85,-14.35"/>
<polygon fill="midnightblue" stroke="midnightblue" points="883.99,-10.85 873.78,-13.66 883.52,-17.83 883.99,-10.85"/>
</g>
<!-- Node26&#45;&gt;Node4 -->
<g id="edge60" class="edge">
<title>Node26&#45;&gt;Node4</title>
<path fill="none" stroke="midnightblue" d="M1131.09,-123.4C1120.52,-104.76 1099.26,-72.39 1071.5,-56 1013.66,-21.85 935.62,-12.67 883.99,-10.68"/>
<polygon fill="midnightblue" stroke="midnightblue" points="883.81,-7.17 873.71,-10.36 883.6,-14.16 883.81,-7.17"/>
</g>
<!-- Node26&#45;&gt;Node9 -->
<g id="edge61" class="edge">
<title>Node26&#45;&gt;Node9</title>
<path fill="none" stroke="midnightblue" d="M1085.11,-129.59C996.43,-116.46 820.65,-90.44 740.75,-78.61"/>
<polygon fill="midnightblue" stroke="midnightblue" points="740.99,-75.1 730.58,-77.1 739.96,-82.03 740.99,-75.1"/>
</g>
</g>
</svg>
        <g id="navigator" transform="translate(0 0)" fill="#404254">
                <rect fill="#f2f5e9" fill-opacity="0.5" stroke="#606060" stroke-width=".5" x="0" y="0" width="60" height="60"/>
                <use id="zoomplus" xlink:href="#zoomPlus" x="17" y="9" onmousedown="handleZoom(evt,'in')"/>
                <use id="zoomminus" xlink:href="#zoomMin" x="42" y="9" onmousedown="handleZoom(evt,'out')"/>
                <use id="reset" xlink:href="#resetDef" x="30" y="36" onmousedown="handleReset()"/>
                <g id="arrowUp" xlink:href="#dirArrow" transform="translate(30 24)" onmousedown="handlePan(0,-1)">
                  <use xlink:href="#rim" fill="#404040">
                        <set attributeName="fill" to="#808080" begin="arrowUp.mouseover" end="arrowUp.mouseout"/>
                  </use>
                  <path fill="none" stroke="white" stroke-width="1.5" d="M0,-3.0v7 M-2.5,-0.5L0,-3.0L2.5,-0.5"/>
                </g>
                <g id="arrowRight" xlink:href="#dirArrow" transform="rotate(90) translate(36 -43)" onmousedown="handlePan(1,0)">
                  <use xlink:href="#rim" fill="#404040">
                        <set attributeName="fill" to="#808080" begin="arrowRight.mouseover" end="arrowRight.mouseout"/>
                  </use>
                  <path fill="none" stroke="white" stroke-width="1.5" d="M0,-3.0v7 M-2.5,-0.5L0,-3.0L2.5,-0.5"/>
                </g>
                <g id="arrowDown" xlink:href="#dirArrow" transform="rotate(180) translate(-30 -48)" onmousedown="handlePan(0,1)">
                  <use xlink:href="#rim" fill="#404040">
                        <set attributeName="fill" to="#808080" begin="arrowDown.mouseover" end="arrowDown.mouseout"/>
                  </use>
                  <path fill="none" stroke="white" stroke-width="1.5" d="M0,-3.0v7 M-2.5,-0.5L0,-3.0L2.5,-0.5"/>
                </g>
                <g id="arrowLeft" xlink:href="#dirArrow" transform="rotate(270) translate(-36 17)" onmousedown="handlePan(-1,0)">
                  <use xlink:href="#rim" fill="#404040">
                        <set attributeName="fill" to="#808080" begin="arrowLeft.mouseover" end="arrowLeft.mouseout"/>
                  </use>
                  <path fill="none" stroke="white" stroke-width="1.5" d="M0,-3.0v7 M-2.5,-0.5L0,-3.0L2.5,-0.5"/>
                </g>
        </g>
        <svg viewBox="0 0 15 15" width="100%" height="30px" preserveAspectRatio="xMaxYMin meet">
         <g id="arrow_out" transform="scale(0.3 0.3)">
          <a xlink:href="result__core_8hpp__incl_org.svg" target="_base">
           <rect id="button" ry="5" rx="5" y="6" x="6" height="38" width="38"
                fill="#f2f5e9" fill-opacity="0.5" stroke="#606060" stroke-width="1.0"/>
           <path id="arrow"
             d="M 11.500037,31.436501 C 11.940474,20.09759 22.043105,11.32322 32.158766,21.979434 L 37.068811,17.246167 C 37.068811,17.246167 37.088388,32 37.088388,32 L 22.160133,31.978069 C 22.160133,31.978069 26.997745,27.140456 26.997745,27.140456 C 18.528582,18.264221 13.291696,25.230495 11.500037,31.436501 z"
             style="fill:#404040;"/>
          </a>
         </g>
        </svg>
</svg>
