<?xml version="1.0" encoding="UTF-8" standalone="no"?>
<!DOCTYPE svg PUBLIC "-//W3C//DTD SVG 1.1//EN"
 "http://www.w3.org/Graphics/SVG/1.1/DTD/svg11.dtd">
<!-- Generated by graphviz version 2.50.0 (20220203.2022)
 -->
<!-- Title: src/fault/mutex/shared_mutex.cpp Pages: 1 -->
<svg width="505pt" height="408pt"
 viewBox="0.00 0.00 505.00 408.00" xmlns="http://www.w3.org/2000/svg" xmlns:xlink="http://www.w3.org/1999/xlink">
<g id="graph0" class="graph" transform="scale(1 1) rotate(0) translate(4 404)">
<title>src/fault/mutex/shared_mutex.cpp</title>
<!-- Node1 -->
<g id="node1" class="node">
<title>Node1</title>
<g id="a_node1"><a xlink:title=" ">
<polygon fill="#bfbfbf" stroke="black" points="0,-369.5 0,-399.5 113,-399.5 113,-369.5 0,-369.5"/>
<text text-anchor="start" x="8" y="-387.5" font-family="Helvetica,sans-Serif" font-size="10.00">src/fault/mutex/shared</text>
<text text-anchor="middle" x="56.5" y="-376.5" font-family="Helvetica,sans-Serif" font-size="10.00">_mutex.cpp</text>
</a>
</g>
</g>
<!-- Node2 -->
<g id="node2" class="node">
<title>Node2</title>
<g id="a_node2"><a xlink:title=" ">
<polygon fill="none" stroke="#bfbfbf" points="158.5,-0.5 158.5,-19.5 246.5,-19.5 246.5,-0.5 158.5,-0.5"/>
<text text-anchor="middle" x="202.5" y="-7.5" font-family="Helvetica,sans-Serif" font-size="10.00">yaclib/config.hpp</text>
</a>
</g>
</g>
<!-- Node1&#45;&gt;Node2 -->
<g id="edge1" class="edge">
<title>Node1&#45;&gt;Node2</title>
<path fill="none" stroke="midnightblue" d="M46.72,-369.19C31.66,-345.71 4.5,-297.07 4.5,-251.5 4.5,-251.5 4.5,-251.5 4.5,-121 4.5,-55.02 89.56,-28.27 148.18,-17.68"/>
<polygon fill="midnightblue" stroke="midnightblue" points="148.79,-21.12 158.06,-16 147.62,-14.22 148.79,-21.12"/>
</g>
<!-- Node3 -->
<g id="node3" class="node">
<title>Node3</title>
<g id="a_node3"><a xlink:href="detail_2mutex_2shared__mutex_8hpp.html" target="_top" xlink:title=" ">
<polygon fill="none" stroke="black" points="45.5,-302.5 45.5,-332.5 173.5,-332.5 173.5,-302.5 45.5,-302.5"/>
<text text-anchor="start" x="53.5" y="-320.5" font-family="Helvetica,sans-Serif" font-size="10.00">yaclib/fault/detail</text>
<text text-anchor="middle" x="109.5" y="-309.5" font-family="Helvetica,sans-Serif" font-size="10.00">/mutex/shared_mutex.hpp</text>
</a>
</g>
</g>
<!-- Node1&#45;&gt;Node3 -->
<g id="edge2" class="edge">
<title>Node1&#45;&gt;Node3</title>
<path fill="none" stroke="midnightblue" d="M68,-369.4C74.88,-360.96 83.76,-350.07 91.54,-340.52"/>
<polygon fill="midnightblue" stroke="midnightblue" points="94.42,-342.54 98.02,-332.58 88.99,-338.11 94.42,-342.54"/>
</g>
<!-- Node3&#45;&gt;Node2 -->
<g id="edge3" class="edge">
<title>Node3&#45;&gt;Node2</title>
<path fill="none" stroke="midnightblue" d="M91.96,-302.32C81.6,-293.04 69.08,-280.05 61.5,-266 43.85,-233.26 42.5,-221.69 42.5,-184.5 42.5,-184.5 42.5,-184.5 42.5,-121 42.5,-66.24 106.92,-36.68 154.01,-22.4"/>
<polygon fill="midnightblue" stroke="midnightblue" points="155.13,-25.71 163.77,-19.57 153.19,-18.99 155.13,-25.71"/>
</g>
<!-- Node4 -->
<g id="node4" class="node">
<title>Node4</title>
<g id="a_node4"><a xlink:href="inject__fault_8hpp.html" target="_top" xlink:title=" ">
<polygon fill="none" stroke="black" points="267,-235.5 267,-265.5 356,-265.5 356,-235.5 267,-235.5"/>
<text text-anchor="start" x="275" y="-253.5" font-family="Helvetica,sans-Serif" font-size="10.00">yaclib/fault/detail</text>
<text text-anchor="middle" x="311.5" y="-242.5" font-family="Helvetica,sans-Serif" font-size="10.00">/inject_fault.hpp</text>
</a>
</g>
</g>
<!-- Node3&#45;&gt;Node4 -->
<g id="edge4" class="edge">
<title>Node3&#45;&gt;Node4</title>
<path fill="none" stroke="midnightblue" d="M153.33,-302.4C184.04,-292.52 225.25,-279.25 257.91,-268.74"/>
<polygon fill="midnightblue" stroke="midnightblue" points="259.31,-271.97 267.75,-265.58 257.16,-265.31 259.31,-271.97"/>
</g>
<!-- Node12 -->
<g id="node12" class="node">
<title>Node12</title>
<g id="a_node12"><a xlink:href="log_8hpp.html" target="_top" xlink:title=" ">
<polygon fill="none" stroke="black" points="166,-241 166,-260 241,-260 241,-241 166,-241"/>
<text text-anchor="middle" x="203.5" y="-248" font-family="Helvetica,sans-Serif" font-size="10.00">yaclib/log.hpp</text>
</a>
</g>
</g>
<!-- Node3&#45;&gt;Node12 -->
<g id="edge16" class="edge">
<title>Node3&#45;&gt;Node12</title>
<path fill="none" stroke="midnightblue" d="M129.9,-302.4C145.51,-291.6 166.98,-276.76 182.69,-265.89"/>
<polygon fill="midnightblue" stroke="midnightblue" points="184.96,-268.57 191.2,-260.01 180.98,-262.82 184.96,-268.57"/>
</g>
<!-- Node14 -->
<g id="node14" class="node">
<title>Node14</title>
<g id="a_node14"><a xlink:title=" ">
<polygon fill="none" stroke="#bfbfbf" points="71,-241 71,-260 148,-260 148,-241 71,-241"/>
<text text-anchor="middle" x="109.5" y="-248" font-family="Helvetica,sans-Serif" font-size="10.00">shared_mutex</text>
</a>
</g>
</g>
<!-- Node3&#45;&gt;Node14 -->
<g id="edge19" class="edge">
<title>Node3&#45;&gt;Node14</title>
<path fill="none" stroke="midnightblue" d="M109.5,-302.4C109.5,-293.06 109.5,-280.71 109.5,-270.52"/>
<polygon fill="midnightblue" stroke="midnightblue" points="113,-270.19 109.5,-260.19 106,-270.19 113,-270.19"/>
</g>
<!-- Node4&#45;&gt;Node2 -->
<g id="edge5" class="edge">
<title>Node4&#45;&gt;Node2</title>
<path fill="none" stroke="midnightblue" d="M350.47,-235.45C391.79,-218.21 454.82,-184.6 482.5,-132 498.23,-102.11 504.41,-81.71 482.5,-56 454.12,-22.69 330.15,-13.94 257.02,-11.71"/>
<polygon fill="midnightblue" stroke="midnightblue" points="256.71,-8.2 246.62,-11.42 256.52,-15.19 256.71,-8.2"/>
</g>
<!-- Node5 -->
<g id="node5" class="node">
<title>Node5</title>
<g id="a_node5"><a xlink:href="yielder_8hpp.html" target="_top" xlink:title=" ">
<polygon fill="none" stroke="black" points="267,-168.5 267,-198.5 356,-198.5 356,-168.5 267,-168.5"/>
<text text-anchor="start" x="275" y="-186.5" font-family="Helvetica,sans-Serif" font-size="10.00">yaclib/fault/detail</text>
<text text-anchor="middle" x="311.5" y="-175.5" font-family="Helvetica,sans-Serif" font-size="10.00">/yielder.hpp</text>
</a>
</g>
</g>
<!-- Node4&#45;&gt;Node5 -->
<g id="edge6" class="edge">
<title>Node4&#45;&gt;Node5</title>
<path fill="none" stroke="midnightblue" d="M311.5,-235.4C311.5,-227.64 311.5,-217.81 311.5,-208.86"/>
<polygon fill="midnightblue" stroke="midnightblue" points="315,-208.58 311.5,-198.58 308,-208.58 315,-208.58"/>
</g>
<!-- Node5&#45;&gt;Node2 -->
<g id="edge7" class="edge">
<title>Node5&#45;&gt;Node2</title>
<path fill="none" stroke="midnightblue" d="M269.45,-168.39C251.95,-160.41 233.06,-148.62 221.5,-132 200.02,-101.12 199.16,-55.13 200.67,-29.67"/>
<polygon fill="midnightblue" stroke="midnightblue" points="204.17,-29.78 201.47,-19.54 197.19,-29.23 204.17,-29.78"/>
</g>
<!-- Node6 -->
<g id="node6" class="node">
<title>Node6</title>
<g id="a_node6"><a xlink:href="thread_8hpp.html" target="_top" xlink:title=" ">
<polygon fill="none" stroke="black" points="362,-112.5 362,-131.5 473,-131.5 473,-112.5 362,-112.5"/>
<text text-anchor="middle" x="417.5" y="-119.5" font-family="Helvetica,sans-Serif" font-size="10.00">yaclib/fault/thread.hpp</text>
</a>
</g>
</g>
<!-- Node5&#45;&gt;Node6 -->
<g id="edge8" class="edge">
<title>Node5&#45;&gt;Node6</title>
<path fill="none" stroke="midnightblue" d="M336.62,-168.4C353.77,-158.77 376.36,-146.09 393.31,-136.58"/>
<polygon fill="midnightblue" stroke="midnightblue" points="395.07,-139.6 402.08,-131.66 391.64,-133.5 395.07,-139.6"/>
</g>
<!-- Node10 -->
<g id="node10" class="node">
<title>Node10</title>
<g id="a_node10"><a xlink:title=" ">
<polygon fill="none" stroke="#bfbfbf" points="230.5,-112.5 230.5,-131.5 276.5,-131.5 276.5,-112.5 230.5,-112.5"/>
<text text-anchor="middle" x="253.5" y="-119.5" font-family="Helvetica,sans-Serif" font-size="10.00">atomic</text>
</a>
</g>
</g>
<!-- Node5&#45;&gt;Node10 -->
<g id="edge14" class="edge">
<title>Node5&#45;&gt;Node10</title>
<path fill="none" stroke="midnightblue" d="M297.75,-168.4C289.15,-159.58 278.05,-148.18 269.11,-139.02"/>
<polygon fill="midnightblue" stroke="midnightblue" points="271.43,-136.38 261.94,-131.66 266.41,-141.26 271.43,-136.38"/>
</g>
<!-- Node11 -->
<g id="node11" class="node">
<title>Node11</title>
<g id="a_node11"><a xlink:title=" ">
<polygon fill="none" stroke="#bfbfbf" points="295,-112.5 295,-131.5 344,-131.5 344,-112.5 295,-112.5"/>
<text text-anchor="middle" x="319.5" y="-119.5" font-family="Helvetica,sans-Serif" font-size="10.00">random</text>
</a>
</g>
</g>
<!-- Node5&#45;&gt;Node11 -->
<g id="edge15" class="edge">
<title>Node5&#45;&gt;Node11</title>
<path fill="none" stroke="midnightblue" d="M313.4,-168.4C314.47,-160.38 315.84,-150.23 317,-141.57"/>
<polygon fill="midnightblue" stroke="midnightblue" points="320.47,-142.04 318.34,-131.66 313.53,-141.1 320.47,-142.04"/>
</g>
<!-- Node6&#45;&gt;Node2 -->
<g id="edge9" class="edge">
<title>Node6&#45;&gt;Node2</title>
<path fill="none" stroke="midnightblue" d="M384.25,-112.5C357.47,-104.93 319.35,-92.51 288.5,-76 262.65,-62.16 236.22,-40.91 219.61,-26.51"/>
<polygon fill="midnightblue" stroke="midnightblue" points="221.69,-23.67 211.88,-19.68 217.06,-28.92 221.69,-23.67"/>
</g>
<!-- Node7 -->
<g id="node7" class="node">
<title>Node7</title>
<g id="a_node7"><a xlink:href="chrono_8hpp.html" target="_top" xlink:title=" ">
<polygon fill="none" stroke="black" points="360,-56.5 360,-75.5 473,-75.5 473,-56.5 360,-56.5"/>
<text text-anchor="middle" x="416.5" y="-63.5" font-family="Helvetica,sans-Serif" font-size="10.00">yaclib/fault/chrono.hpp</text>
</a>
</g>
</g>
<!-- Node6&#45;&gt;Node7 -->
<g id="edge10" class="edge">
<title>Node6&#45;&gt;Node7</title>
<path fill="none" stroke="midnightblue" d="M417.33,-112.08C417.2,-105.01 417.02,-94.86 416.85,-85.99"/>
<polygon fill="midnightblue" stroke="midnightblue" points="420.35,-85.68 416.66,-75.75 413.35,-85.81 420.35,-85.68"/>
</g>
<!-- Node9 -->
<g id="node9" class="node">
<title>Node9</title>
<g id="a_node9"><a xlink:title=" ">
<polygon fill="none" stroke="#bfbfbf" points="297.5,-56.5 297.5,-75.5 341.5,-75.5 341.5,-56.5 297.5,-56.5"/>
<text text-anchor="middle" x="319.5" y="-63.5" font-family="Helvetica,sans-Serif" font-size="10.00">thread</text>
</a>
</g>
</g>
<!-- Node6&#45;&gt;Node9 -->
<g id="edge13" class="edge">
<title>Node6&#45;&gt;Node9</title>
<path fill="none" stroke="midnightblue" d="M401.75,-112.32C386.18,-103.74 362.12,-90.49 344.04,-80.52"/>
<polygon fill="midnightblue" stroke="midnightblue" points="345.65,-77.42 335.21,-75.65 342.28,-83.55 345.65,-77.42"/>
</g>
<!-- Node7&#45;&gt;Node2 -->
<g id="edge11" class="edge">
<title>Node7&#45;&gt;Node2</title>
<path fill="none" stroke="midnightblue" d="M382.59,-56.44C345.65,-47.12 286.45,-32.18 246.08,-22"/>
<polygon fill="midnightblue" stroke="midnightblue" points="246.8,-18.57 236.25,-19.52 245.09,-25.36 246.8,-18.57"/>
</g>
<!-- Node8 -->
<g id="node8" class="node">
<title>Node8</title>
<g id="a_node8"><a xlink:title=" ">
<polygon fill="none" stroke="#bfbfbf" points="393.5,-0.5 393.5,-19.5 439.5,-19.5 439.5,-0.5 393.5,-0.5"/>
<text text-anchor="middle" x="416.5" y="-7.5" font-family="Helvetica,sans-Serif" font-size="10.00">chrono</text>
</a>
</g>
</g>
<!-- Node7&#45;&gt;Node8 -->
<g id="edge12" class="edge">
<title>Node7&#45;&gt;Node8</title>
<path fill="none" stroke="midnightblue" d="M416.5,-56.08C416.5,-49.01 416.5,-38.86 416.5,-29.99"/>
<polygon fill="midnightblue" stroke="midnightblue" points="420,-29.75 416.5,-19.75 413,-29.75 420,-29.75"/>
</g>
<!-- Node12&#45;&gt;Node2 -->
<g id="edge17" class="edge">
<title>Node12&#45;&gt;Node2</title>
<path fill="none" stroke="midnightblue" d="M202.53,-240.62C199.68,-213.14 191.78,-127.11 196.5,-56 197.07,-47.34 198.27,-37.81 199.44,-29.75"/>
<polygon fill="midnightblue" stroke="midnightblue" points="202.94,-30.01 201.01,-19.59 196.02,-28.94 202.94,-30.01"/>
</g>
<!-- Node13 -->
<g id="node13" class="node">
<title>Node13</title>
<g id="a_node13"><a xlink:title=" ">
<polygon fill="none" stroke="#bfbfbf" points="70.5,-174 70.5,-193 136.5,-193 136.5,-174 70.5,-174"/>
<text text-anchor="middle" x="103.5" y="-181" font-family="Helvetica,sans-Serif" font-size="10.00">string_view</text>
</a>
</g>
</g>
<!-- Node12&#45;&gt;Node13 -->
<g id="edge18" class="edge">
<title>Node12&#45;&gt;Node13</title>
<path fill="none" stroke="midnightblue" d="M190.01,-240.73C173.45,-229.96 145.12,-211.55 125.41,-198.74"/>
<polygon fill="midnightblue" stroke="midnightblue" points="127.06,-195.64 116.77,-193.13 123.25,-201.51 127.06,-195.64"/>
</g>
</g>
</svg>
