<?xml version="1.0" encoding="UTF-8" standalone="no"?>
<!DOCTYPE svg PUBLIC "-//W3C//DTD SVG 1.1//EN"
 "http://www.w3.org/Graphics/SVG/1.1/DTD/svg11.dtd">
<!-- Generated by graphviz version 2.50.0 (20220203.2022)
 -->
<!-- Title: src/fault/mutex/shared_timed_mutex.cpp Pages: 1 -->
<svg width="564pt" height="419pt"
 viewBox="0.00 0.00 563.50 419.00" xmlns="http://www.w3.org/2000/svg" xmlns:xlink="http://www.w3.org/1999/xlink">
<g id="graph0" class="graph" transform="scale(1 1) rotate(0) translate(4 415)">
<title>src/fault/mutex/shared_timed_mutex.cpp</title>
<!-- Node1 -->
<g id="node1" class="node">
<title>Node1</title>
<g id="a_node1"><a xlink:title=" ">
<polygon fill="#bfbfbf" stroke="black" points="380,-380.5 380,-410.5 493,-410.5 493,-380.5 380,-380.5"/>
<text text-anchor="start" x="388" y="-398.5" font-family="Helvetica,sans-Serif" font-size="10.00">src/fault/mutex/shared</text>
<text text-anchor="middle" x="436.5" y="-387.5" font-family="Helvetica,sans-Serif" font-size="10.00">_timed_mutex.cpp</text>
</a>
</g>
</g>
<!-- Node2 -->
<g id="node2" class="node">
<title>Node2</title>
<g id="a_node2"><a xlink:title=" ">
<polygon fill="none" stroke="#bfbfbf" points="196.5,-0.5 196.5,-19.5 284.5,-19.5 284.5,-0.5 196.5,-0.5"/>
<text text-anchor="middle" x="240.5" y="-7.5" font-family="Helvetica,sans-Serif" font-size="10.00">yaclib/config.hpp</text>
</a>
</g>
</g>
<!-- Node1&#45;&gt;Node2 -->
<g id="edge1" class="edge">
<title>Node1&#45;&gt;Node2</title>
<path fill="none" stroke="midnightblue" d="M460.3,-380.48C495.02,-358.02 555.5,-310.44 555.5,-251.5 555.5,-251.5 555.5,-251.5 555.5,-121 555.5,-73.09 513.24,-75.56 469.5,-56 413.16,-30.8 342.79,-19.66 295.04,-14.76"/>
<polygon fill="midnightblue" stroke="midnightblue" points="295.19,-11.26 284.9,-13.78 294.52,-18.23 295.19,-11.26"/>
</g>
<!-- Node3 -->
<g id="node3" class="node">
<title>Node3</title>
<g id="a_node3"><a xlink:href="shared__timed__mutex_8hpp.html" target="_top" xlink:title=" ">
<polygon fill="none" stroke="black" points="317,-302.5 317,-343.5 424,-343.5 424,-302.5 317,-302.5"/>
<text text-anchor="start" x="325" y="-331.5" font-family="Helvetica,sans-Serif" font-size="10.00">yaclib/fault/detail</text>
<text text-anchor="start" x="325" y="-320.5" font-family="Helvetica,sans-Serif" font-size="10.00">/mutex/shared_timed</text>
<text text-anchor="middle" x="370.5" y="-309.5" font-family="Helvetica,sans-Serif" font-size="10.00">_mutex.hpp</text>
</a>
</g>
</g>
<!-- Node1&#45;&gt;Node3 -->
<g id="edge2" class="edge">
<title>Node1&#45;&gt;Node3</title>
<path fill="none" stroke="midnightblue" d="M423.14,-380.23C415.28,-371.83 405.08,-360.93 395.75,-350.97"/>
<polygon fill="midnightblue" stroke="midnightblue" points="398.23,-348.5 388.84,-343.59 393.12,-353.28 398.23,-348.5"/>
</g>
<!-- Node3&#45;&gt;Node2 -->
<g id="edge3" class="edge">
<title>Node3&#45;&gt;Node2</title>
<path fill="none" stroke="midnightblue" d="M416.21,-302.49C459.36,-280.64 517.5,-240.76 517.5,-184.5 517.5,-184.5 517.5,-184.5 517.5,-121 517.5,-71.66 472.33,-76.61 427.5,-56 385.03,-36.48 333.09,-24.85 294.73,-18.32"/>
<polygon fill="midnightblue" stroke="midnightblue" points="295.23,-14.86 284.79,-16.69 294.1,-21.76 295.23,-14.86"/>
</g>
<!-- Node4 -->
<g id="node4" class="node">
<title>Node4</title>
<g id="a_node4"><a xlink:href="chrono_8hpp.html" target="_top" xlink:title=" ">
<polygon fill="none" stroke="black" points="0,-56.5 0,-75.5 113,-75.5 113,-56.5 0,-56.5"/>
<text text-anchor="middle" x="56.5" y="-63.5" font-family="Helvetica,sans-Serif" font-size="10.00">yaclib/fault/chrono.hpp</text>
</a>
</g>
</g>
<!-- Node3&#45;&gt;Node4 -->
<g id="edge4" class="edge">
<title>Node3&#45;&gt;Node4</title>
<path fill="none" stroke="midnightblue" d="M316.96,-317.97C273.81,-312.31 213.59,-298.7 171.5,-266 109,-217.44 74.31,-124.66 61.86,-85.34"/>
<polygon fill="midnightblue" stroke="midnightblue" points="65.2,-84.29 58.93,-75.75 58.5,-86.34 65.2,-84.29"/>
</g>
<!-- Node6 -->
<g id="node6" class="node">
<title>Node6</title>
<g id="a_node6"><a xlink:href="inject__fault_8hpp.html" target="_top" xlink:title=" ">
<polygon fill="none" stroke="black" points="276,-235.5 276,-265.5 365,-265.5 365,-235.5 276,-235.5"/>
<text text-anchor="start" x="284" y="-253.5" font-family="Helvetica,sans-Serif" font-size="10.00">yaclib/fault/detail</text>
<text text-anchor="middle" x="320.5" y="-242.5" font-family="Helvetica,sans-Serif" font-size="10.00">/inject_fault.hpp</text>
</a>
</g>
</g>
<!-- Node3&#45;&gt;Node6 -->
<g id="edge7" class="edge">
<title>Node3&#45;&gt;Node6</title>
<path fill="none" stroke="midnightblue" d="M356.57,-302.36C350.35,-293.59 342.99,-283.21 336.54,-274.12"/>
<polygon fill="midnightblue" stroke="midnightblue" points="339.35,-272.02 330.71,-265.89 333.64,-276.07 339.35,-272.02"/>
</g>
<!-- Node12 -->
<g id="node12" class="node">
<title>Node12</title>
<g id="a_node12"><a xlink:href="log_8hpp.html" target="_top" xlink:title=" ">
<polygon fill="none" stroke="black" points="383,-241 383,-260 458,-260 458,-241 383,-241"/>
<text text-anchor="middle" x="420.5" y="-248" font-family="Helvetica,sans-Serif" font-size="10.00">yaclib/log.hpp</text>
</a>
</g>
</g>
<!-- Node3&#45;&gt;Node12 -->
<g id="edge17" class="edge">
<title>Node3&#45;&gt;Node12</title>
<path fill="none" stroke="midnightblue" d="M384.43,-302.36C391.95,-291.76 401.15,-278.79 408.37,-268.6"/>
<polygon fill="midnightblue" stroke="midnightblue" points="411.42,-270.35 414.35,-260.17 405.71,-266.31 411.42,-270.35"/>
</g>
<!-- Node14 -->
<g id="node14" class="node">
<title>Node14</title>
<g id="a_node14"><a xlink:title=" ">
<polygon fill="none" stroke="#bfbfbf" points="181,-241 181,-260 258,-260 258,-241 181,-241"/>
<text text-anchor="middle" x="219.5" y="-248" font-family="Helvetica,sans-Serif" font-size="10.00">shared_mutex</text>
</a>
</g>
</g>
<!-- Node3&#45;&gt;Node14 -->
<g id="edge20" class="edge">
<title>Node3&#45;&gt;Node14</title>
<path fill="none" stroke="midnightblue" d="M328.44,-302.36C302.48,-290.24 269.91,-275.03 247.17,-264.42"/>
<polygon fill="midnightblue" stroke="midnightblue" points="248.62,-261.23 238.08,-260.17 245.66,-267.58 248.62,-261.23"/>
</g>
<!-- Node4&#45;&gt;Node2 -->
<g id="edge5" class="edge">
<title>Node4&#45;&gt;Node2</title>
<path fill="none" stroke="midnightblue" d="M85.66,-56.44C117.01,-47.24 167.03,-32.56 201.7,-22.39"/>
<polygon fill="midnightblue" stroke="midnightblue" points="202.87,-25.69 211.48,-19.52 200.9,-18.97 202.87,-25.69"/>
</g>
<!-- Node5 -->
<g id="node5" class="node">
<title>Node5</title>
<g id="a_node5"><a xlink:title=" ">
<polygon fill="none" stroke="#bfbfbf" points="33.5,-0.5 33.5,-19.5 79.5,-19.5 79.5,-0.5 33.5,-0.5"/>
<text text-anchor="middle" x="56.5" y="-7.5" font-family="Helvetica,sans-Serif" font-size="10.00">chrono</text>
</a>
</g>
</g>
<!-- Node4&#45;&gt;Node5 -->
<g id="edge6" class="edge">
<title>Node4&#45;&gt;Node5</title>
<path fill="none" stroke="midnightblue" d="M56.5,-56.08C56.5,-49.01 56.5,-38.86 56.5,-29.99"/>
<polygon fill="midnightblue" stroke="midnightblue" points="60,-29.75 56.5,-19.75 53,-29.75 60,-29.75"/>
</g>
<!-- Node6&#45;&gt;Node2 -->
<g id="edge8" class="edge">
<title>Node6&#45;&gt;Node2</title>
<path fill="none" stroke="midnightblue" d="M293.97,-235.45C261.83,-216.75 209.28,-180.31 187.5,-132 180.8,-117.13 183.57,-76.2 193.5,-56 199.36,-44.08 209.75,-33.62 219.27,-25.79"/>
<polygon fill="midnightblue" stroke="midnightblue" points="221.5,-28.49 227.28,-19.62 217.23,-22.95 221.5,-28.49"/>
</g>
<!-- Node7 -->
<g id="node7" class="node">
<title>Node7</title>
<g id="a_node7"><a xlink:href="yielder_8hpp.html" target="_top" xlink:title=" ">
<polygon fill="none" stroke="black" points="276,-168.5 276,-198.5 365,-198.5 365,-168.5 276,-168.5"/>
<text text-anchor="start" x="284" y="-186.5" font-family="Helvetica,sans-Serif" font-size="10.00">yaclib/fault/detail</text>
<text text-anchor="middle" x="320.5" y="-175.5" font-family="Helvetica,sans-Serif" font-size="10.00">/yielder.hpp</text>
</a>
</g>
</g>
<!-- Node6&#45;&gt;Node7 -->
<g id="edge9" class="edge">
<title>Node6&#45;&gt;Node7</title>
<path fill="none" stroke="midnightblue" d="M320.5,-235.4C320.5,-227.64 320.5,-217.81 320.5,-208.86"/>
<polygon fill="midnightblue" stroke="midnightblue" points="324,-208.58 320.5,-198.58 317,-208.58 324,-208.58"/>
</g>
<!-- Node7&#45;&gt;Node2 -->
<g id="edge10" class="edge">
<title>Node7&#45;&gt;Node2</title>
<path fill="none" stroke="midnightblue" d="M275.72,-176.49C248.44,-170.27 215.63,-157.63 198.5,-132 176.16,-98.58 206.32,-52.01 225.97,-27.54"/>
<polygon fill="midnightblue" stroke="midnightblue" points="228.89,-29.5 232.62,-19.59 223.52,-25.01 228.89,-29.5"/>
</g>
<!-- Node8 -->
<g id="node8" class="node">
<title>Node8</title>
<g id="a_node8"><a xlink:href="thread_8hpp.html" target="_top" xlink:title=" ">
<polygon fill="none" stroke="black" points="208,-112.5 208,-131.5 319,-131.5 319,-112.5 208,-112.5"/>
<text text-anchor="middle" x="263.5" y="-119.5" font-family="Helvetica,sans-Serif" font-size="10.00">yaclib/fault/thread.hpp</text>
</a>
</g>
</g>
<!-- Node7&#45;&gt;Node8 -->
<g id="edge11" class="edge">
<title>Node7&#45;&gt;Node8</title>
<path fill="none" stroke="midnightblue" d="M306.99,-168.4C298.54,-159.58 287.62,-148.18 278.84,-139.02"/>
<polygon fill="midnightblue" stroke="midnightblue" points="281.24,-136.46 271.79,-131.66 276.18,-141.3 281.24,-136.46"/>
</g>
<!-- Node10 -->
<g id="node10" class="node">
<title>Node10</title>
<g id="a_node10"><a xlink:title=" ">
<polygon fill="none" stroke="#bfbfbf" points="337.5,-112.5 337.5,-131.5 383.5,-131.5 383.5,-112.5 337.5,-112.5"/>
<text text-anchor="middle" x="360.5" y="-119.5" font-family="Helvetica,sans-Serif" font-size="10.00">atomic</text>
</a>
</g>
</g>
<!-- Node7&#45;&gt;Node10 -->
<g id="edge15" class="edge">
<title>Node7&#45;&gt;Node10</title>
<path fill="none" stroke="midnightblue" d="M329.98,-168.4C335.67,-159.93 342.95,-149.1 348.98,-140.14"/>
<polygon fill="midnightblue" stroke="midnightblue" points="352.01,-141.91 354.68,-131.66 346.2,-138 352.01,-141.91"/>
</g>
<!-- Node11 -->
<g id="node11" class="node">
<title>Node11</title>
<g id="a_node11"><a xlink:title=" ">
<polygon fill="none" stroke="#bfbfbf" points="402,-112.5 402,-131.5 451,-131.5 451,-112.5 402,-112.5"/>
<text text-anchor="middle" x="426.5" y="-119.5" font-family="Helvetica,sans-Serif" font-size="10.00">random</text>
</a>
</g>
</g>
<!-- Node7&#45;&gt;Node11 -->
<g id="edge16" class="edge">
<title>Node7&#45;&gt;Node11</title>
<path fill="none" stroke="midnightblue" d="M345.62,-168.4C362.77,-158.77 385.36,-146.09 402.31,-136.58"/>
<polygon fill="midnightblue" stroke="midnightblue" points="404.07,-139.6 411.08,-131.66 400.64,-133.5 404.07,-139.6"/>
</g>
<!-- Node8&#45;&gt;Node2 -->
<g id="edge12" class="edge">
<title>Node8&#45;&gt;Node2</title>
<path fill="none" stroke="midnightblue" d="M261.7,-112.37C257.98,-94.62 249.42,-53.67 244.39,-29.6"/>
<polygon fill="midnightblue" stroke="midnightblue" points="247.77,-28.66 242.3,-19.59 240.92,-30.1 247.77,-28.66"/>
</g>
<!-- Node8&#45;&gt;Node4 -->
<g id="edge13" class="edge">
<title>Node8&#45;&gt;Node4</title>
<path fill="none" stroke="midnightblue" d="M230.7,-112.44C195.12,-103.16 138.19,-88.31 99.15,-78.13"/>
<polygon fill="midnightblue" stroke="midnightblue" points="99.71,-74.65 89.15,-75.52 97.94,-81.43 99.71,-74.65"/>
</g>
<!-- Node9 -->
<g id="node9" class="node">
<title>Node9</title>
<g id="a_node9"><a xlink:title=" ">
<polygon fill="none" stroke="#bfbfbf" points="268.5,-56.5 268.5,-75.5 312.5,-75.5 312.5,-56.5 268.5,-56.5"/>
<text text-anchor="middle" x="290.5" y="-63.5" font-family="Helvetica,sans-Serif" font-size="10.00">thread</text>
</a>
</g>
</g>
<!-- Node8&#45;&gt;Node9 -->
<g id="edge14" class="edge">
<title>Node8&#45;&gt;Node9</title>
<path fill="none" stroke="midnightblue" d="M267.96,-112.08C271.65,-104.69 277.02,-93.95 281.59,-84.81"/>
<polygon fill="midnightblue" stroke="midnightblue" points="284.78,-86.26 286.12,-75.75 278.52,-83.13 284.78,-86.26"/>
</g>
<!-- Node12&#45;&gt;Node2 -->
<g id="edge18" class="edge">
<title>Node12&#45;&gt;Node2</title>
<path fill="none" stroke="midnightblue" d="M430.31,-241C440.11,-231.79 454.54,-216.11 460.5,-199 473.21,-162.48 481.37,-144.55 460.5,-112 424.16,-55.33 347.17,-30.04 294.62,-19.04"/>
<polygon fill="midnightblue" stroke="midnightblue" points="295.27,-15.6 284.78,-17.09 293.91,-22.47 295.27,-15.6"/>
</g>
<!-- Node13 -->
<g id="node13" class="node">
<title>Node13</title>
<g id="a_node13"><a xlink:title=" ">
<polygon fill="none" stroke="#bfbfbf" points="385.5,-174 385.5,-193 451.5,-193 451.5,-174 385.5,-174"/>
<text text-anchor="middle" x="418.5" y="-181" font-family="Helvetica,sans-Serif" font-size="10.00">string_view</text>
</a>
</g>
</g>
<!-- Node12&#45;&gt;Node13 -->
<g id="edge19" class="edge">
<title>Node12&#45;&gt;Node13</title>
<path fill="none" stroke="midnightblue" d="M420.23,-240.73C419.94,-231.18 419.46,-215.62 419.08,-203.28"/>
<polygon fill="midnightblue" stroke="midnightblue" points="422.57,-203.01 418.77,-193.13 415.57,-203.23 422.57,-203.01"/>
</g>
</g>
</svg>
