<?xml version="1.0" encoding="UTF-8" standalone="no"?>
<!DOCTYPE svg PUBLIC "-//W3C//DTD SVG 1.1//EN"
 "http://www.w3.org/Graphics/SVG/1.1/DTD/svg11.dtd">
<!-- Generated by graphviz version 2.50.0 (20220203.2022)
 -->
<!-- Title: include/yaclib/fault/detail/mutex/shared_timed_mutex.hpp Pages: 1 -->
<!--zoomable 352 -->
<svg id="main" version="1.1" xmlns="http://www.w3.org/2000/svg" xmlns:xlink="http://www.w3.org/1999/xlink" xml:space="preserve" onload="init(evt)">
<style type="text/css"><![CDATA[
.edge:hover path { stroke: red; }
.edge:hover polygon { stroke: red; fill: red; }
]]></style>
<script type="text/javascript"><![CDATA[
var edges = document.getElementsByTagName('g');
if (edges && edges.length) {
  for (var i=0;i<edges.length;i++) {
    if (edges[i].id.substr(0,4)=='edge') {
      edges[i].setAttribute('class','edge');
    }
  }
}
]]></script>
        <defs>
                <circle id="rim" cx="0" cy="0" r="7"/>
                <circle id="rim2" cx="0" cy="0" r="3.5"/>
                <g id="zoomPlus">
                        <use xlink:href="#rim" fill="#404040">
                                <set attributeName="fill" to="#808080" begin="zoomplus.mouseover" end="zoomplus.mouseout"/>
                        </use>
                        <path d="M-4,0h8M0,-4v8" fill="none" stroke="white" stroke-width="1.5" pointer-events="none"/>
                </g>
                <g id="zoomMin">
                        <use xlink:href="#rim" fill="#404040">
                                <set attributeName="fill" to="#808080" begin="zoomminus.mouseover" end="zoomminus.mouseout"/>
                        </use>
                        <path d="M-4,0h8" fill="none" stroke="white" stroke-width="1.5" pointer-events="none"/>
                </g>
                <g id="dirArrow">
                        <path fill="none" stroke="white" stroke-width="1.5" d="M0,-3.0v7 M-2.5,-0.5L0,-3.0L2.5,-0.5"/>
                </g>
               <g id="resetDef">
                       <use xlink:href="#rim2" fill="#404040">
                               <set attributeName="fill" to="#808080" begin="reset.mouseover" end="reset.mouseout"/>
                       </use>
               </g>
        </defs>

<script type="text/javascript">
var viewWidth = 646;
var viewHeight = 352;
var sectionId = 'dynsection-0';
</script>
<script xlink:href="svgpan.js"/>
<svg id="graph" class="graph">
<g id="viewport">
<title>include/yaclib/fault/detail/mutex/shared_timed_mutex.hpp</title>
<!-- Node1 -->
<g id="node1" class="node">
<title>Node1</title>
<g id="a_node1"><a xlink:title=" ">
<polygon fill="#bfbfbf" stroke="black" points="414.5,-302.5 414.5,-343.5 518.5,-343.5 518.5,-302.5 414.5,-302.5"/>
<text text-anchor="start" x="422.5" y="-331.5" font-family="Helvetica,sans-Serif" font-size="10.00">include/yaclib/fault</text>
<text text-anchor="start" x="422.5" y="-320.5" font-family="Helvetica,sans-Serif" font-size="10.00">/detail/mutex/shared</text>
<text text-anchor="middle" x="466.5" y="-309.5" font-family="Helvetica,sans-Serif" font-size="10.00">_timed_mutex.hpp</text>
</a>
</g>
</g>
<!-- Node2 -->
<g id="node2" class="node">
<title>Node2</title>
<g id="a_node2"><a xlink:title=" ">
<polygon fill="none" stroke="#bfbfbf" points="274.5,-0.5 274.5,-19.5 362.5,-19.5 362.5,-0.5 274.5,-0.5"/>
<text text-anchor="middle" x="318.5" y="-7.5" font-family="Helvetica,sans-Serif" font-size="10.00">yaclib/config.hpp</text>
</a>
</g>
</g>
<!-- Node1&#45;&gt;Node2 -->
<g id="edge1" class="edge">
<title>Node1&#45;&gt;Node2</title>
<path fill="none" stroke="midnightblue" d="M486.91,-302.4C496.29,-292.34 506.8,-279.4 513.5,-266 530.13,-232.73 532.5,-221.69 532.5,-184.5 532.5,-184.5 532.5,-184.5 532.5,-121 532.5,-49.28 436.24,-24.28 372.84,-15.6"/>
<polygon fill="midnightblue" stroke="midnightblue" points="372.94,-12.08 362.58,-14.29 372.06,-19.03 372.94,-12.08"/>
</g>
<!-- Node3 -->
<g id="node3" class="node">
<title>Node3</title>
<g id="a_node3"><a xlink:href="chrono_8hpp.html" target="_top" xlink:title=" ">
<polygon fill="none" stroke="black" points="0,-56.5 0,-75.5 113,-75.5 113,-56.5 0,-56.5"/>
<text text-anchor="middle" x="56.5" y="-63.5" font-family="Helvetica,sans-Serif" font-size="10.00">yaclib/fault/chrono.hpp</text>
</a>
</g>
</g>
<!-- Node1&#45;&gt;Node3 -->
<g id="edge2" class="edge">
<title>Node1&#45;&gt;Node3</title>
<path fill="none" stroke="midnightblue" d="M414.3,-305.45C384.06,-295.27 345.56,-281.27 312.5,-266 202.99,-215.43 152.01,-226.06 76.5,-132 65.77,-118.63 60.78,-99.52 58.47,-85.48"/>
<polygon fill="midnightblue" stroke="midnightblue" points="61.93,-84.96 57.13,-75.51 54.99,-85.89 61.93,-84.96"/>
</g>
<!-- Node5 -->
<g id="node5" class="node">
<title>Node5</title>
<g id="a_node5"><a xlink:href="inject__fault_8hpp.html" target="_top" xlink:title=" ">
<polygon fill="none" stroke="black" points="322,-235.5 322,-265.5 411,-265.5 411,-235.5 322,-235.5"/>
<text text-anchor="start" x="330" y="-253.5" font-family="Helvetica,sans-Serif" font-size="10.00">yaclib/fault/detail</text>
<text text-anchor="middle" x="366.5" y="-242.5" font-family="Helvetica,sans-Serif" font-size="10.00">/inject_fault.hpp</text>
</a>
</g>
</g>
<!-- Node1&#45;&gt;Node5 -->
<g id="edge5" class="edge">
<title>Node1&#45;&gt;Node5</title>
<path fill="none" stroke="midnightblue" d="M438.64,-302.36C425.09,-292.8 408.81,-281.33 395.14,-271.69"/>
<polygon fill="midnightblue" stroke="midnightblue" points="396.79,-268.57 386.6,-265.67 392.76,-274.29 396.79,-268.57"/>
</g>
<!-- Node11 -->
<g id="node11" class="node">
<title>Node11</title>
<g id="a_node11"><a xlink:href="log_8hpp.html" target="_top" xlink:title=" ">
<polygon fill="none" stroke="black" points="429,-241 429,-260 504,-260 504,-241 429,-241"/>
<text text-anchor="middle" x="466.5" y="-248" font-family="Helvetica,sans-Serif" font-size="10.00">yaclib/log.hpp</text>
</a>
</g>
</g>
<!-- Node1&#45;&gt;Node11 -->
<g id="edge15" class="edge">
<title>Node1&#45;&gt;Node11</title>
<path fill="none" stroke="midnightblue" d="M466.5,-302.36C466.5,-292.3 466.5,-280.1 466.5,-270.18"/>
<polygon fill="midnightblue" stroke="midnightblue" points="470,-270.17 466.5,-260.17 463,-270.17 470,-270.17"/>
</g>
<!-- Node13 -->
<g id="node13" class="node">
<title>Node13</title>
<g id="a_node13"><a xlink:title=" ">
<polygon fill="none" stroke="#bfbfbf" points="561,-241 561,-260 638,-260 638,-241 561,-241"/>
<text text-anchor="middle" x="599.5" y="-248" font-family="Helvetica,sans-Serif" font-size="10.00">shared_mutex</text>
</a>
</g>
</g>
<!-- Node1&#45;&gt;Node13 -->
<g id="edge18" class="edge">
<title>Node1&#45;&gt;Node13</title>
<path fill="none" stroke="midnightblue" d="M503.55,-302.36C526.01,-290.46 554.08,-275.58 574.05,-264.99"/>
<polygon fill="midnightblue" stroke="midnightblue" points="575.94,-267.95 583.14,-260.17 572.66,-261.76 575.94,-267.95"/>
</g>
<!-- Node3&#45;&gt;Node2 -->
<g id="edge3" class="edge">
<title>Node3&#45;&gt;Node2</title>
<path fill="none" stroke="midnightblue" d="M98.01,-56.44C143.91,-46.98 217.88,-31.74 267.33,-21.55"/>
<polygon fill="midnightblue" stroke="midnightblue" points="268.09,-24.96 277.18,-19.52 266.68,-18.11 268.09,-24.96"/>
</g>
<!-- Node4 -->
<g id="node4" class="node">
<title>Node4</title>
<g id="a_node4"><a xlink:title=" ">
<polygon fill="none" stroke="#bfbfbf" points="33.5,-0.5 33.5,-19.5 79.5,-19.5 79.5,-0.5 33.5,-0.5"/>
<text text-anchor="middle" x="56.5" y="-7.5" font-family="Helvetica,sans-Serif" font-size="10.00">chrono</text>
</a>
</g>
</g>
<!-- Node3&#45;&gt;Node4 -->
<g id="edge4" class="edge">
<title>Node3&#45;&gt;Node4</title>
<path fill="none" stroke="midnightblue" d="M56.5,-56.08C56.5,-49.01 56.5,-38.86 56.5,-29.99"/>
<polygon fill="midnightblue" stroke="midnightblue" points="60,-29.75 56.5,-19.75 53,-29.75 60,-29.75"/>
</g>
<!-- Node5&#45;&gt;Node2 -->
<g id="edge6" class="edge">
<title>Node5&#45;&gt;Node2</title>
<path fill="none" stroke="midnightblue" d="M370.39,-235.16C376.61,-209.84 386.99,-155.73 375.5,-112 367.01,-79.7 345.6,-46.86 331.57,-27.73"/>
<polygon fill="midnightblue" stroke="midnightblue" points="334.18,-25.39 325.36,-19.51 328.59,-29.6 334.18,-25.39"/>
</g>
<!-- Node6 -->
<g id="node6" class="node">
<title>Node6</title>
<g id="a_node6"><a xlink:href="yielder_8hpp.html" target="_top" xlink:title=" ">
<polygon fill="none" stroke="black" points="232,-168.5 232,-198.5 321,-198.5 321,-168.5 232,-168.5"/>
<text text-anchor="start" x="240" y="-186.5" font-family="Helvetica,sans-Serif" font-size="10.00">yaclib/fault/detail</text>
<text text-anchor="middle" x="276.5" y="-175.5" font-family="Helvetica,sans-Serif" font-size="10.00">/yielder.hpp</text>
</a>
</g>
</g>
<!-- Node5&#45;&gt;Node6 -->
<g id="edge7" class="edge">
<title>Node5&#45;&gt;Node6</title>
<path fill="none" stroke="midnightblue" d="M346.97,-235.4C334.47,-226.37 318.06,-214.51 304.22,-204.52"/>
<polygon fill="midnightblue" stroke="midnightblue" points="306.15,-201.59 295.99,-198.58 302.05,-207.27 306.15,-201.59"/>
</g>
<!-- Node6&#45;&gt;Node2 -->
<g id="edge8" class="edge">
<title>Node6&#45;&gt;Node2</title>
<path fill="none" stroke="midnightblue" d="M263.12,-168.29C251.63,-154.31 237.9,-132.18 244.5,-112 255.74,-77.63 283.63,-45.27 301.78,-26.83"/>
<polygon fill="midnightblue" stroke="midnightblue" points="304.45,-29.11 309.11,-19.6 299.53,-24.13 304.45,-29.11"/>
</g>
<!-- Node7 -->
<g id="node7" class="node">
<title>Node7</title>
<g id="a_node7"><a xlink:href="thread_8hpp.html" target="_top" xlink:title=" ">
<polygon fill="none" stroke="black" points="86,-112.5 86,-131.5 197,-131.5 197,-112.5 86,-112.5"/>
<text text-anchor="middle" x="141.5" y="-119.5" font-family="Helvetica,sans-Serif" font-size="10.00">yaclib/fault/thread.hpp</text>
</a>
</g>
</g>
<!-- Node6&#45;&gt;Node7 -->
<g id="edge9" class="edge">
<title>Node6&#45;&gt;Node7</title>
<path fill="none" stroke="midnightblue" d="M244.51,-168.4C222.06,-158.51 192.29,-145.38 170.52,-135.79"/>
<polygon fill="midnightblue" stroke="midnightblue" points="171.71,-132.49 161.14,-131.66 168.88,-138.89 171.71,-132.49"/>
</g>
<!-- Node9 -->
<g id="node9" class="node">
<title>Node9</title>
<g id="a_node9"><a xlink:title=" ">
<polygon fill="none" stroke="#bfbfbf" points="253.5,-112.5 253.5,-131.5 299.5,-131.5 299.5,-112.5 253.5,-112.5"/>
<text text-anchor="middle" x="276.5" y="-119.5" font-family="Helvetica,sans-Serif" font-size="10.00">atomic</text>
</a>
</g>
</g>
<!-- Node6&#45;&gt;Node9 -->
<g id="edge13" class="edge">
<title>Node6&#45;&gt;Node9</title>
<path fill="none" stroke="midnightblue" d="M276.5,-168.4C276.5,-160.47 276.5,-150.46 276.5,-141.86"/>
<polygon fill="midnightblue" stroke="midnightblue" points="280,-141.66 276.5,-131.66 273,-141.66 280,-141.66"/>
</g>
<!-- Node10 -->
<g id="node10" class="node">
<title>Node10</title>
<g id="a_node10"><a xlink:title=" ">
<polygon fill="none" stroke="#bfbfbf" points="318,-112.5 318,-131.5 367,-131.5 367,-112.5 318,-112.5"/>
<text text-anchor="middle" x="342.5" y="-119.5" font-family="Helvetica,sans-Serif" font-size="10.00">random</text>
</a>
</g>
</g>
<!-- Node6&#45;&gt;Node10 -->
<g id="edge14" class="edge">
<title>Node6&#45;&gt;Node10</title>
<path fill="none" stroke="midnightblue" d="M292.14,-168.4C302.13,-159.4 315.08,-147.72 325.35,-138.47"/>
<polygon fill="midnightblue" stroke="midnightblue" points="327.81,-140.95 332.9,-131.66 323.13,-135.75 327.81,-140.95"/>
</g>
<!-- Node7&#45;&gt;Node2 -->
<g id="edge10" class="edge">
<title>Node7&#45;&gt;Node2</title>
<path fill="none" stroke="midnightblue" d="M141.52,-112.08C142.05,-98.15 145.15,-71.24 160.5,-56 187.74,-28.95 230,-17.91 263.97,-13.51"/>
<polygon fill="midnightblue" stroke="midnightblue" points="264.67,-16.96 274.21,-12.35 263.88,-10 264.67,-16.96"/>
</g>
<!-- Node7&#45;&gt;Node3 -->
<g id="edge11" class="edge">
<title>Node7&#45;&gt;Node3</title>
<path fill="none" stroke="midnightblue" d="M127.84,-112.32C114.58,-103.9 94.23,-90.97 78.65,-81.07"/>
<polygon fill="midnightblue" stroke="midnightblue" points="80.44,-78.06 70.12,-75.65 76.69,-83.97 80.44,-78.06"/>
</g>
<!-- Node8 -->
<g id="node8" class="node">
<title>Node8</title>
<g id="a_node8"><a xlink:title=" ">
<polygon fill="none" stroke="#bfbfbf" points="169.5,-56.5 169.5,-75.5 213.5,-75.5 213.5,-56.5 169.5,-56.5"/>
<text text-anchor="middle" x="191.5" y="-63.5" font-family="Helvetica,sans-Serif" font-size="10.00">thread</text>
</a>
</g>
</g>
<!-- Node7&#45;&gt;Node8 -->
<g id="edge12" class="edge">
<title>Node7&#45;&gt;Node8</title>
<path fill="none" stroke="midnightblue" d="M149.76,-112.08C156.96,-104.3 167.61,-92.8 176.35,-83.37"/>
<polygon fill="midnightblue" stroke="midnightblue" points="179.17,-85.47 183.4,-75.75 174.03,-80.71 179.17,-85.47"/>
</g>
<!-- Node11&#45;&gt;Node2 -->
<g id="edge16" class="edge">
<title>Node11&#45;&gt;Node2</title>
<path fill="none" stroke="midnightblue" d="M470.15,-240.57C475.87,-225.17 485.34,-192.89 475.5,-168 449.23,-101.58 378.74,-49.06 341.8,-25.11"/>
<polygon fill="midnightblue" stroke="midnightblue" points="343.5,-22.05 333.18,-19.65 339.75,-27.96 343.5,-22.05"/>
</g>
<!-- Node12 -->
<g id="node12" class="node">
<title>Node12</title>
<g id="a_node12"><a xlink:title=" ">
<polygon fill="none" stroke="#bfbfbf" points="400.5,-174 400.5,-193 466.5,-193 466.5,-174 400.5,-174"/>
<text text-anchor="middle" x="433.5" y="-181" font-family="Helvetica,sans-Serif" font-size="10.00">string_view</text>
</a>
</g>
</g>
<!-- Node11&#45;&gt;Node12 -->
<g id="edge17" class="edge">
<title>Node11&#45;&gt;Node12</title>
<path fill="none" stroke="midnightblue" d="M462.05,-240.73C457.05,-230.89 448.81,-214.66 442.47,-202.16"/>
<polygon fill="midnightblue" stroke="midnightblue" points="445.53,-200.46 437.88,-193.13 439.29,-203.63 445.53,-200.46"/>
</g>
</g>
</svg>
        <g id="navigator" transform="translate(0 0)" fill="#404254">
                <rect fill="#f2f5e9" fill-opacity="0.5" stroke="#606060" stroke-width=".5" x="0" y="0" width="60" height="60"/>
                <use id="zoomplus" xlink:href="#zoomPlus" x="17" y="9" onmousedown="handleZoom(evt,'in')"/>
                <use id="zoomminus" xlink:href="#zoomMin" x="42" y="9" onmousedown="handleZoom(evt,'out')"/>
                <use id="reset" xlink:href="#resetDef" x="30" y="36" onmousedown="handleReset()"/>
                <g id="arrowUp" xlink:href="#dirArrow" transform="translate(30 24)" onmousedown="handlePan(0,-1)">
                  <use xlink:href="#rim" fill="#404040">
                        <set attributeName="fill" to="#808080" begin="arrowUp.mouseover" end="arrowUp.mouseout"/>
                  </use>
                  <path fill="none" stroke="white" stroke-width="1.5" d="M0,-3.0v7 M-2.5,-0.5L0,-3.0L2.5,-0.5"/>
                </g>
                <g id="arrowRight" xlink:href="#dirArrow" transform="rotate(90) translate(36 -43)" onmousedown="handlePan(1,0)">
                  <use xlink:href="#rim" fill="#404040">
                        <set attributeName="fill" to="#808080" begin="arrowRight.mouseover" end="arrowRight.mouseout"/>
                  </use>
                  <path fill="none" stroke="white" stroke-width="1.5" d="M0,-3.0v7 M-2.5,-0.5L0,-3.0L2.5,-0.5"/>
                </g>
                <g id="arrowDown" xlink:href="#dirArrow" transform="rotate(180) translate(-30 -48)" onmousedown="handlePan(0,1)">
                  <use xlink:href="#rim" fill="#404040">
                        <set attributeName="fill" to="#808080" begin="arrowDown.mouseover" end="arrowDown.mouseout"/>
                  </use>
                  <path fill="none" stroke="white" stroke-width="1.5" d="M0,-3.0v7 M-2.5,-0.5L0,-3.0L2.5,-0.5"/>
                </g>
                <g id="arrowLeft" xlink:href="#dirArrow" transform="rotate(270) translate(-36 17)" onmousedown="handlePan(-1,0)">
                  <use xlink:href="#rim" fill="#404040">
                        <set attributeName="fill" to="#808080" begin="arrowLeft.mouseover" end="arrowLeft.mouseout"/>
                  </use>
                  <path fill="none" stroke="white" stroke-width="1.5" d="M0,-3.0v7 M-2.5,-0.5L0,-3.0L2.5,-0.5"/>
                </g>
        </g>
        <svg viewBox="0 0 15 15" width="100%" height="30px" preserveAspectRatio="xMaxYMin meet">
         <g id="arrow_out" transform="scale(0.3 0.3)">
          <a xlink:href="shared__timed__mutex_8hpp__incl_org.svg" target="_base">
           <rect id="button" ry="5" rx="5" y="6" x="6" height="38" width="38"
                fill="#f2f5e9" fill-opacity="0.5" stroke="#606060" stroke-width="1.0"/>
           <path id="arrow"
             d="M 11.500037,31.436501 C 11.940474,20.09759 22.043105,11.32322 32.158766,21.979434 L 37.068811,17.246167 C 37.068811,17.246167 37.088388,32 37.088388,32 L 22.160133,31.978069 C 22.160133,31.978069 26.997745,27.140456 26.997745,27.140456 C 18.528582,18.264221 13.291696,25.230495 11.500037,31.436501 z"
             style="fill:#404040;"/>
          </a>
         </g>
        </svg>
</svg>
