<?xml version="1.0" encoding="UTF-8" standalone="no"?>
<!DOCTYPE svg PUBLIC "-//W3C//DTD SVG 1.1//EN"
 "http://www.w3.org/Graphics/SVG/1.1/DTD/svg11.dtd">
<!-- Generated by graphviz version 2.50.0 (20220203.2022)
 -->
<!-- Title: src/executor/strand.cpp Pages: 1 -->
<svg width="1106pt" height="498pt"
 viewBox="0.00 0.00 1106.00 498.00" xmlns="http://www.w3.org/2000/svg" xmlns:xlink="http://www.w3.org/1999/xlink">
<g id="graph0" class="graph" transform="scale(1 1) rotate(0) translate(4 494)">
<title>src/executor/strand.cpp</title>
<!-- Node1 -->
<g id="node1" class="node">
<title>Node1</title>
<g id="a_node1"><a xlink:title=" ">
<polygon fill="#bfbfbf" stroke="black" points="369,-470.5 369,-489.5 487,-489.5 487,-470.5 369,-470.5"/>
<text text-anchor="middle" x="428" y="-477.5" font-family="Helvetica,sans-Serif" font-size="10.00">src/executor/strand.cpp</text>
</a>
</g>
</g>
<!-- Node2 -->
<g id="node2" class="node">
<title>Node2</title>
<g id="a_node2"><a xlink:href="mpsc__stack_8hpp.html" target="_top" xlink:title=" ">
<polygon fill="none" stroke="black" points="142,-129 142,-148 246,-148 246,-129 142,-129"/>
<text text-anchor="middle" x="194" y="-136" font-family="Helvetica,sans-Serif" font-size="10.00">util/mpsc_stack.hpp</text>
</a>
</g>
</g>
<!-- Node1&#45;&gt;Node2 -->
<g id="edge1" class="edge">
<title>Node1&#45;&gt;Node2</title>
<path fill="none" stroke="midnightblue" d="M368.74,-470.77C311.69,-459.11 234,-431.72 234,-369 234,-369 234,-369 234,-255 234,-218.56 216.01,-179.05 204.16,-156.97"/>
<polygon fill="midnightblue" stroke="midnightblue" points="207.15,-155.16 199.23,-148.13 201.04,-158.57 207.15,-155.16"/>
</g>
<!-- Node3 -->
<g id="node3" class="node">
<title>Node3</title>
<g id="a_node3"><a xlink:title=" ">
<polygon fill="none" stroke="#bfbfbf" points="523,-0.5 523,-19.5 611,-19.5 611,-0.5 523,-0.5"/>
<text text-anchor="middle" x="567" y="-7.5" font-family="Helvetica,sans-Serif" font-size="10.00">yaclib/config.hpp</text>
</a>
</g>
</g>
<!-- Node1&#45;&gt;Node3 -->
<g id="edge10" class="edge">
<title>Node1&#45;&gt;Node3</title>
<path fill="none" stroke="midnightblue" d="M368.98,-474.42C291.24,-467.71 159.2,-453.84 115,-434 74.14,-415.66 38,-413.79 38,-369 38,-369 38,-369 38,-137.5 38,-95.24 51.22,-78.5 87,-56 122.38,-33.75 394.71,-18.83 512.74,-13.34"/>
<polygon fill="midnightblue" stroke="midnightblue" points="513.16,-16.83 522.99,-12.87 512.84,-9.83 513.16,-16.83"/>
</g>
<!-- Node4 -->
<g id="node4" class="node">
<title>Node4</title>
<g id="a_node4"><a xlink:href="atomic_8hpp.html" target="_top" xlink:title=" ">
<polygon fill="none" stroke="black" points="95.5,-62 95.5,-81 208.5,-81 208.5,-62 95.5,-62"/>
<text text-anchor="middle" x="152" y="-69" font-family="Helvetica,sans-Serif" font-size="10.00">yaclib/fault/atomic.hpp</text>
</a>
</g>
</g>
<!-- Node1&#45;&gt;Node4 -->
<g id="edge47" class="edge">
<title>Node1&#45;&gt;Node4</title>
<path fill="none" stroke="midnightblue" d="M368.69,-472.82C268.37,-460.71 76,-429.58 76,-369 76,-369 76,-369 76,-199 76,-153.62 112.38,-110.48 134.8,-88.2"/>
<polygon fill="midnightblue" stroke="midnightblue" points="137.28,-90.68 142.06,-81.23 132.43,-85.63 137.28,-90.68"/>
</g>
<!-- Node6 -->
<g id="node6" class="node">
<title>Node6</title>
<g id="a_node6"><a xlink:title=" ">
<polygon fill="none" stroke="#bfbfbf" points="21,-0.5 21,-19.5 67,-19.5 67,-0.5 21,-0.5"/>
<text text-anchor="middle" x="44" y="-7.5" font-family="Helvetica,sans-Serif" font-size="10.00">cstdint</text>
</a>
</g>
</g>
<!-- Node1&#45;&gt;Node6 -->
<g id="edge50" class="edge">
<title>Node1&#45;&gt;Node6</title>
<path fill="none" stroke="midnightblue" d="M368.65,-476.46C279.34,-471.84 115.3,-460.03 63,-434 26.98,-416.07 0,-409.23 0,-369 0,-369 0,-369 0,-137.5 0,-96.6 20.77,-52.19 33.77,-28.4"/>
<polygon fill="midnightblue" stroke="midnightblue" points="36.9,-29.96 38.78,-19.54 30.81,-26.52 36.9,-29.96"/>
</g>
<!-- Node9 -->
<g id="node9" class="node">
<title>Node9</title>
<g id="a_node9"><a xlink:href="executor_8hpp.html" target="_top" xlink:title=" ">
<polygon fill="none" stroke="black" points="702.5,-358.5 702.5,-377.5 841.5,-377.5 841.5,-358.5 702.5,-358.5"/>
<text text-anchor="middle" x="772" y="-365.5" font-family="Helvetica,sans-Serif" font-size="10.00">yaclib/executor/executor.hpp</text>
</a>
</g>
</g>
<!-- Node1&#45;&gt;Node9 -->
<g id="edge11" class="edge">
<title>Node1&#45;&gt;Node9</title>
<path fill="none" stroke="midnightblue" d="M487.01,-478.3C569.68,-476.11 714.24,-467.45 753,-434 766.19,-422.61 770.48,-402.62 771.75,-387.81"/>
<polygon fill="midnightblue" stroke="midnightblue" points="775.25,-387.87 772.23,-377.72 768.26,-387.54 775.25,-387.87"/>
</g>
<!-- Node10 -->
<g id="node10" class="node">
<title>Node10</title>
<g id="a_node10"><a xlink:href="task_8hpp.html" target="_top" xlink:title=" ">
<polygon fill="none" stroke="black" points="595.5,-302.5 595.5,-321.5 716.5,-321.5 716.5,-302.5 595.5,-302.5"/>
<text text-anchor="middle" x="656" y="-309.5" font-family="Helvetica,sans-Serif" font-size="10.00">yaclib/executor/task.hpp</text>
</a>
</g>
</g>
<!-- Node1&#45;&gt;Node10 -->
<g id="edge46" class="edge">
<title>Node1&#45;&gt;Node10</title>
<path fill="none" stroke="midnightblue" d="M439.94,-470.31C476.87,-443.42 589.59,-361.35 635.86,-327.67"/>
<polygon fill="midnightblue" stroke="midnightblue" points="638.16,-330.32 644.18,-321.61 634.04,-324.66 638.16,-330.32"/>
</g>
<!-- Node14 -->
<g id="node14" class="node">
<title>Node14</title>
<g id="a_node14"><a xlink:title=" ">
<polygon fill="none" stroke="#bfbfbf" points="480.5,-62 480.5,-81 519.5,-81 519.5,-62 480.5,-62"/>
<text text-anchor="middle" x="500" y="-69" font-family="Helvetica,sans-Serif" font-size="10.00">utility</text>
</a>
</g>
</g>
<!-- Node1&#45;&gt;Node14 -->
<g id="edge51" class="edge">
<title>Node1&#45;&gt;Node14</title>
<path fill="none" stroke="midnightblue" d="M429.96,-470.5C434.03,-452.09 443,-407.16 443,-369 443,-369 443,-369 443,-311 443,-226.77 477.05,-130.27 492.52,-90.78"/>
<polygon fill="midnightblue" stroke="midnightblue" points="495.8,-92 496.26,-81.41 489.3,-89.4 495.8,-92"/>
</g>
<!-- Node15 -->
<g id="node15" class="node">
<title>Node15</title>
<g id="a_node15"><a xlink:href="helper_8hpp.html" target="_top" xlink:title=" ">
<polygon fill="none" stroke="black" points="302,-190.5 302,-209.5 406,-209.5 406,-190.5 302,-190.5"/>
<text text-anchor="middle" x="354" y="-197.5" font-family="Helvetica,sans-Serif" font-size="10.00">yaclib/util/helper.hpp</text>
</a>
</g>
</g>
<!-- Node1&#45;&gt;Node15 -->
<g id="edge48" class="edge">
<title>Node1&#45;&gt;Node15</title>
<path fill="none" stroke="midnightblue" d="M419.55,-470.44C403.23,-452.96 369,-411.26 369,-369 369,-369 369,-369 369,-311 369,-278.5 362.49,-241.1 358.05,-219.34"/>
<polygon fill="midnightblue" stroke="midnightblue" points="361.46,-218.56 355.96,-209.5 354.61,-220.01 361.46,-218.56"/>
</g>
<!-- Node17 -->
<g id="node17" class="node">
<title>Node17</title>
<g id="a_node17"><a xlink:href="intrusive__ptr_8hpp.html" target="_top" xlink:title=" ">
<polygon fill="none" stroke="black" points="792.5,-123.5 792.5,-153.5 889.5,-153.5 889.5,-123.5 792.5,-123.5"/>
<text text-anchor="start" x="800.5" y="-141.5" font-family="Helvetica,sans-Serif" font-size="10.00">yaclib/util/intrusive</text>
<text text-anchor="middle" x="841" y="-130.5" font-family="Helvetica,sans-Serif" font-size="10.00">_ptr.hpp</text>
</a>
</g>
</g>
<!-- Node1&#45;&gt;Node17 -->
<g id="edge49" class="edge">
<title>Node1&#45;&gt;Node17</title>
<path fill="none" stroke="midnightblue" d="M487.47,-478.02C617.79,-474.25 917,-456.13 917,-369 917,-369 917,-369 917,-311 917,-253.25 880.53,-193.22 858.12,-161.77"/>
<polygon fill="midnightblue" stroke="midnightblue" points="860.94,-159.7 852.21,-153.69 855.29,-163.83 860.94,-159.7"/>
</g>
<!-- Node21 -->
<g id="node21" class="node">
<title>Node21</title>
<g id="a_node21"><a xlink:href="strand_8hpp.html" target="_top" xlink:title=" ">
<polygon fill="none" stroke="black" points="614.5,-414.5 614.5,-433.5 743.5,-433.5 743.5,-414.5 614.5,-414.5"/>
<text text-anchor="middle" x="679" y="-421.5" font-family="Helvetica,sans-Serif" font-size="10.00">yaclib/executor/strand.hpp</text>
</a>
</g>
</g>
<!-- Node1&#45;&gt;Node21 -->
<g id="edge43" class="edge">
<title>Node1&#45;&gt;Node21</title>
<path fill="none" stroke="midnightblue" d="M467.77,-470.44C511.56,-461.02 582.01,-445.87 629.38,-435.68"/>
<polygon fill="midnightblue" stroke="midnightblue" points="630.37,-439.04 639.41,-433.52 628.9,-432.2 630.37,-439.04"/>
</g>
<!-- Node2&#45;&gt;Node3 -->
<g id="edge2" class="edge">
<title>Node2&#45;&gt;Node3</title>
<path fill="none" stroke="midnightblue" d="M203.63,-128.99C223.26,-112.14 269.93,-74.57 316,-56 380.67,-29.93 460.77,-18.91 512.84,-14.28"/>
<polygon fill="midnightblue" stroke="midnightblue" points="513.19,-17.76 522.87,-13.44 512.61,-10.79 513.19,-17.76"/>
</g>
<!-- Node2&#45;&gt;Node4 -->
<g id="edge3" class="edge">
<title>Node2&#45;&gt;Node4</title>
<path fill="none" stroke="midnightblue" d="M188.34,-128.73C181.91,-118.79 171.28,-102.34 163.17,-89.79"/>
<polygon fill="midnightblue" stroke="midnightblue" points="165.94,-87.63 157.57,-81.13 160.06,-91.43 165.94,-87.63"/>
</g>
<!-- Node8 -->
<g id="node8" class="node">
<title>Node8</title>
<g id="a_node8"><a xlink:href="node_8hpp.html" target="_top" xlink:title=" ">
<polygon fill="none" stroke="black" points="379.5,-56.5 379.5,-86.5 462.5,-86.5 462.5,-56.5 379.5,-56.5"/>
<text text-anchor="start" x="387.5" y="-74.5" font-family="Helvetica,sans-Serif" font-size="10.00">yaclib/util/detail</text>
<text text-anchor="middle" x="421" y="-63.5" font-family="Helvetica,sans-Serif" font-size="10.00">/node.hpp</text>
</a>
</g>
</g>
<!-- Node2&#45;&gt;Node8 -->
<g id="edge8" class="edge">
<title>Node2&#45;&gt;Node8</title>
<path fill="none" stroke="midnightblue" d="M224.14,-128.87C261.14,-118.27 324.48,-100.14 369.31,-87.3"/>
<polygon fill="midnightblue" stroke="midnightblue" points="370.5,-90.6 379.15,-84.48 368.57,-83.87 370.5,-90.6"/>
</g>
<!-- Node4&#45;&gt;Node3 -->
<g id="edge4" class="edge">
<title>Node4&#45;&gt;Node3</title>
<path fill="none" stroke="midnightblue" d="M208.83,-62.35C288.93,-50.87 434,-30.07 512.7,-18.79"/>
<polygon fill="midnightblue" stroke="midnightblue" points="513.48,-22.21 522.88,-17.33 512.49,-15.28 513.48,-22.21"/>
</g>
<!-- Node5 -->
<g id="node5" class="node">
<title>Node5</title>
<g id="a_node5"><a xlink:title=" ">
<polygon fill="none" stroke="#bfbfbf" points="203.5,-0.5 203.5,-19.5 252.5,-19.5 252.5,-0.5 203.5,-0.5"/>
<text text-anchor="middle" x="228" y="-7.5" font-family="Helvetica,sans-Serif" font-size="10.00">cstddef</text>
</a>
</g>
</g>
<!-- Node4&#45;&gt;Node5 -->
<g id="edge5" class="edge">
<title>Node4&#45;&gt;Node5</title>
<path fill="none" stroke="midnightblue" d="M162.89,-61.98C174.97,-52.52 194.67,-37.1 209.24,-25.69"/>
<polygon fill="midnightblue" stroke="midnightblue" points="211.41,-28.43 217.13,-19.51 207.1,-22.92 211.41,-28.43"/>
</g>
<!-- Node4&#45;&gt;Node6 -->
<g id="edge6" class="edge">
<title>Node4&#45;&gt;Node6</title>
<path fill="none" stroke="midnightblue" d="M136.53,-61.98C118.72,-52.17 89.26,-35.93 68.37,-24.42"/>
<polygon fill="midnightblue" stroke="midnightblue" points="69.89,-21.27 59.45,-19.51 66.51,-27.4 69.89,-21.27"/>
</g>
<!-- Node7 -->
<g id="node7" class="node">
<title>Node7</title>
<g id="a_node7"><a xlink:title=" ">
<polygon fill="none" stroke="#bfbfbf" points="129,-0.5 129,-19.5 175,-19.5 175,-0.5 129,-0.5"/>
<text text-anchor="middle" x="152" y="-7.5" font-family="Helvetica,sans-Serif" font-size="10.00">atomic</text>
</a>
</g>
</g>
<!-- Node4&#45;&gt;Node7 -->
<g id="edge7" class="edge">
<title>Node4&#45;&gt;Node7</title>
<path fill="none" stroke="midnightblue" d="M152,-61.98C152,-53.58 152,-40.48 152,-29.66"/>
<polygon fill="midnightblue" stroke="midnightblue" points="155.5,-29.51 152,-19.51 148.5,-29.51 155.5,-29.51"/>
</g>
<!-- Node8&#45;&gt;Node3 -->
<g id="edge9" class="edge">
<title>Node8&#45;&gt;Node3</title>
<path fill="none" stroke="midnightblue" d="M455.6,-56.4C480.1,-46.42 512.66,-33.15 536.25,-23.53"/>
<polygon fill="midnightblue" stroke="midnightblue" points="537.82,-26.67 545.76,-19.66 535.17,-20.19 537.82,-26.67"/>
</g>
<!-- Node9&#45;&gt;Node3 -->
<g id="edge12" class="edge">
<title>Node9&#45;&gt;Node3</title>
<path fill="none" stroke="midnightblue" d="M780.89,-358.29C803.41,-335.76 863.28,-272.96 897,-210 929.49,-149.34 936.93,-96.08 881,-56 840.46,-26.95 700.11,-16.48 621.48,-12.84"/>
<polygon fill="midnightblue" stroke="midnightblue" points="621.42,-9.34 611.27,-12.39 621.11,-16.33 621.42,-9.34"/>
</g>
<!-- Node9&#45;&gt;Node10 -->
<g id="edge13" class="edge">
<title>Node9&#45;&gt;Node10</title>
<path fill="none" stroke="midnightblue" d="M753.62,-358.44C734.78,-349.68 705.27,-335.94 683.62,-325.86"/>
<polygon fill="midnightblue" stroke="midnightblue" points="684.84,-322.56 674.29,-321.52 681.88,-328.91 684.84,-322.56"/>
</g>
<!-- Node9&#45;&gt;Node17 -->
<g id="edge42" class="edge">
<title>Node9&#45;&gt;Node17</title>
<path fill="none" stroke="midnightblue" d="M774.62,-358.36C784.36,-326.23 818.72,-212.96 833.81,-163.22"/>
<polygon fill="midnightblue" stroke="midnightblue" points="837.16,-164.21 836.72,-153.62 830.46,-162.18 837.16,-164.21"/>
</g>
<!-- Node10&#45;&gt;Node3 -->
<g id="edge14" class="edge">
<title>Node10&#45;&gt;Node3</title>
<path fill="none" stroke="midnightblue" d="M690.83,-302.43C765.59,-281.97 932.08,-224.28 899,-123 887.54,-87.93 881.48,-75.24 850,-56 812.57,-33.13 692.44,-20.42 621.3,-14.72"/>
<polygon fill="midnightblue" stroke="midnightblue" points="621.41,-11.22 611.17,-13.93 620.87,-18.19 621.41,-11.22"/>
</g>
<!-- Node10&#45;&gt;Node8 -->
<g id="edge15" class="edge">
<title>Node10&#45;&gt;Node8</title>
<path fill="none" stroke="midnightblue" d="M643.76,-302.22C631.9,-293.51 613.61,-279.55 599,-266 536.46,-208 470.38,-131.57 439.25,-94.52"/>
<polygon fill="midnightblue" stroke="midnightblue" points="441.9,-92.24 432.8,-86.82 436.53,-96.73 441.9,-92.24"/>
</g>
<!-- Node11 -->
<g id="node11" class="node">
<title>Node11</title>
<g id="a_node11"><a xlink:href="func_8hpp.html" target="_top" xlink:title=" ">
<polygon fill="none" stroke="black" points="607.5,-246.5 607.5,-265.5 704.5,-265.5 704.5,-246.5 607.5,-246.5"/>
<text text-anchor="middle" x="656" y="-253.5" font-family="Helvetica,sans-Serif" font-size="10.00">yaclib/util/func.hpp</text>
</a>
</g>
</g>
<!-- Node10&#45;&gt;Node11 -->
<g id="edge16" class="edge">
<title>Node10&#45;&gt;Node11</title>
<path fill="none" stroke="midnightblue" d="M656,-302.08C656,-295.01 656,-284.86 656,-275.99"/>
<polygon fill="midnightblue" stroke="midnightblue" points="659.5,-275.75 656,-265.75 652.5,-275.75 659.5,-275.75"/>
</g>
<!-- Node11&#45;&gt;Node3 -->
<g id="edge17" class="edge">
<title>Node11&#45;&gt;Node3</title>
<path fill="none" stroke="midnightblue" d="M650.99,-246.34C641.24,-229.19 619.48,-189.48 606,-154 589.46,-110.44 576.81,-56.97 570.82,-29.39"/>
<polygon fill="midnightblue" stroke="midnightblue" points="574.23,-28.62 568.73,-19.56 567.38,-30.07 574.23,-28.62"/>
</g>
<!-- Node12 -->
<g id="node12" class="node">
<title>Node12</title>
<g id="a_node12"><a xlink:href="safe__call_8hpp.html" target="_top" xlink:title=" ">
<polygon fill="none" stroke="black" points="614.5,-123.5 614.5,-153.5 697.5,-153.5 697.5,-123.5 614.5,-123.5"/>
<text text-anchor="start" x="622.5" y="-141.5" font-family="Helvetica,sans-Serif" font-size="10.00">yaclib/util/detail</text>
<text text-anchor="middle" x="656" y="-130.5" font-family="Helvetica,sans-Serif" font-size="10.00">/safe_call.hpp</text>
</a>
</g>
</g>
<!-- Node11&#45;&gt;Node12 -->
<g id="edge18" class="edge">
<title>Node11&#45;&gt;Node12</title>
<path fill="none" stroke="midnightblue" d="M656,-246.32C656,-228.97 656,-189.46 656,-163.66"/>
<polygon fill="midnightblue" stroke="midnightblue" points="659.5,-163.55 656,-153.55 652.5,-163.55 659.5,-163.55"/>
</g>
<!-- Node13 -->
<g id="node13" class="node">
<title>Node13</title>
<g id="a_node13"><a xlink:title=" ">
<polygon fill="none" stroke="#bfbfbf" points="652,-62 652,-81 714,-81 714,-62 652,-62"/>
<text text-anchor="middle" x="683" y="-69" font-family="Helvetica,sans-Serif" font-size="10.00">type_traits</text>
</a>
</g>
</g>
<!-- Node11&#45;&gt;Node13 -->
<g id="edge40" class="edge">
<title>Node11&#45;&gt;Node13</title>
<path fill="none" stroke="midnightblue" d="M662.15,-246.36C673.69,-229.56 698.22,-190.88 707,-154 710.19,-140.6 710.03,-136.44 707,-123 704.37,-111.33 698.71,-99.2 693.55,-89.75"/>
<polygon fill="midnightblue" stroke="midnightblue" points="696.53,-87.92 688.5,-81.01 690.47,-91.42 696.53,-87.92"/>
</g>
<!-- Node11&#45;&gt;Node14 -->
<g id="edge41" class="edge">
<title>Node11&#45;&gt;Node14</title>
<path fill="none" stroke="midnightblue" d="M631.46,-246.42C613.25,-239.05 588.77,-226.93 572,-210 537.19,-174.86 515.28,-119.43 505.67,-90.86"/>
<polygon fill="midnightblue" stroke="midnightblue" points="509,-89.77 502.59,-81.33 502.34,-91.92 509,-89.77"/>
</g>
<!-- Node11&#45;&gt;Node15 -->
<g id="edge22" class="edge">
<title>Node11&#45;&gt;Node15</title>
<path fill="none" stroke="midnightblue" d="M608.15,-246.44C554.8,-236.9 468.56,-221.48 411.56,-211.29"/>
<polygon fill="midnightblue" stroke="midnightblue" points="412.09,-207.83 401.63,-209.52 410.86,-214.72 412.09,-207.83"/>
</g>
<!-- Node11&#45;&gt;Node17 -->
<g id="edge38" class="edge">
<title>Node11&#45;&gt;Node17</title>
<path fill="none" stroke="midnightblue" d="M692.9,-246.45C718.32,-239.4 752.06,-227.65 778,-210 796.95,-197.11 813.96,-177.31 825.52,-161.98"/>
<polygon fill="midnightblue" stroke="midnightblue" points="828.6,-163.69 831.67,-153.55 822.95,-159.56 828.6,-163.69"/>
</g>
<!-- Node18 -->
<g id="node18" class="node">
<title>Node18</title>
<g id="a_node18"><a xlink:href="ref_8hpp.html" target="_top" xlink:title=" ">
<polygon fill="none" stroke="black" points="731.5,-62 731.5,-81 820.5,-81 820.5,-62 731.5,-62"/>
<text text-anchor="middle" x="776" y="-69" font-family="Helvetica,sans-Serif" font-size="10.00">yaclib/util/ref.hpp</text>
</a>
</g>
</g>
<!-- Node11&#45;&gt;Node18 -->
<g id="edge39" class="edge">
<title>Node11&#45;&gt;Node18</title>
<path fill="none" stroke="midnightblue" d="M667.05,-246.2C677.24,-237.69 692.37,-224.05 703,-210 732.65,-170.8 757.01,-117.9 768.64,-90.55"/>
<polygon fill="midnightblue" stroke="midnightblue" points="771.96,-91.68 772.58,-81.11 765.5,-88.99 771.96,-91.68"/>
</g>
<!-- Node12&#45;&gt;Node3 -->
<g id="edge19" class="edge">
<title>Node12&#45;&gt;Node3</title>
<path fill="none" stroke="midnightblue" d="M646.42,-123.27C635.37,-106.94 616.6,-79.38 600,-56 593.33,-46.6 585.73,-36.22 579.51,-27.8"/>
<polygon fill="midnightblue" stroke="midnightblue" points="582.17,-25.52 573.41,-19.57 576.55,-29.69 582.17,-25.52"/>
</g>
<!-- Node12&#45;&gt;Node13 -->
<g id="edge20" class="edge">
<title>Node12&#45;&gt;Node13</title>
<path fill="none" stroke="midnightblue" d="M661.86,-123.4C665.86,-113.76 671.2,-100.91 675.51,-90.54"/>
<polygon fill="midnightblue" stroke="midnightblue" points="678.78,-91.77 679.39,-81.19 672.32,-89.09 678.78,-91.77"/>
</g>
<!-- Node12&#45;&gt;Node14 -->
<g id="edge21" class="edge">
<title>Node12&#45;&gt;Node14</title>
<path fill="none" stroke="midnightblue" d="M622.15,-123.4C594.34,-111.81 555.36,-95.57 528.98,-84.57"/>
<polygon fill="midnightblue" stroke="midnightblue" points="530.11,-81.25 519.53,-80.64 527.41,-87.71 530.11,-81.25"/>
</g>
<!-- Node15&#45;&gt;Node3 -->
<g id="edge23" class="edge">
<title>Node15&#45;&gt;Node3</title>
<path fill="none" stroke="midnightblue" d="M360.1,-190.19C365.75,-181.46 373.76,-167.48 377,-154 384,-124.93 373.47,-116.8 371,-87 369.86,-73.27 362.42,-66.78 371,-56 388.43,-34.11 460.9,-21.99 512.63,-15.99"/>
<polygon fill="midnightblue" stroke="midnightblue" points="513.13,-19.45 522.68,-14.87 512.35,-12.5 513.13,-19.45"/>
</g>
<!-- Node15&#45;&gt;Node4 -->
<g id="edge24" class="edge">
<title>Node15&#45;&gt;Node4</title>
<path fill="none" stroke="midnightblue" d="M301.77,-195.8C243.28,-190.99 153.9,-179.59 133,-154 118.11,-135.77 129.67,-107.98 140.17,-90.02"/>
<polygon fill="midnightblue" stroke="midnightblue" points="143.37,-91.51 145.72,-81.18 137.44,-87.79 143.37,-91.51"/>
</g>
<!-- Node16 -->
<g id="node16" class="node">
<title>Node16</title>
<g id="a_node16"><a xlink:href="atomic__counter_8hpp.html" target="_top" xlink:title=" ">
<polygon fill="none" stroke="black" points="264,-123.5 264,-153.5 368,-153.5 368,-123.5 264,-123.5"/>
<text text-anchor="start" x="272" y="-141.5" font-family="Helvetica,sans-Serif" font-size="10.00">yaclib/util/detail</text>
<text text-anchor="middle" x="316" y="-130.5" font-family="Helvetica,sans-Serif" font-size="10.00">/atomic_counter.hpp</text>
</a>
</g>
</g>
<!-- Node15&#45;&gt;Node16 -->
<g id="edge25" class="edge">
<title>Node15&#45;&gt;Node16</title>
<path fill="none" stroke="midnightblue" d="M348.56,-190.48C343.84,-183.09 336.81,-172.08 330.48,-162.17"/>
<polygon fill="midnightblue" stroke="midnightblue" points="333.29,-160.07 324.96,-153.52 327.39,-163.83 333.29,-160.07"/>
</g>
<!-- Node15&#45;&gt;Node17 -->
<g id="edge30" class="edge">
<title>Node15&#45;&gt;Node17</title>
<path fill="none" stroke="midnightblue" d="M406.12,-192.63C497.5,-181.47 686.04,-158.43 782.04,-146.7"/>
<polygon fill="midnightblue" stroke="midnightblue" points="782.66,-150.15 792.16,-145.47 781.81,-143.21 782.66,-150.15"/>
</g>
<!-- Node16&#45;&gt;Node3 -->
<g id="edge26" class="edge">
<title>Node16&#45;&gt;Node3</title>
<path fill="none" stroke="midnightblue" d="M315.39,-123.45C315.41,-105.18 318.39,-73.54 337,-56 361.84,-32.58 452.93,-20.53 512.75,-15.01"/>
<polygon fill="midnightblue" stroke="midnightblue" points="513.15,-18.48 522.8,-14.11 512.52,-11.51 513.15,-18.48"/>
</g>
<!-- Node16&#45;&gt;Node4 -->
<g id="edge27" class="edge">
<title>Node16&#45;&gt;Node4</title>
<path fill="none" stroke="midnightblue" d="M280.41,-123.4C251.38,-111.89 210.78,-95.8 183.05,-84.81"/>
<polygon fill="midnightblue" stroke="midnightblue" points="184.05,-81.44 173.46,-81.01 181.47,-87.95 184.05,-81.44"/>
</g>
<!-- Node16&#45;&gt;Node5 -->
<g id="edge28" class="edge">
<title>Node16&#45;&gt;Node5</title>
<path fill="none" stroke="midnightblue" d="M306.25,-123.48C289.99,-100.1 257.39,-53.25 239.84,-28.02"/>
<polygon fill="midnightblue" stroke="midnightblue" points="242.7,-26 234.11,-19.79 236.95,-30 242.7,-26"/>
</g>
<!-- Node16&#45;&gt;Node14 -->
<g id="edge29" class="edge">
<title>Node16&#45;&gt;Node14</title>
<path fill="none" stroke="midnightblue" d="M366.64,-123.41C397.54,-114.25 437.59,-101.37 472,-87 473.04,-86.57 474.08,-86.11 475.14,-85.64"/>
<polygon fill="midnightblue" stroke="midnightblue" points="477.05,-88.6 484.52,-81.09 473.99,-82.3 477.05,-88.6"/>
</g>
<!-- Node17&#45;&gt;Node3 -->
<g id="edge31" class="edge">
<title>Node17&#45;&gt;Node3</title>
<path fill="none" stroke="midnightblue" d="M843.65,-123.27C846.13,-105.1 847.25,-73.87 830,-56 801.92,-26.91 689.88,-16.57 621.41,-12.93"/>
<polygon fill="midnightblue" stroke="midnightblue" points="621.39,-9.43 611.23,-12.43 621.04,-16.42 621.39,-9.43"/>
</g>
<!-- Node17&#45;&gt;Node13 -->
<g id="edge34" class="edge">
<title>Node17&#45;&gt;Node13</title>
<path fill="none" stroke="midnightblue" d="M806.72,-123.4C778.87,-111.94 739.97,-95.94 713.27,-84.95"/>
<polygon fill="midnightblue" stroke="midnightblue" points="714.26,-81.57 703.68,-81.01 711.59,-88.05 714.26,-81.57"/>
</g>
<!-- Node17&#45;&gt;Node18 -->
<g id="edge32" class="edge">
<title>Node17&#45;&gt;Node18</title>
<path fill="none" stroke="midnightblue" d="M826.9,-123.4C816.56,-113.06 802.52,-99.02 791.81,-88.31"/>
<polygon fill="midnightblue" stroke="midnightblue" points="794.24,-85.79 784.69,-81.19 789.29,-90.74 794.24,-85.79"/>
</g>
<!-- Node19 -->
<g id="node19" class="node">
<title>Node19</title>
<g id="a_node19"><a xlink:href="intrusive__ptr__impl_8hpp.html" target="_top" xlink:title=" ">
<polygon fill="none" stroke="black" points="984,-56.5 984,-86.5 1098,-86.5 1098,-56.5 984,-56.5"/>
<text text-anchor="start" x="992" y="-74.5" font-family="Helvetica,sans-Serif" font-size="10.00">yaclib/util/detail</text>
<text text-anchor="middle" x="1041" y="-63.5" font-family="Helvetica,sans-Serif" font-size="10.00">/intrusive_ptr_impl.hpp</text>
</a>
</g>
</g>
<!-- Node17&#45;&gt;Node19 -->
<g id="edge35" class="edge">
<title>Node17&#45;&gt;Node19</title>
<path fill="none" stroke="midnightblue" d="M884.4,-123.4C914.8,-113.52 955.61,-100.25 987.94,-89.74"/>
<polygon fill="midnightblue" stroke="midnightblue" points="989.26,-93 997.69,-86.58 987.1,-86.34 989.26,-93"/>
</g>
<!-- Node18&#45;&gt;Node3 -->
<g id="edge33" class="edge">
<title>Node18&#45;&gt;Node3</title>
<path fill="none" stroke="midnightblue" d="M746.06,-61.98C709.43,-51.55 647.3,-33.86 606.72,-22.31"/>
<polygon fill="midnightblue" stroke="midnightblue" points="607.47,-18.88 596.89,-19.51 605.55,-25.61 607.47,-18.88"/>
</g>
<!-- Node19&#45;&gt;Node3 -->
<g id="edge36" class="edge">
<title>Node19&#45;&gt;Node3</title>
<path fill="none" stroke="midnightblue" d="M983.73,-58.34C979.09,-57.5 974.47,-56.71 970,-56 845.71,-36.41 698.54,-22.24 621.02,-15.47"/>
<polygon fill="midnightblue" stroke="midnightblue" points="621.27,-11.98 611,-14.6 620.67,-18.95 621.27,-11.98"/>
</g>
<!-- Node20 -->
<g id="node20" class="node">
<title>Node20</title>
<g id="a_node20"><a xlink:title=" ">
<polygon fill="none" stroke="#bfbfbf" points="1016.5,-0.5 1016.5,-19.5 1065.5,-19.5 1065.5,-0.5 1016.5,-0.5"/>
<text text-anchor="middle" x="1041" y="-7.5" font-family="Helvetica,sans-Serif" font-size="10.00">cassert</text>
</a>
</g>
</g>
<!-- Node19&#45;&gt;Node20 -->
<g id="edge37" class="edge">
<title>Node19&#45;&gt;Node20</title>
<path fill="none" stroke="midnightblue" d="M1041,-56.4C1041,-48.47 1041,-38.46 1041,-29.86"/>
<polygon fill="midnightblue" stroke="midnightblue" points="1044.5,-29.66 1041,-19.66 1037.5,-29.66 1044.5,-29.66"/>
</g>
<!-- Node21&#45;&gt;Node3 -->
<g id="edge44" class="edge">
<title>Node21&#45;&gt;Node3</title>
<path fill="none" stroke="midnightblue" d="M652.81,-414.41C614.58,-400.03 548,-367.2 548,-313 548,-313 548,-313 548,-137.5 548,-98.77 556.82,-54.11 562.44,-29.57"/>
<polygon fill="midnightblue" stroke="midnightblue" points="565.92,-30.06 564.82,-19.52 559.11,-28.44 565.92,-30.06"/>
</g>
<!-- Node21&#45;&gt;Node9 -->
<g id="edge45" class="edge">
<title>Node21&#45;&gt;Node9</title>
<path fill="none" stroke="midnightblue" d="M693.94,-414.32C708.59,-405.82 731.13,-392.73 748.24,-382.8"/>
<polygon fill="midnightblue" stroke="midnightblue" points="750.2,-385.7 757.1,-377.65 746.69,-379.65 750.2,-385.7"/>
</g>
</g>
</svg>
