<?xml version="1.0" encoding="UTF-8" standalone="no"?>
<!DOCTYPE svg PUBLIC "-//W3C//DTD SVG 1.1//EN"
 "http://www.w3.org/Graphics/SVG/1.1/DTD/svg11.dtd">
<!-- Generated by graphviz version 2.50.0 (20220203.2022)
 -->
<!-- Title: src/executor/thread_pool.cpp Pages: 1 -->
<svg width="1638pt" height="542pt"
 viewBox="0.00 0.00 1637.50 542.00" xmlns="http://www.w3.org/2000/svg" xmlns:xlink="http://www.w3.org/1999/xlink">
<g id="graph0" class="graph" transform="scale(1 1) rotate(0) translate(4 538)">
<title>src/executor/thread_pool.cpp</title>
<!-- Node1 -->
<g id="node1" class="node">
<title>Node1</title>
<g id="a_node1"><a xlink:title=" ">
<polygon fill="#bfbfbf" stroke="black" points="663,-503.5 663,-533.5 763,-533.5 763,-503.5 663,-503.5"/>
<text text-anchor="start" x="671" y="-521.5" font-family="Helvetica,sans-Serif" font-size="10.00">src/executor/thread</text>
<text text-anchor="middle" x="713" y="-510.5" font-family="Helvetica,sans-Serif" font-size="10.00">_pool.cpp</text>
</a>
</g>
</g>
<!-- Node2 -->
<g id="node2" class="node">
<title>Node2</title>
<g id="a_node2"><a xlink:href="intrusive__list_8hpp.html" target="_top" xlink:title=" ">
<polygon fill="none" stroke="black" points="292.5,-442 292.5,-461 397.5,-461 397.5,-442 292.5,-442"/>
<text text-anchor="middle" x="345" y="-449" font-family="Helvetica,sans-Serif" font-size="10.00">util/intrusive_list.hpp</text>
</a>
</g>
</g>
<!-- Node1&#45;&gt;Node2 -->
<g id="edge1" class="edge">
<title>Node1&#45;&gt;Node2</title>
<path fill="none" stroke="midnightblue" d="M662.81,-509.82C602.95,-500.48 499.94,-483.88 412,-467 405.79,-465.81 399.27,-464.48 392.83,-463.14"/>
<polygon fill="midnightblue" stroke="midnightblue" points="393.36,-459.67 382.85,-461.02 391.9,-466.52 393.36,-459.67"/>
</g>
<!-- Node3 -->
<g id="node3" class="node">
<title>Node3</title>
<g id="a_node3"><a xlink:title=" ">
<polygon fill="none" stroke="#bfbfbf" points="827,-0.5 827,-19.5 915,-19.5 915,-0.5 827,-0.5"/>
<text text-anchor="middle" x="871" y="-7.5" font-family="Helvetica,sans-Serif" font-size="10.00">yaclib/config.hpp</text>
</a>
</g>
</g>
<!-- Node1&#45;&gt;Node3 -->
<g id="edge45" class="edge">
<title>Node1&#45;&gt;Node3</title>
<path fill="none" stroke="midnightblue" d="M763.04,-515.83C896.35,-510.02 1250,-485.22 1250,-385.5 1250,-385.5 1250,-385.5 1250,-137.5 1250,-100.2 1257.96,-80.69 1230,-56 1180.73,-12.48 1006.84,-28.32 925.59,-20.09"/>
<polygon fill="midnightblue" stroke="midnightblue" points="925.58,-16.56 915.23,-18.82 924.73,-23.51 925.58,-16.56"/>
</g>
<!-- Node4 -->
<g id="node4" class="node">
<title>Node4</title>
<g id="a_node4"><a xlink:href="task_8hpp.html" target="_top" xlink:title=" ">
<polygon fill="none" stroke="black" points="454.5,-313.5 454.5,-332.5 575.5,-332.5 575.5,-313.5 454.5,-313.5"/>
<text text-anchor="middle" x="515" y="-320.5" font-family="Helvetica,sans-Serif" font-size="10.00">yaclib/executor/task.hpp</text>
</a>
</g>
</g>
<!-- Node1&#45;&gt;Node4 -->
<g id="edge50" class="edge">
<title>Node1&#45;&gt;Node4</title>
<path fill="none" stroke="midnightblue" d="M675.48,-503.31C656.04,-494.75 632.73,-482.49 615,-467 572.56,-429.91 538.98,-371.2 523.81,-341.88"/>
<polygon fill="midnightblue" stroke="midnightblue" points="526.86,-340.17 519.22,-332.82 520.62,-343.33 526.86,-340.17"/>
</g>
<!-- Node6 -->
<g id="node6" class="node">
<title>Node6</title>
<g id="a_node6"><a xlink:href="func_8hpp.html" target="_top" xlink:title=" ">
<polygon fill="none" stroke="black" points="580.5,-252 580.5,-271 677.5,-271 677.5,-252 580.5,-252"/>
<text text-anchor="middle" x="629" y="-259" font-family="Helvetica,sans-Serif" font-size="10.00">yaclib/util/func.hpp</text>
</a>
</g>
</g>
<!-- Node1&#45;&gt;Node6 -->
<g id="edge69" class="edge">
<title>Node1&#45;&gt;Node6</title>
<path fill="none" stroke="midnightblue" d="M685.77,-503.46C672.03,-494.87 656.52,-482.54 648,-467 614.6,-406.08 621.04,-319.43 626.02,-281.51"/>
<polygon fill="midnightblue" stroke="midnightblue" points="629.51,-281.78 627.47,-271.38 622.58,-280.78 629.51,-281.78"/>
</g>
<!-- Node9 -->
<g id="node9" class="node">
<title>Node9</title>
<g id="a_node9"><a xlink:title=" ">
<polygon fill="none" stroke="#bfbfbf" points="426.5,-62 426.5,-81 465.5,-81 465.5,-62 426.5,-62"/>
<text text-anchor="middle" x="446" y="-69" font-family="Helvetica,sans-Serif" font-size="10.00">utility</text>
</a>
</g>
</g>
<!-- Node1&#45;&gt;Node9 -->
<g id="edge73" class="edge">
<title>Node1&#45;&gt;Node9</title>
<path fill="none" stroke="midnightblue" d="M662.68,-516.31C580.37,-511.4 426,-488.47 426,-385.5 426,-385.5 426,-385.5 426,-199 426,-160.05 435.36,-115.18 441.28,-90.72"/>
<polygon fill="midnightblue" stroke="midnightblue" points="444.67,-91.57 443.71,-81.02 437.88,-89.87 444.67,-91.57"/>
</g>
<!-- Node10 -->
<g id="node10" class="node">
<title>Node10</title>
<g id="a_node10"><a xlink:href="helper_8hpp.html" target="_top" xlink:title=" ">
<polygon fill="none" stroke="black" points="938,-190.5 938,-209.5 1042,-209.5 1042,-190.5 938,-190.5"/>
<text text-anchor="middle" x="990" y="-197.5" font-family="Helvetica,sans-Serif" font-size="10.00">yaclib/util/helper.hpp</text>
</a>
</g>
</g>
<!-- Node1&#45;&gt;Node10 -->
<g id="edge70" class="edge">
<title>Node1&#45;&gt;Node10</title>
<path fill="none" stroke="midnightblue" d="M763.03,-516.69C809.12,-513.56 877.24,-502.59 924,-467 956.92,-441.94 969,-426.88 969,-385.5 969,-385.5 969,-385.5 969,-322 969,-285.19 978.55,-242.99 984.77,-219.42"/>
<polygon fill="midnightblue" stroke="midnightblue" points="988.16,-220.28 987.42,-209.72 981.41,-218.44 988.16,-220.28"/>
</g>
<!-- Node12 -->
<g id="node12" class="node">
<title>Node12</title>
<g id="a_node12"><a xlink:title=" ">
<polygon fill="none" stroke="#bfbfbf" points="89.5,-0.5 89.5,-19.5 138.5,-19.5 138.5,-0.5 89.5,-0.5"/>
<text text-anchor="middle" x="114" y="-7.5" font-family="Helvetica,sans-Serif" font-size="10.00">cstddef</text>
</a>
</g>
</g>
<!-- Node1&#45;&gt;Node12 -->
<g id="edge72" class="edge">
<title>Node1&#45;&gt;Node12</title>
<path fill="none" stroke="midnightblue" d="M662.86,-513.54C500.57,-500.06 0,-453.01 0,-385.5 0,-385.5 0,-385.5 0,-137.5 0,-96.75 14.4,-85.98 42,-56 54.2,-42.74 71.17,-31.89 85.56,-24.16"/>
<polygon fill="midnightblue" stroke="midnightblue" points="87.27,-27.22 94.58,-19.54 84.08,-20.99 87.27,-27.22"/>
</g>
<!-- Node16 -->
<g id="node16" class="node">
<title>Node16</title>
<g id="a_node16"><a xlink:href="intrusive__ptr_8hpp.html" target="_top" xlink:title=" ">
<polygon fill="none" stroke="black" points="708.5,-123.5 708.5,-153.5 805.5,-153.5 805.5,-123.5 708.5,-123.5"/>
<text text-anchor="start" x="716.5" y="-141.5" font-family="Helvetica,sans-Serif" font-size="10.00">yaclib/util/intrusive</text>
<text text-anchor="middle" x="757" y="-130.5" font-family="Helvetica,sans-Serif" font-size="10.00">_ptr.hpp</text>
</a>
</g>
</g>
<!-- Node1&#45;&gt;Node16 -->
<g id="edge71" class="edge">
<title>Node1&#45;&gt;Node16</title>
<path fill="none" stroke="midnightblue" d="M763.22,-506.93C821.59,-491.35 910,-456.11 910,-385.5 910,-385.5 910,-385.5 910,-260.5 910,-208.76 855.5,-175.68 811.55,-157.41"/>
<polygon fill="midnightblue" stroke="midnightblue" points="812.66,-154.09 802.08,-153.63 810.07,-160.59 812.66,-154.09"/>
</g>
<!-- Node20 -->
<g id="node20" class="node">
<title>Node20</title>
<g id="a_node20"><a xlink:href="thread__factory_8hpp.html" target="_top" xlink:title=" ">
<polygon fill="none" stroke="black" points="210.5,-369.5 210.5,-399.5 321.5,-399.5 321.5,-369.5 210.5,-369.5"/>
<text text-anchor="start" x="218.5" y="-387.5" font-family="Helvetica,sans-Serif" font-size="10.00">yaclib/executor/thread</text>
<text text-anchor="middle" x="266" y="-376.5" font-family="Helvetica,sans-Serif" font-size="10.00">_factory.hpp</text>
</a>
</g>
</g>
<!-- Node1&#45;&gt;Node20 -->
<g id="edge51" class="edge">
<title>Node1&#45;&gt;Node20</title>
<path fill="none" stroke="midnightblue" d="M662.64,-514.86C555.12,-508.76 310.59,-492.24 283,-467 267.4,-452.73 264.08,-428.15 264.1,-409.71"/>
<polygon fill="midnightblue" stroke="midnightblue" points="267.59,-409.8 264.42,-399.69 260.6,-409.57 267.59,-409.8"/>
</g>
<!-- Node22 -->
<g id="node22" class="node">
<title>Node22</title>
<g id="a_node22"><a xlink:href="executor_8hpp.html" target="_top" xlink:title=" ">
<polygon fill="none" stroke="black" points="687.5,-375 687.5,-394 826.5,-394 826.5,-375 687.5,-375"/>
<text text-anchor="middle" x="757" y="-382" font-family="Helvetica,sans-Serif" font-size="10.00">yaclib/executor/executor.hpp</text>
</a>
</g>
</g>
<!-- Node1&#45;&gt;Node22 -->
<g id="edge46" class="edge">
<title>Node1&#45;&gt;Node22</title>
<path fill="none" stroke="midnightblue" d="M740.72,-503.46C754.34,-494.94 769.41,-482.67 777,-467 786.99,-446.4 777.18,-420.38 768.11,-403.35"/>
<polygon fill="midnightblue" stroke="midnightblue" points="771.03,-401.41 763.01,-394.48 764.96,-404.89 771.03,-401.41"/>
</g>
<!-- Node23 -->
<g id="node23" class="node">
<title>Node23</title>
<g id="a_node23"><a xlink:href="thread__pool_8hpp.html" target="_top" xlink:title=" ">
<polygon fill="none" stroke="black" points="657.5,-436.5 657.5,-466.5 768.5,-466.5 768.5,-436.5 657.5,-436.5"/>
<text text-anchor="start" x="665.5" y="-454.5" font-family="Helvetica,sans-Serif" font-size="10.00">yaclib/executor/thread</text>
<text text-anchor="middle" x="713" y="-443.5" font-family="Helvetica,sans-Serif" font-size="10.00">_pool.hpp</text>
</a>
</g>
</g>
<!-- Node1&#45;&gt;Node23 -->
<g id="edge52" class="edge">
<title>Node1&#45;&gt;Node23</title>
<path fill="none" stroke="midnightblue" d="M713,-503.4C713,-495.64 713,-485.81 713,-476.86"/>
<polygon fill="midnightblue" stroke="midnightblue" points="716.5,-476.58 713,-466.58 709.5,-476.58 716.5,-476.58"/>
</g>
<!-- Node28 -->
<g id="node28" class="node">
<title>Node28</title>
<g id="a_node28"><a xlink:href="condition__variable_8hpp.html" target="_top" xlink:title=" ">
<polygon fill="none" stroke="black" points="1278.5,-436.5 1278.5,-466.5 1383.5,-466.5 1383.5,-436.5 1278.5,-436.5"/>
<text text-anchor="start" x="1286.5" y="-454.5" font-family="Helvetica,sans-Serif" font-size="10.00">yaclib/fault/condition</text>
<text text-anchor="middle" x="1331" y="-443.5" font-family="Helvetica,sans-Serif" font-size="10.00">_variable.hpp</text>
</a>
</g>
</g>
<!-- Node1&#45;&gt;Node28 -->
<g id="edge63" class="edge">
<title>Node1&#45;&gt;Node28</title>
<path fill="none" stroke="midnightblue" d="M763.01,-514.96C860.06,-509.58 1080.51,-495.16 1264,-467 1265.47,-466.77 1266.96,-466.54 1268.45,-466.29"/>
<polygon fill="midnightblue" stroke="midnightblue" points="1269.21,-469.71 1278.45,-464.51 1267.99,-462.82 1269.21,-469.71"/>
</g>
<!-- Node30 -->
<g id="node30" class="node">
<title>Node30</title>
<g id="a_node30"><a xlink:href="mutex_8hpp.html" target="_top" xlink:title=" ">
<polygon fill="none" stroke="black" points="1503,-442 1503,-461 1613,-461 1613,-442 1503,-442"/>
<text text-anchor="middle" x="1558" y="-449" font-family="Helvetica,sans-Serif" font-size="10.00">yaclib/fault/mutex.hpp</text>
</a>
</g>
</g>
<!-- Node1&#45;&gt;Node30 -->
<g id="edge66" class="edge">
<title>Node1&#45;&gt;Node30</title>
<path fill="none" stroke="midnightblue" d="M763.27,-513.98C875.89,-506.06 1156.94,-486.01 1392,-467 1425.16,-464.32 1462.03,-461.12 1492.58,-458.41"/>
<polygon fill="midnightblue" stroke="midnightblue" points="1493.03,-461.88 1502.68,-457.51 1492.41,-454.91 1493.03,-461.88"/>
</g>
<!-- Node2&#45;&gt;Node3 -->
<g id="edge2" class="edge">
<title>Node2&#45;&gt;Node3</title>
<path fill="none" stroke="midnightblue" d="M345.57,-441.92C346.89,-421.49 350,-368.4 350,-324 350,-324 350,-324 350,-137.5 350,-97.34 356.06,-78.96 389,-56 423.42,-32 697.51,-18.06 816.35,-13.09"/>
<polygon fill="midnightblue" stroke="midnightblue" points="816.83,-16.57 826.68,-12.66 816.54,-9.58 816.83,-16.57"/>
</g>
<!-- Node2&#45;&gt;Node4 -->
<g id="edge3" class="edge">
<title>Node2&#45;&gt;Node4</title>
<path fill="none" stroke="midnightblue" d="M356.68,-441.81C385.31,-420.5 459.23,-365.5 495.01,-338.88"/>
<polygon fill="midnightblue" stroke="midnightblue" points="497.3,-341.53 503.23,-332.76 493.12,-335.92 497.3,-341.53"/>
</g>
<!-- Node5 -->
<g id="node5" class="node">
<title>Node5</title>
<g id="a_node5"><a xlink:href="node_8hpp.html" target="_top" xlink:title=" ">
<polygon fill="none" stroke="black" points="200.5,-246.5 200.5,-276.5 283.5,-276.5 283.5,-246.5 200.5,-246.5"/>
<text text-anchor="start" x="208.5" y="-264.5" font-family="Helvetica,sans-Serif" font-size="10.00">yaclib/util/detail</text>
<text text-anchor="middle" x="242" y="-253.5" font-family="Helvetica,sans-Serif" font-size="10.00">/node.hpp</text>
</a>
</g>
</g>
<!-- Node2&#45;&gt;Node5 -->
<g id="edge43" class="edge">
<title>Node2&#45;&gt;Node5</title>
<path fill="none" stroke="midnightblue" d="M292.42,-442.63C262.52,-435.78 226.16,-423.13 201,-400 170.89,-372.31 152.25,-349.35 171,-313 177.64,-300.13 189.25,-289.82 201.18,-281.96"/>
<polygon fill="midnightblue" stroke="midnightblue" points="203.14,-284.86 209.85,-276.66 199.49,-278.88 203.14,-284.86"/>
</g>
<!-- Node2&#45;&gt;Node12 -->
<g id="edge44" class="edge">
<title>Node2&#45;&gt;Node12</title>
<path fill="none" stroke="midnightblue" d="M301.01,-441.95C216.13,-424.18 38,-380.2 38,-324 38,-324 38,-324 38,-137.5 38,-99.74 41.56,-87.75 62,-56 69.67,-44.08 81.42,-33.53 91.8,-25.65"/>
<polygon fill="midnightblue" stroke="midnightblue" points="94.02,-28.37 100.09,-19.69 89.93,-22.69 94.02,-28.37"/>
</g>
<!-- Node2&#45;&gt;Node20 -->
<g id="edge37" class="edge">
<title>Node2&#45;&gt;Node20</title>
<path fill="none" stroke="midnightblue" d="M334.35,-441.73C323.26,-432.61 305.5,-418 290.87,-405.96"/>
<polygon fill="midnightblue" stroke="midnightblue" points="293.07,-403.24 283.12,-399.59 288.62,-408.65 293.07,-403.24"/>
</g>
<!-- Node4&#45;&gt;Node3 -->
<g id="edge4" class="edge">
<title>Node4&#45;&gt;Node3</title>
<path fill="none" stroke="midnightblue" d="M493.74,-313.43C457.59,-297.28 388,-258.71 388,-201 388,-201 388,-201 388,-137.5 388,-99.05 386.72,-79.69 417,-56 447.89,-31.83 702.75,-18.12 816.52,-13.16"/>
<polygon fill="midnightblue" stroke="midnightblue" points="816.91,-16.64 826.75,-12.72 816.61,-9.65 816.91,-16.64"/>
</g>
<!-- Node4&#45;&gt;Node5 -->
<g id="edge5" class="edge">
<title>Node4&#45;&gt;Node5</title>
<path fill="none" stroke="midnightblue" d="M475.89,-313.48C427.96,-303.03 346.62,-285.3 293.61,-273.75"/>
<polygon fill="midnightblue" stroke="midnightblue" points="294.24,-270.3 283.73,-271.59 292.75,-277.14 294.24,-270.3"/>
</g>
<!-- Node4&#45;&gt;Node6 -->
<g id="edge7" class="edge">
<title>Node4&#45;&gt;Node6</title>
<path fill="none" stroke="midnightblue" d="M531.33,-313.48C550.21,-303.62 581.51,-287.29 603.58,-275.77"/>
<polygon fill="midnightblue" stroke="midnightblue" points="605.45,-278.74 612.7,-271.01 602.21,-272.53 605.45,-278.74"/>
</g>
<!-- Node5&#45;&gt;Node3 -->
<g id="edge6" class="edge">
<title>Node5&#45;&gt;Node3</title>
<path fill="none" stroke="midnightblue" d="M240.92,-246.23C238.91,-208.3 239.28,-104.56 298,-56 337.44,-23.39 681.66,-14.14 816.84,-11.76"/>
<polygon fill="midnightblue" stroke="midnightblue" points="817.03,-15.26 826.97,-11.59 816.91,-8.26 817.03,-15.26"/>
</g>
<!-- Node6&#45;&gt;Node3 -->
<g id="edge8" class="edge">
<title>Node6&#45;&gt;Node3</title>
<path fill="none" stroke="midnightblue" d="M628.78,-251.82C627.86,-213.8 624.63,-63.6 631,-56 654.25,-28.26 753.25,-17.51 816.61,-13.42"/>
<polygon fill="midnightblue" stroke="midnightblue" points="817.07,-16.9 826.84,-12.8 816.65,-9.91 817.07,-16.9"/>
</g>
<!-- Node7 -->
<g id="node7" class="node">
<title>Node7</title>
<g id="a_node7"><a xlink:href="safe__call_8hpp.html" target="_top" xlink:title=" ">
<polygon fill="none" stroke="black" points="492.5,-123.5 492.5,-153.5 575.5,-153.5 575.5,-123.5 492.5,-123.5"/>
<text text-anchor="start" x="500.5" y="-141.5" font-family="Helvetica,sans-Serif" font-size="10.00">yaclib/util/detail</text>
<text text-anchor="middle" x="534" y="-130.5" font-family="Helvetica,sans-Serif" font-size="10.00">/safe_call.hpp</text>
</a>
</g>
</g>
<!-- Node6&#45;&gt;Node7 -->
<g id="edge9" class="edge">
<title>Node6&#45;&gt;Node7</title>
<path fill="none" stroke="midnightblue" d="M622.17,-251.8C607.5,-233.12 572.62,-188.69 551.39,-161.65"/>
<polygon fill="midnightblue" stroke="midnightblue" points="553.95,-159.24 545.02,-153.54 548.44,-163.57 553.95,-159.24"/>
</g>
<!-- Node8 -->
<g id="node8" class="node">
<title>Node8</title>
<g id="a_node8"><a xlink:title=" ">
<polygon fill="none" stroke="#bfbfbf" points="522,-62 522,-81 584,-81 584,-62 522,-62"/>
<text text-anchor="middle" x="553" y="-69" font-family="Helvetica,sans-Serif" font-size="10.00">type_traits</text>
</a>
</g>
</g>
<!-- Node6&#45;&gt;Node8 -->
<g id="edge35" class="edge">
<title>Node6&#45;&gt;Node8</title>
<path fill="none" stroke="midnightblue" d="M626.93,-251.87C621.47,-229.79 605.62,-169.73 584,-123 578.62,-111.38 571.14,-99.11 564.88,-89.58"/>
<polygon fill="midnightblue" stroke="midnightblue" points="567.64,-87.42 559.14,-81.09 561.84,-91.34 567.64,-87.42"/>
</g>
<!-- Node6&#45;&gt;Node9 -->
<g id="edge36" class="edge">
<title>Node6&#45;&gt;Node9</title>
<path fill="none" stroke="midnightblue" d="M611.93,-251.88C582.18,-236.12 520.44,-199.98 483,-154 467.48,-134.94 457.01,-108.32 451.28,-90.76"/>
<polygon fill="midnightblue" stroke="midnightblue" points="454.61,-89.67 448.32,-81.14 447.92,-91.73 454.61,-89.67"/>
</g>
<!-- Node6&#45;&gt;Node10 -->
<g id="edge13" class="edge">
<title>Node6&#45;&gt;Node10</title>
<path fill="none" stroke="midnightblue" d="M677.69,-252.48C742.53,-241.79 857.28,-222.88 928.17,-211.19"/>
<polygon fill="midnightblue" stroke="midnightblue" points="929,-214.6 938.3,-209.52 927.86,-207.69 929,-214.6"/>
</g>
<!-- Node6&#45;&gt;Node16 -->
<g id="edge33" class="edge">
<title>Node6&#45;&gt;Node16</title>
<path fill="none" stroke="midnightblue" d="M641.51,-251.82C655.01,-242.22 676.87,-225.99 694,-210 710.25,-194.83 726.94,-175.98 739.05,-161.59"/>
<polygon fill="midnightblue" stroke="midnightblue" points="741.91,-163.62 745.62,-153.7 736.53,-159.15 741.91,-163.62"/>
</g>
<!-- Node17 -->
<g id="node17" class="node">
<title>Node17</title>
<g id="a_node17"><a xlink:href="ref_8hpp.html" target="_top" xlink:title=" ">
<polygon fill="none" stroke="black" points="640.5,-62 640.5,-81 729.5,-81 729.5,-62 640.5,-62"/>
<text text-anchor="middle" x="685" y="-69" font-family="Helvetica,sans-Serif" font-size="10.00">yaclib/util/ref.hpp</text>
</a>
</g>
</g>
<!-- Node6&#45;&gt;Node17 -->
<g id="edge34" class="edge">
<title>Node6&#45;&gt;Node17</title>
<path fill="none" stroke="midnightblue" d="M634.57,-251.91C640.67,-242.14 650.35,-225.51 656,-210 670.98,-168.88 679.21,-117.88 682.79,-91.03"/>
<polygon fill="midnightblue" stroke="midnightblue" points="686.26,-91.46 684.04,-81.1 679.32,-90.58 686.26,-91.46"/>
</g>
<!-- Node7&#45;&gt;Node3 -->
<g id="edge10" class="edge">
<title>Node7&#45;&gt;Node3</title>
<path fill="none" stroke="midnightblue" d="M523.54,-123.33C511.75,-105.51 496.28,-74.96 513,-56 532.74,-33.62 721.45,-19.62 816.65,-13.93"/>
<polygon fill="midnightblue" stroke="midnightblue" points="816.89,-17.42 826.67,-13.34 816.48,-10.44 816.89,-17.42"/>
</g>
<!-- Node7&#45;&gt;Node8 -->
<g id="edge11" class="edge">
<title>Node7&#45;&gt;Node8</title>
<path fill="none" stroke="midnightblue" d="M538.12,-123.4C540.91,-113.86 544.62,-101.18 547.63,-90.86"/>
<polygon fill="midnightblue" stroke="midnightblue" points="551.01,-91.77 550.46,-81.19 544.29,-89.81 551.01,-91.77"/>
</g>
<!-- Node7&#45;&gt;Node9 -->
<g id="edge12" class="edge">
<title>Node7&#45;&gt;Node9</title>
<path fill="none" stroke="midnightblue" d="M514.91,-123.4C500.42,-112.7 480.57,-98.03 465.89,-87.19"/>
<polygon fill="midnightblue" stroke="midnightblue" points="467.64,-84.13 457.52,-81.01 463.48,-89.76 467.64,-84.13"/>
</g>
<!-- Node10&#45;&gt;Node3 -->
<g id="edge14" class="edge">
<title>Node10&#45;&gt;Node3</title>
<path fill="none" stroke="midnightblue" d="M1009.91,-190.41C1024.22,-183.04 1042.46,-170.92 1051,-154 1061.71,-132.79 1046.56,-63.23 1040,-56 1031.92,-47.09 969.16,-31.98 922.46,-21.76"/>
<polygon fill="midnightblue" stroke="midnightblue" points="922.98,-18.29 912.47,-19.59 921.5,-25.13 922.98,-18.29"/>
</g>
<!-- Node11 -->
<g id="node11" class="node">
<title>Node11</title>
<g id="a_node11"><a xlink:href="atomic_8hpp.html" target="_top" xlink:title=" ">
<polygon fill="none" stroke="black" points="1108.5,-62 1108.5,-81 1221.5,-81 1221.5,-62 1108.5,-62"/>
<text text-anchor="middle" x="1165" y="-69" font-family="Helvetica,sans-Serif" font-size="10.00">yaclib/fault/atomic.hpp</text>
</a>
</g>
</g>
<!-- Node10&#45;&gt;Node11 -->
<g id="edge15" class="edge">
<title>Node10&#45;&gt;Node11</title>
<path fill="none" stroke="midnightblue" d="M1018.71,-190.45C1040.66,-183.04 1070.97,-170.84 1094,-154 1118.77,-135.89 1140.86,-107.67 1153.59,-89.64"/>
<polygon fill="midnightblue" stroke="midnightblue" points="1156.58,-91.47 1159.36,-81.25 1150.81,-87.51 1156.58,-91.47"/>
</g>
<!-- Node15 -->
<g id="node15" class="node">
<title>Node15</title>
<g id="a_node15"><a xlink:href="atomic__counter_8hpp.html" target="_top" xlink:title=" ">
<polygon fill="none" stroke="black" points="938,-123.5 938,-153.5 1042,-153.5 1042,-123.5 938,-123.5"/>
<text text-anchor="start" x="946" y="-141.5" font-family="Helvetica,sans-Serif" font-size="10.00">yaclib/util/detail</text>
<text text-anchor="middle" x="990" y="-130.5" font-family="Helvetica,sans-Serif" font-size="10.00">/atomic_counter.hpp</text>
</a>
</g>
</g>
<!-- Node10&#45;&gt;Node15 -->
<g id="edge20" class="edge">
<title>Node10&#45;&gt;Node15</title>
<path fill="none" stroke="midnightblue" d="M990,-190.48C990,-183.47 990,-173.19 990,-163.7"/>
<polygon fill="midnightblue" stroke="midnightblue" points="993.5,-163.52 990,-153.52 986.5,-163.52 993.5,-163.52"/>
</g>
<!-- Node10&#45;&gt;Node16 -->
<g id="edge25" class="edge">
<title>Node10&#45;&gt;Node16</title>
<path fill="none" stroke="midnightblue" d="M956.62,-190.48C919.88,-181.09 860.15,-165.84 815.58,-154.46"/>
<polygon fill="midnightblue" stroke="midnightblue" points="816.3,-151.03 805.74,-151.95 814.57,-157.81 816.3,-151.03"/>
</g>
<!-- Node11&#45;&gt;Node3 -->
<g id="edge16" class="edge">
<title>Node11&#45;&gt;Node3</title>
<path fill="none" stroke="midnightblue" d="M1123.33,-61.97C1113.7,-60.01 1103.49,-57.93 1094,-56 1035.53,-44.13 968.4,-30.6 923.21,-21.5"/>
<polygon fill="midnightblue" stroke="midnightblue" points="923.84,-18.06 913.34,-19.51 922.45,-24.92 923.84,-18.06"/>
</g>
<!-- Node11&#45;&gt;Node12 -->
<g id="edge17" class="edge">
<title>Node11&#45;&gt;Node12</title>
<path fill="none" stroke="midnightblue" d="M1108.4,-64.04C1082.41,-61.24 1051.17,-58.13 1023,-56 682.71,-30.22 269.59,-15.91 148.75,-12.07"/>
<polygon fill="midnightblue" stroke="midnightblue" points="148.72,-8.56 138.61,-11.75 148.5,-15.56 148.72,-8.56"/>
</g>
<!-- Node13 -->
<g id="node13" class="node">
<title>Node13</title>
<g id="a_node13"><a xlink:title=" ">
<polygon fill="none" stroke="#bfbfbf" points="1110,-0.5 1110,-19.5 1156,-19.5 1156,-0.5 1110,-0.5"/>
<text text-anchor="middle" x="1133" y="-7.5" font-family="Helvetica,sans-Serif" font-size="10.00">cstdint</text>
</a>
</g>
</g>
<!-- Node11&#45;&gt;Node13 -->
<g id="edge18" class="edge">
<title>Node11&#45;&gt;Node13</title>
<path fill="none" stroke="midnightblue" d="M1160.42,-61.98C1155.76,-53.32 1148.41,-39.65 1142.49,-28.65"/>
<polygon fill="midnightblue" stroke="midnightblue" points="1145.4,-26.66 1137.58,-19.51 1139.23,-29.97 1145.4,-26.66"/>
</g>
<!-- Node14 -->
<g id="node14" class="node">
<title>Node14</title>
<g id="a_node14"><a xlink:title=" ">
<polygon fill="none" stroke="#bfbfbf" points="1174,-0.5 1174,-19.5 1220,-19.5 1220,-0.5 1174,-0.5"/>
<text text-anchor="middle" x="1197" y="-7.5" font-family="Helvetica,sans-Serif" font-size="10.00">atomic</text>
</a>
</g>
</g>
<!-- Node11&#45;&gt;Node14 -->
<g id="edge19" class="edge">
<title>Node11&#45;&gt;Node14</title>
<path fill="none" stroke="midnightblue" d="M1169.58,-61.98C1174.24,-53.32 1181.59,-39.65 1187.51,-28.65"/>
<polygon fill="midnightblue" stroke="midnightblue" points="1190.77,-29.97 1192.42,-19.51 1184.6,-26.66 1190.77,-29.97"/>
</g>
<!-- Node15&#45;&gt;Node3 -->
<g id="edge21" class="edge">
<title>Node15&#45;&gt;Node3</title>
<path fill="none" stroke="midnightblue" d="M1003.66,-123.43C1018.65,-106.25 1038.62,-76.91 1023,-56 1016.5,-47.3 960.23,-32.22 918.03,-21.94"/>
<polygon fill="midnightblue" stroke="midnightblue" points="918.73,-18.5 908.19,-19.56 917.09,-25.31 918.73,-18.5"/>
</g>
<!-- Node15&#45;&gt;Node9 -->
<g id="edge24" class="edge">
<title>Node15&#45;&gt;Node9</title>
<path fill="none" stroke="midnightblue" d="M937.77,-132.69C831.59,-122.79 593.78,-99.98 513,-87 500.67,-85.02 487.2,-82.23 475.59,-79.62"/>
<polygon fill="midnightblue" stroke="midnightblue" points="476.07,-76.14 465.54,-77.31 474.5,-82.96 476.07,-76.14"/>
</g>
<!-- Node15&#45;&gt;Node11 -->
<g id="edge22" class="edge">
<title>Node15&#45;&gt;Node11</title>
<path fill="none" stroke="midnightblue" d="M1027.97,-123.4C1059.22,-111.79 1103.04,-95.51 1132.64,-84.52"/>
<polygon fill="midnightblue" stroke="midnightblue" points="1133.94,-87.77 1142.1,-81.01 1131.5,-81.21 1133.94,-87.77"/>
</g>
<!-- Node15&#45;&gt;Node12 -->
<g id="edge23" class="edge">
<title>Node15&#45;&gt;Node12</title>
<path fill="none" stroke="midnightblue" d="M955.64,-123.45C907.77,-104.57 817.88,-71.56 738,-56 516.78,-12.91 244.21,-10.11 148.88,-10.59"/>
<polygon fill="midnightblue" stroke="midnightblue" points="148.64,-7.09 138.66,-10.66 148.68,-14.09 148.64,-7.09"/>
</g>
<!-- Node16&#45;&gt;Node3 -->
<g id="edge26" class="edge">
<title>Node16&#45;&gt;Node3</title>
<path fill="none" stroke="midnightblue" d="M766.72,-123.3C778.5,-106.51 799.33,-78.05 820,-56 829.97,-45.36 842.18,-34.52 852.15,-26.15"/>
<polygon fill="midnightblue" stroke="midnightblue" points="854.42,-28.81 859.91,-19.75 849.97,-23.41 854.42,-28.81"/>
</g>
<!-- Node16&#45;&gt;Node8 -->
<g id="edge29" class="edge">
<title>Node16&#45;&gt;Node8</title>
<path fill="none" stroke="midnightblue" d="M712.99,-123.48C676.1,-111.72 624.07,-95.14 589.47,-84.12"/>
<polygon fill="midnightblue" stroke="midnightblue" points="590.36,-80.73 579.77,-81.03 588.23,-87.4 590.36,-80.73"/>
</g>
<!-- Node16&#45;&gt;Node17 -->
<g id="edge27" class="edge">
<title>Node16&#45;&gt;Node17</title>
<path fill="none" stroke="midnightblue" d="M741.38,-123.4C729.82,-112.96 714.08,-98.75 702.17,-88"/>
<polygon fill="midnightblue" stroke="midnightblue" points="704.4,-85.3 694.63,-81.19 699.71,-90.49 704.4,-85.3"/>
</g>
<!-- Node18 -->
<g id="node18" class="node">
<title>Node18</title>
<g id="a_node18"><a xlink:href="intrusive__ptr__impl_8hpp.html" target="_top" xlink:title=" ">
<polygon fill="none" stroke="black" points="900,-56.5 900,-86.5 1014,-86.5 1014,-56.5 900,-56.5"/>
<text text-anchor="start" x="908" y="-74.5" font-family="Helvetica,sans-Serif" font-size="10.00">yaclib/util/detail</text>
<text text-anchor="middle" x="957" y="-63.5" font-family="Helvetica,sans-Serif" font-size="10.00">/intrusive_ptr_impl.hpp</text>
</a>
</g>
</g>
<!-- Node16&#45;&gt;Node18 -->
<g id="edge30" class="edge">
<title>Node16&#45;&gt;Node18</title>
<path fill="none" stroke="midnightblue" d="M800.4,-123.4C830.8,-113.52 871.61,-100.25 903.94,-89.74"/>
<polygon fill="midnightblue" stroke="midnightblue" points="905.26,-93 913.69,-86.58 903.1,-86.34 905.26,-93"/>
</g>
<!-- Node17&#45;&gt;Node3 -->
<g id="edge28" class="edge">
<title>Node17&#45;&gt;Node3</title>
<path fill="none" stroke="midnightblue" d="M711.65,-61.98C743.97,-51.64 798.6,-34.16 834.73,-22.6"/>
<polygon fill="midnightblue" stroke="midnightblue" points="835.94,-25.89 844.4,-19.51 833.81,-19.22 835.94,-25.89"/>
</g>
<!-- Node18&#45;&gt;Node3 -->
<g id="edge31" class="edge">
<title>Node18&#45;&gt;Node3</title>
<path fill="none" stroke="midnightblue" d="M936.62,-56.4C923.09,-47.04 905.39,-34.79 891.78,-25.38"/>
<polygon fill="midnightblue" stroke="midnightblue" points="893.73,-22.47 883.51,-19.66 889.75,-28.23 893.73,-22.47"/>
</g>
<!-- Node19 -->
<g id="node19" class="node">
<title>Node19</title>
<g id="a_node19"><a xlink:title=" ">
<polygon fill="none" stroke="#bfbfbf" points="932.5,-0.5 932.5,-19.5 981.5,-19.5 981.5,-0.5 932.5,-0.5"/>
<text text-anchor="middle" x="957" y="-7.5" font-family="Helvetica,sans-Serif" font-size="10.00">cassert</text>
</a>
</g>
</g>
<!-- Node18&#45;&gt;Node19 -->
<g id="edge32" class="edge">
<title>Node18&#45;&gt;Node19</title>
<path fill="none" stroke="midnightblue" d="M957,-56.4C957,-48.47 957,-38.46 957,-29.86"/>
<polygon fill="midnightblue" stroke="midnightblue" points="960.5,-29.66 957,-19.66 953.5,-29.66 960.5,-29.66"/>
</g>
<!-- Node20&#45;&gt;Node3 -->
<g id="edge38" class="edge">
<title>Node20&#45;&gt;Node3</title>
<path fill="none" stroke="midnightblue" d="M275.31,-369.27C288.75,-347.3 312,-303.4 312,-262.5 312,-262.5 312,-262.5 312,-137.5 312,-99.74 306.74,-79.87 336,-56 372.7,-26.07 688.35,-15.3 816.88,-12.13"/>
<polygon fill="midnightblue" stroke="midnightblue" points="816.99,-15.63 826.9,-11.89 816.82,-8.63 816.99,-15.63"/>
</g>
<!-- Node20&#45;&gt;Node4 -->
<g id="edge39" class="edge">
<title>Node20&#45;&gt;Node4</title>
<path fill="none" stroke="midnightblue" d="M321.57,-370.22C366.06,-359.59 427.7,-344.86 469.34,-334.91"/>
<polygon fill="midnightblue" stroke="midnightblue" points="470.3,-338.28 479.22,-332.55 468.68,-331.47 470.3,-338.28"/>
</g>
<!-- Node20&#45;&gt;Node5 -->
<g id="edge40" class="edge">
<title>Node20&#45;&gt;Node5</title>
<path fill="none" stroke="midnightblue" d="M264.21,-369.38C262.3,-355.1 259,-332.41 255,-313 253.2,-304.27 250.86,-294.79 248.67,-286.42"/>
<polygon fill="midnightblue" stroke="midnightblue" points="251.99,-285.31 246.01,-276.56 245.23,-287.13 251.99,-285.31"/>
</g>
<!-- Node20&#45;&gt;Node12 -->
<g id="edge41" class="edge">
<title>Node20&#45;&gt;Node12</title>
<path fill="none" stroke="midnightblue" d="M222.99,-369.5C204.56,-361.49 184.27,-349.65 171,-333 150.78,-307.62 152,-294.95 152,-262.5 152,-262.5 152,-262.5 152,-137.5 152,-97.35 134.22,-52.95 122.99,-28.89"/>
<polygon fill="midnightblue" stroke="midnightblue" points="126.01,-27.1 118.51,-19.63 119.71,-30.15 126.01,-27.1"/>
</g>
<!-- Node21 -->
<g id="node21" class="node">
<title>Node21</title>
<g id="a_node21"><a xlink:title=" ">
<polygon fill="none" stroke="#bfbfbf" points="180,-313.5 180,-332.5 246,-332.5 246,-313.5 180,-313.5"/>
<text text-anchor="middle" x="213" y="-320.5" font-family="Helvetica,sans-Serif" font-size="10.00">string_view</text>
</a>
</g>
</g>
<!-- Node20&#45;&gt;Node21 -->
<g id="edge42" class="edge">
<title>Node20&#45;&gt;Node21</title>
<path fill="none" stroke="midnightblue" d="M253.44,-369.4C245.66,-360.66 235.64,-349.41 227.52,-340.3"/>
<polygon fill="midnightblue" stroke="midnightblue" points="229.98,-337.8 220.71,-332.66 224.75,-342.45 229.98,-337.8"/>
</g>
<!-- Node22&#45;&gt;Node3 -->
<g id="edge47" class="edge">
<title>Node22&#45;&gt;Node3</title>
<path fill="none" stroke="midnightblue" d="M767.38,-375C788.4,-356.76 834,-311.55 834,-262.5 834,-262.5 834,-262.5 834,-137.5 834,-97.44 851.31,-53 862.25,-28.92"/>
<polygon fill="midnightblue" stroke="midnightblue" points="865.52,-30.18 866.61,-19.64 859.19,-27.2 865.52,-30.18"/>
</g>
<!-- Node22&#45;&gt;Node4 -->
<g id="edge48" class="edge">
<title>Node22&#45;&gt;Node4</title>
<path fill="none" stroke="midnightblue" d="M722.33,-374.98C679.47,-364.44 606.46,-346.49 559.5,-334.94"/>
<polygon fill="midnightblue" stroke="midnightblue" points="560.15,-331.5 549.61,-332.51 558.48,-338.3 560.15,-331.5"/>
</g>
<!-- Node22&#45;&gt;Node16 -->
<g id="edge49" class="edge">
<title>Node22&#45;&gt;Node16</title>
<path fill="none" stroke="midnightblue" d="M757,-374.82C757,-340.97 757,-217.18 757,-164.02"/>
<polygon fill="midnightblue" stroke="midnightblue" points="760.5,-163.81 757,-153.81 753.5,-163.81 760.5,-163.81"/>
</g>
<!-- Node23&#45;&gt;Node3 -->
<g id="edge53" class="edge">
<title>Node23&#45;&gt;Node3</title>
<path fill="none" stroke="midnightblue" d="M768.56,-436.93C791.3,-429.14 816.55,-417.36 835,-400 862.36,-374.25 872,-361.57 872,-324 872,-324 872,-324 872,-137.5 872,-99.2 871.54,-54.38 871.24,-29.7"/>
<polygon fill="midnightblue" stroke="midnightblue" points="874.74,-29.55 871.11,-19.59 867.74,-29.63 874.74,-29.55"/>
</g>
<!-- Node23&#45;&gt;Node12 -->
<g id="edge62" class="edge">
<title>Node23&#45;&gt;Node12</title>
<path fill="none" stroke="midnightblue" d="M657.35,-447.27C533.14,-439.74 241.05,-420.13 201,-400 127.2,-362.92 76,-345.09 76,-262.5 76,-262.5 76,-262.5 76,-137.5 76,-97.35 93.78,-52.95 105.01,-28.89"/>
<polygon fill="midnightblue" stroke="midnightblue" points="108.29,-30.15 109.49,-19.63 101.99,-27.1 108.29,-30.15"/>
</g>
<!-- Node23&#45;&gt;Node20 -->
<g id="edge55" class="edge">
<title>Node23&#45;&gt;Node20</title>
<path fill="none" stroke="midnightblue" d="M657.29,-442.4C574.67,-430.39 419.96,-407.89 331.85,-395.08"/>
<polygon fill="midnightblue" stroke="midnightblue" points="332.11,-391.58 321.71,-393.6 331.1,-398.5 332.11,-391.58"/>
</g>
<!-- Node23&#45;&gt;Node22 -->
<g id="edge54" class="edge">
<title>Node23&#45;&gt;Node22</title>
<path fill="none" stroke="midnightblue" d="M722.55,-436.4C729.27,-426.46 738.31,-413.11 745.44,-402.57"/>
<polygon fill="midnightblue" stroke="midnightblue" points="748.41,-404.44 751.11,-394.19 742.61,-400.51 748.41,-404.44"/>
</g>
<!-- Node24 -->
<g id="node24" class="node">
<title>Node24</title>
<g id="a_node24"><a xlink:href="thread_8hpp.html" target="_top" xlink:title=" ">
<polygon fill="none" stroke="black" points="1318.5,-129 1318.5,-148 1429.5,-148 1429.5,-129 1318.5,-129"/>
<text text-anchor="middle" x="1374" y="-136" font-family="Helvetica,sans-Serif" font-size="10.00">yaclib/fault/thread.hpp</text>
</a>
</g>
</g>
<!-- Node23&#45;&gt;Node24 -->
<g id="edge56" class="edge">
<title>Node23&#45;&gt;Node24</title>
<path fill="none" stroke="midnightblue" d="M768.75,-450.75C919.86,-449.94 1326,-437.22 1326,-324 1326,-324 1326,-324 1326,-260.5 1326,-221.15 1348.21,-179.35 1362.41,-156.64"/>
<polygon fill="midnightblue" stroke="midnightblue" points="1365.42,-158.43 1367.92,-148.14 1359.55,-154.62 1365.42,-158.43"/>
</g>
<!-- Node24&#45;&gt;Node3 -->
<g id="edge57" class="edge">
<title>Node24&#45;&gt;Node3</title>
<path fill="none" stroke="midnightblue" d="M1369.42,-128.93C1359.66,-111.64 1334.98,-72.79 1302,-56 1229.26,-18.96 1022.13,-30.33 925.35,-20.1"/>
<polygon fill="midnightblue" stroke="midnightblue" points="925.56,-16.6 915.22,-18.89 924.73,-23.55 925.56,-16.6"/>
</g>
<!-- Node25 -->
<g id="node25" class="node">
<title>Node25</title>
<g id="a_node25"><a xlink:href="chrono_8hpp.html" target="_top" xlink:title=" ">
<polygon fill="none" stroke="black" points="1416.5,-62 1416.5,-81 1529.5,-81 1529.5,-62 1416.5,-62"/>
<text text-anchor="middle" x="1473" y="-69" font-family="Helvetica,sans-Serif" font-size="10.00">yaclib/fault/chrono.hpp</text>
</a>
</g>
</g>
<!-- Node24&#45;&gt;Node25 -->
<g id="edge58" class="edge">
<title>Node24&#45;&gt;Node25</title>
<path fill="none" stroke="midnightblue" d="M1387.35,-128.73C1403.75,-117.96 1431.8,-99.55 1451.31,-86.74"/>
<polygon fill="midnightblue" stroke="midnightblue" points="1453.42,-89.54 1459.86,-81.13 1449.58,-83.69 1453.42,-89.54"/>
</g>
<!-- Node27 -->
<g id="node27" class="node">
<title>Node27</title>
<g id="a_node27"><a xlink:title=" ">
<polygon fill="none" stroke="#bfbfbf" points="1354,-62 1354,-81 1398,-81 1398,-62 1354,-62"/>
<text text-anchor="middle" x="1376" y="-69" font-family="Helvetica,sans-Serif" font-size="10.00">thread</text>
</a>
</g>
</g>
<!-- Node24&#45;&gt;Node27 -->
<g id="edge61" class="edge">
<title>Node24&#45;&gt;Node27</title>
<path fill="none" stroke="midnightblue" d="M1374.27,-128.73C1374.56,-119.18 1375.04,-103.62 1375.42,-91.28"/>
<polygon fill="midnightblue" stroke="midnightblue" points="1378.93,-91.23 1375.73,-81.13 1371.93,-91.01 1378.93,-91.23"/>
</g>
<!-- Node25&#45;&gt;Node3 -->
<g id="edge59" class="edge">
<title>Node25&#45;&gt;Node3</title>
<path fill="none" stroke="midnightblue" d="M1438.57,-61.97C1428.46,-59.72 1417.33,-57.51 1407,-56 1196.8,-25.25 1138.83,-45.78 925.17,-20.17"/>
<polygon fill="midnightblue" stroke="midnightblue" points="925.56,-16.69 915.21,-18.95 924.71,-23.64 925.56,-16.69"/>
</g>
<!-- Node26 -->
<g id="node26" class="node">
<title>Node26</title>
<g id="a_node26"><a xlink:title=" ">
<polygon fill="none" stroke="#bfbfbf" points="1450,-0.5 1450,-19.5 1496,-19.5 1496,-0.5 1450,-0.5"/>
<text text-anchor="middle" x="1473" y="-7.5" font-family="Helvetica,sans-Serif" font-size="10.00">chrono</text>
</a>
</g>
</g>
<!-- Node25&#45;&gt;Node26 -->
<g id="edge60" class="edge">
<title>Node25&#45;&gt;Node26</title>
<path fill="none" stroke="midnightblue" d="M1473,-61.98C1473,-53.58 1473,-40.48 1473,-29.66"/>
<polygon fill="midnightblue" stroke="midnightblue" points="1476.5,-29.51 1473,-19.51 1469.5,-29.51 1476.5,-29.51"/>
</g>
<!-- Node28&#45;&gt;Node3 -->
<g id="edge64" class="edge">
<title>Node28&#45;&gt;Node3</title>
<path fill="none" stroke="midnightblue" d="M1322.71,-436.24C1310.21,-413.36 1288,-366.68 1288,-324 1288,-324 1288,-324 1288,-137.5 1288,-99.74 1293.01,-80.18 1264,-56 1207.69,-9.07 1014.02,-28.83 925.26,-20.04"/>
<polygon fill="midnightblue" stroke="midnightblue" points="925.56,-16.56 915.22,-18.86 924.74,-23.51 925.56,-16.56"/>
</g>
<!-- Node29 -->
<g id="node29" class="node">
<title>Node29</title>
<g id="a_node29"><a xlink:title=" ">
<polygon fill="none" stroke="#bfbfbf" points="1354.5,-375 1354.5,-394 1449.5,-394 1449.5,-375 1354.5,-375"/>
<text text-anchor="middle" x="1402" y="-382" font-family="Helvetica,sans-Serif" font-size="10.00">condition_variable</text>
</a>
</g>
</g>
<!-- Node28&#45;&gt;Node29 -->
<g id="edge65" class="edge">
<title>Node28&#45;&gt;Node29</title>
<path fill="none" stroke="midnightblue" d="M1346.41,-436.4C1357.81,-425.96 1373.33,-411.75 1385.07,-401"/>
<polygon fill="midnightblue" stroke="midnightblue" points="1387.49,-403.53 1392.5,-394.19 1382.76,-398.37 1387.49,-403.53"/>
</g>
<!-- Node30&#45;&gt;Node3 -->
<g id="edge67" class="edge">
<title>Node30&#45;&gt;Node3</title>
<path fill="none" stroke="midnightblue" d="M1558,-441.91C1558,-421.48 1558,-368.36 1558,-324 1558,-324 1558,-324 1558,-137.5 1558,-100.2 1566.66,-79.86 1538,-56 1487.35,-13.83 1027.08,-26.77 925.33,-19.89"/>
<polygon fill="midnightblue" stroke="midnightblue" points="925.47,-16.39 915.21,-19 924.86,-23.36 925.47,-16.39"/>
</g>
<!-- Node31 -->
<g id="node31" class="node">
<title>Node31</title>
<g id="a_node31"><a xlink:title=" ">
<polygon fill="none" stroke="#bfbfbf" points="1586.5,-375 1586.5,-394 1629.5,-394 1629.5,-375 1586.5,-375"/>
<text text-anchor="middle" x="1608" y="-382" font-family="Helvetica,sans-Serif" font-size="10.00">mutex</text>
</a>
</g>
</g>
<!-- Node30&#45;&gt;Node31 -->
<g id="edge68" class="edge">
<title>Node30&#45;&gt;Node31</title>
<path fill="none" stroke="midnightblue" d="M1564.74,-441.73C1572.54,-431.6 1585.55,-414.69 1595.26,-402.06"/>
<polygon fill="midnightblue" stroke="midnightblue" points="1598.04,-404.19 1601.36,-394.13 1592.49,-399.92 1598.04,-404.19"/>
</g>
</g>
</svg>
