<?xml version="1.0" encoding="UTF-8" standalone="no"?>
<!DOCTYPE svg PUBLIC "-//W3C//DTD SVG 1.1//EN"
 "http://www.w3.org/Graphics/SVG/1.1/DTD/svg11.dtd">
<!-- Generated by graphviz version 2.50.0 (20220203.2022)
 -->
<!-- Title: yaclib::detail::AtomicBase&lt; T, Atomic, true &gt; Pages: 1 -->
<svg width="410pt" height="252pt"
 viewBox="0.00 0.00 409.50 252.00" xmlns="http://www.w3.org/2000/svg" xmlns:xlink="http://www.w3.org/1999/xlink">
<g id="graph0" class="graph" transform="scale(1 1) rotate(0) translate(4 248)">
<title>yaclib::detail::AtomicBase&lt; T, Atomic, true &gt;</title>
<!-- Node1 -->
<g id="node1" class="node">
<title>Node1</title>
<g id="a_node1"><a xlink:title=" ">
<polygon fill="#bfbfbf" stroke="black" points="0,-0.5 0,-30.5 127,-30.5 127,-0.5 0,-0.5"/>
<text text-anchor="start" x="8" y="-18.5" font-family="Helvetica,sans-Serif" font-size="10.00">yaclib::detail::AtomicBase</text>
<text text-anchor="middle" x="63.5" y="-7.5" font-family="Helvetica,sans-Serif" font-size="10.00">&lt; T, Atomic, true &gt;</text>
</a>
</g>
</g>
<!-- Node2 -->
<g id="node2" class="node">
<title>Node2</title>
<g id="a_node2"><a xlink:href="structyaclib_1_1detail_1_1AtomicBase.html" target="_top" xlink:title=" ">
<polygon fill="none" stroke="black" points="0,-68.5 0,-98.5 127,-98.5 127,-68.5 0,-68.5"/>
<text text-anchor="start" x="8" y="-86.5" font-family="Helvetica,sans-Serif" font-size="10.00">yaclib::detail::AtomicBase</text>
<text text-anchor="middle" x="63.5" y="-75.5" font-family="Helvetica,sans-Serif" font-size="10.00">&lt; T, Atomic, false &gt;</text>
</a>
</g>
</g>
<!-- Node2&#45;&gt;Node1 -->
<g id="edge1" class="edge">
<title>Node2&#45;&gt;Node1</title>
<path fill="none" stroke="midnightblue" d="M63.5,-58.03C63.5,-48.86 63.5,-38.74 63.5,-30.79"/>
<polygon fill="midnightblue" stroke="midnightblue" points="60,-58.18 63.5,-68.18 67,-58.18 60,-58.18"/>
</g>
<!-- Node3 -->
<g id="node3" class="node">
<title>Node3</title>
<g id="a_node3"><a xlink:href="structyaclib_1_1detail_1_1Atomic.html" target="_top" xlink:title=" ">
<polygon fill="none" stroke="black" points="109,-224.5 109,-243.5 236,-243.5 236,-224.5 109,-224.5"/>
<text text-anchor="middle" x="172.5" y="-231.5" font-family="Helvetica,sans-Serif" font-size="10.00">yaclib::detail::Atomic&lt; T &gt;</text>
</a>
</g>
</g>
<!-- Node3&#45;&gt;Node2 -->
<g id="edge2" class="edge">
<title>Node3&#45;&gt;Node2</title>
<path fill="none" stroke="#9a32cd" stroke-dasharray="5,2" d="M133.16,-220.73C111.94,-212 87.33,-198.03 73.5,-177 57.79,-153.11 59.02,-118.04 61.28,-98.67"/>
<polygon fill="#9a32cd" stroke="#9a32cd" points="132.03,-224.05 142.62,-224.38 134.55,-217.51 132.03,-224.05"/>
<text text-anchor="middle" x="86.5" y="-159" font-family="Helvetica,sans-Serif" font-size="10.00"> _impl</text>
</g>
<!-- Node6 -->
<g id="node6" class="node">
<title>Node6</title>
<g id="a_node6"><a xlink:href="structyaclib_1_1detail_1_1AtomicBase.html" target="_top" xlink:title=" ">
<polygon fill="none" stroke="black" points="109,-146.5 109,-176.5 236,-176.5 236,-146.5 109,-146.5"/>
<text text-anchor="start" x="117" y="-164.5" font-family="Helvetica,sans-Serif" font-size="10.00">yaclib::detail::AtomicBase</text>
<text text-anchor="middle" x="172.5" y="-153.5" font-family="Helvetica,sans-Serif" font-size="10.00">&lt; T, Atomic, bool &gt;</text>
</a>
</g>
</g>
<!-- Node3&#45;&gt;Node6 -->
<g id="edge6" class="edge">
<title>Node3&#45;&gt;Node6</title>
<path fill="none" stroke="#9a32cd" stroke-dasharray="5,2" d="M172.5,-214.24C172.5,-202.41 172.5,-187.38 172.5,-176.58"/>
<polygon fill="#9a32cd" stroke="#9a32cd" points="169,-214.36 172.5,-224.36 176,-214.36 169,-214.36"/>
<text text-anchor="middle" x="185.5" y="-198" font-family="Helvetica,sans-Serif" font-size="10.00"> _impl</text>
</g>
<!-- Node4 -->
<g id="node4" class="node">
<title>Node4</title>
<g id="a_node4"><a xlink:href="structyaclib_1_1detail_1_1AtomicBase.html" target="_top" xlink:title=" ">
<polygon fill="none" stroke="black" points="242,-68.5 242,-98.5 369,-98.5 369,-68.5 242,-68.5"/>
<text text-anchor="start" x="250" y="-86.5" font-family="Helvetica,sans-Serif" font-size="10.00">yaclib::detail::AtomicBase</text>
<text text-anchor="middle" x="305.5" y="-75.5" font-family="Helvetica,sans-Serif" font-size="10.00">&lt; T, std::atomic&lt; T &gt; &gt;</text>
</a>
</g>
</g>
<!-- Node4&#45;&gt;Node3 -->
<g id="edge3" class="edge">
<title>Node4&#45;&gt;Node3</title>
<path fill="none" stroke="midnightblue" d="M299.94,-108.38C297.85,-115 295.07,-122.01 291.5,-128 264.82,-172.72 212.67,-208.64 187.2,-224.38"/>
<polygon fill="midnightblue" stroke="midnightblue" points="303.38,-109.07 302.7,-98.5 296.64,-107.19 303.38,-109.07"/>
</g>
<!-- Node5 -->
<g id="node5" class="node">
<title>Node5</title>
<g id="a_node5"><a xlink:href="classstd_1_1atomic_3_01T_01_4.html" target="_top" xlink:title=" ">
<polygon fill="none" stroke="black" points="333.5,-152 333.5,-171 401.5,-171 401.5,-152 333.5,-152"/>
<text text-anchor="middle" x="367.5" y="-159" font-family="Helvetica,sans-Serif" font-size="10.00">atomic&lt; T &gt;</text>
</a>
</g>
</g>
<!-- Node5&#45;&gt;Node4 -->
<g id="edge4" class="edge">
<title>Node5&#45;&gt;Node4</title>
<path fill="none" stroke="#9a32cd" stroke-dasharray="5,2" d="M353.84,-143.75C342.77,-130.19 327.36,-111.3 316.94,-98.52"/>
<polygon fill="#9a32cd" stroke="#9a32cd" points="351.35,-146.25 360.39,-151.78 356.78,-141.82 351.35,-146.25"/>
<text text-anchor="middle" x="352.5" y="-120" font-family="Helvetica,sans-Serif" font-size="10.00"> _impl</text>
</g>
<!-- Node6&#45;&gt;Node2 -->
<g id="edge7" class="edge">
<title>Node6&#45;&gt;Node2</title>
<path fill="none" stroke="orange" stroke-dasharray="5,2" d="M100.16,-141.98C92.97,-138.16 86.24,-133.55 80.5,-128 72.46,-120.22 68.15,-108.19 65.88,-98.75"/>
<polygon fill="orange" stroke="orange" points="98.91,-145.27 109.44,-146.42 101.93,-138.95 98.91,-145.27"/>
<text text-anchor="middle" x="124.5" y="-120" font-family="Helvetica,sans-Serif" font-size="10.00"> &lt; T, Atomic, false &gt;</text>
</g>
<!-- Node6&#45;&gt;Node4 -->
<g id="edge5" class="edge">
<title>Node6&#45;&gt;Node4</title>
<path fill="none" stroke="orange" stroke-dasharray="5,2" d="M178.49,-136.92C181.36,-129.66 185.53,-122.22 191.5,-117 205.52,-104.74 223.88,-97.09 241.75,-92.32"/>
<polygon fill="orange" stroke="orange" points="175.14,-135.88 175.32,-146.48 181.79,-138.09 175.14,-135.88"/>
<text text-anchor="middle" x="241.5" y="-120" font-family="Helvetica,sans-Serif" font-size="10.00"> &lt; T, std::atomic&lt; T &gt; &gt;</text>
</g>
</g>
</svg>
