<?xml version="1.0" encoding="UTF-8" standalone="no"?>
<!DOCTYPE svg PUBLIC "-//W3C//DTD SVG 1.1//EN"
 "http://www.w3.org/Graphics/SVG/1.1/DTD/svg11.dtd">
<!-- Generated by graphviz version 2.50.0 (20220203.2022)
 -->
<!-- Title: yaclib::detail::Atomic&lt; T * &gt; Pages: 1 -->
<svg width="382pt" height="196pt"
 viewBox="0.00 0.00 381.50 196.00" xmlns="http://www.w3.org/2000/svg" xmlns:xlink="http://www.w3.org/1999/xlink">
<g id="graph0" class="graph" transform="scale(1 1) rotate(0) translate(4 192)">
<title>yaclib::detail::Atomic&lt; T * &gt;</title>
<!-- Node1 -->
<g id="node1" class="node">
<title>Node1</title>
<g id="a_node1"><a xlink:title=" ">
<polygon fill="#bfbfbf" stroke="black" points="11.5,-0.5 11.5,-30.5 115.5,-30.5 115.5,-0.5 11.5,-0.5"/>
<text text-anchor="start" x="19.5" y="-18.5" font-family="Helvetica,sans-Serif" font-size="10.00">yaclib::detail::Atomic</text>
<text text-anchor="middle" x="63.5" y="-7.5" font-family="Helvetica,sans-Serif" font-size="10.00">&lt; T * &gt;</text>
</a>
</g>
</g>
<!-- Node2 -->
<g id="node2" class="node">
<title>Node2</title>
<g id="a_node2"><a xlink:href="structyaclib_1_1detail_1_1AtomicBase.html" target="_top" xlink:title=" ">
<polygon fill="none" stroke="black" points="0,-68.5 0,-98.5 127,-98.5 127,-68.5 0,-68.5"/>
<text text-anchor="start" x="8" y="-86.5" font-family="Helvetica,sans-Serif" font-size="10.00">yaclib::detail::AtomicBase</text>
<text text-anchor="middle" x="63.5" y="-75.5" font-family="Helvetica,sans-Serif" font-size="10.00">&lt; T *, std::atomic&lt; T * &gt; &gt;</text>
</a>
</g>
</g>
<!-- Node2&#45;&gt;Node1 -->
<g id="edge1" class="edge">
<title>Node2&#45;&gt;Node1</title>
<path fill="none" stroke="midnightblue" d="M63.5,-58.03C63.5,-48.86 63.5,-38.74 63.5,-30.79"/>
<polygon fill="midnightblue" stroke="midnightblue" points="60,-58.18 63.5,-68.18 67,-58.18 60,-58.18"/>
</g>
<!-- Node3 -->
<g id="node3" class="node">
<title>Node3</title>
<g id="a_node3"><a xlink:href="classstd_1_1atomic_3_01T_01_5_01_4.html" target="_top" xlink:title=" ">
<polygon fill="none" stroke="black" points="6.5,-163 6.5,-182 80.5,-182 80.5,-163 6.5,-163"/>
<text text-anchor="middle" x="43.5" y="-170" font-family="Helvetica,sans-Serif" font-size="10.00">atomic&lt; T * &gt;</text>
</a>
</g>
</g>
<!-- Node3&#45;&gt;Node2 -->
<g id="edge2" class="edge">
<title>Node3&#45;&gt;Node2</title>
<path fill="none" stroke="#9a32cd" stroke-dasharray="5,2" d="M41.52,-152.57C40.98,-141.93 41.27,-128.51 44.5,-117 46.3,-110.58 49.68,-104.12 53.1,-98.67"/>
<polygon fill="#9a32cd" stroke="#9a32cd" points="38.05,-153.12 42.33,-162.81 45.03,-152.56 38.05,-153.12"/>
<text text-anchor="middle" x="57.5" y="-125.5" font-family="Helvetica,sans-Serif" font-size="10.00"> _impl</text>
</g>
<!-- Node4 -->
<g id="node4" class="node">
<title>Node4</title>
<g id="a_node4"><a xlink:href="structyaclib_1_1detail_1_1AtomicBase.html" target="_top" xlink:title=" ">
<polygon fill="none" stroke="black" points="120,-157.5 120,-187.5 247,-187.5 247,-157.5 120,-157.5"/>
<text text-anchor="start" x="128" y="-175.5" font-family="Helvetica,sans-Serif" font-size="10.00">yaclib::detail::AtomicBase</text>
<text text-anchor="middle" x="183.5" y="-164.5" font-family="Helvetica,sans-Serif" font-size="10.00">&lt; T, Atomic, bool &gt;</text>
</a>
</g>
</g>
<!-- Node4&#45;&gt;Node2 -->
<g id="edge3" class="edge">
<title>Node4&#45;&gt;Node2</title>
<path fill="none" stroke="orange" stroke-dasharray="5,2" d="M116.12,-153.4C107.99,-149.47 100.2,-144.72 93.5,-139 81.02,-128.34 72.78,-111.12 68.15,-98.9"/>
<polygon fill="orange" stroke="orange" points="114.85,-156.67 125.42,-157.5 117.68,-150.26 114.85,-156.67"/>
<text text-anchor="start" x="93.5" y="-131" font-family="Helvetica,sans-Serif" font-size="10.00"> &lt; T *, std::atomic</text>
<text text-anchor="middle" x="131.5" y="-120" font-family="Helvetica,sans-Serif" font-size="10.00">&lt; T * &gt; &gt;</text>
</g>
<!-- Node6 -->
<g id="node6" class="node">
<title>Node6</title>
<g id="a_node6"><a xlink:href="structyaclib_1_1detail_1_1AtomicBase.html" target="_top" xlink:title=" ">
<polygon fill="none" stroke="black" points="228,-68.5 228,-98.5 355,-98.5 355,-68.5 228,-68.5"/>
<text text-anchor="start" x="236" y="-86.5" font-family="Helvetica,sans-Serif" font-size="10.00">yaclib::detail::AtomicBase</text>
<text text-anchor="middle" x="291.5" y="-75.5" font-family="Helvetica,sans-Serif" font-size="10.00">&lt; T, std::atomic&lt; T &gt; &gt;</text>
</a>
</g>
</g>
<!-- Node4&#45;&gt;Node6 -->
<g id="edge7" class="edge">
<title>Node4&#45;&gt;Node6</title>
<path fill="none" stroke="orange" stroke-dasharray="5,2" d="M192.19,-148.04C197.09,-137.42 204.14,-125.39 213.5,-117 222.13,-109.26 232.86,-103.2 243.57,-98.53"/>
<polygon fill="orange" stroke="orange" points="188.96,-146.68 188.28,-157.25 195.41,-149.41 188.96,-146.68"/>
<text text-anchor="middle" x="263.5" y="-125.5" font-family="Helvetica,sans-Serif" font-size="10.00"> &lt; T, std::atomic&lt; T &gt; &gt;</text>
</g>
<!-- Node5 -->
<g id="node5" class="node">
<title>Node5</title>
<g id="a_node5"><a xlink:href="structyaclib_1_1detail_1_1Atomic.html" target="_top" xlink:title=" ">
<polygon fill="none" stroke="black" points="160,-6 160,-25 287,-25 287,-6 160,-6"/>
<text text-anchor="middle" x="223.5" y="-13" font-family="Helvetica,sans-Serif" font-size="10.00">yaclib::detail::Atomic&lt; T &gt;</text>
</a>
</g>
</g>
<!-- Node5&#45;&gt;Node4 -->
<g id="edge4" class="edge">
<title>Node5&#45;&gt;Node4</title>
<path fill="none" stroke="#9a32cd" stroke-dasharray="5,2" d="M210.75,-33.23C204.11,-42.86 196.56,-55.52 192.5,-68 182.52,-98.7 182.1,-137.07 182.74,-157.38"/>
<polygon fill="#9a32cd" stroke="#9a32cd" points="213.67,-35.17 216.69,-25.01 207.99,-31.07 213.67,-35.17"/>
<text text-anchor="middle" x="205.5" y="-81" font-family="Helvetica,sans-Serif" font-size="10.00"> _impl</text>
</g>
<!-- Node6&#45;&gt;Node5 -->
<g id="edge5" class="edge">
<title>Node6&#45;&gt;Node5</title>
<path fill="none" stroke="midnightblue" d="M269.36,-61.01C256.87,-48.89 241.95,-34.41 232.6,-25.33"/>
<polygon fill="midnightblue" stroke="midnightblue" points="267.13,-63.73 276.75,-68.18 272.01,-58.7 267.13,-63.73"/>
</g>
<!-- Node7 -->
<g id="node7" class="node">
<title>Node7</title>
<g id="a_node7"><a xlink:href="classstd_1_1atomic_3_01T_01_4.html" target="_top" xlink:title=" ">
<polygon fill="none" stroke="black" points="305.5,-163 305.5,-182 373.5,-182 373.5,-163 305.5,-163"/>
<text text-anchor="middle" x="339.5" y="-170" font-family="Helvetica,sans-Serif" font-size="10.00">atomic&lt; T &gt;</text>
</a>
</g>
</g>
<!-- Node7&#45;&gt;Node6 -->
<g id="edge6" class="edge">
<title>Node7&#45;&gt;Node6</title>
<path fill="none" stroke="#9a32cd" stroke-dasharray="5,2" d="M333.54,-152.96C329.68,-142.11 324.15,-128.36 317.5,-117 313.78,-110.64 308.9,-104.19 304.37,-98.73"/>
<polygon fill="#9a32cd" stroke="#9a32cd" points="330.29,-154.29 336.81,-162.64 336.92,-152.05 330.29,-154.29"/>
<text text-anchor="middle" x="340.5" y="-125.5" font-family="Helvetica,sans-Serif" font-size="10.00"> _impl</text>
</g>
</g>
</svg>
