<?xml version="1.0" encoding="UTF-8" standalone="no"?>
<!DOCTYPE svg PUBLIC "-//W3C//DTD SVG 1.1//EN"
 "http://www.w3.org/Graphics/SVG/1.1/DTD/svg11.dtd">
<!-- Generated by graphviz version 2.50.0 (20220203.2022)
 -->
<!-- Title: yaclib::detail::Atomic&lt; T * &gt; Pages: 1 -->
<svg width="148pt" height="196pt"
 viewBox="0.00 0.00 147.50 196.00" xmlns="http://www.w3.org/2000/svg" xmlns:xlink="http://www.w3.org/1999/xlink">
<g id="graph0" class="graph" transform="scale(1 1) rotate(0) translate(4 192)">
<title>yaclib::detail::Atomic&lt; T * &gt;</title>
<!-- Node1 -->
<g id="node1" class="node">
<title>Node1</title>
<g id="a_node1"><a xlink:title=" ">
<polygon fill="#bfbfbf" stroke="black" points="11.5,-0.5 11.5,-30.5 115.5,-30.5 115.5,-0.5 11.5,-0.5"/>
<text text-anchor="start" x="19.5" y="-18.5" font-family="Helvetica,sans-Serif" font-size="10.00">yaclib::detail::Atomic</text>
<text text-anchor="middle" x="63.5" y="-7.5" font-family="Helvetica,sans-Serif" font-size="10.00">&lt; T * &gt;</text>
</a>
</g>
</g>
<!-- Node2 -->
<g id="node2" class="node">
<title>Node2</title>
<g id="a_node2"><a xlink:href="structyaclib_1_1detail_1_1AtomicBase.html" target="_top" xlink:title=" ">
<polygon fill="none" stroke="black" points="0,-68.5 0,-98.5 127,-98.5 127,-68.5 0,-68.5"/>
<text text-anchor="start" x="8" y="-86.5" font-family="Helvetica,sans-Serif" font-size="10.00">yaclib::detail::AtomicBase</text>
<text text-anchor="middle" x="63.5" y="-75.5" font-family="Helvetica,sans-Serif" font-size="10.00">&lt; T *, std::atomic&lt; T * &gt; &gt;</text>
</a>
</g>
</g>
<!-- Node2&#45;&gt;Node1 -->
<g id="edge1" class="edge">
<title>Node2&#45;&gt;Node1</title>
<path fill="none" stroke="midnightblue" d="M63.5,-58.03C63.5,-48.86 63.5,-38.74 63.5,-30.79"/>
<polygon fill="midnightblue" stroke="midnightblue" points="60,-58.18 63.5,-68.18 67,-58.18 60,-58.18"/>
</g>
<!-- Node3 -->
<g id="node3" class="node">
<title>Node3</title>
<g id="a_node3"><a xlink:href="structyaclib_1_1detail_1_1AtomicBase.html" target="_top" xlink:title=" ">
<polygon fill="none" stroke="black" points="0,-157.5 0,-187.5 127,-187.5 127,-157.5 0,-157.5"/>
<text text-anchor="start" x="8" y="-175.5" font-family="Helvetica,sans-Serif" font-size="10.00">yaclib::detail::AtomicBase</text>
<text text-anchor="middle" x="63.5" y="-164.5" font-family="Helvetica,sans-Serif" font-size="10.00">&lt; T, Atomic, bool &gt;</text>
</a>
</g>
</g>
<!-- Node3&#45;&gt;Node2 -->
<g id="edge2" class="edge">
<title>Node3&#45;&gt;Node2</title>
<path fill="none" stroke="orange" stroke-dasharray="5,2" d="M63.5,-147.09C63.5,-131.44 63.5,-111.68 63.5,-98.6"/>
<polygon fill="orange" stroke="orange" points="60,-147.13 63.5,-157.13 67,-147.13 60,-147.13"/>
<text text-anchor="start" x="63.5" y="-131" font-family="Helvetica,sans-Serif" font-size="10.00"> &lt; T *, std::atomic</text>
<text text-anchor="middle" x="101.5" y="-120" font-family="Helvetica,sans-Serif" font-size="10.00">&lt; T * &gt; &gt;</text>
</g>
</g>
</svg>
