<?xml version="1.0" encoding="UTF-8" standalone="no"?>
<!DOCTYPE svg PUBLIC "-//W3C//DTD SVG 1.1//EN"
 "http://www.w3.org/Graphics/SVG/1.1/DTD/svg11.dtd">
<!-- Generated by graphviz version 2.50.0 (20220203.2022)
 -->
<!-- Title: yaclib::detail::Atomic&lt; T &gt; Pages: 1 -->
<svg width="394pt" height="241pt"
 viewBox="0.00 0.00 393.50 241.00" xmlns="http://www.w3.org/2000/svg" xmlns:xlink="http://www.w3.org/1999/xlink">
<g id="graph0" class="graph" transform="scale(1 1) rotate(0) translate(4 237)">
<title>yaclib::detail::Atomic&lt; T &gt;</title>
<!-- Node1 -->
<g id="node1" class="node">
<title>Node1</title>
<g id="a_node1"><a xlink:title=" ">
<polygon fill="#bfbfbf" stroke="black" points="0,-78.5 0,-97.5 127,-97.5 127,-78.5 0,-78.5"/>
<text text-anchor="middle" x="63.5" y="-85.5" font-family="Helvetica,sans-Serif" font-size="10.00">yaclib::detail::Atomic&lt; T &gt;</text>
</a>
</g>
</g>
<!-- Node2 -->
<g id="node2" class="node">
<title>Node2</title>
<g id="a_node2"><a xlink:href="structyaclib_1_1detail_1_1AtomicBase.html" target="_top" xlink:title=" ">
<polygon fill="none" stroke="black" points="145,-135.5 145,-165.5 272,-165.5 272,-135.5 145,-135.5"/>
<text text-anchor="start" x="153" y="-153.5" font-family="Helvetica,sans-Serif" font-size="10.00">yaclib::detail::AtomicBase</text>
<text text-anchor="middle" x="208.5" y="-142.5" font-family="Helvetica,sans-Serif" font-size="10.00">&lt; T, std::atomic&lt; T &gt; &gt;</text>
</a>
</g>
</g>
<!-- Node2&#45;&gt;Node1 -->
<g id="edge1" class="edge">
<title>Node2&#45;&gt;Node1</title>
<path fill="none" stroke="midnightblue" d="M165.64,-131.62C138.67,-120.36 105.09,-106.35 83.97,-97.54"/>
<polygon fill="midnightblue" stroke="midnightblue" points="164.29,-134.85 174.87,-135.47 166.99,-128.39 164.29,-134.85"/>
</g>
<!-- Node5 -->
<g id="node5" class="node">
<title>Node5</title>
<g id="a_node5"><a xlink:href="structyaclib_1_1detail_1_1Atomic.html" target="_top" xlink:title=" ">
<polygon fill="none" stroke="black" points="145,-78.5 145,-97.5 272,-97.5 272,-78.5 145,-78.5"/>
<text text-anchor="middle" x="208.5" y="-85.5" font-family="Helvetica,sans-Serif" font-size="10.00">yaclib::detail::Atomic&lt; T &gt;</text>
</a>
</g>
</g>
<!-- Node2&#45;&gt;Node5 -->
<g id="edge5" class="edge">
<title>Node2&#45;&gt;Node5</title>
<path fill="none" stroke="midnightblue" d="M208.5,-125.35C208.5,-115.51 208.5,-104.78 208.5,-97.54"/>
<polygon fill="midnightblue" stroke="midnightblue" points="205,-125.47 208.5,-135.47 212,-125.47 205,-125.47"/>
</g>
<!-- Node3 -->
<g id="node3" class="node">
<title>Node3</title>
<g id="a_node3"><a xlink:href="classstd_1_1atomic_3_01T_01_4.html" target="_top" xlink:title=" ">
<polygon fill="none" stroke="black" points="174.5,-213.5 174.5,-232.5 242.5,-232.5 242.5,-213.5 174.5,-213.5"/>
<text text-anchor="middle" x="208.5" y="-220.5" font-family="Helvetica,sans-Serif" font-size="10.00">atomic&lt; T &gt;</text>
</a>
</g>
</g>
<!-- Node3&#45;&gt;Node2 -->
<g id="edge2" class="edge">
<title>Node3&#45;&gt;Node2</title>
<path fill="none" stroke="#9a32cd" stroke-dasharray="5,2" d="M208.5,-203.24C208.5,-191.41 208.5,-176.38 208.5,-165.58"/>
<polygon fill="#9a32cd" stroke="#9a32cd" points="205,-203.36 208.5,-213.36 212,-203.36 205,-203.36"/>
<text text-anchor="middle" x="221.5" y="-187" font-family="Helvetica,sans-Serif" font-size="10.00"> _impl</text>
</g>
<!-- Node4 -->
<g id="node4" class="node">
<title>Node4</title>
<g id="a_node4"><a xlink:href="structyaclib_1_1detail_1_1AtomicBase.html" target="_top" xlink:title=" ">
<polygon fill="none" stroke="black" points="195,-0.5 195,-30.5 322,-30.5 322,-0.5 195,-0.5"/>
<text text-anchor="start" x="203" y="-18.5" font-family="Helvetica,sans-Serif" font-size="10.00">yaclib::detail::AtomicBase</text>
<text text-anchor="middle" x="258.5" y="-7.5" font-family="Helvetica,sans-Serif" font-size="10.00">&lt; T, Atomic, bool &gt;</text>
</a>
</g>
</g>
<!-- Node4&#45;&gt;Node2 -->
<g id="edge3" class="edge">
<title>Node4&#45;&gt;Node2</title>
<path fill="none" stroke="orange" stroke-dasharray="5,2" d="M273.72,-39.35C282.91,-56.22 291.15,-79.39 281.5,-98 272.94,-114.52 256.36,-126.87 241.17,-135.33"/>
<polygon fill="orange" stroke="orange" points="276.71,-37.54 268.63,-30.7 270.68,-41.09 276.71,-37.54"/>
<text text-anchor="middle" x="335.5" y="-85.5" font-family="Helvetica,sans-Serif" font-size="10.00"> &lt; T, std::atomic&lt; T &gt; &gt;</text>
</g>
<!-- Node5&#45;&gt;Node4 -->
<g id="edge4" class="edge">
<title>Node5&#45;&gt;Node4</title>
<path fill="none" stroke="#9a32cd" stroke-dasharray="5,2" d="M220.53,-70.04C229.09,-57.97 240.46,-41.94 248.52,-30.58"/>
<polygon fill="#9a32cd" stroke="#9a32cd" points="217.56,-68.17 214.63,-78.36 223.27,-72.22 217.56,-68.17"/>
<text text-anchor="middle" x="248.5" y="-52" font-family="Helvetica,sans-Serif" font-size="10.00"> _impl</text>
</g>
</g>
</svg>
