<?xml version="1.0" encoding="UTF-8" standalone="no"?>
<!DOCTYPE svg PUBLIC "-//W3C//DTD SVG 1.1//EN"
 "http://www.w3.org/Graphics/SVG/1.1/DTD/svg11.dtd">
<!-- Generated by graphviz version 2.50.0 (20220203.2022)
 -->
<!-- Title: yaclib::detail::PromiseType&lt; V, E &gt; Pages: 1 -->
<svg width="1287pt" height="109pt"
 viewBox="0.00 0.00 1287.00 108.50" xmlns="http://www.w3.org/2000/svg" xmlns:xlink="http://www.w3.org/1999/xlink">
<g id="graph0" class="graph" transform="scale(1 1) rotate(0) translate(4 104.5)">
<title>yaclib::detail::PromiseType&lt; V, E &gt;</title>
<!-- Node1 -->
<g id="node1" class="node">
<title>Node1</title>
<g id="a_node1"><a xlink:title=" ">
<polygon fill="#bfbfbf" stroke="black" points="1148,-24.5 1148,-54.5 1279,-54.5 1279,-24.5 1148,-24.5"/>
<text text-anchor="start" x="1156" y="-42.5" font-family="Helvetica,sans-Serif" font-size="10.00">yaclib::detail::PromiseType</text>
<text text-anchor="middle" x="1213.5" y="-31.5" font-family="Helvetica,sans-Serif" font-size="10.00">&lt; V, E &gt;</text>
</a>
</g>
</g>
<!-- Node2 -->
<g id="node2" class="node">
<title>Node2</title>
<g id="a_node2"><a xlink:href="structyaclib_1_1detail_1_1AtomicCounter.html" target="_top" xlink:title=" ">
<polygon fill="none" stroke="black" points="918,-24.5 918,-54.5 1111,-54.5 1111,-24.5 918,-24.5"/>
<text text-anchor="start" x="926" y="-42.5" font-family="Helvetica,sans-Serif" font-size="10.00">yaclib::detail::AtomicCounter</text>
<text text-anchor="middle" x="1014.5" y="-31.5" font-family="Helvetica,sans-Serif" font-size="10.00">&lt; ResultCore&lt; V, E &gt;, CoroutineDeleter &gt;</text>
</a>
</g>
</g>
<!-- Node2&#45;&gt;Node1 -->
<g id="edge1" class="edge">
<title>Node2&#45;&gt;Node1</title>
<path fill="none" stroke="midnightblue" d="M1121.33,-39.5C1130.35,-39.5 1139.3,-39.5 1147.85,-39.5"/>
<polygon fill="midnightblue" stroke="midnightblue" points="1121.11,-36 1111.11,-39.5 1121.11,-43 1121.11,-36"/>
</g>
<!-- Node3 -->
<g id="node3" class="node">
<title>Node3</title>
<g id="a_node3"><a xlink:href="classyaclib_1_1detail_1_1ResultCore.html" target="_top" xlink:title=" ">
<polygon fill="none" stroke="black" points="658,-49.5 658,-79.5 780,-79.5 780,-49.5 658,-49.5"/>
<text text-anchor="start" x="666" y="-67.5" font-family="Helvetica,sans-Serif" font-size="10.00">yaclib::detail::ResultCore</text>
<text text-anchor="middle" x="719" y="-56.5" font-family="Helvetica,sans-Serif" font-size="10.00">&lt; V, E &gt;</text>
</a>
</g>
</g>
<!-- Node3&#45;&gt;Node2 -->
<g id="edge2" class="edge">
<title>Node3&#45;&gt;Node2</title>
<path fill="none" stroke="midnightblue" d="M790.12,-58.53C828.38,-55.27 876.31,-51.19 917.95,-47.64"/>
<polygon fill="midnightblue" stroke="midnightblue" points="789.77,-55.04 780.1,-59.38 790.36,-62.02 789.77,-55.04"/>
</g>
<!-- Node4 -->
<g id="node4" class="node">
<title>Node4</title>
<g id="a_node4"><a xlink:href="classyaclib_1_1detail_1_1BaseCore.html" target="_top" xlink:title=" ">
<polygon fill="none" stroke="black" points="497,-55 497,-74 613,-74 613,-55 497,-55"/>
<text text-anchor="middle" x="555" y="-62" font-family="Helvetica,sans-Serif" font-size="10.00">yaclib::detail::BaseCore</text>
</a>
</g>
</g>
<!-- Node4&#45;&gt;Node3 -->
<g id="edge3" class="edge">
<title>Node4&#45;&gt;Node3</title>
<path fill="none" stroke="midnightblue" d="M623.46,-64.5C634.86,-64.5 646.63,-64.5 657.83,-64.5"/>
<polygon fill="midnightblue" stroke="midnightblue" points="623.12,-61 613.12,-64.5 623.12,-68 623.12,-61"/>
</g>
<!-- Node5 -->
<g id="node5" class="node">
<title>Node5</title>
<g id="a_node5"><a xlink:href="classyaclib_1_1detail_1_1InlineCore.html" target="_top" xlink:title=" ">
<polygon fill="none" stroke="black" points="343,-55 343,-74 460,-74 460,-55 343,-55"/>
<text text-anchor="middle" x="401.5" y="-62" font-family="Helvetica,sans-Serif" font-size="10.00">yaclib::detail::InlineCore</text>
</a>
</g>
</g>
<!-- Node5&#45;&gt;Node4 -->
<g id="edge4" class="edge">
<title>Node5&#45;&gt;Node4</title>
<path fill="none" stroke="midnightblue" d="M470.49,-64.5C479.33,-64.5 488.32,-64.5 496.95,-64.5"/>
<polygon fill="midnightblue" stroke="midnightblue" points="470.21,-61 460.21,-64.5 470.21,-68 470.21,-61"/>
</g>
<!-- Node6 -->
<g id="node6" class="node">
<title>Node6</title>
<g id="a_node6"><a xlink:href="classyaclib_1_1ITask.html" target="_top" xlink:title="Callable that can be executed in an IExecutor.">
<polygon fill="none" stroke="black" points="235,-55 235,-74 306,-74 306,-55 235,-55"/>
<text text-anchor="middle" x="270.5" y="-62" font-family="Helvetica,sans-Serif" font-size="10.00">yaclib::ITask</text>
</a>
</g>
</g>
<!-- Node6&#45;&gt;Node5 -->
<g id="edge5" class="edge">
<title>Node6&#45;&gt;Node5</title>
<path fill="none" stroke="midnightblue" d="M316.26,-64.5C324.86,-64.5 333.98,-64.5 342.92,-64.5"/>
<polygon fill="midnightblue" stroke="midnightblue" points="316.07,-61 306.07,-64.5 316.07,-68 316.07,-61"/>
</g>
<!-- Node7 -->
<g id="node7" class="node">
<title>Node7</title>
<g id="a_node7"><a xlink:href="classyaclib_1_1IFunc.html" target="_top" xlink:title="Shared callable interface.">
<polygon fill="none" stroke="black" points="114,-81 114,-100 185,-100 185,-81 114,-81"/>
<text text-anchor="middle" x="149.5" y="-88" font-family="Helvetica,sans-Serif" font-size="10.00">yaclib::IFunc</text>
</a>
</g>
</g>
<!-- Node7&#45;&gt;Node6 -->
<g id="edge6" class="edge">
<title>Node7&#45;&gt;Node6</title>
<path fill="none" stroke="midnightblue" d="M195.07,-80.76C208.25,-77.88 222.47,-74.77 234.92,-72.05"/>
<polygon fill="midnightblue" stroke="midnightblue" points="194.26,-77.36 185.24,-82.91 195.76,-84.19 194.26,-77.36"/>
</g>
<!-- Node8 -->
<g id="node8" class="node">
<title>Node8</title>
<g id="a_node8"><a xlink:href="classyaclib_1_1IRef.html" target="_top" xlink:title="Reference counting interface.">
<polygon fill="none" stroke="black" points="0,-81 0,-100 64,-100 64,-81 0,-81"/>
<text text-anchor="middle" x="32" y="-88" font-family="Helvetica,sans-Serif" font-size="10.00">yaclib::IRef</text>
</a>
</g>
</g>
<!-- Node8&#45;&gt;Node7 -->
<g id="edge7" class="edge">
<title>Node8&#45;&gt;Node7</title>
<path fill="none" stroke="midnightblue" d="M74.35,-90.5C87.33,-90.5 101.51,-90.5 113.97,-90.5"/>
<polygon fill="midnightblue" stroke="midnightblue" points="74.26,-87 64.26,-90.5 74.26,-94 74.26,-87"/>
</g>
<!-- Node9 -->
<g id="node9" class="node">
<title>Node9</title>
<g id="a_node9"><a xlink:href="structyaclib_1_1detail_1_1Node.html" target="_top" xlink:title="Node class, used in intrusive data structure.">
<polygon fill="none" stroke="black" points="101,-43 101,-62 198,-62 198,-43 101,-43"/>
<text text-anchor="middle" x="149.5" y="-50" font-family="Helvetica,sans-Serif" font-size="10.00">yaclib::detail::Node</text>
</a>
</g>
</g>
<!-- Node9&#45;&gt;Node6 -->
<g id="edge8" class="edge">
<title>Node9&#45;&gt;Node6</title>
<path fill="none" stroke="midnightblue" d="M208.41,-58.34C217.49,-59.26 226.62,-60.18 234.96,-61.02"/>
<polygon fill="midnightblue" stroke="midnightblue" points="208.52,-54.83 198.22,-57.31 207.81,-61.8 208.52,-54.83"/>
</g>
<!-- Node10 -->
<g id="node10" class="node">
<title>Node10</title>
<g id="a_node10"><a xlink:href="structyaclib_1_1detail_1_1AtomicCounter.html" target="_top" xlink:title=" ">
<polygon fill="none" stroke="black" points="650,-0.5 650,-30.5 788,-30.5 788,-0.5 650,-0.5"/>
<text text-anchor="start" x="658" y="-18.5" font-family="Helvetica,sans-Serif" font-size="10.00">yaclib::detail::AtomicCounter</text>
<text text-anchor="middle" x="719" y="-7.5" font-family="Helvetica,sans-Serif" font-size="10.00">&lt; CounterBase, Deleter &gt;</text>
</a>
</g>
</g>
<!-- Node10&#45;&gt;Node2 -->
<g id="edge9" class="edge">
<title>Node10&#45;&gt;Node2</title>
<path fill="none" stroke="orange" stroke-dasharray="5,2" d="M798.11,-18.69C829.78,-20.29 866.67,-22.52 900,-25.5 905.83,-26.02 911.83,-26.61 917.87,-27.24"/>
<polygon fill="orange" stroke="orange" points="798.19,-15.19 788.03,-18.2 797.85,-22.18 798.19,-15.19"/>
<text text-anchor="start" x="806" y="-39.5" font-family="Helvetica,sans-Serif" font-size="10.00"> &lt; ResultCore&lt; V, E</text>
<text text-anchor="middle" x="853" y="-28.5" font-family="Helvetica,sans-Serif" font-size="10.00"> &gt;, CoroutineDeleter &gt;</text>
</g>
<!-- Node11 -->
<g id="node11" class="node">
<title>Node11</title>
<g id="a_node11"><a xlink:href="classCounterBase.html" target="_top" xlink:title=" ">
<polygon fill="none" stroke="black" points="518.5,-6 518.5,-25 591.5,-25 591.5,-6 518.5,-6"/>
<text text-anchor="middle" x="555" y="-13" font-family="Helvetica,sans-Serif" font-size="10.00">CounterBase</text>
</a>
</g>
</g>
<!-- Node11&#45;&gt;Node10 -->
<g id="edge10" class="edge">
<title>Node11&#45;&gt;Node10</title>
<path fill="none" stroke="midnightblue" d="M601.58,-15.5C616.58,-15.5 633.6,-15.5 649.91,-15.5"/>
<polygon fill="midnightblue" stroke="midnightblue" points="601.55,-12 591.55,-15.5 601.55,-19 601.55,-12"/>
</g>
</g>
</svg>
