<?xml version="1.0" encoding="UTF-8" standalone="no"?>
<!DOCTYPE svg PUBLIC "-//W3C//DTD SVG 1.1//EN"
 "http://www.w3.org/Graphics/SVG/1.1/DTD/svg11.dtd">
<!-- Generated by graphviz version 2.50.0 (20220203.2022)
 -->
<!-- Title: yaclib::detail::PromiseType&lt; void, E &gt; Pages: 1 -->
<svg width="1448pt" height="128pt"
 viewBox="0.00 0.00 1448.00 127.50" xmlns="http://www.w3.org/2000/svg" xmlns:xlink="http://www.w3.org/1999/xlink">
<g id="graph0" class="graph" transform="scale(1 1) rotate(0) translate(4 123.5)">
<title>yaclib::detail::PromiseType&lt; void, E &gt;</title>
<!-- Node1 -->
<g id="node1" class="node">
<title>Node1</title>
<g id="a_node1"><a xlink:title=" ">
<polygon fill="#bfbfbf" stroke="black" points="1309,-24.5 1309,-54.5 1440,-54.5 1440,-24.5 1309,-24.5"/>
<text text-anchor="start" x="1317" y="-42.5" font-family="Helvetica,sans-Serif" font-size="10.00">yaclib::detail::PromiseType</text>
<text text-anchor="middle" x="1374.5" y="-31.5" font-family="Helvetica,sans-Serif" font-size="10.00">&lt; void, E &gt;</text>
</a>
</g>
</g>
<!-- Node2 -->
<g id="node2" class="node">
<title>Node2</title>
<g id="a_node2"><a xlink:href="structyaclib_1_1detail_1_1AtomicCounter.html" target="_top" xlink:title=" ">
<polygon fill="none" stroke="black" points="1134,-19 1134,-60 1272,-60 1272,-19 1134,-19"/>
<text text-anchor="start" x="1142" y="-48" font-family="Helvetica,sans-Serif" font-size="10.00">yaclib::detail::AtomicCounter</text>
<text text-anchor="start" x="1142" y="-37" font-family="Helvetica,sans-Serif" font-size="10.00">&lt; ResultCore&lt; void, E &gt;,</text>
<text text-anchor="middle" x="1203" y="-26" font-family="Helvetica,sans-Serif" font-size="10.00"> CoroutineDeleter &gt;</text>
</a>
</g>
</g>
<!-- Node2&#45;&gt;Node1 -->
<g id="edge1" class="edge">
<title>Node2&#45;&gt;Node1</title>
<path fill="none" stroke="midnightblue" d="M1282.69,-39.5C1291.47,-39.5 1300.34,-39.5 1308.91,-39.5"/>
<polygon fill="midnightblue" stroke="midnightblue" points="1282.45,-36 1272.45,-39.5 1282.45,-43 1282.45,-36"/>
</g>
<!-- Node3 -->
<g id="node3" class="node">
<title>Node3</title>
<g id="a_node3"><a xlink:href="classyaclib_1_1detail_1_1ResultCore.html" target="_top" xlink:title=" ">
<polygon fill="none" stroke="black" points="865,-49.5 865,-79.5 987,-79.5 987,-49.5 865,-49.5"/>
<text text-anchor="start" x="873" y="-67.5" font-family="Helvetica,sans-Serif" font-size="10.00">yaclib::detail::ResultCore</text>
<text text-anchor="middle" x="926" y="-56.5" font-family="Helvetica,sans-Serif" font-size="10.00">&lt; void, E &gt;</text>
</a>
</g>
</g>
<!-- Node3&#45;&gt;Node2 -->
<g id="edge2" class="edge">
<title>Node3&#45;&gt;Node2</title>
<path fill="none" stroke="midnightblue" d="M997.29,-58.23C1032.87,-55.04 1076.73,-51.09 1116,-47.5 1121.82,-46.97 1127.87,-46.41 1133.93,-45.85"/>
<polygon fill="midnightblue" stroke="midnightblue" points="996.66,-54.77 987.01,-59.15 997.29,-61.74 996.66,-54.77"/>
</g>
<!-- Node4 -->
<g id="node4" class="node">
<title>Node4</title>
<g id="a_node4"><a xlink:href="classyaclib_1_1detail_1_1BaseCore.html" target="_top" xlink:title=" ">
<polygon fill="none" stroke="black" points="497,-74 497,-93 613,-93 613,-74 497,-74"/>
<text text-anchor="middle" x="555" y="-81" font-family="Helvetica,sans-Serif" font-size="10.00">yaclib::detail::BaseCore</text>
</a>
</g>
</g>
<!-- Node4&#45;&gt;Node3 -->
<g id="edge3" class="edge">
<title>Node4&#45;&gt;Node3</title>
<path fill="none" stroke="midnightblue" d="M623.36,-86.32C625.94,-86.39 628.49,-86.45 631,-86.5 693.65,-87.75 709.47,-90.68 772,-86.5 801.98,-84.5 809.26,-81.75 839,-77.5 847.37,-76.31 856.2,-75.01 864.87,-73.72"/>
<polygon fill="midnightblue" stroke="midnightblue" points="623.42,-82.82 613.32,-86.03 623.21,-89.82 623.42,-82.82"/>
</g>
<!-- Node10 -->
<g id="node10" class="node">
<title>Node10</title>
<g id="a_node10"><a xlink:href="classyaclib_1_1detail_1_1ResultCore.html" target="_top" xlink:title=" ">
<polygon fill="none" stroke="black" points="650,-46.5 650,-76.5 772,-76.5 772,-46.5 650,-46.5"/>
<text text-anchor="start" x="658" y="-64.5" font-family="Helvetica,sans-Serif" font-size="10.00">yaclib::detail::ResultCore</text>
<text text-anchor="middle" x="711" y="-53.5" font-family="Helvetica,sans-Serif" font-size="10.00">&lt; V, E &gt;</text>
</a>
</g>
</g>
<!-- Node4&#45;&gt;Node10 -->
<g id="edge10" class="edge">
<title>Node4&#45;&gt;Node10</title>
<path fill="none" stroke="midnightblue" d="M623.5,-73.86C632.25,-72.61 641.16,-71.33 649.77,-70.1"/>
<polygon fill="midnightblue" stroke="midnightblue" points="622.75,-70.43 613.34,-75.31 623.74,-77.36 622.75,-70.43"/>
</g>
<!-- Node5 -->
<g id="node5" class="node">
<title>Node5</title>
<g id="a_node5"><a xlink:href="classyaclib_1_1detail_1_1InlineCore.html" target="_top" xlink:title=" ">
<polygon fill="none" stroke="black" points="343,-74 343,-93 460,-93 460,-74 343,-74"/>
<text text-anchor="middle" x="401.5" y="-81" font-family="Helvetica,sans-Serif" font-size="10.00">yaclib::detail::InlineCore</text>
</a>
</g>
</g>
<!-- Node5&#45;&gt;Node4 -->
<g id="edge4" class="edge">
<title>Node5&#45;&gt;Node4</title>
<path fill="none" stroke="midnightblue" d="M470.49,-83.5C479.33,-83.5 488.32,-83.5 496.95,-83.5"/>
<polygon fill="midnightblue" stroke="midnightblue" points="470.21,-80 460.21,-83.5 470.21,-87 470.21,-80"/>
</g>
<!-- Node6 -->
<g id="node6" class="node">
<title>Node6</title>
<g id="a_node6"><a xlink:href="classyaclib_1_1ITask.html" target="_top" xlink:title="Callable that can be executed in an IExecutor.">
<polygon fill="none" stroke="black" points="235,-74 235,-93 306,-93 306,-74 235,-74"/>
<text text-anchor="middle" x="270.5" y="-81" font-family="Helvetica,sans-Serif" font-size="10.00">yaclib::ITask</text>
</a>
</g>
</g>
<!-- Node6&#45;&gt;Node5 -->
<g id="edge5" class="edge">
<title>Node6&#45;&gt;Node5</title>
<path fill="none" stroke="midnightblue" d="M316.26,-83.5C324.86,-83.5 333.98,-83.5 342.92,-83.5"/>
<polygon fill="midnightblue" stroke="midnightblue" points="316.07,-80 306.07,-83.5 316.07,-87 316.07,-80"/>
</g>
<!-- Node7 -->
<g id="node7" class="node">
<title>Node7</title>
<g id="a_node7"><a xlink:href="classyaclib_1_1IFunc.html" target="_top" xlink:title="Shared callable interface.">
<polygon fill="none" stroke="black" points="114,-100 114,-119 185,-119 185,-100 114,-100"/>
<text text-anchor="middle" x="149.5" y="-107" font-family="Helvetica,sans-Serif" font-size="10.00">yaclib::IFunc</text>
</a>
</g>
</g>
<!-- Node7&#45;&gt;Node6 -->
<g id="edge6" class="edge">
<title>Node7&#45;&gt;Node6</title>
<path fill="none" stroke="midnightblue" d="M195.07,-99.76C208.25,-96.88 222.47,-93.77 234.92,-91.05"/>
<polygon fill="midnightblue" stroke="midnightblue" points="194.26,-96.36 185.24,-101.91 195.76,-103.19 194.26,-96.36"/>
</g>
<!-- Node8 -->
<g id="node8" class="node">
<title>Node8</title>
<g id="a_node8"><a xlink:href="classyaclib_1_1IRef.html" target="_top" xlink:title="Reference counting interface.">
<polygon fill="none" stroke="black" points="0,-100 0,-119 64,-119 64,-100 0,-100"/>
<text text-anchor="middle" x="32" y="-107" font-family="Helvetica,sans-Serif" font-size="10.00">yaclib::IRef</text>
</a>
</g>
</g>
<!-- Node8&#45;&gt;Node7 -->
<g id="edge7" class="edge">
<title>Node8&#45;&gt;Node7</title>
<path fill="none" stroke="midnightblue" d="M74.35,-109.5C87.33,-109.5 101.51,-109.5 113.97,-109.5"/>
<polygon fill="midnightblue" stroke="midnightblue" points="74.26,-106 64.26,-109.5 74.26,-113 74.26,-106"/>
</g>
<!-- Node9 -->
<g id="node9" class="node">
<title>Node9</title>
<g id="a_node9"><a xlink:href="structyaclib_1_1detail_1_1Node.html" target="_top" xlink:title="Node class, used in intrusive data structure.">
<polygon fill="none" stroke="black" points="101,-62 101,-81 198,-81 198,-62 101,-62"/>
<text text-anchor="middle" x="149.5" y="-69" font-family="Helvetica,sans-Serif" font-size="10.00">yaclib::detail::Node</text>
</a>
</g>
</g>
<!-- Node9&#45;&gt;Node6 -->
<g id="edge8" class="edge">
<title>Node9&#45;&gt;Node6</title>
<path fill="none" stroke="midnightblue" d="M208.41,-77.34C217.49,-78.26 226.62,-79.18 234.96,-80.02"/>
<polygon fill="midnightblue" stroke="midnightblue" points="208.52,-73.83 198.22,-76.31 207.81,-80.8 208.52,-73.83"/>
</g>
<!-- Node10&#45;&gt;Node3 -->
<g id="edge9" class="edge">
<title>Node10&#45;&gt;Node3</title>
<path fill="none" stroke="orange" stroke-dasharray="5,2" d="M782.25,-62.49C809.01,-62.87 839.24,-63.29 864.97,-63.65"/>
<polygon fill="orange" stroke="orange" points="782.23,-58.99 772.18,-62.35 782.13,-65.99 782.23,-58.99"/>
<text text-anchor="middle" x="814.5" y="-65.5" font-family="Helvetica,sans-Serif" font-size="10.00"> &lt; void, E &gt;</text>
</g>
<!-- Node11 -->
<g id="node11" class="node">
<title>Node11</title>
<g id="a_node11"><a xlink:href="structyaclib_1_1detail_1_1AtomicCounter.html" target="_top" xlink:title=" ">
<polygon fill="none" stroke="black" points="857,-0.5 857,-30.5 995,-30.5 995,-0.5 857,-0.5"/>
<text text-anchor="start" x="865" y="-18.5" font-family="Helvetica,sans-Serif" font-size="10.00">yaclib::detail::AtomicCounter</text>
<text text-anchor="middle" x="926" y="-7.5" font-family="Helvetica,sans-Serif" font-size="10.00">&lt; CounterBase, Deleter &gt;</text>
</a>
</g>
</g>
<!-- Node11&#45;&gt;Node2 -->
<g id="edge11" class="edge">
<title>Node11&#45;&gt;Node2</title>
<path fill="none" stroke="orange" stroke-dasharray="5,2" d="M1005.72,-17.75C1039.71,-19.22 1079.88,-21.62 1116,-25.5 1121.72,-26.11 1127.63,-26.86 1133.56,-27.67"/>
<polygon fill="orange" stroke="orange" points="1005.51,-14.24 995.38,-17.33 1005.23,-21.24 1005.51,-14.24"/>
<text text-anchor="start" x="1013" y="-39.5" font-family="Helvetica,sans-Serif" font-size="10.00"> &lt; ResultCore&lt; void,</text>
<text text-anchor="middle" x="1064.5" y="-28.5" font-family="Helvetica,sans-Serif" font-size="10.00"> E &gt;, CoroutineDeleter &gt;</text>
</g>
<!-- Node12 -->
<g id="node12" class="node">
<title>Node12</title>
<g id="a_node12"><a xlink:href="classCounterBase.html" target="_top" xlink:title=" ">
<polygon fill="none" stroke="black" points="674.5,-6 674.5,-25 747.5,-25 747.5,-6 674.5,-6"/>
<text text-anchor="middle" x="711" y="-13" font-family="Helvetica,sans-Serif" font-size="10.00">CounterBase</text>
</a>
</g>
</g>
<!-- Node12&#45;&gt;Node11 -->
<g id="edge12" class="edge">
<title>Node12&#45;&gt;Node11</title>
<path fill="none" stroke="midnightblue" d="M757.86,-15.5C786.75,-15.5 824.55,-15.5 856.9,-15.5"/>
<polygon fill="midnightblue" stroke="midnightblue" points="757.65,-12 747.65,-15.5 757.65,-19 757.65,-12"/>
</g>
</g>
</svg>
