<?xml version="1.0" encoding="UTF-8" standalone="no"?>
<!DOCTYPE svg PUBLIC "-//W3C//DTD SVG 1.1//EN"
 "http://www.w3.org/Graphics/SVG/1.1/DTD/svg11.dtd">
<!-- Generated by graphviz version 2.50.0 (20220203.2022)
 -->
<!-- Title: yaclib::detail::Atomic&lt; T &gt; Pages: 1 -->
<svg width="172pt" height="174pt"
 viewBox="0.00 0.00 171.50 174.00" xmlns="http://www.w3.org/2000/svg" xmlns:xlink="http://www.w3.org/1999/xlink">
<g id="graph0" class="graph" transform="scale(1 1) rotate(0) translate(4 170)">
<title>yaclib::detail::Atomic&lt; T &gt;</title>
<!-- Node1 -->
<g id="node1" class="node">
<title>Node1</title>
<g id="a_node1"><a xlink:title=" ">
<polygon fill="#bfbfbf" stroke="black" points="0,-0.5 0,-19.5 127,-19.5 127,-0.5 0,-0.5"/>
<text text-anchor="middle" x="63.5" y="-7.5" font-family="Helvetica,sans-Serif" font-size="10.00">yaclib::detail::Atomic&lt; T &gt;</text>
</a>
</g>
</g>
<!-- Node2 -->
<g id="node2" class="node">
<title>Node2</title>
<g id="a_node2"><a xlink:href="structyaclib_1_1detail_1_1AtomicBase.html" target="_top" xlink:title=" ">
<polygon fill="none" stroke="black" points="0,-57.5 0,-87.5 127,-87.5 127,-57.5 0,-57.5"/>
<text text-anchor="start" x="8" y="-75.5" font-family="Helvetica,sans-Serif" font-size="10.00">yaclib::detail::AtomicBase</text>
<text text-anchor="middle" x="63.5" y="-64.5" font-family="Helvetica,sans-Serif" font-size="10.00">&lt; T, std::atomic&lt; T &gt; &gt;</text>
</a>
</g>
</g>
<!-- Node2&#45;&gt;Node1 -->
<g id="edge1" class="edge">
<title>Node2&#45;&gt;Node1</title>
<path fill="none" stroke="midnightblue" d="M63.5,-47.35C63.5,-37.51 63.5,-26.78 63.5,-19.54"/>
<polygon fill="midnightblue" stroke="midnightblue" points="60,-47.47 63.5,-57.47 67,-47.47 60,-47.47"/>
</g>
<!-- Node3 -->
<g id="node3" class="node">
<title>Node3</title>
<g id="a_node3"><a xlink:href="structyaclib_1_1detail_1_1AtomicBase.html" target="_top" xlink:title=" ">
<polygon fill="none" stroke="black" points="0,-135.5 0,-165.5 127,-165.5 127,-135.5 0,-135.5"/>
<text text-anchor="start" x="8" y="-153.5" font-family="Helvetica,sans-Serif" font-size="10.00">yaclib::detail::AtomicBase</text>
<text text-anchor="middle" x="63.5" y="-142.5" font-family="Helvetica,sans-Serif" font-size="10.00">&lt; T, Atomic, bool &gt;</text>
</a>
</g>
</g>
<!-- Node3&#45;&gt;Node2 -->
<g id="edge2" class="edge">
<title>Node3&#45;&gt;Node2</title>
<path fill="none" stroke="orange" stroke-dasharray="5,2" d="M63.5,-125.09C63.5,-112.76 63.5,-98.22 63.5,-87.73"/>
<polygon fill="orange" stroke="orange" points="60,-125.2 63.5,-135.2 67,-125.21 60,-125.2"/>
<text text-anchor="middle" x="113.5" y="-109" font-family="Helvetica,sans-Serif" font-size="10.00"> &lt; T, std::atomic&lt; T &gt; &gt;</text>
</g>
</g>
</svg>
