<?xml version="1.0" encoding="UTF-8" standalone="no"?>
<!DOCTYPE svg PUBLIC "-//W3C//DTD SVG 1.1//EN"
 "http://www.w3.org/Graphics/SVG/1.1/DTD/svg11.dtd">
<!-- Generated by graphviz version 2.50.0 (20220203.2022)
 -->
<!-- Title: yaclib::detail::AtomicCounter&lt; CounterBase, Deleter &gt; Pages: 1 -->
<svg width="780pt" height="207pt"
 viewBox="0.00 0.00 780.00 207.00" xmlns="http://www.w3.org/2000/svg" xmlns:xlink="http://www.w3.org/1999/xlink">
<g id="graph0" class="graph" transform="scale(1 1) rotate(0) translate(4 203)">
<title>yaclib::detail::AtomicCounter&lt; CounterBase, Deleter &gt;</title>
<!-- Node1 -->
<g id="node1" class="node">
<title>Node1</title>
<g id="a_node1"><a xlink:title=" ">
<polygon fill="#bfbfbf" stroke="black" points="110,-76.5 110,-106.5 248,-106.5 248,-76.5 110,-76.5"/>
<text text-anchor="start" x="118" y="-94.5" font-family="Helvetica,sans-Serif" font-size="10.00">yaclib::detail::AtomicCounter</text>
<text text-anchor="middle" x="179" y="-83.5" font-family="Helvetica,sans-Serif" font-size="10.00">&lt; CounterBase, Deleter &gt;</text>
</a>
</g>
</g>
<!-- Node3 -->
<g id="node3" class="node">
<title>Node3</title>
<g id="a_node3"><a xlink:href="structyaclib_1_1detail_1_1AtomicCounter.html" target="_top" xlink:title=" ">
<polygon fill="none" stroke="black" points="411,-168.5 411,-198.5 604,-198.5 604,-168.5 411,-168.5"/>
<text text-anchor="start" x="419" y="-186.5" font-family="Helvetica,sans-Serif" font-size="10.00">yaclib::detail::AtomicCounter</text>
<text text-anchor="middle" x="507.5" y="-175.5" font-family="Helvetica,sans-Serif" font-size="10.00">&lt; ResultCore&lt; V, E &gt;, CoroutineDeleter &gt;</text>
</a>
</g>
</g>
<!-- Node1&#45;&gt;Node3 -->
<g id="edge2" class="edge">
<title>Node1&#45;&gt;Node3</title>
<path fill="none" stroke="orange" stroke-dasharray="5,2" d="M208.89,-112.27C224.98,-122.87 245.79,-135.08 266,-142.5 312.12,-159.44 365.82,-169.45 410.77,-175.33"/>
<polygon fill="orange" stroke="orange" points="210.71,-109.28 200.47,-106.58 206.8,-115.08 210.71,-109.28"/>
<text text-anchor="start" x="282.5" y="-186.5" font-family="Helvetica,sans-Serif" font-size="10.00"> &lt; ResultCore&lt; V, E</text>
<text text-anchor="middle" x="329.5" y="-175.5" font-family="Helvetica,sans-Serif" font-size="10.00"> &gt;, CoroutineDeleter &gt;</text>
</g>
<!-- Node5 -->
<g id="node5" class="node">
<title>Node5</title>
<g id="a_node5"><a xlink:href="structyaclib_1_1detail_1_1AtomicCounter.html" target="_top" xlink:title=" ">
<polygon fill="none" stroke="black" points="438.5,-109 438.5,-150 576.5,-150 576.5,-109 438.5,-109"/>
<text text-anchor="start" x="446.5" y="-138" font-family="Helvetica,sans-Serif" font-size="10.00">yaclib::detail::AtomicCounter</text>
<text text-anchor="start" x="446.5" y="-127" font-family="Helvetica,sans-Serif" font-size="10.00">&lt; ResultCore&lt; void, E &gt;,</text>
<text text-anchor="middle" x="507.5" y="-116" font-family="Helvetica,sans-Serif" font-size="10.00"> CoroutineDeleter &gt;</text>
</a>
</g>
</g>
<!-- Node1&#45;&gt;Node5 -->
<g id="edge4" class="edge">
<title>Node1&#45;&gt;Node5</title>
<path fill="none" stroke="orange" stroke-dasharray="5,2" d="M258.08,-100.59C312.97,-106.98 385.69,-115.44 438.26,-121.56"/>
<polygon fill="orange" stroke="orange" points="258.39,-97.1 248.05,-99.42 257.58,-104.05 258.39,-97.1"/>
<text text-anchor="start" x="278" y="-130.5" font-family="Helvetica,sans-Serif" font-size="10.00"> &lt; ResultCore&lt; void,</text>
<text text-anchor="middle" x="329.5" y="-119.5" font-family="Helvetica,sans-Serif" font-size="10.00"> E &gt;, CoroutineDeleter &gt;</text>
</g>
<!-- Node7 -->
<g id="node7" class="node">
<title>Node7</title>
<g id="a_node7"><a xlink:href="structyaclib_1_1detail_1_1AtomicCounter.html" target="_top" xlink:title=" ">
<polygon fill="none" stroke="black" points="437.5,-49 437.5,-90 577.5,-90 577.5,-49 437.5,-49"/>
<text text-anchor="start" x="445.5" y="-78" font-family="Helvetica,sans-Serif" font-size="10.00">yaclib::detail::AtomicCounter</text>
<text text-anchor="start" x="445.5" y="-67" font-family="Helvetica,sans-Serif" font-size="10.00">&lt; yaclib::detail::MutexEvent,</text>
<text text-anchor="middle" x="507.5" y="-56" font-family="Helvetica,sans-Serif" font-size="10.00"> yaclib::detail::EventDeleter &gt;</text>
</a>
</g>
</g>
<!-- Node1&#45;&gt;Node7 -->
<g id="edge6" class="edge">
<title>Node1&#45;&gt;Node7</title>
<path fill="none" stroke="orange" stroke-dasharray="5,2" d="M258.39,-78.31C260.96,-78.02 263.5,-77.74 266,-77.5 323.59,-71.88 389.26,-70 437.41,-69.46"/>
<polygon fill="orange" stroke="orange" points="257.92,-74.84 248.43,-79.55 258.79,-81.79 257.92,-74.84"/>
<text text-anchor="start" x="267.5" y="-91.5" font-family="Helvetica,sans-Serif" font-size="10.00"> &lt; yaclib::detail::MutexEvent,</text>
<text text-anchor="middle" x="329.5" y="-80.5" font-family="Helvetica,sans-Serif" font-size="10.00"> yaclib::detail::EventDeleter &gt;</text>
</g>
<!-- Node8 -->
<g id="node8" class="node">
<title>Node8</title>
<g id="a_node8"><a xlink:href="structyaclib_1_1detail_1_1AtomicCounter.html" target="_top" xlink:title=" ">
<polygon fill="none" stroke="black" points="418,-0.5 418,-30.5 597,-30.5 597,-0.5 418,-0.5"/>
<text text-anchor="start" x="426" y="-18.5" font-family="Helvetica,sans-Serif" font-size="10.00">yaclib::detail::AtomicCounter</text>
<text text-anchor="middle" x="507.5" y="-7.5" font-family="Helvetica,sans-Serif" font-size="10.00">&lt; CoroHandler, CoroResumeDeleter &gt;</text>
</a>
</g>
</g>
<!-- Node1&#45;&gt;Node8 -->
<g id="edge7" class="edge">
<title>Node1&#45;&gt;Node8</title>
<path fill="none" stroke="orange" stroke-dasharray="5,2" d="M210.75,-70.96C226.6,-61.36 246.63,-50.71 266,-44.5 314.86,-28.84 371.77,-21.52 417.96,-18.15"/>
<polygon fill="orange" stroke="orange" points="208.57,-68.19 201.93,-76.45 212.27,-74.14 208.57,-68.19"/>
<text text-anchor="start" x="266" y="-58.5" font-family="Helvetica,sans-Serif" font-size="10.00"> &lt; CoroHandler, CoroResume</text>
<text text-anchor="middle" x="329.5" y="-47.5" font-family="Helvetica,sans-Serif" font-size="10.00">Deleter &gt;</text>
</g>
<!-- Node2 -->
<g id="node2" class="node">
<title>Node2</title>
<g id="a_node2"><a xlink:href="classCounterBase.html" target="_top" xlink:title=" ">
<polygon fill="none" stroke="black" points="0,-82 0,-101 73,-101 73,-82 0,-82"/>
<text text-anchor="middle" x="36.5" y="-89" font-family="Helvetica,sans-Serif" font-size="10.00">CounterBase</text>
</a>
</g>
</g>
<!-- Node2&#45;&gt;Node1 -->
<g id="edge1" class="edge">
<title>Node2&#45;&gt;Node1</title>
<path fill="none" stroke="midnightblue" d="M83.4,-91.5C91.92,-91.5 100.98,-91.5 109.99,-91.5"/>
<polygon fill="midnightblue" stroke="midnightblue" points="83.32,-88 73.32,-91.5 83.32,-95 83.32,-88"/>
</g>
<!-- Node4 -->
<g id="node4" class="node">
<title>Node4</title>
<g id="a_node4"><a xlink:href="structyaclib_1_1detail_1_1PromiseType.html" target="_top" xlink:title=" ">
<polygon fill="none" stroke="black" points="641,-168.5 641,-198.5 772,-198.5 772,-168.5 641,-168.5"/>
<text text-anchor="start" x="649" y="-186.5" font-family="Helvetica,sans-Serif" font-size="10.00">yaclib::detail::PromiseType</text>
<text text-anchor="middle" x="706.5" y="-175.5" font-family="Helvetica,sans-Serif" font-size="10.00">&lt; V, E &gt;</text>
</a>
</g>
</g>
<!-- Node3&#45;&gt;Node4 -->
<g id="edge3" class="edge">
<title>Node3&#45;&gt;Node4</title>
<path fill="none" stroke="midnightblue" d="M614.33,-183.5C623.35,-183.5 632.3,-183.5 640.85,-183.5"/>
<polygon fill="midnightblue" stroke="midnightblue" points="614.11,-180 604.11,-183.5 614.11,-187 614.11,-180"/>
</g>
<!-- Node6 -->
<g id="node6" class="node">
<title>Node6</title>
<g id="a_node6"><a xlink:href="structyaclib_1_1detail_1_1PromiseType_3_01void_00_01E_01_4.html" target="_top" xlink:title=" ">
<polygon fill="none" stroke="black" points="641,-114.5 641,-144.5 772,-144.5 772,-114.5 641,-114.5"/>
<text text-anchor="start" x="649" y="-132.5" font-family="Helvetica,sans-Serif" font-size="10.00">yaclib::detail::PromiseType</text>
<text text-anchor="middle" x="706.5" y="-121.5" font-family="Helvetica,sans-Serif" font-size="10.00">&lt; void, E &gt;</text>
</a>
</g>
</g>
<!-- Node5&#45;&gt;Node6 -->
<g id="edge5" class="edge">
<title>Node5&#45;&gt;Node6</title>
<path fill="none" stroke="midnightblue" d="M586.7,-129.5C604.62,-129.5 623.47,-129.5 640.74,-129.5"/>
<polygon fill="midnightblue" stroke="midnightblue" points="586.57,-126 576.57,-129.5 586.57,-133 586.57,-126"/>
</g>
</g>
</svg>
