<?xml version="1.0" encoding="UTF-8" standalone="no"?>
<!DOCTYPE svg PUBLIC "-//W3C//DTD SVG 1.1//EN"
 "http://www.w3.org/Graphics/SVG/1.1/DTD/svg11.dtd">
<!-- Generated by graphviz version 2.50.0 (20220203.2022)
 -->
<!-- Title: yaclib::detail::Node Pages: 1 -->
<svg width="1332pt" height="230pt"
 viewBox="0.00 0.00 1332.00 230.00" xmlns="http://www.w3.org/2000/svg" xmlns:xlink="http://www.w3.org/1999/xlink">
<g id="graph0" class="graph" transform="scale(1 1) rotate(0) translate(4 226)">
<title>yaclib::detail::Node</title>
<!-- Node1 -->
<g id="node1" class="node">
<title>Node1</title>
<g id="a_node1"><a xlink:title="Node class, used in intrusive data structure.">
<polygon fill="#bfbfbf" stroke="black" points="0,-121 0,-140 97,-140 97,-121 0,-121"/>
<text text-anchor="middle" x="48.5" y="-128" font-family="Helvetica,sans-Serif" font-size="10.00">yaclib::detail::Node</text>
</a>
</g>
</g>
<!-- Node2 -->
<g id="node2" class="node">
<title>Node2</title>
<g id="a_node2"><a xlink:href="classyaclib_1_1ITask.html" target="_top" xlink:title="Callable that can be executed in an IExecutor.">
<polygon fill="none" stroke="black" points="138,-147 138,-166 209,-166 209,-147 138,-147"/>
<text text-anchor="middle" x="173.5" y="-154" font-family="Helvetica,sans-Serif" font-size="10.00">yaclib::ITask</text>
</a>
</g>
</g>
<!-- Node1&#45;&gt;Node2 -->
<g id="edge1" class="edge">
<title>Node1&#45;&gt;Node2</title>
<path fill="none" stroke="midnightblue" d="M104.45,-142.12C115.79,-144.51 127.43,-146.97 137.81,-149.17"/>
<polygon fill="midnightblue" stroke="midnightblue" points="105.11,-138.68 94.6,-140.03 103.66,-145.53 105.11,-138.68"/>
</g>
<!-- Node16 -->
<g id="node16" class="node">
<title>Node16</title>
<g id="a_node16"><a xlink:href="classyaclib_1_1IThread.html" target="_top" xlink:title=" ">
<polygon fill="none" stroke="black" points="134,-109 134,-128 213,-128 213,-109 134,-109"/>
<text text-anchor="middle" x="173.5" y="-116" font-family="Helvetica,sans-Serif" font-size="10.00">yaclib::IThread</text>
</a>
</g>
</g>
<!-- Node1&#45;&gt;Node16 -->
<g id="edge16" class="edge">
<title>Node1&#45;&gt;Node16</title>
<path fill="none" stroke="midnightblue" d="M107.17,-124.87C116.2,-123.99 125.35,-123.1 133.82,-122.27"/>
<polygon fill="midnightblue" stroke="midnightblue" points="106.67,-121.41 97.06,-125.86 107.35,-128.37 106.67,-121.41"/>
</g>
<!-- Node3 -->
<g id="node3" class="node">
<title>Node3</title>
<g id="a_node3"><a xlink:href="classyaclib_1_1detail_1_1SafeCall.html" target="_top" xlink:title=" ">
<polygon fill="none" stroke="black" points="253.5,-176.5 253.5,-206.5 363.5,-206.5 363.5,-176.5 253.5,-176.5"/>
<text text-anchor="start" x="261.5" y="-194.5" font-family="Helvetica,sans-Serif" font-size="10.00">yaclib::detail::SafeCall</text>
<text text-anchor="middle" x="308.5" y="-183.5" font-family="Helvetica,sans-Serif" font-size="10.00">&lt; ITask, Functor &gt;</text>
</a>
</g>
</g>
<!-- Node2&#45;&gt;Node3 -->
<g id="edge2" class="edge">
<title>Node2&#45;&gt;Node3</title>
<path fill="none" stroke="midnightblue" d="M218.96,-168.2C230.03,-171.11 242.02,-174.27 253.49,-177.29"/>
<polygon fill="midnightblue" stroke="midnightblue" points="219.66,-164.76 209.1,-165.6 217.88,-171.53 219.66,-164.76"/>
</g>
<!-- Node5 -->
<g id="node5" class="node">
<title>Node5</title>
<g id="a_node5"><a xlink:href="classyaclib_1_1detail_1_1InlineCore.html" target="_top" xlink:title=" ">
<polygon fill="none" stroke="black" points="250,-123 250,-142 367,-142 367,-123 250,-123"/>
<text text-anchor="middle" x="308.5" y="-130" font-family="Helvetica,sans-Serif" font-size="10.00">yaclib::detail::InlineCore</text>
</a>
</g>
</g>
<!-- Node2&#45;&gt;Node5 -->
<g id="edge4" class="edge">
<title>Node2&#45;&gt;Node5</title>
<path fill="none" stroke="midnightblue" d="M219.25,-148.42C230.65,-146.37 243.01,-144.14 254.76,-142.02"/>
<polygon fill="midnightblue" stroke="midnightblue" points="218.32,-145.04 209.1,-150.26 219.56,-151.93 218.32,-145.04"/>
</g>
<!-- Node4 -->
<g id="node4" class="node">
<title>Node4</title>
<g id="a_node4"><a xlink:href="classyaclib_1_1detail_1_1UniqueTask.html" target="_top" xlink:title=" ">
<polygon fill="none" stroke="black" points="411,-191.5 411,-221.5 537,-221.5 537,-191.5 411,-191.5"/>
<text text-anchor="start" x="419" y="-209.5" font-family="Helvetica,sans-Serif" font-size="10.00">yaclib::detail::UniqueTask</text>
<text text-anchor="middle" x="474" y="-198.5" font-family="Helvetica,sans-Serif" font-size="10.00">&lt; Functor &gt;</text>
</a>
</g>
</g>
<!-- Node3&#45;&gt;Node4 -->
<g id="edge3" class="edge">
<title>Node3&#45;&gt;Node4</title>
<path fill="none" stroke="midnightblue" d="M373.99,-197.42C386.14,-198.53 398.82,-199.69 410.89,-200.8"/>
<polygon fill="midnightblue" stroke="midnightblue" points="374.22,-193.92 363.94,-196.49 373.58,-200.89 374.22,-193.92"/>
</g>
<!-- Node6 -->
<g id="node6" class="node">
<title>Node6</title>
<g id="a_node6"><a xlink:href="classyaclib_1_1detail_1_1AllCombinator.html" target="_top" xlink:title=" ">
<polygon fill="none" stroke="black" points="407,-142.5 407,-172.5 541,-172.5 541,-142.5 407,-142.5"/>
<text text-anchor="start" x="415" y="-160.5" font-family="Helvetica,sans-Serif" font-size="10.00">yaclib::detail::AllCombinator</text>
<text text-anchor="middle" x="474" y="-149.5" font-family="Helvetica,sans-Serif" font-size="10.00">&lt; V, E, N, FutureValue &gt;</text>
</a>
</g>
</g>
<!-- Node5&#45;&gt;Node6 -->
<g id="edge5" class="edge">
<title>Node5&#45;&gt;Node6</title>
<path fill="none" stroke="midnightblue" d="M377.25,-142.86C387.07,-144.36 397.16,-145.9 406.94,-147.4"/>
<polygon fill="midnightblue" stroke="midnightblue" points="377.56,-139.37 367.14,-141.31 376.5,-146.29 377.56,-139.37"/>
</g>
<!-- Node7 -->
<g id="node7" class="node">
<title>Node7</title>
<g id="a_node7"><a xlink:href="classyaclib_1_1detail_1_1AnyCombinator.html" target="_top" xlink:title=" ">
<polygon fill="none" stroke="black" points="404,-93.5 404,-123.5 544,-123.5 544,-93.5 404,-93.5"/>
<text text-anchor="start" x="412" y="-111.5" font-family="Helvetica,sans-Serif" font-size="10.00">yaclib::detail::AnyCombinator</text>
<text text-anchor="middle" x="474" y="-100.5" font-family="Helvetica,sans-Serif" font-size="10.00">&lt; V, E, P &gt;</text>
</a>
</g>
</g>
<!-- Node5&#45;&gt;Node7 -->
<g id="edge6" class="edge">
<title>Node5&#45;&gt;Node7</title>
<path fill="none" stroke="midnightblue" d="M377.3,-122.55C386.06,-121.26 395.04,-119.94 403.83,-118.65"/>
<polygon fill="midnightblue" stroke="midnightblue" points="376.53,-119.12 367.14,-124.04 377.55,-126.05 376.53,-119.12"/>
</g>
<!-- Node8 -->
<g id="node8" class="node">
<title>Node8</title>
<g id="a_node8"><a xlink:href="classyaclib_1_1detail_1_1BaseCore.html" target="_top" xlink:title=" ">
<polygon fill="none" stroke="black" points="416,-55 416,-74 532,-74 532,-55 416,-55"/>
<text text-anchor="middle" x="474" y="-62" font-family="Helvetica,sans-Serif" font-size="10.00">yaclib::detail::BaseCore</text>
</a>
</g>
</g>
<!-- Node5&#45;&gt;Node8 -->
<g id="edge7" class="edge">
<title>Node5&#45;&gt;Node8</title>
<path fill="none" stroke="midnightblue" d="M334.15,-117.89C352.84,-107.28 379.42,-93.13 404,-83.5 413.14,-79.92 423.21,-76.74 432.76,-74.05"/>
<polygon fill="midnightblue" stroke="midnightblue" points="332.32,-114.91 325.4,-122.93 335.82,-120.97 332.32,-114.91"/>
</g>
<!-- Node9 -->
<g id="node9" class="node">
<title>Node9</title>
<g id="a_node9"><a xlink:href="classyaclib_1_1detail_1_1ResultCore.html" target="_top" xlink:title=" ">
<polygon fill="none" stroke="black" points="823.5,-90.5 823.5,-120.5 945.5,-120.5 945.5,-90.5 823.5,-90.5"/>
<text text-anchor="start" x="831.5" y="-108.5" font-family="Helvetica,sans-Serif" font-size="10.00">yaclib::detail::ResultCore</text>
<text text-anchor="middle" x="884.5" y="-97.5" font-family="Helvetica,sans-Serif" font-size="10.00">&lt; void, E &gt;</text>
</a>
</g>
</g>
<!-- Node8&#45;&gt;Node9 -->
<g id="edge8" class="edge">
<title>Node8&#45;&gt;Node9</title>
<path fill="none" stroke="midnightblue" d="M520.27,-76.49C538.94,-80.98 560.88,-85.68 581,-88.5 664.47,-100.21 761.98,-103.92 823.23,-105.06"/>
<polygon fill="midnightblue" stroke="midnightblue" points="521.09,-73.09 510.54,-74.1 519.42,-79.89 521.09,-73.09"/>
</g>
<!-- Node12 -->
<g id="node12" class="node">
<title>Node12</title>
<g id="a_node12"><a xlink:href="classyaclib_1_1detail_1_1ResultCore.html" target="_top" xlink:title=" ">
<polygon fill="none" stroke="black" points="581,-49.5 581,-79.5 703,-79.5 703,-49.5 581,-49.5"/>
<text text-anchor="start" x="589" y="-67.5" font-family="Helvetica,sans-Serif" font-size="10.00">yaclib::detail::ResultCore</text>
<text text-anchor="middle" x="642" y="-56.5" font-family="Helvetica,sans-Serif" font-size="10.00">&lt; V, E &gt;</text>
</a>
</g>
</g>
<!-- Node8&#45;&gt;Node12 -->
<g id="edge11" class="edge">
<title>Node8&#45;&gt;Node12</title>
<path fill="none" stroke="midnightblue" d="M542.26,-64.5C555.06,-64.5 568.38,-64.5 580.94,-64.5"/>
<polygon fill="midnightblue" stroke="midnightblue" points="542.13,-61 532.13,-64.5 542.13,-68 542.13,-61"/>
</g>
<!-- Node15 -->
<g id="node15" class="node">
<title>Node15</title>
<g id="a_node15"><a xlink:href="classyaclib_1_1detail_1_1ResultCore_3_01void_00_01void_01_4.html" target="_top" xlink:title=" ">
<polygon fill="none" stroke="black" points="581,-0.5 581,-30.5 703,-30.5 703,-0.5 581,-0.5"/>
<text text-anchor="start" x="589" y="-18.5" font-family="Helvetica,sans-Serif" font-size="10.00">yaclib::detail::ResultCore</text>
<text text-anchor="middle" x="642" y="-7.5" font-family="Helvetica,sans-Serif" font-size="10.00">&lt; void, void &gt;</text>
</a>
</g>
</g>
<!-- Node8&#45;&gt;Node15 -->
<g id="edge15" class="edge">
<title>Node8&#45;&gt;Node15</title>
<path fill="none" stroke="midnightblue" d="M517.19,-52.05C539.36,-45.5 566.71,-37.43 590.06,-30.54"/>
<polygon fill="midnightblue" stroke="midnightblue" points="516,-48.75 507.4,-54.94 517.98,-55.46 516,-48.75"/>
</g>
<!-- Node10 -->
<g id="node10" class="node">
<title>Node10</title>
<g id="a_node10"><a xlink:href="structyaclib_1_1detail_1_1AtomicCounter.html" target="_top" xlink:title=" ">
<polygon fill="none" stroke="black" points="1018,-85 1018,-126 1156,-126 1156,-85 1018,-85"/>
<text text-anchor="start" x="1026" y="-114" font-family="Helvetica,sans-Serif" font-size="10.00">yaclib::detail::AtomicCounter</text>
<text text-anchor="start" x="1026" y="-103" font-family="Helvetica,sans-Serif" font-size="10.00">&lt; ResultCore&lt; void, E &gt;,</text>
<text text-anchor="middle" x="1087" y="-92" font-family="Helvetica,sans-Serif" font-size="10.00"> CoroutineDeleter &gt;</text>
</a>
</g>
</g>
<!-- Node9&#45;&gt;Node10 -->
<g id="edge9" class="edge">
<title>Node9&#45;&gt;Node10</title>
<path fill="none" stroke="midnightblue" d="M955.7,-105.5C975.85,-105.5 997.78,-105.5 1017.8,-105.5"/>
<polygon fill="midnightblue" stroke="midnightblue" points="955.66,-102 945.66,-105.5 955.66,-109 955.66,-102"/>
</g>
<!-- Node11 -->
<g id="node11" class="node">
<title>Node11</title>
<g id="a_node11"><a xlink:href="structyaclib_1_1detail_1_1PromiseType_3_01void_00_01E_01_4.html" target="_top" xlink:title=" ">
<polygon fill="none" stroke="black" points="1193,-90.5 1193,-120.5 1324,-120.5 1324,-90.5 1193,-90.5"/>
<text text-anchor="start" x="1201" y="-108.5" font-family="Helvetica,sans-Serif" font-size="10.00">yaclib::detail::PromiseType</text>
<text text-anchor="middle" x="1258.5" y="-97.5" font-family="Helvetica,sans-Serif" font-size="10.00">&lt; void, E &gt;</text>
</a>
</g>
</g>
<!-- Node10&#45;&gt;Node11 -->
<g id="edge10" class="edge">
<title>Node10&#45;&gt;Node11</title>
<path fill="none" stroke="midnightblue" d="M1166.69,-105.5C1175.47,-105.5 1184.34,-105.5 1192.91,-105.5"/>
<polygon fill="midnightblue" stroke="midnightblue" points="1166.45,-102 1156.45,-105.5 1166.45,-109 1166.45,-102"/>
</g>
<!-- Node12&#45;&gt;Node9 -->
<g id="edge14" class="edge">
<title>Node12&#45;&gt;Node9</title>
<path fill="none" stroke="orange" stroke-dasharray="5,2" d="M713.27,-74.46C731.75,-77.23 751.65,-80.35 770,-83.5 787.31,-86.47 806.05,-89.98 823.21,-93.31"/>
<polygon fill="orange" stroke="orange" points="713.57,-70.97 703.17,-72.96 712.54,-77.89 713.57,-70.97"/>
<text text-anchor="middle" x="745.5" y="-86.5" font-family="Helvetica,sans-Serif" font-size="10.00"> &lt; void, E &gt;</text>
</g>
<!-- Node13 -->
<g id="node13" class="node">
<title>Node13</title>
<g id="a_node13"><a xlink:href="structyaclib_1_1detail_1_1AtomicCounter.html" target="_top" xlink:title=" ">
<polygon fill="none" stroke="black" points="788,-34.5 788,-64.5 981,-64.5 981,-34.5 788,-34.5"/>
<text text-anchor="start" x="796" y="-52.5" font-family="Helvetica,sans-Serif" font-size="10.00">yaclib::detail::AtomicCounter</text>
<text text-anchor="middle" x="884.5" y="-41.5" font-family="Helvetica,sans-Serif" font-size="10.00">&lt; ResultCore&lt; V, E &gt;, CoroutineDeleter &gt;</text>
</a>
</g>
</g>
<!-- Node12&#45;&gt;Node13 -->
<g id="edge12" class="edge">
<title>Node12&#45;&gt;Node13</title>
<path fill="none" stroke="midnightblue" d="M713.2,-60.12C736.5,-58.67 762.85,-57.02 787.75,-55.47"/>
<polygon fill="midnightblue" stroke="midnightblue" points="712.83,-56.64 703.07,-60.75 713.27,-63.62 712.83,-56.64"/>
</g>
<!-- Node14 -->
<g id="node14" class="node">
<title>Node14</title>
<g id="a_node14"><a xlink:href="structyaclib_1_1detail_1_1PromiseType.html" target="_top" xlink:title=" ">
<polygon fill="none" stroke="black" points="1021.5,-34.5 1021.5,-64.5 1152.5,-64.5 1152.5,-34.5 1021.5,-34.5"/>
<text text-anchor="start" x="1029.5" y="-52.5" font-family="Helvetica,sans-Serif" font-size="10.00">yaclib::detail::PromiseType</text>
<text text-anchor="middle" x="1087" y="-41.5" font-family="Helvetica,sans-Serif" font-size="10.00">&lt; V, E &gt;</text>
</a>
</g>
</g>
<!-- Node13&#45;&gt;Node14 -->
<g id="edge13" class="edge">
<title>Node13&#45;&gt;Node14</title>
<path fill="none" stroke="midnightblue" d="M991.27,-49.5C1001.48,-49.5 1011.61,-49.5 1021.24,-49.5"/>
<polygon fill="midnightblue" stroke="midnightblue" points="991.05,-46 981.05,-49.5 991.05,-53 991.05,-46"/>
</g>
</g>
</svg>
