<?xml version="1.0" encoding="UTF-8" standalone="no"?>
<!DOCTYPE svg PUBLIC "-//W3C//DTD SVG 1.1//EN"
 "http://www.w3.org/Graphics/SVG/1.1/DTD/svg11.dtd">
<!-- Generated by graphviz version 2.50.0 (20220203.2022)
 -->
<!-- Title: yaclib::detail::PromiseType&lt; V, E &gt; Pages: 1 -->
<svg width="1502pt" height="269pt"
 viewBox="0.00 0.00 1502.00 269.00" xmlns="http://www.w3.org/2000/svg" xmlns:xlink="http://www.w3.org/1999/xlink">
<g id="graph0" class="graph" transform="scale(1 1) rotate(0) translate(4 265)">
<title>yaclib::detail::PromiseType&lt; V, E &gt;</title>
<!-- Node1 -->
<g id="node1" class="node">
<title>Node1</title>
<g id="a_node1"><a xlink:title=" ">
<polygon fill="#bfbfbf" stroke="black" points="1363,-58 1363,-88 1494,-88 1494,-58 1363,-58"/>
<text text-anchor="start" x="1371" y="-76" font-family="Helvetica,sans-Serif" font-size="10.00">yaclib::detail::PromiseType</text>
<text text-anchor="middle" x="1428.5" y="-65" font-family="Helvetica,sans-Serif" font-size="10.00">&lt; V, E &gt;</text>
</a>
</g>
</g>
<!-- Node2 -->
<g id="node2" class="node">
<title>Node2</title>
<g id="a_node2"><a xlink:href="structyaclib_1_1detail_1_1AtomicCounter.html" target="_top" xlink:title=" ">
<polygon fill="none" stroke="black" points="1133,-58 1133,-88 1326,-88 1326,-58 1133,-58"/>
<text text-anchor="start" x="1141" y="-76" font-family="Helvetica,sans-Serif" font-size="10.00">yaclib::detail::AtomicCounter</text>
<text text-anchor="middle" x="1229.5" y="-65" font-family="Helvetica,sans-Serif" font-size="10.00">&lt; ResultCore&lt; V, E &gt;, CoroutineDeleter &gt;</text>
</a>
</g>
</g>
<!-- Node2&#45;&gt;Node1 -->
<g id="edge1" class="edge">
<title>Node2&#45;&gt;Node1</title>
<path fill="none" stroke="midnightblue" d="M1336.33,-73C1345.35,-73 1354.3,-73 1362.85,-73"/>
<polygon fill="midnightblue" stroke="midnightblue" points="1336.11,-69.5 1326.11,-73 1336.11,-76.5 1336.11,-69.5"/>
</g>
<!-- Node3 -->
<g id="node3" class="node">
<title>Node3</title>
<g id="a_node3"><a xlink:href="classyaclib_1_1detail_1_1ResultCore.html" target="_top" xlink:title=" ">
<polygon fill="none" stroke="black" points="873,-110 873,-140 995,-140 995,-110 873,-110"/>
<text text-anchor="start" x="881" y="-128" font-family="Helvetica,sans-Serif" font-size="10.00">yaclib::detail::ResultCore</text>
<text text-anchor="middle" x="934" y="-117" font-family="Helvetica,sans-Serif" font-size="10.00">&lt; V, E &gt;</text>
</a>
</g>
</g>
<!-- Node3&#45;&gt;Node2 -->
<g id="edge2" class="edge">
<title>Node3&#45;&gt;Node2</title>
<path fill="none" stroke="midnightblue" d="M1005.31,-116.2C1038.66,-111.68 1078.99,-105.71 1115,-99 1131.99,-95.83 1150.29,-91.88 1167.14,-88.02"/>
<polygon fill="midnightblue" stroke="midnightblue" points="1004.65,-112.76 995.2,-117.56 1005.58,-119.7 1004.65,-112.76"/>
</g>
<!-- Node4 -->
<g id="node4" class="node">
<title>Node4</title>
<g id="a_node4"><a xlink:href="classyaclib_1_1detail_1_1BaseCore.html" target="_top" xlink:title=" ">
<polygon fill="none" stroke="black" points="686,-122.5 686,-141.5 802,-141.5 802,-122.5 686,-122.5"/>
<text text-anchor="middle" x="744" y="-129.5" font-family="Helvetica,sans-Serif" font-size="10.00">yaclib::detail::BaseCore</text>
</a>
</g>
</g>
<!-- Node4&#45;&gt;Node3 -->
<g id="edge3" class="edge">
<title>Node4&#45;&gt;Node3</title>
<path fill="none" stroke="midnightblue" d="M812.33,-129.49C832.09,-128.76 853.56,-127.96 872.84,-127.24"/>
<polygon fill="midnightblue" stroke="midnightblue" points="812.03,-126 802.17,-129.87 812.3,-133 812.03,-126"/>
</g>
<!-- Node5 -->
<g id="node5" class="node">
<title>Node5</title>
<g id="a_node5"><a xlink:href="classyaclib_1_1detail_1_1InlineCore.html" target="_top" xlink:title=" ">
<polygon fill="none" stroke="black" points="466.5,-213.5 466.5,-232.5 583.5,-232.5 583.5,-213.5 466.5,-213.5"/>
<text text-anchor="middle" x="525" y="-220.5" font-family="Helvetica,sans-Serif" font-size="10.00">yaclib::detail::InlineCore</text>
</a>
</g>
</g>
<!-- Node5&#45;&gt;Node4 -->
<g id="edge4" class="edge">
<title>Node5&#45;&gt;Node4</title>
<path fill="none" stroke="midnightblue" d="M579.78,-211.04C606.92,-204.03 639.94,-193.97 668,-181 691.72,-170.03 716.61,-152.36 730.91,-141.5"/>
<polygon fill="midnightblue" stroke="midnightblue" points="578.91,-207.65 570.07,-213.48 580.62,-214.44 578.91,-207.65"/>
</g>
<!-- Node6 -->
<g id="node6" class="node">
<title>Node6</title>
<g id="a_node6"><a xlink:href="classyaclib_1_1ITask.html" target="_top" xlink:title="Callable that can be executed in an IExecutor.">
<polygon fill="none" stroke="black" points="259,-213.5 259,-232.5 330,-232.5 330,-213.5 259,-213.5"/>
<text text-anchor="middle" x="294.5" y="-220.5" font-family="Helvetica,sans-Serif" font-size="10.00">yaclib::ITask</text>
</a>
</g>
</g>
<!-- Node6&#45;&gt;Node5 -->
<g id="edge5" class="edge">
<title>Node6&#45;&gt;Node5</title>
<path fill="none" stroke="midnightblue" d="M340.41,-223C376.43,-223 427.23,-223 466.27,-223"/>
<polygon fill="midnightblue" stroke="midnightblue" points="340.2,-219.5 330.2,-223 340.2,-226.5 340.2,-219.5"/>
</g>
<!-- Node7 -->
<g id="node7" class="node">
<title>Node7</title>
<g id="a_node7"><a xlink:href="classyaclib_1_1IFunc.html" target="_top" xlink:title="Shared callable interface.">
<polygon fill="none" stroke="black" points="114,-241.5 114,-260.5 185,-260.5 185,-241.5 114,-241.5"/>
<text text-anchor="middle" x="149.5" y="-248.5" font-family="Helvetica,sans-Serif" font-size="10.00">yaclib::IFunc</text>
</a>
</g>
</g>
<!-- Node7&#45;&gt;Node6 -->
<g id="edge6" class="edge">
<title>Node7&#45;&gt;Node6</title>
<path fill="none" stroke="midnightblue" d="M195.17,-242.25C215.66,-238.24 239.58,-233.56 258.71,-229.81"/>
<polygon fill="midnightblue" stroke="midnightblue" points="194.26,-238.87 185.12,-244.22 195.6,-245.74 194.26,-238.87"/>
</g>
<!-- Node8 -->
<g id="node8" class="node">
<title>Node8</title>
<g id="a_node8"><a xlink:href="classyaclib_1_1IRef.html" target="_top" xlink:title="Reference counting interface.">
<polygon fill="none" stroke="black" points="0,-241.5 0,-260.5 64,-260.5 64,-241.5 0,-241.5"/>
<text text-anchor="middle" x="32" y="-248.5" font-family="Helvetica,sans-Serif" font-size="10.00">yaclib::IRef</text>
</a>
</g>
</g>
<!-- Node8&#45;&gt;Node7 -->
<g id="edge7" class="edge">
<title>Node8&#45;&gt;Node7</title>
<path fill="none" stroke="midnightblue" d="M74.35,-251C87.33,-251 101.51,-251 113.97,-251"/>
<polygon fill="midnightblue" stroke="midnightblue" points="74.26,-247.5 64.26,-251 74.26,-254.5 74.26,-247.5"/>
</g>
<!-- Node9 -->
<g id="node9" class="node">
<title>Node9</title>
<g id="a_node9"><a xlink:href="structyaclib_1_1detail_1_1Node.html" target="_top" xlink:title="Node class, used in intrusive data structure.">
<polygon fill="none" stroke="black" points="101,-174.5 101,-193.5 198,-193.5 198,-174.5 101,-174.5"/>
<text text-anchor="middle" x="149.5" y="-181.5" font-family="Helvetica,sans-Serif" font-size="10.00">yaclib::detail::Node</text>
</a>
</g>
</g>
<!-- Node9&#45;&gt;Node6 -->
<g id="edge8" class="edge">
<title>Node9&#45;&gt;Node6</title>
<path fill="none" stroke="midnightblue" d="M195.25,-196.2C215.78,-201.8 239.75,-208.34 258.88,-213.56"/>
<polygon fill="midnightblue" stroke="midnightblue" points="196.05,-192.8 185.48,-193.54 194.21,-199.55 196.05,-192.8"/>
</g>
<!-- Node9&#45;&gt;Node9 -->
<g id="edge9" class="edge">
<title>Node9&#45;&gt;Node9</title>
<path fill="none" stroke="#9a32cd" stroke-dasharray="5,2" d="M137.35,-203.77C138.3,-208.5 142.35,-212 149.5,-212 161.23,-212 164.62,-202.57 159.67,-193.76"/>
<polygon fill="#9a32cd" stroke="#9a32cd" points="140.82,-204.25 139.33,-193.76 133.95,-202.89 140.82,-204.25"/>
<text text-anchor="middle" x="149.5" y="-215" font-family="Helvetica,sans-Serif" font-size="10.00"> next</text>
</g>
<!-- Node10 -->
<g id="node10" class="node">
<title>Node10</title>
<g id="a_node10"><a xlink:title=" ">
<polygon fill="none" stroke="black" points="482,-175.5 482,-194.5 568,-194.5 568,-175.5 482,-175.5"/>
<text text-anchor="middle" x="525" y="-182.5" font-family="Helvetica,sans-Serif" font-size="10.00">atomic&lt; State &gt;</text>
</a>
</g>
</g>
<!-- Node10&#45;&gt;Node4 -->
<g id="edge10" class="edge">
<title>Node10&#45;&gt;Node4</title>
<path fill="none" stroke="#9a32cd" stroke-dasharray="5,2" d="M578,-173.34C604.92,-167.2 638.28,-159.41 668,-152 681.08,-148.74 695.38,-144.97 707.96,-141.6"/>
<polygon fill="#9a32cd" stroke="#9a32cd" points="577,-169.98 568.03,-175.61 578.55,-176.8 577,-169.98"/>
<text text-anchor="middle" x="636.5" y="-169" font-family="Helvetica,sans-Serif" font-size="10.00"> _state</text>
</g>
<!-- Node11 -->
<g id="node11" class="node">
<title>Node11</title>
<g id="a_node11"><a xlink:href="classyaclib_1_1IntrusivePtr.html" target="_top" xlink:title=" ">
<polygon fill="none" stroke="black" points="477,-126 477,-156 573,-156 573,-126 477,-126"/>
<text text-anchor="start" x="485" y="-144" font-family="Helvetica,sans-Serif" font-size="10.00">yaclib::IntrusivePtr</text>
<text text-anchor="middle" x="525" y="-133" font-family="Helvetica,sans-Serif" font-size="10.00">&lt; yaclib::ITask &gt;</text>
</a>
</g>
</g>
<!-- Node11&#45;&gt;Node4 -->
<g id="edge11" class="edge">
<title>Node11&#45;&gt;Node4</title>
<path fill="none" stroke="#9a32cd" stroke-dasharray="5,2" d="M583.11,-138.63C614.86,-137.31 654.24,-135.68 685.98,-134.36"/>
<polygon fill="#9a32cd" stroke="#9a32cd" points="582.93,-135.14 573.09,-139.05 583.22,-142.13 582.93,-135.14"/>
<text text-anchor="middle" x="636.5" y="-140" font-family="Helvetica,sans-Serif" font-size="10.00"> _caller</text>
</g>
<!-- Node12 -->
<g id="node12" class="node">
<title>Node12</title>
<g id="a_node12"><a xlink:href="classyaclib_1_1IntrusivePtr.html" target="_top" xlink:title="A intrusive pointer to objects with an embedded reference count.">
<polygon fill="none" stroke="black" points="235,-105.5 235,-124.5 354,-124.5 354,-105.5 235,-105.5"/>
<text text-anchor="middle" x="294.5" y="-112.5" font-family="Helvetica,sans-Serif" font-size="10.00">yaclib::IntrusivePtr&lt; T &gt;</text>
</a>
</g>
</g>
<!-- Node12&#45;&gt;Node11 -->
<g id="edge12" class="edge">
<title>Node12&#45;&gt;Node11</title>
<path fill="none" stroke="orange" stroke-dasharray="5,2" d="M364.09,-122.8C400.45,-126.94 444.2,-131.92 476.74,-135.62"/>
<polygon fill="orange" stroke="orange" points="364.38,-119.31 354.05,-121.66 363.59,-126.27 364.38,-119.31"/>
<text text-anchor="middle" x="408.5" y="-134" font-family="Helvetica,sans-Serif" font-size="10.00"> &lt; yaclib::ITask &gt;</text>
</g>
<!-- Node14 -->
<g id="node14" class="node">
<title>Node14</title>
<g id="a_node14"><a xlink:href="classyaclib_1_1IntrusivePtr.html" target="_top" xlink:title=" ">
<polygon fill="none" stroke="black" points="477,-77 477,-107 573,-107 573,-77 477,-77"/>
<text text-anchor="start" x="485" y="-95" font-family="Helvetica,sans-Serif" font-size="10.00">yaclib::IntrusivePtr</text>
<text text-anchor="middle" x="525" y="-84" font-family="Helvetica,sans-Serif" font-size="10.00">&lt; yaclib::IRef &gt;</text>
</a>
</g>
</g>
<!-- Node12&#45;&gt;Node14 -->
<g id="edge15" class="edge">
<title>Node12&#45;&gt;Node14</title>
<path fill="none" stroke="orange" stroke-dasharray="5,2" d="M352.78,-103.74C359.25,-102.7 365.75,-101.75 372,-101 407.04,-96.77 446.87,-94.51 476.96,-93.31"/>
<polygon fill="orange" stroke="orange" points="351.98,-100.32 342.7,-105.43 353.14,-107.22 351.98,-100.32"/>
<text text-anchor="middle" x="408.5" y="-104" font-family="Helvetica,sans-Serif" font-size="10.00"> &lt; yaclib::IRef &gt;</text>
</g>
<!-- Node13 -->
<g id="node13" class="node">
<title>Node13</title>
<g id="a_node13"><a xlink:title=" ">
<polygon fill="none" stroke="black" points="463,-38.5 463,-57.5 587,-57.5 587,-38.5 463,-38.5"/>
<text text-anchor="middle" x="525" y="-45.5" font-family="Helvetica,sans-Serif" font-size="10.00">IntrusivePtr&lt; IExecutor &gt;</text>
</a>
</g>
</g>
<!-- Node13&#45;&gt;Node4 -->
<g id="edge13" class="edge">
<title>Node13&#45;&gt;Node4</title>
<path fill="none" stroke="#9a32cd" stroke-dasharray="5,2" d="M579.12,-60.06C606.49,-67.36 639.93,-77.99 668,-92 676.83,-96.41 677.51,-99.98 686,-105 696.93,-111.46 709.66,-117.61 720.31,-122.41"/>
<polygon fill="#9a32cd" stroke="#9a32cd" points="579.89,-56.65 569.33,-57.53 578.13,-63.42 579.89,-56.65"/>
<text text-anchor="middle" x="636.5" y="-95" font-family="Helvetica,sans-Serif" font-size="10.00"> _executor</text>
</g>
<!-- Node14&#45;&gt;Node4 -->
<g id="edge14" class="edge">
<title>Node14&#45;&gt;Node4</title>
<path fill="none" stroke="#9a32cd" stroke-dasharray="5,2" d="M583.22,-102.55C616.8,-108.74 658.9,-116.5 691.45,-122.5"/>
<polygon fill="#9a32cd" stroke="#9a32cd" points="583.55,-99.05 573.09,-100.68 582.29,-105.93 583.55,-99.05"/>
<text text-anchor="middle" x="636.5" y="-120" font-family="Helvetica,sans-Serif" font-size="10.00"> _callback</text>
</g>
<!-- Node15 -->
<g id="node15" class="node">
<title>Node15</title>
<g id="a_node15"><a xlink:title=" ">
<polygon fill="none" stroke="black" points="691,-17.5 691,-36.5 797,-36.5 797,-17.5 691,-17.5"/>
<text text-anchor="middle" x="744" y="-24.5" font-family="Helvetica,sans-Serif" font-size="10.00">atomic&lt; std::size_t &gt;</text>
</a>
</g>
</g>
<!-- Node15&#45;&gt;Node2 -->
<g id="edge16" class="edge">
<title>Node15&#45;&gt;Node2</title>
<path fill="none" stroke="#9a32cd" stroke-dasharray="5,2" d="M807.14,-27.71C859.48,-28.77 936.29,-31.42 1003,-38 1050.71,-42.7 1103.69,-50.78 1146.31,-57.99"/>
<polygon fill="#9a32cd" stroke="#9a32cd" points="807.07,-24.21 797.01,-27.52 806.94,-31.21 807.07,-24.21"/>
<text text-anchor="middle" x="934" y="-41" font-family="Helvetica,sans-Serif" font-size="10.00"> count</text>
</g>
<!-- Node17 -->
<g id="node17" class="node">
<title>Node17</title>
<g id="a_node17"><a xlink:href="structyaclib_1_1detail_1_1AtomicCounter.html" target="_top" xlink:title=" ">
<polygon fill="none" stroke="black" points="865,-58 865,-88 1003,-88 1003,-58 865,-58"/>
<text text-anchor="start" x="873" y="-76" font-family="Helvetica,sans-Serif" font-size="10.00">yaclib::detail::AtomicCounter</text>
<text text-anchor="middle" x="934" y="-65" font-family="Helvetica,sans-Serif" font-size="10.00">&lt; CounterBase, Deleter &gt;</text>
</a>
</g>
</g>
<!-- Node15&#45;&gt;Node17 -->
<g id="edge20" class="edge">
<title>Node15&#45;&gt;Node17</title>
<path fill="none" stroke="#9a32cd" stroke-dasharray="5,2" d="M793.79,-38.94C817.52,-44.75 846.3,-51.79 871.52,-57.96"/>
<polygon fill="#9a32cd" stroke="#9a32cd" points="794.5,-35.51 783.95,-36.53 792.84,-42.31 794.5,-35.51"/>
<text text-anchor="middle" x="833.5" y="-54" font-family="Helvetica,sans-Serif" font-size="10.00"> count</text>
</g>
<!-- Node16 -->
<g id="node16" class="node">
<title>Node16</title>
<g id="a_node16"><a xlink:title=" ">
<polygon fill="none" stroke="black" points="502,-0.5 502,-19.5 548,-19.5 548,-0.5 502,-0.5"/>
<text text-anchor="middle" x="525" y="-7.5" font-family="Helvetica,sans-Serif" font-size="10.00">atomic</text>
</a>
</g>
</g>
<!-- Node16&#45;&gt;Node15 -->
<g id="edge17" class="edge">
<title>Node16&#45;&gt;Node15</title>
<path fill="none" stroke="orange" stroke-dasharray="5,2" d="M558.49,-10.01C587.33,-10.28 630.55,-11.36 668,-15 675.35,-15.71 683.07,-16.69 690.65,-17.78"/>
<polygon fill="orange" stroke="orange" points="558.22,-6.5 548.19,-9.94 558.17,-13.5 558.22,-6.5"/>
<text text-anchor="middle" x="636.5" y="-18" font-family="Helvetica,sans-Serif" font-size="10.00"> &lt; std::size_t &gt;</text>
</g>
<!-- Node17&#45;&gt;Node2 -->
<g id="edge18" class="edge">
<title>Node17&#45;&gt;Node2</title>
<path fill="none" stroke="orange" stroke-dasharray="5,2" d="M1013.22,-73C1049.94,-73 1094.03,-73 1132.73,-73"/>
<polygon fill="orange" stroke="orange" points="1013.07,-69.5 1003.07,-73 1013.07,-76.5 1013.07,-69.5"/>
<text text-anchor="start" x="1021" y="-87" font-family="Helvetica,sans-Serif" font-size="10.00"> &lt; ResultCore&lt; V, E</text>
<text text-anchor="middle" x="1068" y="-76" font-family="Helvetica,sans-Serif" font-size="10.00"> &gt;, CoroutineDeleter &gt;</text>
</g>
<!-- Node18 -->
<g id="node18" class="node">
<title>Node18</title>
<g id="a_node18"><a xlink:href="classCounterBase.html" target="_top" xlink:title=" ">
<polygon fill="none" stroke="black" points="707.5,-76.5 707.5,-95.5 780.5,-95.5 780.5,-76.5 707.5,-76.5"/>
<text text-anchor="middle" x="744" y="-83.5" font-family="Helvetica,sans-Serif" font-size="10.00">CounterBase</text>
</a>
</g>
</g>
<!-- Node18&#45;&gt;Node17 -->
<g id="edge19" class="edge">
<title>Node18&#45;&gt;Node17</title>
<path fill="none" stroke="midnightblue" d="M790.98,-82.82C813.23,-81.28 840.39,-79.4 864.98,-77.7"/>
<polygon fill="midnightblue" stroke="midnightblue" points="790.54,-79.34 780.8,-83.52 791.02,-86.33 790.54,-79.34"/>
</g>
</g>
</svg>
