<?xml version="1.0" encoding="UTF-8" standalone="no"?>
<!DOCTYPE svg PUBLIC "-//W3C//DTD SVG 1.1//EN"
 "http://www.w3.org/Graphics/SVG/1.1/DTD/svg11.dtd">
<!-- Generated by graphviz version 2.50.0 (20220203.2022)
 -->
<!-- Title: yaclib::detail::AtomicBase&lt; T, Atomic, bool &gt; Pages: 1 -->
<svg width="562pt" height="137pt"
 viewBox="0.00 0.00 562.00 137.00" xmlns="http://www.w3.org/2000/svg" xmlns:xlink="http://www.w3.org/1999/xlink">
<g id="graph0" class="graph" transform="scale(1 1) rotate(0) translate(4 133)">
<title>yaclib::detail::AtomicBase&lt; T, Atomic, bool &gt;</title>
<!-- Node1 -->
<g id="node1" class="node">
<title>Node1</title>
<g id="a_node1"><a xlink:title=" ">
<polygon fill="#bfbfbf" stroke="black" points="0,-49.5 0,-79.5 127,-79.5 127,-49.5 0,-49.5"/>
<text text-anchor="start" x="8" y="-67.5" font-family="Helvetica,sans-Serif" font-size="10.00">yaclib::detail::AtomicBase</text>
<text text-anchor="middle" x="63.5" y="-56.5" font-family="Helvetica,sans-Serif" font-size="10.00">&lt; T, Atomic, bool &gt;</text>
</a>
</g>
</g>
<!-- Node2 -->
<g id="node2" class="node">
<title>Node2</title>
<g id="a_node2"><a xlink:href="structyaclib_1_1detail_1_1AtomicBase.html" target="_top" xlink:title=" ">
<polygon fill="none" stroke="black" points="263,-98.5 263,-128.5 390,-128.5 390,-98.5 263,-98.5"/>
<text text-anchor="start" x="271" y="-116.5" font-family="Helvetica,sans-Serif" font-size="10.00">yaclib::detail::AtomicBase</text>
<text text-anchor="middle" x="326.5" y="-105.5" font-family="Helvetica,sans-Serif" font-size="10.00">&lt; T, std::atomic&lt; T &gt; &gt;</text>
</a>
</g>
</g>
<!-- Node1&#45;&gt;Node2 -->
<g id="edge1" class="edge">
<title>Node1&#45;&gt;Node2</title>
<path fill="none" stroke="orange" stroke-dasharray="5,2" d="M118.28,-82.57C127.14,-85.15 136.28,-87.58 145,-89.5 183.75,-98.03 227.88,-103.96 262.81,-107.8"/>
<polygon fill="orange" stroke="orange" points="119.01,-79.14 108.43,-79.61 117,-85.84 119.01,-79.14"/>
<text text-anchor="middle" x="195" y="-107.5" font-family="Helvetica,sans-Serif" font-size="10.00"> &lt; T, std::atomic&lt; T &gt; &gt;</text>
</g>
<!-- Node4 -->
<g id="node4" class="node">
<title>Node4</title>
<g id="a_node4"><a xlink:href="structyaclib_1_1detail_1_1AtomicBase.html" target="_top" xlink:title=" ">
<polygon fill="none" stroke="black" points="263,-49.5 263,-79.5 390,-79.5 390,-49.5 263,-49.5"/>
<text text-anchor="start" x="271" y="-67.5" font-family="Helvetica,sans-Serif" font-size="10.00">yaclib::detail::AtomicBase</text>
<text text-anchor="middle" x="326.5" y="-56.5" font-family="Helvetica,sans-Serif" font-size="10.00">&lt; T *, std::atomic&lt; T * &gt; &gt;</text>
</a>
</g>
</g>
<!-- Node1&#45;&gt;Node4 -->
<g id="edge3" class="edge">
<title>Node1&#45;&gt;Node4</title>
<path fill="none" stroke="orange" stroke-dasharray="5,2" d="M137.1,-64.5C176.52,-64.5 224.78,-64.5 262.59,-64.5"/>
<polygon fill="orange" stroke="orange" points="137.02,-61 127.02,-64.5 137.02,-68 137.02,-61"/>
<text text-anchor="start" x="157" y="-78.5" font-family="Helvetica,sans-Serif" font-size="10.00"> &lt; T *, std::atomic</text>
<text text-anchor="middle" x="195" y="-67.5" font-family="Helvetica,sans-Serif" font-size="10.00">&lt; T * &gt; &gt;</text>
</g>
<!-- Node6 -->
<g id="node6" class="node">
<title>Node6</title>
<g id="a_node6"><a xlink:href="structyaclib_1_1detail_1_1AtomicBase.html" target="_top" xlink:title=" ">
<polygon fill="none" stroke="black" points="263,-0.5 263,-30.5 390,-30.5 390,-0.5 263,-0.5"/>
<text text-anchor="start" x="271" y="-18.5" font-family="Helvetica,sans-Serif" font-size="10.00">yaclib::detail::AtomicBase</text>
<text text-anchor="middle" x="326.5" y="-7.5" font-family="Helvetica,sans-Serif" font-size="10.00">&lt; T, Atomic, false &gt;</text>
</a>
</g>
</g>
<!-- Node1&#45;&gt;Node6 -->
<g id="edge5" class="edge">
<title>Node1&#45;&gt;Node6</title>
<path fill="none" stroke="orange" stroke-dasharray="5,2" d="M136.85,-50.92C176.31,-43.51 224.7,-34.42 262.59,-27.31"/>
<polygon fill="orange" stroke="orange" points="136.2,-47.48 127.02,-52.76 137.49,-54.36 136.2,-47.48"/>
<text text-anchor="middle" x="195" y="-51.5" font-family="Helvetica,sans-Serif" font-size="10.00"> &lt; T, Atomic, false &gt;</text>
</g>
<!-- Node3 -->
<g id="node3" class="node">
<title>Node3</title>
<g id="a_node3"><a xlink:href="structyaclib_1_1detail_1_1Atomic.html" target="_top" xlink:title=" ">
<polygon fill="none" stroke="black" points="427,-104 427,-123 554,-123 554,-104 427,-104"/>
<text text-anchor="middle" x="490.5" y="-111" font-family="Helvetica,sans-Serif" font-size="10.00">yaclib::detail::Atomic&lt; T &gt;</text>
</a>
</g>
</g>
<!-- Node2&#45;&gt;Node3 -->
<g id="edge2" class="edge">
<title>Node2&#45;&gt;Node3</title>
<path fill="none" stroke="midnightblue" d="M400.39,-113.5C409.19,-113.5 418.12,-113.5 426.77,-113.5"/>
<polygon fill="midnightblue" stroke="midnightblue" points="400.13,-110 390.13,-113.5 400.13,-117 400.13,-110"/>
</g>
<!-- Node5 -->
<g id="node5" class="node">
<title>Node5</title>
<g id="a_node5"><a xlink:href="structyaclib_1_1detail_1_1Atomic_3_01T_01_5_01_4.html" target="_top" xlink:title=" ">
<polygon fill="none" stroke="black" points="438.5,-49.5 438.5,-79.5 542.5,-79.5 542.5,-49.5 438.5,-49.5"/>
<text text-anchor="start" x="446.5" y="-67.5" font-family="Helvetica,sans-Serif" font-size="10.00">yaclib::detail::Atomic</text>
<text text-anchor="middle" x="490.5" y="-56.5" font-family="Helvetica,sans-Serif" font-size="10.00">&lt; T * &gt;</text>
</a>
</g>
</g>
<!-- Node4&#45;&gt;Node5 -->
<g id="edge4" class="edge">
<title>Node4&#45;&gt;Node5</title>
<path fill="none" stroke="midnightblue" d="M400.33,-64.5C413.14,-64.5 426.24,-64.5 438.3,-64.5"/>
<polygon fill="midnightblue" stroke="midnightblue" points="400.13,-61 390.13,-64.5 400.13,-68 400.13,-61"/>
</g>
<!-- Node7 -->
<g id="node7" class="node">
<title>Node7</title>
<g id="a_node7"><a xlink:href="structyaclib_1_1detail_1_1AtomicBase_3_01T_00_01Atomic_00_01true_01_4.html" target="_top" xlink:title=" ">
<polygon fill="none" stroke="black" points="427,-0.5 427,-30.5 554,-30.5 554,-0.5 427,-0.5"/>
<text text-anchor="start" x="435" y="-18.5" font-family="Helvetica,sans-Serif" font-size="10.00">yaclib::detail::AtomicBase</text>
<text text-anchor="middle" x="490.5" y="-7.5" font-family="Helvetica,sans-Serif" font-size="10.00">&lt; T, Atomic, true &gt;</text>
</a>
</g>
</g>
<!-- Node6&#45;&gt;Node7 -->
<g id="edge6" class="edge">
<title>Node6&#45;&gt;Node7</title>
<path fill="none" stroke="midnightblue" d="M400.39,-15.5C409.19,-15.5 418.12,-15.5 426.77,-15.5"/>
<polygon fill="midnightblue" stroke="midnightblue" points="400.13,-12 390.13,-15.5 400.13,-19 400.13,-12"/>
</g>
</g>
</svg>
