<?xml version="1.0" encoding="UTF-8" standalone="no"?>
<!DOCTYPE svg PUBLIC "-//W3C//DTD SVG 1.1//EN"
 "http://www.w3.org/Graphics/SVG/1.1/DTD/svg11.dtd">
<!-- Generated by graphviz version 2.50.0 (20220203.2022)
 -->
<!-- Title: yaclib::detail::AtomicBase&lt; T, Atomic, bool &gt; Pages: 1 -->
<svg width="416pt" height="184pt"
 viewBox="0.00 0.00 415.50 184.00" xmlns="http://www.w3.org/2000/svg" xmlns:xlink="http://www.w3.org/1999/xlink">
<g id="graph0" class="graph" transform="scale(1 1) rotate(0) translate(4 180)">
<title>yaclib::detail::AtomicBase&lt; T, Atomic, bool &gt;</title>
<!-- Node1 -->
<g id="node1" class="node">
<title>Node1</title>
<g id="a_node1"><a xlink:title=" ">
<polygon fill="#bfbfbf" stroke="black" points="0,-78.5 0,-108.5 127,-108.5 127,-78.5 0,-78.5"/>
<text text-anchor="start" x="8" y="-96.5" font-family="Helvetica,sans-Serif" font-size="10.00">yaclib::detail::AtomicBase</text>
<text text-anchor="middle" x="63.5" y="-85.5" font-family="Helvetica,sans-Serif" font-size="10.00">&lt; T, Atomic, bool &gt;</text>
</a>
</g>
</g>
<!-- Node2 -->
<g id="node2" class="node">
<title>Node2</title>
<g id="a_node2"><a xlink:href="structyaclib_1_1detail_1_1Atomic.html" target="_top" xlink:title=" ">
<polygon fill="none" stroke="black" points="145,-156.5 145,-175.5 272,-175.5 272,-156.5 145,-156.5"/>
<text text-anchor="middle" x="208.5" y="-163.5" font-family="Helvetica,sans-Serif" font-size="10.00">yaclib::detail::Atomic&lt; T &gt;</text>
</a>
</g>
</g>
<!-- Node2&#45;&gt;Node1 -->
<g id="edge1" class="edge">
<title>Node2&#45;&gt;Node1</title>
<path fill="none" stroke="#9a32cd" stroke-dasharray="5,2" d="M181.96,-152.1C156.58,-139.76 118.42,-121.2 92.31,-108.51"/>
<polygon fill="#9a32cd" stroke="#9a32cd" points="180.49,-155.27 191.01,-156.5 183.55,-148.98 180.49,-155.27"/>
<text text-anchor="middle" x="162.5" y="-130" font-family="Helvetica,sans-Serif" font-size="10.00"> _impl</text>
</g>
<!-- Node5 -->
<g id="node5" class="node">
<title>Node5</title>
<g id="a_node5"><a xlink:href="structyaclib_1_1detail_1_1AtomicBase.html" target="_top" xlink:title=" ">
<polygon fill="none" stroke="black" points="145,-78.5 145,-108.5 272,-108.5 272,-78.5 145,-78.5"/>
<text text-anchor="start" x="153" y="-96.5" font-family="Helvetica,sans-Serif" font-size="10.00">yaclib::detail::AtomicBase</text>
<text text-anchor="middle" x="208.5" y="-85.5" font-family="Helvetica,sans-Serif" font-size="10.00">&lt; T, Atomic, bool &gt;</text>
</a>
</g>
</g>
<!-- Node2&#45;&gt;Node5 -->
<g id="edge5" class="edge">
<title>Node2&#45;&gt;Node5</title>
<path fill="none" stroke="#9a32cd" stroke-dasharray="5,2" d="M208.5,-146.24C208.5,-134.41 208.5,-119.38 208.5,-108.58"/>
<polygon fill="#9a32cd" stroke="#9a32cd" points="205,-146.36 208.5,-156.36 212,-146.36 205,-146.36"/>
<text text-anchor="middle" x="221.5" y="-130" font-family="Helvetica,sans-Serif" font-size="10.00"> _impl</text>
</g>
<!-- Node3 -->
<g id="node3" class="node">
<title>Node3</title>
<g id="a_node3"><a xlink:href="structyaclib_1_1detail_1_1AtomicBase.html" target="_top" xlink:title=" ">
<polygon fill="none" stroke="black" points="248,-0.5 248,-30.5 375,-30.5 375,-0.5 248,-0.5"/>
<text text-anchor="start" x="256" y="-18.5" font-family="Helvetica,sans-Serif" font-size="10.00">yaclib::detail::AtomicBase</text>
<text text-anchor="middle" x="311.5" y="-7.5" font-family="Helvetica,sans-Serif" font-size="10.00">&lt; T, std::atomic&lt; T &gt; &gt;</text>
</a>
</g>
</g>
<!-- Node3&#45;&gt;Node2 -->
<g id="edge2" class="edge">
<title>Node3&#45;&gt;Node2</title>
<path fill="none" stroke="midnightblue" d="M307.8,-40.57C303.85,-60.37 296.07,-88.42 281.5,-109 266.55,-130.12 241.29,-146.94 224.75,-156.44"/>
<polygon fill="midnightblue" stroke="midnightblue" points="311.29,-40.99 309.63,-30.52 304.4,-39.74 311.29,-40.99"/>
</g>
<!-- Node4 -->
<g id="node4" class="node">
<title>Node4</title>
<g id="a_node4"><a xlink:href="classstd_1_1atomic_3_01T_01_4.html" target="_top" xlink:title=" ">
<polygon fill="none" stroke="black" points="339.5,-84 339.5,-103 407.5,-103 407.5,-84 339.5,-84"/>
<text text-anchor="middle" x="373.5" y="-91" font-family="Helvetica,sans-Serif" font-size="10.00">atomic&lt; T &gt;</text>
</a>
</g>
</g>
<!-- Node4&#45;&gt;Node3 -->
<g id="edge3" class="edge">
<title>Node4&#45;&gt;Node3</title>
<path fill="none" stroke="#9a32cd" stroke-dasharray="5,2" d="M359.84,-75.75C348.77,-62.19 333.36,-43.3 322.94,-30.52"/>
<polygon fill="#9a32cd" stroke="#9a32cd" points="357.35,-78.25 366.39,-83.78 362.78,-73.82 357.35,-78.25"/>
<text text-anchor="middle" x="358.5" y="-52" font-family="Helvetica,sans-Serif" font-size="10.00"> _impl</text>
</g>
<!-- Node5&#45;&gt;Node3 -->
<g id="edge4" class="edge">
<title>Node5&#45;&gt;Node3</title>
<path fill="none" stroke="orange" stroke-dasharray="5,2" d="M195.38,-68.72C193.39,-61.85 193.21,-54.68 197.5,-49 209.46,-33.15 228.61,-24.63 247.82,-20.17"/>
<polygon fill="orange" stroke="orange" points="192.3,-70.42 199.31,-78.36 198.78,-67.78 192.3,-70.42"/>
<text text-anchor="middle" x="247.5" y="-52" font-family="Helvetica,sans-Serif" font-size="10.00"> &lt; T, std::atomic&lt; T &gt; &gt;</text>
</g>
</g>
</svg>
