<?xml version="1.0" encoding="UTF-8" standalone="no"?>
<!DOCTYPE svg PUBLIC "-//W3C//DTD SVG 1.1//EN"
 "http://www.w3.org/Graphics/SVG/1.1/DTD/svg11.dtd">
<!-- Generated by graphviz version 2.50.0 (20220203.2022)
 -->
<!-- Title: yaclib::detail::PromiseType&lt; void, E &gt; Pages: 1 -->
<svg width="1681pt" height="261pt"
 viewBox="0.00 0.00 1681.00 261.00" xmlns="http://www.w3.org/2000/svg" xmlns:xlink="http://www.w3.org/1999/xlink">
<g id="graph0" class="graph" transform="scale(1 1) rotate(0) translate(4 257)">
<title>yaclib::detail::PromiseType&lt; void, E &gt;</title>
<!-- Node1 -->
<g id="node1" class="node">
<title>Node1</title>
<g id="a_node1"><a xlink:title=" ">
<polygon fill="#bfbfbf" stroke="black" points="1542,-34 1542,-64 1673,-64 1673,-34 1542,-34"/>
<text text-anchor="start" x="1550" y="-52" font-family="Helvetica,sans-Serif" font-size="10.00">yaclib::detail::PromiseType</text>
<text text-anchor="middle" x="1607.5" y="-41" font-family="Helvetica,sans-Serif" font-size="10.00">&lt; void, E &gt;</text>
</a>
</g>
</g>
<!-- Node2 -->
<g id="node2" class="node">
<title>Node2</title>
<g id="a_node2"><a xlink:href="structyaclib_1_1detail_1_1AtomicCounter.html" target="_top" xlink:title=" ">
<polygon fill="none" stroke="black" points="1367,-28.5 1367,-69.5 1505,-69.5 1505,-28.5 1367,-28.5"/>
<text text-anchor="start" x="1375" y="-57.5" font-family="Helvetica,sans-Serif" font-size="10.00">yaclib::detail::AtomicCounter</text>
<text text-anchor="start" x="1375" y="-46.5" font-family="Helvetica,sans-Serif" font-size="10.00">&lt; ResultCore&lt; void, E &gt;,</text>
<text text-anchor="middle" x="1436" y="-35.5" font-family="Helvetica,sans-Serif" font-size="10.00"> CoroutineDeleter &gt;</text>
</a>
</g>
</g>
<!-- Node2&#45;&gt;Node1 -->
<g id="edge1" class="edge">
<title>Node2&#45;&gt;Node1</title>
<path fill="none" stroke="midnightblue" d="M1515.69,-49C1524.47,-49 1533.34,-49 1541.91,-49"/>
<polygon fill="midnightblue" stroke="midnightblue" points="1515.45,-45.5 1505.45,-49 1515.45,-52.5 1515.45,-45.5"/>
</g>
<!-- Node3 -->
<g id="node3" class="node">
<title>Node3</title>
<g id="a_node3"><a xlink:href="classyaclib_1_1detail_1_1ResultCore.html" target="_top" xlink:title=" ">
<polygon fill="none" stroke="black" points="1098,-87 1098,-117 1220,-117 1220,-87 1098,-87"/>
<text text-anchor="start" x="1106" y="-105" font-family="Helvetica,sans-Serif" font-size="10.00">yaclib::detail::ResultCore</text>
<text text-anchor="middle" x="1159" y="-94" font-family="Helvetica,sans-Serif" font-size="10.00">&lt; void, E &gt;</text>
</a>
</g>
</g>
<!-- Node3&#45;&gt;Node2 -->
<g id="edge2" class="edge">
<title>Node3&#45;&gt;Node2</title>
<path fill="none" stroke="midnightblue" d="M1230.34,-94.53C1266.11,-90.08 1310.12,-83.6 1349,-75 1356.16,-73.42 1363.59,-71.54 1370.94,-69.53"/>
<polygon fill="midnightblue" stroke="midnightblue" points="1229.51,-91.1 1220,-95.79 1230.35,-98.05 1229.51,-91.1"/>
</g>
<!-- Node4 -->
<g id="node4" class="node">
<title>Node4</title>
<g id="a_node4"><a xlink:href="classyaclib_1_1detail_1_1BaseCore.html" target="_top" xlink:title=" ">
<polygon fill="none" stroke="black" points="668,-123.5 668,-142.5 784,-142.5 784,-123.5 668,-123.5"/>
<text text-anchor="middle" x="726" y="-130.5" font-family="Helvetica,sans-Serif" font-size="10.00">yaclib::detail::BaseCore</text>
</a>
</g>
</g>
<!-- Node4&#45;&gt;Node3 -->
<g id="edge3" class="edge">
<title>Node4&#45;&gt;Node3</title>
<path fill="none" stroke="midnightblue" d="M794.21,-132.22C816.71,-131.9 841.94,-131.5 865,-131 927.23,-129.66 943,-132.49 1005,-127 1034.99,-124.34 1042.28,-121.81 1072,-117 1080.38,-115.64 1089.21,-114.16 1097.89,-112.68"/>
<polygon fill="midnightblue" stroke="midnightblue" points="794.03,-128.72 784.07,-132.35 794.12,-135.72 794.03,-128.72"/>
</g>
<!-- Node15 -->
<g id="node15" class="node">
<title>Node15</title>
<g id="a_node15"><a xlink:href="classyaclib_1_1detail_1_1ResultCore.html" target="_top" xlink:title=" ">
<polygon fill="none" stroke="black" points="883,-87 883,-117 1005,-117 1005,-87 883,-87"/>
<text text-anchor="start" x="891" y="-105" font-family="Helvetica,sans-Serif" font-size="10.00">yaclib::detail::ResultCore</text>
<text text-anchor="middle" x="944" y="-94" font-family="Helvetica,sans-Serif" font-size="10.00">&lt; V, E &gt;</text>
</a>
</g>
</g>
<!-- Node4&#45;&gt;Node15 -->
<g id="edge17" class="edge">
<title>Node4&#45;&gt;Node15</title>
<path fill="none" stroke="midnightblue" d="M794.23,-123.35C822.5,-119.29 855.13,-114.61 882.62,-110.67"/>
<polygon fill="midnightblue" stroke="midnightblue" points="793.44,-119.93 784.03,-124.81 794.43,-126.86 793.44,-119.93"/>
</g>
<!-- Node5 -->
<g id="node5" class="node">
<title>Node5</title>
<g id="a_node5"><a xlink:href="classyaclib_1_1detail_1_1InlineCore.html" target="_top" xlink:title=" ">
<polygon fill="none" stroke="black" points="466.5,-205.5 466.5,-224.5 583.5,-224.5 583.5,-205.5 466.5,-205.5"/>
<text text-anchor="middle" x="525" y="-212.5" font-family="Helvetica,sans-Serif" font-size="10.00">yaclib::detail::InlineCore</text>
</a>
</g>
</g>
<!-- Node5&#45;&gt;Node4 -->
<g id="edge4" class="edge">
<title>Node5&#45;&gt;Node4</title>
<path fill="none" stroke="midnightblue" d="M567.74,-202.29C574.2,-200.24 580.79,-198.1 587,-196 615.24,-186.45 622.78,-185.15 650,-173 670.75,-163.73 693.68,-151.14 708.65,-142.58"/>
<polygon fill="midnightblue" stroke="midnightblue" points="566.25,-199.09 557.75,-205.43 568.34,-205.77 566.25,-199.09"/>
</g>
<!-- Node6 -->
<g id="node6" class="node">
<title>Node6</title>
<g id="a_node6"><a xlink:href="classyaclib_1_1ITask.html" target="_top" xlink:title="Callable that can be executed in an IExecutor.">
<polygon fill="none" stroke="black" points="259,-205.5 259,-224.5 330,-224.5 330,-205.5 259,-205.5"/>
<text text-anchor="middle" x="294.5" y="-212.5" font-family="Helvetica,sans-Serif" font-size="10.00">yaclib::ITask</text>
</a>
</g>
</g>
<!-- Node6&#45;&gt;Node5 -->
<g id="edge5" class="edge">
<title>Node6&#45;&gt;Node5</title>
<path fill="none" stroke="midnightblue" d="M340.41,-215C376.43,-215 427.23,-215 466.27,-215"/>
<polygon fill="midnightblue" stroke="midnightblue" points="340.2,-211.5 330.2,-215 340.2,-218.5 340.2,-211.5"/>
</g>
<!-- Node7 -->
<g id="node7" class="node">
<title>Node7</title>
<g id="a_node7"><a xlink:href="classyaclib_1_1IFunc.html" target="_top" xlink:title="Shared callable interface.">
<polygon fill="none" stroke="black" points="114,-233.5 114,-252.5 185,-252.5 185,-233.5 114,-233.5"/>
<text text-anchor="middle" x="149.5" y="-240.5" font-family="Helvetica,sans-Serif" font-size="10.00">yaclib::IFunc</text>
</a>
</g>
</g>
<!-- Node7&#45;&gt;Node6 -->
<g id="edge6" class="edge">
<title>Node7&#45;&gt;Node6</title>
<path fill="none" stroke="midnightblue" d="M195.17,-234.25C215.66,-230.24 239.58,-225.56 258.71,-221.81"/>
<polygon fill="midnightblue" stroke="midnightblue" points="194.26,-230.87 185.12,-236.22 195.6,-237.74 194.26,-230.87"/>
</g>
<!-- Node8 -->
<g id="node8" class="node">
<title>Node8</title>
<g id="a_node8"><a xlink:href="classyaclib_1_1IRef.html" target="_top" xlink:title="Reference counting interface.">
<polygon fill="none" stroke="black" points="0,-233.5 0,-252.5 64,-252.5 64,-233.5 0,-233.5"/>
<text text-anchor="middle" x="32" y="-240.5" font-family="Helvetica,sans-Serif" font-size="10.00">yaclib::IRef</text>
</a>
</g>
</g>
<!-- Node8&#45;&gt;Node7 -->
<g id="edge7" class="edge">
<title>Node8&#45;&gt;Node7</title>
<path fill="none" stroke="midnightblue" d="M74.35,-243C87.33,-243 101.51,-243 113.97,-243"/>
<polygon fill="midnightblue" stroke="midnightblue" points="74.26,-239.5 64.26,-243 74.26,-246.5 74.26,-239.5"/>
</g>
<!-- Node9 -->
<g id="node9" class="node">
<title>Node9</title>
<g id="a_node9"><a xlink:href="structyaclib_1_1detail_1_1Node.html" target="_top" xlink:title="Node class, used in intrusive data structure.">
<polygon fill="none" stroke="black" points="101,-166.5 101,-185.5 198,-185.5 198,-166.5 101,-166.5"/>
<text text-anchor="middle" x="149.5" y="-173.5" font-family="Helvetica,sans-Serif" font-size="10.00">yaclib::detail::Node</text>
</a>
</g>
</g>
<!-- Node9&#45;&gt;Node6 -->
<g id="edge8" class="edge">
<title>Node9&#45;&gt;Node6</title>
<path fill="none" stroke="midnightblue" d="M195.25,-188.2C215.78,-193.8 239.75,-200.34 258.88,-205.56"/>
<polygon fill="midnightblue" stroke="midnightblue" points="196.05,-184.8 185.48,-185.54 194.21,-191.55 196.05,-184.8"/>
</g>
<!-- Node9&#45;&gt;Node9 -->
<g id="edge9" class="edge">
<title>Node9&#45;&gt;Node9</title>
<path fill="none" stroke="#9a32cd" stroke-dasharray="5,2" d="M137.35,-195.77C138.3,-200.5 142.35,-204 149.5,-204 161.23,-204 164.62,-194.57 159.67,-185.76"/>
<polygon fill="#9a32cd" stroke="#9a32cd" points="140.82,-196.25 139.33,-185.76 133.95,-194.89 140.82,-196.25"/>
<text text-anchor="middle" x="149.5" y="-207" font-family="Helvetica,sans-Serif" font-size="10.00"> next</text>
</g>
<!-- Node10 -->
<g id="node10" class="node">
<title>Node10</title>
<g id="a_node10"><a xlink:title=" ">
<polygon fill="none" stroke="black" points="482,-167.5 482,-186.5 568,-186.5 568,-167.5 482,-167.5"/>
<text text-anchor="middle" x="525" y="-174.5" font-family="Helvetica,sans-Serif" font-size="10.00">atomic&lt; State &gt;</text>
</a>
</g>
</g>
<!-- Node10&#45;&gt;Node4 -->
<g id="edge10" class="edge">
<title>Node10&#45;&gt;Node4</title>
<path fill="none" stroke="#9a32cd" stroke-dasharray="5,2" d="M578.35,-165.43C610.59,-158.3 651.44,-149.26 681.83,-142.55"/>
<polygon fill="#9a32cd" stroke="#9a32cd" points="577.21,-162.09 568.2,-167.67 578.72,-168.93 577.21,-162.09"/>
<text text-anchor="middle" x="627.5" y="-161" font-family="Helvetica,sans-Serif" font-size="10.00"> _state</text>
</g>
<!-- Node11 -->
<g id="node11" class="node">
<title>Node11</title>
<g id="a_node11"><a xlink:href="classyaclib_1_1IntrusivePtr.html" target="_top" xlink:title=" ">
<polygon fill="none" stroke="black" points="477,-118 477,-148 573,-148 573,-118 477,-118"/>
<text text-anchor="start" x="485" y="-136" font-family="Helvetica,sans-Serif" font-size="10.00">yaclib::IntrusivePtr</text>
<text text-anchor="middle" x="525" y="-125" font-family="Helvetica,sans-Serif" font-size="10.00">&lt; yaclib::ITask &gt;</text>
</a>
</g>
</g>
<!-- Node11&#45;&gt;Node4 -->
<g id="edge11" class="edge">
<title>Node11&#45;&gt;Node4</title>
<path fill="none" stroke="#9a32cd" stroke-dasharray="5,2" d="M583.45,-133C609.98,-133 641.4,-133 667.89,-133"/>
<polygon fill="#9a32cd" stroke="#9a32cd" points="583.16,-129.5 573.16,-133 583.16,-136.5 583.16,-129.5"/>
<text text-anchor="middle" x="627.5" y="-136" font-family="Helvetica,sans-Serif" font-size="10.00"> _caller</text>
</g>
<!-- Node12 -->
<g id="node12" class="node">
<title>Node12</title>
<g id="a_node12"><a xlink:href="classyaclib_1_1IntrusivePtr.html" target="_top" xlink:title="A intrusive pointer to objects with an embedded reference count.">
<polygon fill="none" stroke="black" points="235,-97.5 235,-116.5 354,-116.5 354,-97.5 235,-97.5"/>
<text text-anchor="middle" x="294.5" y="-104.5" font-family="Helvetica,sans-Serif" font-size="10.00">yaclib::IntrusivePtr&lt; T &gt;</text>
</a>
</g>
</g>
<!-- Node12&#45;&gt;Node11 -->
<g id="edge12" class="edge">
<title>Node12&#45;&gt;Node11</title>
<path fill="none" stroke="orange" stroke-dasharray="5,2" d="M364.09,-114.8C400.45,-118.94 444.2,-123.92 476.74,-127.62"/>
<polygon fill="orange" stroke="orange" points="364.38,-111.31 354.05,-113.66 363.59,-118.27 364.38,-111.31"/>
<text text-anchor="middle" x="408.5" y="-126" font-family="Helvetica,sans-Serif" font-size="10.00"> &lt; yaclib::ITask &gt;</text>
</g>
<!-- Node14 -->
<g id="node14" class="node">
<title>Node14</title>
<g id="a_node14"><a xlink:href="classyaclib_1_1IntrusivePtr.html" target="_top" xlink:title=" ">
<polygon fill="none" stroke="black" points="477,-69 477,-99 573,-99 573,-69 477,-69"/>
<text text-anchor="start" x="485" y="-87" font-family="Helvetica,sans-Serif" font-size="10.00">yaclib::IntrusivePtr</text>
<text text-anchor="middle" x="525" y="-76" font-family="Helvetica,sans-Serif" font-size="10.00">&lt; yaclib::IRef &gt;</text>
</a>
</g>
</g>
<!-- Node12&#45;&gt;Node14 -->
<g id="edge15" class="edge">
<title>Node12&#45;&gt;Node14</title>
<path fill="none" stroke="orange" stroke-dasharray="5,2" d="M352.78,-95.74C359.25,-94.7 365.75,-93.75 372,-93 407.04,-88.77 446.87,-86.51 476.96,-85.31"/>
<polygon fill="orange" stroke="orange" points="351.98,-92.32 342.7,-97.43 353.14,-99.22 351.98,-92.32"/>
<text text-anchor="middle" x="408.5" y="-96" font-family="Helvetica,sans-Serif" font-size="10.00"> &lt; yaclib::IRef &gt;</text>
</g>
<!-- Node13 -->
<g id="node13" class="node">
<title>Node13</title>
<g id="a_node13"><a xlink:title=" ">
<polygon fill="none" stroke="black" points="463,-30.5 463,-49.5 587,-49.5 587,-30.5 463,-30.5"/>
<text text-anchor="middle" x="525" y="-37.5" font-family="Helvetica,sans-Serif" font-size="10.00">IntrusivePtr&lt; IExecutor &gt;</text>
</a>
</g>
</g>
<!-- Node13&#45;&gt;Node4 -->
<g id="edge13" class="edge">
<title>Node13&#45;&gt;Node4</title>
<path fill="none" stroke="#9a32cd" stroke-dasharray="5,2" d="M567.2,-52.79C573.86,-55.07 580.66,-57.51 587,-60 615.69,-71.26 622.67,-74.74 650,-89 671.15,-100.04 694.76,-114.21 709.74,-123.44"/>
<polygon fill="#9a32cd" stroke="#9a32cd" points="568.18,-49.43 557.59,-49.6 565.97,-56.08 568.18,-49.43"/>
<text text-anchor="middle" x="627.5" y="-92" font-family="Helvetica,sans-Serif" font-size="10.00"> _executor</text>
</g>
<!-- Node14&#45;&gt;Node4 -->
<g id="edge14" class="edge">
<title>Node14&#45;&gt;Node4</title>
<path fill="none" stroke="#9a32cd" stroke-dasharray="5,2" d="M583.15,-98.07C616.18,-106.21 656.88,-116.23 686.2,-123.45"/>
<polygon fill="#9a32cd" stroke="#9a32cd" points="583.71,-94.6 573.16,-95.61 582.03,-101.4 583.71,-94.6"/>
<text text-anchor="middle" x="627.5" y="-117" font-family="Helvetica,sans-Serif" font-size="10.00"> _callback</text>
</g>
<!-- Node15&#45;&gt;Node3 -->
<g id="edge16" class="edge">
<title>Node15&#45;&gt;Node3</title>
<path fill="none" stroke="orange" stroke-dasharray="5,2" d="M1015.25,-102C1042.01,-102 1072.24,-102 1097.97,-102"/>
<polygon fill="orange" stroke="orange" points="1015.18,-98.5 1005.18,-102 1015.18,-105.5 1015.18,-98.5"/>
<text text-anchor="middle" x="1047.5" y="-105" font-family="Helvetica,sans-Serif" font-size="10.00"> &lt; void, E &gt;</text>
</g>
<!-- Node16 -->
<g id="node16" class="node">
<title>Node16</title>
<g id="a_node16"><a xlink:title=" ">
<polygon fill="none" stroke="black" points="891,-0.5 891,-19.5 997,-19.5 997,-0.5 891,-0.5"/>
<text text-anchor="middle" x="944" y="-7.5" font-family="Helvetica,sans-Serif" font-size="10.00">atomic&lt; std::size_t &gt;</text>
</a>
</g>
</g>
<!-- Node16&#45;&gt;Node2 -->
<g id="edge18" class="edge">
<title>Node16&#45;&gt;Node2</title>
<path fill="none" stroke="#9a32cd" stroke-dasharray="5,2" d="M1007.04,-7.79C1064.47,-6.42 1152.19,-6.05 1228,-13 1274.68,-17.28 1326.65,-26.33 1366.84,-34.29"/>
<polygon fill="#9a32cd" stroke="#9a32cd" points="1006.93,-4.29 997.03,-8.04 1007.11,-11.28 1006.93,-4.29"/>
<text text-anchor="middle" x="1159" y="-16" font-family="Helvetica,sans-Serif" font-size="10.00"> count</text>
</g>
<!-- Node18 -->
<g id="node18" class="node">
<title>Node18</title>
<g id="a_node18"><a xlink:href="structyaclib_1_1detail_1_1AtomicCounter.html" target="_top" xlink:title=" ">
<polygon fill="none" stroke="black" points="1090,-34 1090,-64 1228,-64 1228,-34 1090,-34"/>
<text text-anchor="start" x="1098" y="-52" font-family="Helvetica,sans-Serif" font-size="10.00">yaclib::detail::AtomicCounter</text>
<text text-anchor="middle" x="1159" y="-41" font-family="Helvetica,sans-Serif" font-size="10.00">&lt; CounterBase, Deleter &gt;</text>
</a>
</g>
</g>
<!-- Node16&#45;&gt;Node18 -->
<g id="edge22" class="edge">
<title>Node16&#45;&gt;Node18</title>
<path fill="none" stroke="#9a32cd" stroke-dasharray="5,2" d="M1007.2,-21.39C1033.15,-26.14 1063.38,-31.68 1089.93,-36.54"/>
<polygon fill="#9a32cd" stroke="#9a32cd" points="1007.57,-17.9 997.11,-19.54 1006.31,-24.78 1007.57,-17.9"/>
<text text-anchor="middle" x="1047.5" y="-36" font-family="Helvetica,sans-Serif" font-size="10.00"> count</text>
</g>
<!-- Node17 -->
<g id="node17" class="node">
<title>Node17</title>
<g id="a_node17"><a xlink:title=" ">
<polygon fill="none" stroke="black" points="703,-0.5 703,-19.5 749,-19.5 749,-0.5 703,-0.5"/>
<text text-anchor="middle" x="726" y="-7.5" font-family="Helvetica,sans-Serif" font-size="10.00">atomic</text>
</a>
</g>
</g>
<!-- Node17&#45;&gt;Node16 -->
<g id="edge19" class="edge">
<title>Node17&#45;&gt;Node16</title>
<path fill="none" stroke="orange" stroke-dasharray="5,2" d="M759.36,-10C794.06,-10 849.68,-10 890.62,-10"/>
<polygon fill="orange" stroke="orange" points="759.3,-6.5 749.3,-10 759.3,-13.5 759.3,-6.5"/>
<text text-anchor="middle" x="833.5" y="-13" font-family="Helvetica,sans-Serif" font-size="10.00"> &lt; std::size_t &gt;</text>
</g>
<!-- Node18&#45;&gt;Node2 -->
<g id="edge20" class="edge">
<title>Node18&#45;&gt;Node2</title>
<path fill="none" stroke="orange" stroke-dasharray="5,2" d="M1238.41,-49C1278.83,-49 1327.66,-49 1366.54,-49"/>
<polygon fill="orange" stroke="orange" points="1238.33,-45.5 1228.33,-49 1238.33,-52.5 1238.33,-45.5"/>
<text text-anchor="start" x="1246" y="-63" font-family="Helvetica,sans-Serif" font-size="10.00"> &lt; ResultCore&lt; void,</text>
<text text-anchor="middle" x="1297.5" y="-52" font-family="Helvetica,sans-Serif" font-size="10.00"> E &gt;, CoroutineDeleter &gt;</text>
</g>
<!-- Node19 -->
<g id="node19" class="node">
<title>Node19</title>
<g id="a_node19"><a xlink:href="classCounterBase.html" target="_top" xlink:title=" ">
<polygon fill="none" stroke="black" points="907.5,-48.5 907.5,-67.5 980.5,-67.5 980.5,-48.5 907.5,-48.5"/>
<text text-anchor="middle" x="944" y="-55.5" font-family="Helvetica,sans-Serif" font-size="10.00">CounterBase</text>
</a>
</g>
</g>
<!-- Node19&#45;&gt;Node18 -->
<g id="edge21" class="edge">
<title>Node19&#45;&gt;Node18</title>
<path fill="none" stroke="midnightblue" d="M990.86,-56.06C1019.75,-54.84 1057.55,-53.24 1089.9,-51.88"/>
<polygon fill="midnightblue" stroke="midnightblue" points="990.49,-52.57 980.65,-56.49 990.79,-59.57 990.49,-52.57"/>
</g>
</g>
</svg>
