<?xml version="1.0" encoding="UTF-8" standalone="no"?>
<!DOCTYPE svg PUBLIC "-//W3C//DTD SVG 1.1//EN"
 "http://www.w3.org/Graphics/SVG/1.1/DTD/svg11.dtd">
<!-- Generated by graphviz version 2.50.0 (20220203.2022)
 -->
<!-- Title: include/yaclib/executor/submit.hpp Pages: 1 -->
<svg width="1127pt" height="475pt"
 viewBox="0.00 0.00 1127.00 475.00" xmlns="http://www.w3.org/2000/svg" xmlns:xlink="http://www.w3.org/1999/xlink">
<g id="graph0" class="graph" transform="scale(1 1) rotate(0) translate(4 471)">
<title>include/yaclib/executor/submit.hpp</title>
<!-- Node1 -->
<g id="node1" class="node">
<title>Node1</title>
<g id="a_node1"><a xlink:title=" ">
<polygon fill="#bfbfbf" stroke="black" points="334.5,-436.5 334.5,-466.5 449.5,-466.5 449.5,-436.5 334.5,-436.5"/>
<text text-anchor="start" x="342.5" y="-454.5" font-family="Helvetica,sans-Serif" font-size="10.00">include/yaclib/executor</text>
<text text-anchor="middle" x="392" y="-443.5" font-family="Helvetica,sans-Serif" font-size="10.00">/submit.hpp</text>
</a>
</g>
</g>
<!-- Node2 -->
<g id="node2" class="node">
<title>Node2</title>
<g id="a_node2"><a xlink:title=" ">
<polygon fill="none" stroke="#bfbfbf" points="667,-0.5 667,-19.5 755,-19.5 755,-0.5 667,-0.5"/>
<text text-anchor="middle" x="711" y="-7.5" font-family="Helvetica,sans-Serif" font-size="10.00">yaclib/config.hpp</text>
</a>
</g>
</g>
<!-- Node1&#45;&gt;Node2 -->
<g id="edge1" class="edge">
<title>Node1&#45;&gt;Node2</title>
<path fill="none" stroke="midnightblue" d="M334.37,-437.39C279.42,-421.08 205,-387.3 205,-324 205,-324 205,-324 205,-137.5 205,-45.15 526.24,-19.66 656.8,-13.11"/>
<polygon fill="midnightblue" stroke="midnightblue" points="657.16,-16.59 666.98,-12.62 656.82,-9.6 657.16,-16.59"/>
</g>
<!-- Node3 -->
<g id="node3" class="node">
<title>Node3</title>
<g id="a_node3"><a xlink:href="unique__task_8hpp.html" target="_top" xlink:title=" ">
<polygon fill="none" stroke="black" points="379.5,-369.5 379.5,-399.5 486.5,-399.5 486.5,-369.5 379.5,-369.5"/>
<text text-anchor="start" x="387.5" y="-387.5" font-family="Helvetica,sans-Serif" font-size="10.00">yaclib/executor/detail</text>
<text text-anchor="middle" x="433" y="-376.5" font-family="Helvetica,sans-Serif" font-size="10.00">/unique_task.hpp</text>
</a>
</g>
</g>
<!-- Node1&#45;&gt;Node3 -->
<g id="edge2" class="edge">
<title>Node1&#45;&gt;Node3</title>
<path fill="none" stroke="midnightblue" d="M400.9,-436.4C406.11,-428.13 412.81,-417.51 418.74,-408.1"/>
<polygon fill="midnightblue" stroke="midnightblue" points="421.75,-409.9 424.12,-399.58 415.83,-406.17 421.75,-409.9"/>
</g>
<!-- Node9 -->
<g id="node9" class="node">
<title>Node9</title>
<g id="a_node9"><a xlink:title=" ">
<polygon fill="none" stroke="#bfbfbf" points="459.5,-62 459.5,-81 498.5,-81 498.5,-62 459.5,-62"/>
<text text-anchor="middle" x="479" y="-69" font-family="Helvetica,sans-Serif" font-size="10.00">utility</text>
</a>
</g>
</g>
<!-- Node1&#45;&gt;Node9 -->
<g id="edge44" class="edge">
<title>Node1&#45;&gt;Node9</title>
<path fill="none" stroke="midnightblue" d="M384,-436.44C378.87,-426.59 372.69,-412.92 370,-400 367.19,-386.51 367.72,-382.59 370,-369 388.53,-258.61 446.8,-135.77 469.66,-90.51"/>
<polygon fill="midnightblue" stroke="midnightblue" points="472.89,-91.88 474.32,-81.38 466.66,-88.69 472.89,-91.88"/>
</g>
<!-- Node20 -->
<g id="node20" class="node">
<title>Node20</title>
<g id="a_node20"><a xlink:href="executor_8hpp.html" target="_top" xlink:title=" ">
<polygon fill="none" stroke="black" points="826.5,-375 826.5,-394 965.5,-394 965.5,-375 826.5,-375"/>
<text text-anchor="middle" x="896" y="-382" font-family="Helvetica,sans-Serif" font-size="10.00">yaclib/executor/executor.hpp</text>
</a>
</g>
</g>
<!-- Node1&#45;&gt;Node20 -->
<g id="edge40" class="edge">
<title>Node1&#45;&gt;Node20</title>
<path fill="none" stroke="midnightblue" d="M449.82,-443.04C540.93,-431.29 717.99,-408.46 819.52,-395.36"/>
<polygon fill="midnightblue" stroke="midnightblue" points="820.24,-398.8 829.71,-394.05 819.34,-391.86 820.24,-398.8"/>
</g>
<!-- Node3&#45;&gt;Node2 -->
<g id="edge3" class="edge">
<title>Node3&#45;&gt;Node2</title>
<path fill="none" stroke="midnightblue" d="M415.39,-369.24C368.84,-329.74 249.43,-215.73 300,-123 326.32,-74.73 352.52,-75.31 404,-56 488.56,-24.27 594.05,-14.8 656.77,-12.04"/>
<polygon fill="midnightblue" stroke="midnightblue" points="656.99,-15.54 666.84,-11.64 656.71,-8.54 656.99,-15.54"/>
</g>
<!-- Node4 -->
<g id="node4" class="node">
<title>Node4</title>
<g id="a_node4"><a xlink:href="task_8hpp.html" target="_top" xlink:title=" ">
<polygon fill="none" stroke="black" points="791.5,-313.5 791.5,-332.5 912.5,-332.5 912.5,-313.5 791.5,-313.5"/>
<text text-anchor="middle" x="852" y="-320.5" font-family="Helvetica,sans-Serif" font-size="10.00">yaclib/executor/task.hpp</text>
</a>
</g>
</g>
<!-- Node3&#45;&gt;Node4 -->
<g id="edge4" class="edge">
<title>Node3&#45;&gt;Node4</title>
<path fill="none" stroke="midnightblue" d="M486.92,-375.84C562.14,-365.16 698.65,-345.78 781.75,-333.98"/>
<polygon fill="midnightblue" stroke="midnightblue" points="782.45,-337.41 791.86,-332.54 781.46,-330.48 782.45,-337.41"/>
</g>
<!-- Node7 -->
<g id="node7" class="node">
<title>Node7</title>
<g id="a_node7"><a xlink:href="safe__call_8hpp.html" target="_top" xlink:title=" ">
<polygon fill="none" stroke="black" points="583.5,-123.5 583.5,-153.5 666.5,-153.5 666.5,-123.5 583.5,-123.5"/>
<text text-anchor="start" x="591.5" y="-141.5" font-family="Helvetica,sans-Serif" font-size="10.00">yaclib/util/detail</text>
<text text-anchor="middle" x="625" y="-130.5" font-family="Helvetica,sans-Serif" font-size="10.00">/safe_call.hpp</text>
</a>
</g>
</g>
<!-- Node3&#45;&gt;Node7 -->
<g id="edge38" class="edge">
<title>Node3&#45;&gt;Node7</title>
<path fill="none" stroke="midnightblue" d="M445.32,-369.48C469.57,-341.72 524.84,-277.57 568,-221 582.85,-201.54 598.73,-178.64 609.95,-162.08"/>
<polygon fill="midnightblue" stroke="midnightblue" points="612.98,-163.84 615.66,-153.6 607.17,-159.93 612.98,-163.84"/>
</g>
<!-- Node3&#45;&gt;Node9 -->
<g id="edge39" class="edge">
<title>Node3&#45;&gt;Node9</title>
<path fill="none" stroke="midnightblue" d="M432.95,-369.3C433.07,-337.14 434.58,-256.36 446,-190 447.69,-180.19 464.68,-121.47 473.6,-90.93"/>
<polygon fill="midnightblue" stroke="midnightblue" points="477.03,-91.67 476.48,-81.09 470.31,-89.71 477.03,-91.67"/>
</g>
<!-- Node4&#45;&gt;Node2 -->
<g id="edge5" class="edge">
<title>Node4&#45;&gt;Node2</title>
<path fill="none" stroke="midnightblue" d="M860.04,-313.25C897,-272.54 1047.27,-101.67 1008,-56 977.29,-20.29 842.04,-12.57 765.07,-11.12"/>
<polygon fill="midnightblue" stroke="midnightblue" points="765.13,-7.62 755.08,-10.96 765.02,-14.62 765.13,-7.62"/>
</g>
<!-- Node5 -->
<g id="node5" class="node">
<title>Node5</title>
<g id="a_node5"><a xlink:href="node_8hpp.html" target="_top" xlink:title=" ">
<polygon fill="none" stroke="black" points="1007.5,-190.5 1007.5,-220.5 1090.5,-220.5 1090.5,-190.5 1007.5,-190.5"/>
<text text-anchor="start" x="1015.5" y="-208.5" font-family="Helvetica,sans-Serif" font-size="10.00">yaclib/util/detail</text>
<text text-anchor="middle" x="1049" y="-197.5" font-family="Helvetica,sans-Serif" font-size="10.00">/node.hpp</text>
</a>
</g>
</g>
<!-- Node4&#45;&gt;Node5 -->
<g id="edge6" class="edge">
<title>Node4&#45;&gt;Node5</title>
<path fill="none" stroke="midnightblue" d="M866.81,-313.32C898.38,-294.8 972.99,-251.07 1016.3,-225.67"/>
<polygon fill="midnightblue" stroke="midnightblue" points="1018.19,-228.62 1025.04,-220.55 1014.65,-222.58 1018.19,-228.62"/>
</g>
<!-- Node6 -->
<g id="node6" class="node">
<title>Node6</title>
<g id="a_node6"><a xlink:href="func_8hpp.html" target="_top" xlink:title=" ">
<polygon fill="none" stroke="black" points="672.5,-257.5 672.5,-276.5 769.5,-276.5 769.5,-257.5 672.5,-257.5"/>
<text text-anchor="middle" x="721" y="-264.5" font-family="Helvetica,sans-Serif" font-size="10.00">yaclib/util/func.hpp</text>
</a>
</g>
</g>
<!-- Node4&#45;&gt;Node6 -->
<g id="edge8" class="edge">
<title>Node4&#45;&gt;Node6</title>
<path fill="none" stroke="midnightblue" d="M831.24,-313.44C809.68,-304.56 775.74,-290.56 751.21,-280.45"/>
<polygon fill="midnightblue" stroke="midnightblue" points="752.24,-277.09 741.66,-276.52 749.57,-283.56 752.24,-277.09"/>
</g>
<!-- Node5&#45;&gt;Node2 -->
<g id="edge7" class="edge">
<title>Node5&#45;&gt;Node2</title>
<path fill="none" stroke="midnightblue" d="M1053.41,-190.43C1061.62,-161.18 1075.47,-93.4 1041,-56 1022.63,-36.06 854.01,-21.18 765.19,-14.65"/>
<polygon fill="midnightblue" stroke="midnightblue" points="765.25,-11.15 755.03,-13.92 764.75,-18.13 765.25,-11.15"/>
</g>
<!-- Node6&#45;&gt;Node2 -->
<g id="edge9" class="edge">
<title>Node6&#45;&gt;Node2</title>
<path fill="none" stroke="midnightblue" d="M747.06,-257.48C766.07,-250.2 791.47,-238.17 809,-221 842.14,-188.52 847.41,-169.34 845,-123 843.44,-93.1 856.53,-79.52 838,-56 820.56,-33.86 791.4,-22.59 765.41,-16.86"/>
<polygon fill="midnightblue" stroke="midnightblue" points="765.76,-13.36 755.27,-14.87 764.4,-20.23 765.76,-13.36"/>
</g>
<!-- Node6&#45;&gt;Node7 -->
<g id="edge10" class="edge">
<title>Node6&#45;&gt;Node7</title>
<path fill="none" stroke="midnightblue" d="M714.4,-257.31C699.66,-237.88 663.66,-190.44 642.1,-162.04"/>
<polygon fill="midnightblue" stroke="midnightblue" points="644.75,-159.74 635.92,-153.89 639.18,-163.97 644.75,-159.74"/>
</g>
<!-- Node8 -->
<g id="node8" class="node">
<title>Node8</title>
<g id="a_node8"><a xlink:title=" ">
<polygon fill="none" stroke="#bfbfbf" points="621,-62 621,-81 683,-81 683,-62 621,-62"/>
<text text-anchor="middle" x="652" y="-69" font-family="Helvetica,sans-Serif" font-size="10.00">type_traits</text>
</a>
</g>
</g>
<!-- Node6&#45;&gt;Node8 -->
<g id="edge36" class="edge">
<title>Node6&#45;&gt;Node8</title>
<path fill="none" stroke="midnightblue" d="M718.76,-257.48C712.8,-235.09 695.6,-172.9 676,-123 671.67,-111.99 666.03,-100.01 661.3,-90.49"/>
<polygon fill="midnightblue" stroke="midnightblue" points="664.27,-88.61 656.63,-81.27 658.03,-91.78 664.27,-88.61"/>
</g>
<!-- Node6&#45;&gt;Node9 -->
<g id="edge37" class="edge">
<title>Node6&#45;&gt;Node9</title>
<path fill="none" stroke="midnightblue" d="M709.24,-257.46C696.9,-248.48 676.99,-233.88 660,-221 621.39,-191.73 611.51,-184.67 574,-154 546.45,-131.47 515.27,-104.41 496.38,-87.84"/>
<polygon fill="midnightblue" stroke="midnightblue" points="498.67,-85.2 488.85,-81.22 494.05,-90.45 498.67,-85.2"/>
</g>
<!-- Node10 -->
<g id="node10" class="node">
<title>Node10</title>
<g id="a_node10"><a xlink:href="helper_8hpp.html" target="_top" xlink:title=" ">
<polygon fill="none" stroke="black" points="455,-196 455,-215 559,-215 559,-196 455,-196"/>
<text text-anchor="middle" x="507" y="-203" font-family="Helvetica,sans-Serif" font-size="10.00">yaclib/util/helper.hpp</text>
</a>
</g>
</g>
<!-- Node6&#45;&gt;Node10 -->
<g id="edge14" class="edge">
<title>Node6&#45;&gt;Node10</title>
<path fill="none" stroke="midnightblue" d="M690.34,-257.48C652.76,-247.03 588.96,-229.29 547.4,-217.73"/>
<polygon fill="midnightblue" stroke="midnightblue" points="548.18,-214.32 537.6,-215.01 546.3,-221.06 548.18,-214.32"/>
</g>
<!-- Node16 -->
<g id="node16" class="node">
<title>Node16</title>
<g id="a_node16"><a xlink:href="intrusive__ptr_8hpp.html" target="_top" xlink:title=" ">
<polygon fill="none" stroke="black" points="723.5,-123.5 723.5,-153.5 820.5,-153.5 820.5,-123.5 723.5,-123.5"/>
<text text-anchor="start" x="731.5" y="-141.5" font-family="Helvetica,sans-Serif" font-size="10.00">yaclib/util/intrusive</text>
<text text-anchor="middle" x="772" y="-130.5" font-family="Helvetica,sans-Serif" font-size="10.00">_ptr.hpp</text>
</a>
</g>
</g>
<!-- Node6&#45;&gt;Node16 -->
<g id="edge34" class="edge">
<title>Node6&#45;&gt;Node16</title>
<path fill="none" stroke="midnightblue" d="M724.51,-257.31C732.2,-238.21 750.81,-192.07 762.31,-163.52"/>
<polygon fill="midnightblue" stroke="midnightblue" points="765.71,-164.47 766.2,-153.89 759.21,-161.85 765.71,-164.47"/>
</g>
<!-- Node17 -->
<g id="node17" class="node">
<title>Node17</title>
<g id="a_node17"><a xlink:href="ref_8hpp.html" target="_top" xlink:title=" ">
<polygon fill="none" stroke="black" points="739.5,-62 739.5,-81 828.5,-81 828.5,-62 739.5,-62"/>
<text text-anchor="middle" x="784" y="-69" font-family="Helvetica,sans-Serif" font-size="10.00">yaclib/util/ref.hpp</text>
</a>
</g>
</g>
<!-- Node6&#45;&gt;Node17 -->
<g id="edge35" class="edge">
<title>Node6&#45;&gt;Node17</title>
<path fill="none" stroke="midnightblue" d="M734.74,-257.29C759.42,-240.73 810.49,-202.01 830,-154 835.19,-141.24 834.97,-135.85 830,-123 824.59,-109.04 813.33,-96.56 803.31,-87.51"/>
<polygon fill="midnightblue" stroke="midnightblue" points="805.55,-84.82 795.66,-81.01 801.02,-90.16 805.55,-84.82"/>
</g>
<!-- Node7&#45;&gt;Node2 -->
<g id="edge11" class="edge">
<title>Node7&#45;&gt;Node2</title>
<path fill="none" stroke="midnightblue" d="M617.27,-123.32C608.99,-106.04 598.74,-76.6 612,-56 622.31,-39.99 639.85,-29.62 657.33,-22.92"/>
<polygon fill="midnightblue" stroke="midnightblue" points="658.7,-26.15 666.99,-19.56 656.4,-19.54 658.7,-26.15"/>
</g>
<!-- Node7&#45;&gt;Node8 -->
<g id="edge12" class="edge">
<title>Node7&#45;&gt;Node8</title>
<path fill="none" stroke="midnightblue" d="M630.86,-123.4C634.86,-113.76 640.2,-100.91 644.51,-90.54"/>
<polygon fill="midnightblue" stroke="midnightblue" points="647.78,-91.77 648.39,-81.19 641.32,-89.09 647.78,-91.77"/>
</g>
<!-- Node7&#45;&gt;Node9 -->
<g id="edge13" class="edge">
<title>Node7&#45;&gt;Node9</title>
<path fill="none" stroke="midnightblue" d="M593.32,-123.4C567.7,-111.99 531.96,-96.08 507.3,-85.1"/>
<polygon fill="midnightblue" stroke="midnightblue" points="508.67,-81.88 498.11,-81.01 505.82,-88.27 508.67,-81.88"/>
</g>
<!-- Node10&#45;&gt;Node2 -->
<g id="edge15" class="edge">
<title>Node10&#45;&gt;Node2</title>
<path fill="none" stroke="midnightblue" d="M510.32,-195.83C520.36,-170.75 552.7,-97.24 602,-56 620.5,-40.52 645.07,-29.76 666.19,-22.65"/>
<polygon fill="midnightblue" stroke="midnightblue" points="667.47,-25.91 675.93,-19.54 665.34,-19.25 667.47,-25.91"/>
</g>
<!-- Node11 -->
<g id="node11" class="node">
<title>Node11</title>
<g id="a_node11"><a xlink:href="atomic_8hpp.html" target="_top" xlink:title=" ">
<polygon fill="none" stroke="black" points="25.5,-62 25.5,-81 138.5,-81 138.5,-62 25.5,-62"/>
<text text-anchor="middle" x="82" y="-69" font-family="Helvetica,sans-Serif" font-size="10.00">yaclib/fault/atomic.hpp</text>
</a>
</g>
</g>
<!-- Node10&#45;&gt;Node11 -->
<g id="edge16" class="edge">
<title>Node10&#45;&gt;Node11</title>
<path fill="none" stroke="midnightblue" d="M465.76,-195.95C423.7,-186.88 356.75,-171.46 300,-154 231.53,-132.93 153.35,-101.96 111.74,-84.9"/>
<polygon fill="midnightblue" stroke="midnightblue" points="113.04,-81.65 102.46,-81.08 110.37,-88.12 113.04,-81.65"/>
</g>
<!-- Node15 -->
<g id="node15" class="node">
<title>Node15</title>
<g id="a_node15"><a xlink:href="atomic__counter_8hpp.html" target="_top" xlink:title=" ">
<polygon fill="none" stroke="black" points="309,-123.5 309,-153.5 413,-153.5 413,-123.5 309,-123.5"/>
<text text-anchor="start" x="317" y="-141.5" font-family="Helvetica,sans-Serif" font-size="10.00">yaclib/util/detail</text>
<text text-anchor="middle" x="361" y="-130.5" font-family="Helvetica,sans-Serif" font-size="10.00">/atomic_counter.hpp</text>
</a>
</g>
</g>
<!-- Node10&#45;&gt;Node15 -->
<g id="edge21" class="edge">
<title>Node10&#45;&gt;Node15</title>
<path fill="none" stroke="midnightblue" d="M487.61,-195.87C465.8,-186.16 429.75,-170.11 401.69,-157.61"/>
<polygon fill="midnightblue" stroke="midnightblue" points="403.07,-154.4 392.51,-153.53 400.22,-160.79 403.07,-154.4"/>
</g>
<!-- Node10&#45;&gt;Node16 -->
<g id="edge26" class="edge">
<title>Node10&#45;&gt;Node16</title>
<path fill="none" stroke="midnightblue" d="M541.92,-195.94C585.49,-185.25 660.65,-166.81 713.17,-153.93"/>
<polygon fill="midnightblue" stroke="midnightblue" points="714.15,-157.29 723.03,-151.51 712.49,-150.49 714.15,-157.29"/>
</g>
<!-- Node11&#45;&gt;Node2 -->
<g id="edge17" class="edge">
<title>Node11&#45;&gt;Node2</title>
<path fill="none" stroke="midnightblue" d="M138.51,-62.48C155.38,-60.22 173.92,-57.87 191,-56 360.52,-37.4 561.82,-21.83 656.56,-14.88"/>
<polygon fill="midnightblue" stroke="midnightblue" points="657.04,-18.36 666.76,-14.14 656.53,-11.38 657.04,-18.36"/>
</g>
<!-- Node12 -->
<g id="node12" class="node">
<title>Node12</title>
<g id="a_node12"><a xlink:title=" ">
<polygon fill="none" stroke="#bfbfbf" points="137.5,-0.5 137.5,-19.5 186.5,-19.5 186.5,-0.5 137.5,-0.5"/>
<text text-anchor="middle" x="162" y="-7.5" font-family="Helvetica,sans-Serif" font-size="10.00">cstddef</text>
</a>
</g>
</g>
<!-- Node11&#45;&gt;Node12 -->
<g id="edge18" class="edge">
<title>Node11&#45;&gt;Node12</title>
<path fill="none" stroke="midnightblue" d="M93.46,-61.98C106.17,-52.52 126.91,-37.1 142.25,-25.69"/>
<polygon fill="midnightblue" stroke="midnightblue" points="144.62,-28.29 150.56,-19.51 140.45,-22.67 144.62,-28.29"/>
</g>
<!-- Node13 -->
<g id="node13" class="node">
<title>Node13</title>
<g id="a_node13"><a xlink:title=" ">
<polygon fill="none" stroke="#bfbfbf" points="64,-0.5 64,-19.5 110,-19.5 110,-0.5 64,-0.5"/>
<text text-anchor="middle" x="87" y="-7.5" font-family="Helvetica,sans-Serif" font-size="10.00">cstdint</text>
</a>
</g>
</g>
<!-- Node11&#45;&gt;Node13 -->
<g id="edge19" class="edge">
<title>Node11&#45;&gt;Node13</title>
<path fill="none" stroke="midnightblue" d="M82.72,-61.98C83.42,-53.58 84.52,-40.48 85.43,-29.66"/>
<polygon fill="midnightblue" stroke="midnightblue" points="88.94,-29.77 86.28,-19.51 81.96,-29.18 88.94,-29.77"/>
</g>
<!-- Node14 -->
<g id="node14" class="node">
<title>Node14</title>
<g id="a_node14"><a xlink:title=" ">
<polygon fill="none" stroke="#bfbfbf" points="0,-0.5 0,-19.5 46,-19.5 46,-0.5 0,-0.5"/>
<text text-anchor="middle" x="23" y="-7.5" font-family="Helvetica,sans-Serif" font-size="10.00">atomic</text>
</a>
</g>
</g>
<!-- Node11&#45;&gt;Node14 -->
<g id="edge20" class="edge">
<title>Node11&#45;&gt;Node14</title>
<path fill="none" stroke="midnightblue" d="M73.55,-61.98C64.43,-52.78 49.73,-37.96 38.52,-26.66"/>
<polygon fill="midnightblue" stroke="midnightblue" points="40.96,-24.15 31.44,-19.51 35.99,-29.07 40.96,-24.15"/>
</g>
<!-- Node15&#45;&gt;Node2 -->
<g id="edge22" class="edge">
<title>Node15&#45;&gt;Node2</title>
<path fill="none" stroke="midnightblue" d="M371.94,-123.36C387.24,-104.67 416.9,-72.24 450,-56 516.12,-23.56 601.68,-14.1 656.46,-11.56"/>
<polygon fill="midnightblue" stroke="midnightblue" points="656.81,-15.05 666.66,-11.15 656.53,-8.05 656.81,-15.05"/>
</g>
<!-- Node15&#45;&gt;Node9 -->
<g id="edge25" class="edge">
<title>Node15&#45;&gt;Node9</title>
<path fill="none" stroke="midnightblue" d="M386.6,-123.4C406.85,-112.24 434.92,-96.78 454.79,-85.83"/>
<polygon fill="midnightblue" stroke="midnightblue" points="456.49,-88.9 463.56,-81.01 453.11,-82.77 456.49,-88.9"/>
</g>
<!-- Node15&#45;&gt;Node11 -->
<g id="edge23" class="edge">
<title>Node15&#45;&gt;Node11</title>
<path fill="none" stroke="midnightblue" d="M308.85,-125.35C257.06,-113.28 178.39,-94.96 128.62,-83.36"/>
<polygon fill="midnightblue" stroke="midnightblue" points="129.3,-79.93 118.76,-81.07 127.71,-86.74 129.3,-79.93"/>
</g>
<!-- Node15&#45;&gt;Node12 -->
<g id="edge24" class="edge">
<title>Node15&#45;&gt;Node12</title>
<path fill="none" stroke="midnightblue" d="M338.94,-123.48C300.88,-99.28 223.25,-49.94 184.73,-25.45"/>
<polygon fill="midnightblue" stroke="midnightblue" points="186.14,-22.2 175.83,-19.79 182.39,-28.11 186.14,-22.2"/>
</g>
<!-- Node16&#45;&gt;Node2 -->
<g id="edge27" class="edge">
<title>Node16&#45;&gt;Node2</title>
<path fill="none" stroke="midnightblue" d="M757.61,-123.22C748.76,-113.7 737.85,-100.49 731,-87 721.76,-68.79 716.49,-45.89 713.7,-30.02"/>
<polygon fill="midnightblue" stroke="midnightblue" points="717.11,-29.19 712.09,-19.86 710.2,-30.29 717.11,-29.19"/>
</g>
<!-- Node16&#45;&gt;Node8 -->
<g id="edge30" class="edge">
<title>Node16&#45;&gt;Node8</title>
<path fill="none" stroke="midnightblue" d="M745.96,-123.4C725.37,-112.24 696.83,-96.78 676.62,-85.83"/>
<polygon fill="midnightblue" stroke="midnightblue" points="678.17,-82.69 667.71,-81.01 674.83,-88.85 678.17,-82.69"/>
</g>
<!-- Node16&#45;&gt;Node17 -->
<g id="edge28" class="edge">
<title>Node16&#45;&gt;Node17</title>
<path fill="none" stroke="midnightblue" d="M774.6,-123.4C776.35,-113.96 778.66,-101.45 780.55,-91.19"/>
<polygon fill="midnightblue" stroke="midnightblue" points="784.02,-91.66 782.39,-81.19 777.14,-90.39 784.02,-91.66"/>
</g>
<!-- Node18 -->
<g id="node18" class="node">
<title>Node18</title>
<g id="a_node18"><a xlink:href="intrusive__ptr__impl_8hpp.html" target="_top" xlink:title=" ">
<polygon fill="none" stroke="black" points="885,-56.5 885,-86.5 999,-86.5 999,-56.5 885,-56.5"/>
<text text-anchor="start" x="893" y="-74.5" font-family="Helvetica,sans-Serif" font-size="10.00">yaclib/util/detail</text>
<text text-anchor="middle" x="942" y="-63.5" font-family="Helvetica,sans-Serif" font-size="10.00">/intrusive_ptr_impl.hpp</text>
</a>
</g>
</g>
<!-- Node16&#45;&gt;Node18 -->
<g id="edge31" class="edge">
<title>Node16&#45;&gt;Node18</title>
<path fill="none" stroke="midnightblue" d="M808.89,-123.4C834.39,-113.64 868.52,-100.59 895.83,-90.15"/>
<polygon fill="midnightblue" stroke="midnightblue" points="897.09,-93.42 905.18,-86.58 894.59,-86.88 897.09,-93.42"/>
</g>
<!-- Node17&#45;&gt;Node2 -->
<g id="edge29" class="edge">
<title>Node17&#45;&gt;Node2</title>
<path fill="none" stroke="midnightblue" d="M773.54,-61.98C762.05,-52.61 743.37,-37.38 729.41,-26.01"/>
<polygon fill="midnightblue" stroke="midnightblue" points="731.4,-23.11 721.44,-19.51 726.98,-28.54 731.4,-23.11"/>
</g>
<!-- Node18&#45;&gt;Node2 -->
<g id="edge32" class="edge">
<title>Node18&#45;&gt;Node2</title>
<path fill="none" stroke="midnightblue" d="M887.55,-56.47C846.83,-45.99 791.9,-31.84 754.18,-22.12"/>
<polygon fill="midnightblue" stroke="midnightblue" points="754.58,-18.61 744.02,-19.51 752.84,-25.39 754.58,-18.61"/>
</g>
<!-- Node19 -->
<g id="node19" class="node">
<title>Node19</title>
<g id="a_node19"><a xlink:title=" ">
<polygon fill="none" stroke="#bfbfbf" points="917.5,-0.5 917.5,-19.5 966.5,-19.5 966.5,-0.5 917.5,-0.5"/>
<text text-anchor="middle" x="942" y="-7.5" font-family="Helvetica,sans-Serif" font-size="10.00">cassert</text>
</a>
</g>
</g>
<!-- Node18&#45;&gt;Node19 -->
<g id="edge33" class="edge">
<title>Node18&#45;&gt;Node19</title>
<path fill="none" stroke="midnightblue" d="M942,-56.4C942,-48.47 942,-38.46 942,-29.86"/>
<polygon fill="midnightblue" stroke="midnightblue" points="945.5,-29.66 942,-19.66 938.5,-29.66 945.5,-29.66"/>
</g>
<!-- Node20&#45;&gt;Node2 -->
<g id="edge41" class="edge">
<title>Node20&#45;&gt;Node2</title>
<path fill="none" stroke="midnightblue" d="M965.64,-376.54C1031.07,-365.7 1119,-338.09 1119,-268 1119,-268 1119,-268 1119,-137.5 1119,-93.55 1100.51,-78.9 1063,-56 1014.23,-26.24 851.38,-15.98 765.34,-12.59"/>
<polygon fill="midnightblue" stroke="midnightblue" points="765.37,-9.09 755.24,-12.21 765.1,-16.08 765.37,-9.09"/>
</g>
<!-- Node20&#45;&gt;Node4 -->
<g id="edge42" class="edge">
<title>Node20&#45;&gt;Node4</title>
<path fill="none" stroke="midnightblue" d="M889.7,-374.98C883.1,-366.05 872.56,-351.81 864.31,-340.64"/>
<polygon fill="midnightblue" stroke="midnightblue" points="867.05,-338.47 858.29,-332.51 861.42,-342.63 867.05,-338.47"/>
</g>
<!-- Node20&#45;&gt;Node16 -->
<g id="edge43" class="edge">
<title>Node20&#45;&gt;Node16</title>
<path fill="none" stroke="midnightblue" d="M903.34,-374.81C913.65,-361.5 930.28,-335.25 922,-313 897.43,-247.02 835.24,-189.41 799.12,-160.09"/>
<polygon fill="midnightblue" stroke="midnightblue" points="800.97,-157.09 790.97,-153.59 796.61,-162.56 800.97,-157.09"/>
</g>
</g>
</svg>
