<?xml version="1.0" encoding="UTF-8" standalone="no"?>
<!DOCTYPE svg PUBLIC "-//W3C//DTD SVG 1.1//EN"
 "http://www.w3.org/Graphics/SVG/1.1/DTD/svg11.dtd">
<!-- Generated by graphviz version 2.50.0 (20220203.2022)
 -->
<!-- Title: include/yaclib/coroutine/detail/suspend_condition.hpp Pages: 1 -->
<svg width="227pt" height="240pt"
 viewBox="0.00 0.00 227.00 240.00" xmlns="http://www.w3.org/2000/svg" xmlns:xlink="http://www.w3.org/1999/xlink">
<g id="graph0" class="graph" transform="scale(1 1) rotate(0) translate(4 236)">
<title>include/yaclib/coroutine/detail/suspend_condition.hpp</title>
<!-- Node1 -->
<g id="node1" class="node">
<title>Node1</title>
<g id="a_node1"><a xlink:title=" ">
<polygon fill="#bfbfbf" stroke="black" points="28.5,-201.5 28.5,-231.5 173.5,-231.5 173.5,-201.5 28.5,-201.5"/>
<text text-anchor="start" x="36.5" y="-219.5" font-family="Helvetica,sans-Serif" font-size="10.00">include/yaclib/coroutine</text>
<text text-anchor="middle" x="101" y="-208.5" font-family="Helvetica,sans-Serif" font-size="10.00">/detail/suspend_condition.hpp</text>
</a>
</g>
</g>
<!-- Node2 -->
<g id="node2" class="node">
<title>Node2</title>
<g id="a_node2"><a xlink:href="coroutine__deleter_8hpp.html" target="_top" xlink:title=" ">
<polygon fill="none" stroke="black" points="81,-134.5 81,-164.5 219,-164.5 219,-134.5 81,-134.5"/>
<text text-anchor="start" x="89" y="-152.5" font-family="Helvetica,sans-Serif" font-size="10.00">include/yaclib/coroutine</text>
<text text-anchor="middle" x="150" y="-141.5" font-family="Helvetica,sans-Serif" font-size="10.00">/detail/coroutine_deleter.hpp</text>
</a>
</g>
</g>
<!-- Node1&#45;&gt;Node2 -->
<g id="edge1" class="edge">
<title>Node1&#45;&gt;Node2</title>
<path fill="none" stroke="midnightblue" d="M117.84,-193.16C124.99,-183.68 133.1,-172.92 139.39,-164.58"/>
<polygon fill="midnightblue" stroke="midnightblue" points="114.86,-191.3 111.63,-201.4 120.45,-195.52 114.86,-191.3"/>
</g>
<!-- Node3 -->
<g id="node3" class="node">
<title>Node3</title>
<g id="a_node3"><a xlink:href="promise__type_8hpp.html" target="_top" xlink:title=" ">
<polygon fill="none" stroke="black" points="0,-67.5 0,-97.5 122,-97.5 122,-67.5 0,-67.5"/>
<text text-anchor="start" x="8" y="-85.5" font-family="Helvetica,sans-Serif" font-size="10.00">include/yaclib/coroutine</text>
<text text-anchor="middle" x="61" y="-74.5" font-family="Helvetica,sans-Serif" font-size="10.00">/detail/promise_type.hpp</text>
</a>
</g>
</g>
<!-- Node1&#45;&gt;Node3 -->
<g id="edge5" class="edge">
<title>Node1&#45;&gt;Node3</title>
<path fill="none" stroke="midnightblue" d="M85.42,-192.73C80.38,-184.35 75.25,-174.56 72,-165 64.28,-142.29 61.95,-114.29 61.27,-97.72"/>
<polygon fill="midnightblue" stroke="midnightblue" points="82.47,-194.61 90.78,-201.2 88.39,-190.87 82.47,-194.61"/>
</g>
<!-- Node2&#45;&gt;Node3 -->
<g id="edge2" class="edge">
<title>Node2&#45;&gt;Node3</title>
<path fill="none" stroke="midnightblue" d="M122.55,-128.45C108.86,-118.45 92.63,-106.6 80.27,-97.58"/>
<polygon fill="midnightblue" stroke="midnightblue" points="120.55,-131.32 130.69,-134.4 124.68,-125.67 120.55,-131.32"/>
</g>
<!-- Node4 -->
<g id="node4" class="node">
<title>Node4</title>
<g id="a_node4"><a xlink:href="future__coro__traits_8hpp.html" target="_top" xlink:title=" ">
<polygon fill="none" stroke="black" points="46,-0.5 46,-30.5 164,-30.5 164,-0.5 46,-0.5"/>
<text text-anchor="start" x="54" y="-18.5" font-family="Helvetica,sans-Serif" font-size="10.00">include/yaclib/coroutine</text>
<text text-anchor="middle" x="105" y="-7.5" font-family="Helvetica,sans-Serif" font-size="10.00">/future_coro_traits.hpp</text>
</a>
</g>
</g>
<!-- Node2&#45;&gt;Node4 -->
<g id="edge4" class="edge">
<title>Node2&#45;&gt;Node4</title>
<path fill="none" stroke="midnightblue" d="M146.01,-124.44C142.88,-107.97 137.91,-85.79 131,-67 126.3,-54.23 119.12,-40.55 113.49,-30.66"/>
<polygon fill="midnightblue" stroke="midnightblue" points="142.57,-125.13 147.79,-134.35 149.46,-123.89 142.57,-125.13"/>
</g>
<!-- Node3&#45;&gt;Node4 -->
<g id="edge3" class="edge">
<title>Node3&#45;&gt;Node4</title>
<path fill="none" stroke="midnightblue" d="M76.32,-58.87C82.69,-49.46 89.88,-38.83 95.47,-30.58"/>
<polygon fill="midnightblue" stroke="midnightblue" points="73.25,-57.15 70.55,-67.4 79.05,-61.08 73.25,-57.15"/>
</g>
</g>
</svg>
