<?xml version="1.0" encoding="UTF-8" standalone="no"?>
<!DOCTYPE svg PUBLIC "-//W3C//DTD SVG 1.1//EN"
 "http://www.w3.org/Graphics/SVG/1.1/DTD/svg11.dtd">
<!-- Generated by graphviz version 2.50.0 (20220203.2022)
 -->
<!-- Title: include/yaclib/executor/task.hpp Pages: 1 -->
<!--zoomable 352 -->
<svg id="main" version="1.1" xmlns="http://www.w3.org/2000/svg" xmlns:xlink="http://www.w3.org/1999/xlink" xml:space="preserve" onload="init(evt)">
<style type="text/css"><![CDATA[
.edge:hover path { stroke: red; }
.edge:hover polygon { stroke: red; fill: red; }
]]></style>
<script type="text/javascript"><![CDATA[
var edges = document.getElementsByTagName('g');
if (edges && edges.length) {
  for (var i=0;i<edges.length;i++) {
    if (edges[i].id.substr(0,4)=='edge') {
      edges[i].setAttribute('class','edge');
    }
  }
}
]]></script>
        <defs>
                <circle id="rim" cx="0" cy="0" r="7"/>
                <circle id="rim2" cx="0" cy="0" r="3.5"/>
                <g id="zoomPlus">
                        <use xlink:href="#rim" fill="#404040">
                                <set attributeName="fill" to="#808080" begin="zoomplus.mouseover" end="zoomplus.mouseout"/>
                        </use>
                        <path d="M-4,0h8M0,-4v8" fill="none" stroke="white" stroke-width="1.5" pointer-events="none"/>
                </g>
                <g id="zoomMin">
                        <use xlink:href="#rim" fill="#404040">
                                <set attributeName="fill" to="#808080" begin="zoomminus.mouseover" end="zoomminus.mouseout"/>
                        </use>
                        <path d="M-4,0h8" fill="none" stroke="white" stroke-width="1.5" pointer-events="none"/>
                </g>
                <g id="dirArrow">
                        <path fill="none" stroke="white" stroke-width="1.5" d="M0,-3.0v7 M-2.5,-0.5L0,-3.0L2.5,-0.5"/>
                </g>
               <g id="resetDef">
                       <use xlink:href="#rim2" fill="#404040">
                               <set attributeName="fill" to="#808080" begin="reset.mouseover" end="reset.mouseout"/>
                       </use>
               </g>
        </defs>

<script type="text/javascript">
var viewWidth = 903;
var viewHeight = 352;
var sectionId = 'dynsection-0';
</script>
<script xlink:href="svgpan.js"/>
<svg id="graph" class="graph">
<g id="viewport">
<title>include/yaclib/executor/task.hpp</title>
<!-- Node1 -->
<g id="node1" class="node">
<title>Node1</title>
<g id="a_node1"><a xlink:title=" ">
<polygon fill="#bfbfbf" stroke="black" points="154.5,-313.5 154.5,-343.5 269.5,-343.5 269.5,-313.5 154.5,-313.5"/>
<text text-anchor="start" x="162.5" y="-331.5" font-family="Helvetica,sans-Serif" font-size="10.00">include/yaclib/executor</text>
<text text-anchor="middle" x="212" y="-320.5" font-family="Helvetica,sans-Serif" font-size="10.00">/task.hpp</text>
</a>
</g>
</g>
<!-- Node2 -->
<g id="node2" class="node">
<title>Node2</title>
<g id="a_node2"><a xlink:title=" ">
<polygon fill="none" stroke="#bfbfbf" points="392,-0.5 392,-19.5 480,-19.5 480,-0.5 392,-0.5"/>
<text text-anchor="middle" x="436" y="-7.5" font-family="Helvetica,sans-Serif" font-size="10.00">yaclib/config.hpp</text>
</a>
</g>
</g>
<!-- Node1&#45;&gt;Node2 -->
<g id="edge1" class="edge">
<title>Node1&#45;&gt;Node2</title>
<path fill="none" stroke="midnightblue" d="M197.15,-313.39C176.61,-292.26 142,-250.18 142,-206.5 142,-206.5 142,-206.5 142,-137.5 142,-34.28 296.79,-14.25 381.74,-11.03"/>
<polygon fill="midnightblue" stroke="midnightblue" points="382.1,-14.52 391.99,-10.71 381.88,-7.53 382.1,-14.52"/>
</g>
<!-- Node3 -->
<g id="node3" class="node">
<title>Node3</title>
<g id="a_node3"><a xlink:href="node_8hpp.html" target="_top" xlink:title=" ">
<polygon fill="none" stroke="black" points="170.5,-190.5 170.5,-220.5 253.5,-220.5 253.5,-190.5 170.5,-190.5"/>
<text text-anchor="start" x="178.5" y="-208.5" font-family="Helvetica,sans-Serif" font-size="10.00">yaclib/util/detail</text>
<text text-anchor="middle" x="212" y="-197.5" font-family="Helvetica,sans-Serif" font-size="10.00">/node.hpp</text>
</a>
</g>
</g>
<!-- Node1&#45;&gt;Node3 -->
<g id="edge2" class="edge">
<title>Node1&#45;&gt;Node3</title>
<path fill="none" stroke="midnightblue" d="M212,-313.14C212,-292.86 212,-255.53 212,-230.86"/>
<polygon fill="midnightblue" stroke="midnightblue" points="215.5,-230.84 212,-220.84 208.5,-230.84 215.5,-230.84"/>
</g>
<!-- Node4 -->
<g id="node4" class="node">
<title>Node4</title>
<g id="a_node4"><a xlink:href="func_8hpp.html" target="_top" xlink:title=" ">
<polygon fill="none" stroke="black" points="396.5,-257.5 396.5,-276.5 493.5,-276.5 493.5,-257.5 396.5,-257.5"/>
<text text-anchor="middle" x="445" y="-264.5" font-family="Helvetica,sans-Serif" font-size="10.00">yaclib/util/func.hpp</text>
</a>
</g>
</g>
<!-- Node1&#45;&gt;Node4 -->
<g id="edge4" class="edge">
<title>Node1&#45;&gt;Node4</title>
<path fill="none" stroke="midnightblue" d="M266.92,-313.47C308.17,-302.94 363.88,-288.72 401.93,-279"/>
<polygon fill="midnightblue" stroke="midnightblue" points="402.87,-282.37 411.69,-276.51 401.13,-275.59 402.87,-282.37"/>
</g>
<!-- Node3&#45;&gt;Node2 -->
<g id="edge3" class="edge">
<title>Node3&#45;&gt;Node2</title>
<path fill="none" stroke="midnightblue" d="M213.14,-190.28C216.29,-160.73 227.77,-92.44 268,-56 298.86,-28.05 345.22,-17.15 381.42,-13.05"/>
<polygon fill="midnightblue" stroke="midnightblue" points="382.21,-16.49 391.82,-12.02 381.53,-9.52 382.21,-16.49"/>
</g>
<!-- Node4&#45;&gt;Node2 -->
<g id="edge5" class="edge">
<title>Node4&#45;&gt;Node2</title>
<path fill="none" stroke="midnightblue" d="M416.46,-257.47C397.17,-250.42 372.34,-238.67 356,-221 312.3,-173.72 313.46,-150.16 301,-87 298.33,-73.48 292.94,-67.18 301,-56 319.35,-30.54 352.73,-19.27 381.7,-14.37"/>
<polygon fill="midnightblue" stroke="midnightblue" points="382.35,-17.81 391.73,-12.89 381.33,-10.89 382.35,-17.81"/>
</g>
<!-- Node5 -->
<g id="node5" class="node">
<title>Node5</title>
<g id="a_node5"><a xlink:href="safe__call_8hpp.html" target="_top" xlink:title=" ">
<polygon fill="none" stroke="black" points="502.5,-123.5 502.5,-153.5 585.5,-153.5 585.5,-123.5 502.5,-123.5"/>
<text text-anchor="start" x="510.5" y="-141.5" font-family="Helvetica,sans-Serif" font-size="10.00">yaclib/util/detail</text>
<text text-anchor="middle" x="544" y="-130.5" font-family="Helvetica,sans-Serif" font-size="10.00">/safe_call.hpp</text>
</a>
</g>
</g>
<!-- Node4&#45;&gt;Node5 -->
<g id="edge6" class="edge">
<title>Node4&#45;&gt;Node5</title>
<path fill="none" stroke="midnightblue" d="M454.01,-257.42C463.03,-248.64 477.1,-234.42 488,-221 503.44,-202 519.05,-178.88 529.86,-162.13"/>
<polygon fill="midnightblue" stroke="midnightblue" points="532.91,-163.85 535.33,-153.54 527,-160.09 532.91,-163.85"/>
</g>
<!-- Node6 -->
<g id="node6" class="node">
<title>Node6</title>
<g id="a_node6"><a xlink:title=" ">
<polygon fill="none" stroke="#bfbfbf" points="310,-62 310,-81 372,-81 372,-62 310,-62"/>
<text text-anchor="middle" x="341" y="-69" font-family="Helvetica,sans-Serif" font-size="10.00">type_traits</text>
</a>
</g>
</g>
<!-- Node4&#45;&gt;Node6 -->
<g id="edge32" class="edge">
<title>Node4&#45;&gt;Node6</title>
<path fill="none" stroke="midnightblue" d="M432,-257.45C408.13,-240.88 358.02,-201.76 339,-154 330.93,-133.72 333.31,-108.3 336.47,-91.29"/>
<polygon fill="midnightblue" stroke="midnightblue" points="339.91,-91.97 338.57,-81.46 333.06,-90.51 339.91,-91.97"/>
</g>
<!-- Node7 -->
<g id="node7" class="node">
<title>Node7</title>
<g id="a_node7"><a xlink:title=" ">
<polygon fill="none" stroke="#bfbfbf" points="584.5,-62 584.5,-81 623.5,-81 623.5,-62 584.5,-62"/>
<text text-anchor="middle" x="604" y="-69" font-family="Helvetica,sans-Serif" font-size="10.00">utility</text>
</a>
</g>
</g>
<!-- Node4&#45;&gt;Node7 -->
<g id="edge33" class="edge">
<title>Node4&#45;&gt;Node7</title>
<path fill="none" stroke="midnightblue" d="M465.61,-257.44C499.27,-242.23 565.18,-207.03 594,-154 604.51,-134.66 605.98,-109.01 605.49,-91.69"/>
<polygon fill="midnightblue" stroke="midnightblue" points="608.96,-91.01 604.93,-81.21 601.97,-91.39 608.96,-91.01"/>
</g>
<!-- Node8 -->
<g id="node8" class="node">
<title>Node8</title>
<g id="a_node8"><a xlink:href="helper_8hpp.html" target="_top" xlink:title=" ">
<polygon fill="none" stroke="black" points="642,-196 642,-215 746,-215 746,-196 642,-196"/>
<text text-anchor="middle" x="694" y="-203" font-family="Helvetica,sans-Serif" font-size="10.00">yaclib/util/helper.hpp</text>
</a>
</g>
</g>
<!-- Node4&#45;&gt;Node8 -->
<g id="edge10" class="edge">
<title>Node4&#45;&gt;Node8</title>
<path fill="none" stroke="midnightblue" d="M480.68,-257.48C524.87,-246.92 600.21,-228.91 648.51,-217.37"/>
<polygon fill="midnightblue" stroke="midnightblue" points="649.48,-220.74 658.39,-215.01 647.85,-213.93 649.48,-220.74"/>
</g>
<!-- Node14 -->
<g id="node14" class="node">
<title>Node14</title>
<g id="a_node14"><a xlink:href="intrusive__ptr_8hpp.html" target="_top" xlink:title=" ">
<polygon fill="none" stroke="black" points="348.5,-123.5 348.5,-153.5 445.5,-153.5 445.5,-123.5 348.5,-123.5"/>
<text text-anchor="start" x="356.5" y="-141.5" font-family="Helvetica,sans-Serif" font-size="10.00">yaclib/util/intrusive</text>
<text text-anchor="middle" x="397" y="-130.5" font-family="Helvetica,sans-Serif" font-size="10.00">_ptr.hpp</text>
</a>
</g>
</g>
<!-- Node4&#45;&gt;Node14 -->
<g id="edge30" class="edge">
<title>Node4&#45;&gt;Node14</title>
<path fill="none" stroke="midnightblue" d="M441.7,-257.31C434.46,-238.21 416.95,-192.07 406.12,-163.52"/>
<polygon fill="midnightblue" stroke="midnightblue" points="409.28,-162 402.46,-153.89 402.73,-164.48 409.28,-162"/>
</g>
<!-- Node15 -->
<g id="node15" class="node">
<title>Node15</title>
<g id="a_node15"><a xlink:href="ref_8hpp.html" target="_top" xlink:title=" ">
<polygon fill="none" stroke="black" points="428.5,-62 428.5,-81 517.5,-81 517.5,-62 428.5,-62"/>
<text text-anchor="middle" x="473" y="-69" font-family="Helvetica,sans-Serif" font-size="10.00">yaclib/util/ref.hpp</text>
</a>
</g>
</g>
<!-- Node4&#45;&gt;Node15 -->
<g id="edge31" class="edge">
<title>Node4&#45;&gt;Node15</title>
<path fill="none" stroke="midnightblue" d="M446.24,-257.44C450.46,-228.29 464.32,-132.47 470.26,-91.43"/>
<polygon fill="midnightblue" stroke="midnightblue" points="473.74,-91.81 471.71,-81.41 466.82,-90.8 473.74,-91.81"/>
</g>
<!-- Node5&#45;&gt;Node2 -->
<g id="edge7" class="edge">
<title>Node5&#45;&gt;Node2</title>
<path fill="none" stroke="midnightblue" d="M544.41,-123.28C544.18,-105.69 541.33,-75.65 526,-56 514.15,-40.8 495.79,-30.34 478.74,-23.36"/>
<polygon fill="midnightblue" stroke="midnightblue" points="479.5,-19.91 468.91,-19.65 477.03,-26.46 479.5,-19.91"/>
</g>
<!-- Node5&#45;&gt;Node6 -->
<g id="edge8" class="edge">
<title>Node5&#45;&gt;Node6</title>
<path fill="none" stroke="midnightblue" d="M502.43,-124.19C465.69,-112.43 412.63,-95.44 377.5,-84.19"/>
<polygon fill="midnightblue" stroke="midnightblue" points="378.24,-80.75 367.65,-81.03 376.11,-87.42 378.24,-80.75"/>
</g>
<!-- Node5&#45;&gt;Node7 -->
<g id="edge9" class="edge">
<title>Node5&#45;&gt;Node7</title>
<path fill="none" stroke="midnightblue" d="M557.02,-123.4C566.47,-113.16 579.27,-99.3 589.12,-88.62"/>
<polygon fill="midnightblue" stroke="midnightblue" points="591.76,-90.92 595.97,-81.19 586.62,-86.17 591.76,-90.92"/>
</g>
<!-- Node8&#45;&gt;Node2 -->
<g id="edge11" class="edge">
<title>Node8&#45;&gt;Node2</title>
<path fill="none" stroke="midnightblue" d="M689.97,-195.98C685.27,-185.98 677.35,-168.89 671,-154 652.61,-110.88 667.58,-86.52 632,-56 610.99,-37.98 540.8,-25.02 490.42,-17.76"/>
<polygon fill="midnightblue" stroke="midnightblue" points="490.71,-14.27 480.32,-16.34 489.73,-21.2 490.71,-14.27"/>
</g>
<!-- Node9 -->
<g id="node9" class="node">
<title>Node9</title>
<g id="a_node9"><a xlink:href="atomic_8hpp.html" target="_top" xlink:title=" ">
<polygon fill="none" stroke="black" points="756.5,-62 756.5,-81 869.5,-81 869.5,-62 756.5,-62"/>
<text text-anchor="middle" x="813" y="-69" font-family="Helvetica,sans-Serif" font-size="10.00">yaclib/fault/atomic.hpp</text>
</a>
</g>
</g>
<!-- Node8&#45;&gt;Node9 -->
<g id="edge12" class="edge">
<title>Node8&#45;&gt;Node9</title>
<path fill="none" stroke="midnightblue" d="M725.76,-195.99C747.79,-188.48 776.11,-175.33 793,-154 807.31,-135.93 811.57,-109.05 812.74,-91.17"/>
<polygon fill="midnightblue" stroke="midnightblue" points="816.24,-91.25 813.13,-81.12 809.24,-90.98 816.24,-91.25"/>
</g>
<!-- Node13 -->
<g id="node13" class="node">
<title>Node13</title>
<g id="a_node13"><a xlink:href="atomic__counter_8hpp.html" target="_top" xlink:title=" ">
<polygon fill="none" stroke="black" points="680,-123.5 680,-153.5 784,-153.5 784,-123.5 680,-123.5"/>
<text text-anchor="start" x="688" y="-141.5" font-family="Helvetica,sans-Serif" font-size="10.00">yaclib/util/detail</text>
<text text-anchor="middle" x="732" y="-130.5" font-family="Helvetica,sans-Serif" font-size="10.00">/atomic_counter.hpp</text>
</a>
</g>
</g>
<!-- Node8&#45;&gt;Node13 -->
<g id="edge17" class="edge">
<title>Node8&#45;&gt;Node13</title>
<path fill="none" stroke="midnightblue" d="M699.12,-195.73C704.11,-187.2 711.9,-173.87 718.65,-162.33"/>
<polygon fill="midnightblue" stroke="midnightblue" points="721.74,-163.99 723.76,-153.59 715.69,-160.46 721.74,-163.99"/>
</g>
<!-- Node8&#45;&gt;Node14 -->
<g id="edge22" class="edge">
<title>Node8&#45;&gt;Node14</title>
<path fill="none" stroke="midnightblue" d="M654.87,-195.94C603.94,-184.79 514.51,-165.22 455.51,-152.31"/>
<polygon fill="midnightblue" stroke="midnightblue" points="456.11,-148.85 445.59,-150.13 454.61,-155.69 456.11,-148.85"/>
</g>
<!-- Node9&#45;&gt;Node2 -->
<g id="edge13" class="edge">
<title>Node9&#45;&gt;Node2</title>
<path fill="none" stroke="midnightblue" d="M758.99,-61.98C687.47,-50.69 562.08,-30.9 490.39,-19.58"/>
<polygon fill="midnightblue" stroke="midnightblue" points="490.64,-16.08 480.21,-17.98 489.54,-22.99 490.64,-16.08"/>
</g>
<!-- Node10 -->
<g id="node10" class="node">
<title>Node10</title>
<g id="a_node10"><a xlink:title=" ">
<polygon fill="none" stroke="#bfbfbf" points="708.5,-0.5 708.5,-19.5 757.5,-19.5 757.5,-0.5 708.5,-0.5"/>
<text text-anchor="middle" x="733" y="-7.5" font-family="Helvetica,sans-Serif" font-size="10.00">cstddef</text>
</a>
</g>
</g>
<!-- Node9&#45;&gt;Node10 -->
<g id="edge14" class="edge">
<title>Node9&#45;&gt;Node10</title>
<path fill="none" stroke="midnightblue" d="M801.54,-61.98C788.83,-52.52 768.09,-37.1 752.75,-25.69"/>
<polygon fill="midnightblue" stroke="midnightblue" points="754.55,-22.67 744.44,-19.51 750.38,-28.29 754.55,-22.67"/>
</g>
<!-- Node11 -->
<g id="node11" class="node">
<title>Node11</title>
<g id="a_node11"><a xlink:title=" ">
<polygon fill="none" stroke="#bfbfbf" points="849,-0.5 849,-19.5 895,-19.5 895,-0.5 849,-0.5"/>
<text text-anchor="middle" x="872" y="-7.5" font-family="Helvetica,sans-Serif" font-size="10.00">cstdint</text>
</a>
</g>
</g>
<!-- Node9&#45;&gt;Node11 -->
<g id="edge15" class="edge">
<title>Node9&#45;&gt;Node11</title>
<path fill="none" stroke="midnightblue" d="M821.45,-61.98C830.57,-52.78 845.27,-37.96 856.48,-26.66"/>
<polygon fill="midnightblue" stroke="midnightblue" points="859.01,-29.07 863.56,-19.51 854.04,-24.15 859.01,-29.07"/>
</g>
<!-- Node12 -->
<g id="node12" class="node">
<title>Node12</title>
<g id="a_node12"><a xlink:title=" ">
<polygon fill="none" stroke="#bfbfbf" points="785,-0.5 785,-19.5 831,-19.5 831,-0.5 785,-0.5"/>
<text text-anchor="middle" x="808" y="-7.5" font-family="Helvetica,sans-Serif" font-size="10.00">atomic</text>
</a>
</g>
</g>
<!-- Node9&#45;&gt;Node12 -->
<g id="edge16" class="edge">
<title>Node9&#45;&gt;Node12</title>
<path fill="none" stroke="midnightblue" d="M812.28,-61.98C811.58,-53.58 810.48,-40.48 809.57,-29.66"/>
<polygon fill="midnightblue" stroke="midnightblue" points="813.04,-29.18 808.72,-19.51 806.06,-29.77 813.04,-29.18"/>
</g>
<!-- Node13&#45;&gt;Node2 -->
<g id="edge18" class="edge">
<title>Node13&#45;&gt;Node2</title>
<path fill="none" stroke="midnightblue" d="M724.74,-123.44C714.36,-104.85 693.46,-72.52 666,-56 612.13,-23.59 539.51,-13.91 490.39,-11.33"/>
<polygon fill="midnightblue" stroke="midnightblue" points="490.42,-7.83 480.28,-10.88 490.11,-14.82 490.42,-7.83"/>
</g>
<!-- Node13&#45;&gt;Node7 -->
<g id="edge21" class="edge">
<title>Node13&#45;&gt;Node7</title>
<path fill="none" stroke="midnightblue" d="M704.23,-123.4C682.06,-112.14 651.26,-96.5 629.67,-85.54"/>
<polygon fill="midnightblue" stroke="midnightblue" points="631.25,-82.41 620.75,-81.01 628.08,-88.66 631.25,-82.41"/>
</g>
<!-- Node13&#45;&gt;Node9 -->
<g id="edge19" class="edge">
<title>Node13&#45;&gt;Node9</title>
<path fill="none" stroke="midnightblue" d="M749.58,-123.4C762.71,-112.86 780.63,-98.48 794.07,-87.69"/>
<polygon fill="midnightblue" stroke="midnightblue" points="796.56,-90.18 802.17,-81.19 792.18,-84.72 796.56,-90.18"/>
</g>
<!-- Node13&#45;&gt;Node10 -->
<g id="edge20" class="edge">
<title>Node13&#45;&gt;Node10</title>
<path fill="none" stroke="midnightblue" d="M732.11,-123.48C732.29,-100.72 732.65,-55.7 732.85,-30.06"/>
<polygon fill="midnightblue" stroke="midnightblue" points="736.35,-29.82 732.93,-19.79 729.35,-29.76 736.35,-29.82"/>
</g>
<!-- Node14&#45;&gt;Node2 -->
<g id="edge23" class="edge">
<title>Node14&#45;&gt;Node2</title>
<path fill="none" stroke="midnightblue" d="M400.4,-123.24C404.41,-106.88 411.48,-79.29 419,-56 421.89,-47.05 425.53,-37.26 428.7,-29.11"/>
<polygon fill="midnightblue" stroke="midnightblue" points="432.06,-30.12 432.49,-19.54 425.55,-27.55 432.06,-30.12"/>
</g>
<!-- Node14&#45;&gt;Node6 -->
<g id="edge26" class="edge">
<title>Node14&#45;&gt;Node6</title>
<path fill="none" stroke="midnightblue" d="M384.85,-123.4C376.12,-113.26 364.32,-99.57 355.16,-88.94"/>
<polygon fill="midnightblue" stroke="midnightblue" points="357.67,-86.49 348.49,-81.19 352.37,-91.06 357.67,-86.49"/>
</g>
<!-- Node14&#45;&gt;Node15 -->
<g id="edge24" class="edge">
<title>Node14&#45;&gt;Node15</title>
<path fill="none" stroke="midnightblue" d="M413.49,-123.4C425.69,-112.96 442.31,-98.75 454.88,-88"/>
<polygon fill="midnightblue" stroke="midnightblue" points="457.51,-90.35 462.83,-81.19 452.96,-85.03 457.51,-90.35"/>
</g>
<!-- Node16 -->
<g id="node16" class="node">
<title>Node16</title>
<g id="a_node16"><a xlink:href="intrusive__ptr__impl_8hpp.html" target="_top" xlink:title=" ">
<polygon fill="none" stroke="black" points="0,-56.5 0,-86.5 114,-86.5 114,-56.5 0,-56.5"/>
<text text-anchor="start" x="8" y="-74.5" font-family="Helvetica,sans-Serif" font-size="10.00">yaclib/util/detail</text>
<text text-anchor="middle" x="57" y="-63.5" font-family="Helvetica,sans-Serif" font-size="10.00">/intrusive_ptr_impl.hpp</text>
</a>
</g>
</g>
<!-- Node14&#45;&gt;Node16 -->
<g id="edge27" class="edge">
<title>Node14&#45;&gt;Node16</title>
<path fill="none" stroke="midnightblue" d="M348.29,-128.19C289.43,-116.93 190.1,-97.94 124.04,-85.32"/>
<polygon fill="midnightblue" stroke="midnightblue" points="124.62,-81.86 114.14,-83.42 123.3,-88.74 124.62,-81.86"/>
</g>
<!-- Node15&#45;&gt;Node2 -->
<g id="edge25" class="edge">
<title>Node15&#45;&gt;Node2</title>
<path fill="none" stroke="midnightblue" d="M467.7,-61.98C462.26,-53.23 453.64,-39.37 446.76,-28.31"/>
<polygon fill="midnightblue" stroke="midnightblue" points="449.54,-26.15 441.29,-19.51 443.6,-29.85 449.54,-26.15"/>
</g>
<!-- Node16&#45;&gt;Node2 -->
<g id="edge28" class="edge">
<title>Node16&#45;&gt;Node2</title>
<path fill="none" stroke="midnightblue" d="M114.3,-58.51C118.93,-57.63 123.54,-56.78 128,-56 216.44,-40.52 319.81,-26.18 381.48,-18.02"/>
<polygon fill="midnightblue" stroke="midnightblue" points="382.3,-21.44 391.76,-16.67 381.38,-14.5 382.3,-21.44"/>
</g>
<!-- Node17 -->
<g id="node17" class="node">
<title>Node17</title>
<g id="a_node17"><a xlink:title=" ">
<polygon fill="none" stroke="#bfbfbf" points="32.5,-0.5 32.5,-19.5 81.5,-19.5 81.5,-0.5 32.5,-0.5"/>
<text text-anchor="middle" x="57" y="-7.5" font-family="Helvetica,sans-Serif" font-size="10.00">cassert</text>
</a>
</g>
</g>
<!-- Node16&#45;&gt;Node17 -->
<g id="edge29" class="edge">
<title>Node16&#45;&gt;Node17</title>
<path fill="none" stroke="midnightblue" d="M57,-56.4C57,-48.47 57,-38.46 57,-29.86"/>
<polygon fill="midnightblue" stroke="midnightblue" points="60.5,-29.66 57,-19.66 53.5,-29.66 60.5,-29.66"/>
</g>
</g>
</svg>
        <g id="navigator" transform="translate(0 0)" fill="#404254">
                <rect fill="#f2f5e9" fill-opacity="0.5" stroke="#606060" stroke-width=".5" x="0" y="0" width="60" height="60"/>
                <use id="zoomplus" xlink:href="#zoomPlus" x="17" y="9" onmousedown="handleZoom(evt,'in')"/>
                <use id="zoomminus" xlink:href="#zoomMin" x="42" y="9" onmousedown="handleZoom(evt,'out')"/>
                <use id="reset" xlink:href="#resetDef" x="30" y="36" onmousedown="handleReset()"/>
                <g id="arrowUp" xlink:href="#dirArrow" transform="translate(30 24)" onmousedown="handlePan(0,-1)">
                  <use xlink:href="#rim" fill="#404040">
                        <set attributeName="fill" to="#808080" begin="arrowUp.mouseover" end="arrowUp.mouseout"/>
                  </use>
                  <path fill="none" stroke="white" stroke-width="1.5" d="M0,-3.0v7 M-2.5,-0.5L0,-3.0L2.5,-0.5"/>
                </g>
                <g id="arrowRight" xlink:href="#dirArrow" transform="rotate(90) translate(36 -43)" onmousedown="handlePan(1,0)">
                  <use xlink:href="#rim" fill="#404040">
                        <set attributeName="fill" to="#808080" begin="arrowRight.mouseover" end="arrowRight.mouseout"/>
                  </use>
                  <path fill="none" stroke="white" stroke-width="1.5" d="M0,-3.0v7 M-2.5,-0.5L0,-3.0L2.5,-0.5"/>
                </g>
                <g id="arrowDown" xlink:href="#dirArrow" transform="rotate(180) translate(-30 -48)" onmousedown="handlePan(0,1)">
                  <use xlink:href="#rim" fill="#404040">
                        <set attributeName="fill" to="#808080" begin="arrowDown.mouseover" end="arrowDown.mouseout"/>
                  </use>
                  <path fill="none" stroke="white" stroke-width="1.5" d="M0,-3.0v7 M-2.5,-0.5L0,-3.0L2.5,-0.5"/>
                </g>
                <g id="arrowLeft" xlink:href="#dirArrow" transform="rotate(270) translate(-36 17)" onmousedown="handlePan(-1,0)">
                  <use xlink:href="#rim" fill="#404040">
                        <set attributeName="fill" to="#808080" begin="arrowLeft.mouseover" end="arrowLeft.mouseout"/>
                  </use>
                  <path fill="none" stroke="white" stroke-width="1.5" d="M0,-3.0v7 M-2.5,-0.5L0,-3.0L2.5,-0.5"/>
                </g>
        </g>
        <svg viewBox="0 0 15 15" width="100%" height="30px" preserveAspectRatio="xMaxYMin meet">
         <g id="arrow_out" transform="scale(0.3 0.3)">
          <a xlink:href="task_8hpp__incl_org.svg" target="_base">
           <rect id="button" ry="5" rx="5" y="6" x="6" height="38" width="38"
                fill="#f2f5e9" fill-opacity="0.5" stroke="#606060" stroke-width="1.0"/>
           <path id="arrow"
             d="M 11.500037,31.436501 C 11.940474,20.09759 22.043105,11.32322 32.158766,21.979434 L 37.068811,17.246167 C 37.068811,17.246167 37.088388,32 37.088388,32 L 22.160133,31.978069 C 22.160133,31.978069 26.997745,27.140456 26.997745,27.140456 C 18.528582,18.264221 13.291696,25.230495 11.500037,31.436501 z"
             style="fill:#404040;"/>
          </a>
         </g>
        </svg>
</svg>
