<?xml version="1.0" encoding="UTF-8" standalone="no"?>
<!DOCTYPE svg PUBLIC "-//W3C//DTD SVG 1.1//EN"
 "http://www.w3.org/Graphics/SVG/1.1/DTD/svg11.dtd">
<!-- Generated by graphviz version 2.50.0 (20220203.2022)
 -->
<!-- Title: include/yaclib/executor/thread_pool.hpp Pages: 1 -->
<svg width="1216pt" height="475pt"
 viewBox="0.00 0.00 1215.50 475.00" xmlns="http://www.w3.org/2000/svg" xmlns:xlink="http://www.w3.org/1999/xlink">
<g id="graph0" class="graph" transform="scale(1 1) rotate(0) translate(4 471)">
<title>include/yaclib/executor/thread_pool.hpp</title>
<!-- Node1 -->
<g id="node1" class="node">
<title>Node1</title>
<g id="a_node1"><a xlink:title=" ">
<polygon fill="#bfbfbf" stroke="black" points="706.5,-436.5 706.5,-466.5 821.5,-466.5 821.5,-436.5 706.5,-436.5"/>
<text text-anchor="start" x="714.5" y="-454.5" font-family="Helvetica,sans-Serif" font-size="10.00">include/yaclib/executor</text>
<text text-anchor="middle" x="764" y="-443.5" font-family="Helvetica,sans-Serif" font-size="10.00">/thread_pool.hpp</text>
</a>
</g>
</g>
<!-- Node2 -->
<g id="node2" class="node">
<title>Node2</title>
<g id="a_node2"><a xlink:title=" ">
<polygon fill="none" stroke="#bfbfbf" points="662,-0.5 662,-19.5 750,-19.5 750,-0.5 662,-0.5"/>
<text text-anchor="middle" x="706" y="-7.5" font-family="Helvetica,sans-Serif" font-size="10.00">yaclib/config.hpp</text>
</a>
</g>
</g>
<!-- Node1&#45;&gt;Node2 -->
<g id="edge1" class="edge">
<title>Node1&#45;&gt;Node2</title>
<path fill="none" stroke="midnightblue" d="M821.61,-439.99C881.32,-425.39 966,-392.58 966,-324 966,-324 966,-324 966,-137.5 966,-46.89 836.73,-21.17 760.49,-13.87"/>
<polygon fill="midnightblue" stroke="midnightblue" points="760.37,-10.35 750.11,-12.96 759.76,-17.32 760.37,-10.35"/>
</g>
<!-- Node3 -->
<g id="node3" class="node">
<title>Node3</title>
<g id="a_node3"><a xlink:href="executor_8hpp.html" target="_top" xlink:title=" ">
<polygon fill="none" stroke="black" points="694.5,-375 694.5,-394 833.5,-394 833.5,-375 694.5,-375"/>
<text text-anchor="middle" x="764" y="-382" font-family="Helvetica,sans-Serif" font-size="10.00">yaclib/executor/executor.hpp</text>
</a>
</g>
</g>
<!-- Node1&#45;&gt;Node3 -->
<g id="edge2" class="edge">
<title>Node1&#45;&gt;Node3</title>
<path fill="none" stroke="midnightblue" d="M764,-436.4C764,-427.06 764,-414.71 764,-404.52"/>
<polygon fill="midnightblue" stroke="midnightblue" points="767.5,-404.19 764,-394.19 760.5,-404.19 767.5,-404.19"/>
</g>
<!-- Node12 -->
<g id="node12" class="node">
<title>Node12</title>
<g id="a_node12"><a xlink:title=" ">
<polygon fill="none" stroke="#bfbfbf" points="32.5,-0.5 32.5,-19.5 81.5,-19.5 81.5,-0.5 32.5,-0.5"/>
<text text-anchor="middle" x="57" y="-7.5" font-family="Helvetica,sans-Serif" font-size="10.00">cstddef</text>
</a>
</g>
</g>
<!-- Node1&#45;&gt;Node12 -->
<g id="edge51" class="edge">
<title>Node1&#45;&gt;Node12</title>
<path fill="none" stroke="midnightblue" d="M706.26,-447.03C528.28,-435.58 0,-395.55 0,-324 0,-324 0,-324 0,-137.5 0,-94.97 27.11,-50.93 43.94,-27.7"/>
<polygon fill="midnightblue" stroke="midnightblue" points="46.82,-29.7 50.01,-19.6 41.21,-25.5 46.82,-29.7"/>
</g>
<!-- Node20 -->
<g id="node20" class="node">
<title>Node20</title>
<g id="a_node20"><a xlink:href="thread__factory_8hpp.html" target="_top" xlink:title=" ">
<polygon fill="none" stroke="black" points="301.5,-369.5 301.5,-399.5 412.5,-399.5 412.5,-369.5 301.5,-369.5"/>
<text text-anchor="start" x="309.5" y="-387.5" font-family="Helvetica,sans-Serif" font-size="10.00">yaclib/executor/thread</text>
<text text-anchor="middle" x="357" y="-376.5" font-family="Helvetica,sans-Serif" font-size="10.00">_factory.hpp</text>
</a>
</g>
</g>
<!-- Node1&#45;&gt;Node20 -->
<g id="edge39" class="edge">
<title>Node1&#45;&gt;Node20</title>
<path fill="none" stroke="midnightblue" d="M706.12,-441.26C631.35,-429.31 501.5,-408.58 422.98,-396.04"/>
<polygon fill="midnightblue" stroke="midnightblue" points="423.15,-392.52 412.72,-394.4 422.04,-399.43 423.15,-392.52"/>
</g>
<!-- Node22 -->
<g id="node22" class="node">
<title>Node22</title>
<g id="a_node22"><a xlink:href="thread_8hpp.html" target="_top" xlink:title=" ">
<polygon fill="none" stroke="black" points="996.5,-129 996.5,-148 1107.5,-148 1107.5,-129 996.5,-129"/>
<text text-anchor="middle" x="1052" y="-136" font-family="Helvetica,sans-Serif" font-size="10.00">yaclib/fault/thread.hpp</text>
</a>
</g>
</g>
<!-- Node1&#45;&gt;Node22 -->
<g id="edge45" class="edge">
<title>Node1&#45;&gt;Node22</title>
<path fill="none" stroke="midnightblue" d="M821.72,-447.61C899.13,-440.26 1027,-414.44 1027,-324 1027,-324 1027,-324 1027,-260.5 1027,-223.46 1038.37,-181.35 1045.78,-157.85"/>
<polygon fill="midnightblue" stroke="midnightblue" points="1049.16,-158.77 1048.93,-148.18 1042.5,-156.6 1049.16,-158.77"/>
</g>
<!-- Node3&#45;&gt;Node2 -->
<g id="edge3" class="edge">
<title>Node3&#45;&gt;Node2</title>
<path fill="none" stroke="midnightblue" d="M797.98,-374.92C846.02,-360.51 928,-326.54 928,-262.5 928,-262.5 928,-262.5 928,-137.5 928,-95 912.13,-81.32 878,-56 843.78,-30.62 796.46,-19.53 760.12,-14.69"/>
<polygon fill="midnightblue" stroke="midnightblue" points="760.53,-11.22 750.18,-13.49 759.68,-18.16 760.53,-11.22"/>
</g>
<!-- Node4 -->
<g id="node4" class="node">
<title>Node4</title>
<g id="a_node4"><a xlink:href="task_8hpp.html" target="_top" xlink:title=" ">
<polygon fill="none" stroke="black" points="511.5,-313.5 511.5,-332.5 632.5,-332.5 632.5,-313.5 511.5,-313.5"/>
<text text-anchor="middle" x="572" y="-320.5" font-family="Helvetica,sans-Serif" font-size="10.00">yaclib/executor/task.hpp</text>
</a>
</g>
</g>
<!-- Node3&#45;&gt;Node4 -->
<g id="edge4" class="edge">
<title>Node3&#45;&gt;Node4</title>
<path fill="none" stroke="midnightblue" d="M736.49,-374.98C703.13,-364.64 646.74,-347.16 609.44,-335.6"/>
<polygon fill="midnightblue" stroke="midnightblue" points="610.05,-332.13 599.46,-332.51 607.97,-338.81 610.05,-332.13"/>
</g>
<!-- Node16 -->
<g id="node16" class="node">
<title>Node16</title>
<g id="a_node16"><a xlink:href="intrusive__ptr_8hpp.html" target="_top" xlink:title=" ">
<polygon fill="none" stroke="black" points="600.5,-123.5 600.5,-153.5 697.5,-153.5 697.5,-123.5 600.5,-123.5"/>
<text text-anchor="start" x="608.5" y="-141.5" font-family="Helvetica,sans-Serif" font-size="10.00">yaclib/util/intrusive</text>
<text text-anchor="middle" x="649" y="-130.5" font-family="Helvetica,sans-Serif" font-size="10.00">_ptr.hpp</text>
</a>
</g>
</g>
<!-- Node3&#45;&gt;Node16 -->
<g id="edge38" class="edge">
<title>Node3&#45;&gt;Node16</title>
<path fill="none" stroke="midnightblue" d="M759.91,-374.82C743.86,-340.76 684.88,-215.62 660.09,-163.03"/>
<polygon fill="midnightblue" stroke="midnightblue" points="663.17,-161.36 655.74,-153.81 656.84,-164.34 663.17,-161.36"/>
</g>
<!-- Node4&#45;&gt;Node2 -->
<g id="edge5" class="edge">
<title>Node4&#45;&gt;Node2</title>
<path fill="none" stroke="midnightblue" d="M623.09,-313.47C712.98,-297 890,-257.41 890,-201 890,-201 890,-201 890,-137.5 890,-96.95 879.89,-82.27 849,-56 824.08,-34.81 789.16,-23.58 760.07,-17.64"/>
<polygon fill="midnightblue" stroke="midnightblue" points="760.52,-14.16 750.05,-15.75 759.23,-21.04 760.52,-14.16"/>
</g>
<!-- Node5 -->
<g id="node5" class="node">
<title>Node5</title>
<g id="a_node5"><a xlink:href="node_8hpp.html" target="_top" xlink:title=" ">
<polygon fill="none" stroke="black" points="345.5,-246.5 345.5,-276.5 428.5,-276.5 428.5,-246.5 345.5,-246.5"/>
<text text-anchor="start" x="353.5" y="-264.5" font-family="Helvetica,sans-Serif" font-size="10.00">yaclib/util/detail</text>
<text text-anchor="middle" x="387" y="-253.5" font-family="Helvetica,sans-Serif" font-size="10.00">/node.hpp</text>
</a>
</g>
</g>
<!-- Node4&#45;&gt;Node5 -->
<g id="edge6" class="edge">
<title>Node4&#45;&gt;Node5</title>
<path fill="none" stroke="midnightblue" d="M545.49,-313.48C517.64,-304.52 473.13,-290.2 438.36,-279.02"/>
<polygon fill="midnightblue" stroke="midnightblue" points="439.42,-275.68 428.83,-275.95 437.28,-282.35 439.42,-275.68"/>
</g>
<!-- Node6 -->
<g id="node6" class="node">
<title>Node6</title>
<g id="a_node6"><a xlink:href="func_8hpp.html" target="_top" xlink:title=" ">
<polygon fill="none" stroke="black" points="523.5,-252 523.5,-271 620.5,-271 620.5,-252 523.5,-252"/>
<text text-anchor="middle" x="572" y="-259" font-family="Helvetica,sans-Serif" font-size="10.00">yaclib/util/func.hpp</text>
</a>
</g>
</g>
<!-- Node4&#45;&gt;Node6 -->
<g id="edge8" class="edge">
<title>Node4&#45;&gt;Node6</title>
<path fill="none" stroke="midnightblue" d="M572,-313.48C572,-305.08 572,-291.98 572,-281.16"/>
<polygon fill="midnightblue" stroke="midnightblue" points="575.5,-281.01 572,-271.01 568.5,-281.01 575.5,-281.01"/>
</g>
<!-- Node5&#45;&gt;Node2 -->
<g id="edge7" class="edge">
<title>Node5&#45;&gt;Node2</title>
<path fill="none" stroke="midnightblue" d="M368.58,-246.29C358.34,-237.18 346.57,-224.38 341,-210 323.12,-163.81 270.1,-144.98 362,-56 406.8,-12.62 573.33,-27.96 651.76,-19.9"/>
<polygon fill="midnightblue" stroke="midnightblue" points="652.28,-23.36 661.78,-18.66 651.42,-16.41 652.28,-23.36"/>
</g>
<!-- Node6&#45;&gt;Node2 -->
<g id="edge9" class="edge">
<title>Node6&#45;&gt;Node2</title>
<path fill="none" stroke="midnightblue" d="M600.73,-251.9C657.88,-233 784.42,-181.82 832,-87 838.18,-74.69 839.94,-67.26 832,-56 815.69,-32.85 786.33,-21.54 760.06,-16.05"/>
<polygon fill="midnightblue" stroke="midnightblue" points="760.64,-12.6 750.17,-14.22 759.37,-19.48 760.64,-12.6"/>
</g>
<!-- Node7 -->
<g id="node7" class="node">
<title>Node7</title>
<g id="a_node7"><a xlink:href="safe__call_8hpp.html" target="_top" xlink:title=" ">
<polygon fill="none" stroke="black" points="460.5,-123.5 460.5,-153.5 543.5,-153.5 543.5,-123.5 460.5,-123.5"/>
<text text-anchor="start" x="468.5" y="-141.5" font-family="Helvetica,sans-Serif" font-size="10.00">yaclib/util/detail</text>
<text text-anchor="middle" x="502" y="-130.5" font-family="Helvetica,sans-Serif" font-size="10.00">/safe_call.hpp</text>
</a>
</g>
</g>
<!-- Node6&#45;&gt;Node7 -->
<g id="edge10" class="edge">
<title>Node6&#45;&gt;Node7</title>
<path fill="none" stroke="midnightblue" d="M566.97,-251.8C556.25,-233.28 530.9,-189.46 515.22,-162.36"/>
<polygon fill="midnightblue" stroke="midnightblue" points="518.16,-160.44 510.12,-153.54 512.1,-163.95 518.16,-160.44"/>
</g>
<!-- Node8 -->
<g id="node8" class="node">
<title>Node8</title>
<g id="a_node8"><a xlink:title=" ">
<polygon fill="none" stroke="#bfbfbf" points="484,-62 484,-81 546,-81 546,-62 484,-62"/>
<text text-anchor="middle" x="515" y="-69" font-family="Helvetica,sans-Serif" font-size="10.00">type_traits</text>
</a>
</g>
</g>
<!-- Node6&#45;&gt;Node8 -->
<g id="edge36" class="edge">
<title>Node6&#45;&gt;Node8</title>
<path fill="none" stroke="midnightblue" d="M572.16,-251.75C572.29,-229.41 570.73,-168.77 552,-123 546.9,-110.52 538.05,-98.28 530.29,-88.98"/>
<polygon fill="midnightblue" stroke="midnightblue" points="532.82,-86.56 523.61,-81.33 527.55,-91.17 532.82,-86.56"/>
</g>
<!-- Node9 -->
<g id="node9" class="node">
<title>Node9</title>
<g id="a_node9"><a xlink:title=" ">
<polygon fill="none" stroke="#bfbfbf" points="388.5,-62 388.5,-81 427.5,-81 427.5,-62 388.5,-62"/>
<text text-anchor="middle" x="408" y="-69" font-family="Helvetica,sans-Serif" font-size="10.00">utility</text>
</a>
</g>
</g>
<!-- Node6&#45;&gt;Node9 -->
<g id="edge37" class="edge">
<title>Node6&#45;&gt;Node9</title>
<path fill="none" stroke="midnightblue" d="M559.33,-251.77C535.69,-235.01 484.25,-196.21 451,-154 435.42,-134.23 422.75,-107.97 415.3,-90.67"/>
<polygon fill="midnightblue" stroke="midnightblue" points="418.43,-89.08 411.35,-81.2 411.96,-91.77 418.43,-89.08"/>
</g>
<!-- Node10 -->
<g id="node10" class="node">
<title>Node10</title>
<g id="a_node10"><a xlink:href="helper_8hpp.html" target="_top" xlink:title=" ">
<polygon fill="none" stroke="black" points="350,-190.5 350,-209.5 454,-209.5 454,-190.5 350,-190.5"/>
<text text-anchor="middle" x="402" y="-197.5" font-family="Helvetica,sans-Serif" font-size="10.00">yaclib/util/helper.hpp</text>
</a>
</g>
</g>
<!-- Node6&#45;&gt;Node10 -->
<g id="edge14" class="edge">
<title>Node6&#45;&gt;Node10</title>
<path fill="none" stroke="midnightblue" d="M547.64,-251.98C518.36,-241.72 469.03,-224.46 436,-212.9"/>
<polygon fill="midnightblue" stroke="midnightblue" points="436.91,-209.51 426.31,-209.51 434.59,-216.12 436.91,-209.51"/>
</g>
<!-- Node6&#45;&gt;Node16 -->
<g id="edge34" class="edge">
<title>Node6&#45;&gt;Node16</title>
<path fill="none" stroke="midnightblue" d="M577.54,-251.8C589.37,-233.2 617.45,-189.08 634.68,-162"/>
<polygon fill="midnightblue" stroke="midnightblue" points="637.65,-163.85 640.07,-153.54 631.74,-160.1 637.65,-163.85"/>
</g>
<!-- Node17 -->
<g id="node17" class="node">
<title>Node17</title>
<g id="a_node17"><a xlink:href="ref_8hpp.html" target="_top" xlink:title=" ">
<polygon fill="none" stroke="black" points="734.5,-62 734.5,-81 823.5,-81 823.5,-62 734.5,-62"/>
<text text-anchor="middle" x="779" y="-69" font-family="Helvetica,sans-Serif" font-size="10.00">yaclib/util/ref.hpp</text>
</a>
</g>
</g>
<!-- Node6&#45;&gt;Node17 -->
<g id="edge35" class="edge">
<title>Node6&#45;&gt;Node17</title>
<path fill="none" stroke="midnightblue" d="M584.39,-251.74C608.73,-234.32 664.05,-193.55 706,-154 728.36,-132.92 751.62,-105.93 765.7,-88.92"/>
<polygon fill="midnightblue" stroke="midnightblue" points="768.55,-90.97 772.18,-81.02 763.13,-86.54 768.55,-90.97"/>
</g>
<!-- Node7&#45;&gt;Node2 -->
<g id="edge11" class="edge">
<title>Node7&#45;&gt;Node2</title>
<path fill="none" stroke="midnightblue" d="M489.92,-123.32C476.49,-105.77 458.7,-75.79 475,-56 477.84,-52.56 584.47,-32.84 651.85,-20.67"/>
<polygon fill="midnightblue" stroke="midnightblue" points="652.68,-24.08 661.9,-18.86 651.44,-17.19 652.68,-24.08"/>
</g>
<!-- Node7&#45;&gt;Node8 -->
<g id="edge12" class="edge">
<title>Node7&#45;&gt;Node8</title>
<path fill="none" stroke="midnightblue" d="M504.82,-123.4C506.71,-113.96 509.21,-101.45 511.26,-91.19"/>
<polygon fill="midnightblue" stroke="midnightblue" points="514.73,-91.69 513.26,-81.19 507.87,-90.31 514.73,-91.69"/>
</g>
<!-- Node7&#45;&gt;Node9 -->
<g id="edge13" class="edge">
<title>Node7&#45;&gt;Node9</title>
<path fill="none" stroke="midnightblue" d="M481.6,-123.4C465.99,-112.6 444.52,-97.76 428.81,-86.89"/>
<polygon fill="midnightblue" stroke="midnightblue" points="430.52,-83.82 420.3,-81.01 426.54,-89.57 430.52,-83.82"/>
</g>
<!-- Node10&#45;&gt;Node2 -->
<g id="edge15" class="edge">
<title>Node10&#45;&gt;Node2</title>
<path fill="none" stroke="midnightblue" d="M396.45,-190.3C381.6,-165.82 344.34,-95.51 379,-56 417.68,-11.91 577.02,-27.54 651.8,-19.88"/>
<polygon fill="midnightblue" stroke="midnightblue" points="652.28,-23.35 661.77,-18.64 651.42,-16.4 652.28,-23.35"/>
</g>
<!-- Node11 -->
<g id="node11" class="node">
<title>Node11</title>
<g id="a_node11"><a xlink:href="atomic_8hpp.html" target="_top" xlink:title=" ">
<polygon fill="none" stroke="black" points="104.5,-62 104.5,-81 217.5,-81 217.5,-62 104.5,-62"/>
<text text-anchor="middle" x="161" y="-69" font-family="Helvetica,sans-Serif" font-size="10.00">yaclib/fault/atomic.hpp</text>
</a>
</g>
</g>
<!-- Node10&#45;&gt;Node11 -->
<g id="edge16" class="edge">
<title>Node10&#45;&gt;Node11</title>
<path fill="none" stroke="midnightblue" d="M349.76,-194.76C292.22,-189.01 204.68,-176.76 181,-154 164.12,-137.78 160.55,-109.82 160.23,-91.24"/>
<polygon fill="midnightblue" stroke="midnightblue" points="163.74,-91.12 160.37,-81.08 156.74,-91.03 163.74,-91.12"/>
</g>
<!-- Node15 -->
<g id="node15" class="node">
<title>Node15</title>
<g id="a_node15"><a xlink:href="atomic__counter_8hpp.html" target="_top" xlink:title=" ">
<polygon fill="none" stroke="black" points="190,-123.5 190,-153.5 294,-153.5 294,-123.5 190,-123.5"/>
<text text-anchor="start" x="198" y="-141.5" font-family="Helvetica,sans-Serif" font-size="10.00">yaclib/util/detail</text>
<text text-anchor="middle" x="242" y="-130.5" font-family="Helvetica,sans-Serif" font-size="10.00">/atomic_counter.hpp</text>
</a>
</g>
</g>
<!-- Node10&#45;&gt;Node15 -->
<g id="edge21" class="edge">
<title>Node10&#45;&gt;Node15</title>
<path fill="none" stroke="midnightblue" d="M379.08,-190.48C355.79,-181.81 319.03,-168.15 289.44,-157.14"/>
<polygon fill="midnightblue" stroke="midnightblue" points="290.3,-153.73 279.71,-153.52 287.86,-160.29 290.3,-153.73"/>
</g>
<!-- Node10&#45;&gt;Node16 -->
<g id="edge26" class="edge">
<title>Node10&#45;&gt;Node16</title>
<path fill="none" stroke="midnightblue" d="M437.39,-190.48C477.24,-180.88 542.63,-165.12 590.19,-153.67"/>
<polygon fill="midnightblue" stroke="midnightblue" points="591.15,-157.04 600.05,-151.29 589.51,-150.23 591.15,-157.04"/>
</g>
<!-- Node11&#45;&gt;Node2 -->
<g id="edge17" class="edge">
<title>Node11&#45;&gt;Node2</title>
<path fill="none" stroke="midnightblue" d="M198.81,-61.93C209.5,-59.74 221.17,-57.56 232,-56 414.6,-29.64 464.95,-43.24 651.64,-20.07"/>
<polygon fill="midnightblue" stroke="midnightblue" points="652.31,-23.51 661.79,-18.79 651.44,-16.57 652.31,-23.51"/>
</g>
<!-- Node11&#45;&gt;Node12 -->
<g id="edge18" class="edge">
<title>Node11&#45;&gt;Node12</title>
<path fill="none" stroke="midnightblue" d="M146.1,-61.98C129.03,-52.21 100.84,-36.08 80.74,-24.58"/>
<polygon fill="midnightblue" stroke="midnightblue" points="82.29,-21.44 71.87,-19.51 78.81,-27.51 82.29,-21.44"/>
</g>
<!-- Node13 -->
<g id="node13" class="node">
<title>Node13</title>
<g id="a_node13"><a xlink:title=" ">
<polygon fill="none" stroke="#bfbfbf" points="183,-0.5 183,-19.5 229,-19.5 229,-0.5 183,-0.5"/>
<text text-anchor="middle" x="206" y="-7.5" font-family="Helvetica,sans-Serif" font-size="10.00">cstdint</text>
</a>
</g>
</g>
<!-- Node11&#45;&gt;Node13 -->
<g id="edge19" class="edge">
<title>Node11&#45;&gt;Node13</title>
<path fill="none" stroke="midnightblue" d="M167.45,-61.98C174.2,-53.05 184.97,-38.81 193.41,-27.64"/>
<polygon fill="midnightblue" stroke="midnightblue" points="196.32,-29.6 199.56,-19.51 190.74,-25.37 196.32,-29.6"/>
</g>
<!-- Node14 -->
<g id="node14" class="node">
<title>Node14</title>
<g id="a_node14"><a xlink:title=" ">
<polygon fill="none" stroke="#bfbfbf" points="119,-0.5 119,-19.5 165,-19.5 165,-0.5 119,-0.5"/>
<text text-anchor="middle" x="142" y="-7.5" font-family="Helvetica,sans-Serif" font-size="10.00">atomic</text>
</a>
</g>
</g>
<!-- Node11&#45;&gt;Node14 -->
<g id="edge20" class="edge">
<title>Node11&#45;&gt;Node14</title>
<path fill="none" stroke="midnightblue" d="M158.28,-61.98C155.57,-53.49 151.33,-40.2 147.85,-29.32"/>
<polygon fill="midnightblue" stroke="midnightblue" points="151.09,-27.97 144.72,-19.51 144.43,-30.1 151.09,-27.97"/>
</g>
<!-- Node15&#45;&gt;Node2 -->
<g id="edge22" class="edge">
<title>Node15&#45;&gt;Node2</title>
<path fill="none" stroke="midnightblue" d="M248.88,-123.4C258.97,-104.44 279.67,-71.37 308,-56 373.24,-20.61 561.9,-29.69 651.84,-19.94"/>
<polygon fill="midnightblue" stroke="midnightblue" points="652.28,-23.41 661.79,-18.73 651.44,-16.46 652.28,-23.41"/>
</g>
<!-- Node15&#45;&gt;Node9 -->
<g id="edge25" class="edge">
<title>Node15&#45;&gt;Node9</title>
<path fill="none" stroke="midnightblue" d="M278.02,-123.4C308.08,-111.62 350.41,-95.05 378.49,-84.05"/>
<polygon fill="midnightblue" stroke="midnightblue" points="380.11,-87.18 388.15,-80.27 377.56,-80.66 380.11,-87.18"/>
</g>
<!-- Node15&#45;&gt;Node11 -->
<g id="edge23" class="edge">
<title>Node15&#45;&gt;Node11</title>
<path fill="none" stroke="midnightblue" d="M224.42,-123.4C211.29,-112.86 193.37,-98.48 179.93,-87.69"/>
<polygon fill="midnightblue" stroke="midnightblue" points="181.82,-84.72 171.83,-81.19 177.44,-90.18 181.82,-84.72"/>
</g>
<!-- Node15&#45;&gt;Node12 -->
<g id="edge24" class="edge">
<title>Node15&#45;&gt;Node12</title>
<path fill="none" stroke="midnightblue" d="M189.76,-129.71C159.18,-122.86 121.5,-110.19 95,-87 77.61,-71.78 67.27,-46.72 61.87,-29.57"/>
<polygon fill="midnightblue" stroke="midnightblue" points="65.13,-28.26 59,-19.62 58.41,-30.2 65.13,-28.26"/>
</g>
<!-- Node16&#45;&gt;Node2 -->
<g id="edge27" class="edge">
<title>Node16&#45;&gt;Node2</title>
<path fill="none" stroke="midnightblue" d="M661.99,-123.49C670.25,-113.88 680.58,-100.47 687,-87 695.76,-68.63 700.77,-45.76 703.42,-29.93"/>
<polygon fill="midnightblue" stroke="midnightblue" points="706.92,-30.23 704.96,-19.82 700,-29.18 706.92,-30.23"/>
</g>
<!-- Node16&#45;&gt;Node8 -->
<g id="edge30" class="edge">
<title>Node16&#45;&gt;Node8</title>
<path fill="none" stroke="midnightblue" d="M619.92,-123.4C596.62,-112.09 564.19,-96.36 541.57,-85.39"/>
<polygon fill="midnightblue" stroke="midnightblue" points="543.06,-82.22 532.54,-81.01 540.01,-88.52 543.06,-82.22"/>
</g>
<!-- Node16&#45;&gt;Node17 -->
<g id="edge28" class="edge">
<title>Node16&#45;&gt;Node17</title>
<path fill="none" stroke="midnightblue" d="M677.21,-123.4C699.72,-112.14 731,-96.5 752.92,-85.54"/>
<polygon fill="midnightblue" stroke="midnightblue" points="754.61,-88.61 761.99,-81.01 751.48,-82.35 754.61,-88.61"/>
</g>
<!-- Node18 -->
<g id="node18" class="node">
<title>Node18</title>
<g id="a_node18"><a xlink:href="intrusive__ptr__impl_8hpp.html" target="_top" xlink:title=" ">
<polygon fill="none" stroke="black" points="564,-56.5 564,-86.5 678,-86.5 678,-56.5 564,-56.5"/>
<text text-anchor="start" x="572" y="-74.5" font-family="Helvetica,sans-Serif" font-size="10.00">yaclib/util/detail</text>
<text text-anchor="middle" x="621" y="-63.5" font-family="Helvetica,sans-Serif" font-size="10.00">/intrusive_ptr_impl.hpp</text>
</a>
</g>
</g>
<!-- Node16&#45;&gt;Node18 -->
<g id="edge31" class="edge">
<title>Node16&#45;&gt;Node18</title>
<path fill="none" stroke="midnightblue" d="M642.92,-123.4C639.48,-115.39 635.07,-105.16 631.11,-95.98"/>
<polygon fill="midnightblue" stroke="midnightblue" points="634.23,-94.38 627.06,-86.58 627.81,-97.15 634.23,-94.38"/>
</g>
<!-- Node17&#45;&gt;Node2 -->
<g id="edge29" class="edge">
<title>Node17&#45;&gt;Node2</title>
<path fill="none" stroke="midnightblue" d="M768.54,-61.98C757.05,-52.61 738.37,-37.38 724.41,-26.01"/>
<polygon fill="midnightblue" stroke="midnightblue" points="726.4,-23.11 716.44,-19.51 721.98,-28.54 726.4,-23.11"/>
</g>
<!-- Node18&#45;&gt;Node2 -->
<g id="edge32" class="edge">
<title>Node18&#45;&gt;Node2</title>
<path fill="none" stroke="midnightblue" d="M641.14,-56.4C654.39,-47.13 671.68,-35.03 685.08,-25.65"/>
<polygon fill="midnightblue" stroke="midnightblue" points="687.45,-28.26 693.63,-19.66 683.43,-22.53 687.45,-28.26"/>
</g>
<!-- Node19 -->
<g id="node19" class="node">
<title>Node19</title>
<g id="a_node19"><a xlink:title=" ">
<polygon fill="none" stroke="#bfbfbf" points="595.5,-0.5 595.5,-19.5 644.5,-19.5 644.5,-0.5 595.5,-0.5"/>
<text text-anchor="middle" x="620" y="-7.5" font-family="Helvetica,sans-Serif" font-size="10.00">cassert</text>
</a>
</g>
</g>
<!-- Node18&#45;&gt;Node19 -->
<g id="edge33" class="edge">
<title>Node18&#45;&gt;Node19</title>
<path fill="none" stroke="midnightblue" d="M620.76,-56.4C620.63,-48.47 620.46,-38.46 620.32,-29.86"/>
<polygon fill="midnightblue" stroke="midnightblue" points="623.81,-29.6 620.15,-19.66 616.81,-29.72 623.81,-29.6"/>
</g>
<!-- Node20&#45;&gt;Node2 -->
<g id="edge40" class="edge">
<title>Node20&#45;&gt;Node2</title>
<path fill="none" stroke="midnightblue" d="M301.49,-378.74C232.57,-369.44 124,-342.15 124,-262.5 124,-262.5 124,-262.5 124,-199 124,-156.78 151.17,-152.88 181,-123 185.37,-118.62 264.23,-58.24 270,-56 426.4,4.57 481.39,-40.54 651.74,-20.03"/>
<polygon fill="midnightblue" stroke="midnightblue" points="652.31,-23.49 661.79,-18.76 651.43,-16.54 652.31,-23.49"/>
</g>
<!-- Node20&#45;&gt;Node4 -->
<g id="edge41" class="edge">
<title>Node20&#45;&gt;Node4</title>
<path fill="none" stroke="midnightblue" d="M407.68,-369.47C445.42,-359.03 496.27,-344.96 531.36,-335.25"/>
<polygon fill="midnightblue" stroke="midnightblue" points="532.56,-338.55 541.26,-332.51 530.69,-331.8 532.56,-338.55"/>
</g>
<!-- Node20&#45;&gt;Node5 -->
<g id="edge42" class="edge">
<title>Node20&#45;&gt;Node5</title>
<path fill="none" stroke="midnightblue" d="M360.56,-369.14C365.59,-348.86 374.84,-311.53 380.96,-286.86"/>
<polygon fill="midnightblue" stroke="midnightblue" points="384.44,-287.39 383.45,-276.84 377.64,-285.7 384.44,-287.39"/>
</g>
<!-- Node20&#45;&gt;Node12 -->
<g id="edge43" class="edge">
<title>Node20&#45;&gt;Node12</title>
<path fill="none" stroke="midnightblue" d="M301.48,-381.11C249.33,-376.85 170.49,-365.13 110,-333 70.45,-311.99 38,-307.29 38,-262.5 38,-262.5 38,-262.5 38,-137.5 38,-98.77 46.82,-54.11 52.44,-29.57"/>
<polygon fill="midnightblue" stroke="midnightblue" points="55.92,-30.06 54.82,-19.52 49.11,-28.44 55.92,-30.06"/>
</g>
<!-- Node21 -->
<g id="node21" class="node">
<title>Node21</title>
<g id="a_node21"><a xlink:title=" ">
<polygon fill="none" stroke="#bfbfbf" points="293,-313.5 293,-332.5 359,-332.5 359,-313.5 293,-313.5"/>
<text text-anchor="middle" x="326" y="-320.5" font-family="Helvetica,sans-Serif" font-size="10.00">string_view</text>
</a>
</g>
</g>
<!-- Node20&#45;&gt;Node21 -->
<g id="edge44" class="edge">
<title>Node20&#45;&gt;Node21</title>
<path fill="none" stroke="midnightblue" d="M349.65,-369.4C345.33,-361.11 339.83,-350.55 335.23,-341.71"/>
<polygon fill="midnightblue" stroke="midnightblue" points="338.24,-339.91 330.51,-332.66 332.03,-343.14 338.24,-339.91"/>
</g>
<!-- Node22&#45;&gt;Node2 -->
<g id="edge46" class="edge">
<title>Node22&#45;&gt;Node2</title>
<path fill="none" stroke="midnightblue" d="M1047.17,-128.86C1037.13,-111.78 1012.22,-73.81 980,-56 943.18,-35.65 829.2,-22.13 760.39,-15.59"/>
<polygon fill="midnightblue" stroke="midnightblue" points="760.45,-12.08 750.17,-14.63 759.8,-19.05 760.45,-12.08"/>
</g>
<!-- Node23 -->
<g id="node23" class="node">
<title>Node23</title>
<g id="a_node23"><a xlink:href="chrono_8hpp.html" target="_top" xlink:title=" ">
<polygon fill="none" stroke="black" points="1094.5,-62 1094.5,-81 1207.5,-81 1207.5,-62 1094.5,-62"/>
<text text-anchor="middle" x="1151" y="-69" font-family="Helvetica,sans-Serif" font-size="10.00">yaclib/fault/chrono.hpp</text>
</a>
</g>
</g>
<!-- Node22&#45;&gt;Node23 -->
<g id="edge47" class="edge">
<title>Node22&#45;&gt;Node23</title>
<path fill="none" stroke="midnightblue" d="M1065.35,-128.73C1081.75,-117.96 1109.8,-99.55 1129.31,-86.74"/>
<polygon fill="midnightblue" stroke="midnightblue" points="1131.42,-89.54 1137.86,-81.13 1127.58,-83.69 1131.42,-89.54"/>
</g>
<!-- Node25 -->
<g id="node25" class="node">
<title>Node25</title>
<g id="a_node25"><a xlink:title=" ">
<polygon fill="none" stroke="#bfbfbf" points="1032,-62 1032,-81 1076,-81 1076,-62 1032,-62"/>
<text text-anchor="middle" x="1054" y="-69" font-family="Helvetica,sans-Serif" font-size="10.00">thread</text>
</a>
</g>
</g>
<!-- Node22&#45;&gt;Node25 -->
<g id="edge50" class="edge">
<title>Node22&#45;&gt;Node25</title>
<path fill="none" stroke="midnightblue" d="M1052.27,-128.73C1052.56,-119.18 1053.04,-103.62 1053.42,-91.28"/>
<polygon fill="midnightblue" stroke="midnightblue" points="1056.93,-91.23 1053.73,-81.13 1049.93,-91.01 1056.93,-91.23"/>
</g>
<!-- Node23&#45;&gt;Node2 -->
<g id="edge48" class="edge">
<title>Node23&#45;&gt;Node2</title>
<path fill="none" stroke="midnightblue" d="M1115.16,-61.96C1105.41,-59.82 1094.83,-57.66 1085,-56 970.03,-36.59 834.03,-22.6 760.25,-15.75"/>
<polygon fill="midnightblue" stroke="midnightblue" points="760.54,-12.27 750.26,-14.83 759.89,-19.24 760.54,-12.27"/>
</g>
<!-- Node24 -->
<g id="node24" class="node">
<title>Node24</title>
<g id="a_node24"><a xlink:title=" ">
<polygon fill="none" stroke="#bfbfbf" points="1128,-0.5 1128,-19.5 1174,-19.5 1174,-0.5 1128,-0.5"/>
<text text-anchor="middle" x="1151" y="-7.5" font-family="Helvetica,sans-Serif" font-size="10.00">chrono</text>
</a>
</g>
</g>
<!-- Node23&#45;&gt;Node24 -->
<g id="edge49" class="edge">
<title>Node23&#45;&gt;Node24</title>
<path fill="none" stroke="midnightblue" d="M1151,-61.98C1151,-53.58 1151,-40.48 1151,-29.66"/>
<polygon fill="midnightblue" stroke="midnightblue" points="1154.5,-29.51 1151,-19.51 1147.5,-29.51 1154.5,-29.51"/>
</g>
</g>
</svg>
