<?xml version="1.0" encoding="UTF-8" standalone="no"?>
<!DOCTYPE svg PUBLIC "-//W3C//DTD SVG 1.1//EN"
 "http://www.w3.org/Graphics/SVG/1.1/DTD/svg11.dtd">
<!-- Generated by graphviz version 2.50.0 (20220203.2022)
 -->
<!-- Title: include/yaclib/executor/thread_pool.hpp Pages: 1 -->
<svg width="726pt" height="106pt"
 viewBox="0.00 0.00 726.00 106.00" xmlns="http://www.w3.org/2000/svg" xmlns:xlink="http://www.w3.org/1999/xlink">
<g id="graph0" class="graph" transform="scale(1 1) rotate(0) translate(4 102)">
<title>include/yaclib/executor/thread_pool.hpp</title>
<!-- Node1 -->
<g id="node1" class="node">
<title>Node1</title>
<g id="a_node1"><a xlink:title=" ">
<polygon fill="#bfbfbf" stroke="black" points="289.5,-67.5 289.5,-97.5 404.5,-97.5 404.5,-67.5 289.5,-67.5"/>
<text text-anchor="start" x="297.5" y="-85.5" font-family="Helvetica,sans-Serif" font-size="10.00">include/yaclib/executor</text>
<text text-anchor="middle" x="347" y="-74.5" font-family="Helvetica,sans-Serif" font-size="10.00">/thread_pool.hpp</text>
</a>
</g>
</g>
<!-- Node2 -->
<g id="node2" class="node">
<title>Node2</title>
<g id="a_node2"><a xlink:href="src_2executor_2thread__pool_8cpp.html" target="_top" xlink:title=" ">
<polygon fill="none" stroke="black" points="0,-0.5 0,-30.5 100,-30.5 100,-0.5 0,-0.5"/>
<text text-anchor="start" x="8" y="-18.5" font-family="Helvetica,sans-Serif" font-size="10.00">src/executor/thread</text>
<text text-anchor="middle" x="50" y="-7.5" font-family="Helvetica,sans-Serif" font-size="10.00">_pool.cpp</text>
</a>
</g>
</g>
<!-- Node1&#45;&gt;Node2 -->
<g id="edge1" class="edge">
<title>Node1&#45;&gt;Node2</title>
<path fill="none" stroke="midnightblue" d="M279.27,-67.73C231.58,-57.88 166.28,-44.11 109,-31 106.12,-30.34 103.17,-29.65 100.19,-28.95"/>
<polygon fill="midnightblue" stroke="midnightblue" points="278.67,-71.18 289.18,-69.77 280.09,-64.32 278.67,-71.18"/>
</g>
<!-- Node3 -->
<g id="node3" class="node">
<title>Node3</title>
<g id="a_node3"><a xlink:href="simple_8cpp.html" target="_top" xlink:title=" ">
<polygon fill="none" stroke="black" points="118.5,-0.5 118.5,-30.5 219.5,-30.5 219.5,-0.5 118.5,-0.5"/>
<text text-anchor="start" x="126.5" y="-18.5" font-family="Helvetica,sans-Serif" font-size="10.00">test/example/async</text>
<text text-anchor="middle" x="169" y="-7.5" font-family="Helvetica,sans-Serif" font-size="10.00">/simple.cpp</text>
</a>
</g>
</g>
<!-- Node1&#45;&gt;Node3 -->
<g id="edge2" class="edge">
<title>Node1&#45;&gt;Node3</title>
<path fill="none" stroke="midnightblue" d="M298.95,-63.96C270.28,-53.48 234.36,-40.37 207.55,-30.58"/>
<polygon fill="midnightblue" stroke="midnightblue" points="297.78,-67.25 308.38,-67.4 300.18,-60.68 297.78,-67.25"/>
</g>
<!-- Node4 -->
<g id="node4" class="node">
<title>Node4</title>
<g id="a_node4"><a xlink:href="when__all_8cpp.html" target="_top" xlink:title=" ">
<polygon fill="none" stroke="black" points="237.5,-0.5 237.5,-30.5 338.5,-30.5 338.5,-0.5 237.5,-0.5"/>
<text text-anchor="start" x="245.5" y="-18.5" font-family="Helvetica,sans-Serif" font-size="10.00">test/example/async</text>
<text text-anchor="middle" x="288" y="-7.5" font-family="Helvetica,sans-Serif" font-size="10.00">/when_all.cpp</text>
</a>
</g>
</g>
<!-- Node1&#45;&gt;Node4 -->
<g id="edge3" class="edge">
<title>Node1&#45;&gt;Node4</title>
<path fill="none" stroke="midnightblue" d="M327.25,-59.74C318.52,-50.12 308.5,-39.09 300.78,-30.58"/>
<polygon fill="midnightblue" stroke="midnightblue" points="324.89,-62.34 334.2,-67.4 330.07,-57.64 324.89,-62.34"/>
</g>
<!-- Node5 -->
<g id="node5" class="node">
<title>Node5</title>
<g id="a_node5"><a xlink:href="when__any_8cpp.html" target="_top" xlink:title=" ">
<polygon fill="none" stroke="black" points="356.5,-0.5 356.5,-30.5 457.5,-30.5 457.5,-0.5 356.5,-0.5"/>
<text text-anchor="start" x="364.5" y="-18.5" font-family="Helvetica,sans-Serif" font-size="10.00">test/example/async</text>
<text text-anchor="middle" x="407" y="-7.5" font-family="Helvetica,sans-Serif" font-size="10.00">/when_any.cpp</text>
</a>
</g>
</g>
<!-- Node1&#45;&gt;Node5 -->
<g id="edge4" class="edge">
<title>Node1&#45;&gt;Node5</title>
<path fill="none" stroke="midnightblue" d="M366.82,-60.02C375.76,-50.34 386.07,-39.17 394.01,-30.58"/>
<polygon fill="midnightblue" stroke="midnightblue" points="364.23,-57.67 360.02,-67.4 369.37,-62.42 364.23,-57.67"/>
</g>
<!-- Node6 -->
<g id="node6" class="node">
<title>Node6</title>
<g id="a_node6"><a xlink:href="test_2example_2executor_2strand_8cpp.html" target="_top" xlink:title=" ">
<polygon fill="none" stroke="black" points="476,-0.5 476,-30.5 588,-30.5 588,-0.5 476,-0.5"/>
<text text-anchor="start" x="484" y="-18.5" font-family="Helvetica,sans-Serif" font-size="10.00">test/example/executor</text>
<text text-anchor="middle" x="532" y="-7.5" font-family="Helvetica,sans-Serif" font-size="10.00">/strand.cpp</text>
</a>
</g>
</g>
<!-- Node1&#45;&gt;Node6 -->
<g id="edge5" class="edge">
<title>Node1&#45;&gt;Node6</title>
<path fill="none" stroke="midnightblue" d="M396.94,-63.96C426.74,-53.48 464.07,-40.37 491.94,-30.58"/>
<polygon fill="midnightblue" stroke="midnightblue" points="395.42,-60.78 387.14,-67.4 397.74,-67.38 395.42,-60.78"/>
</g>
<!-- Node7 -->
<g id="node7" class="node">
<title>Node7</title>
<g id="a_node7"><a xlink:href="test_2example_2executor_2thread__pool_8cpp.html" target="_top" xlink:title=" ">
<polygon fill="none" stroke="black" points="606,-0.5 606,-30.5 718,-30.5 718,-0.5 606,-0.5"/>
<text text-anchor="start" x="614" y="-18.5" font-family="Helvetica,sans-Serif" font-size="10.00">test/example/executor</text>
<text text-anchor="middle" x="662" y="-7.5" font-family="Helvetica,sans-Serif" font-size="10.00">/thread_pool.cpp</text>
</a>
</g>
</g>
<!-- Node1&#45;&gt;Node7 -->
<g id="edge6" class="edge">
<title>Node1&#45;&gt;Node7</title>
<path fill="none" stroke="midnightblue" d="M414.77,-68.19C465.1,-58.22 535.41,-44.09 597,-31 599.94,-30.38 602.95,-29.73 606,-29.07"/>
<polygon fill="midnightblue" stroke="midnightblue" points="413.79,-64.82 404.66,-70.2 415.15,-71.69 413.79,-64.82"/>
</g>
</g>
</svg>
