<?xml version="1.0" encoding="UTF-8" standalone="no"?>
<!DOCTYPE svg PUBLIC "-//W3C//DTD SVG 1.1//EN"
 "http://www.w3.org/Graphics/SVG/1.1/DTD/svg11.dtd">
<!-- Generated by graphviz version 2.50.0 (20220203.2022)
 -->
<!-- Title: src/executor/thread_factory.cpp Pages: 1 -->
<!--zoomable 542 -->
<svg id="main" version="1.1" xmlns="http://www.w3.org/2000/svg" xmlns:xlink="http://www.w3.org/1999/xlink" xml:space="preserve" onload="init(evt)">
<style type="text/css"><![CDATA[
.edge:hover path { stroke: red; }
.edge:hover polygon { stroke: red; fill: red; }
]]></style>
<script type="text/javascript"><![CDATA[
var edges = document.getElementsByTagName('g');
if (edges && edges.length) {
  for (var i=0;i<edges.length;i++) {
    if (edges[i].id.substr(0,4)=='edge') {
      edges[i].setAttribute('class','edge');
    }
  }
}
]]></script>
        <defs>
                <circle id="rim" cx="0" cy="0" r="7"/>
                <circle id="rim2" cx="0" cy="0" r="3.5"/>
                <g id="zoomPlus">
                        <use xlink:href="#rim" fill="#404040">
                                <set attributeName="fill" to="#808080" begin="zoomplus.mouseover" end="zoomplus.mouseout"/>
                        </use>
                        <path d="M-4,0h8M0,-4v8" fill="none" stroke="white" stroke-width="1.5" pointer-events="none"/>
                </g>
                <g id="zoomMin">
                        <use xlink:href="#rim" fill="#404040">
                                <set attributeName="fill" to="#808080" begin="zoomminus.mouseover" end="zoomminus.mouseout"/>
                        </use>
                        <path d="M-4,0h8" fill="none" stroke="white" stroke-width="1.5" pointer-events="none"/>
                </g>
                <g id="dirArrow">
                        <path fill="none" stroke="white" stroke-width="1.5" d="M0,-3.0v7 M-2.5,-0.5L0,-3.0L2.5,-0.5"/>
                </g>
               <g id="resetDef">
                       <use xlink:href="#rim2" fill="#404040">
                               <set attributeName="fill" to="#808080" begin="reset.mouseover" end="reset.mouseout"/>
                       </use>
               </g>
        </defs>

<script type="text/javascript">
var viewWidth = 1409;
var viewHeight = 542;
var sectionId = 'dynsection-0';
</script>
<script xlink:href="svgpan.js"/>
<svg id="graph" class="graph">
<g id="viewport">
<title>src/executor/thread_factory.cpp</title>
<!-- Node1 -->
<g id="node1" class="node">
<title>Node1</title>
<g id="a_node1"><a xlink:title=" ">
<polygon fill="#bfbfbf" stroke="black" points="651,-503.5 651,-533.5 751,-533.5 751,-503.5 651,-503.5"/>
<text text-anchor="start" x="659" y="-521.5" font-family="Helvetica,sans-Serif" font-size="10.00">src/executor/thread</text>
<text text-anchor="middle" x="701" y="-510.5" font-family="Helvetica,sans-Serif" font-size="10.00">_factory.cpp</text>
</a>
</g>
</g>
<!-- Node2 -->
<g id="node2" class="node">
<title>Node2</title>
<g id="a_node2"><a xlink:href="intrusive__list_8hpp.html" target="_top" xlink:title=" ">
<polygon fill="none" stroke="black" points="149.5,-442 149.5,-461 254.5,-461 254.5,-442 149.5,-442"/>
<text text-anchor="middle" x="202" y="-449" font-family="Helvetica,sans-Serif" font-size="10.00">util/intrusive_list.hpp</text>
</a>
</g>
</g>
<!-- Node1&#45;&gt;Node2 -->
<g id="edge1" class="edge">
<title>Node1&#45;&gt;Node2</title>
<path fill="none" stroke="midnightblue" d="M650.87,-510.97C559.24,-499.03 364.93,-473.72 264.7,-460.67"/>
<polygon fill="midnightblue" stroke="midnightblue" points="265.09,-457.19 254.72,-459.37 264.18,-464.13 265.09,-457.19"/>
</g>
<!-- Node3 -->
<g id="node3" class="node">
<title>Node3</title>
<g id="a_node3"><a xlink:title=" ">
<polygon fill="none" stroke="#bfbfbf" points="747,-0.5 747,-19.5 835,-19.5 835,-0.5 747,-0.5"/>
<text text-anchor="middle" x="791" y="-7.5" font-family="Helvetica,sans-Serif" font-size="10.00">yaclib/config.hpp</text>
</a>
</g>
</g>
<!-- Node1&#45;&gt;Node3 -->
<g id="edge45" class="edge">
<title>Node1&#45;&gt;Node3</title>
<path fill="none" stroke="midnightblue" d="M751.29,-515.92C877.12,-511.51 1198.13,-497.39 1235,-467 1264.14,-442.98 1259,-423.26 1259,-385.5 1259,-385.5 1259,-385.5 1259,-137.5 1259,-83.87 1218.76,-78.35 1170,-56 1113.45,-30.08 935.97,-17.97 845.37,-13.36"/>
<polygon fill="midnightblue" stroke="midnightblue" points="845.46,-9.86 835.3,-12.86 845.11,-16.85 845.46,-9.86"/>
</g>
<!-- Node6 -->
<g id="node6" class="node">
<title>Node6</title>
<g id="a_node6"><a xlink:href="func_8hpp.html" target="_top" xlink:title=" ">
<polygon fill="none" stroke="black" points="700.5,-252 700.5,-271 797.5,-271 797.5,-252 700.5,-252"/>
<text text-anchor="middle" x="749" y="-259" font-family="Helvetica,sans-Serif" font-size="10.00">yaclib/util/func.hpp</text>
</a>
</g>
</g>
<!-- Node1&#45;&gt;Node6 -->
<g id="edge62" class="edge">
<title>Node1&#45;&gt;Node6</title>
<path fill="none" stroke="midnightblue" d="M684.2,-503.47C674.52,-494.24 663.25,-481.26 658,-467 653.24,-454.07 654.7,-449.38 658,-436 673.27,-374.01 715.06,-309.66 736.28,-279.73"/>
<polygon fill="midnightblue" stroke="midnightblue" points="739.37,-281.42 742.39,-271.27 733.7,-277.33 739.37,-281.42"/>
</g>
<!-- Node9 -->
<g id="node9" class="node">
<title>Node9</title>
<g id="a_node9"><a xlink:title=" ">
<polygon fill="none" stroke="#bfbfbf" points="638.5,-62 638.5,-81 677.5,-81 677.5,-62 638.5,-62"/>
<text text-anchor="middle" x="658" y="-69" font-family="Helvetica,sans-Serif" font-size="10.00">utility</text>
</a>
</g>
</g>
<!-- Node1&#45;&gt;Node9 -->
<g id="edge70" class="edge">
<title>Node1&#45;&gt;Node9</title>
<path fill="none" stroke="midnightblue" d="M695.82,-503.46C687.47,-479.59 672,-429.38 672,-385.5 672,-385.5 672,-385.5 672,-199 672,-160.47 665.5,-115.73 661.36,-91.13"/>
<polygon fill="midnightblue" stroke="midnightblue" points="664.77,-90.3 659.61,-81.05 657.88,-91.51 664.77,-90.3"/>
</g>
<!-- Node10 -->
<g id="node10" class="node">
<title>Node10</title>
<g id="a_node10"><a xlink:href="helper_8hpp.html" target="_top" xlink:title=" ">
<polygon fill="none" stroke="black" points="502,-190.5 502,-209.5 606,-209.5 606,-190.5 502,-190.5"/>
<text text-anchor="middle" x="554" y="-197.5" font-family="Helvetica,sans-Serif" font-size="10.00">yaclib/util/helper.hpp</text>
</a>
</g>
</g>
<!-- Node1&#45;&gt;Node10 -->
<g id="edge63" class="edge">
<title>Node1&#45;&gt;Node10</title>
<path fill="none" stroke="midnightblue" d="M678.05,-503.37C646.61,-482.04 594,-438.45 594,-385.5 594,-385.5 594,-385.5 594,-322 594,-283.65 575.66,-241.75 563.82,-218.7"/>
<polygon fill="midnightblue" stroke="midnightblue" points="566.85,-216.96 559.07,-209.78 560.68,-220.25 566.85,-216.96"/>
</g>
<!-- Node12 -->
<g id="node12" class="node">
<title>Node12</title>
<g id="a_node12"><a xlink:title=" ">
<polygon fill="none" stroke="#bfbfbf" points="51.5,-0.5 51.5,-19.5 100.5,-19.5 100.5,-0.5 51.5,-0.5"/>
<text text-anchor="middle" x="76" y="-7.5" font-family="Helvetica,sans-Serif" font-size="10.00">cstddef</text>
</a>
</g>
</g>
<!-- Node1&#45;&gt;Node12 -->
<g id="edge65" class="edge">
<title>Node1&#45;&gt;Node12</title>
<path fill="none" stroke="midnightblue" d="M650.98,-515.78C531.91,-511.23 234.57,-497.14 140,-467 71.4,-445.14 0,-457.5 0,-385.5 0,-385.5 0,-385.5 0,-137.5 0,-92.12 36.38,-48.98 58.8,-26.7"/>
<polygon fill="midnightblue" stroke="midnightblue" points="61.28,-29.18 66.06,-19.73 56.43,-24.13 61.28,-29.18"/>
</g>
<!-- Node16 -->
<g id="node16" class="node">
<title>Node16</title>
<g id="a_node16"><a xlink:href="intrusive__ptr_8hpp.html" target="_top" xlink:title=" ">
<polygon fill="none" stroke="black" points="916.5,-123.5 916.5,-153.5 1013.5,-153.5 1013.5,-123.5 916.5,-123.5"/>
<text text-anchor="start" x="924.5" y="-141.5" font-family="Helvetica,sans-Serif" font-size="10.00">yaclib/util/intrusive</text>
<text text-anchor="middle" x="965" y="-130.5" font-family="Helvetica,sans-Serif" font-size="10.00">_ptr.hpp</text>
</a>
</g>
</g>
<!-- Node1&#45;&gt;Node16 -->
<g id="edge64" class="edge">
<title>Node1&#45;&gt;Node16</title>
<path fill="none" stroke="midnightblue" d="M704.16,-503.42C710.8,-475.83 728.14,-413.48 758,-369 815.48,-283.37 864.17,-291.78 927,-210 938.22,-195.4 948,-177.04 954.83,-162.71"/>
<polygon fill="midnightblue" stroke="midnightblue" points="958.05,-164.08 959.07,-153.54 951.7,-161.15 958.05,-164.08"/>
</g>
<!-- Node20 -->
<g id="node20" class="node">
<title>Node20</title>
<g id="a_node20"><a xlink:href="thread__factory_8hpp.html" target="_top" xlink:title=" ">
<polygon fill="none" stroke="black" points="253.5,-369.5 253.5,-399.5 364.5,-399.5 364.5,-369.5 253.5,-369.5"/>
<text text-anchor="start" x="261.5" y="-387.5" font-family="Helvetica,sans-Serif" font-size="10.00">yaclib/executor/thread</text>
<text text-anchor="middle" x="309" y="-376.5" font-family="Helvetica,sans-Serif" font-size="10.00">_factory.hpp</text>
</a>
</g>
</g>
<!-- Node1&#45;&gt;Node20 -->
<g id="edge46" class="edge">
<title>Node1&#45;&gt;Node20</title>
<path fill="none" stroke="midnightblue" d="M650.99,-512.79C598.34,-506.66 513.7,-493.44 445,-467 404.61,-451.46 362.53,-424.26 336.08,-405.59"/>
<polygon fill="midnightblue" stroke="midnightblue" points="337.9,-402.59 327.73,-399.62 333.82,-408.29 337.9,-402.59"/>
</g>
<!-- Node21 -->
<g id="node21" class="node">
<title>Node21</title>
<g id="a_node21"><a xlink:title=" ">
<polygon fill="none" stroke="#bfbfbf" points="426,-313.5 426,-332.5 492,-332.5 492,-313.5 426,-313.5"/>
<text text-anchor="middle" x="459" y="-320.5" font-family="Helvetica,sans-Serif" font-size="10.00">string_view</text>
</a>
</g>
</g>
<!-- Node1&#45;&gt;Node21 -->
<g id="edge68" class="edge">
<title>Node1&#45;&gt;Node21</title>
<path fill="none" stroke="midnightblue" d="M650.77,-506.46C620.24,-498.38 581.25,-485.57 550,-467 512.42,-444.67 500.22,-437.64 478,-400 467.54,-382.28 462.81,-358.96 460.69,-342.85"/>
<polygon fill="midnightblue" stroke="midnightblue" points="464.13,-342.14 459.56,-332.58 457.17,-342.9 464.13,-342.14"/>
</g>
<!-- Node22 -->
<g id="node22" class="node">
<title>Node22</title>
<g id="a_node22"><a xlink:href="condition__variable_8hpp.html" target="_top" xlink:title=" ">
<polygon fill="none" stroke="black" points="766.5,-436.5 766.5,-466.5 871.5,-466.5 871.5,-436.5 766.5,-436.5"/>
<text text-anchor="start" x="774.5" y="-454.5" font-family="Helvetica,sans-Serif" font-size="10.00">yaclib/fault/condition</text>
<text text-anchor="middle" x="819" y="-443.5" font-family="Helvetica,sans-Serif" font-size="10.00">_variable.hpp</text>
</a>
</g>
</g>
<!-- Node1&#45;&gt;Node22 -->
<g id="edge47" class="edge">
<title>Node1&#45;&gt;Node22</title>
<path fill="none" stroke="midnightblue" d="M726.6,-503.4C743.54,-494.07 765.94,-481.73 784.45,-471.53"/>
<polygon fill="midnightblue" stroke="midnightblue" points="786.38,-474.47 793.45,-466.58 783,-468.34 786.38,-474.47"/>
</g>
<!-- Node24 -->
<g id="node24" class="node">
<title>Node24</title>
<g id="a_node24"><a xlink:href="mutex_8hpp.html" target="_top" xlink:title=" ">
<polygon fill="none" stroke="black" points="1116,-442 1116,-461 1226,-461 1226,-442 1116,-442"/>
<text text-anchor="middle" x="1171" y="-449" font-family="Helvetica,sans-Serif" font-size="10.00">yaclib/fault/mutex.hpp</text>
</a>
</g>
</g>
<!-- Node1&#45;&gt;Node24 -->
<g id="edge50" class="edge">
<title>Node1&#45;&gt;Node24</title>
<path fill="none" stroke="midnightblue" d="M751.3,-510.54C836.87,-498.71 1010.69,-474.67 1105.59,-461.55"/>
<polygon fill="midnightblue" stroke="midnightblue" points="1106.21,-464.99 1115.64,-460.16 1105.25,-458.06 1106.21,-464.99"/>
</g>
<!-- Node26 -->
<g id="node26" class="node">
<title>Node26</title>
<g id="a_node26"><a xlink:href="thread_8hpp.html" target="_top" xlink:title=" ">
<polygon fill="none" stroke="black" points="931.5,-442 931.5,-461 1042.5,-461 1042.5,-442 931.5,-442"/>
<text text-anchor="middle" x="987" y="-449" font-family="Helvetica,sans-Serif" font-size="10.00">yaclib/fault/thread.hpp</text>
</a>
</g>
</g>
<!-- Node1&#45;&gt;Node26 -->
<g id="edge53" class="edge">
<title>Node1&#45;&gt;Node26</title>
<path fill="none" stroke="midnightblue" d="M751.14,-506.1C804.16,-494.05 887.18,-475.19 939.26,-463.35"/>
<polygon fill="midnightblue" stroke="midnightblue" points="940.28,-466.71 949.25,-461.08 938.72,-459.88 940.28,-466.71"/>
</g>
<!-- Node29 -->
<g id="node29" class="node">
<title>Node29</title>
<g id="a_node29"><a xlink:title=" ">
<polygon fill="none" stroke="#bfbfbf" points="918,-375 918,-394 962,-394 962,-375 918,-375"/>
<text text-anchor="middle" x="940" y="-382" font-family="Helvetica,sans-Serif" font-size="10.00">thread</text>
</a>
</g>
</g>
<!-- Node1&#45;&gt;Node29 -->
<g id="edge69" class="edge">
<title>Node1&#45;&gt;Node29</title>
<path fill="none" stroke="midnightblue" d="M751.01,-512.49C789.41,-506.63 842.26,-494.01 881,-467 904.45,-450.65 922.04,-421.89 931.67,-403.27"/>
<polygon fill="midnightblue" stroke="midnightblue" points="934.9,-404.63 936.19,-394.12 928.62,-401.53 934.9,-404.63"/>
</g>
<!-- Node30 -->
<g id="node30" class="node">
<title>Node30</title>
<g id="a_node30"><a xlink:href="log_8hpp.html" target="_top" xlink:title=" ">
<polygon fill="none" stroke="black" points="487.5,-375 487.5,-394 562.5,-394 562.5,-375 487.5,-375"/>
<text text-anchor="middle" x="525" y="-382" font-family="Helvetica,sans-Serif" font-size="10.00">yaclib/log.hpp</text>
</a>
</g>
</g>
<!-- Node1&#45;&gt;Node30 -->
<g id="edge59" class="edge">
<title>Node1&#45;&gt;Node30</title>
<path fill="none" stroke="midnightblue" d="M650.94,-503.93C627.65,-495.87 600.6,-483.88 580,-467 558.71,-449.56 542.42,-421.75 533.27,-403.56"/>
<polygon fill="midnightblue" stroke="midnightblue" points="536.33,-401.84 528.84,-394.34 530.02,-404.87 536.33,-401.84"/>
</g>
<!-- Node31 -->
<g id="node31" class="node">
<title>Node31</title>
<g id="a_node31"><a xlink:title=" ">
<polygon fill="none" stroke="#bfbfbf" points="1287.5,-442 1287.5,-461 1332.5,-461 1332.5,-442 1287.5,-442"/>
<text text-anchor="middle" x="1310" y="-449" font-family="Helvetica,sans-Serif" font-size="10.00">iosfwd</text>
</a>
</g>
</g>
<!-- Node1&#45;&gt;Node31 -->
<g id="edge66" class="edge">
<title>Node1&#45;&gt;Node31</title>
<path fill="none" stroke="midnightblue" d="M751.1,-517.84C851.53,-517.48 1084,-511.41 1273,-467 1275.83,-466.33 1278.74,-465.49 1281.61,-464.56"/>
<polygon fill="midnightblue" stroke="midnightblue" points="1282.93,-467.8 1291.13,-461.09 1280.53,-461.22 1282.93,-467.8"/>
</g>
<!-- Node32 -->
<g id="node32" class="node">
<title>Node32</title>
<g id="a_node32"><a xlink:title=" ">
<polygon fill="none" stroke="#bfbfbf" points="1350.5,-442 1350.5,-461 1391.5,-461 1391.5,-442 1350.5,-442"/>
<text text-anchor="middle" x="1371" y="-449" font-family="Helvetica,sans-Serif" font-size="10.00">string</text>
</a>
</g>
</g>
<!-- Node1&#45;&gt;Node32 -->
<g id="edge67" class="edge">
<title>Node1&#45;&gt;Node32</title>
<path fill="none" stroke="midnightblue" d="M751.17,-516.03C881.98,-511.8 1230.95,-497.87 1342,-467 1343.72,-466.52 1345.45,-465.94 1347.17,-465.29"/>
<polygon fill="midnightblue" stroke="midnightblue" points="1349,-468.31 1356.69,-461.02 1346.13,-461.92 1349,-468.31"/>
</g>
<!-- Node2&#45;&gt;Node3 -->
<g id="edge2" class="edge">
<title>Node2&#45;&gt;Node3</title>
<path fill="none" stroke="midnightblue" d="M201.93,-441.83C201.74,-416.48 201.18,-340.26 201,-277 200.96,-263.22 197.43,-259.31 201,-246 226.31,-151.76 228.84,-108.63 311,-56 346.19,-33.46 618.63,-18.7 736.71,-13.3"/>
<polygon fill="midnightblue" stroke="midnightblue" points="737.14,-16.78 746.97,-12.84 736.82,-9.79 737.14,-16.78"/>
</g>
<!-- Node4 -->
<g id="node4" class="node">
<title>Node4</title>
<g id="a_node4"><a xlink:href="task_8hpp.html" target="_top" xlink:title=" ">
<polygon fill="none" stroke="black" points="248.5,-313.5 248.5,-332.5 369.5,-332.5 369.5,-313.5 248.5,-313.5"/>
<text text-anchor="middle" x="309" y="-320.5" font-family="Helvetica,sans-Serif" font-size="10.00">yaclib/executor/task.hpp</text>
</a>
</g>
</g>
<!-- Node2&#45;&gt;Node4 -->
<g id="edge3" class="edge">
<title>Node2&#45;&gt;Node4</title>
<path fill="none" stroke="midnightblue" d="M204.87,-441.82C210.43,-425.97 223.94,-391.85 244,-369 255,-356.47 270.21,-345.69 283.14,-337.83"/>
<polygon fill="midnightblue" stroke="midnightblue" points="285.18,-340.69 292.07,-332.64 281.66,-334.64 285.18,-340.69"/>
</g>
<!-- Node5 -->
<g id="node5" class="node">
<title>Node5</title>
<g id="a_node5"><a xlink:href="node_8hpp.html" target="_top" xlink:title=" ">
<polygon fill="none" stroke="black" points="210.5,-246.5 210.5,-276.5 293.5,-276.5 293.5,-246.5 210.5,-246.5"/>
<text text-anchor="start" x="218.5" y="-264.5" font-family="Helvetica,sans-Serif" font-size="10.00">yaclib/util/detail</text>
<text text-anchor="middle" x="252" y="-253.5" font-family="Helvetica,sans-Serif" font-size="10.00">/node.hpp</text>
</a>
</g>
</g>
<!-- Node2&#45;&gt;Node5 -->
<g id="edge43" class="edge">
<title>Node2&#45;&gt;Node5</title>
<path fill="none" stroke="midnightblue" d="M203.23,-441.99C206.5,-420.2 216.17,-360.77 231,-313 233.79,-304.01 237.57,-294.4 241.16,-286.01"/>
<polygon fill="midnightblue" stroke="midnightblue" points="244.38,-287.38 245.2,-276.82 237.97,-284.56 244.38,-287.38"/>
</g>
<!-- Node2&#45;&gt;Node12 -->
<g id="edge44" class="edge">
<title>Node2&#45;&gt;Node12</title>
<path fill="none" stroke="midnightblue" d="M170.77,-441.93C123.18,-426.76 38,-390.34 38,-324 38,-324 38,-324 38,-137.5 38,-97.35 55.78,-52.95 67.01,-28.89"/>
<polygon fill="midnightblue" stroke="midnightblue" points="70.29,-30.15 71.49,-19.63 63.99,-27.1 70.29,-30.15"/>
</g>
<!-- Node2&#45;&gt;Node20 -->
<g id="edge37" class="edge">
<title>Node2&#45;&gt;Node20</title>
<path fill="none" stroke="midnightblue" d="M216.43,-441.73C231.93,-432.32 257.06,-417.05 277.23,-404.8"/>
<polygon fill="midnightblue" stroke="midnightblue" points="279.08,-407.77 285.81,-399.59 275.44,-401.79 279.08,-407.77"/>
</g>
<!-- Node4&#45;&gt;Node3 -->
<g id="edge4" class="edge">
<title>Node4&#45;&gt;Node3</title>
<path fill="none" stroke="midnightblue" d="M315.46,-313.42C329.18,-294.32 360,-246.37 360,-201 360,-201 360,-201 360,-137.5 360,-99.74 355.05,-80.25 384,-56 410.54,-33.77 632.27,-19.32 736.83,-13.68"/>
<polygon fill="midnightblue" stroke="midnightblue" points="737.08,-17.17 746.88,-13.14 736.71,-10.18 737.08,-17.17"/>
</g>
<!-- Node4&#45;&gt;Node5 -->
<g id="edge5" class="edge">
<title>Node4&#45;&gt;Node5</title>
<path fill="none" stroke="midnightblue" d="M300.83,-313.48C293.47,-305.79 282.34,-294.17 272.56,-283.96"/>
<polygon fill="midnightblue" stroke="midnightblue" points="274.88,-281.32 265.43,-276.52 269.82,-286.17 274.88,-281.32"/>
</g>
<!-- Node4&#45;&gt;Node6 -->
<g id="edge7" class="edge">
<title>Node4&#45;&gt;Node6</title>
<path fill="none" stroke="midnightblue" d="M369.72,-313.79C454.36,-302.34 606.79,-281.73 690.33,-270.43"/>
<polygon fill="midnightblue" stroke="midnightblue" points="690.97,-273.88 700.41,-269.07 690.03,-266.94 690.97,-273.88"/>
</g>
<!-- Node5&#45;&gt;Node3 -->
<g id="edge6" class="edge">
<title>Node5&#45;&gt;Node3</title>
<path fill="none" stroke="midnightblue" d="M253.74,-246.34C259.25,-208.21 280.03,-103.13 346,-56 377.21,-33.7 625.32,-19.02 736.93,-13.48"/>
<polygon fill="midnightblue" stroke="midnightblue" points="737.16,-16.97 746.98,-12.98 736.82,-9.98 737.16,-16.97"/>
</g>
<!-- Node6&#45;&gt;Node3 -->
<g id="edge8" class="edge">
<title>Node6&#45;&gt;Node3</title>
<path fill="none" stroke="midnightblue" d="M758.48,-251.67C768.14,-242.2 782.96,-226.32 792,-210 819.81,-159.84 822.23,-143.67 831,-87 833.11,-73.38 835.9,-68.88 831,-56 826.66,-44.6 817.97,-34.24 809.79,-26.34"/>
<polygon fill="midnightblue" stroke="midnightblue" points="812.04,-23.66 802.27,-19.57 807.36,-28.86 812.04,-23.66"/>
</g>
<!-- Node7 -->
<g id="node7" class="node">
<title>Node7</title>
<g id="a_node7"><a xlink:href="safe__call_8hpp.html" target="_top" xlink:title=" ">
<polygon fill="none" stroke="black" points="700.5,-123.5 700.5,-153.5 783.5,-153.5 783.5,-123.5 700.5,-123.5"/>
<text text-anchor="start" x="708.5" y="-141.5" font-family="Helvetica,sans-Serif" font-size="10.00">yaclib/util/detail</text>
<text text-anchor="middle" x="742" y="-130.5" font-family="Helvetica,sans-Serif" font-size="10.00">/safe_call.hpp</text>
</a>
</g>
</g>
<!-- Node6&#45;&gt;Node7 -->
<g id="edge9" class="edge">
<title>Node6&#45;&gt;Node7</title>
<path fill="none" stroke="midnightblue" d="M748.5,-251.8C747.44,-233.6 744.98,-190.98 743.41,-163.79"/>
<polygon fill="midnightblue" stroke="midnightblue" points="746.88,-163.32 742.81,-153.54 739.9,-163.72 746.88,-163.32"/>
</g>
<!-- Node8 -->
<g id="node8" class="node">
<title>Node8</title>
<g id="a_node8"><a xlink:title=" ">
<polygon fill="none" stroke="#bfbfbf" points="760,-62 760,-81 822,-81 822,-62 760,-62"/>
<text text-anchor="middle" x="791" y="-69" font-family="Helvetica,sans-Serif" font-size="10.00">type_traits</text>
</a>
</g>
</g>
<!-- Node6&#45;&gt;Node8 -->
<g id="edge35" class="edge">
<title>Node6&#45;&gt;Node8</title>
<path fill="none" stroke="midnightblue" d="M754.01,-251.76C763.85,-234.03 785.41,-192.26 793,-154 795.68,-140.49 793.27,-136.78 793,-123 792.79,-112.52 792.34,-100.83 791.92,-91.34"/>
<polygon fill="midnightblue" stroke="midnightblue" points="795.41,-90.9 791.44,-81.07 788.41,-91.23 795.41,-90.9"/>
</g>
<!-- Node6&#45;&gt;Node9 -->
<g id="edge36" class="edge">
<title>Node6&#45;&gt;Node9</title>
<path fill="none" stroke="midnightblue" d="M743.98,-251.81C733.68,-233.83 709.63,-191.13 692,-154 681.86,-132.64 671.6,-107.44 665.04,-90.78"/>
<polygon fill="midnightblue" stroke="midnightblue" points="668.2,-89.23 661.31,-81.19 661.67,-91.77 668.2,-89.23"/>
</g>
<!-- Node6&#45;&gt;Node10 -->
<g id="edge13" class="edge">
<title>Node6&#45;&gt;Node10</title>
<path fill="none" stroke="midnightblue" d="M721.06,-251.98C687.03,-241.59 629.42,-224.01 591.54,-212.45"/>
<polygon fill="midnightblue" stroke="midnightblue" points="592.47,-209.08 581.89,-209.51 590.43,-215.78 592.47,-209.08"/>
</g>
<!-- Node6&#45;&gt;Node16 -->
<g id="edge33" class="edge">
<title>Node6&#45;&gt;Node16</title>
<path fill="none" stroke="midnightblue" d="M794.94,-251.93C826.86,-244.46 869.36,-231.39 902,-210 921.17,-197.44 938.16,-177.61 949.66,-162.18"/>
<polygon fill="midnightblue" stroke="midnightblue" points="952.77,-163.85 955.76,-153.69 947.08,-159.76 952.77,-163.85"/>
</g>
<!-- Node17 -->
<g id="node17" class="node">
<title>Node17</title>
<g id="a_node17"><a xlink:href="ref_8hpp.html" target="_top" xlink:title=" ">
<polygon fill="none" stroke="black" points="878.5,-62 878.5,-81 967.5,-81 967.5,-62 878.5,-62"/>
<text text-anchor="middle" x="923" y="-69" font-family="Helvetica,sans-Serif" font-size="10.00">yaclib/util/ref.hpp</text>
</a>
</g>
</g>
<!-- Node6&#45;&gt;Node17 -->
<g id="edge34" class="edge">
<title>Node6&#45;&gt;Node17</title>
<path fill="none" stroke="midnightblue" d="M785.73,-251.98C810.59,-244.56 842.66,-231.52 864,-210 881.5,-192.35 905.81,-124.25 916.96,-90.99"/>
<polygon fill="midnightblue" stroke="midnightblue" points="920.39,-91.77 920.21,-81.17 913.75,-89.57 920.39,-91.77"/>
</g>
<!-- Node7&#45;&gt;Node3 -->
<g id="edge10" class="edge">
<title>Node7&#45;&gt;Node3</title>
<path fill="none" stroke="midnightblue" d="M741.03,-123.28C740.44,-106.46 741.23,-77.98 751,-56 755.9,-44.97 764.53,-34.73 772.51,-26.82"/>
<polygon fill="midnightblue" stroke="midnightblue" points="775.19,-29.11 780.12,-19.73 770.42,-23.98 775.19,-29.11"/>
</g>
<!-- Node7&#45;&gt;Node8 -->
<g id="edge11" class="edge">
<title>Node7&#45;&gt;Node8</title>
<path fill="none" stroke="midnightblue" d="M752.63,-123.4C760.2,-113.36 770.39,-99.84 778.37,-89.25"/>
<polygon fill="midnightblue" stroke="midnightblue" points="781.22,-91.29 784.45,-81.19 775.63,-87.07 781.22,-91.29"/>
</g>
<!-- Node7&#45;&gt;Node9 -->
<g id="edge12" class="edge">
<title>Node7&#45;&gt;Node9</title>
<path fill="none" stroke="midnightblue" d="M723.77,-123.4C710.03,-112.76 691.22,-98.2 677.23,-87.38"/>
<polygon fill="midnightblue" stroke="midnightblue" points="679.29,-84.55 669.24,-81.19 675,-90.08 679.29,-84.55"/>
</g>
<!-- Node10&#45;&gt;Node3 -->
<g id="edge14" class="edge">
<title>Node10&#45;&gt;Node3</title>
<path fill="none" stroke="midnightblue" d="M558.55,-190.22C574.49,-159.48 627.03,-58.39 630,-56 660.23,-31.68 702.79,-20.49 736.55,-15.35"/>
<polygon fill="midnightblue" stroke="midnightblue" points="737.3,-18.78 746.73,-13.94 736.34,-11.84 737.3,-18.78"/>
</g>
<!-- Node11 -->
<g id="node11" class="node">
<title>Node11</title>
<g id="a_node11"><a xlink:href="atomic_8hpp.html" target="_top" xlink:title=" ">
<polygon fill="none" stroke="black" points="142.5,-62 142.5,-81 255.5,-81 255.5,-62 142.5,-62"/>
<text text-anchor="middle" x="199" y="-69" font-family="Helvetica,sans-Serif" font-size="10.00">yaclib/fault/atomic.hpp</text>
</a>
</g>
</g>
<!-- Node10&#45;&gt;Node11 -->
<g id="edge15" class="edge">
<title>Node10&#45;&gt;Node11</title>
<path fill="none" stroke="midnightblue" d="M529.88,-190.4C468.15,-168.41 304.32,-110.03 232.98,-84.61"/>
<polygon fill="midnightblue" stroke="midnightblue" points="233.75,-81.17 223.15,-81.11 231.4,-87.76 233.75,-81.17"/>
</g>
<!-- Node15 -->
<g id="node15" class="node">
<title>Node15</title>
<g id="a_node15"><a xlink:href="atomic__counter_8hpp.html" target="_top" xlink:title=" ">
<polygon fill="none" stroke="black" points="464,-123.5 464,-153.5 568,-153.5 568,-123.5 464,-123.5"/>
<text text-anchor="start" x="472" y="-141.5" font-family="Helvetica,sans-Serif" font-size="10.00">yaclib/util/detail</text>
<text text-anchor="middle" x="516" y="-130.5" font-family="Helvetica,sans-Serif" font-size="10.00">/atomic_counter.hpp</text>
</a>
</g>
</g>
<!-- Node10&#45;&gt;Node15 -->
<g id="edge20" class="edge">
<title>Node10&#45;&gt;Node15</title>
<path fill="none" stroke="midnightblue" d="M548.56,-190.48C543.84,-183.09 536.81,-172.08 530.48,-162.17"/>
<polygon fill="midnightblue" stroke="midnightblue" points="533.29,-160.07 524.96,-153.52 527.39,-163.83 533.29,-160.07"/>
</g>
<!-- Node10&#45;&gt;Node16 -->
<g id="edge25" class="edge">
<title>Node10&#45;&gt;Node16</title>
<path fill="none" stroke="midnightblue" d="M606.05,-191.46C682.8,-180.35 825.89,-159.64 906.28,-148"/>
<polygon fill="midnightblue" stroke="midnightblue" points="906.85,-151.46 916.24,-146.56 905.85,-144.53 906.85,-151.46"/>
</g>
<!-- Node11&#45;&gt;Node3 -->
<g id="edge16" class="edge">
<title>Node11&#45;&gt;Node3</title>
<path fill="none" stroke="midnightblue" d="M236.81,-61.94C247.5,-59.75 259.17,-57.57 270,-56 439.31,-31.48 641.65,-18.68 736.67,-13.63"/>
<polygon fill="midnightblue" stroke="midnightblue" points="737.09,-17.11 746.89,-13.09 736.72,-10.12 737.09,-17.11"/>
</g>
<!-- Node11&#45;&gt;Node12 -->
<g id="edge17" class="edge">
<title>Node11&#45;&gt;Node12</title>
<path fill="none" stroke="midnightblue" d="M181.38,-61.98C160.83,-52.03 126.64,-35.49 102.79,-23.96"/>
<polygon fill="midnightblue" stroke="midnightblue" points="104.12,-20.71 93.59,-19.51 101.07,-27.01 104.12,-20.71"/>
</g>
<!-- Node13 -->
<g id="node13" class="node">
<title>Node13</title>
<g id="a_node13"><a xlink:title=" ">
<polygon fill="none" stroke="#bfbfbf" points="148,-0.5 148,-19.5 194,-19.5 194,-0.5 148,-0.5"/>
<text text-anchor="middle" x="171" y="-7.5" font-family="Helvetica,sans-Serif" font-size="10.00">cstdint</text>
</a>
</g>
</g>
<!-- Node11&#45;&gt;Node13 -->
<g id="edge18" class="edge">
<title>Node11&#45;&gt;Node13</title>
<path fill="none" stroke="midnightblue" d="M194.99,-61.98C190.91,-53.32 184.48,-39.65 179.3,-28.65"/>
<polygon fill="midnightblue" stroke="midnightblue" points="182.43,-27.07 175,-19.51 176.1,-30.05 182.43,-27.07"/>
</g>
<!-- Node14 -->
<g id="node14" class="node">
<title>Node14</title>
<g id="a_node14"><a xlink:title=" ">
<polygon fill="none" stroke="#bfbfbf" points="212,-0.5 212,-19.5 258,-19.5 258,-0.5 212,-0.5"/>
<text text-anchor="middle" x="235" y="-7.5" font-family="Helvetica,sans-Serif" font-size="10.00">atomic</text>
</a>
</g>
</g>
<!-- Node11&#45;&gt;Node14 -->
<g id="edge19" class="edge">
<title>Node11&#45;&gt;Node14</title>
<path fill="none" stroke="midnightblue" d="M204.16,-61.98C209.45,-53.23 217.84,-39.37 224.53,-28.31"/>
<polygon fill="midnightblue" stroke="midnightblue" points="227.67,-29.88 229.85,-19.51 221.68,-26.25 227.67,-29.88"/>
</g>
<!-- Node15&#45;&gt;Node3 -->
<g id="edge21" class="edge">
<title>Node15&#45;&gt;Node3</title>
<path fill="none" stroke="midnightblue" d="M523.49,-123.2C533.98,-104.64 554.85,-72.68 582,-56 629.08,-27.06 692.1,-16.56 736.59,-12.84"/>
<polygon fill="midnightblue" stroke="midnightblue" points="736.92,-16.33 746.63,-12.09 736.4,-9.35 736.92,-16.33"/>
</g>
<!-- Node15&#45;&gt;Node9 -->
<g id="edge24" class="edge">
<title>Node15&#45;&gt;Node9</title>
<path fill="none" stroke="midnightblue" d="M546.81,-123.4C571.62,-112.04 606.18,-96.22 630.16,-85.24"/>
<polygon fill="midnightblue" stroke="midnightblue" points="631.78,-88.35 639.42,-81.01 628.87,-81.99 631.78,-88.35"/>
</g>
<!-- Node15&#45;&gt;Node11 -->
<g id="edge22" class="edge">
<title>Node15&#45;&gt;Node11</title>
<path fill="none" stroke="midnightblue" d="M463.65,-126.77C404.64,-114.67 309.29,-95.11 250.59,-83.08"/>
<polygon fill="midnightblue" stroke="midnightblue" points="251.28,-79.65 240.78,-81.07 249.88,-86.51 251.28,-79.65"/>
</g>
<!-- Node15&#45;&gt;Node12 -->
<g id="edge23" class="edge">
<title>Node15&#45;&gt;Node12</title>
<path fill="none" stroke="midnightblue" d="M463.72,-135.57C372.33,-131.4 188,-119.17 133,-87 110.04,-73.57 93.39,-46.91 84.21,-29.01"/>
<polygon fill="midnightblue" stroke="midnightblue" points="87.29,-27.35 79.78,-19.88 81,-30.4 87.29,-27.35"/>
</g>
<!-- Node16&#45;&gt;Node3 -->
<g id="edge26" class="edge">
<title>Node16&#45;&gt;Node3</title>
<path fill="none" stroke="midnightblue" d="M972.79,-123.49C981.44,-105.83 992.3,-75.44 977,-56 960.84,-35.46 894.31,-23.17 845.41,-16.75"/>
<polygon fill="midnightblue" stroke="midnightblue" points="845.63,-13.25 835.27,-15.47 844.75,-20.2 845.63,-13.25"/>
</g>
<!-- Node16&#45;&gt;Node8 -->
<g id="edge29" class="edge">
<title>Node16&#45;&gt;Node8</title>
<path fill="none" stroke="midnightblue" d="M927.24,-123.4C896.17,-111.79 852.61,-95.51 823.17,-84.52"/>
<polygon fill="midnightblue" stroke="midnightblue" points="824.37,-81.23 813.77,-81.01 821.92,-87.79 824.37,-81.23"/>
</g>
<!-- Node16&#45;&gt;Node17 -->
<g id="edge27" class="edge">
<title>Node16&#45;&gt;Node17</title>
<path fill="none" stroke="midnightblue" d="M955.89,-123.4C949.53,-113.56 941.01,-100.38 934.24,-89.89"/>
<polygon fill="midnightblue" stroke="midnightblue" points="936.98,-87.69 928.62,-81.19 931.11,-91.49 936.98,-87.69"/>
</g>
<!-- Node18 -->
<g id="node18" class="node">
<title>Node18</title>
<g id="a_node18"><a xlink:href="intrusive__ptr__impl_8hpp.html" target="_top" xlink:title=" ">
<polygon fill="none" stroke="black" points="1287,-56.5 1287,-86.5 1401,-86.5 1401,-56.5 1287,-56.5"/>
<text text-anchor="start" x="1295" y="-74.5" font-family="Helvetica,sans-Serif" font-size="10.00">yaclib/util/detail</text>
<text text-anchor="middle" x="1344" y="-63.5" font-family="Helvetica,sans-Serif" font-size="10.00">/intrusive_ptr_impl.hpp</text>
</a>
</g>
</g>
<!-- Node16&#45;&gt;Node18 -->
<g id="edge30" class="edge">
<title>Node16&#45;&gt;Node18</title>
<path fill="none" stroke="midnightblue" d="M1013.77,-129.14C1080.74,-117.65 1201.42,-96.95 1276.88,-84.01"/>
<polygon fill="midnightblue" stroke="midnightblue" points="1277.49,-87.46 1286.76,-82.32 1276.31,-80.56 1277.49,-87.46"/>
</g>
<!-- Node17&#45;&gt;Node3 -->
<g id="edge28" class="edge">
<title>Node17&#45;&gt;Node3</title>
<path fill="none" stroke="midnightblue" d="M904.09,-61.98C881.84,-51.95 844.69,-35.2 819.07,-23.65"/>
<polygon fill="midnightblue" stroke="midnightblue" points="820.43,-20.43 809.88,-19.51 817.56,-26.81 820.43,-20.43"/>
</g>
<!-- Node18&#45;&gt;Node3 -->
<g id="edge31" class="edge">
<title>Node18&#45;&gt;Node3</title>
<path fill="none" stroke="midnightblue" d="M1286.74,-58.25C1282.1,-57.43 1277.48,-56.66 1273,-56 1118.66,-33.1 934.69,-19.75 845.23,-14.14"/>
<polygon fill="midnightblue" stroke="midnightblue" points="845.25,-10.63 835.05,-13.51 844.82,-17.62 845.25,-10.63"/>
</g>
<!-- Node19 -->
<g id="node19" class="node">
<title>Node19</title>
<g id="a_node19"><a xlink:title=" ">
<polygon fill="none" stroke="#bfbfbf" points="1319.5,-0.5 1319.5,-19.5 1368.5,-19.5 1368.5,-0.5 1319.5,-0.5"/>
<text text-anchor="middle" x="1344" y="-7.5" font-family="Helvetica,sans-Serif" font-size="10.00">cassert</text>
</a>
</g>
</g>
<!-- Node18&#45;&gt;Node19 -->
<g id="edge32" class="edge">
<title>Node18&#45;&gt;Node19</title>
<path fill="none" stroke="midnightblue" d="M1344,-56.4C1344,-48.47 1344,-38.46 1344,-29.86"/>
<polygon fill="midnightblue" stroke="midnightblue" points="1347.5,-29.66 1344,-19.66 1340.5,-29.66 1347.5,-29.66"/>
</g>
<!-- Node20&#45;&gt;Node3 -->
<g id="edge38" class="edge">
<title>Node20&#45;&gt;Node3</title>
<path fill="none" stroke="midnightblue" d="M336.39,-369.33C350.71,-360.63 367.4,-348.23 378,-333 396.6,-306.26 398,-295.07 398,-262.5 398,-262.5 398,-262.5 398,-137.5 398,-86.74 432.72,-78.93 478,-56 522.18,-33.63 659.52,-20.44 736.79,-14.6"/>
<polygon fill="midnightblue" stroke="midnightblue" points="737.11,-18.09 746.82,-13.86 736.59,-11.11 737.11,-18.09"/>
</g>
<!-- Node20&#45;&gt;Node4 -->
<g id="edge39" class="edge">
<title>Node20&#45;&gt;Node4</title>
<path fill="none" stroke="midnightblue" d="M309,-369.4C309,-361.47 309,-351.46 309,-342.86"/>
<polygon fill="midnightblue" stroke="midnightblue" points="312.5,-342.66 309,-332.66 305.5,-342.66 312.5,-342.66"/>
</g>
<!-- Node20&#45;&gt;Node5 -->
<g id="edge40" class="edge">
<title>Node20&#45;&gt;Node5</title>
<path fill="none" stroke="midnightblue" d="M277.66,-369.44C263.08,-361.11 247.19,-349.01 239,-333 231.56,-318.47 235.16,-300.32 240.44,-286.08"/>
<polygon fill="midnightblue" stroke="midnightblue" points="243.81,-287.08 244.44,-276.5 237.35,-284.38 243.81,-287.08"/>
</g>
<!-- Node20&#45;&gt;Node12 -->
<g id="edge41" class="edge">
<title>Node20&#45;&gt;Node12</title>
<path fill="none" stroke="midnightblue" d="M280.13,-369.42C264.21,-360.59 244.9,-348.05 231,-333 146.65,-241.71 145.1,-202.02 98,-87 90.21,-67.97 84.01,-45.22 80.2,-29.6"/>
<polygon fill="midnightblue" stroke="midnightblue" points="83.56,-28.57 77.86,-19.64 76.74,-30.17 83.56,-28.57"/>
</g>
<!-- Node20&#45;&gt;Node21 -->
<g id="edge42" class="edge">
<title>Node20&#45;&gt;Node21</title>
<path fill="none" stroke="midnightblue" d="M344.55,-369.4C369.83,-359.37 403.47,-346.03 427.73,-336.4"/>
<polygon fill="midnightblue" stroke="midnightblue" points="429.17,-339.6 437.17,-332.66 426.59,-333.09 429.17,-339.6"/>
</g>
<!-- Node22&#45;&gt;Node3 -->
<g id="edge48" class="edge">
<title>Node22&#45;&gt;Node3</title>
<path fill="none" stroke="midnightblue" d="M835.5,-436.41C846.28,-426.76 860.28,-413.34 871,-400 958.94,-290.52 1051.48,-260.51 1023,-123 1016.42,-91.23 1019.02,-76.66 994,-56 971.69,-37.58 897.71,-24.58 845.53,-17.44"/>
<polygon fill="midnightblue" stroke="midnightblue" points="845.78,-13.94 835.41,-16.09 844.86,-20.88 845.78,-13.94"/>
</g>
<!-- Node23 -->
<g id="node23" class="node">
<title>Node23</title>
<g id="a_node23"><a xlink:title=" ">
<polygon fill="none" stroke="#bfbfbf" points="766.5,-375 766.5,-394 861.5,-394 861.5,-375 766.5,-375"/>
<text text-anchor="middle" x="814" y="-382" font-family="Helvetica,sans-Serif" font-size="10.00">condition_variable</text>
</a>
</g>
</g>
<!-- Node22&#45;&gt;Node23 -->
<g id="edge49" class="edge">
<title>Node22&#45;&gt;Node23</title>
<path fill="none" stroke="midnightblue" d="M817.92,-436.4C817.19,-426.96 816.23,-414.45 815.44,-404.19"/>
<polygon fill="midnightblue" stroke="midnightblue" points="818.93,-403.9 814.67,-394.19 811.95,-404.43 818.93,-403.9"/>
</g>
<!-- Node24&#45;&gt;Node3 -->
<g id="edge51" class="edge">
<title>Node24&#45;&gt;Node3</title>
<path fill="none" stroke="midnightblue" d="M1177.6,-441.65C1184.58,-431.9 1195.46,-415.55 1202,-400 1215.49,-367.9 1221,-358.82 1221,-324 1221,-324 1221,-324 1221,-137.5 1221,-79.12 1171.7,-78.9 1118,-56 1070.07,-35.56 925.25,-21.46 845.36,-15"/>
<polygon fill="midnightblue" stroke="midnightblue" points="845.26,-11.48 835.01,-14.17 844.7,-18.45 845.26,-11.48"/>
</g>
<!-- Node25 -->
<g id="node25" class="node">
<title>Node25</title>
<g id="a_node25"><a xlink:title=" ">
<polygon fill="none" stroke="#bfbfbf" points="1149.5,-375 1149.5,-394 1192.5,-394 1192.5,-375 1149.5,-375"/>
<text text-anchor="middle" x="1171" y="-382" font-family="Helvetica,sans-Serif" font-size="10.00">mutex</text>
</a>
</g>
</g>
<!-- Node24&#45;&gt;Node25 -->
<g id="edge52" class="edge">
<title>Node24&#45;&gt;Node25</title>
<path fill="none" stroke="midnightblue" d="M1171,-441.73C1171,-432.18 1171,-416.62 1171,-404.28"/>
<polygon fill="midnightblue" stroke="midnightblue" points="1174.5,-404.13 1171,-394.13 1167.5,-404.13 1174.5,-404.13"/>
</g>
<!-- Node26&#45;&gt;Node3 -->
<g id="edge54" class="edge">
<title>Node26&#45;&gt;Node3</title>
<path fill="none" stroke="midnightblue" d="M989.57,-441.87C998.64,-410.89 1029.15,-302.17 1039,-210 1043.11,-171.55 1044.85,-161.22 1039,-123 1034.28,-92.15 1041.23,-76.84 1018,-56 993.11,-33.66 904.57,-21.34 845.71,-15.46"/>
<polygon fill="midnightblue" stroke="midnightblue" points="845.73,-11.95 835.44,-14.47 845.06,-18.92 845.73,-11.95"/>
</g>
<!-- Node27 -->
<g id="node27" class="node">
<title>Node27</title>
<g id="a_node27"><a xlink:href="chrono_8hpp.html" target="_top" xlink:title=" ">
<polygon fill="none" stroke="black" points="1018.5,-375 1018.5,-394 1131.5,-394 1131.5,-375 1018.5,-375"/>
<text text-anchor="middle" x="1075" y="-382" font-family="Helvetica,sans-Serif" font-size="10.00">yaclib/fault/chrono.hpp</text>
</a>
</g>
</g>
<!-- Node26&#45;&gt;Node27 -->
<g id="edge55" class="edge">
<title>Node26&#45;&gt;Node27</title>
<path fill="none" stroke="midnightblue" d="M998.87,-441.73C1013.25,-431.11 1037.7,-413.05 1055.01,-400.26"/>
<polygon fill="midnightblue" stroke="midnightblue" points="1057.36,-402.88 1063.32,-394.13 1053.2,-397.25 1057.36,-402.88"/>
</g>
<!-- Node26&#45;&gt;Node29 -->
<g id="edge58" class="edge">
<title>Node26&#45;&gt;Node29</title>
<path fill="none" stroke="midnightblue" d="M980.66,-441.73C973.4,-431.7 961.34,-415.01 952.24,-402.42"/>
<polygon fill="midnightblue" stroke="midnightblue" points="954.93,-400.18 946.24,-394.13 949.26,-404.28 954.93,-400.18"/>
</g>
<!-- Node27&#45;&gt;Node3 -->
<g id="edge56" class="edge">
<title>Node27&#45;&gt;Node3</title>
<path fill="none" stroke="midnightblue" d="M1080.45,-374.77C1092.02,-355.37 1118,-306.87 1118,-262.5 1118,-262.5 1118,-262.5 1118,-137.5 1118,-99.74 1122.49,-80.78 1094,-56 1057.81,-24.52 922.16,-15.06 845.2,-12.22"/>
<polygon fill="midnightblue" stroke="midnightblue" points="845.31,-8.72 835.2,-11.87 845.07,-15.72 845.31,-8.72"/>
</g>
<!-- Node28 -->
<g id="node28" class="node">
<title>Node28</title>
<g id="a_node28"><a xlink:title=" ">
<polygon fill="none" stroke="#bfbfbf" points="1044,-313.5 1044,-332.5 1090,-332.5 1090,-313.5 1044,-313.5"/>
<text text-anchor="middle" x="1067" y="-320.5" font-family="Helvetica,sans-Serif" font-size="10.00">chrono</text>
</a>
</g>
</g>
<!-- Node27&#45;&gt;Node28 -->
<g id="edge57" class="edge">
<title>Node27&#45;&gt;Node28</title>
<path fill="none" stroke="midnightblue" d="M1073.85,-374.98C1072.73,-366.58 1070.96,-353.48 1069.51,-342.66"/>
<polygon fill="midnightblue" stroke="midnightblue" points="1072.95,-341.95 1068.14,-332.51 1066.01,-342.89 1072.95,-341.95"/>
</g>
<!-- Node30&#45;&gt;Node3 -->
<g id="edge60" class="edge">
<title>Node30&#45;&gt;Node3</title>
<path fill="none" stroke="midnightblue" d="M521.98,-374.85C509.45,-338.73 461.82,-199.73 455,-154 452.97,-140.37 448.82,-135.31 455,-123 477.38,-78.44 499.27,-75.9 545,-56 607.2,-28.93 685.1,-18.14 736.38,-13.84"/>
<polygon fill="midnightblue" stroke="midnightblue" points="736.89,-17.32 746.58,-13.04 736.34,-10.34 736.89,-17.32"/>
</g>
<!-- Node30&#45;&gt;Node21 -->
<g id="edge61" class="edge">
<title>Node30&#45;&gt;Node21</title>
<path fill="none" stroke="midnightblue" d="M515.54,-374.98C505.25,-365.7 488.58,-350.67 476.01,-339.33"/>
<polygon fill="midnightblue" stroke="midnightblue" points="478.21,-336.61 468.44,-332.51 473.52,-341.8 478.21,-336.61"/>
</g>
</g>
</svg>
        <g id="navigator" transform="translate(0 0)" fill="#404254">
                <rect fill="#f2f5e9" fill-opacity="0.5" stroke="#606060" stroke-width=".5" x="0" y="0" width="60" height="60"/>
                <use id="zoomplus" xlink:href="#zoomPlus" x="17" y="9" onmousedown="handleZoom(evt,'in')"/>
                <use id="zoomminus" xlink:href="#zoomMin" x="42" y="9" onmousedown="handleZoom(evt,'out')"/>
                <use id="reset" xlink:href="#resetDef" x="30" y="36" onmousedown="handleReset()"/>
                <g id="arrowUp" xlink:href="#dirArrow" transform="translate(30 24)" onmousedown="handlePan(0,-1)">
                  <use xlink:href="#rim" fill="#404040">
                        <set attributeName="fill" to="#808080" begin="arrowUp.mouseover" end="arrowUp.mouseout"/>
                  </use>
                  <path fill="none" stroke="white" stroke-width="1.5" d="M0,-3.0v7 M-2.5,-0.5L0,-3.0L2.5,-0.5"/>
                </g>
                <g id="arrowRight" xlink:href="#dirArrow" transform="rotate(90) translate(36 -43)" onmousedown="handlePan(1,0)">
                  <use xlink:href="#rim" fill="#404040">
                        <set attributeName="fill" to="#808080" begin="arrowRight.mouseover" end="arrowRight.mouseout"/>
                  </use>
                  <path fill="none" stroke="white" stroke-width="1.5" d="M0,-3.0v7 M-2.5,-0.5L0,-3.0L2.5,-0.5"/>
                </g>
                <g id="arrowDown" xlink:href="#dirArrow" transform="rotate(180) translate(-30 -48)" onmousedown="handlePan(0,1)">
                  <use xlink:href="#rim" fill="#404040">
                        <set attributeName="fill" to="#808080" begin="arrowDown.mouseover" end="arrowDown.mouseout"/>
                  </use>
                  <path fill="none" stroke="white" stroke-width="1.5" d="M0,-3.0v7 M-2.5,-0.5L0,-3.0L2.5,-0.5"/>
                </g>
                <g id="arrowLeft" xlink:href="#dirArrow" transform="rotate(270) translate(-36 17)" onmousedown="handlePan(-1,0)">
                  <use xlink:href="#rim" fill="#404040">
                        <set attributeName="fill" to="#808080" begin="arrowLeft.mouseover" end="arrowLeft.mouseout"/>
                  </use>
                  <path fill="none" stroke="white" stroke-width="1.5" d="M0,-3.0v7 M-2.5,-0.5L0,-3.0L2.5,-0.5"/>
                </g>
        </g>
        <svg viewBox="0 0 15 15" width="100%" height="30px" preserveAspectRatio="xMaxYMin meet">
         <g id="arrow_out" transform="scale(0.3 0.3)">
          <a xlink:href="thread__factory_8cpp__incl_org.svg" target="_base">
           <rect id="button" ry="5" rx="5" y="6" x="6" height="38" width="38"
                fill="#f2f5e9" fill-opacity="0.5" stroke="#606060" stroke-width="1.0"/>
           <path id="arrow"
             d="M 11.500037,31.436501 C 11.940474,20.09759 22.043105,11.32322 32.158766,21.979434 L 37.068811,17.246167 C 37.068811,17.246167 37.088388,32 37.088388,32 L 22.160133,31.978069 C 22.160133,31.978069 26.997745,27.140456 26.997745,27.140456 C 18.528582,18.264221 13.291696,25.230495 11.500037,31.436501 z"
             style="fill:#404040;"/>
          </a>
         </g>
        </svg>
</svg>
