<?xml version="1.0" encoding="UTF-8" standalone="no"?>
<!DOCTYPE svg PUBLIC "-//W3C//DTD SVG 1.1//EN"
 "http://www.w3.org/Graphics/SVG/1.1/DTD/svg11.dtd">
<!-- Generated by graphviz version 2.50.0 (20220203.2022)
 -->
<!-- Title: include/yaclib/fault/thread.hpp Pages: 1 -->
<!--zoomable 396 -->
<svg id="main" version="1.1" xmlns="http://www.w3.org/2000/svg" xmlns:xlink="http://www.w3.org/1999/xlink" xml:space="preserve" onload="init(evt)">
<style type="text/css"><![CDATA[
.edge:hover path { stroke: red; }
.edge:hover polygon { stroke: red; fill: red; }
]]></style>
<script type="text/javascript"><![CDATA[
var edges = document.getElementsByTagName('g');
if (edges && edges.length) {
  for (var i=0;i<edges.length;i++) {
    if (edges[i].id.substr(0,4)=='edge') {
      edges[i].setAttribute('class','edge');
    }
  }
}
]]></script>
        <defs>
                <circle id="rim" cx="0" cy="0" r="7"/>
                <circle id="rim2" cx="0" cy="0" r="3.5"/>
                <g id="zoomPlus">
                        <use xlink:href="#rim" fill="#404040">
                                <set attributeName="fill" to="#808080" begin="zoomplus.mouseover" end="zoomplus.mouseout"/>
                        </use>
                        <path d="M-4,0h8M0,-4v8" fill="none" stroke="white" stroke-width="1.5" pointer-events="none"/>
                </g>
                <g id="zoomMin">
                        <use xlink:href="#rim" fill="#404040">
                                <set attributeName="fill" to="#808080" begin="zoomminus.mouseover" end="zoomminus.mouseout"/>
                        </use>
                        <path d="M-4,0h8" fill="none" stroke="white" stroke-width="1.5" pointer-events="none"/>
                </g>
                <g id="dirArrow">
                        <path fill="none" stroke="white" stroke-width="1.5" d="M0,-3.0v7 M-2.5,-0.5L0,-3.0L2.5,-0.5"/>
                </g>
               <g id="resetDef">
                       <use xlink:href="#rim2" fill="#404040">
                               <set attributeName="fill" to="#808080" begin="reset.mouseover" end="reset.mouseout"/>
                       </use>
               </g>
        </defs>

<script type="text/javascript">
var viewWidth = 1388;
var viewHeight = 396;
var sectionId = 'dynsection-1';
</script>
<script xlink:href="svgpan.js"/>
<svg id="graph" class="graph">
<g id="viewport">
<title>include/yaclib/fault/thread.hpp</title>
<!-- Node1 -->
<g id="node1" class="node">
<title>Node1</title>
<g id="a_node1"><a xlink:title=" ">
<polygon fill="#bfbfbf" stroke="black" points="801.5,-357.5 801.5,-387.5 898.5,-387.5 898.5,-357.5 801.5,-357.5"/>
<text text-anchor="start" x="809.5" y="-375.5" font-family="Helvetica,sans-Serif" font-size="10.00">include/yaclib/fault</text>
<text text-anchor="middle" x="850" y="-364.5" font-family="Helvetica,sans-Serif" font-size="10.00">/thread.hpp</text>
</a>
</g>
</g>
<!-- Node2 -->
<g id="node2" class="node">
<title>Node2</title>
<g id="a_node2"><a xlink:href="thread__pool_8hpp.html" target="_top" xlink:title=" ">
<polygon fill="none" stroke="black" points="349.5,-290.5 349.5,-320.5 464.5,-320.5 464.5,-290.5 349.5,-290.5"/>
<text text-anchor="start" x="357.5" y="-308.5" font-family="Helvetica,sans-Serif" font-size="10.00">include/yaclib/executor</text>
<text text-anchor="middle" x="407" y="-297.5" font-family="Helvetica,sans-Serif" font-size="10.00">/thread_pool.hpp</text>
</a>
</g>
</g>
<!-- Node1&#45;&gt;Node2 -->
<g id="edge1" class="edge">
<title>Node1&#45;&gt;Node2</title>
<path fill="none" stroke="midnightblue" d="M791.31,-362.89C706.2,-350.4 549.47,-327.4 464.84,-314.99"/>
<polygon fill="midnightblue" stroke="midnightblue" points="790.92,-366.37 801.32,-364.36 791.94,-359.44 790.92,-366.37"/>
</g>
<!-- Node9 -->
<g id="node9" class="node">
<title>Node9</title>
<g id="a_node9"><a xlink:href="yielder_8hpp.html" target="_top" xlink:title=" ">
<polygon fill="none" stroke="black" points="743.5,-290.5 743.5,-320.5 840.5,-320.5 840.5,-290.5 743.5,-290.5"/>
<text text-anchor="start" x="751.5" y="-308.5" font-family="Helvetica,sans-Serif" font-size="10.00">include/yaclib/fault</text>
<text text-anchor="middle" x="792" y="-297.5" font-family="Helvetica,sans-Serif" font-size="10.00">/detail/yielder.hpp</text>
</a>
</g>
</g>
<!-- Node1&#45;&gt;Node9 -->
<g id="edge8" class="edge">
<title>Node1&#45;&gt;Node9</title>
<path fill="none" stroke="midnightblue" d="M830.58,-349.74C822,-340.12 812.16,-329.09 804.56,-320.58"/>
<polygon fill="midnightblue" stroke="midnightblue" points="828.15,-352.26 837.41,-357.4 833.37,-347.6 828.15,-352.26"/>
</g>
<!-- Node29 -->
<g id="node29" class="node">
<title>Node29</title>
<g id="a_node29"><a xlink:href="thread__factory_8cpp.html" target="_top" xlink:title=" ">
<polygon fill="none" stroke="black" points="859,-290.5 859,-320.5 959,-320.5 959,-290.5 859,-290.5"/>
<text text-anchor="start" x="867" y="-308.5" font-family="Helvetica,sans-Serif" font-size="10.00">src/executor/thread</text>
<text text-anchor="middle" x="909" y="-297.5" font-family="Helvetica,sans-Serif" font-size="10.00">_factory.cpp</text>
</a>
</g>
</g>
<!-- Node1&#45;&gt;Node29 -->
<g id="edge28" class="edge">
<title>Node1&#45;&gt;Node29</title>
<path fill="none" stroke="midnightblue" d="M869.75,-349.74C878.48,-340.12 888.5,-329.09 896.22,-320.58"/>
<polygon fill="midnightblue" stroke="midnightblue" points="866.93,-347.64 862.8,-357.4 872.11,-352.34 866.93,-347.64"/>
</g>
<!-- Node30 -->
<g id="node30" class="node">
<title>Node30</title>
<g id="a_node30"><a xlink:href="thread_8cpp.html" target="_top" xlink:title=" ">
<polygon fill="none" stroke="black" points="977,-296 977,-315 1107,-315 1107,-296 977,-296"/>
<text text-anchor="middle" x="1042" y="-303" font-family="Helvetica,sans-Serif" font-size="10.00">src/fault/thread/thread.cpp</text>
</a>
</g>
</g>
<!-- Node1&#45;&gt;Node30 -->
<g id="edge29" class="edge">
<title>Node1&#45;&gt;Node30</title>
<path fill="none" stroke="midnightblue" d="M901.37,-354.11C938.73,-341.46 987.67,-324.89 1016.87,-315.01"/>
<polygon fill="midnightblue" stroke="midnightblue" points="900.01,-350.87 891.66,-357.4 902.26,-357.5 900.01,-350.87"/>
</g>
<!-- Node3 -->
<g id="node3" class="node">
<title>Node3</title>
<g id="a_node3"><a xlink:href="src_2executor_2thread__pool_8cpp.html" target="_top" xlink:title=" ">
<polygon fill="none" stroke="black" points="0,-223.5 0,-253.5 100,-253.5 100,-223.5 0,-223.5"/>
<text text-anchor="start" x="8" y="-241.5" font-family="Helvetica,sans-Serif" font-size="10.00">src/executor/thread</text>
<text text-anchor="middle" x="50" y="-230.5" font-family="Helvetica,sans-Serif" font-size="10.00">_pool.cpp</text>
</a>
</g>
</g>
<!-- Node2&#45;&gt;Node3 -->
<g id="edge2" class="edge">
<title>Node2&#45;&gt;Node3</title>
<path fill="none" stroke="midnightblue" d="M339.16,-294.45C278.59,-285.13 187.56,-270.29 109,-254 106.11,-253.4 103.14,-252.76 100.16,-252.09"/>
<polygon fill="midnightblue" stroke="midnightblue" points="338.95,-297.96 349.36,-296.01 340,-291.04 338.95,-297.96"/>
</g>
<!-- Node4 -->
<g id="node4" class="node">
<title>Node4</title>
<g id="a_node4"><a xlink:href="simple_8cpp.html" target="_top" xlink:title=" ">
<polygon fill="none" stroke="black" points="118.5,-223.5 118.5,-253.5 219.5,-253.5 219.5,-223.5 118.5,-223.5"/>
<text text-anchor="start" x="126.5" y="-241.5" font-family="Helvetica,sans-Serif" font-size="10.00">test/example/async</text>
<text text-anchor="middle" x="169" y="-230.5" font-family="Helvetica,sans-Serif" font-size="10.00">/simple.cpp</text>
</a>
</g>
</g>
<!-- Node2&#45;&gt;Node4 -->
<g id="edge3" class="edge">
<title>Node2&#45;&gt;Node4</title>
<path fill="none" stroke="midnightblue" d="M345.97,-287.83C306.89,-277.16 256.77,-263.47 219.85,-253.39"/>
<polygon fill="midnightblue" stroke="midnightblue" points="345.08,-291.22 355.65,-290.48 346.93,-284.46 345.08,-291.22"/>
</g>
<!-- Node5 -->
<g id="node5" class="node">
<title>Node5</title>
<g id="a_node5"><a xlink:href="when__all_8cpp.html" target="_top" xlink:title=" ">
<polygon fill="none" stroke="black" points="237.5,-223.5 237.5,-253.5 338.5,-253.5 338.5,-223.5 237.5,-223.5"/>
<text text-anchor="start" x="245.5" y="-241.5" font-family="Helvetica,sans-Serif" font-size="10.00">test/example/async</text>
<text text-anchor="middle" x="288" y="-230.5" font-family="Helvetica,sans-Serif" font-size="10.00">/when_all.cpp</text>
</a>
</g>
</g>
<!-- Node2&#45;&gt;Node5 -->
<g id="edge4" class="edge">
<title>Node2&#45;&gt;Node5</title>
<path fill="none" stroke="midnightblue" d="M372.35,-285.57C353.63,-275.35 330.91,-262.94 313.77,-253.58"/>
<polygon fill="midnightblue" stroke="midnightblue" points="370.72,-288.67 381.18,-290.4 374.08,-282.53 370.72,-288.67"/>
</g>
<!-- Node6 -->
<g id="node6" class="node">
<title>Node6</title>
<g id="a_node6"><a xlink:href="when__any_8cpp.html" target="_top" xlink:title=" ">
<polygon fill="none" stroke="black" points="356.5,-223.5 356.5,-253.5 457.5,-253.5 457.5,-223.5 356.5,-223.5"/>
<text text-anchor="start" x="364.5" y="-241.5" font-family="Helvetica,sans-Serif" font-size="10.00">test/example/async</text>
<text text-anchor="middle" x="407" y="-230.5" font-family="Helvetica,sans-Serif" font-size="10.00">/when_any.cpp</text>
</a>
</g>
</g>
<!-- Node2&#45;&gt;Node6 -->
<g id="edge5" class="edge">
<title>Node2&#45;&gt;Node6</title>
<path fill="none" stroke="midnightblue" d="M407,-280.11C407,-271.15 407,-261.32 407,-253.58"/>
<polygon fill="midnightblue" stroke="midnightblue" points="403.5,-280.4 407,-290.4 410.5,-280.4 403.5,-280.4"/>
</g>
<!-- Node7 -->
<g id="node7" class="node">
<title>Node7</title>
<g id="a_node7"><a xlink:href="test_2example_2executor_2strand_8cpp.html" target="_top" xlink:title=" ">
<polygon fill="none" stroke="black" points="476,-223.5 476,-253.5 588,-253.5 588,-223.5 476,-223.5"/>
<text text-anchor="start" x="484" y="-241.5" font-family="Helvetica,sans-Serif" font-size="10.00">test/example/executor</text>
<text text-anchor="middle" x="532" y="-230.5" font-family="Helvetica,sans-Serif" font-size="10.00">/strand.cpp</text>
</a>
</g>
</g>
<!-- Node2&#45;&gt;Node7 -->
<g id="edge6" class="edge">
<title>Node2&#45;&gt;Node7</title>
<path fill="none" stroke="midnightblue" d="M443.13,-285.71C462.84,-275.46 486.84,-262.98 504.93,-253.58"/>
<polygon fill="midnightblue" stroke="midnightblue" points="441.38,-282.68 434.12,-290.4 444.61,-288.89 441.38,-282.68"/>
</g>
<!-- Node8 -->
<g id="node8" class="node">
<title>Node8</title>
<g id="a_node8"><a xlink:href="test_2example_2executor_2thread__pool_8cpp.html" target="_top" xlink:title=" ">
<polygon fill="none" stroke="black" points="606,-223.5 606,-253.5 718,-253.5 718,-223.5 606,-223.5"/>
<text text-anchor="start" x="614" y="-241.5" font-family="Helvetica,sans-Serif" font-size="10.00">test/example/executor</text>
<text text-anchor="middle" x="662" y="-230.5" font-family="Helvetica,sans-Serif" font-size="10.00">/thread_pool.cpp</text>
</a>
</g>
</g>
<!-- Node2&#45;&gt;Node8 -->
<g id="edge7" class="edge">
<title>Node2&#45;&gt;Node8</title>
<path fill="none" stroke="midnightblue" d="M471.79,-287.98C513.44,-277.37 566.98,-263.72 606.64,-253.61"/>
<polygon fill="midnightblue" stroke="midnightblue" points="470.84,-284.61 462.02,-290.48 472.57,-291.4 470.84,-284.61"/>
</g>
<!-- Node10 -->
<g id="node10" class="node">
<title>Node10</title>
<g id="a_node10"><a xlink:href="inject__fault_8hpp.html" target="_top" xlink:title=" ">
<polygon fill="none" stroke="black" points="736.5,-223.5 736.5,-253.5 847.5,-253.5 847.5,-223.5 736.5,-223.5"/>
<text text-anchor="start" x="744.5" y="-241.5" font-family="Helvetica,sans-Serif" font-size="10.00">include/yaclib/fault</text>
<text text-anchor="middle" x="792" y="-230.5" font-family="Helvetica,sans-Serif" font-size="10.00">/detail/inject_fault.hpp</text>
</a>
</g>
</g>
<!-- Node9&#45;&gt;Node10 -->
<g id="edge9" class="edge">
<title>Node9&#45;&gt;Node10</title>
<path fill="none" stroke="midnightblue" d="M792,-280.11C792,-271.15 792,-261.32 792,-253.58"/>
<polygon fill="midnightblue" stroke="midnightblue" points="788.5,-280.4 792,-290.4 795.5,-280.4 788.5,-280.4"/>
</g>
<!-- Node28 -->
<g id="node28" class="node">
<title>Node28</title>
<g id="a_node28"><a xlink:href="yielder_8cpp.html" target="_top" xlink:title=" ">
<polygon fill="none" stroke="black" points="866,-223.5 866,-253.5 966,-253.5 966,-223.5 866,-223.5"/>
<text text-anchor="start" x="874" y="-241.5" font-family="Helvetica,sans-Serif" font-size="10.00">src/fault/antagonist</text>
<text text-anchor="middle" x="916" y="-230.5" font-family="Helvetica,sans-Serif" font-size="10.00">/yielder.cpp</text>
</a>
</g>
</g>
<!-- Node9&#45;&gt;Node28 -->
<g id="edge27" class="edge">
<title>Node9&#45;&gt;Node28</title>
<path fill="none" stroke="midnightblue" d="M827.84,-285.71C847.39,-275.46 871.2,-262.98 889.15,-253.58"/>
<polygon fill="midnightblue" stroke="midnightblue" points="826.14,-282.65 818.91,-290.4 829.39,-288.85 826.14,-282.65"/>
</g>
<!-- Node11 -->
<g id="node11" class="node">
<title>Node11</title>
<g id="a_node11"><a xlink:href="atomic__base_8hpp.html" target="_top" xlink:title=" ">
<polygon fill="none" stroke="black" points="214.5,-145.5 214.5,-186.5 321.5,-186.5 321.5,-145.5 214.5,-145.5"/>
<text text-anchor="start" x="222.5" y="-174.5" font-family="Helvetica,sans-Serif" font-size="10.00">include/yaclib/fault</text>
<text text-anchor="start" x="222.5" y="-163.5" font-family="Helvetica,sans-Serif" font-size="10.00">/detail/atomic/atomic</text>
<text text-anchor="middle" x="268" y="-152.5" font-family="Helvetica,sans-Serif" font-size="10.00">_base.hpp</text>
</a>
</g>
</g>
<!-- Node10&#45;&gt;Node11 -->
<g id="edge10" class="edge">
<title>Node10&#45;&gt;Node11</title>
<path fill="none" stroke="midnightblue" d="M726.29,-223.05C550.12,-196.63 500.37,-221.76 330,-187 327.23,-186.43 324.41,-185.79 321.57,-185.08"/>
<polygon fill="midnightblue" stroke="midnightblue" points="726.01,-226.55 736.42,-224.61 727.07,-219.63 726.01,-226.55"/>
</g>
<!-- Node14 -->
<g id="node14" class="node">
<title>Node14</title>
<g id="a_node14"><a xlink:href="atomic__flag_8hpp.html" target="_top" xlink:title=" ">
<polygon fill="none" stroke="black" points="339.5,-145.5 339.5,-186.5 446.5,-186.5 446.5,-145.5 339.5,-145.5"/>
<text text-anchor="start" x="347.5" y="-174.5" font-family="Helvetica,sans-Serif" font-size="10.00">include/yaclib/fault</text>
<text text-anchor="start" x="347.5" y="-163.5" font-family="Helvetica,sans-Serif" font-size="10.00">/detail/atomic/atomic</text>
<text text-anchor="middle" x="393" y="-152.5" font-family="Helvetica,sans-Serif" font-size="10.00">_flag.hpp</text>
</a>
</g>
</g>
<!-- Node10&#45;&gt;Node14 -->
<g id="edge13" class="edge">
<title>Node10&#45;&gt;Node14</title>
<path fill="none" stroke="midnightblue" d="M726.35,-223.01C605.13,-202.32 570.82,-213.12 455,-187 452.24,-186.38 449.43,-185.69 446.6,-184.95"/>
<polygon fill="midnightblue" stroke="midnightblue" points="725.94,-226.49 736.4,-224.76 727.15,-219.59 725.94,-226.49"/>
</g>
<!-- Node15 -->
<g id="node15" class="node">
<title>Node15</title>
<g id="a_node15"><a xlink:href="detail_2mutex_2mutex_8hpp.html" target="_top" xlink:title=" ">
<polygon fill="none" stroke="black" points="464.5,-151 464.5,-181 583.5,-181 583.5,-151 464.5,-151"/>
<text text-anchor="start" x="472.5" y="-169" font-family="Helvetica,sans-Serif" font-size="10.00">include/yaclib/fault</text>
<text text-anchor="middle" x="524" y="-158" font-family="Helvetica,sans-Serif" font-size="10.00">/detail/mutex/mutex.hpp</text>
</a>
</g>
</g>
<!-- Node10&#45;&gt;Node15 -->
<g id="edge14" class="edge">
<title>Node10&#45;&gt;Node15</title>
<path fill="none" stroke="midnightblue" d="M726.05,-221.53C686.98,-211.9 636.56,-199.17 592,-187 585.12,-185.12 577.86,-183.06 570.75,-181.01"/>
<polygon fill="midnightblue" stroke="midnightblue" points="725.7,-225.05 736.24,-224.03 727.37,-218.25 725.7,-225.05"/>
</g>
<!-- Node17 -->
<g id="node17" class="node">
<title>Node17</title>
<g id="a_node17"><a xlink:href="recursive__mutex_8hpp.html" target="_top" xlink:title=" ">
<polygon fill="none" stroke="black" points="601.5,-145.5 601.5,-186.5 716.5,-186.5 716.5,-145.5 601.5,-145.5"/>
<text text-anchor="start" x="609.5" y="-174.5" font-family="Helvetica,sans-Serif" font-size="10.00">include/yaclib/fault</text>
<text text-anchor="start" x="609.5" y="-163.5" font-family="Helvetica,sans-Serif" font-size="10.00">/detail/mutex/recursive</text>
<text text-anchor="middle" x="659" y="-152.5" font-family="Helvetica,sans-Serif" font-size="10.00">_mutex.hpp</text>
</a>
</g>
</g>
<!-- Node10&#45;&gt;Node17 -->
<g id="edge16" class="edge">
<title>Node10&#45;&gt;Node17</title>
<path fill="none" stroke="midnightblue" d="M756.32,-218.59C737.62,-208.68 714.75,-196.55 695.87,-186.55"/>
<polygon fill="midnightblue" stroke="midnightblue" points="754.93,-221.81 765.41,-223.4 758.21,-215.63 754.93,-221.81"/>
</g>
<!-- Node19 -->
<g id="node19" class="node">
<title>Node19</title>
<g id="a_node19"><a xlink:href="recursive__timed__mutex_8hpp.html" target="_top" xlink:title=" ">
<polygon fill="none" stroke="black" points="734.5,-145.5 734.5,-186.5 849.5,-186.5 849.5,-145.5 734.5,-145.5"/>
<text text-anchor="start" x="742.5" y="-174.5" font-family="Helvetica,sans-Serif" font-size="10.00">include/yaclib/fault</text>
<text text-anchor="start" x="742.5" y="-163.5" font-family="Helvetica,sans-Serif" font-size="10.00">/detail/mutex/recursive</text>
<text text-anchor="middle" x="792" y="-152.5" font-family="Helvetica,sans-Serif" font-size="10.00">_timed_mutex.hpp</text>
</a>
</g>
</g>
<!-- Node10&#45;&gt;Node19 -->
<g id="edge18" class="edge">
<title>Node10&#45;&gt;Node19</title>
<path fill="none" stroke="midnightblue" d="M792,-212.98C792,-204.35 792,-194.76 792,-186.59"/>
<polygon fill="midnightblue" stroke="midnightblue" points="788.5,-213.23 792,-223.23 795.5,-213.23 788.5,-213.23"/>
</g>
<!-- Node21 -->
<g id="node21" class="node">
<title>Node21</title>
<g id="a_node21"><a xlink:href="detail_2mutex_2shared__mutex_8hpp.html" target="_top" xlink:title=" ">
<polygon fill="none" stroke="black" points="868,-145.5 868,-186.5 972,-186.5 972,-145.5 868,-145.5"/>
<text text-anchor="start" x="876" y="-174.5" font-family="Helvetica,sans-Serif" font-size="10.00">include/yaclib/fault</text>
<text text-anchor="start" x="876" y="-163.5" font-family="Helvetica,sans-Serif" font-size="10.00">/detail/mutex/shared</text>
<text text-anchor="middle" x="920" y="-152.5" font-family="Helvetica,sans-Serif" font-size="10.00">_mutex.hpp</text>
</a>
</g>
</g>
<!-- Node10&#45;&gt;Node21 -->
<g id="edge20" class="edge">
<title>Node10&#45;&gt;Node21</title>
<path fill="none" stroke="midnightblue" d="M826.55,-218.47C844.42,-208.63 866.22,-196.62 884.27,-186.68"/>
<polygon fill="midnightblue" stroke="midnightblue" points="824.67,-215.51 817.6,-223.4 828.04,-221.64 824.67,-215.51"/>
</g>
<!-- Node23 -->
<g id="node23" class="node">
<title>Node23</title>
<g id="a_node23"><a xlink:href="shared__timed__mutex_8hpp.html" target="_top" xlink:title=" ">
<polygon fill="none" stroke="black" points="990,-145.5 990,-186.5 1094,-186.5 1094,-145.5 990,-145.5"/>
<text text-anchor="start" x="998" y="-174.5" font-family="Helvetica,sans-Serif" font-size="10.00">include/yaclib/fault</text>
<text text-anchor="start" x="998" y="-163.5" font-family="Helvetica,sans-Serif" font-size="10.00">/detail/mutex/shared</text>
<text text-anchor="middle" x="1042" y="-152.5" font-family="Helvetica,sans-Serif" font-size="10.00">_timed_mutex.hpp</text>
</a>
</g>
</g>
<!-- Node10&#45;&gt;Node23 -->
<g id="edge22" class="edge">
<title>Node10&#45;&gt;Node23</title>
<path fill="none" stroke="midnightblue" d="M857.66,-220.92C894.12,-211.47 940.23,-199.12 981,-187 983.88,-186.14 986.84,-185.24 989.82,-184.32"/>
<polygon fill="midnightblue" stroke="midnightblue" points="856.45,-217.61 847.64,-223.5 858.19,-224.39 856.45,-217.61"/>
</g>
<!-- Node25 -->
<g id="node25" class="node">
<title>Node25</title>
<g id="a_node25"><a xlink:href="timed__mutex_8hpp.html" target="_top" xlink:title=" ">
<polygon fill="none" stroke="black" points="1112.5,-151 1112.5,-181 1261.5,-181 1261.5,-151 1112.5,-151"/>
<text text-anchor="start" x="1120.5" y="-169" font-family="Helvetica,sans-Serif" font-size="10.00">include/yaclib/fault</text>
<text text-anchor="middle" x="1187" y="-158" font-family="Helvetica,sans-Serif" font-size="10.00">/detail/mutex/timed_mutex.hpp</text>
</a>
</g>
</g>
<!-- Node10&#45;&gt;Node25 -->
<g id="edge24" class="edge">
<title>Node10&#45;&gt;Node25</title>
<path fill="none" stroke="midnightblue" d="M857.76,-222.96C967.42,-203.22 997.66,-207.21 1103,-187 1112.13,-185.25 1121.76,-183.17 1131.12,-181.03"/>
<polygon fill="midnightblue" stroke="midnightblue" points="856.82,-219.57 847.61,-224.81 858.08,-226.46 856.82,-219.57"/>
</g>
<!-- Node27 -->
<g id="node27" class="node">
<title>Node27</title>
<g id="a_node27"><a xlink:href="inject__fault_8cpp.html" target="_top" xlink:title=" ">
<polygon fill="none" stroke="black" points="1280,-151 1280,-181 1380,-181 1380,-151 1280,-151"/>
<text text-anchor="start" x="1288" y="-169" font-family="Helvetica,sans-Serif" font-size="10.00">src/fault/antagonist</text>
<text text-anchor="middle" x="1330" y="-158" font-family="Helvetica,sans-Serif" font-size="10.00">/inject_fault.cpp</text>
</a>
</g>
</g>
<!-- Node10&#45;&gt;Node27 -->
<g id="edge26" class="edge">
<title>Node10&#45;&gt;Node27</title>
<path fill="none" stroke="midnightblue" d="M857.57,-223.08C1041.36,-195.87 1093.42,-224.25 1271,-187 1278.2,-185.49 1285.73,-183.37 1292.92,-181.07"/>
<polygon fill="midnightblue" stroke="midnightblue" points="856.94,-219.63 847.58,-224.59 857.99,-226.55 856.94,-219.63"/>
</g>
<!-- Node12 -->
<g id="node12" class="node">
<title>Node12</title>
<g id="a_node12"><a xlink:href="detail_2atomic_2atomic_8hpp.html" target="_top" xlink:title=" ">
<polygon fill="none" stroke="black" points="205.5,-78.5 205.5,-108.5 330.5,-108.5 330.5,-78.5 205.5,-78.5"/>
<text text-anchor="start" x="213.5" y="-96.5" font-family="Helvetica,sans-Serif" font-size="10.00">include/yaclib/fault</text>
<text text-anchor="middle" x="268" y="-85.5" font-family="Helvetica,sans-Serif" font-size="10.00">/detail/atomic/atomic.hpp</text>
</a>
</g>
</g>
<!-- Node11&#45;&gt;Node12 -->
<g id="edge11" class="edge">
<title>Node11&#45;&gt;Node12</title>
<path fill="none" stroke="midnightblue" d="M268,-135.08C268,-126.01 268,-116.45 268,-108.89"/>
<polygon fill="midnightblue" stroke="midnightblue" points="264.5,-135.36 268,-145.36 271.5,-135.36 264.5,-135.36"/>
</g>
<!-- Node13 -->
<g id="node13" class="node">
<title>Node13</title>
<g id="a_node13"><a xlink:href="atomic__reference_8hpp.html" target="_top" xlink:title=" ">
<polygon fill="none" stroke="black" points="214.5,-0.5 214.5,-41.5 321.5,-41.5 321.5,-0.5 214.5,-0.5"/>
<text text-anchor="start" x="222.5" y="-29.5" font-family="Helvetica,sans-Serif" font-size="10.00">include/yaclib/fault</text>
<text text-anchor="start" x="222.5" y="-18.5" font-family="Helvetica,sans-Serif" font-size="10.00">/detail/atomic/atomic</text>
<text text-anchor="middle" x="268" y="-7.5" font-family="Helvetica,sans-Serif" font-size="10.00">_reference.hpp</text>
</a>
</g>
</g>
<!-- Node12&#45;&gt;Node13 -->
<g id="edge12" class="edge">
<title>Node12&#45;&gt;Node13</title>
<path fill="none" stroke="midnightblue" d="M268,-67.98C268,-59.35 268,-49.76 268,-41.59"/>
<polygon fill="midnightblue" stroke="midnightblue" points="264.5,-68.23 268,-78.23 271.5,-68.23 264.5,-68.23"/>
</g>
<!-- Node16 -->
<g id="node16" class="node">
<title>Node16</title>
<g id="a_node16"><a xlink:href="mutex_8cpp.html" target="_top" xlink:title=" ">
<polygon fill="none" stroke="black" points="441,-84 441,-103 569,-103 569,-84 441,-84"/>
<text text-anchor="middle" x="505" y="-91" font-family="Helvetica,sans-Serif" font-size="10.00">src/fault/mutex/mutex.cpp</text>
</a>
</g>
</g>
<!-- Node15&#45;&gt;Node16 -->
<g id="edge15" class="edge">
<title>Node15&#45;&gt;Node16</title>
<path fill="none" stroke="midnightblue" d="M517.53,-140.98C514.03,-128.01 509.93,-112.79 507.4,-103.39"/>
<polygon fill="midnightblue" stroke="midnightblue" points="514.17,-141.99 520.16,-150.73 520.93,-140.17 514.17,-141.99"/>
</g>
<!-- Node18 -->
<g id="node18" class="node">
<title>Node18</title>
<g id="a_node18"><a xlink:href="recursive__mutex_8cpp.html" target="_top" xlink:title=" ">
<polygon fill="none" stroke="black" points="587,-78.5 587,-108.5 711,-108.5 711,-78.5 587,-78.5"/>
<text text-anchor="start" x="595" y="-96.5" font-family="Helvetica,sans-Serif" font-size="10.00">src/fault/mutex/recursive</text>
<text text-anchor="middle" x="649" y="-85.5" font-family="Helvetica,sans-Serif" font-size="10.00">_mutex.cpp</text>
</a>
</g>
</g>
<!-- Node17&#45;&gt;Node18 -->
<g id="edge17" class="edge">
<title>Node17&#45;&gt;Node18</title>
<path fill="none" stroke="midnightblue" d="M654.8,-135.38C653.5,-126.21 652.13,-116.53 651.04,-108.89"/>
<polygon fill="midnightblue" stroke="midnightblue" points="651.34,-135.95 656.21,-145.36 658.28,-134.97 651.34,-135.95"/>
</g>
<!-- Node20 -->
<g id="node20" class="node">
<title>Node20</title>
<g id="a_node20"><a xlink:href="recursive__timed__mutex_8cpp.html" target="_top" xlink:title=" ">
<polygon fill="none" stroke="black" points="729,-78.5 729,-108.5 853,-108.5 853,-78.5 729,-78.5"/>
<text text-anchor="start" x="737" y="-96.5" font-family="Helvetica,sans-Serif" font-size="10.00">src/fault/mutex/recursive</text>
<text text-anchor="middle" x="791" y="-85.5" font-family="Helvetica,sans-Serif" font-size="10.00">_timed_mutex.cpp</text>
</a>
</g>
</g>
<!-- Node19&#45;&gt;Node20 -->
<g id="edge19" class="edge">
<title>Node19&#45;&gt;Node20</title>
<path fill="none" stroke="midnightblue" d="M791.58,-135.08C791.45,-126.01 791.31,-116.45 791.2,-108.89"/>
<polygon fill="midnightblue" stroke="midnightblue" points="788.08,-135.41 791.72,-145.36 795.08,-135.31 788.08,-135.41"/>
</g>
<!-- Node22 -->
<g id="node22" class="node">
<title>Node22</title>
<g id="a_node22"><a xlink:href="shared__mutex_8cpp.html" target="_top" xlink:title=" ">
<polygon fill="none" stroke="black" points="871.5,-78.5 871.5,-108.5 984.5,-108.5 984.5,-78.5 871.5,-78.5"/>
<text text-anchor="start" x="879.5" y="-96.5" font-family="Helvetica,sans-Serif" font-size="10.00">src/fault/mutex/shared</text>
<text text-anchor="middle" x="928" y="-85.5" font-family="Helvetica,sans-Serif" font-size="10.00">_mutex.cpp</text>
</a>
</g>
</g>
<!-- Node21&#45;&gt;Node22 -->
<g id="edge21" class="edge">
<title>Node21&#45;&gt;Node22</title>
<path fill="none" stroke="midnightblue" d="M923.36,-135.38C924.4,-126.21 925.5,-116.53 926.37,-108.89"/>
<polygon fill="midnightblue" stroke="midnightblue" points="919.88,-135.03 922.23,-145.36 926.83,-135.82 919.88,-135.03"/>
</g>
<!-- Node24 -->
<g id="node24" class="node">
<title>Node24</title>
<g id="a_node24"><a xlink:href="shared__timed__mutex_8cpp.html" target="_top" xlink:title=" ">
<polygon fill="none" stroke="black" points="1002.5,-78.5 1002.5,-108.5 1115.5,-108.5 1115.5,-78.5 1002.5,-78.5"/>
<text text-anchor="start" x="1010.5" y="-96.5" font-family="Helvetica,sans-Serif" font-size="10.00">src/fault/mutex/shared</text>
<text text-anchor="middle" x="1059" y="-85.5" font-family="Helvetica,sans-Serif" font-size="10.00">_timed_mutex.cpp</text>
</a>
</g>
</g>
<!-- Node23&#45;&gt;Node24 -->
<g id="edge23" class="edge">
<title>Node23&#45;&gt;Node24</title>
<path fill="none" stroke="midnightblue" d="M1049.14,-135.38C1051.35,-126.21 1053.69,-116.53 1055.53,-108.89"/>
<polygon fill="midnightblue" stroke="midnightblue" points="1045.68,-134.82 1046.74,-145.36 1052.48,-136.46 1045.68,-134.82"/>
</g>
<!-- Node26 -->
<g id="node26" class="node">
<title>Node26</title>
<g id="a_node26"><a xlink:href="timed__mutex_8cpp.html" target="_top" xlink:title=" ">
<polygon fill="none" stroke="black" points="1134,-78.5 1134,-108.5 1242,-108.5 1242,-78.5 1134,-78.5"/>
<text text-anchor="start" x="1142" y="-96.5" font-family="Helvetica,sans-Serif" font-size="10.00">src/fault/mutex/timed</text>
<text text-anchor="middle" x="1188" y="-85.5" font-family="Helvetica,sans-Serif" font-size="10.00">_mutex.cpp</text>
</a>
</g>
</g>
<!-- Node25&#45;&gt;Node26 -->
<g id="edge25" class="edge">
<title>Node25&#45;&gt;Node26</title>
<path fill="none" stroke="midnightblue" d="M1187.34,-140.73C1187.5,-130.07 1187.67,-117.91 1187.8,-108.75"/>
<polygon fill="midnightblue" stroke="midnightblue" points="1183.84,-140.68 1187.2,-150.73 1190.84,-140.78 1183.84,-140.68"/>
</g>
</g>
</svg>
        <g id="navigator" transform="translate(0 0)" fill="#404254">
                <rect fill="#f2f5e9" fill-opacity="0.5" stroke="#606060" stroke-width=".5" x="0" y="0" width="60" height="60"/>
                <use id="zoomplus" xlink:href="#zoomPlus" x="17" y="9" onmousedown="handleZoom(evt,'in')"/>
                <use id="zoomminus" xlink:href="#zoomMin" x="42" y="9" onmousedown="handleZoom(evt,'out')"/>
                <use id="reset" xlink:href="#resetDef" x="30" y="36" onmousedown="handleReset()"/>
                <g id="arrowUp" xlink:href="#dirArrow" transform="translate(30 24)" onmousedown="handlePan(0,-1)">
                  <use xlink:href="#rim" fill="#404040">
                        <set attributeName="fill" to="#808080" begin="arrowUp.mouseover" end="arrowUp.mouseout"/>
                  </use>
                  <path fill="none" stroke="white" stroke-width="1.5" d="M0,-3.0v7 M-2.5,-0.5L0,-3.0L2.5,-0.5"/>
                </g>
                <g id="arrowRight" xlink:href="#dirArrow" transform="rotate(90) translate(36 -43)" onmousedown="handlePan(1,0)">
                  <use xlink:href="#rim" fill="#404040">
                        <set attributeName="fill" to="#808080" begin="arrowRight.mouseover" end="arrowRight.mouseout"/>
                  </use>
                  <path fill="none" stroke="white" stroke-width="1.5" d="M0,-3.0v7 M-2.5,-0.5L0,-3.0L2.5,-0.5"/>
                </g>
                <g id="arrowDown" xlink:href="#dirArrow" transform="rotate(180) translate(-30 -48)" onmousedown="handlePan(0,1)">
                  <use xlink:href="#rim" fill="#404040">
                        <set attributeName="fill" to="#808080" begin="arrowDown.mouseover" end="arrowDown.mouseout"/>
                  </use>
                  <path fill="none" stroke="white" stroke-width="1.5" d="M0,-3.0v7 M-2.5,-0.5L0,-3.0L2.5,-0.5"/>
                </g>
                <g id="arrowLeft" xlink:href="#dirArrow" transform="rotate(270) translate(-36 17)" onmousedown="handlePan(-1,0)">
                  <use xlink:href="#rim" fill="#404040">
                        <set attributeName="fill" to="#808080" begin="arrowLeft.mouseover" end="arrowLeft.mouseout"/>
                  </use>
                  <path fill="none" stroke="white" stroke-width="1.5" d="M0,-3.0v7 M-2.5,-0.5L0,-3.0L2.5,-0.5"/>
                </g>
        </g>
        <svg viewBox="0 0 15 15" width="100%" height="30px" preserveAspectRatio="xMaxYMin meet">
         <g id="arrow_out" transform="scale(0.3 0.3)">
          <a xlink:href="thread_8hpp__dep__incl_org.svg" target="_base">
           <rect id="button" ry="5" rx="5" y="6" x="6" height="38" width="38"
                fill="#f2f5e9" fill-opacity="0.5" stroke="#606060" stroke-width="1.0"/>
           <path id="arrow"
             d="M 11.500037,31.436501 C 11.940474,20.09759 22.043105,11.32322 32.158766,21.979434 L 37.068811,17.246167 C 37.068811,17.246167 37.088388,32 37.088388,32 L 22.160133,31.978069 C 22.160133,31.978069 26.997745,27.140456 26.997745,27.140456 C 18.528582,18.264221 13.291696,25.230495 11.500037,31.436501 z"
             style="fill:#404040;"/>
          </a>
         </g>
        </svg>
</svg>
