<?xml version="1.0" encoding="UTF-8" standalone="no"?>
<!DOCTYPE svg PUBLIC "-//W3C//DTD SVG 1.1//EN"
 "http://www.w3.org/Graphics/SVG/1.1/DTD/svg11.dtd">
<!-- Generated by graphviz version 2.50.0 (20220203.2022)
 -->
<!-- Title: include/yaclib/executor/thread_factory.hpp Pages: 1 -->
<!--zoomable 408 -->
<svg id="main" version="1.1" xmlns="http://www.w3.org/2000/svg" xmlns:xlink="http://www.w3.org/1999/xlink" xml:space="preserve" onload="init(evt)">
<style type="text/css"><![CDATA[
.edge:hover path { stroke: red; }
.edge:hover polygon { stroke: red; fill: red; }
]]></style>
<script type="text/javascript"><![CDATA[
var edges = document.getElementsByTagName('g');
if (edges && edges.length) {
  for (var i=0;i<edges.length;i++) {
    if (edges[i].id.substr(0,4)=='edge') {
      edges[i].setAttribute('class','edge');
    }
  }
}
]]></script>
        <defs>
                <circle id="rim" cx="0" cy="0" r="7"/>
                <circle id="rim2" cx="0" cy="0" r="3.5"/>
                <g id="zoomPlus">
                        <use xlink:href="#rim" fill="#404040">
                                <set attributeName="fill" to="#808080" begin="zoomplus.mouseover" end="zoomplus.mouseout"/>
                        </use>
                        <path d="M-4,0h8M0,-4v8" fill="none" stroke="white" stroke-width="1.5" pointer-events="none"/>
                </g>
                <g id="zoomMin">
                        <use xlink:href="#rim" fill="#404040">
                                <set attributeName="fill" to="#808080" begin="zoomminus.mouseover" end="zoomminus.mouseout"/>
                        </use>
                        <path d="M-4,0h8" fill="none" stroke="white" stroke-width="1.5" pointer-events="none"/>
                </g>
                <g id="dirArrow">
                        <path fill="none" stroke="white" stroke-width="1.5" d="M0,-3.0v7 M-2.5,-0.5L0,-3.0L2.5,-0.5"/>
                </g>
               <g id="resetDef">
                       <use xlink:href="#rim2" fill="#404040">
                               <set attributeName="fill" to="#808080" begin="reset.mouseover" end="reset.mouseout"/>
                       </use>
               </g>
        </defs>

<script type="text/javascript">
var viewWidth = 953;
var viewHeight = 408;
var sectionId = 'dynsection-0';
</script>
<script xlink:href="svgpan.js"/>
<svg id="graph" class="graph">
<g id="viewport">
<title>include/yaclib/executor/thread_factory.hpp</title>
<!-- Node1 -->
<g id="node1" class="node">
<title>Node1</title>
<g id="a_node1"><a xlink:title=" ">
<polygon fill="#bfbfbf" stroke="black" points="714.5,-369.5 714.5,-399.5 829.5,-399.5 829.5,-369.5 714.5,-369.5"/>
<text text-anchor="start" x="722.5" y="-387.5" font-family="Helvetica,sans-Serif" font-size="10.00">include/yaclib/executor</text>
<text text-anchor="middle" x="772" y="-376.5" font-family="Helvetica,sans-Serif" font-size="10.00">/thread_factory.hpp</text>
</a>
</g>
</g>
<!-- Node2 -->
<g id="node2" class="node">
<title>Node2</title>
<g id="a_node2"><a xlink:title=" ">
<polygon fill="none" stroke="#bfbfbf" points="488,-0.5 488,-19.5 576,-19.5 576,-0.5 488,-0.5"/>
<text text-anchor="middle" x="532" y="-7.5" font-family="Helvetica,sans-Serif" font-size="10.00">yaclib/config.hpp</text>
</a>
</g>
</g>
<!-- Node1&#45;&gt;Node2 -->
<g id="edge1" class="edge">
<title>Node1&#45;&gt;Node2</title>
<path fill="none" stroke="midnightblue" d="M789.14,-369.43C812.38,-348.67 851,-307.41 851,-262.5 851,-262.5 851,-262.5 851,-137.5 851,-98.08 847.11,-80.21 816,-56 781.12,-28.87 658.65,-17.74 586.43,-13.46"/>
<polygon fill="midnightblue" stroke="midnightblue" points="586.34,-9.95 576.15,-12.87 585.94,-16.94 586.34,-9.95"/>
</g>
<!-- Node3 -->
<g id="node3" class="node">
<title>Node3</title>
<g id="a_node3"><a xlink:href="task_8hpp.html" target="_top" xlink:title=" ">
<polygon fill="none" stroke="black" points="603.5,-313.5 603.5,-332.5 724.5,-332.5 724.5,-313.5 603.5,-313.5"/>
<text text-anchor="middle" x="664" y="-320.5" font-family="Helvetica,sans-Serif" font-size="10.00">yaclib/executor/task.hpp</text>
</a>
</g>
</g>
<!-- Node1&#45;&gt;Node3 -->
<g id="edge2" class="edge">
<title>Node1&#45;&gt;Node3</title>
<path fill="none" stroke="midnightblue" d="M746.41,-369.4C728.93,-359.77 705.91,-347.09 688.64,-337.58"/>
<polygon fill="midnightblue" stroke="midnightblue" points="690.16,-334.42 679.71,-332.66 686.78,-340.55 690.16,-334.42"/>
</g>
<!-- Node4 -->
<g id="node4" class="node">
<title>Node4</title>
<g id="a_node4"><a xlink:href="node_8hpp.html" target="_top" xlink:title=" ">
<polygon fill="none" stroke="black" points="730.5,-246.5 730.5,-276.5 813.5,-276.5 813.5,-246.5 730.5,-246.5"/>
<text text-anchor="start" x="738.5" y="-264.5" font-family="Helvetica,sans-Serif" font-size="10.00">yaclib/util/detail</text>
<text text-anchor="middle" x="772" y="-253.5" font-family="Helvetica,sans-Serif" font-size="10.00">/node.hpp</text>
</a>
</g>
</g>
<!-- Node1&#45;&gt;Node4 -->
<g id="edge36" class="edge">
<title>Node1&#45;&gt;Node4</title>
<path fill="none" stroke="midnightblue" d="M772,-369.14C772,-348.86 772,-311.53 772,-286.86"/>
<polygon fill="midnightblue" stroke="midnightblue" points="775.5,-286.84 772,-276.84 768.5,-286.84 775.5,-286.84"/>
</g>
<!-- Node11 -->
<g id="node11" class="node">
<title>Node11</title>
<g id="a_node11"><a xlink:title=" ">
<polygon fill="none" stroke="#bfbfbf" points="13.5,-0.5 13.5,-19.5 62.5,-19.5 62.5,-0.5 13.5,-0.5"/>
<text text-anchor="middle" x="38" y="-7.5" font-family="Helvetica,sans-Serif" font-size="10.00">cstddef</text>
</a>
</g>
</g>
<!-- Node1&#45;&gt;Node11 -->
<g id="edge37" class="edge">
<title>Node1&#45;&gt;Node11</title>
<path fill="none" stroke="midnightblue" d="M714.29,-380.54C535.06,-370.58 0,-334.78 0,-262.5 0,-262.5 0,-262.5 0,-137.5 0,-97.35 17.78,-52.95 29.01,-28.89"/>
<polygon fill="midnightblue" stroke="midnightblue" points="32.29,-30.15 33.49,-19.63 25.99,-27.1 32.29,-30.15"/>
</g>
<!-- Node19 -->
<g id="node19" class="node">
<title>Node19</title>
<g id="a_node19"><a xlink:title=" ">
<polygon fill="none" stroke="#bfbfbf" points="879,-313.5 879,-332.5 945,-332.5 945,-313.5 879,-313.5"/>
<text text-anchor="middle" x="912" y="-320.5" font-family="Helvetica,sans-Serif" font-size="10.00">string_view</text>
</a>
</g>
</g>
<!-- Node1&#45;&gt;Node19 -->
<g id="edge38" class="edge">
<title>Node1&#45;&gt;Node19</title>
<path fill="none" stroke="midnightblue" d="M805.18,-369.4C828.56,-359.46 859.61,-346.26 882.21,-336.66"/>
<polygon fill="midnightblue" stroke="midnightblue" points="883.79,-339.79 891.63,-332.66 881.06,-333.35 883.79,-339.79"/>
</g>
<!-- Node3&#45;&gt;Node2 -->
<g id="edge3" class="edge">
<title>Node3&#45;&gt;Node2</title>
<path fill="none" stroke="midnightblue" d="M664.72,-313.33C667.24,-276.9 672.09,-134.54 602,-56 590.36,-42.95 574.07,-32.18 560.14,-24.45"/>
<polygon fill="midnightblue" stroke="midnightblue" points="561.43,-21.17 550.95,-19.59 558.16,-27.36 561.43,-21.17"/>
</g>
<!-- Node3&#45;&gt;Node4 -->
<g id="edge4" class="edge">
<title>Node3&#45;&gt;Node4</title>
<path fill="none" stroke="midnightblue" d="M679.47,-313.48C694.58,-305.15 718.08,-292.21 737.61,-281.45"/>
<polygon fill="midnightblue" stroke="midnightblue" points="739.48,-284.41 746.55,-276.52 736.1,-278.28 739.48,-284.41"/>
</g>
<!-- Node5 -->
<g id="node5" class="node">
<title>Node5</title>
<g id="a_node5"><a xlink:href="func_8hpp.html" target="_top" xlink:title=" ">
<polygon fill="none" stroke="black" points="378.5,-252 378.5,-271 475.5,-271 475.5,-252 378.5,-252"/>
<text text-anchor="middle" x="427" y="-259" font-family="Helvetica,sans-Serif" font-size="10.00">yaclib/util/func.hpp</text>
</a>
</g>
</g>
<!-- Node3&#45;&gt;Node5 -->
<g id="edge6" class="edge">
<title>Node3&#45;&gt;Node5</title>
<path fill="none" stroke="midnightblue" d="M630.04,-313.48C588.16,-302.96 516.87,-285.06 470.87,-273.51"/>
<polygon fill="midnightblue" stroke="midnightblue" points="471.44,-270.05 460.89,-271.01 469.74,-276.84 471.44,-270.05"/>
</g>
<!-- Node4&#45;&gt;Node2 -->
<g id="edge5" class="edge">
<title>Node4&#45;&gt;Node2</title>
<path fill="none" stroke="midnightblue" d="M779.75,-246.32C798.48,-209.91 841.29,-112.11 794,-56 767.97,-25.12 655.08,-15.43 586.26,-12.39"/>
<polygon fill="midnightblue" stroke="midnightblue" points="586.16,-8.88 576.02,-11.97 585.87,-15.88 586.16,-8.88"/>
</g>
<!-- Node5&#45;&gt;Node2 -->
<g id="edge7" class="edge">
<title>Node5&#45;&gt;Node2</title>
<path fill="none" stroke="midnightblue" d="M378.14,-257.06C284.93,-248.27 95.06,-218.46 143,-123 145.8,-117.43 227.25,-58.4 233,-56 313.74,-22.37 416.03,-13.45 477.62,-11.33"/>
<polygon fill="midnightblue" stroke="midnightblue" points="478,-14.82 487.89,-11.02 477.79,-7.82 478,-14.82"/>
</g>
<!-- Node6 -->
<g id="node6" class="node">
<title>Node6</title>
<g id="a_node6"><a xlink:href="safe__call_8hpp.html" target="_top" xlink:title=" ">
<polygon fill="none" stroke="black" points="350.5,-123.5 350.5,-153.5 433.5,-153.5 433.5,-123.5 350.5,-123.5"/>
<text text-anchor="start" x="358.5" y="-141.5" font-family="Helvetica,sans-Serif" font-size="10.00">yaclib/util/detail</text>
<text text-anchor="middle" x="392" y="-130.5" font-family="Helvetica,sans-Serif" font-size="10.00">/safe_call.hpp</text>
</a>
</g>
</g>
<!-- Node5&#45;&gt;Node6 -->
<g id="edge8" class="edge">
<title>Node5&#45;&gt;Node6</title>
<path fill="none" stroke="midnightblue" d="M424.48,-251.8C419.2,-233.52 406.78,-190.6 398.92,-163.43"/>
<polygon fill="midnightblue" stroke="midnightblue" points="402.2,-162.17 396.06,-153.54 395.48,-164.12 402.2,-162.17"/>
</g>
<!-- Node7 -->
<g id="node7" class="node">
<title>Node7</title>
<g id="a_node7"><a xlink:title=" ">
<polygon fill="none" stroke="#bfbfbf" points="408,-62 408,-81 470,-81 470,-62 408,-62"/>
<text text-anchor="middle" x="439" y="-69" font-family="Helvetica,sans-Serif" font-size="10.00">type_traits</text>
</a>
</g>
</g>
<!-- Node5&#45;&gt;Node7 -->
<g id="edge34" class="edge">
<title>Node5&#45;&gt;Node7</title>
<path fill="none" stroke="midnightblue" d="M428.72,-251.99C432.26,-234 440.26,-190.73 443,-154 444.03,-140.26 443.54,-136.77 443,-123 442.58,-112.5 441.69,-100.81 440.85,-91.32"/>
<polygon fill="midnightblue" stroke="midnightblue" points="444.3,-90.7 439.89,-81.07 437.33,-91.35 444.3,-90.7"/>
</g>
<!-- Node8 -->
<g id="node8" class="node">
<title>Node8</title>
<g id="a_node8"><a xlink:title=" ">
<polygon fill="none" stroke="#bfbfbf" points="312.5,-62 312.5,-81 351.5,-81 351.5,-62 312.5,-62"/>
<text text-anchor="middle" x="332" y="-69" font-family="Helvetica,sans-Serif" font-size="10.00">utility</text>
</a>
</g>
</g>
<!-- Node5&#45;&gt;Node8 -->
<g id="edge35" class="edge">
<title>Node5&#45;&gt;Node8</title>
<path fill="none" stroke="midnightblue" d="M416.85,-251.76C398.15,-234.97 358.54,-196.12 341,-154 332.64,-133.93 331.05,-108.79 331.13,-91.78"/>
<polygon fill="midnightblue" stroke="midnightblue" points="334.64,-91.55 331.39,-81.47 327.64,-91.38 334.64,-91.55"/>
</g>
<!-- Node9 -->
<g id="node9" class="node">
<title>Node9</title>
<g id="a_node9"><a xlink:href="helper_8hpp.html" target="_top" xlink:title=" ">
<polygon fill="none" stroke="black" points="190,-190.5 190,-209.5 294,-209.5 294,-190.5 190,-190.5"/>
<text text-anchor="middle" x="242" y="-197.5" font-family="Helvetica,sans-Serif" font-size="10.00">yaclib/util/helper.hpp</text>
</a>
</g>
</g>
<!-- Node5&#45;&gt;Node9 -->
<g id="edge12" class="edge">
<title>Node5&#45;&gt;Node9</title>
<path fill="none" stroke="midnightblue" d="M400.49,-251.98C368.35,-241.64 314.01,-224.16 278.07,-212.6"/>
<polygon fill="midnightblue" stroke="midnightblue" points="279.05,-209.24 268.46,-209.51 276.9,-215.9 279.05,-209.24"/>
</g>
<!-- Node15 -->
<g id="node15" class="node">
<title>Node15</title>
<g id="a_node15"><a xlink:href="intrusive__ptr_8hpp.html" target="_top" xlink:title=" ">
<polygon fill="none" stroke="black" points="528.5,-123.5 528.5,-153.5 625.5,-153.5 625.5,-123.5 528.5,-123.5"/>
<text text-anchor="start" x="536.5" y="-141.5" font-family="Helvetica,sans-Serif" font-size="10.00">yaclib/util/intrusive</text>
<text text-anchor="middle" x="577" y="-130.5" font-family="Helvetica,sans-Serif" font-size="10.00">_ptr.hpp</text>
</a>
</g>
</g>
<!-- Node5&#45;&gt;Node15 -->
<g id="edge32" class="edge">
<title>Node5&#45;&gt;Node15</title>
<path fill="none" stroke="midnightblue" d="M445.39,-251.97C463.77,-242.96 492.34,-227.65 514,-210 531.45,-195.79 548.27,-176.58 560.14,-161.8"/>
<polygon fill="midnightblue" stroke="midnightblue" points="563.09,-163.71 566.52,-153.68 557.59,-159.38 563.09,-163.71"/>
</g>
<!-- Node16 -->
<g id="node16" class="node">
<title>Node16</title>
<g id="a_node16"><a xlink:href="ref_8hpp.html" target="_top" xlink:title=" ">
<polygon fill="none" stroke="black" points="487.5,-62 487.5,-81 576.5,-81 576.5,-62 487.5,-62"/>
<text text-anchor="middle" x="532" y="-69" font-family="Helvetica,sans-Serif" font-size="10.00">yaclib/util/ref.hpp</text>
</a>
</g>
</g>
<!-- Node5&#45;&gt;Node16 -->
<g id="edge33" class="edge">
<title>Node5&#45;&gt;Node16</title>
<path fill="none" stroke="midnightblue" d="M431.78,-251.93C447.88,-223.12 500.26,-129.34 522.19,-90.06"/>
<polygon fill="midnightblue" stroke="midnightblue" points="525.37,-91.55 527.19,-81.12 519.26,-88.14 525.37,-91.55"/>
</g>
<!-- Node6&#45;&gt;Node2 -->
<g id="edge9" class="edge">
<title>Node6&#45;&gt;Node2</title>
<path fill="none" stroke="midnightblue" d="M388.95,-123.45C385.97,-105.75 383.84,-75.33 399,-56 417.76,-32.08 449.79,-20.79 477.72,-15.5"/>
<polygon fill="midnightblue" stroke="midnightblue" points="478.51,-18.91 487.8,-13.8 477.36,-12.01 478.51,-18.91"/>
</g>
<!-- Node6&#45;&gt;Node7 -->
<g id="edge10" class="edge">
<title>Node6&#45;&gt;Node7</title>
<path fill="none" stroke="midnightblue" d="M402.2,-123.4C409.38,-113.46 419.04,-100.11 426.66,-89.57"/>
<polygon fill="midnightblue" stroke="midnightblue" points="429.69,-91.35 432.71,-81.19 424.02,-87.25 429.69,-91.35"/>
</g>
<!-- Node6&#45;&gt;Node8 -->
<g id="edge11" class="edge">
<title>Node6&#45;&gt;Node8</title>
<path fill="none" stroke="midnightblue" d="M378.98,-123.4C369.53,-113.16 356.73,-99.3 346.88,-88.62"/>
<polygon fill="midnightblue" stroke="midnightblue" points="349.38,-86.17 340.03,-81.19 344.24,-90.92 349.38,-86.17"/>
</g>
<!-- Node9&#45;&gt;Node2 -->
<g id="edge13" class="edge">
<title>Node9&#45;&gt;Node2</title>
<path fill="none" stroke="midnightblue" d="M246.86,-190.17C251.71,-181.19 259.26,-166.81 265,-154 284.1,-111.37 267.19,-86 303,-56 328.93,-34.27 418.45,-21.75 477.59,-15.66"/>
<polygon fill="midnightblue" stroke="midnightblue" points="478.28,-19.11 487.89,-14.63 477.59,-12.14 478.28,-19.11"/>
</g>
<!-- Node10 -->
<g id="node10" class="node">
<title>Node10</title>
<g id="a_node10"><a xlink:href="atomic_8hpp.html" target="_top" xlink:title=" ">
<polygon fill="none" stroke="black" points="66.5,-62 66.5,-81 179.5,-81 179.5,-62 66.5,-62"/>
<text text-anchor="middle" x="123" y="-69" font-family="Helvetica,sans-Serif" font-size="10.00">yaclib/fault/atomic.hpp</text>
</a>
</g>
</g>
<!-- Node9&#45;&gt;Node10 -->
<g id="edge14" class="edge">
<title>Node9&#45;&gt;Node10</title>
<path fill="none" stroke="midnightblue" d="M204.07,-190.45C183.18,-183.85 158.43,-172.6 143,-154 128.28,-136.25 124.12,-109.3 123.08,-91.31"/>
<polygon fill="midnightblue" stroke="midnightblue" points="126.58,-91.09 122.78,-81.2 119.58,-91.3 126.58,-91.09"/>
</g>
<!-- Node14 -->
<g id="node14" class="node">
<title>Node14</title>
<g id="a_node14"><a xlink:href="atomic__counter_8hpp.html" target="_top" xlink:title=" ">
<polygon fill="none" stroke="black" points="152,-123.5 152,-153.5 256,-153.5 256,-123.5 152,-123.5"/>
<text text-anchor="start" x="160" y="-141.5" font-family="Helvetica,sans-Serif" font-size="10.00">yaclib/util/detail</text>
<text text-anchor="middle" x="204" y="-130.5" font-family="Helvetica,sans-Serif" font-size="10.00">/atomic_counter.hpp</text>
</a>
</g>
</g>
<!-- Node9&#45;&gt;Node14 -->
<g id="edge19" class="edge">
<title>Node9&#45;&gt;Node14</title>
<path fill="none" stroke="midnightblue" d="M236.56,-190.48C231.84,-183.09 224.81,-172.08 218.48,-162.17"/>
<polygon fill="midnightblue" stroke="midnightblue" points="221.29,-160.07 212.96,-153.52 215.39,-163.83 221.29,-160.07"/>
</g>
<!-- Node9&#45;&gt;Node15 -->
<g id="edge24" class="edge">
<title>Node9&#45;&gt;Node15</title>
<path fill="none" stroke="midnightblue" d="M290,-190.48C350.19,-179.78 453.34,-161.46 518.21,-149.94"/>
<polygon fill="midnightblue" stroke="midnightblue" points="519.04,-153.35 528.28,-148.15 517.82,-146.46 519.04,-153.35"/>
</g>
<!-- Node10&#45;&gt;Node2 -->
<g id="edge15" class="edge">
<title>Node10&#45;&gt;Node2</title>
<path fill="none" stroke="midnightblue" d="M162.34,-61.96C172.62,-59.87 183.7,-57.73 194,-56 293.6,-39.22 410.58,-24.82 477.53,-17.08"/>
<polygon fill="midnightblue" stroke="midnightblue" points="478.3,-20.51 487.83,-15.89 477.5,-13.56 478.3,-20.51"/>
</g>
<!-- Node10&#45;&gt;Node11 -->
<g id="edge16" class="edge">
<title>Node10&#45;&gt;Node11</title>
<path fill="none" stroke="midnightblue" d="M110.82,-61.98C97.19,-52.43 74.87,-36.81 58.53,-25.37"/>
<polygon fill="midnightblue" stroke="midnightblue" points="60.36,-22.38 50.16,-19.51 56.34,-28.11 60.36,-22.38"/>
</g>
<!-- Node12 -->
<g id="node12" class="node">
<title>Node12</title>
<g id="a_node12"><a xlink:title=" ">
<polygon fill="none" stroke="#bfbfbf" points="155,-0.5 155,-19.5 201,-19.5 201,-0.5 155,-0.5"/>
<text text-anchor="middle" x="178" y="-7.5" font-family="Helvetica,sans-Serif" font-size="10.00">cstdint</text>
</a>
</g>
</g>
<!-- Node10&#45;&gt;Node12 -->
<g id="edge17" class="edge">
<title>Node10&#45;&gt;Node12</title>
<path fill="none" stroke="midnightblue" d="M130.88,-61.98C139.29,-52.87 152.82,-38.24 163.23,-26.98"/>
<polygon fill="midnightblue" stroke="midnightblue" points="165.92,-29.23 170.13,-19.51 160.78,-24.48 165.92,-29.23"/>
</g>
<!-- Node13 -->
<g id="node13" class="node">
<title>Node13</title>
<g id="a_node13"><a xlink:title=" ">
<polygon fill="none" stroke="#bfbfbf" points="91,-0.5 91,-19.5 137,-19.5 137,-0.5 91,-0.5"/>
<text text-anchor="middle" x="114" y="-7.5" font-family="Helvetica,sans-Serif" font-size="10.00">atomic</text>
</a>
</g>
</g>
<!-- Node10&#45;&gt;Node13 -->
<g id="edge18" class="edge">
<title>Node10&#45;&gt;Node13</title>
<path fill="none" stroke="midnightblue" d="M121.71,-61.98C120.44,-53.58 118.46,-40.48 116.82,-29.66"/>
<polygon fill="midnightblue" stroke="midnightblue" points="120.24,-28.87 115.29,-19.51 113.32,-29.92 120.24,-28.87"/>
</g>
<!-- Node14&#45;&gt;Node2 -->
<g id="edge20" class="edge">
<title>Node14&#45;&gt;Node2</title>
<path fill="none" stroke="midnightblue" d="M211.21,-123.34C221.53,-104.65 242.35,-72.2 270,-56 304.35,-35.87 411.39,-22.44 477.55,-15.81"/>
<polygon fill="midnightblue" stroke="midnightblue" points="478.19,-19.27 487.8,-14.81 477.5,-12.3 478.19,-19.27"/>
</g>
<!-- Node14&#45;&gt;Node8 -->
<g id="edge23" class="edge">
<title>Node14&#45;&gt;Node8</title>
<path fill="none" stroke="midnightblue" d="M231.77,-123.4C253.94,-112.14 284.74,-96.5 306.33,-85.54"/>
<polygon fill="midnightblue" stroke="midnightblue" points="307.92,-88.66 315.25,-81.01 304.75,-82.41 307.92,-88.66"/>
</g>
<!-- Node14&#45;&gt;Node10 -->
<g id="edge21" class="edge">
<title>Node14&#45;&gt;Node10</title>
<path fill="none" stroke="midnightblue" d="M186.42,-123.4C173.29,-112.86 155.37,-98.48 141.93,-87.69"/>
<polygon fill="midnightblue" stroke="midnightblue" points="143.82,-84.72 133.83,-81.19 139.44,-90.18 143.82,-84.72"/>
</g>
<!-- Node14&#45;&gt;Node11 -->
<g id="edge22" class="edge">
<title>Node14&#45;&gt;Node11</title>
<path fill="none" stroke="midnightblue" d="M151.97,-132.11C120.29,-126.14 81.36,-113.54 57,-87 42.81,-71.53 38.82,-47.08 37.89,-30.11"/>
<polygon fill="midnightblue" stroke="midnightblue" points="41.39,-29.67 37.65,-19.75 34.39,-29.83 41.39,-29.67"/>
</g>
<!-- Node15&#45;&gt;Node2 -->
<g id="edge25" class="edge">
<title>Node15&#45;&gt;Node2</title>
<path fill="none" stroke="midnightblue" d="M582.95,-123.21C589.01,-106.33 596.2,-77.79 586,-56 579.96,-43.09 568.19,-32.6 557.18,-25"/>
<polygon fill="midnightblue" stroke="midnightblue" points="558.94,-21.97 548.63,-19.54 555.17,-27.87 558.94,-21.97"/>
</g>
<!-- Node15&#45;&gt;Node7 -->
<g id="edge28" class="edge">
<title>Node15&#45;&gt;Node7</title>
<path fill="none" stroke="midnightblue" d="M547.06,-123.4C523.06,-112.09 489.66,-96.36 466.37,-85.39"/>
<polygon fill="midnightblue" stroke="midnightblue" points="467.6,-82.1 457.06,-81.01 464.62,-88.43 467.6,-82.1"/>
</g>
<!-- Node15&#45;&gt;Node16 -->
<g id="edge26" class="edge">
<title>Node15&#45;&gt;Node16</title>
<path fill="none" stroke="midnightblue" d="M567.24,-123.4C560.36,-113.46 551.11,-100.11 543.82,-89.57"/>
<polygon fill="midnightblue" stroke="midnightblue" points="546.59,-87.42 538.02,-81.19 540.83,-91.41 546.59,-87.42"/>
</g>
<!-- Node17 -->
<g id="node17" class="node">
<title>Node17</title>
<g id="a_node17"><a xlink:href="intrusive__ptr__impl_8hpp.html" target="_top" xlink:title=" ">
<polygon fill="none" stroke="black" points="671,-56.5 671,-86.5 785,-86.5 785,-56.5 671,-56.5"/>
<text text-anchor="start" x="679" y="-74.5" font-family="Helvetica,sans-Serif" font-size="10.00">yaclib/util/detail</text>
<text text-anchor="middle" x="728" y="-63.5" font-family="Helvetica,sans-Serif" font-size="10.00">/intrusive_ptr_impl.hpp</text>
</a>
</g>
</g>
<!-- Node15&#45;&gt;Node17 -->
<g id="edge29" class="edge">
<title>Node15&#45;&gt;Node17</title>
<path fill="none" stroke="midnightblue" d="M609.76,-123.4C632.12,-113.77 661.94,-100.94 686.04,-90.56"/>
<polygon fill="midnightblue" stroke="midnightblue" points="687.5,-93.75 695.3,-86.58 684.73,-87.32 687.5,-93.75"/>
</g>
<!-- Node16&#45;&gt;Node2 -->
<g id="edge27" class="edge">
<title>Node16&#45;&gt;Node2</title>
<path fill="none" stroke="midnightblue" d="M532,-61.98C532,-53.58 532,-40.48 532,-29.66"/>
<polygon fill="midnightblue" stroke="midnightblue" points="535.5,-29.51 532,-19.51 528.5,-29.51 535.5,-29.51"/>
</g>
<!-- Node17&#45;&gt;Node2 -->
<g id="edge30" class="edge">
<title>Node17&#45;&gt;Node2</title>
<path fill="none" stroke="midnightblue" d="M681.55,-56.4C647.54,-46.07 601.94,-32.23 570.07,-22.56"/>
<polygon fill="midnightblue" stroke="midnightblue" points="570.82,-19.13 560.23,-19.57 568.79,-25.82 570.82,-19.13"/>
</g>
<!-- Node18 -->
<g id="node18" class="node">
<title>Node18</title>
<g id="a_node18"><a xlink:title=" ">
<polygon fill="none" stroke="#bfbfbf" points="703.5,-0.5 703.5,-19.5 752.5,-19.5 752.5,-0.5 703.5,-0.5"/>
<text text-anchor="middle" x="728" y="-7.5" font-family="Helvetica,sans-Serif" font-size="10.00">cassert</text>
</a>
</g>
</g>
<!-- Node17&#45;&gt;Node18 -->
<g id="edge31" class="edge">
<title>Node17&#45;&gt;Node18</title>
<path fill="none" stroke="midnightblue" d="M728,-56.4C728,-48.47 728,-38.46 728,-29.86"/>
<polygon fill="midnightblue" stroke="midnightblue" points="731.5,-29.66 728,-19.66 724.5,-29.66 731.5,-29.66"/>
</g>
</g>
</svg>
        <g id="navigator" transform="translate(0 0)" fill="#404254">
                <rect fill="#f2f5e9" fill-opacity="0.5" stroke="#606060" stroke-width=".5" x="0" y="0" width="60" height="60"/>
                <use id="zoomplus" xlink:href="#zoomPlus" x="17" y="9" onmousedown="handleZoom(evt,'in')"/>
                <use id="zoomminus" xlink:href="#zoomMin" x="42" y="9" onmousedown="handleZoom(evt,'out')"/>
                <use id="reset" xlink:href="#resetDef" x="30" y="36" onmousedown="handleReset()"/>
                <g id="arrowUp" xlink:href="#dirArrow" transform="translate(30 24)" onmousedown="handlePan(0,-1)">
                  <use xlink:href="#rim" fill="#404040">
                        <set attributeName="fill" to="#808080" begin="arrowUp.mouseover" end="arrowUp.mouseout"/>
                  </use>
                  <path fill="none" stroke="white" stroke-width="1.5" d="M0,-3.0v7 M-2.5,-0.5L0,-3.0L2.5,-0.5"/>
                </g>
                <g id="arrowRight" xlink:href="#dirArrow" transform="rotate(90) translate(36 -43)" onmousedown="handlePan(1,0)">
                  <use xlink:href="#rim" fill="#404040">
                        <set attributeName="fill" to="#808080" begin="arrowRight.mouseover" end="arrowRight.mouseout"/>
                  </use>
                  <path fill="none" stroke="white" stroke-width="1.5" d="M0,-3.0v7 M-2.5,-0.5L0,-3.0L2.5,-0.5"/>
                </g>
                <g id="arrowDown" xlink:href="#dirArrow" transform="rotate(180) translate(-30 -48)" onmousedown="handlePan(0,1)">
                  <use xlink:href="#rim" fill="#404040">
                        <set attributeName="fill" to="#808080" begin="arrowDown.mouseover" end="arrowDown.mouseout"/>
                  </use>
                  <path fill="none" stroke="white" stroke-width="1.5" d="M0,-3.0v7 M-2.5,-0.5L0,-3.0L2.5,-0.5"/>
                </g>
                <g id="arrowLeft" xlink:href="#dirArrow" transform="rotate(270) translate(-36 17)" onmousedown="handlePan(-1,0)">
                  <use xlink:href="#rim" fill="#404040">
                        <set attributeName="fill" to="#808080" begin="arrowLeft.mouseover" end="arrowLeft.mouseout"/>
                  </use>
                  <path fill="none" stroke="white" stroke-width="1.5" d="M0,-3.0v7 M-2.5,-0.5L0,-3.0L2.5,-0.5"/>
                </g>
        </g>
        <svg viewBox="0 0 15 15" width="100%" height="30px" preserveAspectRatio="xMaxYMin meet">
         <g id="arrow_out" transform="scale(0.3 0.3)">
          <a xlink:href="thread__factory_8hpp__incl_org.svg" target="_base">
           <rect id="button" ry="5" rx="5" y="6" x="6" height="38" width="38"
                fill="#f2f5e9" fill-opacity="0.5" stroke="#606060" stroke-width="1.0"/>
           <path id="arrow"
             d="M 11.500037,31.436501 C 11.940474,20.09759 22.043105,11.32322 32.158766,21.979434 L 37.068811,17.246167 C 37.068811,17.246167 37.088388,32 37.088388,32 L 22.160133,31.978069 C 22.160133,31.978069 26.997745,27.140456 26.997745,27.140456 C 18.528582,18.264221 13.291696,25.230495 11.500037,31.436501 z"
             style="fill:#404040;"/>
          </a>
         </g>
        </svg>
</svg>
