<?xml version="1.0" encoding="UTF-8" standalone="no"?>
<!DOCTYPE svg PUBLIC "-//W3C//DTD SVG 1.1//EN"
 "http://www.w3.org/Graphics/SVG/1.1/DTD/svg11.dtd">
<!-- Generated by graphviz version 2.50.0 (20220203.2022)
 -->
<!-- Title: src/fault/thread/thread.cpp Pages: 1 -->
<svg width="449pt" height="207pt"
 viewBox="0.00 0.00 448.74 207.00" xmlns="http://www.w3.org/2000/svg" xmlns:xlink="http://www.w3.org/1999/xlink">
<g id="graph0" class="graph" transform="scale(1 1) rotate(0) translate(4 203)">
<title>src/fault/thread/thread.cpp</title>
<!-- Node1 -->
<g id="node1" class="node">
<title>Node1</title>
<g id="a_node1"><a xlink:title=" ">
<polygon fill="#bfbfbf" stroke="black" points="225.5,-179.5 225.5,-198.5 355.5,-198.5 355.5,-179.5 225.5,-179.5"/>
<text text-anchor="middle" x="290.5" y="-186.5" font-family="Helvetica,sans-Serif" font-size="10.00">src/fault/thread/thread.cpp</text>
</a>
</g>
</g>
<!-- Node2 -->
<g id="node2" class="node">
<title>Node2</title>
<g id="a_node2"><a xlink:title=" ">
<polygon fill="none" stroke="#bfbfbf" points="236.5,-0.5 236.5,-19.5 324.5,-19.5 324.5,-0.5 236.5,-0.5"/>
<text text-anchor="middle" x="280.5" y="-7.5" font-family="Helvetica,sans-Serif" font-size="10.00">yaclib/config.hpp</text>
</a>
</g>
</g>
<!-- Node1&#45;&gt;Node2 -->
<g id="edge1" class="edge">
<title>Node1&#45;&gt;Node2</title>
<path fill="none" stroke="midnightblue" d="M313.92,-179.39C363.52,-159.84 471.48,-109.63 431.5,-56 425.05,-47.35 369.15,-32.26 327.23,-21.96"/>
<polygon fill="midnightblue" stroke="midnightblue" points="327.99,-18.54 317.45,-19.58 326.34,-25.34 327.99,-18.54"/>
</g>
<!-- Node3 -->
<g id="node3" class="node">
<title>Node3</title>
<g id="a_node3"><a xlink:href="detail_2thread_2thread_8hpp.html" target="_top" xlink:title=" ">
<polygon fill="none" stroke="black" points="122,-112.5 122,-142.5 217,-142.5 217,-112.5 122,-112.5"/>
<text text-anchor="start" x="130" y="-130.5" font-family="Helvetica,sans-Serif" font-size="10.00">yaclib/fault/detail</text>
<text text-anchor="middle" x="169.5" y="-119.5" font-family="Helvetica,sans-Serif" font-size="10.00">/thread/thread.hpp</text>
</a>
</g>
</g>
<!-- Node1&#45;&gt;Node3 -->
<g id="edge2" class="edge">
<title>Node1&#45;&gt;Node3</title>
<path fill="none" stroke="midnightblue" d="M273.16,-179.48C256.01,-171.04 229.2,-157.86 207.14,-147.01"/>
<polygon fill="midnightblue" stroke="midnightblue" points="208.54,-143.79 198.02,-142.52 205.45,-150.08 208.54,-143.79"/>
</g>
<!-- Node8 -->
<g id="node8" class="node">
<title>Node8</title>
<g id="a_node8"><a xlink:href="thread_8hpp.html" target="_top" xlink:title=" ">
<polygon fill="none" stroke="black" points="235,-118 235,-137 346,-137 346,-118 235,-118"/>
<text text-anchor="middle" x="290.5" y="-125" font-family="Helvetica,sans-Serif" font-size="10.00">yaclib/fault/thread.hpp</text>
</a>
</g>
</g>
<!-- Node1&#45;&gt;Node8 -->
<g id="edge9" class="edge">
<title>Node1&#45;&gt;Node8</title>
<path fill="none" stroke="midnightblue" d="M290.5,-179.48C290.5,-171.08 290.5,-157.98 290.5,-147.16"/>
<polygon fill="midnightblue" stroke="midnightblue" points="294,-147.01 290.5,-137.01 287,-147.01 294,-147.01"/>
</g>
<!-- Node3&#45;&gt;Node2 -->
<g id="edge3" class="edge">
<title>Node3&#45;&gt;Node2</title>
<path fill="none" stroke="midnightblue" d="M172.61,-112.29C176.6,-96.88 184.81,-72.31 199.5,-56 212.25,-41.84 230.53,-31.15 246.51,-23.75"/>
<polygon fill="midnightblue" stroke="midnightblue" points="248.32,-26.78 256.08,-19.57 245.52,-20.37 248.32,-26.78"/>
</g>
<!-- Node4 -->
<g id="node4" class="node">
<title>Node4</title>
<g id="a_node4"><a xlink:href="log_8hpp.html" target="_top" xlink:title=" ">
<polygon fill="none" stroke="black" points="77,-56.5 77,-75.5 152,-75.5 152,-56.5 77,-56.5"/>
<text text-anchor="middle" x="114.5" y="-63.5" font-family="Helvetica,sans-Serif" font-size="10.00">yaclib/log.hpp</text>
</a>
</g>
</g>
<!-- Node3&#45;&gt;Node4 -->
<g id="edge4" class="edge">
<title>Node3&#45;&gt;Node4</title>
<path fill="none" stroke="midnightblue" d="M156.47,-112.4C148.31,-103.58 137.78,-92.18 129.31,-83.02"/>
<polygon fill="midnightblue" stroke="midnightblue" points="131.86,-80.63 122.5,-75.66 126.72,-85.38 131.86,-80.63"/>
</g>
<!-- Node6 -->
<g id="node6" class="node">
<title>Node6</title>
<g id="a_node6"><a xlink:title=" ">
<polygon fill="none" stroke="#bfbfbf" points="0,-56.5 0,-75.5 59,-75.5 59,-56.5 0,-56.5"/>
<text text-anchor="middle" x="29.5" y="-63.5" font-family="Helvetica,sans-Serif" font-size="10.00">functional</text>
</a>
</g>
</g>
<!-- Node3&#45;&gt;Node6 -->
<g id="edge7" class="edge">
<title>Node3&#45;&gt;Node6</title>
<path fill="none" stroke="midnightblue" d="M136.32,-112.4C112.94,-102.46 81.89,-89.26 59.29,-79.66"/>
<polygon fill="midnightblue" stroke="midnightblue" points="60.44,-76.35 49.87,-75.66 57.71,-82.79 60.44,-76.35"/>
</g>
<!-- Node7 -->
<g id="node7" class="node">
<title>Node7</title>
<g id="a_node7"><a xlink:title=" ">
<polygon fill="none" stroke="#bfbfbf" points="208.5,-56.5 208.5,-75.5 252.5,-75.5 252.5,-56.5 208.5,-56.5"/>
<text text-anchor="middle" x="230.5" y="-63.5" font-family="Helvetica,sans-Serif" font-size="10.00">thread</text>
</a>
</g>
</g>
<!-- Node3&#45;&gt;Node7 -->
<g id="edge8" class="edge">
<title>Node3&#45;&gt;Node7</title>
<path fill="none" stroke="midnightblue" d="M183.96,-112.4C193.09,-103.49 204.92,-91.95 214.36,-82.74"/>
<polygon fill="midnightblue" stroke="midnightblue" points="216.91,-85.15 221.62,-75.66 212.02,-80.13 216.91,-85.15"/>
</g>
<!-- Node4&#45;&gt;Node2 -->
<g id="edge5" class="edge">
<title>Node4&#45;&gt;Node2</title>
<path fill="none" stroke="midnightblue" d="M140.8,-56.44C168.85,-47.32 213.44,-32.81 244.68,-22.65"/>
<polygon fill="midnightblue" stroke="midnightblue" points="245.89,-25.94 254.32,-19.52 243.73,-19.28 245.89,-25.94"/>
</g>
<!-- Node5 -->
<g id="node5" class="node">
<title>Node5</title>
<g id="a_node5"><a xlink:title=" ">
<polygon fill="none" stroke="#bfbfbf" points="81.5,-0.5 81.5,-19.5 147.5,-19.5 147.5,-0.5 81.5,-0.5"/>
<text text-anchor="middle" x="114.5" y="-7.5" font-family="Helvetica,sans-Serif" font-size="10.00">string_view</text>
</a>
</g>
</g>
<!-- Node4&#45;&gt;Node5 -->
<g id="edge6" class="edge">
<title>Node4&#45;&gt;Node5</title>
<path fill="none" stroke="midnightblue" d="M114.5,-56.08C114.5,-49.01 114.5,-38.86 114.5,-29.99"/>
<polygon fill="midnightblue" stroke="midnightblue" points="118,-29.75 114.5,-19.75 111,-29.75 118,-29.75"/>
</g>
<!-- Node8&#45;&gt;Node2 -->
<g id="edge10" class="edge">
<title>Node8&#45;&gt;Node2</title>
<path fill="none" stroke="midnightblue" d="M289.75,-117.82C288.14,-99.26 284.34,-55.34 282.14,-29.97"/>
<polygon fill="midnightblue" stroke="midnightblue" points="285.61,-29.44 281.26,-19.78 278.64,-30.05 285.61,-29.44"/>
</g>
<!-- Node8&#45;&gt;Node7 -->
<g id="edge14" class="edge">
<title>Node8&#45;&gt;Node7</title>
<path fill="none" stroke="midnightblue" d="M281.9,-117.98C272.64,-108.78 257.68,-93.96 246.29,-82.66"/>
<polygon fill="midnightblue" stroke="midnightblue" points="248.65,-80.07 239.08,-75.51 243.72,-85.04 248.65,-80.07"/>
</g>
<!-- Node9 -->
<g id="node9" class="node">
<title>Node9</title>
<g id="a_node9"><a xlink:href="chrono_8hpp.html" target="_top" xlink:title=" ">
<polygon fill="none" stroke="black" points="309,-56.5 309,-75.5 422,-75.5 422,-56.5 309,-56.5"/>
<text text-anchor="middle" x="365.5" y="-63.5" font-family="Helvetica,sans-Serif" font-size="10.00">yaclib/fault/chrono.hpp</text>
</a>
</g>
</g>
<!-- Node8&#45;&gt;Node9 -->
<g id="edge11" class="edge">
<title>Node8&#45;&gt;Node9</title>
<path fill="none" stroke="midnightblue" d="M301.25,-117.98C313.05,-108.61 332.24,-93.38 346.58,-82.01"/>
<polygon fill="midnightblue" stroke="midnightblue" points="349.12,-84.47 354.77,-75.51 344.76,-78.98 349.12,-84.47"/>
</g>
<!-- Node9&#45;&gt;Node2 -->
<g id="edge12" class="edge">
<title>Node9&#45;&gt;Node2</title>
<path fill="none" stroke="midnightblue" d="M351.84,-56.32C338.58,-47.9 318.23,-34.97 302.65,-25.07"/>
<polygon fill="midnightblue" stroke="midnightblue" points="304.44,-22.06 294.12,-19.65 300.69,-27.97 304.44,-22.06"/>
</g>
<!-- Node10 -->
<g id="node10" class="node">
<title>Node10</title>
<g id="a_node10"><a xlink:title=" ">
<polygon fill="none" stroke="#bfbfbf" points="342.5,-0.5 342.5,-19.5 388.5,-19.5 388.5,-0.5 342.5,-0.5"/>
<text text-anchor="middle" x="365.5" y="-7.5" font-family="Helvetica,sans-Serif" font-size="10.00">chrono</text>
</a>
</g>
</g>
<!-- Node9&#45;&gt;Node10 -->
<g id="edge13" class="edge">
<title>Node9&#45;&gt;Node10</title>
<path fill="none" stroke="midnightblue" d="M365.5,-56.08C365.5,-49.01 365.5,-38.86 365.5,-29.99"/>
<polygon fill="midnightblue" stroke="midnightblue" points="369,-29.75 365.5,-19.75 362,-29.75 369,-29.75"/>
</g>
</g>
</svg>
