<?xml version="1.0" encoding="UTF-8" standalone="no"?>
<!DOCTYPE svg PUBLIC "-//W3C//DTD SVG 1.1//EN"
 "http://www.w3.org/Graphics/SVG/1.1/DTD/svg11.dtd">
<!-- Generated by graphviz version 2.50.0 (20220203.2022)
 -->
<!-- Title: src/fault/mutex/timed_mutex.cpp Pages: 1 -->
<svg width="551pt" height="408pt"
 viewBox="0.00 0.00 550.50 408.00" xmlns="http://www.w3.org/2000/svg" xmlns:xlink="http://www.w3.org/1999/xlink">
<g id="graph0" class="graph" transform="scale(1 1) rotate(0) translate(4 404)">
<title>src/fault/mutex/timed_mutex.cpp</title>
<!-- Node1 -->
<g id="node1" class="node">
<title>Node1</title>
<g id="a_node1"><a xlink:title=" ">
<polygon fill="#bfbfbf" stroke="black" points="382.5,-369.5 382.5,-399.5 490.5,-399.5 490.5,-369.5 382.5,-369.5"/>
<text text-anchor="start" x="390.5" y="-387.5" font-family="Helvetica,sans-Serif" font-size="10.00">src/fault/mutex/timed</text>
<text text-anchor="middle" x="436.5" y="-376.5" font-family="Helvetica,sans-Serif" font-size="10.00">_mutex.cpp</text>
</a>
</g>
</g>
<!-- Node2 -->
<g id="node2" class="node">
<title>Node2</title>
<g id="a_node2"><a xlink:title=" ">
<polygon fill="none" stroke="#bfbfbf" points="384.5,-0.5 384.5,-19.5 472.5,-19.5 472.5,-0.5 384.5,-0.5"/>
<text text-anchor="middle" x="428.5" y="-7.5" font-family="Helvetica,sans-Serif" font-size="10.00">yaclib/config.hpp</text>
</a>
</g>
</g>
<!-- Node1&#45;&gt;Node2 -->
<g id="edge1" class="edge">
<title>Node1&#45;&gt;Node2</title>
<path fill="none" stroke="midnightblue" d="M458.98,-369.49C490.1,-348.17 542.5,-304.4 542.5,-251.5 542.5,-251.5 542.5,-251.5 542.5,-121 542.5,-74.11 491.95,-40.89 458.17,-23.93"/>
<polygon fill="midnightblue" stroke="midnightblue" points="459.67,-20.77 449.14,-19.58 456.63,-27.07 459.67,-20.77"/>
</g>
<!-- Node3 -->
<g id="node3" class="node">
<title>Node3</title>
<g id="a_node3"><a xlink:href="timed__mutex_8hpp.html" target="_top" xlink:title=" ">
<polygon fill="none" stroke="black" points="276.5,-302.5 276.5,-332.5 398.5,-332.5 398.5,-302.5 276.5,-302.5"/>
<text text-anchor="start" x="284.5" y="-320.5" font-family="Helvetica,sans-Serif" font-size="10.00">yaclib/fault/detail</text>
<text text-anchor="middle" x="337.5" y="-309.5" font-family="Helvetica,sans-Serif" font-size="10.00">/mutex/timed_mutex.hpp</text>
</a>
</g>
</g>
<!-- Node1&#45;&gt;Node3 -->
<g id="edge2" class="edge">
<title>Node1&#45;&gt;Node3</title>
<path fill="none" stroke="midnightblue" d="M415.02,-369.4C401.14,-360.28 382.87,-348.29 367.56,-338.24"/>
<polygon fill="midnightblue" stroke="midnightblue" points="369.22,-335.14 358.94,-332.58 365.38,-340.99 369.22,-335.14"/>
</g>
<!-- Node3&#45;&gt;Node2 -->
<g id="edge3" class="edge">
<title>Node3&#45;&gt;Node2</title>
<path fill="none" stroke="midnightblue" d="M383.13,-302.44C432.58,-284.03 504.5,-246.59 504.5,-184.5 504.5,-184.5 504.5,-184.5 504.5,-121 504.5,-81.28 470.54,-45.5 448.02,-26.15"/>
<polygon fill="midnightblue" stroke="midnightblue" points="449.98,-23.24 440.04,-19.57 445.52,-28.63 449.98,-23.24"/>
</g>
<!-- Node4 -->
<g id="node4" class="node">
<title>Node4</title>
<g id="a_node4"><a xlink:href="chrono_8hpp.html" target="_top" xlink:title=" ">
<polygon fill="none" stroke="black" points="0,-56.5 0,-75.5 113,-75.5 113,-56.5 0,-56.5"/>
<text text-anchor="middle" x="56.5" y="-63.5" font-family="Helvetica,sans-Serif" font-size="10.00">yaclib/fault/chrono.hpp</text>
</a>
</g>
</g>
<!-- Node3&#45;&gt;Node4 -->
<g id="edge4" class="edge">
<title>Node3&#45;&gt;Node4</title>
<path fill="none" stroke="midnightblue" d="M276.47,-313.38C236.11,-308.4 184.24,-296.06 148.5,-266 90.85,-217.5 67.35,-125.04 59.66,-85.59"/>
<polygon fill="midnightblue" stroke="midnightblue" points="63.1,-84.95 57.85,-75.75 56.21,-86.21 63.1,-84.95"/>
</g>
<!-- Node6 -->
<g id="node6" class="node">
<title>Node6</title>
<g id="a_node6"><a xlink:href="inject__fault_8hpp.html" target="_top" xlink:title=" ">
<polygon fill="none" stroke="black" points="293,-235.5 293,-265.5 382,-265.5 382,-235.5 293,-235.5"/>
<text text-anchor="start" x="301" y="-253.5" font-family="Helvetica,sans-Serif" font-size="10.00">yaclib/fault/detail</text>
<text text-anchor="middle" x="337.5" y="-242.5" font-family="Helvetica,sans-Serif" font-size="10.00">/inject_fault.hpp</text>
</a>
</g>
</g>
<!-- Node3&#45;&gt;Node6 -->
<g id="edge7" class="edge">
<title>Node3&#45;&gt;Node6</title>
<path fill="none" stroke="midnightblue" d="M337.5,-302.4C337.5,-294.64 337.5,-284.81 337.5,-275.86"/>
<polygon fill="midnightblue" stroke="midnightblue" points="341,-275.58 337.5,-265.58 334,-275.58 341,-275.58"/>
</g>
<!-- Node10 -->
<g id="node10" class="node">
<title>Node10</title>
<g id="a_node10"><a xlink:title=" ">
<polygon fill="none" stroke="#bfbfbf" points="157.5,-112.5 157.5,-131.5 203.5,-131.5 203.5,-112.5 157.5,-112.5"/>
<text text-anchor="middle" x="180.5" y="-119.5" font-family="Helvetica,sans-Serif" font-size="10.00">atomic</text>
</a>
</g>
</g>
<!-- Node3&#45;&gt;Node10 -->
<g id="edge20" class="edge">
<title>Node3&#45;&gt;Node10</title>
<path fill="none" stroke="midnightblue" d="M319.72,-302.38C308.62,-292.93 294.57,-279.74 284.5,-266 255.83,-226.88 266.79,-205.87 236.5,-168 227.03,-156.16 213.94,-145.43 202.79,-137.41"/>
<polygon fill="midnightblue" stroke="midnightblue" points="204.59,-134.4 194.37,-131.6 200.61,-140.16 204.59,-134.4"/>
</g>
<!-- Node12 -->
<g id="node12" class="node">
<title>Node12</title>
<g id="a_node12"><a xlink:href="log_8hpp.html" target="_top" xlink:title=" ">
<polygon fill="none" stroke="black" points="157,-241 157,-260 232,-260 232,-241 157,-241"/>
<text text-anchor="middle" x="194.5" y="-248" font-family="Helvetica,sans-Serif" font-size="10.00">yaclib/log.hpp</text>
</a>
</g>
</g>
<!-- Node3&#45;&gt;Node12 -->
<g id="edge17" class="edge">
<title>Node3&#45;&gt;Node12</title>
<path fill="none" stroke="midnightblue" d="M306.47,-302.4C281.49,-291.04 246.68,-275.22 222.54,-264.24"/>
<polygon fill="midnightblue" stroke="midnightblue" points="223.77,-260.96 213.22,-260.01 220.87,-267.33 223.77,-260.96"/>
</g>
<!-- Node14 -->
<g id="node14" class="node">
<title>Node14</title>
<g id="a_node14"><a xlink:title=" ">
<polygon fill="none" stroke="#bfbfbf" points="400,-241 400,-260 443,-260 443,-241 400,-241"/>
<text text-anchor="middle" x="421.5" y="-248" font-family="Helvetica,sans-Serif" font-size="10.00">mutex</text>
</a>
</g>
</g>
<!-- Node3&#45;&gt;Node14 -->
<g id="edge21" class="edge">
<title>Node3&#45;&gt;Node14</title>
<path fill="none" stroke="midnightblue" d="M355.73,-302.4C369.47,-291.76 388.28,-277.2 402.27,-266.38"/>
<polygon fill="midnightblue" stroke="midnightblue" points="404.5,-269.08 410.26,-260.19 400.21,-263.55 404.5,-269.08"/>
</g>
<!-- Node4&#45;&gt;Node2 -->
<g id="edge5" class="edge">
<title>Node4&#45;&gt;Node2</title>
<path fill="none" stroke="midnightblue" d="M113.4,-56.74C184.26,-46.45 304.43,-29.01 374.1,-18.9"/>
<polygon fill="midnightblue" stroke="midnightblue" points="375.03,-22.3 384.42,-17.4 374.02,-15.37 375.03,-22.3"/>
</g>
<!-- Node5 -->
<g id="node5" class="node">
<title>Node5</title>
<g id="a_node5"><a xlink:title=" ">
<polygon fill="none" stroke="#bfbfbf" points="33.5,-0.5 33.5,-19.5 79.5,-19.5 79.5,-0.5 33.5,-0.5"/>
<text text-anchor="middle" x="56.5" y="-7.5" font-family="Helvetica,sans-Serif" font-size="10.00">chrono</text>
</a>
</g>
</g>
<!-- Node4&#45;&gt;Node5 -->
<g id="edge6" class="edge">
<title>Node4&#45;&gt;Node5</title>
<path fill="none" stroke="midnightblue" d="M56.5,-56.08C56.5,-49.01 56.5,-38.86 56.5,-29.99"/>
<polygon fill="midnightblue" stroke="midnightblue" points="60,-29.75 56.5,-19.75 53,-29.75 60,-29.75"/>
</g>
<!-- Node6&#45;&gt;Node2 -->
<g id="edge8" class="edge">
<title>Node6&#45;&gt;Node2</title>
<path fill="none" stroke="midnightblue" d="M355.46,-235.31C366.71,-225.83 381.01,-212.63 391.5,-199 412.12,-172.21 415.04,-163.43 427.5,-132 440.19,-99.99 447.67,-90.04 442.5,-56 441.13,-47 438.31,-37.33 435.55,-29.26"/>
<polygon fill="midnightblue" stroke="midnightblue" points="438.81,-27.98 432.1,-19.78 432.23,-30.37 438.81,-27.98"/>
</g>
<!-- Node7 -->
<g id="node7" class="node">
<title>Node7</title>
<g id="a_node7"><a xlink:href="yielder_8hpp.html" target="_top" xlink:title=" ">
<polygon fill="none" stroke="black" points="293,-168.5 293,-198.5 382,-198.5 382,-168.5 293,-168.5"/>
<text text-anchor="start" x="301" y="-186.5" font-family="Helvetica,sans-Serif" font-size="10.00">yaclib/fault/detail</text>
<text text-anchor="middle" x="337.5" y="-175.5" font-family="Helvetica,sans-Serif" font-size="10.00">/yielder.hpp</text>
</a>
</g>
</g>
<!-- Node6&#45;&gt;Node7 -->
<g id="edge9" class="edge">
<title>Node6&#45;&gt;Node7</title>
<path fill="none" stroke="midnightblue" d="M337.5,-235.4C337.5,-227.64 337.5,-217.81 337.5,-208.86"/>
<polygon fill="midnightblue" stroke="midnightblue" points="341,-208.58 337.5,-198.58 334,-208.58 341,-208.58"/>
</g>
<!-- Node7&#45;&gt;Node2 -->
<g id="edge10" class="edge">
<title>Node7&#45;&gt;Node2</title>
<path fill="none" stroke="midnightblue" d="M367.93,-168.47C382.83,-160.02 399.65,-147.81 409.5,-132 429.3,-100.23 430.86,-54.94 429.89,-29.74"/>
<polygon fill="midnightblue" stroke="midnightblue" points="433.38,-29.49 429.33,-19.7 426.4,-29.88 433.38,-29.49"/>
</g>
<!-- Node8 -->
<g id="node8" class="node">
<title>Node8</title>
<g id="a_node8"><a xlink:href="thread_8hpp.html" target="_top" xlink:title=" ">
<polygon fill="none" stroke="black" points="289,-112.5 289,-131.5 400,-131.5 400,-112.5 289,-112.5"/>
<text text-anchor="middle" x="344.5" y="-119.5" font-family="Helvetica,sans-Serif" font-size="10.00">yaclib/fault/thread.hpp</text>
</a>
</g>
</g>
<!-- Node7&#45;&gt;Node8 -->
<g id="edge11" class="edge">
<title>Node7&#45;&gt;Node8</title>
<path fill="none" stroke="midnightblue" d="M339.16,-168.4C340.09,-160.47 341.27,-150.46 342.28,-141.86"/>
<polygon fill="midnightblue" stroke="midnightblue" points="345.79,-142 343.48,-131.66 338.84,-141.18 345.79,-142"/>
</g>
<!-- Node7&#45;&gt;Node10 -->
<g id="edge15" class="edge">
<title>Node7&#45;&gt;Node10</title>
<path fill="none" stroke="midnightblue" d="M300.29,-168.4C273.72,-158.33 238.31,-144.91 212.89,-135.28"/>
<polygon fill="midnightblue" stroke="midnightblue" points="213.94,-131.93 203.34,-131.66 211.46,-138.47 213.94,-131.93"/>
</g>
<!-- Node11 -->
<g id="node11" class="node">
<title>Node11</title>
<g id="a_node11"><a xlink:title=" ">
<polygon fill="none" stroke="#bfbfbf" points="222,-112.5 222,-131.5 271,-131.5 271,-112.5 222,-112.5"/>
<text text-anchor="middle" x="246.5" y="-119.5" font-family="Helvetica,sans-Serif" font-size="10.00">random</text>
</a>
</g>
</g>
<!-- Node7&#45;&gt;Node11 -->
<g id="edge16" class="edge">
<title>Node7&#45;&gt;Node11</title>
<path fill="none" stroke="midnightblue" d="M315.93,-168.4C301.62,-159.04 282.89,-146.79 268.49,-137.38"/>
<polygon fill="midnightblue" stroke="midnightblue" points="270.03,-134.2 259.74,-131.66 266.2,-140.06 270.03,-134.2"/>
</g>
<!-- Node8&#45;&gt;Node2 -->
<g id="edge12" class="edge">
<title>Node8&#45;&gt;Node2</title>
<path fill="none" stroke="midnightblue" d="M342.39,-112.23C339.72,-98.96 336.67,-73.47 347.5,-56 356.84,-40.94 373.13,-30.51 388.67,-23.51"/>
<polygon fill="midnightblue" stroke="midnightblue" points="390.27,-26.64 398.18,-19.59 387.6,-20.17 390.27,-26.64"/>
</g>
<!-- Node8&#45;&gt;Node4 -->
<g id="edge13" class="edge">
<title>Node8&#45;&gt;Node4</title>
<path fill="none" stroke="midnightblue" d="M298.87,-112.44C248.2,-102.94 166.43,-87.61 112.07,-77.42"/>
<polygon fill="midnightblue" stroke="midnightblue" points="112.39,-73.92 101.92,-75.52 111.1,-80.8 112.39,-73.92"/>
</g>
<!-- Node9 -->
<g id="node9" class="node">
<title>Node9</title>
<g id="a_node9"><a xlink:title=" ">
<polygon fill="none" stroke="#bfbfbf" points="356.5,-56.5 356.5,-75.5 400.5,-75.5 400.5,-56.5 356.5,-56.5"/>
<text text-anchor="middle" x="378.5" y="-63.5" font-family="Helvetica,sans-Serif" font-size="10.00">thread</text>
</a>
</g>
</g>
<!-- Node8&#45;&gt;Node9 -->
<g id="edge14" class="edge">
<title>Node8&#45;&gt;Node9</title>
<path fill="none" stroke="midnightblue" d="M350.11,-112.08C354.87,-104.53 361.82,-93.49 367.65,-84.23"/>
<polygon fill="midnightblue" stroke="midnightblue" points="370.62,-86.08 372.99,-75.75 364.7,-82.35 370.62,-86.08"/>
</g>
<!-- Node12&#45;&gt;Node2 -->
<g id="edge18" class="edge">
<title>Node12&#45;&gt;Node2</title>
<path fill="none" stroke="midnightblue" d="M184.04,-240.68C173.94,-231.45 159.21,-215.97 152.5,-199 138.26,-163.01 126.25,-143.68 148.5,-112 199.53,-39.34 308.18,-18.72 374.12,-13.01"/>
<polygon fill="midnightblue" stroke="midnightblue" points="374.63,-16.48 384.33,-12.22 374.09,-9.5 374.63,-16.48"/>
</g>
<!-- Node13 -->
<g id="node13" class="node">
<title>Node13</title>
<g id="a_node13"><a xlink:title=" ">
<polygon fill="none" stroke="#bfbfbf" points="161.5,-174 161.5,-193 227.5,-193 227.5,-174 161.5,-174"/>
<text text-anchor="middle" x="194.5" y="-181" font-family="Helvetica,sans-Serif" font-size="10.00">string_view</text>
</a>
</g>
</g>
<!-- Node12&#45;&gt;Node13 -->
<g id="edge19" class="edge">
<title>Node12&#45;&gt;Node13</title>
<path fill="none" stroke="midnightblue" d="M194.5,-240.73C194.5,-231.18 194.5,-215.62 194.5,-203.28"/>
<polygon fill="midnightblue" stroke="midnightblue" points="198,-203.13 194.5,-193.13 191,-203.13 198,-203.13"/>
</g>
</g>
</svg>
