<?xml version="1.0" encoding="UTF-8" standalone="no"?>
<!DOCTYPE svg PUBLIC "-//W3C//DTD SVG 1.1//EN"
 "http://www.w3.org/Graphics/SVG/1.1/DTD/svg11.dtd">
<!-- Generated by graphviz version 2.50.0 (20220203.2022)
 -->
<!-- Title: include/yaclib/fault/detail/mutex/timed_mutex.hpp Pages: 1 -->
<svg width="596pt" height="341pt"
 viewBox="0.00 0.00 596.00 341.00" xmlns="http://www.w3.org/2000/svg" xmlns:xlink="http://www.w3.org/1999/xlink">
<g id="graph0" class="graph" transform="scale(1 1) rotate(0) translate(4 337)">
<title>include/yaclib/fault/detail/mutex/timed_mutex.hpp</title>
<!-- Node1 -->
<g id="node1" class="node">
<title>Node1</title>
<g id="a_node1"><a xlink:title=" ">
<polygon fill="#bfbfbf" stroke="black" points="315,-302.5 315,-332.5 464,-332.5 464,-302.5 315,-302.5"/>
<text text-anchor="start" x="323" y="-320.5" font-family="Helvetica,sans-Serif" font-size="10.00">include/yaclib/fault</text>
<text text-anchor="middle" x="389.5" y="-309.5" font-family="Helvetica,sans-Serif" font-size="10.00">/detail/mutex/timed_mutex.hpp</text>
</a>
</g>
</g>
<!-- Node2 -->
<g id="node2" class="node">
<title>Node2</title>
<g id="a_node2"><a xlink:title=" ">
<polygon fill="none" stroke="#bfbfbf" points="154.5,-0.5 154.5,-19.5 242.5,-19.5 242.5,-0.5 154.5,-0.5"/>
<text text-anchor="middle" x="198.5" y="-7.5" font-family="Helvetica,sans-Serif" font-size="10.00">yaclib/config.hpp</text>
</a>
</g>
</g>
<!-- Node1&#45;&gt;Node2 -->
<g id="edge1" class="edge">
<title>Node1&#45;&gt;Node2</title>
<path fill="none" stroke="midnightblue" d="M418.64,-302.46C456.13,-282.11 516.5,-240.63 516.5,-184.5 516.5,-184.5 516.5,-184.5 516.5,-121 516.5,-70.94 470.5,-75.76 424.5,-56 368.68,-32.02 299.56,-20.65 252.56,-15.38"/>
<polygon fill="midnightblue" stroke="midnightblue" points="252.9,-11.89 242.59,-14.31 252.16,-18.85 252.9,-11.89"/>
</g>
<!-- Node3 -->
<g id="node3" class="node">
<title>Node3</title>
<g id="a_node3"><a xlink:href="chrono_8hpp.html" target="_top" xlink:title=" ">
<polygon fill="none" stroke="black" points="0,-56.5 0,-75.5 113,-75.5 113,-56.5 0,-56.5"/>
<text text-anchor="middle" x="56.5" y="-63.5" font-family="Helvetica,sans-Serif" font-size="10.00">yaclib/fault/chrono.hpp</text>
</a>
</g>
</g>
<!-- Node1&#45;&gt;Node3 -->
<g id="edge2" class="edge">
<title>Node1&#45;&gt;Node3</title>
<path fill="none" stroke="midnightblue" d="M314.63,-304.36C283.38,-296.82 247.83,-284.83 219.5,-266 145.41,-216.75 87.93,-123.66 66.07,-84.77"/>
<polygon fill="midnightblue" stroke="midnightblue" points="68.97,-82.78 61.08,-75.71 62.84,-86.16 68.97,-82.78"/>
</g>
<!-- Node5 -->
<g id="node5" class="node">
<title>Node5</title>
<g id="a_node5"><a xlink:href="inject__fault_8hpp.html" target="_top" xlink:title=" ">
<polygon fill="none" stroke="black" points="229,-235.5 229,-265.5 318,-265.5 318,-235.5 229,-235.5"/>
<text text-anchor="start" x="237" y="-253.5" font-family="Helvetica,sans-Serif" font-size="10.00">yaclib/fault/detail</text>
<text text-anchor="middle" x="273.5" y="-242.5" font-family="Helvetica,sans-Serif" font-size="10.00">/inject_fault.hpp</text>
</a>
</g>
</g>
<!-- Node1&#45;&gt;Node5 -->
<g id="edge5" class="edge">
<title>Node1&#45;&gt;Node5</title>
<path fill="none" stroke="midnightblue" d="M364.33,-302.4C347.76,-293.11 325.86,-280.84 307.72,-270.67"/>
<polygon fill="midnightblue" stroke="midnightblue" points="309.06,-267.41 298.62,-265.58 305.63,-273.52 309.06,-267.41"/>
</g>
<!-- Node9 -->
<g id="node9" class="node">
<title>Node9</title>
<g id="a_node9"><a xlink:title=" ">
<polygon fill="none" stroke="#bfbfbf" points="404.5,-112.5 404.5,-131.5 450.5,-131.5 450.5,-112.5 404.5,-112.5"/>
<text text-anchor="middle" x="427.5" y="-119.5" font-family="Helvetica,sans-Serif" font-size="10.00">atomic</text>
</a>
</g>
</g>
<!-- Node1&#45;&gt;Node9 -->
<g id="edge18" class="edge">
<title>Node1&#45;&gt;Node9</title>
<path fill="none" stroke="midnightblue" d="M383.6,-302.2C373.23,-274.78 354.72,-213.46 375.5,-168 381.28,-155.36 392.55,-144.91 403.13,-137.27"/>
<polygon fill="midnightblue" stroke="midnightblue" points="405.35,-140 411.72,-131.53 401.46,-134.18 405.35,-140"/>
</g>
<!-- Node11 -->
<g id="node11" class="node">
<title>Node11</title>
<g id="a_node11"><a xlink:href="log_8hpp.html" target="_top" xlink:title=" ">
<polygon fill="none" stroke="black" points="385,-241 385,-260 460,-260 460,-241 385,-241"/>
<text text-anchor="middle" x="422.5" y="-248" font-family="Helvetica,sans-Serif" font-size="10.00">yaclib/log.hpp</text>
</a>
</g>
</g>
<!-- Node1&#45;&gt;Node11 -->
<g id="edge15" class="edge">
<title>Node1&#45;&gt;Node11</title>
<path fill="none" stroke="midnightblue" d="M396.66,-302.4C401.6,-292.66 408.21,-279.65 413.51,-269.21"/>
<polygon fill="midnightblue" stroke="midnightblue" points="416.68,-270.7 418.09,-260.19 410.44,-267.53 416.68,-270.7"/>
</g>
<!-- Node13 -->
<g id="node13" class="node">
<title>Node13</title>
<g id="a_node13"><a xlink:title=" ">
<polygon fill="none" stroke="#bfbfbf" points="545,-241 545,-260 588,-260 588,-241 545,-241"/>
<text text-anchor="middle" x="566.5" y="-248" font-family="Helvetica,sans-Serif" font-size="10.00">mutex</text>
</a>
</g>
</g>
<!-- Node1&#45;&gt;Node13 -->
<g id="edge19" class="edge">
<title>Node1&#45;&gt;Node13</title>
<path fill="none" stroke="midnightblue" d="M430.07,-302.44C458.33,-292.53 496.84,-278.8 530.5,-266 532.34,-265.3 534.23,-264.57 536.14,-263.83"/>
<polygon fill="midnightblue" stroke="midnightblue" points="537.61,-267.01 545.61,-260.07 535.03,-260.5 537.61,-267.01"/>
</g>
<!-- Node3&#45;&gt;Node2 -->
<g id="edge3" class="edge">
<title>Node3&#45;&gt;Node2</title>
<path fill="none" stroke="midnightblue" d="M79,-56.44C102.58,-47.48 139.82,-33.31 166.46,-23.18"/>
<polygon fill="midnightblue" stroke="midnightblue" points="168,-26.34 176.1,-19.52 165.51,-19.8 168,-26.34"/>
</g>
<!-- Node4 -->
<g id="node4" class="node">
<title>Node4</title>
<g id="a_node4"><a xlink:title=" ">
<polygon fill="none" stroke="#bfbfbf" points="33.5,-0.5 33.5,-19.5 79.5,-19.5 79.5,-0.5 33.5,-0.5"/>
<text text-anchor="middle" x="56.5" y="-7.5" font-family="Helvetica,sans-Serif" font-size="10.00">chrono</text>
</a>
</g>
</g>
<!-- Node3&#45;&gt;Node4 -->
<g id="edge4" class="edge">
<title>Node3&#45;&gt;Node4</title>
<path fill="none" stroke="midnightblue" d="M56.5,-56.08C56.5,-49.01 56.5,-38.86 56.5,-29.99"/>
<polygon fill="midnightblue" stroke="midnightblue" points="60,-29.75 56.5,-19.75 53,-29.75 60,-29.75"/>
</g>
<!-- Node5&#45;&gt;Node2 -->
<g id="edge6" class="edge">
<title>Node5&#45;&gt;Node2</title>
<path fill="none" stroke="midnightblue" d="M255.32,-235.48C243.98,-226.06 229.66,-212.88 219.5,-199 200,-172.38 195.93,-163.9 187.5,-132 178.86,-99.3 178.08,-89.39 183.5,-56 184.97,-46.96 187.99,-37.28 190.94,-29.22"/>
<polygon fill="midnightblue" stroke="midnightblue" points="194.26,-30.34 194.64,-19.75 187.74,-27.79 194.26,-30.34"/>
</g>
<!-- Node6 -->
<g id="node6" class="node">
<title>Node6</title>
<g id="a_node6"><a xlink:href="yielder_8hpp.html" target="_top" xlink:title=" ">
<polygon fill="none" stroke="black" points="229,-168.5 229,-198.5 318,-198.5 318,-168.5 229,-168.5"/>
<text text-anchor="start" x="237" y="-186.5" font-family="Helvetica,sans-Serif" font-size="10.00">yaclib/fault/detail</text>
<text text-anchor="middle" x="273.5" y="-175.5" font-family="Helvetica,sans-Serif" font-size="10.00">/yielder.hpp</text>
</a>
</g>
</g>
<!-- Node5&#45;&gt;Node6 -->
<g id="edge7" class="edge">
<title>Node5&#45;&gt;Node6</title>
<path fill="none" stroke="midnightblue" d="M273.5,-235.4C273.5,-227.64 273.5,-217.81 273.5,-208.86"/>
<polygon fill="midnightblue" stroke="midnightblue" points="277,-208.58 273.5,-198.58 270,-208.58 277,-208.58"/>
</g>
<!-- Node6&#45;&gt;Node2 -->
<g id="edge8" class="edge">
<title>Node6&#45;&gt;Node2</title>
<path fill="none" stroke="midnightblue" d="M238.81,-168.34C223.54,-160.15 207.13,-148.21 198.5,-132 181.13,-99.36 187.65,-54.39 193.41,-29.49"/>
<polygon fill="midnightblue" stroke="midnightblue" points="196.86,-30.12 195.92,-19.57 190.08,-28.41 196.86,-30.12"/>
</g>
<!-- Node7 -->
<g id="node7" class="node">
<title>Node7</title>
<g id="a_node7"><a xlink:href="thread_8hpp.html" target="_top" xlink:title=" ">
<polygon fill="none" stroke="black" points="208,-112.5 208,-131.5 319,-131.5 319,-112.5 208,-112.5"/>
<text text-anchor="middle" x="263.5" y="-119.5" font-family="Helvetica,sans-Serif" font-size="10.00">yaclib/fault/thread.hpp</text>
</a>
</g>
</g>
<!-- Node6&#45;&gt;Node7 -->
<g id="edge9" class="edge">
<title>Node6&#45;&gt;Node7</title>
<path fill="none" stroke="midnightblue" d="M271.13,-168.4C269.78,-160.38 268.08,-150.23 266.62,-141.57"/>
<polygon fill="midnightblue" stroke="midnightblue" points="270.06,-140.94 264.96,-131.66 263.16,-142.1 270.06,-140.94"/>
</g>
<!-- Node6&#45;&gt;Node9 -->
<g id="edge13" class="edge">
<title>Node6&#45;&gt;Node9</title>
<path fill="none" stroke="midnightblue" d="M310,-168.4C336.07,-158.33 370.79,-144.91 395.72,-135.28"/>
<polygon fill="midnightblue" stroke="midnightblue" points="397.03,-138.53 405.09,-131.66 394.5,-132 397.03,-138.53"/>
</g>
<!-- Node10 -->
<g id="node10" class="node">
<title>Node10</title>
<g id="a_node10"><a xlink:title=" ">
<polygon fill="none" stroke="#bfbfbf" points="337,-112.5 337,-131.5 386,-131.5 386,-112.5 337,-112.5"/>
<text text-anchor="middle" x="361.5" y="-119.5" font-family="Helvetica,sans-Serif" font-size="10.00">random</text>
</a>
</g>
</g>
<!-- Node6&#45;&gt;Node10 -->
<g id="edge14" class="edge">
<title>Node6&#45;&gt;Node10</title>
<path fill="none" stroke="midnightblue" d="M294.35,-168.4C308.2,-159.04 326.31,-146.79 340.24,-137.38"/>
<polygon fill="midnightblue" stroke="midnightblue" points="342.37,-140.16 348.7,-131.66 338.45,-134.36 342.37,-140.16"/>
</g>
<!-- Node7&#45;&gt;Node2 -->
<g id="edge10" class="edge">
<title>Node7&#45;&gt;Node2</title>
<path fill="none" stroke="midnightblue" d="M258.29,-112.39C252.84,-103.35 244.02,-88.7 236.5,-76 227.05,-60.05 216.41,-41.82 208.79,-28.73"/>
<polygon fill="midnightblue" stroke="midnightblue" points="211.68,-26.74 203.63,-19.85 205.63,-30.25 211.68,-26.74"/>
</g>
<!-- Node7&#45;&gt;Node3 -->
<g id="edge11" class="edge">
<title>Node7&#45;&gt;Node3</title>
<path fill="none" stroke="midnightblue" d="M230.7,-112.44C195.12,-103.16 138.19,-88.31 99.15,-78.13"/>
<polygon fill="midnightblue" stroke="midnightblue" points="99.71,-74.65 89.15,-75.52 97.94,-81.43 99.71,-74.65"/>
</g>
<!-- Node8 -->
<g id="node8" class="node">
<title>Node8</title>
<g id="a_node8"><a xlink:title=" ">
<polygon fill="none" stroke="#bfbfbf" points="245.5,-56.5 245.5,-75.5 289.5,-75.5 289.5,-56.5 245.5,-56.5"/>
<text text-anchor="middle" x="267.5" y="-63.5" font-family="Helvetica,sans-Serif" font-size="10.00">thread</text>
</a>
</g>
</g>
<!-- Node7&#45;&gt;Node8 -->
<g id="edge12" class="edge">
<title>Node7&#45;&gt;Node8</title>
<path fill="none" stroke="midnightblue" d="M264.16,-112.08C264.68,-105.01 265.44,-94.86 266.09,-85.99"/>
<polygon fill="midnightblue" stroke="midnightblue" points="269.6,-85.98 266.85,-75.75 262.62,-85.47 269.6,-85.98"/>
</g>
<!-- Node11&#45;&gt;Node2 -->
<g id="edge16" class="edge">
<title>Node11&#45;&gt;Node2</title>
<path fill="none" stroke="midnightblue" d="M431.59,-240.84C440.66,-231.51 454.03,-215.73 459.5,-199 471.52,-162.25 481.36,-143.9 459.5,-112 413.12,-44.33 314.38,-21.99 252.53,-14.62"/>
<polygon fill="midnightblue" stroke="midnightblue" points="252.88,-11.13 242.55,-13.52 252.11,-18.09 252.88,-11.13"/>
</g>
<!-- Node12 -->
<g id="node12" class="node">
<title>Node12</title>
<g id="a_node12"><a xlink:title=" ">
<polygon fill="none" stroke="#bfbfbf" points="384.5,-174 384.5,-193 450.5,-193 450.5,-174 384.5,-174"/>
<text text-anchor="middle" x="417.5" y="-181" font-family="Helvetica,sans-Serif" font-size="10.00">string_view</text>
</a>
</g>
</g>
<!-- Node11&#45;&gt;Node12 -->
<g id="edge17" class="edge">
<title>Node11&#45;&gt;Node12</title>
<path fill="none" stroke="midnightblue" d="M421.83,-240.73C421.09,-231.18 419.89,-215.62 418.94,-203.28"/>
<polygon fill="midnightblue" stroke="midnightblue" points="422.42,-202.83 418.16,-193.13 415.44,-203.37 422.42,-202.83"/>
</g>
</g>
</svg>
