<?xml version="1.0" encoding="UTF-8" standalone="no"?>
<!DOCTYPE svg PUBLIC "-//W3C//DTD SVG 1.1//EN"
 "http://www.w3.org/Graphics/SVG/1.1/DTD/svg11.dtd">
<!-- Generated by graphviz version 2.50.0 (20220203.2022)
 -->
<!-- Title: include/yaclib/util/detail/type_traits_impl.hpp Pages: 1 -->
<svg width="1956pt" height="653pt"
 viewBox="0.00 0.00 1956.45 653.00" xmlns="http://www.w3.org/2000/svg" xmlns:xlink="http://www.w3.org/1999/xlink">
<g id="graph0" class="graph" transform="scale(1 1) rotate(0) translate(4 649)">
<title>include/yaclib/util/detail/type_traits_impl.hpp</title>
<!-- Node1 -->
<g id="node1" class="node">
<title>Node1</title>
<g id="a_node1"><a xlink:title=" ">
<polygon fill="#bfbfbf" stroke="black" points="1208.5,-603.5 1208.5,-644.5 1299.5,-644.5 1299.5,-603.5 1208.5,-603.5"/>
<text text-anchor="start" x="1216.5" y="-632.5" font-family="Helvetica,sans-Serif" font-size="10.00">include/yaclib/util</text>
<text text-anchor="start" x="1216.5" y="-621.5" font-family="Helvetica,sans-Serif" font-size="10.00">/detail/type_traits</text>
<text text-anchor="middle" x="1254" y="-610.5" font-family="Helvetica,sans-Serif" font-size="10.00">_impl.hpp</text>
</a>
</g>
</g>
<!-- Node2 -->
<g id="node2" class="node">
<title>Node2</title>
<g id="a_node2"><a xlink:href="type__traits_8hpp.html" target="_top" xlink:title=" ">
<polygon fill="none" stroke="black" points="1208.5,-536.5 1208.5,-566.5 1299.5,-566.5 1299.5,-536.5 1208.5,-536.5"/>
<text text-anchor="start" x="1216.5" y="-554.5" font-family="Helvetica,sans-Serif" font-size="10.00">include/yaclib/util</text>
<text text-anchor="middle" x="1254" y="-543.5" font-family="Helvetica,sans-Serif" font-size="10.00">/type_traits.hpp</text>
</a>
</g>
</g>
<!-- Node1&#45;&gt;Node2 -->
<g id="edge1" class="edge">
<title>Node1&#45;&gt;Node2</title>
<path fill="none" stroke="midnightblue" d="M1254,-593.08C1254,-584.01 1254,-574.45 1254,-566.89"/>
<polygon fill="midnightblue" stroke="midnightblue" points="1250.5,-593.36 1254,-603.36 1257.5,-593.36 1250.5,-593.36"/>
</g>
<!-- Node3 -->
<g id="node3" class="node">
<title>Node3</title>
<g id="a_node3"><a xlink:href="wait__impl_8hpp.html" target="_top" xlink:title=" ">
<polygon fill="none" stroke="black" points="1510.5,-402.5 1510.5,-432.5 1615.5,-432.5 1615.5,-402.5 1510.5,-402.5"/>
<text text-anchor="start" x="1518.5" y="-420.5" font-family="Helvetica,sans-Serif" font-size="10.00">include/yaclib/algo</text>
<text text-anchor="middle" x="1563" y="-409.5" font-family="Helvetica,sans-Serif" font-size="10.00">/detail/wait_impl.hpp</text>
</a>
</g>
</g>
<!-- Node2&#45;&gt;Node3 -->
<g id="edge2" class="edge">
<title>Node2&#45;&gt;Node3</title>
<path fill="none" stroke="midnightblue" d="M1309.94,-549.26C1361.62,-545.8 1438.8,-534.61 1496,-500 1523.58,-483.31 1544.91,-451.05 1555.54,-432.51"/>
<polygon fill="midnightblue" stroke="midnightblue" points="1309.41,-545.78 1299.64,-549.87 1309.83,-552.77 1309.41,-545.78"/>
</g>
<!-- Node6 -->
<g id="node6" class="node">
<title>Node6</title>
<g id="a_node6"><a xlink:href="future_8hpp.html" target="_top" xlink:title=" ">
<polygon fill="none" stroke="black" points="964,-201.5 964,-231.5 1068,-231.5 1068,-201.5 964,-201.5"/>
<text text-anchor="start" x="972" y="-219.5" font-family="Helvetica,sans-Serif" font-size="10.00">include/yaclib/async</text>
<text text-anchor="middle" x="1016" y="-208.5" font-family="Helvetica,sans-Serif" font-size="10.00">/future.hpp</text>
</a>
</g>
</g>
<!-- Node2&#45;&gt;Node6 -->
<g id="edge44" class="edge">
<title>Node2&#45;&gt;Node6</title>
<path fill="none" stroke="midnightblue" d="M1254,-525.99C1254,-499.49 1254,-456 1254,-418.5 1254,-418.5 1254,-418.5 1254,-349.5 1254,-265.16 1138.29,-234.26 1068.23,-223.28"/>
<polygon fill="midnightblue" stroke="midnightblue" points="1250.5,-526.24 1254,-536.24 1257.5,-526.24 1250.5,-526.24"/>
</g>
<!-- Node8 -->
<g id="node8" class="node">
<title>Node8</title>
<g id="a_node8"><a xlink:href="when__all_8hpp.html" target="_top" xlink:title=" ">
<polygon fill="none" stroke="black" points="439,-67.5 439,-97.5 535,-97.5 535,-67.5 439,-67.5"/>
<text text-anchor="start" x="447" y="-85.5" font-family="Helvetica,sans-Serif" font-size="10.00">include/yaclib/algo</text>
<text text-anchor="middle" x="487" y="-74.5" font-family="Helvetica,sans-Serif" font-size="10.00">/when_all.hpp</text>
</a>
</g>
</g>
<!-- Node2&#45;&gt;Node8 -->
<g id="edge42" class="edge">
<title>Node2&#45;&gt;Node8</title>
<path fill="none" stroke="midnightblue" d="M1198.19,-548.3C1000.59,-539.79 346,-505.06 346,-418.5 346,-418.5 346,-418.5 346,-349.5 346,-250.87 232.68,-212.04 293,-134 310.72,-111.08 387.45,-96.61 438.94,-89.3"/>
<polygon fill="midnightblue" stroke="midnightblue" points="1198.21,-551.81 1208.35,-548.73 1198.51,-544.81 1198.21,-551.81"/>
</g>
<!-- Node11 -->
<g id="node11" class="node">
<title>Node11</title>
<g id="a_node11"><a xlink:href="when__any_8hpp.html" target="_top" xlink:title=" ">
<polygon fill="none" stroke="black" points="1292,-67.5 1292,-97.5 1388,-97.5 1388,-67.5 1292,-67.5"/>
<text text-anchor="start" x="1300" y="-85.5" font-family="Helvetica,sans-Serif" font-size="10.00">include/yaclib/algo</text>
<text text-anchor="middle" x="1340" y="-74.5" font-family="Helvetica,sans-Serif" font-size="10.00">/when_any.hpp</text>
</a>
</g>
</g>
<!-- Node2&#45;&gt;Node11 -->
<g id="edge43" class="edge">
<title>Node2&#45;&gt;Node11</title>
<path fill="none" stroke="midnightblue" d="M1280.53,-530.15C1374.25,-458 1685.36,-216.01 1709,-165 1714.79,-152.5 1718.06,-144.38 1709,-134 1667.93,-86.92 1478.59,-82.14 1388.24,-82.63"/>
<polygon fill="midnightblue" stroke="midnightblue" points="1278.2,-527.53 1272.41,-536.4 1282.47,-533.08 1278.2,-527.53"/>
</g>
<!-- Node20 -->
<g id="node20" class="node">
<title>Node20</title>
<g id="a_node20"><a xlink:href="run_8hpp.html" target="_top" xlink:title=" ">
<polygon fill="none" stroke="black" points="302,-134.5 302,-164.5 406,-164.5 406,-134.5 302,-134.5"/>
<text text-anchor="start" x="310" y="-152.5" font-family="Helvetica,sans-Serif" font-size="10.00">include/yaclib/async</text>
<text text-anchor="middle" x="354" y="-141.5" font-family="Helvetica,sans-Serif" font-size="10.00">/run.hpp</text>
</a>
</g>
</g>
<!-- Node2&#45;&gt;Node20 -->
<g id="edge49" class="edge">
<title>Node2&#45;&gt;Node20</title>
<path fill="none" stroke="midnightblue" d="M1198.39,-549.54C1003.54,-545.91 361.89,-531.58 332,-500 240.67,-403.53 321.27,-217.13 346.84,-164.59"/>
<polygon fill="midnightblue" stroke="midnightblue" points="1198.35,-553.04 1208.41,-549.72 1198.48,-546.04 1198.35,-553.04"/>
</g>
<!-- Node21 -->
<g id="node21" class="node">
<title>Node21</title>
<g id="a_node21"><a xlink:href="await_8hpp.html" target="_top" xlink:title=" ">
<polygon fill="none" stroke="black" points="1798,-67.5 1798,-97.5 1916,-97.5 1916,-67.5 1798,-67.5"/>
<text text-anchor="start" x="1806" y="-85.5" font-family="Helvetica,sans-Serif" font-size="10.00">include/yaclib/coroutine</text>
<text text-anchor="middle" x="1857" y="-74.5" font-family="Helvetica,sans-Serif" font-size="10.00">/await.hpp</text>
</a>
</g>
</g>
<!-- Node2&#45;&gt;Node21 -->
<g id="edge50" class="edge">
<title>Node2&#45;&gt;Node21</title>
<path fill="none" stroke="midnightblue" d="M1309.78,-551.35C1406.52,-551.45 1610.88,-545.6 1776,-500 1857.54,-477.48 1948,-503.09 1948,-418.5 1948,-418.5 1948,-418.5 1948,-215.5 1948,-178.31 1949.82,-164.82 1929,-134 1918.49,-118.44 1901.46,-106.17 1886.6,-97.63"/>
<polygon fill="midnightblue" stroke="midnightblue" points="1309.65,-547.85 1299.64,-551.32 1309.63,-554.85 1309.65,-547.85"/>
</g>
<!-- Node25 -->
<g id="node25" class="node">
<title>Node25</title>
<g id="a_node25"><a xlink:href="future__awaiter_8hpp.html" target="_top" xlink:title=" ">
<polygon fill="none" stroke="black" points="1794.5,-134.5 1794.5,-164.5 1919.5,-164.5 1919.5,-134.5 1794.5,-134.5"/>
<text text-anchor="start" x="1802.5" y="-152.5" font-family="Helvetica,sans-Serif" font-size="10.00">include/yaclib/coroutine</text>
<text text-anchor="middle" x="1857" y="-141.5" font-family="Helvetica,sans-Serif" font-size="10.00">/detail/future_awaiter.hpp</text>
</a>
</g>
</g>
<!-- Node2&#45;&gt;Node25 -->
<g id="edge51" class="edge">
<title>Node2&#45;&gt;Node25</title>
<path fill="none" stroke="midnightblue" d="M1309.77,-549.52C1454.52,-545.48 1831,-524.75 1831,-418.5 1831,-418.5 1831,-418.5 1831,-282.5 1831,-238.82 1844.87,-188.52 1852.35,-164.58"/>
<polygon fill="midnightblue" stroke="midnightblue" points="1309.66,-546.02 1299.76,-549.78 1309.85,-553.02 1309.66,-546.02"/>
</g>
<!-- Node28 -->
<g id="node28" class="node">
<title>Node28</title>
<g id="a_node28"><a xlink:href="promise_8hpp.html" target="_top" xlink:title=" ">
<polygon fill="none" stroke="black" points="104,-335.5 104,-365.5 208,-365.5 208,-335.5 104,-335.5"/>
<text text-anchor="start" x="112" y="-353.5" font-family="Helvetica,sans-Serif" font-size="10.00">include/yaclib/async</text>
<text text-anchor="middle" x="156" y="-342.5" font-family="Helvetica,sans-Serif" font-size="10.00">/promise.hpp</text>
</a>
</g>
</g>
<!-- Node2&#45;&gt;Node28 -->
<g id="edge45" class="edge">
<title>Node2&#45;&gt;Node28</title>
<path fill="none" stroke="midnightblue" d="M1198.23,-549.81C983.24,-546.9 218.28,-534.17 180,-500 141.43,-465.56 148.16,-395.56 153.2,-365.61"/>
<polygon fill="midnightblue" stroke="midnightblue" points="1198.3,-553.31 1208.35,-549.94 1198.39,-546.31 1198.3,-553.31"/>
</g>
<!-- Node30 -->
<g id="node30" class="node">
<title>Node30</title>
<g id="a_node30"><a xlink:href="result_8hpp.html" target="_top" xlink:title=" ">
<polygon fill="none" stroke="black" points="698.5,-469.5 698.5,-499.5 789.5,-499.5 789.5,-469.5 698.5,-469.5"/>
<text text-anchor="start" x="706.5" y="-487.5" font-family="Helvetica,sans-Serif" font-size="10.00">include/yaclib/util</text>
<text text-anchor="middle" x="744" y="-476.5" font-family="Helvetica,sans-Serif" font-size="10.00">/result.hpp</text>
</a>
</g>
</g>
<!-- Node2&#45;&gt;Node30 -->
<g id="edge52" class="edge">
<title>Node2&#45;&gt;Node30</title>
<path fill="none" stroke="midnightblue" d="M1198.23,-543.39C1096.69,-530.45 883.46,-503.27 789.79,-491.34"/>
<polygon fill="midnightblue" stroke="midnightblue" points="1197.93,-546.88 1208.29,-544.67 1198.81,-539.94 1197.93,-546.88"/>
</g>
<!-- Node4 -->
<g id="node4" class="node">
<title>Node4</title>
<g id="a_node4"><a xlink:href="wait_8hpp.html" target="_top" xlink:title=" ">
<polygon fill="none" stroke="black" points="1282,-335.5 1282,-365.5 1378,-365.5 1378,-335.5 1282,-335.5"/>
<text text-anchor="start" x="1290" y="-353.5" font-family="Helvetica,sans-Serif" font-size="10.00">include/yaclib/algo</text>
<text text-anchor="middle" x="1330" y="-342.5" font-family="Helvetica,sans-Serif" font-size="10.00">/wait.hpp</text>
</a>
</g>
</g>
<!-- Node3&#45;&gt;Node4 -->
<g id="edge3" class="edge">
<title>Node3&#45;&gt;Node4</title>
<path fill="none" stroke="midnightblue" d="M1502.62,-399.66C1463.89,-388.85 1414.28,-375.01 1378.19,-364.94"/>
<polygon fill="midnightblue" stroke="midnightblue" points="1502.16,-403.16 1512.73,-402.48 1504.04,-396.42 1502.16,-403.16"/>
</g>
<!-- Node14 -->
<g id="node14" class="node">
<title>Node14</title>
<g id="a_node14"><a xlink:href="wait__for_8hpp.html" target="_top" xlink:title=" ">
<polygon fill="none" stroke="black" points="1490,-134.5 1490,-164.5 1586,-164.5 1586,-134.5 1490,-134.5"/>
<text text-anchor="start" x="1498" y="-152.5" font-family="Helvetica,sans-Serif" font-size="10.00">include/yaclib/algo</text>
<text text-anchor="middle" x="1538" y="-141.5" font-family="Helvetica,sans-Serif" font-size="10.00">/wait_for.hpp</text>
</a>
</g>
</g>
<!-- Node3&#45;&gt;Node14 -->
<g id="edge39" class="edge">
<title>Node3&#45;&gt;Node14</title>
<path fill="none" stroke="midnightblue" d="M1550.01,-393.37C1545.99,-385.01 1542.07,-375.33 1540,-366 1523.51,-291.67 1531.97,-199.34 1536.14,-164.59"/>
<polygon fill="midnightblue" stroke="midnightblue" points="1547,-395.17 1554.68,-402.48 1553.23,-391.98 1547,-395.17"/>
</g>
<!-- Node17 -->
<g id="node17" class="node">
<title>Node17</title>
<g id="a_node17"><a xlink:href="wait__until_8hpp.html" target="_top" xlink:title=" ">
<polygon fill="none" stroke="black" points="1604,-134.5 1604,-164.5 1700,-164.5 1700,-134.5 1604,-134.5"/>
<text text-anchor="start" x="1612" y="-152.5" font-family="Helvetica,sans-Serif" font-size="10.00">include/yaclib/algo</text>
<text text-anchor="middle" x="1652" y="-141.5" font-family="Helvetica,sans-Serif" font-size="10.00">/wait_until.hpp</text>
</a>
</g>
</g>
<!-- Node3&#45;&gt;Node17 -->
<g id="edge40" class="edge">
<title>Node3&#45;&gt;Node17</title>
<path fill="none" stroke="midnightblue" d="M1624.92,-401.37C1642.87,-393.81 1660.45,-382.58 1671,-366 1712.44,-300.88 1675.1,-201.44 1658.76,-164.75"/>
<polygon fill="midnightblue" stroke="midnightblue" points="1623.6,-398.13 1615.54,-405.01 1626.13,-404.66 1623.6,-398.13"/>
</g>
<!-- Node27 -->
<g id="node27" class="node">
<title>Node27</title>
<g id="a_node27"><a xlink:href="wait__impl_8cpp.html" target="_top" xlink:title=" ">
<polygon fill="none" stroke="black" points="1548.5,-341 1548.5,-360 1661.5,-360 1661.5,-341 1548.5,-341"/>
<text text-anchor="middle" x="1605" y="-348" font-family="Helvetica,sans-Serif" font-size="10.00">src/algo/wait_impl.cpp</text>
</a>
</g>
</g>
<!-- Node3&#45;&gt;Node27 -->
<g id="edge41" class="edge">
<title>Node3&#45;&gt;Node27</title>
<path fill="none" stroke="midnightblue" d="M1577.55,-393.97C1585.08,-382.33 1593.82,-368.8 1599.38,-360.19"/>
<polygon fill="midnightblue" stroke="midnightblue" points="1574.6,-392.1 1572.11,-402.4 1580.48,-395.9 1574.6,-392.1"/>
</g>
<!-- Node5 -->
<g id="node5" class="node">
<title>Node5</title>
<g id="a_node5"><a xlink:href="future__impl_8hpp.html" target="_top" xlink:title=" ">
<polygon fill="none" stroke="black" points="960,-268.5 960,-298.5 1072,-298.5 1072,-268.5 960,-268.5"/>
<text text-anchor="start" x="968" y="-286.5" font-family="Helvetica,sans-Serif" font-size="10.00">include/yaclib/async</text>
<text text-anchor="middle" x="1016" y="-275.5" font-family="Helvetica,sans-Serif" font-size="10.00">/detail/future_impl.hpp</text>
</a>
</g>
</g>
<!-- Node4&#45;&gt;Node5 -->
<g id="edge4" class="edge">
<title>Node4&#45;&gt;Node5</title>
<path fill="none" stroke="midnightblue" d="M1272.03,-337.5C1215.05,-325.7 1128.64,-307.82 1072.25,-296.15"/>
<polygon fill="midnightblue" stroke="midnightblue" points="1271.47,-340.96 1281.97,-339.56 1272.89,-334.1 1271.47,-340.96"/>
</g>
<!-- Node5&#45;&gt;Node6 -->
<g id="edge5" class="edge">
<title>Node5&#45;&gt;Node6</title>
<path fill="none" stroke="midnightblue" d="M1016,-258.11C1016,-249.15 1016,-239.32 1016,-231.58"/>
<polygon fill="midnightblue" stroke="midnightblue" points="1012.5,-258.4 1016,-268.4 1019.5,-258.4 1012.5,-258.4"/>
</g>
<!-- Node6&#45;&gt;Node4 -->
<g id="edge15" class="edge">
<title>Node6&#45;&gt;Node4</title>
<path fill="none" stroke="midnightblue" d="M1078.31,-217.91C1132.25,-220.94 1210.43,-231.98 1268,-268 1294.52,-284.6 1313.88,-316.89 1323.39,-335.46"/>
<polygon fill="midnightblue" stroke="midnightblue" points="1078.35,-214.41 1068.19,-217.42 1078.01,-221.4 1078.35,-214.41"/>
</g>
<!-- Node7 -->
<g id="node7" class="node">
<title>Node7</title>
<g id="a_node7"><a xlink:href="when__all__impl_8hpp.html" target="_top" xlink:title=" ">
<polygon fill="none" stroke="black" points="424.5,-134.5 424.5,-164.5 549.5,-164.5 549.5,-134.5 424.5,-134.5"/>
<text text-anchor="start" x="432.5" y="-152.5" font-family="Helvetica,sans-Serif" font-size="10.00">include/yaclib/algo</text>
<text text-anchor="middle" x="487" y="-141.5" font-family="Helvetica,sans-Serif" font-size="10.00">/detail/when_all_impl.hpp</text>
</a>
</g>
</g>
<!-- Node6&#45;&gt;Node7 -->
<g id="edge6" class="edge">
<title>Node6&#45;&gt;Node7</title>
<path fill="none" stroke="midnightblue" d="M953.98,-210.05C866.7,-202.05 702.78,-185.79 564,-165 559.29,-164.29 554.43,-163.51 549.55,-162.68"/>
<polygon fill="midnightblue" stroke="midnightblue" points="953.7,-213.54 963.98,-210.96 954.34,-206.57 953.7,-213.54"/>
</g>
<!-- Node6&#45;&gt;Node8 -->
<g id="edge20" class="edge">
<title>Node6&#45;&gt;Node8</title>
<path fill="none" stroke="midnightblue" d="M953.82,-212.16C853.3,-206.08 659.99,-191.32 597,-165 576.57,-156.46 575.69,-147.31 558,-134 541.2,-121.36 521.71,-107.56 507.41,-97.58"/>
<polygon fill="midnightblue" stroke="midnightblue" points="953.65,-215.66 963.84,-212.76 954.06,-208.67 953.65,-215.66"/>
</g>
<!-- Node10 -->
<g id="node10" class="node">
<title>Node10</title>
<g id="a_node10"><a xlink:href="when__any__impl_8hpp.html" target="_top" xlink:title=" ">
<polygon fill="none" stroke="black" points="1340.5,-134.5 1340.5,-164.5 1471.5,-164.5 1471.5,-134.5 1340.5,-134.5"/>
<text text-anchor="start" x="1348.5" y="-152.5" font-family="Helvetica,sans-Serif" font-size="10.00">include/yaclib/algo</text>
<text text-anchor="middle" x="1406" y="-141.5" font-family="Helvetica,sans-Serif" font-size="10.00">/detail/when_any_impl.hpp</text>
</a>
</g>
</g>
<!-- Node6&#45;&gt;Node10 -->
<g id="edge9" class="edge">
<title>Node6&#45;&gt;Node10</title>
<path fill="none" stroke="midnightblue" d="M1078.27,-205.69C1140.9,-195.75 1240.22,-179.76 1326,-165 1330.59,-164.21 1335.33,-163.38 1340.1,-162.54"/>
<polygon fill="midnightblue" stroke="midnightblue" points="1077.48,-202.27 1068.15,-207.29 1078.58,-209.18 1077.48,-202.27"/>
</g>
<!-- Node6&#45;&gt;Node11 -->
<g id="edge21" class="edge">
<title>Node6&#45;&gt;Node11</title>
<path fill="none" stroke="midnightblue" d="M1078.28,-211.76C1128.48,-206.6 1199.58,-194.3 1255,-165 1286.63,-148.28 1314.74,-116.33 1329.36,-97.79"/>
<polygon fill="midnightblue" stroke="midnightblue" points="1077.83,-208.29 1068.21,-212.73 1078.5,-215.26 1077.83,-208.29"/>
</g>
<!-- Node13 -->
<g id="node13" class="node">
<title>Node13</title>
<g id="a_node13"><a xlink:href="when__impl_8hpp.html" target="_top" xlink:title=" ">
<polygon fill="none" stroke="black" points="990,-134.5 990,-164.5 1100,-164.5 1100,-134.5 990,-134.5"/>
<text text-anchor="start" x="998" y="-152.5" font-family="Helvetica,sans-Serif" font-size="10.00">include/yaclib/algo</text>
<text text-anchor="middle" x="1045" y="-141.5" font-family="Helvetica,sans-Serif" font-size="10.00">/detail/when_impl.hpp</text>
</a>
</g>
</g>
<!-- Node6&#45;&gt;Node13 -->
<g id="edge12" class="edge">
<title>Node6&#45;&gt;Node13</title>
<path fill="none" stroke="midnightblue" d="M1026.49,-191.99C1030.59,-182.8 1035.15,-172.58 1038.72,-164.58"/>
<polygon fill="midnightblue" stroke="midnightblue" points="1023.17,-190.84 1022.29,-201.4 1029.56,-193.69 1023.17,-190.84"/>
</g>
<!-- Node6&#45;&gt;Node14 -->
<g id="edge16" class="edge">
<title>Node6&#45;&gt;Node14</title>
<path fill="none" stroke="midnightblue" d="M1078.29,-211.54C1167.88,-205.2 1338.07,-190.81 1481,-165 1483.91,-164.47 1486.9,-163.88 1489.9,-163.24"/>
<polygon fill="midnightblue" stroke="midnightblue" points="1078.03,-208.05 1068.3,-212.23 1078.52,-215.03 1078.03,-208.05"/>
</g>
<!-- Node15 -->
<g id="node15" class="node">
<title>Node15</title>
<g id="a_node15"><a xlink:href="wait__group_8hpp.html" target="_top" xlink:title=" ">
<polygon fill="none" stroke="black" points="876,-134.5 876,-164.5 972,-164.5 972,-134.5 876,-134.5"/>
<text text-anchor="start" x="884" y="-152.5" font-family="Helvetica,sans-Serif" font-size="10.00">include/yaclib/algo</text>
<text text-anchor="middle" x="924" y="-141.5" font-family="Helvetica,sans-Serif" font-size="10.00">/wait_group.hpp</text>
</a>
</g>
</g>
<!-- Node6&#45;&gt;Node15 -->
<g id="edge17" class="edge">
<title>Node6&#45;&gt;Node15</title>
<path fill="none" stroke="midnightblue" d="M987.62,-195.45C973.47,-185.45 956.69,-173.6 943.92,-164.58"/>
<polygon fill="midnightblue" stroke="midnightblue" points="985.85,-198.48 996.04,-201.4 989.89,-192.77 985.85,-198.48"/>
</g>
<!-- Node6&#45;&gt;Node17 -->
<g id="edge19" class="edge">
<title>Node6&#45;&gt;Node17</title>
<path fill="none" stroke="midnightblue" d="M1078.52,-213.37C1185.14,-208.99 1408.71,-196.6 1595,-165 1597.92,-164.5 1600.91,-163.94 1603.92,-163.32"/>
<polygon fill="midnightblue" stroke="midnightblue" points="1078.11,-209.88 1068.26,-213.78 1078.39,-216.88 1078.11,-209.88"/>
</g>
<!-- Node18 -->
<g id="node18" class="node">
<title>Node18</title>
<g id="a_node18"><a xlink:href="contract_8hpp.html" target="_top" xlink:title=" ">
<polygon fill="none" stroke="black" points="104,-134.5 104,-164.5 208,-164.5 208,-134.5 104,-134.5"/>
<text text-anchor="start" x="112" y="-152.5" font-family="Helvetica,sans-Serif" font-size="10.00">include/yaclib/async</text>
<text text-anchor="middle" x="156" y="-141.5" font-family="Helvetica,sans-Serif" font-size="10.00">/contract.hpp</text>
</a>
</g>
</g>
<!-- Node6&#45;&gt;Node18 -->
<g id="edge22" class="edge">
<title>Node6&#45;&gt;Node18</title>
<path fill="none" stroke="midnightblue" d="M953.52,-212.85C823.96,-207.01 516.71,-191.44 260,-165 243.04,-163.25 224.6,-160.85 208.02,-158.5"/>
<polygon fill="midnightblue" stroke="midnightblue" points="953.5,-216.35 963.65,-213.3 953.81,-209.36 953.5,-216.35"/>
</g>
<!-- Node19 -->
<g id="node19" class="node">
<title>Node19</title>
<g id="a_node19"><a xlink:href="simple_8cpp.html" target="_top" xlink:title=" ">
<polygon fill="none" stroke="black" points="105.5,-67.5 105.5,-97.5 206.5,-97.5 206.5,-67.5 105.5,-67.5"/>
<text text-anchor="start" x="113.5" y="-85.5" font-family="Helvetica,sans-Serif" font-size="10.00">test/example/async</text>
<text text-anchor="middle" x="156" y="-74.5" font-family="Helvetica,sans-Serif" font-size="10.00">/simple.cpp</text>
</a>
</g>
</g>
<!-- Node6&#45;&gt;Node19 -->
<g id="edge38" class="edge">
<title>Node6&#45;&gt;Node19</title>
<path fill="none" stroke="midnightblue" d="M953.65,-214.84C801.64,-212.63 415.45,-203.31 293,-165 246.25,-150.37 198.65,-117.01 173.73,-97.82"/>
<polygon fill="midnightblue" stroke="midnightblue" points="953.71,-218.34 963.75,-214.98 953.8,-211.34 953.71,-218.34"/>
</g>
<!-- Node6&#45;&gt;Node20 -->
<g id="edge24" class="edge">
<title>Node6&#45;&gt;Node20</title>
<path fill="none" stroke="midnightblue" d="M953.62,-213.33C844.03,-208.84 610.07,-196.2 415,-165 412.1,-164.54 409.13,-164.01 406.14,-163.44"/>
<polygon fill="midnightblue" stroke="midnightblue" points="953.7,-216.84 963.83,-213.74 953.98,-209.84 953.7,-216.84"/>
</g>
<!-- Node6&#45;&gt;Node21 -->
<g id="edge28" class="edge">
<title>Node6&#45;&gt;Node21</title>
<path fill="none" stroke="midnightblue" d="M1078.28,-211.79C1135.12,-206.61 1220.46,-194.28 1289,-165 1310.67,-155.74 1309.95,-142.31 1332,-134 1415.97,-102.37 1679.11,-89.57 1797.84,-85.31"/>
<polygon fill="midnightblue" stroke="midnightblue" points="1077.67,-208.33 1068.01,-212.68 1078.27,-215.3 1077.67,-208.33"/>
</g>
<!-- Node22 -->
<g id="node22" class="node">
<title>Node22</title>
<g id="a_node22"><a xlink:href="coroutine__deleter_8hpp.html" target="_top" xlink:title=" ">
<polygon fill="none" stroke="black" points="606,-134.5 606,-164.5 744,-164.5 744,-134.5 606,-134.5"/>
<text text-anchor="start" x="614" y="-152.5" font-family="Helvetica,sans-Serif" font-size="10.00">include/yaclib/coroutine</text>
<text text-anchor="middle" x="675" y="-141.5" font-family="Helvetica,sans-Serif" font-size="10.00">/detail/coroutine_deleter.hpp</text>
</a>
</g>
</g>
<!-- Node6&#45;&gt;Node22 -->
<g id="edge29" class="edge">
<title>Node6&#45;&gt;Node22</title>
<path fill="none" stroke="midnightblue" d="M953.88,-203.66C894.68,-192.38 805.73,-175.42 744.28,-163.7"/>
<polygon fill="midnightblue" stroke="midnightblue" points="953.36,-207.12 963.84,-205.56 954.67,-200.25 953.36,-207.12"/>
</g>
<!-- Node23 -->
<g id="node23" class="node">
<title>Node23</title>
<g id="a_node23"><a xlink:href="promise__type_8hpp.html" target="_top" xlink:title=" ">
<polygon fill="none" stroke="black" points="698,-67.5 698,-97.5 820,-97.5 820,-67.5 698,-67.5"/>
<text text-anchor="start" x="706" y="-85.5" font-family="Helvetica,sans-Serif" font-size="10.00">include/yaclib/coroutine</text>
<text text-anchor="middle" x="759" y="-74.5" font-family="Helvetica,sans-Serif" font-size="10.00">/detail/promise_type.hpp</text>
</a>
</g>
</g>
<!-- Node6&#45;&gt;Node23 -->
<g id="edge35" class="edge">
<title>Node6&#45;&gt;Node23</title>
<path fill="none" stroke="midnightblue" d="M953.78,-207.04C916.91,-199.96 870.44,-187.28 834,-165 805.29,-147.45 780.79,-115.81 768.15,-97.54"/>
<polygon fill="midnightblue" stroke="midnightblue" points="953.44,-210.54 963.91,-208.9 954.7,-203.65 953.44,-210.54"/>
</g>
<!-- Node24 -->
<g id="node24" class="node">
<title>Node24</title>
<g id="a_node24"><a xlink:href="future__coro__traits_8hpp.html" target="_top" xlink:title=" ">
<polygon fill="none" stroke="black" points="700,-0.5 700,-30.5 818,-30.5 818,-0.5 700,-0.5"/>
<text text-anchor="start" x="708" y="-18.5" font-family="Helvetica,sans-Serif" font-size="10.00">include/yaclib/coroutine</text>
<text text-anchor="middle" x="759" y="-7.5" font-family="Helvetica,sans-Serif" font-size="10.00">/future_coro_traits.hpp</text>
</a>
</g>
</g>
<!-- Node6&#45;&gt;Node24 -->
<g id="edge36" class="edge">
<title>Node6&#45;&gt;Node24</title>
<path fill="none" stroke="midnightblue" d="M953.86,-206.91C924.34,-199.98 890.48,-187.49 867,-165 833.26,-132.69 857.56,-103.97 829,-67 817.36,-51.94 800.05,-39.39 785.55,-30.57"/>
<polygon fill="midnightblue" stroke="midnightblue" points="953.16,-210.35 963.68,-209.06 954.65,-203.51 953.16,-210.35"/>
</g>
<!-- Node6&#45;&gt;Node25 -->
<g id="edge33" class="edge">
<title>Node6&#45;&gt;Node25</title>
<path fill="none" stroke="midnightblue" d="M1078.42,-211.47C1199.9,-203.52 1476.59,-184.85 1709,-165 1737.04,-162.61 1768.03,-159.62 1794.38,-156.98"/>
<polygon fill="midnightblue" stroke="midnightblue" points="1077.95,-208 1068.2,-212.14 1078.4,-214.98 1077.95,-208"/>
</g>
<!-- Node26 -->
<g id="node26" class="node">
<title>Node26</title>
<g id="a_node26"><a xlink:href="future__impl_8cpp.html" target="_top" xlink:title=" ">
<polygon fill="none" stroke="black" points="1118,-140 1118,-159 1246,-159 1246,-140 1118,-140"/>
<text text-anchor="middle" x="1182" y="-147" font-family="Helvetica,sans-Serif" font-size="10.00">src/async/future_impl.cpp</text>
</a>
</g>
</g>
<!-- Node6&#45;&gt;Node26 -->
<g id="edge37" class="edge">
<title>Node6&#45;&gt;Node26</title>
<path fill="none" stroke="midnightblue" d="M1061.66,-197.62C1093.79,-185.04 1135.35,-168.77 1160.27,-159.01"/>
<polygon fill="midnightblue" stroke="midnightblue" points="1060.05,-194.49 1052.02,-201.4 1062.61,-201.01 1060.05,-194.49"/>
</g>
<!-- Node7&#45;&gt;Node8 -->
<g id="edge7" class="edge">
<title>Node7&#45;&gt;Node8</title>
<path fill="none" stroke="midnightblue" d="M487,-124.11C487,-115.15 487,-105.32 487,-97.58"/>
<polygon fill="midnightblue" stroke="midnightblue" points="483.5,-124.4 487,-134.4 490.5,-124.4 483.5,-124.4"/>
</g>
<!-- Node9 -->
<g id="node9" class="node">
<title>Node9</title>
<g id="a_node9"><a xlink:href="when__all_8cpp.html" target="_top" xlink:title=" ">
<polygon fill="none" stroke="black" points="303.5,-0.5 303.5,-30.5 404.5,-30.5 404.5,-0.5 303.5,-0.5"/>
<text text-anchor="start" x="311.5" y="-18.5" font-family="Helvetica,sans-Serif" font-size="10.00">test/example/async</text>
<text text-anchor="middle" x="354" y="-7.5" font-family="Helvetica,sans-Serif" font-size="10.00">/when_all.cpp</text>
</a>
</g>
</g>
<!-- Node8&#45;&gt;Node9 -->
<g id="edge8" class="edge">
<title>Node8&#45;&gt;Node9</title>
<path fill="none" stroke="midnightblue" d="M449.13,-62.99C428.05,-52.69 402.22,-40.07 382.8,-30.58"/>
<polygon fill="midnightblue" stroke="midnightblue" points="447.62,-66.15 458.14,-67.4 450.69,-59.86 447.62,-66.15"/>
</g>
<!-- Node10&#45;&gt;Node11 -->
<g id="edge10" class="edge">
<title>Node10&#45;&gt;Node11</title>
<path fill="none" stroke="midnightblue" d="M1384.49,-127.31C1374.59,-117.56 1363.11,-106.26 1354.29,-97.58"/>
<polygon fill="midnightblue" stroke="midnightblue" points="1382.1,-129.87 1391.68,-134.4 1387.01,-124.89 1382.1,-129.87"/>
</g>
<!-- Node12 -->
<g id="node12" class="node">
<title>Node12</title>
<g id="a_node12"><a xlink:href="when__any_8cpp.html" target="_top" xlink:title=" ">
<polygon fill="none" stroke="black" points="1289.5,-0.5 1289.5,-30.5 1390.5,-30.5 1390.5,-0.5 1289.5,-0.5"/>
<text text-anchor="start" x="1297.5" y="-18.5" font-family="Helvetica,sans-Serif" font-size="10.00">test/example/async</text>
<text text-anchor="middle" x="1340" y="-7.5" font-family="Helvetica,sans-Serif" font-size="10.00">/when_any.cpp</text>
</a>
</g>
</g>
<!-- Node11&#45;&gt;Node12 -->
<g id="edge11" class="edge">
<title>Node11&#45;&gt;Node12</title>
<path fill="none" stroke="midnightblue" d="M1340,-57.11C1340,-48.15 1340,-38.32 1340,-30.58"/>
<polygon fill="midnightblue" stroke="midnightblue" points="1336.5,-57.4 1340,-67.4 1343.5,-57.4 1336.5,-57.4"/>
</g>
<!-- Node13&#45;&gt;Node8 -->
<g id="edge13" class="edge">
<title>Node13&#45;&gt;Node8</title>
<path fill="none" stroke="midnightblue" d="M979.87,-133.94C811.15,-106.84 622.27,-92.3 535.29,-86.49"/>
<polygon fill="midnightblue" stroke="midnightblue" points="979.49,-137.43 989.93,-135.58 980.62,-130.52 979.49,-137.43"/>
</g>
<!-- Node13&#45;&gt;Node11 -->
<g id="edge14" class="edge">
<title>Node13&#45;&gt;Node11</title>
<path fill="none" stroke="midnightblue" d="M1110.27,-133.72C1178.89,-118.48 1247.19,-103.6 1291.75,-93.94"/>
<polygon fill="midnightblue" stroke="midnightblue" points="1109.15,-130.39 1100.15,-135.98 1110.67,-137.22 1109.15,-130.39"/>
</g>
<!-- Node16 -->
<g id="node16" class="node">
<title>Node16</title>
<g id="a_node16"><a xlink:href="wait__group_8cpp.html" target="_top" xlink:title=" ">
<polygon fill="none" stroke="black" points="876.5,-73 876.5,-92 995.5,-92 995.5,-73 876.5,-73"/>
<text text-anchor="middle" x="936" y="-80" font-family="Helvetica,sans-Serif" font-size="10.00">src/algo/wait_group.cpp</text>
</a>
</g>
</g>
<!-- Node15&#45;&gt;Node16 -->
<g id="edge18" class="edge">
<title>Node15&#45;&gt;Node16</title>
<path fill="none" stroke="midnightblue" d="M928.48,-124.25C930.55,-113.02 932.88,-100.38 934.39,-92.19"/>
<polygon fill="midnightblue" stroke="midnightblue" points="924.98,-123.93 926.6,-134.4 931.86,-125.2 924.98,-123.93"/>
</g>
<!-- Node18&#45;&gt;Node19 -->
<g id="edge23" class="edge">
<title>Node18&#45;&gt;Node19</title>
<path fill="none" stroke="midnightblue" d="M156,-124.11C156,-115.15 156,-105.32 156,-97.58"/>
<polygon fill="midnightblue" stroke="midnightblue" points="152.5,-124.4 156,-134.4 159.5,-124.4 152.5,-124.4"/>
</g>
<!-- Node20&#45;&gt;Node9 -->
<g id="edge26" class="edge">
<title>Node20&#45;&gt;Node9</title>
<path fill="none" stroke="midnightblue" d="M354,-124.02C354,-96.51 354,-52.79 354,-30.52"/>
<polygon fill="midnightblue" stroke="midnightblue" points="350.5,-124.37 354,-134.37 357.5,-124.37 350.5,-124.37"/>
</g>
<!-- Node20&#45;&gt;Node12 -->
<g id="edge27" class="edge">
<title>Node20&#45;&gt;Node12</title>
<path fill="none" stroke="midnightblue" d="M367.82,-125.88C381.09,-106.44 403.08,-79.61 430,-67 469.12,-48.69 1103.66,-24.87 1289.34,-18.27"/>
<polygon fill="midnightblue" stroke="midnightblue" points="364.74,-124.2 362.18,-134.48 370.59,-128.04 364.74,-124.2"/>
</g>
<!-- Node20&#45;&gt;Node19 -->
<g id="edge25" class="edge">
<title>Node20&#45;&gt;Node19</title>
<path fill="none" stroke="midnightblue" d="M301.39,-131.23C269.36,-120.71 228.96,-107.45 198.88,-97.58"/>
<polygon fill="midnightblue" stroke="midnightblue" points="300.44,-134.6 311.04,-134.4 302.63,-127.95 300.44,-134.6"/>
</g>
<!-- Node22&#45;&gt;Node23 -->
<g id="edge30" class="edge">
<title>Node22&#45;&gt;Node23</title>
<path fill="none" stroke="midnightblue" d="M701.28,-128.17C714.12,-118.23 729.26,-106.51 740.81,-97.58"/>
<polygon fill="midnightblue" stroke="midnightblue" points="698.99,-125.51 693.23,-134.4 703.28,-131.04 698.99,-125.51"/>
</g>
<!-- Node22&#45;&gt;Node24 -->
<g id="edge32" class="edge">
<title>Node22&#45;&gt;Node24</title>
<path fill="none" stroke="midnightblue" d="M674.46,-124.07C675.16,-106.92 678.34,-84.08 689,-67 698.76,-51.36 715.3,-39.1 729.85,-30.57"/>
<polygon fill="midnightblue" stroke="midnightblue" points="670.95,-124.35 674.31,-134.4 677.95,-124.45 670.95,-124.35"/>
</g>
<!-- Node23&#45;&gt;Node24 -->
<g id="edge31" class="edge">
<title>Node23&#45;&gt;Node24</title>
<path fill="none" stroke="midnightblue" d="M759,-57.11C759,-48.15 759,-38.32 759,-30.58"/>
<polygon fill="midnightblue" stroke="midnightblue" points="755.5,-57.4 759,-67.4 762.5,-57.4 755.5,-57.4"/>
</g>
<!-- Node25&#45;&gt;Node21 -->
<g id="edge34" class="edge">
<title>Node25&#45;&gt;Node21</title>
<path fill="none" stroke="midnightblue" d="M1857,-124.11C1857,-115.15 1857,-105.32 1857,-97.58"/>
<polygon fill="midnightblue" stroke="midnightblue" points="1853.5,-124.4 1857,-134.4 1860.5,-124.4 1853.5,-124.4"/>
</g>
<!-- Node28&#45;&gt;Node18 -->
<g id="edge46" class="edge">
<title>Node28&#45;&gt;Node18</title>
<path fill="none" stroke="midnightblue" d="M142.96,-326.38C138.94,-318.02 135.03,-308.34 133,-299 122.38,-250.05 140.63,-190.99 150.41,-164.52"/>
<polygon fill="midnightblue" stroke="midnightblue" points="139.96,-328.19 147.64,-335.48 146.18,-324.99 139.96,-328.19"/>
</g>
<!-- Node28&#45;&gt;Node19 -->
<g id="edge48" class="edge">
<title>Node28&#45;&gt;Node19</title>
<path fill="none" stroke="midnightblue" d="M139.51,-327.03C112.21,-286.86 63.61,-200.73 95,-134 102.26,-118.57 116.79,-106.24 129.86,-97.63"/>
<polygon fill="midnightblue" stroke="midnightblue" points="136.7,-329.12 145.29,-335.32 142.44,-325.12 136.7,-329.12"/>
</g>
<!-- Node29 -->
<g id="node29" class="node">
<title>Node29</title>
<g id="a_node29"><a xlink:href="promise__impl_8cpp.html" target="_top" xlink:title=" ">
<polygon fill="none" stroke="black" points="142.5,-274 142.5,-293 279.5,-293 279.5,-274 142.5,-274"/>
<text text-anchor="middle" x="211" y="-281" font-family="Helvetica,sans-Serif" font-size="10.00">src/async/promise_impl.cpp</text>
</a>
</g>
</g>
<!-- Node28&#45;&gt;Node29 -->
<g id="edge47" class="edge">
<title>Node28&#45;&gt;Node29</title>
<path fill="none" stroke="midnightblue" d="M174.48,-327.66C184.46,-315.86 196.22,-301.97 203.64,-293.19"/>
<polygon fill="midnightblue" stroke="midnightblue" points="171.72,-325.5 167.93,-335.4 177.07,-330.02 171.72,-325.5"/>
</g>
<!-- Node30&#45;&gt;Node5 -->
<g id="edge53" class="edge">
<title>Node30&#45;&gt;Node5</title>
<path fill="none" stroke="midnightblue" d="M784.35,-465.05C827.04,-444.44 895.12,-408.34 946,-366 970.52,-345.6 993.51,-316.09 1006.08,-298.74"/>
<polygon fill="midnightblue" stroke="midnightblue" points="782.64,-461.99 775.12,-469.46 785.66,-468.31 782.64,-461.99"/>
</g>
<!-- Node30&#45;&gt;Node9 -->
<g id="edge67" class="edge">
<title>Node30&#45;&gt;Node9</title>
<path fill="none" stroke="midnightblue" d="M688.26,-481.29C543.26,-474.4 159.16,-448.6 68,-366 14.21,-317.26 0,-290.09 0,-217.5 0,-217.5 0,-217.5 0,-148.5 0,-92.53 45.57,-91.27 96,-67 163.04,-34.73 249.3,-23.08 303.13,-18.88"/>
<polygon fill="midnightblue" stroke="midnightblue" points="688.13,-484.78 698.28,-481.75 688.46,-477.79 688.13,-484.78"/>
</g>
<!-- Node30&#45;&gt;Node12 -->
<g id="edge68" class="edge">
<title>Node30&#45;&gt;Node12</title>
<path fill="none" stroke="midnightblue" d="M800.07,-481.46C917.56,-475.53 1196.43,-452.67 1411,-366 1559.13,-306.17 1634,-306.06 1709,-165 1774.57,-41.68 1506.22,-20.53 1390.64,-17.08"/>
<polygon fill="midnightblue" stroke="midnightblue" points="799.7,-477.97 789.88,-481.95 800.04,-484.97 799.7,-477.97"/>
</g>
<!-- Node30&#45;&gt;Node19 -->
<g id="edge66" class="edge">
<title>Node30&#45;&gt;Node19</title>
<path fill="none" stroke="midnightblue" d="M688.13,-474.31C532.56,-448.59 105.11,-377.06 95,-366 25.34,-289.79 35.07,-225.45 83,-134 91.44,-117.89 107.61,-105.91 122.59,-97.66"/>
<polygon fill="midnightblue" stroke="midnightblue" points="687.98,-477.83 698.42,-476 689.12,-470.92 687.98,-477.83"/>
</g>
<!-- Node30&#45;&gt;Node22 -->
<g id="edge65" class="edge">
<title>Node30&#45;&gt;Node22</title>
<path fill="none" stroke="midnightblue" d="M688.15,-478.59C614.19,-468.68 493,-439.08 493,-351.5 493,-351.5 493,-351.5 493,-282.5 493,-218.49 567.69,-182.32 621.38,-164.59"/>
<polygon fill="midnightblue" stroke="midnightblue" points="687.9,-482.09 698.25,-479.86 688.77,-475.14 687.9,-482.09"/>
</g>
<!-- Node31 -->
<g id="node31" class="node">
<title>Node31</title>
<g id="a_node31"><a xlink:href="result__core_8hpp.html" target="_top" xlink:title=" ">
<polygon fill="none" stroke="black" points="688,-402.5 688,-432.5 800,-432.5 800,-402.5 688,-402.5"/>
<text text-anchor="start" x="696" y="-420.5" font-family="Helvetica,sans-Serif" font-size="10.00">include/yaclib/async</text>
<text text-anchor="middle" x="744" y="-409.5" font-family="Helvetica,sans-Serif" font-size="10.00">/detail/result_core.hpp</text>
</a>
</g>
</g>
<!-- Node30&#45;&gt;Node31 -->
<g id="edge54" class="edge">
<title>Node30&#45;&gt;Node31</title>
<path fill="none" stroke="midnightblue" d="M744,-459.11C744,-450.15 744,-440.32 744,-432.58"/>
<polygon fill="midnightblue" stroke="midnightblue" points="740.5,-459.4 744,-469.4 747.5,-459.4 740.5,-459.4"/>
</g>
<!-- Node31&#45;&gt;Node6 -->
<g id="edge60" class="edge">
<title>Node31&#45;&gt;Node6</title>
<path fill="none" stroke="midnightblue" d="M810.27,-402.98C850.78,-393.55 897.67,-380.15 913,-366 947.32,-334.31 923.1,-305.47 951,-268 962.01,-253.21 978.43,-240.51 992.01,-231.54"/>
<polygon fill="midnightblue" stroke="midnightblue" points="809.37,-399.6 800.4,-405.23 810.93,-406.42 809.37,-399.6"/>
</g>
<!-- Node31&#45;&gt;Node7 -->
<g id="edge55" class="edge">
<title>Node31&#45;&gt;Node7</title>
<path fill="none" stroke="midnightblue" d="M677.86,-415.28C636.08,-411.04 583.8,-398.81 550,-366 491.96,-309.67 486.62,-203.07 486.68,-164.71"/>
<polygon fill="midnightblue" stroke="midnightblue" points="677.69,-418.78 687.96,-416.18 678.31,-411.81 677.69,-418.78"/>
</g>
<!-- Node31&#45;&gt;Node10 -->
<g id="edge56" class="edge">
<title>Node31&#45;&gt;Node10</title>
<path fill="none" stroke="midnightblue" d="M810.45,-416.04C966.57,-414.3 1346.66,-405.96 1387,-366 1442.5,-311.02 1420.36,-203.12 1410.1,-164.59"/>
<polygon fill="midnightblue" stroke="midnightblue" points="810.01,-412.55 800.05,-416.15 810.08,-419.54 810.01,-412.55"/>
</g>
<!-- Node31&#45;&gt;Node22 -->
<g id="edge62" class="edge">
<title>Node31&#45;&gt;Node22</title>
<path fill="none" stroke="midnightblue" d="M737.75,-392.41C723.67,-338.12 689.81,-207.61 678.64,-164.55"/>
<polygon fill="midnightblue" stroke="midnightblue" points="734.39,-393.4 740.29,-402.2 741.17,-391.64 734.39,-393.4"/>
</g>
<!-- Node31&#45;&gt;Node23 -->
<g id="edge63" class="edge">
<title>Node31&#45;&gt;Node23</title>
<path fill="none" stroke="midnightblue" d="M752.2,-392.67C760.46,-366.47 772,-323 772,-284.5 772,-284.5 772,-284.5 772,-215.5 772,-172.44 765.06,-121.85 761.32,-97.71"/>
<polygon fill="midnightblue" stroke="midnightblue" points="748.78,-391.86 749.01,-402.45 755.43,-394.03 748.78,-391.86"/>
</g>
<!-- Node31&#45;&gt;Node28 -->
<g id="edge61" class="edge">
<title>Node31&#45;&gt;Node28</title>
<path fill="none" stroke="midnightblue" d="M677.89,-409.19C559.83,-396.14 315.08,-369.09 208.03,-357.25"/>
<polygon fill="midnightblue" stroke="midnightblue" points="677.56,-412.68 687.89,-410.3 678.33,-405.72 677.56,-412.68"/>
</g>
<!-- Node32 -->
<g id="node32" class="node">
<title>Node32</title>
<g id="a_node32"><a xlink:href="core_8hpp.html" target="_top" xlink:title=" ">
<polygon fill="none" stroke="black" points="800,-335.5 800,-365.5 904,-365.5 904,-335.5 800,-335.5"/>
<text text-anchor="start" x="808" y="-353.5" font-family="Helvetica,sans-Serif" font-size="10.00">include/yaclib/async</text>
<text text-anchor="middle" x="852" y="-342.5" font-family="Helvetica,sans-Serif" font-size="10.00">/detail/core.hpp</text>
</a>
</g>
</g>
<!-- Node31&#45;&gt;Node32 -->
<g id="edge57" class="edge">
<title>Node31&#45;&gt;Node32</title>
<path fill="none" stroke="midnightblue" d="M776.37,-397.02C793.18,-386.9 813.34,-374.77 828.61,-365.58"/>
<polygon fill="midnightblue" stroke="midnightblue" points="774.2,-394.24 767.43,-402.4 777.81,-400.24 774.2,-394.24"/>
</g>
<!-- Node33 -->
<g id="node33" class="node">
<title>Node33</title>
<g id="a_node33"><a xlink:href="result__core_8cpp.html" target="_top" xlink:title=" ">
<polygon fill="none" stroke="black" points="559,-341 559,-360 687,-360 687,-341 559,-341"/>
<text text-anchor="middle" x="623" y="-348" font-family="Helvetica,sans-Serif" font-size="10.00">src/async/result_core.cpp</text>
</a>
</g>
</g>
<!-- Node31&#45;&gt;Node33 -->
<g id="edge64" class="edge">
<title>Node31&#45;&gt;Node33</title>
<path fill="none" stroke="midnightblue" d="M708.89,-397.64C685.74,-385.2 656.53,-369.51 638.84,-360.01"/>
<polygon fill="midnightblue" stroke="midnightblue" points="707.28,-400.75 717.74,-402.4 710.59,-394.58 707.28,-400.75"/>
</g>
<!-- Node32&#45;&gt;Node5 -->
<g id="edge58" class="edge">
<title>Node32&#45;&gt;Node5</title>
<path fill="none" stroke="midnightblue" d="M896.96,-331.68C923.26,-321.26 956,-308.28 980.48,-298.58"/>
<polygon fill="midnightblue" stroke="midnightblue" points="895.59,-328.46 887.59,-335.4 898.17,-334.97 895.59,-328.46"/>
</g>
<!-- Node32&#45;&gt;Node20 -->
<g id="edge59" class="edge">
<title>Node32&#45;&gt;Node20</title>
<path fill="none" stroke="midnightblue" d="M807.26,-331.62C709.34,-292.49 477.75,-199.95 389.24,-164.58"/>
<polygon fill="midnightblue" stroke="midnightblue" points="806,-334.89 816.58,-335.35 808.6,-328.39 806,-334.89"/>
</g>
</g>
</svg>
