<?xml version="1.0" encoding="UTF-8" standalone="no"?>
<!DOCTYPE svg PUBLIC "-//W3C//DTD SVG 1.1//EN"
 "http://www.w3.org/Graphics/SVG/1.1/DTD/svg11.dtd">
<!-- Generated by graphviz version 2.50.0 (20220203.2022)
 -->
<!-- Title: include/yaclib/util/type_traits.hpp Pages: 1 -->
<svg width="338pt" height="162pt"
 viewBox="0.00 0.00 338.27 162.00" xmlns="http://www.w3.org/2000/svg" xmlns:xlink="http://www.w3.org/1999/xlink">
<g id="graph0" class="graph" transform="scale(1 1) rotate(0) translate(4 158)">
<title>include/yaclib/util/type_traits.hpp</title>
<!-- Node1 -->
<g id="node1" class="node">
<title>Node1</title>
<g id="a_node1"><a xlink:title=" ">
<polygon fill="#bfbfbf" stroke="black" points="117.77,-123.5 117.77,-153.5 208.77,-153.5 208.77,-123.5 117.77,-123.5"/>
<text text-anchor="start" x="125.77" y="-141.5" font-family="Helvetica,sans-Serif" font-size="10.00">include/yaclib/util</text>
<text text-anchor="middle" x="163.27" y="-130.5" font-family="Helvetica,sans-Serif" font-size="10.00">/type_traits.hpp</text>
</a>
</g>
</g>
<!-- Node2 -->
<g id="node2" class="node">
<title>Node2</title>
<g id="a_node2"><a xlink:title=" ">
<polygon fill="none" stroke="#bfbfbf" points="9.27,-0.5 9.27,-19.5 97.27,-19.5 97.27,-0.5 9.27,-0.5"/>
<text text-anchor="middle" x="53.27" y="-7.5" font-family="Helvetica,sans-Serif" font-size="10.00">yaclib/config.hpp</text>
</a>
</g>
</g>
<!-- Node1&#45;&gt;Node2 -->
<g id="edge1" class="edge">
<title>Node1&#45;&gt;Node2</title>
<path fill="none" stroke="midnightblue" d="M117.54,-136.64C80.61,-133.23 30.74,-121.89 5.27,-87 -2.86,-75.87 -0.21,-68.64 5.27,-56 10.53,-43.84 20.89,-33.46 30.63,-25.74"/>
<polygon fill="midnightblue" stroke="midnightblue" points="32.91,-28.41 38.9,-19.67 28.77,-22.77 32.91,-28.41"/>
</g>
<!-- Node3 -->
<g id="node3" class="node">
<title>Node3</title>
<g id="a_node3"><a xlink:href="fwd_8hpp.html" target="_top" xlink:title=" ">
<polygon fill="none" stroke="black" points="14.27,-62 14.27,-81 92.27,-81 92.27,-62 14.27,-62"/>
<text text-anchor="middle" x="53.27" y="-69" font-family="Helvetica,sans-Serif" font-size="10.00">yaclib/fwd.hpp</text>
</a>
</g>
</g>
<!-- Node1&#45;&gt;Node3 -->
<g id="edge2" class="edge">
<title>Node1&#45;&gt;Node3</title>
<path fill="none" stroke="midnightblue" d="M139.4,-123.4C120.7,-112.34 94.83,-97.06 76.34,-86.13"/>
<polygon fill="midnightblue" stroke="midnightblue" points="78.05,-83.08 67.66,-81.01 74.49,-89.11 78.05,-83.08"/>
</g>
<!-- Node4 -->
<g id="node4" class="node">
<title>Node4</title>
<g id="a_node4"><a xlink:href="type__traits__impl_8hpp.html" target="_top" xlink:title=" ">
<polygon fill="none" stroke="black" points="110.27,-56.5 110.27,-86.5 216.27,-86.5 216.27,-56.5 110.27,-56.5"/>
<text text-anchor="start" x="118.27" y="-74.5" font-family="Helvetica,sans-Serif" font-size="10.00">yaclib/util/detail</text>
<text text-anchor="middle" x="163.27" y="-63.5" font-family="Helvetica,sans-Serif" font-size="10.00">/type_traits_impl.hpp</text>
</a>
</g>
</g>
<!-- Node1&#45;&gt;Node4 -->
<g id="edge4" class="edge">
<title>Node1&#45;&gt;Node4</title>
<path fill="none" stroke="midnightblue" d="M163.27,-123.4C163.27,-115.64 163.27,-105.81 163.27,-96.86"/>
<polygon fill="midnightblue" stroke="midnightblue" points="166.77,-96.58 163.27,-86.58 159.77,-96.58 166.77,-96.58"/>
</g>
<!-- Node5 -->
<g id="node5" class="node">
<title>Node5</title>
<g id="a_node5"><a xlink:title=" ">
<polygon fill="none" stroke="#bfbfbf" points="172.27,-0.5 172.27,-19.5 234.27,-19.5 234.27,-0.5 172.27,-0.5"/>
<text text-anchor="middle" x="203.27" y="-7.5" font-family="Helvetica,sans-Serif" font-size="10.00">type_traits</text>
</a>
</g>
</g>
<!-- Node1&#45;&gt;Node5 -->
<g id="edge8" class="edge">
<title>Node1&#45;&gt;Node5</title>
<path fill="none" stroke="midnightblue" d="M189.83,-123.47C203.1,-114.88 217.88,-102.55 225.27,-87 234.35,-67.89 224.54,-44.26 215.28,-28.47"/>
<polygon fill="midnightblue" stroke="midnightblue" points="218.07,-26.34 209.76,-19.76 212.16,-30.08 218.07,-26.34"/>
</g>
<!-- Node6 -->
<g id="node6" class="node">
<title>Node6</title>
<g id="a_node6"><a xlink:title=" ">
<polygon fill="none" stroke="#bfbfbf" points="272.27,-62 272.27,-81 330.27,-81 330.27,-62 272.27,-62"/>
<text text-anchor="middle" x="301.27" y="-69" font-family="Helvetica,sans-Serif" font-size="10.00">exception</text>
</a>
</g>
</g>
<!-- Node1&#45;&gt;Node6 -->
<g id="edge7" class="edge">
<title>Node1&#45;&gt;Node6</title>
<path fill="none" stroke="midnightblue" d="M193.21,-123.4C217.21,-112.09 250.61,-96.36 273.9,-85.39"/>
<polygon fill="midnightblue" stroke="midnightblue" points="275.65,-88.43 283.21,-81.01 272.67,-82.1 275.65,-88.43"/>
</g>
<!-- Node3&#45;&gt;Node2 -->
<g id="edge3" class="edge">
<title>Node3&#45;&gt;Node2</title>
<path fill="none" stroke="midnightblue" d="M53.27,-61.98C53.27,-53.58 53.27,-40.48 53.27,-29.66"/>
<polygon fill="midnightblue" stroke="midnightblue" points="56.77,-29.51 53.27,-19.51 49.77,-29.51 56.77,-29.51"/>
</g>
<!-- Node4&#45;&gt;Node2 -->
<g id="edge5" class="edge">
<title>Node4&#45;&gt;Node2</title>
<path fill="none" stroke="midnightblue" d="M137.2,-56.4C119.4,-46.77 95.95,-34.09 78.37,-24.58"/>
<polygon fill="midnightblue" stroke="midnightblue" points="79.73,-21.34 69.27,-19.66 76.4,-27.49 79.73,-21.34"/>
</g>
<!-- Node4&#45;&gt;Node5 -->
<g id="edge6" class="edge">
<title>Node4&#45;&gt;Node5</title>
<path fill="none" stroke="midnightblue" d="M172.75,-56.4C178.44,-47.93 185.72,-37.1 191.74,-28.14"/>
<polygon fill="midnightblue" stroke="midnightblue" points="194.77,-29.91 197.45,-19.66 188.96,-26 194.77,-29.91"/>
</g>
</g>
</svg>
