<?xml version="1.0" encoding="UTF-8" standalone="no"?>
<!DOCTYPE svg PUBLIC "-//W3C//DTD SVG 1.1//EN"
 "http://www.w3.org/Graphics/SVG/1.1/DTD/svg11.dtd">
<!-- Generated by graphviz version 2.50.0 (20220203.2022)
 -->
<!-- Title: include/yaclib/executor/detail/unique_task.hpp Pages: 1 -->
<!--zoomable 408 -->
<svg id="main" version="1.1" xmlns="http://www.w3.org/2000/svg" xmlns:xlink="http://www.w3.org/1999/xlink" xml:space="preserve" onload="init(evt)">
<style type="text/css"><![CDATA[
.edge:hover path { stroke: red; }
.edge:hover polygon { stroke: red; fill: red; }
]]></style>
<script type="text/javascript"><![CDATA[
var edges = document.getElementsByTagName('g');
if (edges && edges.length) {
  for (var i=0;i<edges.length;i++) {
    if (edges[i].id.substr(0,4)=='edge') {
      edges[i].setAttribute('class','edge');
    }
  }
}
]]></script>
        <defs>
                <circle id="rim" cx="0" cy="0" r="7"/>
                <circle id="rim2" cx="0" cy="0" r="3.5"/>
                <g id="zoomPlus">
                        <use xlink:href="#rim" fill="#404040">
                                <set attributeName="fill" to="#808080" begin="zoomplus.mouseover" end="zoomplus.mouseout"/>
                        </use>
                        <path d="M-4,0h8M0,-4v8" fill="none" stroke="white" stroke-width="1.5" pointer-events="none"/>
                </g>
                <g id="zoomMin">
                        <use xlink:href="#rim" fill="#404040">
                                <set attributeName="fill" to="#808080" begin="zoomminus.mouseover" end="zoomminus.mouseout"/>
                        </use>
                        <path d="M-4,0h8" fill="none" stroke="white" stroke-width="1.5" pointer-events="none"/>
                </g>
                <g id="dirArrow">
                        <path fill="none" stroke="white" stroke-width="1.5" d="M0,-3.0v7 M-2.5,-0.5L0,-3.0L2.5,-0.5"/>
                </g>
               <g id="resetDef">
                       <use xlink:href="#rim2" fill="#404040">
                               <set attributeName="fill" to="#808080" begin="reset.mouseover" end="reset.mouseout"/>
                       </use>
               </g>
        </defs>

<script type="text/javascript">
var viewWidth = 847;
var viewHeight = 408;
var sectionId = 'dynsection-0';
</script>
<script xlink:href="svgpan.js"/>
<svg id="graph" class="graph">
<g id="viewport">
<title>include/yaclib/executor/detail/unique_task.hpp</title>
<!-- Node1 -->
<g id="node1" class="node">
<title>Node1</title>
<g id="a_node1"><a xlink:title=" ">
<polygon fill="#bfbfbf" stroke="black" points="330,-369.5 330,-399.5 446,-399.5 446,-369.5 330,-369.5"/>
<text text-anchor="start" x="338" y="-387.5" font-family="Helvetica,sans-Serif" font-size="10.00">include/yaclib/executor</text>
<text text-anchor="middle" x="388" y="-376.5" font-family="Helvetica,sans-Serif" font-size="10.00">/detail/unique_task.hpp</text>
</a>
</g>
</g>
<!-- Node2 -->
<g id="node2" class="node">
<title>Node2</title>
<g id="a_node2"><a xlink:title=" ">
<polygon fill="none" stroke="#bfbfbf" points="215,-0.5 215,-19.5 303,-19.5 303,-0.5 215,-0.5"/>
<text text-anchor="middle" x="259" y="-7.5" font-family="Helvetica,sans-Serif" font-size="10.00">yaclib/config.hpp</text>
</a>
</g>
</g>
<!-- Node1&#45;&gt;Node2 -->
<g id="edge1" class="edge">
<title>Node1&#45;&gt;Node2</title>
<path fill="none" stroke="midnightblue" d="M329.91,-378.37C221.67,-367.19 0,-336 0,-268 0,-268 0,-268 0,-137.5 0,-95.69 13.17,-80.58 47,-56 92.98,-22.58 158.52,-12.94 204.53,-10.64"/>
<polygon fill="midnightblue" stroke="midnightblue" points="204.76,-14.13 214.61,-10.24 204.48,-7.14 204.76,-14.13"/>
</g>
<!-- Node3 -->
<g id="node3" class="node">
<title>Node3</title>
<g id="a_node3"><a xlink:href="task_8hpp.html" target="_top" xlink:title=" ">
<polygon fill="none" stroke="black" points="193.5,-313.5 193.5,-332.5 314.5,-332.5 314.5,-313.5 193.5,-313.5"/>
<text text-anchor="middle" x="254" y="-320.5" font-family="Helvetica,sans-Serif" font-size="10.00">yaclib/executor/task.hpp</text>
</a>
</g>
</g>
<!-- Node1&#45;&gt;Node3 -->
<g id="edge2" class="edge">
<title>Node1&#45;&gt;Node3</title>
<path fill="none" stroke="midnightblue" d="M356.24,-369.4C333.96,-359.51 304.41,-346.38 282.81,-336.79"/>
<polygon fill="midnightblue" stroke="midnightblue" points="284.06,-333.52 273.5,-332.66 281.22,-339.91 284.06,-333.52"/>
</g>
<!-- Node6 -->
<g id="node6" class="node">
<title>Node6</title>
<g id="a_node6"><a xlink:href="safe__call_8hpp.html" target="_top" xlink:title=" ">
<polygon fill="none" stroke="black" points="448.5,-123.5 448.5,-153.5 531.5,-153.5 531.5,-123.5 448.5,-123.5"/>
<text text-anchor="start" x="456.5" y="-141.5" font-family="Helvetica,sans-Serif" font-size="10.00">yaclib/util/detail</text>
<text text-anchor="middle" x="490" y="-130.5" font-family="Helvetica,sans-Serif" font-size="10.00">/safe_call.hpp</text>
</a>
</g>
</g>
<!-- Node1&#45;&gt;Node6 -->
<g id="edge36" class="edge">
<title>Node1&#45;&gt;Node6</title>
<path fill="none" stroke="midnightblue" d="M394.5,-369.25C407.29,-341.1 436.42,-276.29 459,-221 466.84,-201.8 475.17,-179.81 481.21,-163.52"/>
<polygon fill="midnightblue" stroke="midnightblue" points="484.65,-164.31 484.83,-153.72 478.08,-161.89 484.65,-164.31"/>
</g>
<!-- Node8 -->
<g id="node8" class="node">
<title>Node8</title>
<g id="a_node8"><a xlink:title=" ">
<polygon fill="none" stroke="#bfbfbf" points="538.5,-62 538.5,-81 577.5,-81 577.5,-62 538.5,-62"/>
<text text-anchor="middle" x="558" y="-69" font-family="Helvetica,sans-Serif" font-size="10.00">utility</text>
</a>
</g>
</g>
<!-- Node1&#45;&gt;Node8 -->
<g id="edge37" class="edge">
<title>Node1&#45;&gt;Node8</title>
<path fill="none" stroke="midnightblue" d="M446.22,-377.52C550.42,-365.18 758,-332.52 758,-268 758,-268 758,-268 758,-204.5 758,-123.79 643.15,-89.6 587.51,-77.78"/>
<polygon fill="midnightblue" stroke="midnightblue" points="588.04,-74.31 577.54,-75.76 586.65,-81.17 588.04,-74.31"/>
</g>
<!-- Node3&#45;&gt;Node2 -->
<g id="edge3" class="edge">
<title>Node3&#45;&gt;Node2</title>
<path fill="none" stroke="midnightblue" d="M193.26,-315.48C129.37,-304.86 38,-277.3 38,-206.5 38,-206.5 38,-206.5 38,-137.5 38,-96.12 50.27,-81.31 83,-56 117.89,-29.02 167.18,-18.08 204.73,-13.72"/>
<polygon fill="midnightblue" stroke="midnightblue" points="205.41,-17.17 214.99,-12.66 204.68,-10.21 205.41,-17.17"/>
</g>
<!-- Node4 -->
<g id="node4" class="node">
<title>Node4</title>
<g id="a_node4"><a xlink:href="node_8hpp.html" target="_top" xlink:title=" ">
<polygon fill="none" stroke="black" points="66.5,-190.5 66.5,-220.5 149.5,-220.5 149.5,-190.5 66.5,-190.5"/>
<text text-anchor="start" x="74.5" y="-208.5" font-family="Helvetica,sans-Serif" font-size="10.00">yaclib/util/detail</text>
<text text-anchor="middle" x="108" y="-197.5" font-family="Helvetica,sans-Serif" font-size="10.00">/node.hpp</text>
</a>
</g>
</g>
<!-- Node3&#45;&gt;Node4 -->
<g id="edge4" class="edge">
<title>Node3&#45;&gt;Node4</title>
<path fill="none" stroke="midnightblue" d="M243.03,-313.32C220.02,-295.11 166.18,-252.52 133.86,-226.96"/>
<polygon fill="midnightblue" stroke="midnightblue" points="135.77,-224 125.75,-220.55 131.43,-229.49 135.77,-224"/>
</g>
<!-- Node5 -->
<g id="node5" class="node">
<title>Node5</title>
<g id="a_node5"><a xlink:href="func_8hpp.html" target="_top" xlink:title=" ">
<polygon fill="none" stroke="black" points="301.5,-257.5 301.5,-276.5 398.5,-276.5 398.5,-257.5 301.5,-257.5"/>
<text text-anchor="middle" x="350" y="-264.5" font-family="Helvetica,sans-Serif" font-size="10.00">yaclib/util/func.hpp</text>
</a>
</g>
</g>
<!-- Node3&#45;&gt;Node5 -->
<g id="edge6" class="edge">
<title>Node3&#45;&gt;Node5</title>
<path fill="none" stroke="midnightblue" d="M269.42,-313.32C284.54,-304.82 307.82,-291.73 325.47,-281.8"/>
<polygon fill="midnightblue" stroke="midnightblue" points="327.61,-284.61 334.61,-276.65 324.18,-278.51 327.61,-284.61"/>
</g>
<!-- Node4&#45;&gt;Node2 -->
<g id="edge5" class="edge">
<title>Node4&#45;&gt;Node2</title>
<path fill="none" stroke="midnightblue" d="M101.68,-190.06C90.17,-161.3 69.63,-96.16 100,-56 112.83,-39.04 164.14,-26.63 205.05,-19.19"/>
<polygon fill="midnightblue" stroke="midnightblue" points="205.68,-22.63 214.93,-17.45 204.47,-15.73 205.68,-22.63"/>
</g>
<!-- Node5&#45;&gt;Node2 -->
<g id="edge7" class="edge">
<title>Node5&#45;&gt;Node2</title>
<path fill="none" stroke="midnightblue" d="M330.72,-257.38C285.86,-236.09 175.07,-176.23 133,-87 127.12,-74.54 125.06,-67.26 133,-56 149.31,-32.85 178.67,-21.54 204.94,-16.05"/>
<polygon fill="midnightblue" stroke="midnightblue" points="205.63,-19.48 214.83,-14.22 204.36,-12.6 205.63,-19.48"/>
</g>
<!-- Node5&#45;&gt;Node6 -->
<g id="edge8" class="edge">
<title>Node5&#45;&gt;Node6</title>
<path fill="none" stroke="midnightblue" d="M370.88,-257.48C388.24,-249.71 412.95,-237.01 431,-221 449.96,-204.18 466.39,-180.24 477.06,-162.65"/>
<polygon fill="midnightblue" stroke="midnightblue" points="480.31,-164.02 482.37,-153.63 474.28,-160.47 480.31,-164.02"/>
</g>
<!-- Node7 -->
<g id="node7" class="node">
<title>Node7</title>
<g id="a_node7"><a xlink:title=" ">
<polygon fill="none" stroke="#bfbfbf" points="420,-62 420,-81 482,-81 482,-62 420,-62"/>
<text text-anchor="middle" x="451" y="-69" font-family="Helvetica,sans-Serif" font-size="10.00">type_traits</text>
</a>
</g>
</g>
<!-- Node5&#45;&gt;Node7 -->
<g id="edge34" class="edge">
<title>Node5&#45;&gt;Node7</title>
<path fill="none" stroke="midnightblue" d="M351.9,-257.4C357.25,-234.3 374,-169.51 403,-123 411.18,-109.88 423.16,-97.27 433.1,-87.93"/>
<polygon fill="midnightblue" stroke="midnightblue" points="435.47,-90.51 440.53,-81.2 430.77,-85.32 435.47,-90.51"/>
</g>
<!-- Node5&#45;&gt;Node8 -->
<g id="edge35" class="edge">
<title>Node5&#45;&gt;Node8</title>
<path fill="none" stroke="midnightblue" d="M356.12,-257.49C362.51,-248.53 372.72,-233.95 381,-221 408.26,-178.36 400.91,-156.33 439,-123 464.94,-100.3 502.6,-86.66 528.57,-79.38"/>
<polygon fill="midnightblue" stroke="midnightblue" points="529.47,-82.76 538.24,-76.81 527.68,-75.99 529.47,-82.76"/>
</g>
<!-- Node9 -->
<g id="node9" class="node">
<title>Node9</title>
<g id="a_node9"><a xlink:href="helper_8hpp.html" target="_top" xlink:title=" ">
<polygon fill="none" stroke="black" points="550,-196 550,-215 654,-215 654,-196 550,-196"/>
<text text-anchor="middle" x="602" y="-203" font-family="Helvetica,sans-Serif" font-size="10.00">yaclib/util/helper.hpp</text>
</a>
</g>
</g>
<!-- Node5&#45;&gt;Node9 -->
<g id="edge12" class="edge">
<title>Node5&#45;&gt;Node9</title>
<path fill="none" stroke="midnightblue" d="M386.11,-257.48C430.83,-246.92 507.08,-228.91 555.97,-217.37"/>
<polygon fill="midnightblue" stroke="midnightblue" points="557.03,-220.71 565.96,-215.01 555.42,-213.9 557.03,-220.71"/>
</g>
<!-- Node15 -->
<g id="node15" class="node">
<title>Node15</title>
<g id="a_node15"><a xlink:href="intrusive__ptr_8hpp.html" target="_top" xlink:title=" ">
<polygon fill="none" stroke="black" points="253.5,-123.5 253.5,-153.5 350.5,-153.5 350.5,-123.5 253.5,-123.5"/>
<text text-anchor="start" x="261.5" y="-141.5" font-family="Helvetica,sans-Serif" font-size="10.00">yaclib/util/intrusive</text>
<text text-anchor="middle" x="302" y="-130.5" font-family="Helvetica,sans-Serif" font-size="10.00">_ptr.hpp</text>
</a>
</g>
</g>
<!-- Node5&#45;&gt;Node15 -->
<g id="edge32" class="edge">
<title>Node5&#45;&gt;Node15</title>
<path fill="none" stroke="midnightblue" d="M346.7,-257.31C339.46,-238.21 321.95,-192.07 311.12,-163.52"/>
<polygon fill="midnightblue" stroke="midnightblue" points="314.28,-162 307.46,-153.89 307.73,-164.48 314.28,-162"/>
</g>
<!-- Node16 -->
<g id="node16" class="node">
<title>Node16</title>
<g id="a_node16"><a xlink:href="ref_8hpp.html" target="_top" xlink:title=" ">
<polygon fill="none" stroke="black" points="142.5,-62 142.5,-81 231.5,-81 231.5,-62 142.5,-62"/>
<text text-anchor="middle" x="187" y="-69" font-family="Helvetica,sans-Serif" font-size="10.00">yaclib/util/ref.hpp</text>
</a>
</g>
</g>
<!-- Node5&#45;&gt;Node16 -->
<g id="edge33" class="edge">
<title>Node5&#45;&gt;Node16</title>
<path fill="none" stroke="midnightblue" d="M341.02,-257.41C322.13,-239.16 277.33,-194.87 244,-154 226.85,-132.97 209.28,-107.05 198.26,-90.16"/>
<polygon fill="midnightblue" stroke="midnightblue" points="200.95,-87.87 192.59,-81.37 195.07,-91.67 200.95,-87.87"/>
</g>
<!-- Node6&#45;&gt;Node2 -->
<g id="edge9" class="edge">
<title>Node6&#45;&gt;Node2</title>
<path fill="none" stroke="midnightblue" d="M495.16,-123.31C500.64,-105.47 506.58,-74.89 491,-56 488.14,-52.54 380.76,-32.78 313.11,-20.62"/>
<polygon fill="midnightblue" stroke="midnightblue" points="313.48,-17.13 303.02,-18.81 312.24,-24.02 313.48,-17.13"/>
</g>
<!-- Node6&#45;&gt;Node7 -->
<g id="edge10" class="edge">
<title>Node6&#45;&gt;Node7</title>
<path fill="none" stroke="midnightblue" d="M481.54,-123.4C475.64,-113.56 467.73,-100.38 461.44,-89.89"/>
<polygon fill="midnightblue" stroke="midnightblue" points="464.36,-87.97 456.22,-81.19 458.36,-91.57 464.36,-87.97"/>
</g>
<!-- Node6&#45;&gt;Node8 -->
<g id="edge11" class="edge">
<title>Node6&#45;&gt;Node8</title>
<path fill="none" stroke="midnightblue" d="M504.75,-123.4C515.57,-113.06 530.25,-99.02 541.46,-88.31"/>
<polygon fill="midnightblue" stroke="midnightblue" points="544.09,-90.63 548.9,-81.19 539.26,-85.57 544.09,-90.63"/>
</g>
<!-- Node9&#45;&gt;Node2 -->
<g id="edge13" class="edge">
<title>Node9&#45;&gt;Node2</title>
<path fill="none" stroke="midnightblue" d="M619.04,-195.96C633.74,-187.54 653.99,-173.16 663,-154 684.26,-108.8 651.78,-80.03 608,-56 494.29,6.42 444.98,-37.1 313.27,-20.2"/>
<polygon fill="midnightblue" stroke="midnightblue" points="313.61,-16.71 303.23,-18.81 312.66,-23.65 313.61,-16.71"/>
</g>
<!-- Node10 -->
<g id="node10" class="node">
<title>Node10</title>
<g id="a_node10"><a xlink:href="atomic_8hpp.html" target="_top" xlink:title=" ">
<polygon fill="none" stroke="black" points="710.5,-62 710.5,-81 823.5,-81 823.5,-62 710.5,-62"/>
<text text-anchor="middle" x="767" y="-69" font-family="Helvetica,sans-Serif" font-size="10.00">yaclib/fault/atomic.hpp</text>
</a>
</g>
</g>
<!-- Node9&#45;&gt;Node10 -->
<g id="edge14" class="edge">
<title>Node9&#45;&gt;Node10</title>
<path fill="none" stroke="midnightblue" d="M622.72,-195.99C642.68,-187.22 673.12,-172.26 696,-154 719.98,-134.86 742.29,-106.93 755.28,-89.24"/>
<polygon fill="midnightblue" stroke="midnightblue" points="758.19,-91.18 761.19,-81.02 752.51,-87.1 758.19,-91.18"/>
</g>
<!-- Node14 -->
<g id="node14" class="node">
<title>Node14</title>
<g id="a_node14"><a xlink:href="atomic__counter_8hpp.html" target="_top" xlink:title=" ">
<polygon fill="none" stroke="black" points="550,-123.5 550,-153.5 654,-153.5 654,-123.5 550,-123.5"/>
<text text-anchor="start" x="558" y="-141.5" font-family="Helvetica,sans-Serif" font-size="10.00">yaclib/util/detail</text>
<text text-anchor="middle" x="602" y="-130.5" font-family="Helvetica,sans-Serif" font-size="10.00">/atomic_counter.hpp</text>
</a>
</g>
</g>
<!-- Node9&#45;&gt;Node14 -->
<g id="edge19" class="edge">
<title>Node9&#45;&gt;Node14</title>
<path fill="none" stroke="midnightblue" d="M602,-195.73C602,-187.54 602,-174.92 602,-163.71"/>
<polygon fill="midnightblue" stroke="midnightblue" points="605.5,-163.59 602,-153.59 598.5,-163.59 605.5,-163.59"/>
</g>
<!-- Node9&#45;&gt;Node15 -->
<g id="edge24" class="edge">
<title>Node9&#45;&gt;Node15</title>
<path fill="none" stroke="midnightblue" d="M562.47,-195.94C510.88,-184.76 420.17,-165.1 360.58,-152.19"/>
<polygon fill="midnightblue" stroke="midnightblue" points="361.08,-148.72 350.56,-150.02 359.6,-155.56 361.08,-148.72"/>
</g>
<!-- Node10&#45;&gt;Node2 -->
<g id="edge15" class="edge">
<title>Node10&#45;&gt;Node2</title>
<path fill="none" stroke="midnightblue" d="M729.18,-61.99C718.49,-59.8 706.83,-57.61 696,-56 529.24,-31.25 483.1,-42.23 313.25,-20.22"/>
<polygon fill="midnightblue" stroke="midnightblue" points="313.59,-16.73 303.22,-18.9 312.68,-23.67 313.59,-16.73"/>
</g>
<!-- Node11 -->
<g id="node11" class="node">
<title>Node11</title>
<g id="a_node11"><a xlink:title=" ">
<polygon fill="none" stroke="#bfbfbf" points="633.5,-0.5 633.5,-19.5 682.5,-19.5 682.5,-0.5 633.5,-0.5"/>
<text text-anchor="middle" x="658" y="-7.5" font-family="Helvetica,sans-Serif" font-size="10.00">cstddef</text>
</a>
</g>
</g>
<!-- Node10&#45;&gt;Node11 -->
<g id="edge16" class="edge">
<title>Node10&#45;&gt;Node11</title>
<path fill="none" stroke="midnightblue" d="M751.38,-61.98C733.41,-52.17 703.68,-35.93 682.59,-24.42"/>
<polygon fill="midnightblue" stroke="midnightblue" points="684.04,-21.23 673.59,-19.51 680.69,-27.37 684.04,-21.23"/>
</g>
<!-- Node12 -->
<g id="node12" class="node">
<title>Node12</title>
<g id="a_node12"><a xlink:title=" ">
<polygon fill="none" stroke="#bfbfbf" points="793,-0.5 793,-19.5 839,-19.5 839,-0.5 793,-0.5"/>
<text text-anchor="middle" x="816" y="-7.5" font-family="Helvetica,sans-Serif" font-size="10.00">cstdint</text>
</a>
</g>
</g>
<!-- Node10&#45;&gt;Node12 -->
<g id="edge17" class="edge">
<title>Node10&#45;&gt;Node12</title>
<path fill="none" stroke="midnightblue" d="M774.02,-61.98C781.44,-52.96 793.33,-38.52 802.57,-27.31"/>
<polygon fill="midnightblue" stroke="midnightblue" points="805.34,-29.45 808.99,-19.51 799.93,-25 805.34,-29.45"/>
</g>
<!-- Node13 -->
<g id="node13" class="node">
<title>Node13</title>
<g id="a_node13"><a xlink:title=" ">
<polygon fill="none" stroke="#bfbfbf" points="729,-0.5 729,-19.5 775,-19.5 775,-0.5 729,-0.5"/>
<text text-anchor="middle" x="752" y="-7.5" font-family="Helvetica,sans-Serif" font-size="10.00">atomic</text>
</a>
</g>
</g>
<!-- Node10&#45;&gt;Node13 -->
<g id="edge18" class="edge">
<title>Node10&#45;&gt;Node13</title>
<path fill="none" stroke="midnightblue" d="M764.85,-61.98C762.71,-53.49 759.36,-40.2 756.62,-29.32"/>
<polygon fill="midnightblue" stroke="midnightblue" points="759.98,-28.35 754.15,-19.51 753.2,-30.06 759.98,-28.35"/>
</g>
<!-- Node14&#45;&gt;Node2 -->
<g id="edge20" class="edge">
<title>Node14&#45;&gt;Node2</title>
<path fill="none" stroke="midnightblue" d="M603.93,-123.39C605.57,-105.05 605.26,-73.33 587,-56 544.24,-15.42 387.81,-27.92 313.57,-20.1"/>
<polygon fill="midnightblue" stroke="midnightblue" points="313.6,-16.57 303.23,-18.79 312.71,-23.52 313.6,-16.57"/>
</g>
<!-- Node14&#45;&gt;Node8 -->
<g id="edge23" class="edge">
<title>Node14&#45;&gt;Node8</title>
<path fill="none" stroke="midnightblue" d="M592.45,-123.4C585.73,-113.46 576.69,-100.11 569.56,-89.57"/>
<polygon fill="midnightblue" stroke="midnightblue" points="572.39,-87.51 563.89,-81.19 566.59,-91.44 572.39,-87.51"/>
</g>
<!-- Node14&#45;&gt;Node10 -->
<g id="edge21" class="edge">
<title>Node14&#45;&gt;Node10</title>
<path fill="none" stroke="midnightblue" d="M637.8,-123.4C667.01,-111.89 707.86,-95.8 735.76,-84.81"/>
<polygon fill="midnightblue" stroke="midnightblue" points="737.38,-87.93 745.41,-81.01 734.82,-81.42 737.38,-87.93"/>
</g>
<!-- Node14&#45;&gt;Node11 -->
<g id="edge22" class="edge">
<title>Node14&#45;&gt;Node11</title>
<path fill="none" stroke="midnightblue" d="M608.21,-123.48C618.42,-100.41 638.75,-54.48 650.02,-29.03"/>
<polygon fill="midnightblue" stroke="midnightblue" points="653.26,-30.35 654.11,-19.79 646.86,-27.52 653.26,-30.35"/>
</g>
<!-- Node15&#45;&gt;Node2 -->
<g id="edge25" class="edge">
<title>Node15&#45;&gt;Node2</title>
<path fill="none" stroke="midnightblue" d="M294.69,-123.19C289.8,-113.22 283.46,-99.52 279,-87 272.14,-67.76 266.47,-45.04 262.94,-29.49"/>
<polygon fill="midnightblue" stroke="midnightblue" points="266.32,-28.59 260.76,-19.58 259.49,-30.1 266.32,-28.59"/>
</g>
<!-- Node15&#45;&gt;Node7 -->
<g id="edge28" class="edge">
<title>Node15&#45;&gt;Node7</title>
<path fill="none" stroke="midnightblue" d="M334.33,-123.4C360.47,-111.99 396.95,-96.08 422.12,-85.1"/>
<polygon fill="midnightblue" stroke="midnightblue" points="423.73,-88.21 431.5,-81.01 420.93,-81.8 423.73,-88.21"/>
</g>
<!-- Node15&#45;&gt;Node16 -->
<g id="edge26" class="edge">
<title>Node15&#45;&gt;Node16</title>
<path fill="none" stroke="midnightblue" d="M277.05,-123.4C257.4,-112.29 230.21,-96.92 210.85,-85.98"/>
<polygon fill="midnightblue" stroke="midnightblue" points="212.48,-82.88 202.05,-81.01 209.03,-88.97 212.48,-82.88"/>
</g>
<!-- Node17 -->
<g id="node17" class="node">
<title>Node17</title>
<g id="a_node17"><a xlink:href="intrusive__ptr__impl_8hpp.html" target="_top" xlink:title=" ">
<polygon fill="none" stroke="black" points="288,-56.5 288,-86.5 402,-86.5 402,-56.5 288,-56.5"/>
<text text-anchor="start" x="296" y="-74.5" font-family="Helvetica,sans-Serif" font-size="10.00">yaclib/util/detail</text>
<text text-anchor="middle" x="345" y="-63.5" font-family="Helvetica,sans-Serif" font-size="10.00">/intrusive_ptr_impl.hpp</text>
</a>
</g>
</g>
<!-- Node15&#45;&gt;Node17 -->
<g id="edge29" class="edge">
<title>Node15&#45;&gt;Node17</title>
<path fill="none" stroke="midnightblue" d="M311.33,-123.4C316.8,-115.13 323.83,-104.51 330.05,-95.1"/>
<polygon fill="midnightblue" stroke="midnightblue" points="333.09,-96.85 335.69,-86.58 327.25,-92.99 333.09,-96.85"/>
</g>
<!-- Node16&#45;&gt;Node2 -->
<g id="edge27" class="edge">
<title>Node16&#45;&gt;Node2</title>
<path fill="none" stroke="midnightblue" d="M197.32,-61.98C208.65,-52.61 227.07,-37.38 240.84,-26.01"/>
<polygon fill="midnightblue" stroke="midnightblue" points="243.22,-28.58 248.7,-19.51 238.77,-23.18 243.22,-28.58"/>
</g>
<!-- Node17&#45;&gt;Node2 -->
<g id="edge30" class="edge">
<title>Node17&#45;&gt;Node2</title>
<path fill="none" stroke="midnightblue" d="M324.62,-56.4C311.09,-47.04 293.39,-34.79 279.78,-25.38"/>
<polygon fill="midnightblue" stroke="midnightblue" points="281.73,-22.47 271.51,-19.66 277.75,-28.23 281.73,-22.47"/>
</g>
<!-- Node18 -->
<g id="node18" class="node">
<title>Node18</title>
<g id="a_node18"><a xlink:title=" ">
<polygon fill="none" stroke="#bfbfbf" points="320.5,-0.5 320.5,-19.5 369.5,-19.5 369.5,-0.5 320.5,-0.5"/>
<text text-anchor="middle" x="345" y="-7.5" font-family="Helvetica,sans-Serif" font-size="10.00">cassert</text>
</a>
</g>
</g>
<!-- Node17&#45;&gt;Node18 -->
<g id="edge31" class="edge">
<title>Node17&#45;&gt;Node18</title>
<path fill="none" stroke="midnightblue" d="M345,-56.4C345,-48.47 345,-38.46 345,-29.86"/>
<polygon fill="midnightblue" stroke="midnightblue" points="348.5,-29.66 345,-19.66 341.5,-29.66 348.5,-29.66"/>
</g>
</g>
</svg>
        <g id="navigator" transform="translate(0 0)" fill="#404254">
                <rect fill="#f2f5e9" fill-opacity="0.5" stroke="#606060" stroke-width=".5" x="0" y="0" width="60" height="60"/>
                <use id="zoomplus" xlink:href="#zoomPlus" x="17" y="9" onmousedown="handleZoom(evt,'in')"/>
                <use id="zoomminus" xlink:href="#zoomMin" x="42" y="9" onmousedown="handleZoom(evt,'out')"/>
                <use id="reset" xlink:href="#resetDef" x="30" y="36" onmousedown="handleReset()"/>
                <g id="arrowUp" xlink:href="#dirArrow" transform="translate(30 24)" onmousedown="handlePan(0,-1)">
                  <use xlink:href="#rim" fill="#404040">
                        <set attributeName="fill" to="#808080" begin="arrowUp.mouseover" end="arrowUp.mouseout"/>
                  </use>
                  <path fill="none" stroke="white" stroke-width="1.5" d="M0,-3.0v7 M-2.5,-0.5L0,-3.0L2.5,-0.5"/>
                </g>
                <g id="arrowRight" xlink:href="#dirArrow" transform="rotate(90) translate(36 -43)" onmousedown="handlePan(1,0)">
                  <use xlink:href="#rim" fill="#404040">
                        <set attributeName="fill" to="#808080" begin="arrowRight.mouseover" end="arrowRight.mouseout"/>
                  </use>
                  <path fill="none" stroke="white" stroke-width="1.5" d="M0,-3.0v7 M-2.5,-0.5L0,-3.0L2.5,-0.5"/>
                </g>
                <g id="arrowDown" xlink:href="#dirArrow" transform="rotate(180) translate(-30 -48)" onmousedown="handlePan(0,1)">
                  <use xlink:href="#rim" fill="#404040">
                        <set attributeName="fill" to="#808080" begin="arrowDown.mouseover" end="arrowDown.mouseout"/>
                  </use>
                  <path fill="none" stroke="white" stroke-width="1.5" d="M0,-3.0v7 M-2.5,-0.5L0,-3.0L2.5,-0.5"/>
                </g>
                <g id="arrowLeft" xlink:href="#dirArrow" transform="rotate(270) translate(-36 17)" onmousedown="handlePan(-1,0)">
                  <use xlink:href="#rim" fill="#404040">
                        <set attributeName="fill" to="#808080" begin="arrowLeft.mouseover" end="arrowLeft.mouseout"/>
                  </use>
                  <path fill="none" stroke="white" stroke-width="1.5" d="M0,-3.0v7 M-2.5,-0.5L0,-3.0L2.5,-0.5"/>
                </g>
        </g>
        <svg viewBox="0 0 15 15" width="100%" height="30px" preserveAspectRatio="xMaxYMin meet">
         <g id="arrow_out" transform="scale(0.3 0.3)">
          <a xlink:href="unique__task_8hpp__incl_org.svg" target="_base">
           <rect id="button" ry="5" rx="5" y="6" x="6" height="38" width="38"
                fill="#f2f5e9" fill-opacity="0.5" stroke="#606060" stroke-width="1.0"/>
           <path id="arrow"
             d="M 11.500037,31.436501 C 11.940474,20.09759 22.043105,11.32322 32.158766,21.979434 L 37.068811,17.246167 C 37.068811,17.246167 37.088388,32 37.088388,32 L 22.160133,31.978069 C 22.160133,31.978069 26.997745,27.140456 26.997745,27.140456 C 18.528582,18.264221 13.291696,25.230495 11.500037,31.436501 z"
             style="fill:#404040;"/>
          </a>
         </g>
        </svg>
</svg>
