<?xml version="1.0" encoding="UTF-8" standalone="no"?>
<!DOCTYPE svg PUBLIC "-//W3C//DTD SVG 1.1//EN"
 "http://www.w3.org/Graphics/SVG/1.1/DTD/svg11.dtd">
<!-- Generated by graphviz version 2.50.0 (20220203.2022)
 -->
<!-- Title: include/yaclib/algo/wait.hpp Pages: 1 -->
<!--zoomable 374 -->
<svg id="main" version="1.1" xmlns="http://www.w3.org/2000/svg" xmlns:xlink="http://www.w3.org/1999/xlink" xml:space="preserve" onload="init(evt)">
<style type="text/css"><![CDATA[
.edge:hover path { stroke: red; }
.edge:hover polygon { stroke: red; fill: red; }
]]></style>
<script type="text/javascript"><![CDATA[
var edges = document.getElementsByTagName('g');
if (edges && edges.length) {
  for (var i=0;i<edges.length;i++) {
    if (edges[i].id.substr(0,4)=='edge') {
      edges[i].setAttribute('class','edge');
    }
  }
}
]]></script>
        <defs>
                <circle id="rim" cx="0" cy="0" r="7"/>
                <circle id="rim2" cx="0" cy="0" r="3.5"/>
                <g id="zoomPlus">
                        <use xlink:href="#rim" fill="#404040">
                                <set attributeName="fill" to="#808080" begin="zoomplus.mouseover" end="zoomplus.mouseout"/>
                        </use>
                        <path d="M-4,0h8M0,-4v8" fill="none" stroke="white" stroke-width="1.5" pointer-events="none"/>
                </g>
                <g id="zoomMin">
                        <use xlink:href="#rim" fill="#404040">
                                <set attributeName="fill" to="#808080" begin="zoomminus.mouseover" end="zoomminus.mouseout"/>
                        </use>
                        <path d="M-4,0h8" fill="none" stroke="white" stroke-width="1.5" pointer-events="none"/>
                </g>
                <g id="dirArrow">
                        <path fill="none" stroke="white" stroke-width="1.5" d="M0,-3.0v7 M-2.5,-0.5L0,-3.0L2.5,-0.5"/>
                </g>
               <g id="resetDef">
                       <use xlink:href="#rim2" fill="#404040">
                               <set attributeName="fill" to="#808080" begin="reset.mouseover" end="reset.mouseout"/>
                       </use>
               </g>
        </defs>

<script type="text/javascript">
var viewWidth = 1672;
var viewHeight = 374;
var sectionId = 'dynsection-1';
</script>
<script xlink:href="svgpan.js"/>
<svg id="graph" class="graph">
<g id="viewport">
<title>include/yaclib/algo/wait.hpp</title>
<!-- Node1 -->
<g id="node1" class="node">
<title>Node1</title>
<g id="a_node1"><a xlink:title=" ">
<polygon fill="#bfbfbf" stroke="black" points="779.5,-335.5 779.5,-365.5 875.5,-365.5 875.5,-335.5 779.5,-335.5"/>
<text text-anchor="start" x="787.5" y="-353.5" font-family="Helvetica,sans-Serif" font-size="10.00">include/yaclib/algo</text>
<text text-anchor="middle" x="827.5" y="-342.5" font-family="Helvetica,sans-Serif" font-size="10.00">/wait.hpp</text>
</a>
</g>
</g>
<!-- Node2 -->
<g id="node2" class="node">
<title>Node2</title>
<g id="a_node2"><a xlink:href="future__impl_8hpp.html" target="_top" xlink:title=" ">
<polygon fill="none" stroke="black" points="729.5,-268.5 729.5,-298.5 841.5,-298.5 841.5,-268.5 729.5,-268.5"/>
<text text-anchor="start" x="737.5" y="-286.5" font-family="Helvetica,sans-Serif" font-size="10.00">include/yaclib/async</text>
<text text-anchor="middle" x="785.5" y="-275.5" font-family="Helvetica,sans-Serif" font-size="10.00">/detail/future_impl.hpp</text>
</a>
</g>
</g>
<!-- Node1&#45;&gt;Node2 -->
<g id="edge1" class="edge">
<title>Node1&#45;&gt;Node2</title>
<path fill="none" stroke="midnightblue" d="M812.88,-326.87C806.8,-317.46 799.93,-306.83 794.6,-298.58"/>
<polygon fill="midnightblue" stroke="midnightblue" points="810.02,-328.9 818.39,-335.4 815.9,-325.1 810.02,-328.9"/>
</g>
<!-- Node3 -->
<g id="node3" class="node">
<title>Node3</title>
<g id="a_node3"><a xlink:href="future_8hpp.html" target="_top" xlink:title=" ">
<polygon fill="none" stroke="black" points="775.5,-201.5 775.5,-231.5 879.5,-231.5 879.5,-201.5 775.5,-201.5"/>
<text text-anchor="start" x="783.5" y="-219.5" font-family="Helvetica,sans-Serif" font-size="10.00">include/yaclib/async</text>
<text text-anchor="middle" x="827.5" y="-208.5" font-family="Helvetica,sans-Serif" font-size="10.00">/future.hpp</text>
</a>
</g>
</g>
<!-- Node2&#45;&gt;Node3 -->
<g id="edge2" class="edge">
<title>Node2&#45;&gt;Node3</title>
<path fill="none" stroke="midnightblue" d="M800.12,-259.87C806.2,-250.46 813.07,-239.83 818.4,-231.58"/>
<polygon fill="midnightblue" stroke="midnightblue" points="797.1,-258.1 794.61,-268.4 802.98,-261.9 797.1,-258.1"/>
</g>
<!-- Node3&#45;&gt;Node1 -->
<g id="edge12" class="edge">
<title>Node3&#45;&gt;Node1</title>
<path fill="none" stroke="midnightblue" d="M840.54,-240.62C844.56,-248.98 848.47,-258.66 850.5,-268 853.42,-281.46 853.42,-285.54 850.5,-299 847.68,-311.99 841.22,-325.65 835.86,-335.48"/>
<polygon fill="midnightblue" stroke="midnightblue" points="843.54,-238.81 835.86,-231.52 837.32,-242.01 843.54,-238.81"/>
</g>
<!-- Node4 -->
<g id="node4" class="node">
<title>Node4</title>
<g id="a_node4"><a xlink:href="when__all__impl_8hpp.html" target="_top" xlink:title=" ">
<polygon fill="none" stroke="black" points="0,-134.5 0,-164.5 125,-164.5 125,-134.5 0,-134.5"/>
<text text-anchor="start" x="8" y="-152.5" font-family="Helvetica,sans-Serif" font-size="10.00">include/yaclib/algo</text>
<text text-anchor="middle" x="62.5" y="-141.5" font-family="Helvetica,sans-Serif" font-size="10.00">/detail/when_all_impl.hpp</text>
</a>
</g>
</g>
<!-- Node3&#45;&gt;Node4 -->
<g id="edge3" class="edge">
<title>Node3&#45;&gt;Node4</title>
<path fill="none" stroke="midnightblue" d="M764.88,-213.27C643.7,-208.43 368.85,-194.91 139.5,-165 134.78,-164.38 129.91,-163.67 125.02,-162.88"/>
<polygon fill="midnightblue" stroke="midnightblue" points="764.95,-216.78 775.08,-213.67 765.22,-209.78 764.95,-216.78"/>
</g>
<!-- Node5 -->
<g id="node5" class="node">
<title>Node5</title>
<g id="a_node5"><a xlink:href="when__all_8hpp.html" target="_top" xlink:title=" ">
<polygon fill="none" stroke="black" points="147.5,-67.5 147.5,-97.5 243.5,-97.5 243.5,-67.5 147.5,-67.5"/>
<text text-anchor="start" x="155.5" y="-85.5" font-family="Helvetica,sans-Serif" font-size="10.00">include/yaclib/algo</text>
<text text-anchor="middle" x="195.5" y="-74.5" font-family="Helvetica,sans-Serif" font-size="10.00">/when_all.hpp</text>
</a>
</g>
</g>
<!-- Node3&#45;&gt;Node5 -->
<g id="edge17" class="edge">
<title>Node3&#45;&gt;Node5</title>
<path fill="none" stroke="midnightblue" d="M764.97,-215.39C608.96,-214.48 212.24,-207.92 172.5,-165 155.22,-146.34 171.8,-115.68 184.37,-97.76"/>
<polygon fill="midnightblue" stroke="midnightblue" points="765.31,-218.9 775.33,-215.45 765.35,-211.9 765.31,-218.9"/>
</g>
<!-- Node7 -->
<g id="node7" class="node">
<title>Node7</title>
<g id="a_node7"><a xlink:href="when__any__impl_8hpp.html" target="_top" xlink:title=" ">
<polygon fill="none" stroke="black" points="310,-134.5 310,-164.5 441,-164.5 441,-134.5 310,-134.5"/>
<text text-anchor="start" x="318" y="-152.5" font-family="Helvetica,sans-Serif" font-size="10.00">include/yaclib/algo</text>
<text text-anchor="middle" x="375.5" y="-141.5" font-family="Helvetica,sans-Serif" font-size="10.00">/detail/when_any_impl.hpp</text>
</a>
</g>
</g>
<!-- Node3&#45;&gt;Node7 -->
<g id="edge6" class="edge">
<title>Node3&#45;&gt;Node7</title>
<path fill="none" stroke="midnightblue" d="M765.26,-207.91C691.28,-198.69 564.17,-182.22 455.5,-165 450.9,-164.27 446.16,-163.49 441.38,-162.68"/>
<polygon fill="midnightblue" stroke="midnightblue" points="764.98,-211.4 775.33,-209.16 765.84,-204.45 764.98,-211.4"/>
</g>
<!-- Node8 -->
<g id="node8" class="node">
<title>Node8</title>
<g id="a_node8"><a xlink:href="when__any_8hpp.html" target="_top" xlink:title=" ">
<polygon fill="none" stroke="black" points="335.5,-67.5 335.5,-97.5 431.5,-97.5 431.5,-67.5 335.5,-67.5"/>
<text text-anchor="start" x="343.5" y="-85.5" font-family="Helvetica,sans-Serif" font-size="10.00">include/yaclib/algo</text>
<text text-anchor="middle" x="383.5" y="-74.5" font-family="Helvetica,sans-Serif" font-size="10.00">/when_any.hpp</text>
</a>
</g>
</g>
<!-- Node3&#45;&gt;Node8 -->
<g id="edge18" class="edge">
<title>Node3&#45;&gt;Node8</title>
<path fill="none" stroke="midnightblue" d="M764.83,-215.75C694.71,-213.9 579.09,-204.34 488.5,-165 468.19,-156.18 466.96,-147.62 449.5,-134 433.57,-121.58 415.33,-107.64 402.06,-97.56"/>
<polygon fill="midnightblue" stroke="midnightblue" points="765.19,-219.26 775.26,-215.98 765.34,-212.26 765.19,-219.26"/>
</g>
<!-- Node10 -->
<g id="node10" class="node">
<title>Node10</title>
<g id="a_node10"><a xlink:href="when__impl_8hpp.html" target="_top" xlink:title=" ">
<polygon fill="none" stroke="black" points="181.5,-134.5 181.5,-164.5 291.5,-164.5 291.5,-134.5 181.5,-134.5"/>
<text text-anchor="start" x="189.5" y="-152.5" font-family="Helvetica,sans-Serif" font-size="10.00">include/yaclib/algo</text>
<text text-anchor="middle" x="236.5" y="-141.5" font-family="Helvetica,sans-Serif" font-size="10.00">/detail/when_impl.hpp</text>
</a>
</g>
</g>
<!-- Node3&#45;&gt;Node10 -->
<g id="edge9" class="edge">
<title>Node3&#45;&gt;Node10</title>
<path fill="none" stroke="midnightblue" d="M765.11,-212.1C666.13,-206.13 467.25,-191.77 300.5,-165 297.58,-164.53 294.58,-164.01 291.57,-163.44"/>
<polygon fill="midnightblue" stroke="midnightblue" points="765.04,-215.6 775.23,-212.7 765.46,-208.61 765.04,-215.6"/>
</g>
<!-- Node11 -->
<g id="node11" class="node">
<title>Node11</title>
<g id="a_node11"><a xlink:href="wait__for_8hpp.html" target="_top" xlink:title=" ">
<polygon fill="none" stroke="black" points="779.5,-134.5 779.5,-164.5 875.5,-164.5 875.5,-134.5 779.5,-134.5"/>
<text text-anchor="start" x="787.5" y="-152.5" font-family="Helvetica,sans-Serif" font-size="10.00">include/yaclib/algo</text>
<text text-anchor="middle" x="827.5" y="-141.5" font-family="Helvetica,sans-Serif" font-size="10.00">/wait_for.hpp</text>
</a>
</g>
</g>
<!-- Node3&#45;&gt;Node11 -->
<g id="edge13" class="edge">
<title>Node3&#45;&gt;Node11</title>
<path fill="none" stroke="midnightblue" d="M827.5,-191.11C827.5,-182.15 827.5,-172.32 827.5,-164.58"/>
<polygon fill="midnightblue" stroke="midnightblue" points="824,-191.4 827.5,-201.4 831,-191.4 824,-191.4"/>
</g>
<!-- Node12 -->
<g id="node12" class="node">
<title>Node12</title>
<g id="a_node12"><a xlink:href="wait__group_8hpp.html" target="_top" xlink:title=" ">
<polygon fill="none" stroke="black" points="893.5,-134.5 893.5,-164.5 989.5,-164.5 989.5,-134.5 893.5,-134.5"/>
<text text-anchor="start" x="901.5" y="-152.5" font-family="Helvetica,sans-Serif" font-size="10.00">include/yaclib/algo</text>
<text text-anchor="middle" x="941.5" y="-141.5" font-family="Helvetica,sans-Serif" font-size="10.00">/wait_group.hpp</text>
</a>
</g>
</g>
<!-- Node3&#45;&gt;Node12 -->
<g id="edge14" class="edge">
<title>Node3&#45;&gt;Node12</title>
<path fill="none" stroke="midnightblue" d="M861.18,-196.3C879.02,-186.12 900.54,-173.85 916.81,-164.58"/>
<polygon fill="midnightblue" stroke="midnightblue" points="859.19,-193.4 852.24,-201.4 862.66,-199.48 859.19,-193.4"/>
</g>
<!-- Node14 -->
<g id="node14" class="node">
<title>Node14</title>
<g id="a_node14"><a xlink:href="wait__until_8hpp.html" target="_top" xlink:title=" ">
<polygon fill="none" stroke="black" points="1007.5,-134.5 1007.5,-164.5 1103.5,-164.5 1103.5,-134.5 1007.5,-134.5"/>
<text text-anchor="start" x="1015.5" y="-152.5" font-family="Helvetica,sans-Serif" font-size="10.00">include/yaclib/algo</text>
<text text-anchor="middle" x="1055.5" y="-141.5" font-family="Helvetica,sans-Serif" font-size="10.00">/wait_until.hpp</text>
</a>
</g>
</g>
<!-- Node3&#45;&gt;Node14 -->
<g id="edge16" class="edge">
<title>Node3&#45;&gt;Node14</title>
<path fill="none" stroke="midnightblue" d="M886.48,-198.69C923.98,-187.99 971.94,-174.32 1007.18,-164.28"/>
<polygon fill="midnightblue" stroke="midnightblue" points="885.35,-195.37 876.69,-201.48 887.27,-202.1 885.35,-195.37"/>
</g>
<!-- Node15 -->
<g id="node15" class="node">
<title>Node15</title>
<g id="a_node15"><a xlink:href="contract_8hpp.html" target="_top" xlink:title=" ">
<polygon fill="none" stroke="black" points="619.5,-134.5 619.5,-164.5 723.5,-164.5 723.5,-134.5 619.5,-134.5"/>
<text text-anchor="start" x="627.5" y="-152.5" font-family="Helvetica,sans-Serif" font-size="10.00">include/yaclib/async</text>
<text text-anchor="middle" x="671.5" y="-141.5" font-family="Helvetica,sans-Serif" font-size="10.00">/contract.hpp</text>
</a>
</g>
</g>
<!-- Node3&#45;&gt;Node15 -->
<g id="edge19" class="edge">
<title>Node3&#45;&gt;Node15</title>
<path fill="none" stroke="midnightblue" d="M784.41,-197.54C759.44,-187.14 728.47,-174.24 705.28,-164.58"/>
<polygon fill="midnightblue" stroke="midnightblue" points="783.07,-200.78 793.65,-201.4 785.77,-194.32 783.07,-200.78"/>
</g>
<!-- Node16 -->
<g id="node16" class="node">
<title>Node16</title>
<g id="a_node16"><a xlink:href="simple_8cpp.html" target="_top" xlink:title=" ">
<polygon fill="none" stroke="black" points="621,-67.5 621,-97.5 722,-97.5 722,-67.5 621,-67.5"/>
<text text-anchor="start" x="629" y="-85.5" font-family="Helvetica,sans-Serif" font-size="10.00">test/example/async</text>
<text text-anchor="middle" x="671.5" y="-74.5" font-family="Helvetica,sans-Serif" font-size="10.00">/simple.cpp</text>
</a>
</g>
</g>
<!-- Node3&#45;&gt;Node16 -->
<g id="edge35" class="edge">
<title>Node3&#45;&gt;Node16</title>
<path fill="none" stroke="midnightblue" d="M803.44,-194.66C784.3,-178.12 756.78,-154.46 732.5,-134 717.78,-121.6 700.92,-107.66 688.66,-97.57"/>
<polygon fill="midnightblue" stroke="midnightblue" points="801.25,-197.39 811.1,-201.28 805.82,-192.09 801.25,-197.39"/>
</g>
<!-- Node17 -->
<g id="node17" class="node">
<title>Node17</title>
<g id="a_node17"><a xlink:href="run_8hpp.html" target="_top" xlink:title=" ">
<polygon fill="none" stroke="black" points="497.5,-134.5 497.5,-164.5 601.5,-164.5 601.5,-134.5 497.5,-134.5"/>
<text text-anchor="start" x="505.5" y="-152.5" font-family="Helvetica,sans-Serif" font-size="10.00">include/yaclib/async</text>
<text text-anchor="middle" x="549.5" y="-141.5" font-family="Helvetica,sans-Serif" font-size="10.00">/run.hpp</text>
</a>
</g>
</g>
<!-- Node3&#45;&gt;Node17 -->
<g id="edge21" class="edge">
<title>Node3&#45;&gt;Node17</title>
<path fill="none" stroke="midnightblue" d="M765.46,-201.14C722.05,-191.08 662.72,-177.28 610.5,-165 607.64,-164.33 604.7,-163.63 601.74,-162.93"/>
<polygon fill="midnightblue" stroke="midnightblue" points="764.77,-204.58 775.31,-203.43 766.36,-197.76 764.77,-204.58"/>
</g>
<!-- Node18 -->
<g id="node18" class="node">
<title>Node18</title>
<g id="a_node18"><a xlink:href="await_8hpp.html" target="_top" xlink:title=" ">
<polygon fill="none" stroke="black" points="1146.5,-67.5 1146.5,-97.5 1264.5,-97.5 1264.5,-67.5 1146.5,-67.5"/>
<text text-anchor="start" x="1154.5" y="-85.5" font-family="Helvetica,sans-Serif" font-size="10.00">include/yaclib/coroutine</text>
<text text-anchor="middle" x="1205.5" y="-74.5" font-family="Helvetica,sans-Serif" font-size="10.00">/await.hpp</text>
</a>
</g>
</g>
<!-- Node3&#45;&gt;Node18 -->
<g id="edge25" class="edge">
<title>Node3&#45;&gt;Node18</title>
<path fill="none" stroke="midnightblue" d="M889.89,-212.64C1002.81,-206.83 1231.64,-191.84 1255.5,-165 1274.25,-143.91 1246.05,-114.89 1224.98,-97.77"/>
<polygon fill="midnightblue" stroke="midnightblue" points="889.47,-209.16 879.66,-213.16 889.83,-216.15 889.47,-209.16"/>
</g>
<!-- Node19 -->
<g id="node19" class="node">
<title>Node19</title>
<g id="a_node19"><a xlink:href="coroutine__deleter_8hpp.html" target="_top" xlink:title=" ">
<polygon fill="none" stroke="black" points="1341.5,-134.5 1341.5,-164.5 1479.5,-164.5 1479.5,-134.5 1341.5,-134.5"/>
<text text-anchor="start" x="1349.5" y="-152.5" font-family="Helvetica,sans-Serif" font-size="10.00">include/yaclib/coroutine</text>
<text text-anchor="middle" x="1410.5" y="-141.5" font-family="Helvetica,sans-Serif" font-size="10.00">/detail/coroutine_deleter.hpp</text>
</a>
</g>
</g>
<!-- Node3&#45;&gt;Node19 -->
<g id="edge26" class="edge">
<title>Node3&#45;&gt;Node19</title>
<path fill="none" stroke="midnightblue" d="M889.83,-210.66C984.6,-202.98 1170.51,-186.61 1327.5,-165 1331.99,-164.38 1336.61,-163.7 1341.27,-162.98"/>
<polygon fill="midnightblue" stroke="midnightblue" points="889.52,-207.18 879.83,-211.47 890.08,-214.15 889.52,-207.18"/>
</g>
<!-- Node20 -->
<g id="node20" class="node">
<title>Node20</title>
<g id="a_node20"><a xlink:href="promise__type_8hpp.html" target="_top" xlink:title=" ">
<polygon fill="none" stroke="black" points="1408.5,-67.5 1408.5,-97.5 1530.5,-97.5 1530.5,-67.5 1408.5,-67.5"/>
<text text-anchor="start" x="1416.5" y="-85.5" font-family="Helvetica,sans-Serif" font-size="10.00">include/yaclib/coroutine</text>
<text text-anchor="middle" x="1469.5" y="-74.5" font-family="Helvetica,sans-Serif" font-size="10.00">/detail/promise_type.hpp</text>
</a>
</g>
</g>
<!-- Node3&#45;&gt;Node20 -->
<g id="edge32" class="edge">
<title>Node3&#45;&gt;Node20</title>
<path fill="none" stroke="midnightblue" d="M890.04,-215.44C1047.08,-214.65 1448.33,-208.35 1488.5,-165 1505.68,-146.46 1490.73,-115.47 1479.39,-97.52"/>
<polygon fill="midnightblue" stroke="midnightblue" points="889.6,-211.94 879.61,-215.49 889.63,-218.94 889.6,-211.94"/>
</g>
<!-- Node21 -->
<g id="node21" class="node">
<title>Node21</title>
<g id="a_node21"><a xlink:href="future__coro__traits_8hpp.html" target="_top" xlink:title=" ">
<polygon fill="none" stroke="black" points="1321.5,-0.5 1321.5,-30.5 1439.5,-30.5 1439.5,-0.5 1321.5,-0.5"/>
<text text-anchor="start" x="1329.5" y="-18.5" font-family="Helvetica,sans-Serif" font-size="10.00">include/yaclib/coroutine</text>
<text text-anchor="middle" x="1380.5" y="-7.5" font-family="Helvetica,sans-Serif" font-size="10.00">/future_coro_traits.hpp</text>
</a>
</g>
</g>
<!-- Node3&#45;&gt;Node21 -->
<g id="edge33" class="edge">
<title>Node3&#45;&gt;Node21</title>
<path fill="none" stroke="midnightblue" d="M889.85,-214.58C996.8,-212.01 1209.9,-202.23 1273.5,-165 1328.07,-133.06 1362.46,-61.04 1375.06,-30.56"/>
<polygon fill="midnightblue" stroke="midnightblue" points="889.75,-211.08 879.84,-214.81 889.91,-218.08 889.75,-211.08"/>
</g>
<!-- Node22 -->
<g id="node22" class="node">
<title>Node22</title>
<g id="a_node22"><a xlink:href="future__awaiter_8hpp.html" target="_top" xlink:title=" ">
<polygon fill="none" stroke="black" points="1122,-134.5 1122,-164.5 1247,-164.5 1247,-134.5 1122,-134.5"/>
<text text-anchor="start" x="1130" y="-152.5" font-family="Helvetica,sans-Serif" font-size="10.00">include/yaclib/coroutine</text>
<text text-anchor="middle" x="1184.5" y="-141.5" font-family="Helvetica,sans-Serif" font-size="10.00">/detail/future_awaiter.hpp</text>
</a>
</g>
</g>
<!-- Node3&#45;&gt;Node22 -->
<g id="edge30" class="edge">
<title>Node3&#45;&gt;Node22</title>
<path fill="none" stroke="midnightblue" d="M889.64,-204.92C947.43,-194.98 1035.88,-179.5 1112.5,-165 1115.51,-164.43 1118.58,-163.84 1121.69,-163.24"/>
<polygon fill="midnightblue" stroke="midnightblue" points="888.84,-201.51 879.57,-206.65 890.02,-208.41 888.84,-201.51"/>
</g>
<!-- Node23 -->
<g id="node23" class="node">
<title>Node23</title>
<g id="a_node23"><a xlink:href="future__impl_8cpp.html" target="_top" xlink:title=" ">
<polygon fill="none" stroke="black" points="1535.5,-140 1535.5,-159 1663.5,-159 1663.5,-140 1535.5,-140"/>
<text text-anchor="middle" x="1599.5" y="-147" font-family="Helvetica,sans-Serif" font-size="10.00">src/async/future_impl.cpp</text>
</a>
</g>
</g>
<!-- Node3&#45;&gt;Node23 -->
<g id="edge34" class="edge">
<title>Node3&#45;&gt;Node23</title>
<path fill="none" stroke="midnightblue" d="M890.2,-213.27C1012.19,-208.43 1289.82,-194.87 1521.5,-165 1533.52,-163.45 1546.49,-161.25 1558.35,-159.04"/>
<polygon fill="midnightblue" stroke="midnightblue" points="889.79,-209.79 879.93,-213.68 890.06,-216.78 889.79,-209.79"/>
</g>
<!-- Node4&#45;&gt;Node5 -->
<g id="edge4" class="edge">
<title>Node4&#45;&gt;Node5</title>
<path fill="none" stroke="midnightblue" d="M100.37,-129.99C121.45,-119.69 147.28,-107.07 166.7,-97.58"/>
<polygon fill="midnightblue" stroke="midnightblue" points="98.81,-126.86 91.36,-134.4 101.88,-133.15 98.81,-126.86"/>
</g>
<!-- Node6 -->
<g id="node6" class="node">
<title>Node6</title>
<g id="a_node6"><a xlink:href="when__all_8cpp.html" target="_top" xlink:title=" ">
<polygon fill="none" stroke="black" points="248,-0.5 248,-30.5 349,-30.5 349,-0.5 248,-0.5"/>
<text text-anchor="start" x="256" y="-18.5" font-family="Helvetica,sans-Serif" font-size="10.00">test/example/async</text>
<text text-anchor="middle" x="298.5" y="-7.5" font-family="Helvetica,sans-Serif" font-size="10.00">/when_all.cpp</text>
</a>
</g>
</g>
<!-- Node5&#45;&gt;Node6 -->
<g id="edge5" class="edge">
<title>Node5&#45;&gt;Node6</title>
<path fill="none" stroke="midnightblue" d="M226.38,-62.02C242.4,-51.9 261.63,-39.77 276.19,-30.58"/>
<polygon fill="midnightblue" stroke="midnightblue" points="224.44,-59.1 217.85,-67.4 228.17,-65.02 224.44,-59.1"/>
</g>
<!-- Node7&#45;&gt;Node8 -->
<g id="edge7" class="edge">
<title>Node7&#45;&gt;Node8</title>
<path fill="none" stroke="midnightblue" d="M378.47,-124.4C379.58,-115.37 380.8,-105.41 381.77,-97.58"/>
<polygon fill="midnightblue" stroke="midnightblue" points="374.98,-124.04 377.24,-134.4 381.93,-124.9 374.98,-124.04"/>
</g>
<!-- Node9 -->
<g id="node9" class="node">
<title>Node9</title>
<g id="a_node9"><a xlink:href="when__any_8cpp.html" target="_top" xlink:title=" ">
<polygon fill="none" stroke="black" points="435,-0.5 435,-30.5 536,-30.5 536,-0.5 435,-0.5"/>
<text text-anchor="start" x="443" y="-18.5" font-family="Helvetica,sans-Serif" font-size="10.00">test/example/async</text>
<text text-anchor="middle" x="485.5" y="-7.5" font-family="Helvetica,sans-Serif" font-size="10.00">/when_any.cpp</text>
</a>
</g>
</g>
<!-- Node8&#45;&gt;Node9 -->
<g id="edge8" class="edge">
<title>Node8&#45;&gt;Node9</title>
<path fill="none" stroke="midnightblue" d="M414.08,-62.02C429.95,-51.9 448.98,-39.77 463.41,-30.58"/>
<polygon fill="midnightblue" stroke="midnightblue" points="412.18,-59.07 405.63,-67.4 415.95,-64.97 412.18,-59.07"/>
</g>
<!-- Node10&#45;&gt;Node5 -->
<g id="edge10" class="edge">
<title>Node10&#45;&gt;Node5</title>
<path fill="none" stroke="midnightblue" d="M222.22,-125.87C216.29,-116.46 209.59,-105.83 204.38,-97.58"/>
<polygon fill="midnightblue" stroke="midnightblue" points="219.31,-127.81 227.6,-134.4 225.23,-124.07 219.31,-127.81"/>
</g>
<!-- Node10&#45;&gt;Node8 -->
<g id="edge11" class="edge">
<title>Node10&#45;&gt;Node8</title>
<path fill="none" stroke="midnightblue" d="M277.73,-130.27C301.14,-119.92 330.01,-107.15 351.67,-97.58"/>
<polygon fill="midnightblue" stroke="midnightblue" points="276.13,-127.15 268.4,-134.4 278.96,-133.55 276.13,-127.15"/>
</g>
<!-- Node13 -->
<g id="node13" class="node">
<title>Node13</title>
<g id="a_node13"><a xlink:href="wait__group_8cpp.html" target="_top" xlink:title=" ">
<polygon fill="none" stroke="black" points="882,-73 882,-92 1001,-92 1001,-73 882,-73"/>
<text text-anchor="middle" x="941.5" y="-80" font-family="Helvetica,sans-Serif" font-size="10.00">src/algo/wait_group.cpp</text>
</a>
</g>
</g>
<!-- Node12&#45;&gt;Node13 -->
<g id="edge15" class="edge">
<title>Node12&#45;&gt;Node13</title>
<path fill="none" stroke="midnightblue" d="M941.5,-124.25C941.5,-113.02 941.5,-100.38 941.5,-92.19"/>
<polygon fill="midnightblue" stroke="midnightblue" points="938,-124.4 941.5,-134.4 945,-124.4 938,-124.4"/>
</g>
<!-- Node15&#45;&gt;Node16 -->
<g id="edge20" class="edge">
<title>Node15&#45;&gt;Node16</title>
<path fill="none" stroke="midnightblue" d="M671.5,-124.11C671.5,-115.15 671.5,-105.32 671.5,-97.58"/>
<polygon fill="midnightblue" stroke="midnightblue" points="668,-124.4 671.5,-134.4 675,-124.4 668,-124.4"/>
</g>
<!-- Node17&#45;&gt;Node6 -->
<g id="edge23" class="edge">
<title>Node17&#45;&gt;Node6</title>
<path fill="none" stroke="midnightblue" d="M526.13,-127.73C504.96,-109.76 472.31,-84.04 440.5,-67 411.56,-51.49 376.86,-39.05 349.01,-30.4"/>
<polygon fill="midnightblue" stroke="midnightblue" points="524.06,-130.57 533.92,-134.44 528.62,-125.26 524.06,-130.57"/>
</g>
<!-- Node17&#45;&gt;Node9 -->
<g id="edge24" class="edge">
<title>Node17&#45;&gt;Node9</title>
<path fill="none" stroke="midnightblue" d="M538.16,-125.12C524.86,-97.68 503.24,-53.09 492.3,-30.52"/>
<polygon fill="midnightblue" stroke="midnightblue" points="535.14,-126.9 542.65,-134.37 541.44,-123.85 535.14,-126.9"/>
</g>
<!-- Node17&#45;&gt;Node16 -->
<g id="edge22" class="edge">
<title>Node17&#45;&gt;Node16</title>
<path fill="none" stroke="midnightblue" d="M585.02,-129.57C604.21,-119.35 627.5,-106.94 645.08,-97.58"/>
<polygon fill="midnightblue" stroke="midnightblue" points="583.15,-126.6 575.97,-134.4 586.44,-132.78 583.15,-126.6"/>
</g>
<!-- Node19&#45;&gt;Node20 -->
<g id="edge27" class="edge">
<title>Node19&#45;&gt;Node20</title>
<path fill="none" stroke="midnightblue" d="M1430.25,-126.74C1438.98,-117.12 1449,-106.09 1456.72,-97.58"/>
<polygon fill="midnightblue" stroke="midnightblue" points="1427.43,-124.64 1423.3,-134.4 1432.61,-129.34 1427.43,-124.64"/>
</g>
<!-- Node19&#45;&gt;Node21 -->
<g id="edge29" class="edge">
<title>Node19&#45;&gt;Node21</title>
<path fill="none" stroke="midnightblue" d="M1405.02,-124.39C1398.77,-96.9 1388.77,-52.89 1383.69,-30.52"/>
<polygon fill="midnightblue" stroke="midnightblue" points="1401.66,-125.4 1407.29,-134.37 1408.49,-123.85 1401.66,-125.4"/>
</g>
<!-- Node20&#45;&gt;Node21 -->
<g id="edge28" class="edge">
<title>Node20&#45;&gt;Node21</title>
<path fill="none" stroke="midnightblue" d="M1442.05,-61.45C1428.36,-51.45 1412.13,-39.6 1399.77,-30.58"/>
<polygon fill="midnightblue" stroke="midnightblue" points="1440.05,-64.32 1450.19,-67.4 1444.18,-58.67 1440.05,-64.32"/>
</g>
<!-- Node22&#45;&gt;Node18 -->
<g id="edge31" class="edge">
<title>Node22&#45;&gt;Node18</title>
<path fill="none" stroke="midnightblue" d="M1192.19,-124.7C1195.13,-115.59 1198.39,-105.49 1200.95,-97.58"/>
<polygon fill="midnightblue" stroke="midnightblue" points="1188.8,-123.8 1189.06,-134.4 1195.46,-125.96 1188.8,-123.8"/>
</g>
</g>
</svg>
        <g id="navigator" transform="translate(0 0)" fill="#404254">
                <rect fill="#f2f5e9" fill-opacity="0.5" stroke="#606060" stroke-width=".5" x="0" y="0" width="60" height="60"/>
                <use id="zoomplus" xlink:href="#zoomPlus" x="17" y="9" onmousedown="handleZoom(evt,'in')"/>
                <use id="zoomminus" xlink:href="#zoomMin" x="42" y="9" onmousedown="handleZoom(evt,'out')"/>
                <use id="reset" xlink:href="#resetDef" x="30" y="36" onmousedown="handleReset()"/>
                <g id="arrowUp" xlink:href="#dirArrow" transform="translate(30 24)" onmousedown="handlePan(0,-1)">
                  <use xlink:href="#rim" fill="#404040">
                        <set attributeName="fill" to="#808080" begin="arrowUp.mouseover" end="arrowUp.mouseout"/>
                  </use>
                  <path fill="none" stroke="white" stroke-width="1.5" d="M0,-3.0v7 M-2.5,-0.5L0,-3.0L2.5,-0.5"/>
                </g>
                <g id="arrowRight" xlink:href="#dirArrow" transform="rotate(90) translate(36 -43)" onmousedown="handlePan(1,0)">
                  <use xlink:href="#rim" fill="#404040">
                        <set attributeName="fill" to="#808080" begin="arrowRight.mouseover" end="arrowRight.mouseout"/>
                  </use>
                  <path fill="none" stroke="white" stroke-width="1.5" d="M0,-3.0v7 M-2.5,-0.5L0,-3.0L2.5,-0.5"/>
                </g>
                <g id="arrowDown" xlink:href="#dirArrow" transform="rotate(180) translate(-30 -48)" onmousedown="handlePan(0,1)">
                  <use xlink:href="#rim" fill="#404040">
                        <set attributeName="fill" to="#808080" begin="arrowDown.mouseover" end="arrowDown.mouseout"/>
                  </use>
                  <path fill="none" stroke="white" stroke-width="1.5" d="M0,-3.0v7 M-2.5,-0.5L0,-3.0L2.5,-0.5"/>
                </g>
                <g id="arrowLeft" xlink:href="#dirArrow" transform="rotate(270) translate(-36 17)" onmousedown="handlePan(-1,0)">
                  <use xlink:href="#rim" fill="#404040">
                        <set attributeName="fill" to="#808080" begin="arrowLeft.mouseover" end="arrowLeft.mouseout"/>
                  </use>
                  <path fill="none" stroke="white" stroke-width="1.5" d="M0,-3.0v7 M-2.5,-0.5L0,-3.0L2.5,-0.5"/>
                </g>
        </g>
        <svg viewBox="0 0 15 15" width="100%" height="30px" preserveAspectRatio="xMaxYMin meet">
         <g id="arrow_out" transform="scale(0.3 0.3)">
          <a xlink:href="wait_8hpp__dep__incl_org.svg" target="_base">
           <rect id="button" ry="5" rx="5" y="6" x="6" height="38" width="38"
                fill="#f2f5e9" fill-opacity="0.5" stroke="#606060" stroke-width="1.0"/>
           <path id="arrow"
             d="M 11.500037,31.436501 C 11.940474,20.09759 22.043105,11.32322 32.158766,21.979434 L 37.068811,17.246167 C 37.068811,17.246167 37.088388,32 37.088388,32 L 22.160133,31.978069 C 22.160133,31.978069 26.997745,27.140456 26.997745,27.140456 C 18.528582,18.264221 13.291696,25.230495 11.500037,31.436501 z"
             style="fill:#404040;"/>
          </a>
         </g>
        </svg>
</svg>
