<?xml version="1.0" encoding="UTF-8" standalone="no"?>
<!DOCTYPE svg PUBLIC "-//W3C//DTD SVG 1.1//EN"
 "http://www.w3.org/Graphics/SVG/1.1/DTD/svg11.dtd">
<!-- Generated by graphviz version 2.50.0 (20220203.2022)
 -->
<!-- Title: include/yaclib/algo/detail/wait_impl.hpp Pages: 1 -->
<svg width="1669pt" height="441pt"
 viewBox="0.00 0.00 1669.38 441.00" xmlns="http://www.w3.org/2000/svg" xmlns:xlink="http://www.w3.org/1999/xlink">
<g id="graph0" class="graph" transform="scale(1 1) rotate(0) translate(4 437)">
<title>include/yaclib/algo/detail/wait_impl.hpp</title>
<!-- Node1 -->
<g id="node1" class="node">
<title>Node1</title>
<g id="a_node1"><a xlink:title=" ">
<polygon fill="#bfbfbf" stroke="black" points="1448.38,-402.5 1448.38,-432.5 1553.38,-432.5 1553.38,-402.5 1448.38,-402.5"/>
<text text-anchor="start" x="1456.38" y="-420.5" font-family="Helvetica,sans-Serif" font-size="10.00">include/yaclib/algo</text>
<text text-anchor="middle" x="1500.88" y="-409.5" font-family="Helvetica,sans-Serif" font-size="10.00">/detail/wait_impl.hpp</text>
</a>
</g>
</g>
<!-- Node2 -->
<g id="node2" class="node">
<title>Node2</title>
<g id="a_node2"><a xlink:href="wait_8hpp.html" target="_top" xlink:title=" ">
<polygon fill="none" stroke="black" points="924.88,-335.5 924.88,-365.5 1020.88,-365.5 1020.88,-335.5 924.88,-335.5"/>
<text text-anchor="start" x="932.88" y="-353.5" font-family="Helvetica,sans-Serif" font-size="10.00">include/yaclib/algo</text>
<text text-anchor="middle" x="972.88" y="-342.5" font-family="Helvetica,sans-Serif" font-size="10.00">/wait.hpp</text>
</a>
</g>
</g>
<!-- Node1&#45;&gt;Node2 -->
<g id="edge1" class="edge">
<title>Node1&#45;&gt;Node2</title>
<path fill="none" stroke="midnightblue" d="M1438.34,-408.8C1331.7,-395.67 1116.88,-369.23 1021,-357.42"/>
<polygon fill="midnightblue" stroke="midnightblue" points="1437.97,-412.28 1448.32,-410.03 1438.82,-405.33 1437.97,-412.28"/>
</g>
<!-- Node12 -->
<g id="node12" class="node">
<title>Node12</title>
<g id="a_node12"><a xlink:href="wait__for_8hpp.html" target="_top" xlink:title=" ">
<polygon fill="none" stroke="black" points="1433.88,-134.5 1433.88,-164.5 1529.88,-164.5 1529.88,-134.5 1433.88,-134.5"/>
<text text-anchor="start" x="1441.88" y="-152.5" font-family="Helvetica,sans-Serif" font-size="10.00">include/yaclib/algo</text>
<text text-anchor="middle" x="1481.88" y="-141.5" font-family="Helvetica,sans-Serif" font-size="10.00">/wait_for.hpp</text>
</a>
</g>
</g>
<!-- Node1&#45;&gt;Node12 -->
<g id="edge37" class="edge">
<title>Node1&#45;&gt;Node12</title>
<path fill="none" stroke="midnightblue" d="M1499.13,-392.07C1495.24,-337.57 1485.95,-207.52 1482.88,-164.55"/>
<polygon fill="midnightblue" stroke="midnightblue" points="1495.65,-392.47 1499.86,-402.2 1502.63,-391.97 1495.65,-392.47"/>
</g>
<!-- Node15 -->
<g id="node15" class="node">
<title>Node15</title>
<g id="a_node15"><a xlink:href="wait__until_8hpp.html" target="_top" xlink:title=" ">
<polygon fill="none" stroke="black" points="1547.88,-134.5 1547.88,-164.5 1643.88,-164.5 1643.88,-134.5 1547.88,-134.5"/>
<text text-anchor="start" x="1555.88" y="-152.5" font-family="Helvetica,sans-Serif" font-size="10.00">include/yaclib/algo</text>
<text text-anchor="middle" x="1595.88" y="-141.5" font-family="Helvetica,sans-Serif" font-size="10.00">/wait_until.hpp</text>
</a>
</g>
</g>
<!-- Node1&#45;&gt;Node15 -->
<g id="edge38" class="edge">
<title>Node1&#45;&gt;Node15</title>
<path fill="none" stroke="midnightblue" d="M1509.36,-392.74C1528.68,-338.66 1575.45,-207.7 1590.86,-164.55"/>
<polygon fill="midnightblue" stroke="midnightblue" points="1506.05,-391.6 1505.98,-402.2 1512.64,-393.96 1506.05,-391.6"/>
</g>
<!-- Node25 -->
<g id="node25" class="node">
<title>Node25</title>
<g id="a_node25"><a xlink:href="wait__impl_8cpp.html" target="_top" xlink:title=" ">
<polygon fill="none" stroke="black" points="1548.38,-341 1548.38,-360 1661.38,-360 1661.38,-341 1548.38,-341"/>
<text text-anchor="middle" x="1604.88" y="-348" font-family="Helvetica,sans-Serif" font-size="10.00">src/algo/wait_impl.cpp</text>
</a>
</g>
</g>
<!-- Node1&#45;&gt;Node25 -->
<g id="edge39" class="edge">
<title>Node1&#45;&gt;Node25</title>
<path fill="none" stroke="midnightblue" d="M1532.12,-396.97C1551.84,-384.65 1576.32,-369.35 1591.27,-360.01"/>
<polygon fill="midnightblue" stroke="midnightblue" points="1530.07,-394.13 1523.44,-402.4 1533.78,-400.06 1530.07,-394.13"/>
</g>
<!-- Node3 -->
<g id="node3" class="node">
<title>Node3</title>
<g id="a_node3"><a xlink:href="future__impl_8hpp.html" target="_top" xlink:title=" ">
<polygon fill="none" stroke="black" points="832.88,-268.5 832.88,-298.5 944.88,-298.5 944.88,-268.5 832.88,-268.5"/>
<text text-anchor="start" x="840.88" y="-286.5" font-family="Helvetica,sans-Serif" font-size="10.00">include/yaclib/async</text>
<text text-anchor="middle" x="888.88" y="-275.5" font-family="Helvetica,sans-Serif" font-size="10.00">/detail/future_impl.hpp</text>
</a>
</g>
</g>
<!-- Node2&#45;&gt;Node3 -->
<g id="edge2" class="edge">
<title>Node2&#45;&gt;Node3</title>
<path fill="none" stroke="midnightblue" d="M946.6,-329.17C933.76,-319.23 918.62,-307.51 907.07,-298.58"/>
<polygon fill="midnightblue" stroke="midnightblue" points="944.6,-332.04 954.65,-335.4 948.88,-326.51 944.6,-332.04"/>
</g>
<!-- Node4 -->
<g id="node4" class="node">
<title>Node4</title>
<g id="a_node4"><a xlink:href="future_8hpp.html" target="_top" xlink:title=" ">
<polygon fill="none" stroke="black" points="836.88,-201.5 836.88,-231.5 940.88,-231.5 940.88,-201.5 836.88,-201.5"/>
<text text-anchor="start" x="844.88" y="-219.5" font-family="Helvetica,sans-Serif" font-size="10.00">include/yaclib/async</text>
<text text-anchor="middle" x="888.88" y="-208.5" font-family="Helvetica,sans-Serif" font-size="10.00">/future.hpp</text>
</a>
</g>
</g>
<!-- Node3&#45;&gt;Node4 -->
<g id="edge3" class="edge">
<title>Node3&#45;&gt;Node4</title>
<path fill="none" stroke="midnightblue" d="M888.88,-258.11C888.88,-249.15 888.88,-239.32 888.88,-231.58"/>
<polygon fill="midnightblue" stroke="midnightblue" points="885.38,-258.4 888.88,-268.4 892.38,-258.4 885.38,-258.4"/>
</g>
<!-- Node4&#45;&gt;Node2 -->
<g id="edge13" class="edge">
<title>Node4&#45;&gt;Node2</title>
<path fill="none" stroke="midnightblue" d="M923.15,-237.4C934.47,-245.54 946.14,-255.92 953.88,-268 967.28,-288.92 971.25,-318.26 972.42,-335.43"/>
<polygon fill="midnightblue" stroke="midnightblue" points="924.86,-234.33 914.63,-231.61 920.93,-240.13 924.86,-234.33"/>
</g>
<!-- Node5 -->
<g id="node5" class="node">
<title>Node5</title>
<g id="a_node5"><a xlink:href="when__all__impl_8hpp.html" target="_top" xlink:title=" ">
<polygon fill="none" stroke="black" points="296.38,-134.5 296.38,-164.5 421.38,-164.5 421.38,-134.5 296.38,-134.5"/>
<text text-anchor="start" x="304.38" y="-152.5" font-family="Helvetica,sans-Serif" font-size="10.00">include/yaclib/algo</text>
<text text-anchor="middle" x="358.88" y="-141.5" font-family="Helvetica,sans-Serif" font-size="10.00">/detail/when_all_impl.hpp</text>
</a>
</g>
</g>
<!-- Node4&#45;&gt;Node5 -->
<g id="edge4" class="edge">
<title>Node4&#45;&gt;Node5</title>
<path fill="none" stroke="midnightblue" d="M826.72,-210.06C739.24,-202.07 574.96,-185.82 435.88,-165 431.17,-164.3 426.31,-163.51 421.43,-162.69"/>
<polygon fill="midnightblue" stroke="midnightblue" points="826.46,-213.55 836.74,-210.97 827.1,-206.58 826.46,-213.55"/>
</g>
<!-- Node6 -->
<g id="node6" class="node">
<title>Node6</title>
<g id="a_node6"><a xlink:href="when__all_8hpp.html" target="_top" xlink:title=" ">
<polygon fill="none" stroke="black" points="318.88,-67.5 318.88,-97.5 414.88,-97.5 414.88,-67.5 318.88,-67.5"/>
<text text-anchor="start" x="326.88" y="-85.5" font-family="Helvetica,sans-Serif" font-size="10.00">include/yaclib/algo</text>
<text text-anchor="middle" x="366.88" y="-74.5" font-family="Helvetica,sans-Serif" font-size="10.00">/when_all.hpp</text>
</a>
</g>
</g>
<!-- Node4&#45;&gt;Node6 -->
<g id="edge18" class="edge">
<title>Node4&#45;&gt;Node6</title>
<path fill="none" stroke="midnightblue" d="M826.54,-212.19C725.77,-206.15 531.99,-191.45 468.88,-165 468.26,-164.74 413.54,-120.91 384.51,-97.64"/>
<polygon fill="midnightblue" stroke="midnightblue" points="826.4,-215.69 836.59,-212.79 826.81,-208.7 826.4,-215.69"/>
</g>
<!-- Node8 -->
<g id="node8" class="node">
<title>Node8</title>
<g id="a_node8"><a xlink:href="when__any__impl_8hpp.html" target="_top" xlink:title=" ">
<polygon fill="none" stroke="black" points="18.38,-134.5 18.38,-164.5 149.38,-164.5 149.38,-134.5 18.38,-134.5"/>
<text text-anchor="start" x="26.38" y="-152.5" font-family="Helvetica,sans-Serif" font-size="10.00">include/yaclib/algo</text>
<text text-anchor="middle" x="83.88" y="-141.5" font-family="Helvetica,sans-Serif" font-size="10.00">/detail/when_any_impl.hpp</text>
</a>
</g>
</g>
<!-- Node4&#45;&gt;Node8 -->
<g id="edge7" class="edge">
<title>Node4&#45;&gt;Node8</title>
<path fill="none" stroke="midnightblue" d="M826.16,-213.74C699.55,-209.61 404.53,-197.12 158.88,-165 155.85,-164.6 152.77,-164.16 149.65,-163.69"/>
<polygon fill="midnightblue" stroke="midnightblue" points="826.33,-217.24 836.43,-214.07 826.55,-210.25 826.33,-217.24"/>
</g>
<!-- Node9 -->
<g id="node9" class="node">
<title>Node9</title>
<g id="a_node9"><a xlink:href="when__any_8hpp.html" target="_top" xlink:title=" ">
<polygon fill="none" stroke="black" points="105.88,-67.5 105.88,-97.5 201.88,-97.5 201.88,-67.5 105.88,-67.5"/>
<text text-anchor="start" x="113.88" y="-85.5" font-family="Helvetica,sans-Serif" font-size="10.00">include/yaclib/algo</text>
<text text-anchor="middle" x="153.88" y="-74.5" font-family="Helvetica,sans-Serif" font-size="10.00">/when_any.hpp</text>
</a>
</g>
</g>
<!-- Node4&#45;&gt;Node9 -->
<g id="edge19" class="edge">
<title>Node4&#45;&gt;Node9</title>
<path fill="none" stroke="midnightblue" d="M826.64,-214.25C630.55,-209.99 36.92,-194.7 8.88,-165 -25.12,-128.99 51.51,-104.65 105.8,-92.51"/>
<polygon fill="midnightblue" stroke="midnightblue" points="826.7,-217.75 836.77,-214.46 826.85,-210.75 826.7,-217.75"/>
</g>
<!-- Node11 -->
<g id="node11" class="node">
<title>Node11</title>
<g id="a_node11"><a xlink:href="when__impl_8hpp.html" target="_top" xlink:title=" ">
<polygon fill="none" stroke="black" points="167.88,-134.5 167.88,-164.5 277.88,-164.5 277.88,-134.5 167.88,-134.5"/>
<text text-anchor="start" x="175.88" y="-152.5" font-family="Helvetica,sans-Serif" font-size="10.00">include/yaclib/algo</text>
<text text-anchor="middle" x="222.88" y="-141.5" font-family="Helvetica,sans-Serif" font-size="10.00">/detail/when_impl.hpp</text>
</a>
</g>
</g>
<!-- Node4&#45;&gt;Node11 -->
<g id="edge10" class="edge">
<title>Node4&#45;&gt;Node11</title>
<path fill="none" stroke="midnightblue" d="M826.43,-213.13C716.71,-208.32 482.43,-195.2 286.88,-165 283.95,-164.55 280.96,-164.04 277.94,-163.49"/>
<polygon fill="midnightblue" stroke="midnightblue" points="826.51,-216.63 836.65,-213.57 826.81,-209.64 826.51,-216.63"/>
</g>
<!-- Node4&#45;&gt;Node12 -->
<g id="edge14" class="edge">
<title>Node4&#45;&gt;Node12</title>
<path fill="none" stroke="midnightblue" d="M951.37,-212.29C1051,-206.57 1251.74,-192.53 1419.88,-165 1424.35,-164.27 1428.98,-163.4 1433.6,-162.45"/>
<polygon fill="midnightblue" stroke="midnightblue" points="950.97,-208.81 941.18,-212.87 951.36,-215.8 950.97,-208.81"/>
</g>
<!-- Node13 -->
<g id="node13" class="node">
<title>Node13</title>
<g id="a_node13"><a xlink:href="wait__group_8hpp.html" target="_top" xlink:title=" ">
<polygon fill="none" stroke="black" points="905.88,-134.5 905.88,-164.5 1001.88,-164.5 1001.88,-134.5 905.88,-134.5"/>
<text text-anchor="start" x="913.88" y="-152.5" font-family="Helvetica,sans-Serif" font-size="10.00">include/yaclib/algo</text>
<text text-anchor="middle" x="953.88" y="-141.5" font-family="Helvetica,sans-Serif" font-size="10.00">/wait_group.hpp</text>
</a>
</g>
</g>
<!-- Node4&#45;&gt;Node13 -->
<g id="edge15" class="edge">
<title>Node4&#45;&gt;Node13</title>
<path fill="none" stroke="midnightblue" d="M910.07,-194.31C919.82,-184.56 931.12,-173.26 939.8,-164.58"/>
<polygon fill="midnightblue" stroke="midnightblue" points="907.58,-191.85 902.98,-201.4 912.53,-196.8 907.58,-191.85"/>
</g>
<!-- Node4&#45;&gt;Node15 -->
<g id="edge17" class="edge">
<title>Node4&#45;&gt;Node15</title>
<path fill="none" stroke="midnightblue" d="M951.19,-214.21C1067.46,-211.01 1325.04,-200.24 1538.88,-165 1541.8,-164.52 1544.79,-163.96 1547.8,-163.35"/>
<polygon fill="midnightblue" stroke="midnightblue" points="950.96,-210.71 941.06,-214.48 951.15,-217.71 950.96,-210.71"/>
</g>
<!-- Node16 -->
<g id="node16" class="node">
<title>Node16</title>
<g id="a_node16"><a xlink:href="contract_8hpp.html" target="_top" xlink:title=" ">
<polygon fill="none" stroke="black" points="599.88,-134.5 599.88,-164.5 703.88,-164.5 703.88,-134.5 599.88,-134.5"/>
<text text-anchor="start" x="607.88" y="-152.5" font-family="Helvetica,sans-Serif" font-size="10.00">include/yaclib/async</text>
<text text-anchor="middle" x="651.88" y="-141.5" font-family="Helvetica,sans-Serif" font-size="10.00">/contract.hpp</text>
</a>
</g>
</g>
<!-- Node4&#45;&gt;Node16 -->
<g id="edge20" class="edge">
<title>Node4&#45;&gt;Node16</title>
<path fill="none" stroke="midnightblue" d="M827.68,-198.71C789.11,-188.14 739.88,-174.63 703.33,-164.61"/>
<polygon fill="midnightblue" stroke="midnightblue" points="827.17,-202.21 837.74,-201.48 829.03,-195.46 827.17,-202.21"/>
</g>
<!-- Node17 -->
<g id="node17" class="node">
<title>Node17</title>
<g id="a_node17"><a xlink:href="simple_8cpp.html" target="_top" xlink:title=" ">
<polygon fill="none" stroke="black" points="601.38,-67.5 601.38,-97.5 702.38,-97.5 702.38,-67.5 601.38,-67.5"/>
<text text-anchor="start" x="609.38" y="-85.5" font-family="Helvetica,sans-Serif" font-size="10.00">test/example/async</text>
<text text-anchor="middle" x="651.88" y="-74.5" font-family="Helvetica,sans-Serif" font-size="10.00">/simple.cpp</text>
</a>
</g>
</g>
<!-- Node4&#45;&gt;Node17 -->
<g id="edge36" class="edge">
<title>Node4&#45;&gt;Node17</title>
<path fill="none" stroke="midnightblue" d="M828.52,-198.34C803.63,-190.02 775.02,-178.82 750.88,-165 749.74,-164.35 696.88,-120.7 668.88,-97.56"/>
<polygon fill="midnightblue" stroke="midnightblue" points="827.62,-201.73 838.22,-201.5 829.79,-195.07 827.62,-201.73"/>
</g>
<!-- Node18 -->
<g id="node18" class="node">
<title>Node18</title>
<g id="a_node18"><a xlink:href="run_8hpp.html" target="_top" xlink:title=" ">
<polygon fill="none" stroke="black" points="477.88,-134.5 477.88,-164.5 581.88,-164.5 581.88,-134.5 477.88,-134.5"/>
<text text-anchor="start" x="485.88" y="-152.5" font-family="Helvetica,sans-Serif" font-size="10.00">include/yaclib/async</text>
<text text-anchor="middle" x="529.88" y="-141.5" font-family="Helvetica,sans-Serif" font-size="10.00">/run.hpp</text>
</a>
</g>
</g>
<!-- Node4&#45;&gt;Node18 -->
<g id="edge22" class="edge">
<title>Node4&#45;&gt;Node18</title>
<path fill="none" stroke="midnightblue" d="M826.6,-206.16C766.15,-196.81 671.93,-181.48 590.88,-165 588,-164.41 585.05,-163.79 582.07,-163.14"/>
<polygon fill="midnightblue" stroke="midnightblue" points="826.32,-209.66 836.74,-207.72 827.39,-202.74 826.32,-209.66"/>
</g>
<!-- Node19 -->
<g id="node19" class="node">
<title>Node19</title>
<g id="a_node19"><a xlink:href="await_8hpp.html" target="_top" xlink:title=" ">
<polygon fill="none" stroke="black" points="1048.88,-67.5 1048.88,-97.5 1166.88,-97.5 1166.88,-67.5 1048.88,-67.5"/>
<text text-anchor="start" x="1056.88" y="-85.5" font-family="Helvetica,sans-Serif" font-size="10.00">include/yaclib/coroutine</text>
<text text-anchor="middle" x="1107.88" y="-74.5" font-family="Helvetica,sans-Serif" font-size="10.00">/await.hpp</text>
</a>
</g>
</g>
<!-- Node4&#45;&gt;Node19 -->
<g id="edge26" class="edge">
<title>Node4&#45;&gt;Node19</title>
<path fill="none" stroke="midnightblue" d="M951.22,-212.53C1021.31,-207.72 1128.66,-195.48 1153.88,-165 1171.49,-143.72 1145.42,-114.76 1125.92,-97.71"/>
<polygon fill="midnightblue" stroke="midnightblue" points="950.92,-209.04 941.17,-213.18 951.37,-216.02 950.92,-209.04"/>
</g>
<!-- Node20 -->
<g id="node20" class="node">
<title>Node20</title>
<g id="a_node20"><a xlink:href="coroutine__deleter_8hpp.html" target="_top" xlink:title=" ">
<polygon fill="none" stroke="black" points="1239.88,-134.5 1239.88,-164.5 1377.88,-164.5 1377.88,-134.5 1239.88,-134.5"/>
<text text-anchor="start" x="1247.88" y="-152.5" font-family="Helvetica,sans-Serif" font-size="10.00">include/yaclib/coroutine</text>
<text text-anchor="middle" x="1308.88" y="-141.5" font-family="Helvetica,sans-Serif" font-size="10.00">/detail/coroutine_deleter.hpp</text>
</a>
</g>
</g>
<!-- Node4&#45;&gt;Node20 -->
<g id="edge27" class="edge">
<title>Node4&#45;&gt;Node20</title>
<path fill="none" stroke="midnightblue" d="M950.96,-206.66C1018.63,-196.91 1130.06,-180.55 1225.88,-165 1230.35,-164.27 1234.96,-163.51 1239.61,-162.73"/>
<polygon fill="midnightblue" stroke="midnightblue" points="950.3,-203.22 940.9,-208.1 951.29,-210.14 950.3,-203.22"/>
</g>
<!-- Node21 -->
<g id="node21" class="node">
<title>Node21</title>
<g id="a_node21"><a xlink:href="promise__type_8hpp.html" target="_top" xlink:title=" ">
<polygon fill="none" stroke="black" points="1306.88,-67.5 1306.88,-97.5 1428.88,-97.5 1428.88,-67.5 1306.88,-67.5"/>
<text text-anchor="start" x="1314.88" y="-85.5" font-family="Helvetica,sans-Serif" font-size="10.00">include/yaclib/coroutine</text>
<text text-anchor="middle" x="1367.88" y="-74.5" font-family="Helvetica,sans-Serif" font-size="10.00">/detail/promise_type.hpp</text>
</a>
</g>
</g>
<!-- Node4&#45;&gt;Node21 -->
<g id="edge33" class="edge">
<title>Node4&#45;&gt;Node21</title>
<path fill="none" stroke="midnightblue" d="M951.54,-213.75C1078.85,-209.54 1358.19,-196.75 1386.88,-165 1403.73,-146.35 1389.13,-115.69 1377.89,-97.77"/>
<polygon fill="midnightblue" stroke="midnightblue" points="951.05,-210.26 941.17,-214.08 951.28,-217.26 951.05,-210.26"/>
</g>
<!-- Node22 -->
<g id="node22" class="node">
<title>Node22</title>
<g id="a_node22"><a xlink:href="future__coro__traits_8hpp.html" target="_top" xlink:title=" ">
<polygon fill="none" stroke="black" points="1219.88,-0.5 1219.88,-30.5 1337.88,-30.5 1337.88,-0.5 1219.88,-0.5"/>
<text text-anchor="start" x="1227.88" y="-18.5" font-family="Helvetica,sans-Serif" font-size="10.00">include/yaclib/coroutine</text>
<text text-anchor="middle" x="1278.88" y="-7.5" font-family="Helvetica,sans-Serif" font-size="10.00">/future_coro_traits.hpp</text>
</a>
</g>
</g>
<!-- Node4&#45;&gt;Node22 -->
<g id="edge34" class="edge">
<title>Node4&#45;&gt;Node22</title>
<path fill="none" stroke="midnightblue" d="M951.27,-209.78C1022.9,-202.29 1135.12,-187.4 1170.88,-165 1224.37,-131.49 1259.72,-60.98 1273,-30.75"/>
<polygon fill="midnightblue" stroke="midnightblue" points="950.6,-206.33 941.01,-210.84 951.32,-213.3 950.6,-206.33"/>
</g>
<!-- Node23 -->
<g id="node23" class="node">
<title>Node23</title>
<g id="a_node23"><a xlink:href="future__awaiter_8hpp.html" target="_top" xlink:title=" ">
<polygon fill="none" stroke="black" points="1020.38,-134.5 1020.38,-164.5 1145.38,-164.5 1145.38,-134.5 1020.38,-134.5"/>
<text text-anchor="start" x="1028.38" y="-152.5" font-family="Helvetica,sans-Serif" font-size="10.00">include/yaclib/coroutine</text>
<text text-anchor="middle" x="1082.88" y="-141.5" font-family="Helvetica,sans-Serif" font-size="10.00">/detail/future_awaiter.hpp</text>
</a>
</g>
</g>
<!-- Node4&#45;&gt;Node23 -->
<g id="edge31" class="edge">
<title>Node4&#45;&gt;Node23</title>
<path fill="none" stroke="midnightblue" d="M940.83,-198.09C972.15,-187.6 1011.52,-174.41 1040.86,-164.58"/>
<polygon fill="midnightblue" stroke="midnightblue" points="939.34,-194.9 930.97,-201.4 941.57,-201.54 939.34,-194.9"/>
</g>
<!-- Node24 -->
<g id="node24" class="node">
<title>Node24</title>
<g id="a_node24"><a xlink:href="future__impl_8cpp.html" target="_top" xlink:title=" ">
<polygon fill="none" stroke="black" points="759.88,-140 759.88,-159 887.88,-159 887.88,-140 759.88,-140"/>
<text text-anchor="middle" x="823.88" y="-147" font-family="Helvetica,sans-Serif" font-size="10.00">src/async/future_impl.cpp</text>
</a>
</g>
</g>
<!-- Node4&#45;&gt;Node24 -->
<g id="edge35" class="edge">
<title>Node4&#45;&gt;Node24</title>
<path fill="none" stroke="midnightblue" d="M867.37,-194C855.51,-182.13 841.43,-168.05 832.57,-159.19"/>
<polygon fill="midnightblue" stroke="midnightblue" points="865.23,-196.8 874.77,-201.4 870.18,-191.85 865.23,-196.8"/>
</g>
<!-- Node5&#45;&gt;Node6 -->
<g id="edge5" class="edge">
<title>Node5&#45;&gt;Node6</title>
<path fill="none" stroke="midnightblue" d="M361.84,-124.4C362.95,-115.37 364.18,-105.41 365.14,-97.58"/>
<polygon fill="midnightblue" stroke="midnightblue" points="358.36,-124.04 360.61,-134.4 365.31,-124.9 358.36,-124.04"/>
</g>
<!-- Node7 -->
<g id="node7" class="node">
<title>Node7</title>
<g id="a_node7"><a xlink:href="when__all_8cpp.html" target="_top" xlink:title=" ">
<polygon fill="none" stroke="black" points="415.38,-0.5 415.38,-30.5 516.38,-30.5 516.38,-0.5 415.38,-0.5"/>
<text text-anchor="start" x="423.38" y="-18.5" font-family="Helvetica,sans-Serif" font-size="10.00">test/example/async</text>
<text text-anchor="middle" x="465.88" y="-7.5" font-family="Helvetica,sans-Serif" font-size="10.00">/when_all.cpp</text>
</a>
</g>
</g>
<!-- Node6&#45;&gt;Node7 -->
<g id="edge6" class="edge">
<title>Node6&#45;&gt;Node7</title>
<path fill="none" stroke="midnightblue" d="M396.98,-61.73C412.3,-51.68 430.57,-39.68 444.44,-30.58"/>
<polygon fill="midnightblue" stroke="midnightblue" points="394.8,-58.98 388.36,-67.4 398.64,-64.83 394.8,-58.98"/>
</g>
<!-- Node8&#45;&gt;Node9 -->
<g id="edge8" class="edge">
<title>Node8&#45;&gt;Node9</title>
<path fill="none" stroke="midnightblue" d="M106.7,-127.31C117.2,-117.56 129.37,-106.26 138.72,-97.58"/>
<polygon fill="midnightblue" stroke="midnightblue" points="104.01,-125.03 99.07,-134.4 108.78,-130.16 104.01,-125.03"/>
</g>
<!-- Node10 -->
<g id="node10" class="node">
<title>Node10</title>
<g id="a_node10"><a xlink:href="when__any_8cpp.html" target="_top" xlink:title=" ">
<polygon fill="none" stroke="black" points="231.38,-0.5 231.38,-30.5 332.38,-30.5 332.38,-0.5 231.38,-0.5"/>
<text text-anchor="start" x="239.38" y="-18.5" font-family="Helvetica,sans-Serif" font-size="10.00">test/example/async</text>
<text text-anchor="middle" x="281.88" y="-7.5" font-family="Helvetica,sans-Serif" font-size="10.00">/when_any.cpp</text>
</a>
</g>
</g>
<!-- Node9&#45;&gt;Node10 -->
<g id="edge9" class="edge">
<title>Node9&#45;&gt;Node10</title>
<path fill="none" stroke="midnightblue" d="M190.6,-62.85C210.83,-52.58 235.55,-40.03 254.16,-30.58"/>
<polygon fill="midnightblue" stroke="midnightblue" points="188.98,-59.75 181.65,-67.4 192.15,-65.99 188.98,-59.75"/>
</g>
<!-- Node11&#45;&gt;Node6 -->
<g id="edge11" class="edge">
<title>Node11&#45;&gt;Node6</title>
<path fill="none" stroke="midnightblue" d="M263.27,-130.27C286.2,-119.92 314.48,-107.15 335.69,-97.58"/>
<polygon fill="midnightblue" stroke="midnightblue" points="261.8,-127.09 254.12,-134.4 264.68,-133.47 261.8,-127.09"/>
</g>
<!-- Node11&#45;&gt;Node9 -->
<g id="edge12" class="edge">
<title>Node11&#45;&gt;Node9</title>
<path fill="none" stroke="midnightblue" d="M200.38,-127.31C190.03,-117.56 178.04,-106.26 168.82,-97.58"/>
<polygon fill="midnightblue" stroke="midnightblue" points="198.23,-130.09 207.91,-134.4 203.03,-124.99 198.23,-130.09"/>
</g>
<!-- Node14 -->
<g id="node14" class="node">
<title>Node14</title>
<g id="a_node14"><a xlink:href="wait__group_8cpp.html" target="_top" xlink:title=" ">
<polygon fill="none" stroke="black" points="894.38,-73 894.38,-92 1013.38,-92 1013.38,-73 894.38,-73"/>
<text text-anchor="middle" x="953.88" y="-80" font-family="Helvetica,sans-Serif" font-size="10.00">src/algo/wait_group.cpp</text>
</a>
</g>
</g>
<!-- Node13&#45;&gt;Node14 -->
<g id="edge16" class="edge">
<title>Node13&#45;&gt;Node14</title>
<path fill="none" stroke="midnightblue" d="M953.88,-124.25C953.88,-113.02 953.88,-100.38 953.88,-92.19"/>
<polygon fill="midnightblue" stroke="midnightblue" points="950.38,-124.4 953.88,-134.4 957.38,-124.4 950.38,-124.4"/>
</g>
<!-- Node16&#45;&gt;Node17 -->
<g id="edge21" class="edge">
<title>Node16&#45;&gt;Node17</title>
<path fill="none" stroke="midnightblue" d="M651.88,-124.11C651.88,-115.15 651.88,-105.32 651.88,-97.58"/>
<polygon fill="midnightblue" stroke="midnightblue" points="648.38,-124.4 651.88,-134.4 655.38,-124.4 648.38,-124.4"/>
</g>
<!-- Node18&#45;&gt;Node7 -->
<g id="edge24" class="edge">
<title>Node18&#45;&gt;Node7</title>
<path fill="none" stroke="midnightblue" d="M518.54,-125.12C505.24,-97.68 483.62,-53.09 472.68,-30.52"/>
<polygon fill="midnightblue" stroke="midnightblue" points="515.52,-126.9 523.03,-134.37 521.81,-123.85 515.52,-126.9"/>
</g>
<!-- Node18&#45;&gt;Node10 -->
<g id="edge25" class="edge">
<title>Node18&#45;&gt;Node10</title>
<path fill="none" stroke="midnightblue" d="M507.25,-127.69C486.73,-109.69 455.01,-83.95 423.88,-67 395.04,-51.3 360.35,-38.85 332.47,-30.25"/>
<polygon fill="midnightblue" stroke="midnightblue" points="505,-130.38 514.8,-134.41 509.65,-125.15 505,-130.38"/>
</g>
<!-- Node18&#45;&gt;Node17 -->
<g id="edge23" class="edge">
<title>Node18&#45;&gt;Node17</title>
<path fill="none" stroke="midnightblue" d="M565.4,-129.57C584.59,-119.35 607.88,-106.94 625.46,-97.58"/>
<polygon fill="midnightblue" stroke="midnightblue" points="563.53,-126.6 556.35,-134.4 566.82,-132.78 563.53,-126.6"/>
</g>
<!-- Node20&#45;&gt;Node21 -->
<g id="edge28" class="edge">
<title>Node20&#45;&gt;Node21</title>
<path fill="none" stroke="midnightblue" d="M1328.63,-126.74C1337.36,-117.12 1347.37,-106.09 1355.1,-97.58"/>
<polygon fill="midnightblue" stroke="midnightblue" points="1325.81,-124.64 1321.68,-134.4 1330.99,-129.34 1325.81,-124.64"/>
</g>
<!-- Node20&#45;&gt;Node22 -->
<g id="edge30" class="edge">
<title>Node20&#45;&gt;Node22</title>
<path fill="none" stroke="midnightblue" d="M1303.4,-124.39C1297.15,-96.9 1287.15,-52.89 1282.06,-30.52"/>
<polygon fill="midnightblue" stroke="midnightblue" points="1300.04,-125.4 1305.67,-134.37 1306.86,-123.85 1300.04,-125.4"/>
</g>
<!-- Node21&#45;&gt;Node22 -->
<g id="edge29" class="edge">
<title>Node21&#45;&gt;Node22</title>
<path fill="none" stroke="midnightblue" d="M1340.43,-61.45C1326.73,-51.45 1310.51,-39.6 1298.15,-30.58"/>
<polygon fill="midnightblue" stroke="midnightblue" points="1338.43,-64.32 1348.57,-67.4 1342.55,-58.67 1338.43,-64.32"/>
</g>
<!-- Node23&#45;&gt;Node19 -->
<g id="edge32" class="edge">
<title>Node23&#45;&gt;Node19</title>
<path fill="none" stroke="midnightblue" d="M1091.92,-124.99C1095.45,-115.8 1099.39,-105.58 1102.46,-97.58"/>
<polygon fill="midnightblue" stroke="midnightblue" points="1088.62,-123.81 1088.3,-134.4 1095.16,-126.32 1088.62,-123.81"/>
</g>
</g>
</svg>
