<?xml version="1.0" encoding="UTF-8" standalone="no"?>
<!DOCTYPE svg PUBLIC "-//W3C//DTD SVG 1.1//EN"
 "http://www.w3.org/Graphics/SVG/1.1/DTD/svg11.dtd">
<!-- Generated by graphviz version 2.50.0 (20220203.2022)
 -->
<!-- Title: src/algo/wait_impl.cpp Pages: 1 -->
<!--zoomable 665 -->
<svg id="main" version="1.1" xmlns="http://www.w3.org/2000/svg" xmlns:xlink="http://www.w3.org/1999/xlink" xml:space="preserve" onload="init(evt)">
<style type="text/css"><![CDATA[
.edge:hover path { stroke: red; }
.edge:hover polygon { stroke: red; fill: red; }
]]></style>
<script type="text/javascript"><![CDATA[
var edges = document.getElementsByTagName('g');
if (edges && edges.length) {
  for (var i=0;i<edges.length;i++) {
    if (edges[i].id.substr(0,4)=='edge') {
      edges[i].setAttribute('class','edge');
    }
  }
}
]]></script>
        <defs>
                <circle id="rim" cx="0" cy="0" r="7"/>
                <circle id="rim2" cx="0" cy="0" r="3.5"/>
                <g id="zoomPlus">
                        <use xlink:href="#rim" fill="#404040">
                                <set attributeName="fill" to="#808080" begin="zoomplus.mouseover" end="zoomplus.mouseout"/>
                        </use>
                        <path d="M-4,0h8M0,-4v8" fill="none" stroke="white" stroke-width="1.5" pointer-events="none"/>
                </g>
                <g id="zoomMin">
                        <use xlink:href="#rim" fill="#404040">
                                <set attributeName="fill" to="#808080" begin="zoomminus.mouseover" end="zoomminus.mouseout"/>
                        </use>
                        <path d="M-4,0h8" fill="none" stroke="white" stroke-width="1.5" pointer-events="none"/>
                </g>
                <g id="dirArrow">
                        <path fill="none" stroke="white" stroke-width="1.5" d="M0,-3.0v7 M-2.5,-0.5L0,-3.0L2.5,-0.5"/>
                </g>
               <g id="resetDef">
                       <use xlink:href="#rim2" fill="#404040">
                               <set attributeName="fill" to="#808080" begin="reset.mouseover" end="reset.mouseout"/>
                       </use>
               </g>
        </defs>

<script type="text/javascript">
var viewWidth = 1844;
var viewHeight = 665;
var sectionId = 'dynsection-0';
</script>
<script xlink:href="svgpan.js"/>
<svg id="graph" class="graph">
<g id="viewport">
<title>src/algo/wait_impl.cpp</title>
<!-- Node1 -->
<g id="node1" class="node">
<title>Node1</title>
<g id="a_node1"><a xlink:title=" ">
<polygon fill="#bfbfbf" stroke="black" points="1319.42,-637.5 1319.42,-656.5 1432.42,-656.5 1432.42,-637.5 1319.42,-637.5"/>
<text text-anchor="middle" x="1375.92" y="-644.5" font-family="Helvetica,sans-Serif" font-size="10.00">src/algo/wait_impl.cpp</text>
</a>
</g>
</g>
<!-- Node2 -->
<g id="node2" class="node">
<title>Node2</title>
<g id="a_node2"><a xlink:href="wait__impl_8hpp.html" target="_top" xlink:title=" ">
<polygon fill="none" stroke="black" points="920.42,-570.5 920.42,-600.5 1009.42,-600.5 1009.42,-570.5 920.42,-570.5"/>
<text text-anchor="start" x="928.42" y="-588.5" font-family="Helvetica,sans-Serif" font-size="10.00">yaclib/algo/detail</text>
<text text-anchor="middle" x="964.92" y="-577.5" font-family="Helvetica,sans-Serif" font-size="10.00">/wait_impl.hpp</text>
</a>
</g>
</g>
<!-- Node1&#45;&gt;Node2 -->
<g id="edge1" class="edge">
<title>Node1&#45;&gt;Node2</title>
<path fill="none" stroke="midnightblue" d="M1319.2,-637.79C1240.17,-626.35 1097.86,-605.75 1019.82,-594.45"/>
<polygon fill="midnightblue" stroke="midnightblue" points="1020.1,-590.95 1009.7,-592.98 1019.1,-597.88 1020.1,-590.95"/>
</g>
<!-- Node5 -->
<g id="node5" class="node">
<title>Node5</title>
<g id="a_node5"><a xlink:title=" ">
<polygon fill="none" stroke="#bfbfbf" points="949.92,-0.5 949.92,-19.5 1037.92,-19.5 1037.92,-0.5 949.92,-0.5"/>
<text text-anchor="middle" x="993.92" y="-7.5" font-family="Helvetica,sans-Serif" font-size="10.00">yaclib/config.hpp</text>
</a>
</g>
</g>
<!-- Node1&#45;&gt;Node5 -->
<g id="edge78" class="edge">
<title>Node1&#45;&gt;Node5</title>
<path fill="none" stroke="midnightblue" d="M1432.78,-642.34C1555.86,-632.87 1835.92,-602.22 1835.92,-519.5 1835.92,-519.5 1835.92,-519.5 1835.92,-137.5 1835.92,-73.03 1776.92,-76.86 1715.92,-56 1592.47,-13.79 1193.85,-10.46 1048.01,-10.7"/>
<polygon fill="midnightblue" stroke="midnightblue" points="1047.95,-7.2 1037.95,-10.72 1047.96,-14.2 1047.95,-7.2"/>
</g>
<!-- Node3 -->
<g id="node3" class="node">
<title>Node3</title>
<g id="a_node3"><a xlink:href="base__core_8hpp.html" target="_top" xlink:title=" ">
<polygon fill="none" stroke="black" points="916.92,-503.5 916.92,-533.5 1012.92,-533.5 1012.92,-503.5 916.92,-503.5"/>
<text text-anchor="start" x="924.92" y="-521.5" font-family="Helvetica,sans-Serif" font-size="10.00">yaclib/async/detail</text>
<text text-anchor="middle" x="964.92" y="-510.5" font-family="Helvetica,sans-Serif" font-size="10.00">/base_core.hpp</text>
</a>
</g>
</g>
<!-- Node2&#45;&gt;Node3 -->
<g id="edge2" class="edge">
<title>Node2&#45;&gt;Node3</title>
<path fill="none" stroke="midnightblue" d="M964.92,-570.4C964.92,-562.64 964.92,-552.81 964.92,-543.86"/>
<polygon fill="midnightblue" stroke="midnightblue" points="968.42,-543.58 964.92,-533.58 961.42,-543.58 968.42,-543.58"/>
</g>
<!-- Node2&#45;&gt;Node5 -->
<g id="edge51" class="edge">
<title>Node2&#45;&gt;Node5</title>
<path fill="none" stroke="midnightblue" d="M920.22,-575.06C806.65,-548.19 515.92,-460.1 515.92,-262.5 515.92,-262.5 515.92,-262.5 515.92,-199 515.92,-123.19 544.49,-95.97 608.92,-56 636.43,-38.93 840.13,-22.1 939.59,-14.79"/>
<polygon fill="midnightblue" stroke="midnightblue" points="940.03,-18.27 949.75,-14.05 939.52,-11.28 940.03,-18.27"/>
</g>
<!-- Node10 -->
<g id="node10" class="node">
<title>Node10</title>
<g id="a_node10"><a xlink:title=" ">
<polygon fill="none" stroke="#bfbfbf" points="1183.92,-62 1183.92,-81 1245.92,-81 1245.92,-62 1183.92,-62"/>
<text text-anchor="middle" x="1214.92" y="-69" font-family="Helvetica,sans-Serif" font-size="10.00">type_traits</text>
</a>
</g>
</g>
<!-- Node2&#45;&gt;Node10 -->
<g id="edge77" class="edge">
<title>Node2&#45;&gt;Node10</title>
<path fill="none" stroke="midnightblue" d="M1009.81,-576.03C1066.41,-562.91 1162.5,-532.07 1213.92,-467 1305.25,-351.41 1243.82,-151.58 1221.85,-90.65"/>
<polygon fill="midnightblue" stroke="midnightblue" points="1225.11,-89.39 1218.36,-81.23 1218.55,-91.82 1225.11,-89.39"/>
</g>
<!-- Node13 -->
<g id="node13" class="node">
<title>Node13</title>
<g id="a_node13"><a xlink:href="atomic_8hpp.html" target="_top" xlink:title=" ">
<polygon fill="none" stroke="black" points="422.42,-62 422.42,-81 535.42,-81 535.42,-62 422.42,-62"/>
<text text-anchor="middle" x="478.92" y="-69" font-family="Helvetica,sans-Serif" font-size="10.00">yaclib/fault/atomic.hpp</text>
</a>
</g>
</g>
<!-- Node2&#45;&gt;Node13 -->
<g id="edge52" class="edge">
<title>Node2&#45;&gt;Node13</title>
<path fill="none" stroke="midnightblue" d="M920.27,-584.78C811.42,-584.72 535.58,-579.92 457.92,-534 420.09,-511.63 401.92,-496.45 401.92,-452.5 401.92,-452.5 401.92,-452.5 401.92,-383.5 401.92,-269.22 451.52,-138.05 471.1,-90.71"/>
<polygon fill="midnightblue" stroke="midnightblue" points="474.34,-92.03 474.99,-81.46 467.89,-89.32 474.34,-92.03"/>
</g>
<!-- Node14 -->
<g id="node14" class="node">
<title>Node14</title>
<g id="a_node14"><a xlink:title=" ">
<polygon fill="none" stroke="#bfbfbf" points="207.42,-0.5 207.42,-19.5 256.42,-19.5 256.42,-0.5 207.42,-0.5"/>
<text text-anchor="middle" x="231.92" y="-7.5" font-family="Helvetica,sans-Serif" font-size="10.00">cstddef</text>
</a>
</g>
</g>
<!-- Node2&#45;&gt;Node14 -->
<g id="edge75" class="edge">
<title>Node2&#45;&gt;Node14</title>
<path fill="none" stroke="midnightblue" d="M920.4,-583.15C731.01,-576.85 1.92,-546.47 1.92,-452.5 1.92,-452.5 1.92,-452.5 1.92,-137.5 1.92,-100.31 -5.75,-81.92 20.92,-56 76.23,-2.23 116.5,-35.44 197.05,-19.9"/>
<polygon fill="midnightblue" stroke="midnightblue" points="198.03,-23.27 207.08,-17.75 196.57,-16.42 198.03,-23.27"/>
</g>
<!-- Node17 -->
<g id="node17" class="node">
<title>Node17</title>
<g id="a_node17"><a xlink:href="atomic__counter_8hpp.html" target="_top" xlink:title=" ">
<polygon fill="none" stroke="black" points="581.92,-123.5 581.92,-153.5 685.92,-153.5 685.92,-123.5 581.92,-123.5"/>
<text text-anchor="start" x="589.92" y="-141.5" font-family="Helvetica,sans-Serif" font-size="10.00">yaclib/util/detail</text>
<text text-anchor="middle" x="633.92" y="-130.5" font-family="Helvetica,sans-Serif" font-size="10.00">/atomic_counter.hpp</text>
</a>
</g>
</g>
<!-- Node2&#45;&gt;Node17 -->
<g id="edge53" class="edge">
<title>Node2&#45;&gt;Node17</title>
<path fill="none" stroke="midnightblue" d="M920.26,-582.49C816.28,-577.35 564.9,-562.12 539.92,-534 441.47,-423.17 568.54,-227.79 616.77,-161.91"/>
<polygon fill="midnightblue" stroke="midnightblue" points="619.61,-163.96 622.76,-153.84 613.99,-159.78 619.61,-163.96"/>
</g>
<!-- Node24 -->
<g id="node24" class="node">
<title>Node24</title>
<g id="a_node24"><a xlink:href="event__deleter_8hpp.html" target="_top" xlink:title=" ">
<polygon fill="none" stroke="black" points="1654.92,-436.5 1654.92,-466.5 1750.92,-466.5 1750.92,-436.5 1654.92,-436.5"/>
<text text-anchor="start" x="1662.92" y="-454.5" font-family="Helvetica,sans-Serif" font-size="10.00">yaclib/util/detail</text>
<text text-anchor="middle" x="1702.92" y="-443.5" font-family="Helvetica,sans-Serif" font-size="10.00">/event_deleter.hpp</text>
</a>
</g>
</g>
<!-- Node2&#45;&gt;Node24 -->
<g id="edge54" class="edge">
<title>Node2&#45;&gt;Node24</title>
<path fill="none" stroke="midnightblue" d="M1009.49,-584.95C1103.49,-584.92 1328.36,-579.58 1509.92,-534 1567.48,-519.55 1630.07,-490.41 1667.9,-471.18"/>
<polygon fill="midnightblue" stroke="midnightblue" points="1669.67,-474.2 1676.96,-466.51 1666.47,-467.98 1669.67,-474.2"/>
</g>
<!-- Node25 -->
<g id="node25" class="node">
<title>Node25</title>
<g id="a_node25"><a xlink:href="mutex__event_8hpp.html" target="_top" xlink:title=" ">
<polygon fill="none" stroke="black" points="281.42,-123.5 281.42,-153.5 374.42,-153.5 374.42,-123.5 281.42,-123.5"/>
<text text-anchor="start" x="289.42" y="-141.5" font-family="Helvetica,sans-Serif" font-size="10.00">yaclib/util/detail</text>
<text text-anchor="middle" x="327.92" y="-130.5" font-family="Helvetica,sans-Serif" font-size="10.00">/mutex_event.hpp</text>
</a>
</g>
</g>
<!-- Node2&#45;&gt;Node25 -->
<g id="edge56" class="edge">
<title>Node2&#45;&gt;Node25</title>
<path fill="none" stroke="midnightblue" d="M920.41,-583.34C821.58,-580.15 587.03,-569 516.92,-534 472.33,-511.74 439.92,-502.33 439.92,-452.5 439.92,-452.5 439.92,-452.5 439.92,-383.5 439.92,-294.51 377.62,-202.54 345.95,-161.54"/>
<polygon fill="midnightblue" stroke="midnightblue" points="348.63,-159.27 339.69,-153.58 343.12,-163.6 348.63,-159.27"/>
</g>
<!-- Node31 -->
<g id="node31" class="node">
<title>Node31</title>
<g id="a_node31"><a xlink:href="type__traits_8hpp.html" target="_top" xlink:title=" ">
<polygon fill="none" stroke="black" points="1471.42,-190.5 1471.42,-209.5 1594.42,-209.5 1594.42,-190.5 1471.42,-190.5"/>
<text text-anchor="middle" x="1532.92" y="-197.5" font-family="Helvetica,sans-Serif" font-size="10.00">yaclib/util/type_traits.hpp</text>
</a>
</g>
</g>
<!-- Node2&#45;&gt;Node31 -->
<g id="edge66" class="edge">
<title>Node2&#45;&gt;Node31</title>
<path fill="none" stroke="midnightblue" d="M1009.58,-583.15C1100.7,-579.72 1304.42,-568.32 1363.92,-534 1403.34,-511.26 1425.92,-498.01 1425.92,-452.5 1425.92,-452.5 1425.92,-452.5 1425.92,-322 1425.92,-272.74 1476.3,-234.11 1507.92,-214.72"/>
<polygon fill="midnightblue" stroke="midnightblue" points="1509.84,-217.65 1516.67,-209.54 1506.28,-211.62 1509.84,-217.65"/>
</g>
<!-- Node35 -->
<g id="node35" class="node">
<title>Node35</title>
<g id="a_node35"><a xlink:title=" ">
<polygon fill="none" stroke="#bfbfbf" points="1454.42,-509 1454.42,-528 1501.42,-528 1501.42,-509 1454.42,-509"/>
<text text-anchor="middle" x="1477.92" y="-516" font-family="Helvetica,sans-Serif" font-size="10.00">iterator</text>
</a>
</g>
</g>
<!-- Node2&#45;&gt;Node35 -->
<g id="edge76" class="edge">
<title>Node2&#45;&gt;Node35</title>
<path fill="none" stroke="midnightblue" d="M1009.44,-583.59C1094.32,-581.01 1284.67,-571.21 1439.92,-534 1442.91,-533.28 1445.99,-532.39 1449.03,-531.4"/>
<polygon fill="midnightblue" stroke="midnightblue" points="1450.26,-534.68 1458.5,-528.02 1447.91,-528.09 1450.26,-534.68"/>
</g>
<!-- Node4 -->
<g id="node4" class="node">
<title>Node4</title>
<g id="a_node4"><a xlink:href="inline__core_8hpp.html" target="_top" xlink:title=" ">
<polygon fill="none" stroke="black" points="1041.92,-369.5 1041.92,-399.5 1137.92,-399.5 1137.92,-369.5 1041.92,-369.5"/>
<text text-anchor="start" x="1049.92" y="-387.5" font-family="Helvetica,sans-Serif" font-size="10.00">yaclib/async/detail</text>
<text text-anchor="middle" x="1089.92" y="-376.5" font-family="Helvetica,sans-Serif" font-size="10.00">/inline_core.hpp</text>
</a>
</g>
</g>
<!-- Node3&#45;&gt;Node4 -->
<g id="edge3" class="edge">
<title>Node3&#45;&gt;Node4</title>
<path fill="none" stroke="midnightblue" d="M984.98,-503.4C997.91,-493.85 1014.71,-480.55 1027.92,-467 1045.72,-448.74 1063.04,-425.36 1074.82,-408.32"/>
<polygon fill="midnightblue" stroke="midnightblue" points="1078.04,-409.82 1080.77,-399.59 1072.25,-405.88 1078.04,-409.82"/>
</g>
<!-- Node3&#45;&gt;Node5 -->
<g id="edge39" class="edge">
<title>Node3&#45;&gt;Node5</title>
<path fill="none" stroke="midnightblue" d="M1013.03,-517.09C1123.9,-513.36 1387.92,-487.33 1387.92,-324 1387.92,-324 1387.92,-324 1387.92,-137.5 1387.92,-94.53 1372.16,-79.07 1335.92,-56 1289.3,-26.33 1132.16,-16.05 1048.07,-12.62"/>
<polygon fill="midnightblue" stroke="midnightblue" points="1048.07,-9.12 1037.95,-12.23 1047.8,-16.12 1048.07,-9.12"/>
</g>
<!-- Node6 -->
<g id="node6" class="node">
<title>Node6</title>
<g id="a_node6"><a xlink:href="task_8hpp.html" target="_top" xlink:title=" ">
<polygon fill="none" stroke="black" points="970.42,-313.5 970.42,-332.5 1091.42,-332.5 1091.42,-313.5 970.42,-313.5"/>
<text text-anchor="middle" x="1030.92" y="-320.5" font-family="Helvetica,sans-Serif" font-size="10.00">yaclib/executor/task.hpp</text>
</a>
</g>
</g>
<!-- Node3&#45;&gt;Node6 -->
<g id="edge47" class="edge">
<title>Node3&#45;&gt;Node6</title>
<path fill="none" stroke="midnightblue" d="M969.77,-503.27C981.53,-468.8 1011.54,-380.81 1024.64,-342.4"/>
<polygon fill="midnightblue" stroke="midnightblue" points="1028.08,-343.17 1027.99,-332.58 1021.45,-340.91 1028.08,-343.17"/>
</g>
<!-- Node3&#45;&gt;Node13 -->
<g id="edge48" class="edge">
<title>Node3&#45;&gt;Node13</title>
<path fill="none" stroke="midnightblue" d="M916.88,-518.37C856.07,-517.49 749.76,-509.28 670.92,-467 560.78,-407.94 477.92,-387.47 477.92,-262.5 477.92,-262.5 477.92,-262.5 477.92,-199 477.92,-160.7 478.38,-115.88 478.68,-91.2"/>
<polygon fill="midnightblue" stroke="midnightblue" points="482.18,-91.13 478.8,-81.09 475.18,-91.05 482.18,-91.13"/>
</g>
<!-- Node18 -->
<g id="node18" class="node">
<title>Node18</title>
<g id="a_node18"><a xlink:href="intrusive__ptr_8hpp.html" target="_top" xlink:title=" ">
<polygon fill="none" stroke="black" points="856.42,-123.5 856.42,-153.5 953.42,-153.5 953.42,-123.5 856.42,-123.5"/>
<text text-anchor="start" x="864.42" y="-141.5" font-family="Helvetica,sans-Serif" font-size="10.00">yaclib/util/intrusive</text>
<text text-anchor="middle" x="904.92" y="-130.5" font-family="Helvetica,sans-Serif" font-size="10.00">_ptr.hpp</text>
</a>
</g>
</g>
<!-- Node3&#45;&gt;Node18 -->
<g id="edge49" class="edge">
<title>Node3&#45;&gt;Node18</title>
<path fill="none" stroke="midnightblue" d="M928.2,-503.42C884.66,-484.03 817.92,-444.67 817.92,-385.5 817.92,-385.5 817.92,-385.5 817.92,-322 817.92,-258.85 860.89,-194.32 886.43,-161.54"/>
<polygon fill="midnightblue" stroke="midnightblue" points="889.32,-163.54 892.82,-153.54 883.85,-159.17 889.32,-163.54"/>
</g>
<!-- Node19 -->
<g id="node19" class="node">
<title>Node19</title>
<g id="a_node19"><a xlink:href="ref_8hpp.html" target="_top" xlink:title=" ">
<polygon fill="none" stroke="black" points="630.42,-62 630.42,-81 719.42,-81 719.42,-62 630.42,-62"/>
<text text-anchor="middle" x="674.92" y="-69" font-family="Helvetica,sans-Serif" font-size="10.00">yaclib/util/ref.hpp</text>
</a>
</g>
</g>
<!-- Node3&#45;&gt;Node19 -->
<g id="edge50" class="edge">
<title>Node3&#45;&gt;Node19</title>
<path fill="none" stroke="midnightblue" d="M916.61,-517.75C830.16,-515.4 657.92,-496.75 657.92,-385.5 657.92,-385.5 657.92,-385.5 657.92,-260.5 657.92,-197.22 706.78,-185.16 694.92,-123 692.76,-111.71 688.13,-99.72 683.86,-90.26"/>
<polygon fill="midnightblue" stroke="midnightblue" points="686.97,-88.65 679.51,-81.13 680.65,-91.67 686.97,-88.65"/>
</g>
<!-- Node22 -->
<g id="node22" class="node">
<title>Node22</title>
<g id="a_node22"><a xlink:href="executor_8hpp.html" target="_top" xlink:title=" ">
<polygon fill="none" stroke="black" points="846.42,-375 846.42,-394 985.42,-394 985.42,-375 846.42,-375"/>
<text text-anchor="middle" x="915.92" y="-382" font-family="Helvetica,sans-Serif" font-size="10.00">yaclib/executor/executor.hpp</text>
</a>
</g>
</g>
<!-- Node3&#45;&gt;Node22 -->
<g id="edge40" class="edge">
<title>Node3&#45;&gt;Node22</title>
<path fill="none" stroke="midnightblue" d="M959.67,-503.37C950.73,-479.29 932.55,-430.31 922.67,-403.7"/>
<polygon fill="midnightblue" stroke="midnightblue" points="925.87,-402.25 919.11,-394.1 919.31,-404.69 925.87,-402.25"/>
</g>
<!-- Node23 -->
<g id="node23" class="node">
<title>Node23</title>
<g id="a_node23"><a xlink:href="inline_8hpp.html" target="_top" xlink:title=" ">
<polygon fill="none" stroke="black" points="1080.42,-442 1080.42,-461 1205.42,-461 1205.42,-442 1080.42,-442"/>
<text text-anchor="middle" x="1142.92" y="-449" font-family="Helvetica,sans-Serif" font-size="10.00">yaclib/executor/inline.hpp</text>
</a>
</g>
</g>
<!-- Node3&#45;&gt;Node23 -->
<g id="edge44" class="edge">
<title>Node3&#45;&gt;Node23</title>
<path fill="none" stroke="midnightblue" d="M1003.54,-503.4C1035.33,-491.79 1079.89,-475.51 1110,-464.52"/>
<polygon fill="midnightblue" stroke="midnightblue" points="1111.43,-467.72 1119.62,-461.01 1109.03,-461.15 1111.43,-467.72"/>
</g>
<!-- Node4&#45;&gt;Node5 -->
<g id="edge4" class="edge">
<title>Node4&#45;&gt;Node5</title>
<path fill="none" stroke="midnightblue" d="M1134.58,-369.43C1199.4,-345.89 1311.92,-291.93 1311.92,-201 1311.92,-201 1311.92,-201 1311.92,-137.5 1311.92,-98.08 1308.03,-80.21 1276.92,-56 1242.21,-28.99 1120.46,-17.82 1048.45,-13.5"/>
<polygon fill="midnightblue" stroke="midnightblue" points="1048.38,-9.99 1038.2,-12.91 1047.98,-16.98 1048.38,-9.99"/>
</g>
<!-- Node4&#45;&gt;Node6 -->
<g id="edge5" class="edge">
<title>Node4&#45;&gt;Node6</title>
<path fill="none" stroke="midnightblue" d="M1075.94,-369.4C1067.19,-360.58 1055.89,-349.18 1046.8,-340.02"/>
<polygon fill="midnightblue" stroke="midnightblue" points="1049.03,-337.29 1039.5,-332.66 1044.06,-342.22 1049.03,-337.29"/>
</g>
<!-- Node6&#45;&gt;Node5 -->
<g id="edge6" class="edge">
<title>Node6&#45;&gt;Node5</title>
<path fill="none" stroke="midnightblue" d="M1044.4,-313.4C1056.33,-305.22 1073.57,-291.98 1084.92,-277 1128.8,-219.07 1162.15,-192.2 1139.92,-123 1128.71,-88.12 1120.17,-79.31 1091.92,-56 1074.25,-41.43 1051.09,-30.5 1031.72,-23.07"/>
<polygon fill="midnightblue" stroke="midnightblue" points="1032.87,-19.76 1022.27,-19.6 1030.45,-26.34 1032.87,-19.76"/>
</g>
<!-- Node7 -->
<g id="node7" class="node">
<title>Node7</title>
<g id="a_node7"><a xlink:href="node_8hpp.html" target="_top" xlink:title=" ">
<polygon fill="none" stroke="black" points="1162.42,-246.5 1162.42,-276.5 1245.42,-276.5 1245.42,-246.5 1162.42,-246.5"/>
<text text-anchor="start" x="1170.42" y="-264.5" font-family="Helvetica,sans-Serif" font-size="10.00">yaclib/util/detail</text>
<text text-anchor="middle" x="1203.92" y="-253.5" font-family="Helvetica,sans-Serif" font-size="10.00">/node.hpp</text>
</a>
</g>
</g>
<!-- Node6&#45;&gt;Node7 -->
<g id="edge7" class="edge">
<title>Node6&#45;&gt;Node7</title>
<path fill="none" stroke="midnightblue" d="M1055.7,-313.48C1081.11,-304.74 1121.32,-290.91 1153.46,-279.86"/>
<polygon fill="midnightblue" stroke="midnightblue" points="1154.83,-283.09 1163.14,-276.52 1152.55,-276.47 1154.83,-283.09"/>
</g>
<!-- Node8 -->
<g id="node8" class="node">
<title>Node8</title>
<g id="a_node8"><a xlink:href="func_8hpp.html" target="_top" xlink:title=" ">
<polygon fill="none" stroke="black" points="979.42,-252 979.42,-271 1076.42,-271 1076.42,-252 979.42,-252"/>
<text text-anchor="middle" x="1027.92" y="-259" font-family="Helvetica,sans-Serif" font-size="10.00">yaclib/util/func.hpp</text>
</a>
</g>
</g>
<!-- Node6&#45;&gt;Node8 -->
<g id="edge9" class="edge">
<title>Node6&#45;&gt;Node8</title>
<path fill="none" stroke="midnightblue" d="M1030.49,-313.48C1030.06,-305.08 1029.4,-291.98 1028.86,-281.16"/>
<polygon fill="midnightblue" stroke="midnightblue" points="1032.35,-280.82 1028.35,-271.01 1025.35,-281.17 1032.35,-280.82"/>
</g>
<!-- Node7&#45;&gt;Node5 -->
<g id="edge8" class="edge">
<title>Node7&#45;&gt;Node5</title>
<path fill="none" stroke="midnightblue" d="M1214.74,-246.48C1241.17,-210.47 1303.36,-113.51 1254.92,-56 1229.03,-25.27 1116.84,-15.52 1048.25,-12.43"/>
<polygon fill="midnightblue" stroke="midnightblue" points="1048.18,-8.93 1038.05,-12.01 1047.89,-15.92 1048.18,-8.93"/>
</g>
<!-- Node8&#45;&gt;Node5 -->
<g id="edge10" class="edge">
<title>Node8&#45;&gt;Node5</title>
<path fill="none" stroke="midnightblue" d="M1026.75,-251.91C1021.89,-216.3 1003.29,-79.75 996.45,-29.61"/>
<polygon fill="midnightblue" stroke="midnightblue" points="999.9,-28.99 995.08,-19.55 992.97,-29.93 999.9,-28.99"/>
</g>
<!-- Node9 -->
<g id="node9" class="node">
<title>Node9</title>
<g id="a_node9"><a xlink:href="safe__call_8hpp.html" target="_top" xlink:title=" ">
<polygon fill="none" stroke="black" points="1048.42,-123.5 1048.42,-153.5 1131.42,-153.5 1131.42,-123.5 1048.42,-123.5"/>
<text text-anchor="start" x="1056.42" y="-141.5" font-family="Helvetica,sans-Serif" font-size="10.00">yaclib/util/detail</text>
<text text-anchor="middle" x="1089.92" y="-130.5" font-family="Helvetica,sans-Serif" font-size="10.00">/safe_call.hpp</text>
</a>
</g>
</g>
<!-- Node8&#45;&gt;Node9 -->
<g id="edge11" class="edge">
<title>Node8&#45;&gt;Node9</title>
<path fill="none" stroke="midnightblue" d="M1034.03,-251.82C1040.83,-241.96 1051.91,-225.25 1059.92,-210 1067.93,-194.74 1075.52,-176.87 1081.05,-162.94"/>
<polygon fill="midnightblue" stroke="midnightblue" points="1084.33,-164.18 1084.7,-153.59 1077.81,-161.63 1084.33,-164.18"/>
</g>
<!-- Node8&#45;&gt;Node10 -->
<g id="edge37" class="edge">
<title>Node8&#45;&gt;Node10</title>
<path fill="none" stroke="midnightblue" d="M1037.41,-251.87C1056.98,-234 1103.04,-191.49 1139.92,-154 1161.51,-132.06 1185.42,-105.68 1200.32,-89.01"/>
<polygon fill="midnightblue" stroke="midnightblue" points="1203.19,-91.04 1207.22,-81.24 1197.96,-86.39 1203.19,-91.04"/>
</g>
<!-- Node11 -->
<g id="node11" class="node">
<title>Node11</title>
<g id="a_node11"><a xlink:title=" ">
<polygon fill="none" stroke="#bfbfbf" points="1022.42,-62 1022.42,-81 1061.42,-81 1061.42,-62 1022.42,-62"/>
<text text-anchor="middle" x="1041.92" y="-69" font-family="Helvetica,sans-Serif" font-size="10.00">utility</text>
</a>
</g>
</g>
<!-- Node8&#45;&gt;Node11 -->
<g id="edge38" class="edge">
<title>Node8&#45;&gt;Node11</title>
<path fill="none" stroke="midnightblue" d="M1028.56,-251.93C1030.68,-223.43 1037.54,-131.32 1040.52,-91.33"/>
<polygon fill="midnightblue" stroke="midnightblue" points="1044.02,-91.35 1041.28,-81.12 1037.04,-90.83 1044.02,-91.35"/>
</g>
<!-- Node12 -->
<g id="node12" class="node">
<title>Node12</title>
<g id="a_node12"><a xlink:href="helper_8hpp.html" target="_top" xlink:title=" ">
<polygon fill="none" stroke="black" points="723.92,-190.5 723.92,-209.5 827.92,-209.5 827.92,-190.5 723.92,-190.5"/>
<text text-anchor="middle" x="775.92" y="-197.5" font-family="Helvetica,sans-Serif" font-size="10.00">yaclib/util/helper.hpp</text>
</a>
</g>
</g>
<!-- Node8&#45;&gt;Node12 -->
<g id="edge15" class="edge">
<title>Node8&#45;&gt;Node12</title>
<path fill="none" stroke="midnightblue" d="M991.81,-251.98C947.09,-241.42 870.83,-223.41 821.95,-211.87"/>
<polygon fill="midnightblue" stroke="midnightblue" points="822.49,-208.4 811.96,-209.51 820.88,-215.21 822.49,-208.4"/>
</g>
<!-- Node8&#45;&gt;Node18 -->
<g id="edge35" class="edge">
<title>Node8&#45;&gt;Node18</title>
<path fill="none" stroke="midnightblue" d="M1019.07,-251.8C999.84,-232.88 953.75,-187.53 926.37,-160.61"/>
<polygon fill="midnightblue" stroke="midnightblue" points="928.77,-158.06 919.19,-153.54 923.86,-163.05 928.77,-158.06"/>
</g>
<!-- Node8&#45;&gt;Node19 -->
<g id="edge36" class="edge">
<title>Node8&#45;&gt;Node19</title>
<path fill="none" stroke="midnightblue" d="M1011.83,-251.93C955.78,-222.08 768.77,-122.48 700.31,-86.02"/>
<polygon fill="midnightblue" stroke="midnightblue" points="701.57,-82.73 691.1,-81.12 698.28,-88.91 701.57,-82.73"/>
</g>
<!-- Node9&#45;&gt;Node5 -->
<g id="edge12" class="edge">
<title>Node9&#45;&gt;Node5</title>
<path fill="none" stroke="midnightblue" d="M1089.69,-123.43C1088.75,-106 1084.85,-76.12 1069.92,-56 1059.35,-41.76 1042.82,-31.2 1027.87,-23.9"/>
<polygon fill="midnightblue" stroke="midnightblue" points="1028.9,-20.53 1018.35,-19.57 1026,-26.9 1028.9,-20.53"/>
</g>
<!-- Node9&#45;&gt;Node10 -->
<g id="edge13" class="edge">
<title>Node9&#45;&gt;Node10</title>
<path fill="none" stroke="midnightblue" d="M1117.04,-123.4C1138.59,-112.19 1168.49,-96.64 1189.56,-85.69"/>
<polygon fill="midnightblue" stroke="midnightblue" points="1191.3,-88.73 1198.56,-81.01 1188.07,-82.52 1191.3,-88.73"/>
</g>
<!-- Node9&#45;&gt;Node11 -->
<g id="edge14" class="edge">
<title>Node9&#45;&gt;Node11</title>
<path fill="none" stroke="midnightblue" d="M1079.5,-123.4C1072.09,-113.36 1062.11,-99.84 1054.29,-89.25"/>
<polygon fill="midnightblue" stroke="midnightblue" points="1057.09,-87.16 1048.34,-81.19 1051.46,-91.32 1057.09,-87.16"/>
</g>
<!-- Node12&#45;&gt;Node5 -->
<g id="edge16" class="edge">
<title>Node12&#45;&gt;Node5</title>
<path fill="none" stroke="midnightblue" d="M783.35,-190.11C795.82,-175.44 822.01,-145.53 846.92,-123 848.38,-121.67 934.73,-56 974.38,-25.85"/>
<polygon fill="midnightblue" stroke="midnightblue" points="976.68,-28.5 982.52,-19.66 972.44,-22.93 976.68,-28.5"/>
</g>
<!-- Node12&#45;&gt;Node13 -->
<g id="edge17" class="edge">
<title>Node12&#45;&gt;Node13</title>
<path fill="none" stroke="midnightblue" d="M723.49,-194.55C681.03,-189.3 620.64,-178.02 572.92,-154 540.46,-137.67 510.07,-107.6 493.04,-88.91"/>
<polygon fill="midnightblue" stroke="midnightblue" points="495.46,-86.36 486.2,-81.21 490.23,-91.01 495.46,-86.36"/>
</g>
<!-- Node12&#45;&gt;Node17 -->
<g id="edge22" class="edge">
<title>Node12&#45;&gt;Node17</title>
<path fill="none" stroke="midnightblue" d="M755.57,-190.48C735.08,-181.89 702.85,-168.38 676.71,-157.43"/>
<polygon fill="midnightblue" stroke="midnightblue" points="677.96,-154.16 667.38,-153.52 675.25,-160.62 677.96,-154.16"/>
</g>
<!-- Node12&#45;&gt;Node18 -->
<g id="edge27" class="edge">
<title>Node12&#45;&gt;Node18</title>
<path fill="none" stroke="midnightblue" d="M794.4,-190.48C812.85,-181.96 841.78,-168.62 865.42,-157.72"/>
<polygon fill="midnightblue" stroke="midnightblue" points="866.9,-160.89 874.51,-153.52 863.97,-154.53 866.9,-160.89"/>
</g>
<!-- Node13&#45;&gt;Node5 -->
<g id="edge18" class="edge">
<title>Node13&#45;&gt;Node5</title>
<path fill="none" stroke="midnightblue" d="M517.11,-61.97C527.7,-59.8 539.22,-57.63 549.92,-56 689.62,-34.71 855.64,-20.91 939.55,-14.74"/>
<polygon fill="midnightblue" stroke="midnightblue" points="939.9,-18.23 949.62,-14.01 939.39,-11.24 939.9,-18.23"/>
</g>
<!-- Node13&#45;&gt;Node14 -->
<g id="edge19" class="edge">
<title>Node13&#45;&gt;Node14</title>
<path fill="none" stroke="midnightblue" d="M443.53,-61.98C396.4,-50.62 313.56,-30.67 266.73,-19.39"/>
<polygon fill="midnightblue" stroke="midnightblue" points="267.29,-15.92 256.75,-16.98 265.66,-22.73 267.29,-15.92"/>
</g>
<!-- Node15 -->
<g id="node15" class="node">
<title>Node15</title>
<g id="a_node15"><a xlink:title=" ">
<polygon fill="none" stroke="#bfbfbf" points="487.92,-0.5 487.92,-19.5 533.92,-19.5 533.92,-0.5 487.92,-0.5"/>
<text text-anchor="middle" x="510.92" y="-7.5" font-family="Helvetica,sans-Serif" font-size="10.00">cstdint</text>
</a>
</g>
</g>
<!-- Node13&#45;&gt;Node15 -->
<g id="edge20" class="edge">
<title>Node13&#45;&gt;Node15</title>
<path fill="none" stroke="midnightblue" d="M483.5,-61.98C488.16,-53.32 495.51,-39.65 501.43,-28.65"/>
<polygon fill="midnightblue" stroke="midnightblue" points="504.69,-29.97 506.34,-19.51 498.52,-26.66 504.69,-29.97"/>
</g>
<!-- Node16 -->
<g id="node16" class="node">
<title>Node16</title>
<g id="a_node16"><a xlink:title=" ">
<polygon fill="none" stroke="#bfbfbf" points="423.92,-0.5 423.92,-19.5 469.92,-19.5 469.92,-0.5 423.92,-0.5"/>
<text text-anchor="middle" x="446.92" y="-7.5" font-family="Helvetica,sans-Serif" font-size="10.00">atomic</text>
</a>
</g>
</g>
<!-- Node13&#45;&gt;Node16 -->
<g id="edge21" class="edge">
<title>Node13&#45;&gt;Node16</title>
<path fill="none" stroke="midnightblue" d="M474.33,-61.98C469.68,-53.32 462.33,-39.65 456.41,-28.65"/>
<polygon fill="midnightblue" stroke="midnightblue" points="459.31,-26.66 451.49,-19.51 453.15,-29.97 459.31,-26.66"/>
</g>
<!-- Node17&#45;&gt;Node5 -->
<g id="edge23" class="edge">
<title>Node17&#45;&gt;Node5</title>
<path fill="none" stroke="midnightblue" d="M625.52,-123.2C616.19,-105.25 604.47,-74.55 620.92,-56 641.71,-32.55 841.53,-18.95 939.84,-13.62"/>
<polygon fill="midnightblue" stroke="midnightblue" points="940.08,-17.11 949.88,-13.09 939.71,-10.12 940.08,-17.11"/>
</g>
<!-- Node17&#45;&gt;Node11 -->
<g id="edge26" class="edge">
<title>Node17&#45;&gt;Node11</title>
<path fill="none" stroke="midnightblue" d="M686.01,-129.2C772.47,-115.43 942.92,-88.27 1011.89,-77.28"/>
<polygon fill="midnightblue" stroke="midnightblue" points="1012.74,-80.69 1022.06,-75.66 1011.64,-73.78 1012.74,-80.69"/>
</g>
<!-- Node17&#45;&gt;Node13 -->
<g id="edge24" class="edge">
<title>Node17&#45;&gt;Node13</title>
<path fill="none" stroke="midnightblue" d="M600.28,-123.4C572.97,-111.94 534.81,-95.94 508.61,-84.95"/>
<polygon fill="midnightblue" stroke="midnightblue" points="509.78,-81.65 499.2,-81.01 507.07,-88.1 509.78,-81.65"/>
</g>
<!-- Node17&#45;&gt;Node14 -->
<g id="edge25" class="edge">
<title>Node17&#45;&gt;Node14</title>
<path fill="none" stroke="midnightblue" d="M581.81,-134.06C481.86,-126.97 270.96,-109.53 246.92,-87 231.46,-72.52 229.34,-47.09 230.01,-29.66"/>
<polygon fill="midnightblue" stroke="midnightblue" points="233.51,-29.79 230.73,-19.56 226.52,-29.29 233.51,-29.79"/>
</g>
<!-- Node18&#45;&gt;Node5 -->
<g id="edge28" class="edge">
<title>Node18&#45;&gt;Node5</title>
<path fill="none" stroke="midnightblue" d="M914.78,-123.48C931.23,-100.1 964.19,-53.25 981.94,-28.02"/>
<polygon fill="midnightblue" stroke="midnightblue" points="984.84,-29.98 987.73,-19.79 979.12,-25.95 984.84,-29.98"/>
</g>
<!-- Node18&#45;&gt;Node10 -->
<g id="edge31" class="edge">
<title>Node18&#45;&gt;Node10</title>
<path fill="none" stroke="midnightblue" d="M953.7,-127.27C1014.37,-114.55 1116.89,-93.05 1173.78,-81.13"/>
<polygon fill="midnightblue" stroke="midnightblue" points="1174.78,-84.49 1183.85,-79.01 1173.34,-77.64 1174.78,-84.49"/>
</g>
<!-- Node18&#45;&gt;Node19 -->
<g id="edge29" class="edge">
<title>Node18&#45;&gt;Node19</title>
<path fill="none" stroke="midnightblue" d="M856.14,-123.72C814.17,-111.85 754.35,-94.95 715.09,-83.85"/>
<polygon fill="midnightblue" stroke="midnightblue" points="715.9,-80.45 705.33,-81.09 714,-87.18 715.9,-80.45"/>
</g>
<!-- Node20 -->
<g id="node20" class="node">
<title>Node20</title>
<g id="a_node20"><a xlink:href="intrusive__ptr__impl_8hpp.html" target="_top" xlink:title=" ">
<polygon fill="none" stroke="black" points="737.92,-56.5 737.92,-86.5 851.92,-86.5 851.92,-56.5 737.92,-56.5"/>
<text text-anchor="start" x="745.92" y="-74.5" font-family="Helvetica,sans-Serif" font-size="10.00">yaclib/util/detail</text>
<text text-anchor="middle" x="794.92" y="-63.5" font-family="Helvetica,sans-Serif" font-size="10.00">/intrusive_ptr_impl.hpp</text>
</a>
</g>
</g>
<!-- Node18&#45;&gt;Node20 -->
<g id="edge32" class="edge">
<title>Node18&#45;&gt;Node20</title>
<path fill="none" stroke="midnightblue" d="M881.05,-123.4C865.34,-114.11 844.57,-101.84 827.37,-91.67"/>
<polygon fill="midnightblue" stroke="midnightblue" points="829.13,-88.65 818.74,-86.58 825.57,-94.68 829.13,-88.65"/>
</g>
<!-- Node19&#45;&gt;Node5 -->
<g id="edge30" class="edge">
<title>Node19&#45;&gt;Node5</title>
<path fill="none" stroke="midnightblue" d="M704.79,-61.94C712.6,-59.85 721.05,-57.72 728.92,-56 801.3,-40.17 885.83,-26.67 939.6,-18.69"/>
<polygon fill="midnightblue" stroke="midnightblue" points="940.21,-22.14 949.6,-17.22 939.19,-15.22 940.21,-22.14"/>
</g>
<!-- Node20&#45;&gt;Node5 -->
<g id="edge33" class="edge">
<title>Node20&#45;&gt;Node5</title>
<path fill="none" stroke="midnightblue" d="M841.83,-56.47C876.61,-46.08 923.42,-32.08 955.88,-22.37"/>
<polygon fill="midnightblue" stroke="midnightblue" points="956.89,-25.72 965.47,-19.51 954.88,-19.02 956.89,-25.72"/>
</g>
<!-- Node21 -->
<g id="node21" class="node">
<title>Node21</title>
<g id="a_node21"><a xlink:title=" ">
<polygon fill="none" stroke="#bfbfbf" points="770.42,-0.5 770.42,-19.5 819.42,-19.5 819.42,-0.5 770.42,-0.5"/>
<text text-anchor="middle" x="794.92" y="-7.5" font-family="Helvetica,sans-Serif" font-size="10.00">cassert</text>
</a>
</g>
</g>
<!-- Node20&#45;&gt;Node21 -->
<g id="edge34" class="edge">
<title>Node20&#45;&gt;Node21</title>
<path fill="none" stroke="midnightblue" d="M794.92,-56.4C794.92,-48.47 794.92,-38.46 794.92,-29.86"/>
<polygon fill="midnightblue" stroke="midnightblue" points="798.42,-29.66 794.92,-19.66 791.42,-29.66 798.42,-29.66"/>
</g>
<!-- Node22&#45;&gt;Node5 -->
<g id="edge41" class="edge">
<title>Node22&#45;&gt;Node5</title>
<path fill="none" stroke="midnightblue" d="M892.03,-374.9C829.45,-350.94 668.66,-279.23 714.92,-190 751.46,-119.5 799.38,-137.2 860.92,-87 876.51,-74.28 877.18,-67.17 893.92,-56 914.33,-42.38 939.54,-31.06 959.54,-23.19"/>
<polygon fill="midnightblue" stroke="midnightblue" points="960.81,-26.45 968.9,-19.6 958.31,-19.91 960.81,-26.45"/>
</g>
<!-- Node22&#45;&gt;Node6 -->
<g id="edge42" class="edge">
<title>Node22&#45;&gt;Node6</title>
<path fill="none" stroke="midnightblue" d="M932.39,-374.98C951.52,-365.08 983.29,-348.64 1005.57,-337.12"/>
<polygon fill="midnightblue" stroke="midnightblue" points="1007.2,-340.21 1014.47,-332.51 1003.98,-334 1007.2,-340.21"/>
</g>
<!-- Node22&#45;&gt;Node18 -->
<g id="edge43" class="edge">
<title>Node22&#45;&gt;Node18</title>
<path fill="none" stroke="midnightblue" d="M915.53,-374.82C914,-340.97 908.42,-217.18 906.02,-164.02"/>
<polygon fill="midnightblue" stroke="midnightblue" points="909.51,-163.64 905.56,-153.81 902.52,-163.95 909.51,-163.64"/>
</g>
<!-- Node23&#45;&gt;Node5 -->
<g id="edge45" class="edge">
<title>Node23&#45;&gt;Node5</title>
<path fill="none" stroke="midnightblue" d="M1167.07,-441.87C1221.67,-420.62 1349.92,-360.32 1349.92,-262.5 1349.92,-262.5 1349.92,-262.5 1349.92,-137.5 1349.92,-96.12 1338.95,-79.53 1304.92,-56 1264.34,-27.94 1125.84,-17.07 1048.06,-13.1"/>
<polygon fill="midnightblue" stroke="midnightblue" points="1048.12,-9.6 1037.96,-12.61 1047.78,-16.59 1048.12,-9.6"/>
</g>
<!-- Node23&#45;&gt;Node22 -->
<g id="edge46" class="edge">
<title>Node23&#45;&gt;Node22</title>
<path fill="none" stroke="midnightblue" d="M1112.77,-441.87C1072.3,-430.28 1000.3,-409.66 955.5,-396.83"/>
<polygon fill="midnightblue" stroke="midnightblue" points="956.4,-393.45 945.82,-394.06 954.47,-400.18 956.4,-393.45"/>
</g>
<!-- Node24&#45;&gt;Node5 -->
<g id="edge55" class="edge">
<title>Node24&#45;&gt;Node5</title>
<path fill="none" stroke="midnightblue" d="M1723.53,-436.39C1751.47,-415.42 1797.92,-373.16 1797.92,-324 1797.92,-324 1797.92,-324 1797.92,-137.5 1797.92,-54.11 1709.5,-77.44 1628.92,-56 1519.99,-27.02 1181.51,-15.65 1048.44,-12.23"/>
<polygon fill="midnightblue" stroke="midnightblue" points="1048.17,-8.72 1038.09,-11.97 1047.99,-15.72 1048.17,-8.72"/>
</g>
<!-- Node25&#45;&gt;Node5 -->
<g id="edge57" class="edge">
<title>Node25&#45;&gt;Node5</title>
<path fill="none" stroke="midnightblue" d="M340.55,-123.26C359.74,-102.01 395.84,-63.64 412.92,-56 436.73,-45.34 799.6,-22.63 939.49,-14.22"/>
<polygon fill="midnightblue" stroke="midnightblue" points="939.79,-17.71 949.57,-13.62 939.38,-10.72 939.79,-17.71"/>
</g>
<!-- Node25&#45;&gt;Node19 -->
<g id="edge64" class="edge">
<title>Node25&#45;&gt;Node19</title>
<path fill="none" stroke="midnightblue" d="M374.72,-128.73C438.5,-116.79 552.52,-95.43 620.19,-82.75"/>
<polygon fill="midnightblue" stroke="midnightblue" points="621.05,-86.15 630.23,-80.87 619.76,-79.27 621.05,-86.15"/>
</g>
<!-- Node26 -->
<g id="node26" class="node">
<title>Node26</title>
<g id="a_node26"><a xlink:href="condition__variable_8hpp.html" target="_top" xlink:title=" ">
<polygon fill="none" stroke="black" points="94.42,-56.5 94.42,-86.5 199.42,-86.5 199.42,-56.5 94.42,-56.5"/>
<text text-anchor="start" x="102.42" y="-74.5" font-family="Helvetica,sans-Serif" font-size="10.00">yaclib/fault/condition</text>
<text text-anchor="middle" x="146.92" y="-63.5" font-family="Helvetica,sans-Serif" font-size="10.00">_variable.hpp</text>
</a>
</g>
</g>
<!-- Node25&#45;&gt;Node26 -->
<g id="edge58" class="edge">
<title>Node25&#45;&gt;Node26</title>
<path fill="none" stroke="midnightblue" d="M288.64,-123.4C261.37,-113.6 224.83,-100.48 195.69,-90.02"/>
<polygon fill="midnightblue" stroke="midnightblue" points="196.71,-86.66 186.12,-86.58 194.34,-93.25 196.71,-86.66"/>
</g>
<!-- Node28 -->
<g id="node28" class="node">
<title>Node28</title>
<g id="a_node28"><a xlink:href="mutex_8hpp.html" target="_top" xlink:title=" ">
<polygon fill="none" stroke="black" points="255.92,-62 255.92,-81 365.92,-81 365.92,-62 255.92,-62"/>
<text text-anchor="middle" x="310.92" y="-69" font-family="Helvetica,sans-Serif" font-size="10.00">yaclib/fault/mutex.hpp</text>
</a>
</g>
</g>
<!-- Node25&#45;&gt;Node28 -->
<g id="edge61" class="edge">
<title>Node25&#45;&gt;Node28</title>
<path fill="none" stroke="midnightblue" d="M324.23,-123.4C321.76,-113.96 318.49,-101.45 315.81,-91.19"/>
<polygon fill="midnightblue" stroke="midnightblue" points="319.11,-89.98 313.19,-81.19 312.34,-91.75 319.11,-89.98"/>
</g>
<!-- Node30 -->
<g id="node30" class="node">
<title>Node30</title>
<g id="a_node30"><a xlink:title=" ">
<polygon fill="none" stroke="#bfbfbf" points="29.92,-62 29.92,-81 75.92,-81 75.92,-62 29.92,-62"/>
<text text-anchor="middle" x="52.92" y="-69" font-family="Helvetica,sans-Serif" font-size="10.00">chrono</text>
</a>
</g>
</g>
<!-- Node25&#45;&gt;Node30 -->
<g id="edge65" class="edge">
<title>Node25&#45;&gt;Node30</title>
<path fill="none" stroke="midnightblue" d="M280.99,-130.9C231.46,-123.2 151.49,-108.7 84.92,-87 83.05,-86.39 81.14,-85.7 79.24,-84.97"/>
<polygon fill="midnightblue" stroke="midnightblue" points="80.49,-81.7 69.91,-81.04 77.77,-88.15 80.49,-81.7"/>
</g>
<!-- Node26&#45;&gt;Node5 -->
<g id="edge59" class="edge">
<title>Node26&#45;&gt;Node5</title>
<path fill="none" stroke="midnightblue" d="M199.49,-62.03C214.76,-59.8 231.47,-57.58 246.92,-56 315.17,-49.01 779.39,-22.92 939.65,-14.01"/>
<polygon fill="midnightblue" stroke="midnightblue" points="939.97,-17.49 949.76,-13.44 939.58,-10.5 939.97,-17.49"/>
</g>
<!-- Node27 -->
<g id="node27" class="node">
<title>Node27</title>
<g id="a_node27"><a xlink:title=" ">
<polygon fill="none" stroke="#bfbfbf" points="94.42,-0.5 94.42,-19.5 189.42,-19.5 189.42,-0.5 94.42,-0.5"/>
<text text-anchor="middle" x="141.92" y="-7.5" font-family="Helvetica,sans-Serif" font-size="10.00">condition_variable</text>
</a>
</g>
</g>
<!-- Node26&#45;&gt;Node27 -->
<g id="edge60" class="edge">
<title>Node26&#45;&gt;Node27</title>
<path fill="none" stroke="midnightblue" d="M145.73,-56.4C145.07,-48.47 144.22,-38.46 143.5,-29.86"/>
<polygon fill="midnightblue" stroke="midnightblue" points="146.97,-29.33 142.65,-19.66 139.99,-29.92 146.97,-29.33"/>
</g>
<!-- Node28&#45;&gt;Node5 -->
<g id="edge62" class="edge">
<title>Node28&#45;&gt;Node5</title>
<path fill="none" stroke="midnightblue" d="M346.93,-61.98C357.5,-59.74 369.13,-57.52 379.92,-56 487.34,-40.85 810.49,-21.43 939.68,-14.04"/>
<polygon fill="midnightblue" stroke="midnightblue" points="939.96,-17.53 949.74,-13.47 939.56,-10.54 939.96,-17.53"/>
</g>
<!-- Node29 -->
<g id="node29" class="node">
<title>Node29</title>
<g id="a_node29"><a xlink:title=" ">
<polygon fill="none" stroke="#bfbfbf" points="289.42,-0.5 289.42,-19.5 332.42,-19.5 332.42,-0.5 289.42,-0.5"/>
<text text-anchor="middle" x="310.92" y="-7.5" font-family="Helvetica,sans-Serif" font-size="10.00">mutex</text>
</a>
</g>
</g>
<!-- Node28&#45;&gt;Node29 -->
<g id="edge63" class="edge">
<title>Node28&#45;&gt;Node29</title>
<path fill="none" stroke="midnightblue" d="M310.92,-61.98C310.92,-53.58 310.92,-40.48 310.92,-29.66"/>
<polygon fill="midnightblue" stroke="midnightblue" points="314.42,-29.51 310.92,-19.51 307.42,-29.51 314.42,-29.51"/>
</g>
<!-- Node31&#45;&gt;Node5 -->
<g id="edge67" class="edge">
<title>Node31&#45;&gt;Node5</title>
<path fill="none" stroke="midnightblue" d="M1594.53,-197.23C1669.32,-192.73 1780.81,-177.06 1740.92,-123 1680.99,-41.78 1623,-75.27 1523.92,-56 1352.28,-22.62 1144.59,-14 1048.08,-11.77"/>
<polygon fill="midnightblue" stroke="midnightblue" points="1048.06,-8.27 1037.98,-11.56 1047.91,-15.27 1048.06,-8.27"/>
</g>
<!-- Node31&#45;&gt;Node10 -->
<g id="edge74" class="edge">
<title>Node31&#45;&gt;Node10</title>
<path fill="none" stroke="midnightblue" d="M1511.06,-190.31C1455.78,-168.32 1310.26,-110.43 1246.08,-84.9"/>
<polygon fill="midnightblue" stroke="midnightblue" points="1247.09,-81.53 1236.51,-81.09 1244.51,-88.04 1247.09,-81.53"/>
</g>
<!-- Node32 -->
<g id="node32" class="node">
<title>Node32</title>
<g id="a_node32"><a xlink:href="fwd_8hpp.html" target="_top" xlink:title=" ">
<polygon fill="none" stroke="black" points="1653.92,-129 1653.92,-148 1731.92,-148 1731.92,-129 1653.92,-129"/>
<text text-anchor="middle" x="1692.92" y="-136" font-family="Helvetica,sans-Serif" font-size="10.00">yaclib/fwd.hpp</text>
</a>
</g>
</g>
<!-- Node31&#45;&gt;Node32 -->
<g id="edge68" class="edge">
<title>Node31&#45;&gt;Node32</title>
<path fill="none" stroke="midnightblue" d="M1555.84,-190.48C1583.29,-180.27 1629.43,-163.11 1660.52,-151.55"/>
<polygon fill="midnightblue" stroke="midnightblue" points="1661.88,-154.78 1670.04,-148.01 1659.44,-148.21 1661.88,-154.78"/>
</g>
<!-- Node33 -->
<g id="node33" class="node">
<title>Node33</title>
<g id="a_node33"><a xlink:href="type__traits__impl_8hpp.html" target="_top" xlink:title=" ">
<polygon fill="none" stroke="black" points="1529.92,-123.5 1529.92,-153.5 1635.92,-153.5 1635.92,-123.5 1529.92,-123.5"/>
<text text-anchor="start" x="1537.92" y="-141.5" font-family="Helvetica,sans-Serif" font-size="10.00">yaclib/util/detail</text>
<text text-anchor="middle" x="1582.92" y="-130.5" font-family="Helvetica,sans-Serif" font-size="10.00">/type_traits_impl.hpp</text>
</a>
</g>
</g>
<!-- Node31&#45;&gt;Node33 -->
<g id="edge70" class="edge">
<title>Node31&#45;&gt;Node33</title>
<path fill="none" stroke="midnightblue" d="M1540.08,-190.48C1546.47,-182.87 1556.11,-171.4 1564.63,-161.26"/>
<polygon fill="midnightblue" stroke="midnightblue" points="1567.38,-163.43 1571.13,-153.52 1562.02,-158.93 1567.38,-163.43"/>
</g>
<!-- Node34 -->
<g id="node34" class="node">
<title>Node34</title>
<g id="a_node34"><a xlink:title=" ">
<polygon fill="none" stroke="#bfbfbf" points="1453.92,-129 1453.92,-148 1511.92,-148 1511.92,-129 1453.92,-129"/>
<text text-anchor="middle" x="1482.92" y="-136" font-family="Helvetica,sans-Serif" font-size="10.00">exception</text>
</a>
</g>
</g>
<!-- Node31&#45;&gt;Node34 -->
<g id="edge73" class="edge">
<title>Node31&#45;&gt;Node34</title>
<path fill="none" stroke="midnightblue" d="M1525.75,-190.48C1518.18,-181.46 1506.05,-167.02 1496.63,-155.81"/>
<polygon fill="midnightblue" stroke="midnightblue" points="1499.18,-153.41 1490.07,-148.01 1493.82,-157.92 1499.18,-153.41"/>
</g>
<!-- Node32&#45;&gt;Node5 -->
<g id="edge69" class="edge">
<title>Node32&#45;&gt;Node5</title>
<path fill="none" stroke="midnightblue" d="M1673.17,-128.89C1633.21,-111.87 1539.5,-74.01 1456.92,-56 1311.52,-24.3 1135.57,-14.92 1048.37,-12.15"/>
<polygon fill="midnightblue" stroke="midnightblue" points="1048.28,-8.65 1038.18,-11.85 1048.07,-15.64 1048.28,-8.65"/>
</g>
<!-- Node33&#45;&gt;Node5 -->
<g id="edge71" class="edge">
<title>Node33&#45;&gt;Node5</title>
<path fill="none" stroke="midnightblue" d="M1558.37,-123.44C1524.4,-104.69 1460.6,-72.02 1401.92,-56 1278.39,-22.28 1127.27,-13.73 1048.14,-11.62"/>
<polygon fill="midnightblue" stroke="midnightblue" points="1048.01,-8.12 1037.93,-11.38 1047.84,-15.12 1048.01,-8.12"/>
</g>
<!-- Node33&#45;&gt;Node10 -->
<g id="edge72" class="edge">
<title>Node33&#45;&gt;Node10</title>
<path fill="none" stroke="midnightblue" d="M1529.87,-124.85C1526.84,-124.2 1523.84,-123.58 1520.92,-123 1426.77,-104.24 1315.33,-87.12 1256.36,-78.45"/>
<polygon fill="midnightblue" stroke="midnightblue" points="1256.72,-74.96 1246.32,-76.98 1255.71,-81.89 1256.72,-74.96"/>
</g>
</g>
</svg>
        <g id="navigator" transform="translate(0 0)" fill="#404254">
                <rect fill="#f2f5e9" fill-opacity="0.5" stroke="#606060" stroke-width=".5" x="0" y="0" width="60" height="60"/>
                <use id="zoomplus" xlink:href="#zoomPlus" x="17" y="9" onmousedown="handleZoom(evt,'in')"/>
                <use id="zoomminus" xlink:href="#zoomMin" x="42" y="9" onmousedown="handleZoom(evt,'out')"/>
                <use id="reset" xlink:href="#resetDef" x="30" y="36" onmousedown="handleReset()"/>
                <g id="arrowUp" xlink:href="#dirArrow" transform="translate(30 24)" onmousedown="handlePan(0,-1)">
                  <use xlink:href="#rim" fill="#404040">
                        <set attributeName="fill" to="#808080" begin="arrowUp.mouseover" end="arrowUp.mouseout"/>
                  </use>
                  <path fill="none" stroke="white" stroke-width="1.5" d="M0,-3.0v7 M-2.5,-0.5L0,-3.0L2.5,-0.5"/>
                </g>
                <g id="arrowRight" xlink:href="#dirArrow" transform="rotate(90) translate(36 -43)" onmousedown="handlePan(1,0)">
                  <use xlink:href="#rim" fill="#404040">
                        <set attributeName="fill" to="#808080" begin="arrowRight.mouseover" end="arrowRight.mouseout"/>
                  </use>
                  <path fill="none" stroke="white" stroke-width="1.5" d="M0,-3.0v7 M-2.5,-0.5L0,-3.0L2.5,-0.5"/>
                </g>
                <g id="arrowDown" xlink:href="#dirArrow" transform="rotate(180) translate(-30 -48)" onmousedown="handlePan(0,1)">
                  <use xlink:href="#rim" fill="#404040">
                        <set attributeName="fill" to="#808080" begin="arrowDown.mouseover" end="arrowDown.mouseout"/>
                  </use>
                  <path fill="none" stroke="white" stroke-width="1.5" d="M0,-3.0v7 M-2.5,-0.5L0,-3.0L2.5,-0.5"/>
                </g>
                <g id="arrowLeft" xlink:href="#dirArrow" transform="rotate(270) translate(-36 17)" onmousedown="handlePan(-1,0)">
                  <use xlink:href="#rim" fill="#404040">
                        <set attributeName="fill" to="#808080" begin="arrowLeft.mouseover" end="arrowLeft.mouseout"/>
                  </use>
                  <path fill="none" stroke="white" stroke-width="1.5" d="M0,-3.0v7 M-2.5,-0.5L0,-3.0L2.5,-0.5"/>
                </g>
        </g>
        <svg viewBox="0 0 15 15" width="100%" height="30px" preserveAspectRatio="xMaxYMin meet">
         <g id="arrow_out" transform="scale(0.3 0.3)">
          <a xlink:href="wait__impl_8cpp__incl_org.svg" target="_base">
           <rect id="button" ry="5" rx="5" y="6" x="6" height="38" width="38"
                fill="#f2f5e9" fill-opacity="0.5" stroke="#606060" stroke-width="1.0"/>
           <path id="arrow"
             d="M 11.500037,31.436501 C 11.940474,20.09759 22.043105,11.32322 32.158766,21.979434 L 37.068811,17.246167 C 37.068811,17.246167 37.088388,32 37.088388,32 L 22.160133,31.978069 C 22.160133,31.978069 26.997745,27.140456 26.997745,27.140456 C 18.528582,18.264221 13.291696,25.230495 11.500037,31.436501 z"
             style="fill:#404040;"/>
          </a>
         </g>
        </svg>
</svg>
