<?xml version="1.0" encoding="UTF-8" standalone="no"?>
<!DOCTYPE svg PUBLIC "-//W3C//DTD SVG 1.1//EN"
 "http://www.w3.org/Graphics/SVG/1.1/DTD/svg11.dtd">
<!-- Generated by graphviz version 2.50.0 (20220203.2022)
 -->
<!-- Title: include/yaclib/algo/when_policy.hpp Pages: 1 -->
<svg width="335pt" height="240pt"
 viewBox="0.00 0.00 335.37 240.00" xmlns="http://www.w3.org/2000/svg" xmlns:xlink="http://www.w3.org/1999/xlink">
<g id="graph0" class="graph" transform="scale(1 1) rotate(0) translate(4 236)">
<title>include/yaclib/algo/when_policy.hpp</title>
<!-- Node1 -->
<g id="node1" class="node">
<title>Node1</title>
<g id="a_node1"><a xlink:title=" ">
<polygon fill="#bfbfbf" stroke="black" points="152.5,-201.5 152.5,-231.5 248.5,-231.5 248.5,-201.5 152.5,-201.5"/>
<text text-anchor="start" x="160.5" y="-219.5" font-family="Helvetica,sans-Serif" font-size="10.00">include/yaclib/algo</text>
<text text-anchor="middle" x="200.5" y="-208.5" font-family="Helvetica,sans-Serif" font-size="10.00">/when_policy.hpp</text>
</a>
</g>
</g>
<!-- Node2 -->
<g id="node2" class="node">
<title>Node2</title>
<g id="a_node2"><a xlink:href="when__all__impl_8hpp.html" target="_top" xlink:title=" ">
<polygon fill="none" stroke="black" points="0,-134.5 0,-164.5 125,-164.5 125,-134.5 0,-134.5"/>
<text text-anchor="start" x="8" y="-152.5" font-family="Helvetica,sans-Serif" font-size="10.00">include/yaclib/algo</text>
<text text-anchor="middle" x="62.5" y="-141.5" font-family="Helvetica,sans-Serif" font-size="10.00">/detail/when_all_impl.hpp</text>
</a>
</g>
</g>
<!-- Node1&#45;&gt;Node2 -->
<g id="edge1" class="edge">
<title>Node1&#45;&gt;Node2</title>
<path fill="none" stroke="midnightblue" d="M161.5,-197.13C139.57,-186.8 112.63,-174.11 92.39,-164.58"/>
<polygon fill="midnightblue" stroke="midnightblue" points="160.02,-200.3 170.56,-201.4 163,-193.97 160.02,-200.3"/>
</g>
<!-- Node3 -->
<g id="node3" class="node">
<title>Node3</title>
<g id="a_node3"><a xlink:href="when__all_8hpp.html" target="_top" xlink:title=" ">
<polygon fill="none" stroke="black" points="76.5,-67.5 76.5,-97.5 172.5,-97.5 172.5,-67.5 76.5,-67.5"/>
<text text-anchor="start" x="84.5" y="-85.5" font-family="Helvetica,sans-Serif" font-size="10.00">include/yaclib/algo</text>
<text text-anchor="middle" x="124.5" y="-74.5" font-family="Helvetica,sans-Serif" font-size="10.00">/when_all.hpp</text>
</a>
</g>
</g>
<!-- Node1&#45;&gt;Node3 -->
<g id="edge7" class="edge">
<title>Node1&#45;&gt;Node3</title>
<path fill="none" stroke="midnightblue" d="M187.24,-192.48C171.47,-165.07 145.62,-120.19 132.57,-97.52"/>
<polygon fill="midnightblue" stroke="midnightblue" points="184.34,-194.45 192.37,-201.37 190.41,-190.96 184.34,-194.45"/>
</g>
<!-- Node5 -->
<g id="node5" class="node">
<title>Node5</title>
<g id="a_node5"><a xlink:href="when__any__impl_8hpp.html" target="_top" xlink:title=" ">
<polygon fill="none" stroke="black" points="182,-134.5 182,-164.5 313,-164.5 313,-134.5 182,-134.5"/>
<text text-anchor="start" x="190" y="-152.5" font-family="Helvetica,sans-Serif" font-size="10.00">include/yaclib/algo</text>
<text text-anchor="middle" x="247.5" y="-141.5" font-family="Helvetica,sans-Serif" font-size="10.00">/detail/when_any_impl.hpp</text>
</a>
</g>
</g>
<!-- Node1&#45;&gt;Node5 -->
<g id="edge4" class="edge">
<title>Node1&#45;&gt;Node5</title>
<path fill="none" stroke="midnightblue" d="M216.66,-193.16C223.51,-183.68 231.29,-172.92 237.32,-164.58"/>
<polygon fill="midnightblue" stroke="midnightblue" points="213.72,-191.24 210.7,-201.4 219.39,-195.34 213.72,-191.24"/>
</g>
<!-- Node6 -->
<g id="node6" class="node">
<title>Node6</title>
<g id="a_node6"><a xlink:href="when__any_8hpp.html" target="_top" xlink:title=" ">
<polygon fill="none" stroke="black" points="228.5,-67.5 228.5,-97.5 324.5,-97.5 324.5,-67.5 228.5,-67.5"/>
<text text-anchor="start" x="236.5" y="-85.5" font-family="Helvetica,sans-Serif" font-size="10.00">include/yaclib/algo</text>
<text text-anchor="middle" x="276.5" y="-74.5" font-family="Helvetica,sans-Serif" font-size="10.00">/when_any.hpp</text>
</a>
</g>
</g>
<!-- Node1&#45;&gt;Node6 -->
<g id="edge8" class="edge">
<title>Node1&#45;&gt;Node6</title>
<path fill="none" stroke="midnightblue" d="M258.46,-206.06C282.48,-198.98 308.06,-186.61 322.5,-165 337.67,-142.31 313.12,-114.3 294.45,-97.73"/>
<polygon fill="midnightblue" stroke="midnightblue" points="257.4,-202.72 248.65,-208.7 259.22,-209.48 257.4,-202.72"/>
</g>
<!-- Node2&#45;&gt;Node3 -->
<g id="edge2" class="edge">
<title>Node2&#45;&gt;Node3</title>
<path fill="none" stroke="midnightblue" d="M82.98,-127.02C92.22,-117.34 102.87,-106.17 111.07,-97.58"/>
<polygon fill="midnightblue" stroke="midnightblue" points="80.32,-124.74 75.95,-134.4 85.39,-129.58 80.32,-124.74"/>
</g>
<!-- Node4 -->
<g id="node4" class="node">
<title>Node4</title>
<g id="a_node4"><a xlink:href="when__all_8cpp.html" target="_top" xlink:title=" ">
<polygon fill="none" stroke="black" points="74,-0.5 74,-30.5 175,-30.5 175,-0.5 74,-0.5"/>
<text text-anchor="start" x="82" y="-18.5" font-family="Helvetica,sans-Serif" font-size="10.00">test/example/async</text>
<text text-anchor="middle" x="124.5" y="-7.5" font-family="Helvetica,sans-Serif" font-size="10.00">/when_all.cpp</text>
</a>
</g>
</g>
<!-- Node3&#45;&gt;Node4 -->
<g id="edge3" class="edge">
<title>Node3&#45;&gt;Node4</title>
<path fill="none" stroke="midnightblue" d="M124.5,-57.11C124.5,-48.15 124.5,-38.32 124.5,-30.58"/>
<polygon fill="midnightblue" stroke="midnightblue" points="121,-57.4 124.5,-67.4 128,-57.4 121,-57.4"/>
</g>
<!-- Node5&#45;&gt;Node6 -->
<g id="edge5" class="edge">
<title>Node5&#45;&gt;Node6</title>
<path fill="none" stroke="midnightblue" d="M257.99,-124.99C262.09,-115.8 266.65,-105.58 270.22,-97.58"/>
<polygon fill="midnightblue" stroke="midnightblue" points="254.67,-123.84 253.79,-134.4 261.06,-126.69 254.67,-123.84"/>
</g>
<!-- Node7 -->
<g id="node7" class="node">
<title>Node7</title>
<g id="a_node7"><a xlink:href="when__any_8cpp.html" target="_top" xlink:title=" ">
<polygon fill="none" stroke="black" points="226,-0.5 226,-30.5 327,-30.5 327,-0.5 226,-0.5"/>
<text text-anchor="start" x="234" y="-18.5" font-family="Helvetica,sans-Serif" font-size="10.00">test/example/async</text>
<text text-anchor="middle" x="276.5" y="-7.5" font-family="Helvetica,sans-Serif" font-size="10.00">/when_any.cpp</text>
</a>
</g>
</g>
<!-- Node6&#45;&gt;Node7 -->
<g id="edge6" class="edge">
<title>Node6&#45;&gt;Node7</title>
<path fill="none" stroke="midnightblue" d="M276.5,-57.11C276.5,-48.15 276.5,-38.32 276.5,-30.58"/>
<polygon fill="midnightblue" stroke="midnightblue" points="273,-57.4 276.5,-67.4 280,-57.4 273,-57.4"/>
</g>
</g>
</svg>
