<?xml version="1.0" encoding="UTF-8" standalone="no"?>
<!DOCTYPE svg PUBLIC "-//W3C//DTD SVG 1.1//EN"
 "http://www.w3.org/Graphics/SVG/1.1/DTD/svg11.dtd">
<!-- Generated by graphviz version 2.50.0 (20220203.2022)
 -->
<!-- Title: src/fault/antagonist/yielder.cpp Pages: 1 -->
<svg width="307pt" height="274pt"
 viewBox="0.00 0.00 306.50 274.00" xmlns="http://www.w3.org/2000/svg" xmlns:xlink="http://www.w3.org/1999/xlink">
<g id="graph0" class="graph" transform="scale(1 1) rotate(0) translate(4 270)">
<title>src/fault/antagonist/yielder.cpp</title>
<!-- Node1 -->
<g id="node1" class="node">
<title>Node1</title>
<g id="a_node1"><a xlink:title=" ">
<polygon fill="#bfbfbf" stroke="black" points="0,-235.5 0,-265.5 100,-265.5 100,-235.5 0,-235.5"/>
<text text-anchor="start" x="8" y="-253.5" font-family="Helvetica,sans-Serif" font-size="10.00">src/fault/antagonist</text>
<text text-anchor="middle" x="50" y="-242.5" font-family="Helvetica,sans-Serif" font-size="10.00">/yielder.cpp</text>
</a>
</g>
</g>
<!-- Node2 -->
<g id="node2" class="node">
<title>Node2</title>
<g id="a_node2"><a xlink:title=" ">
<polygon fill="none" stroke="#bfbfbf" points="2,-0.5 2,-19.5 90,-19.5 90,-0.5 2,-0.5"/>
<text text-anchor="middle" x="46" y="-7.5" font-family="Helvetica,sans-Serif" font-size="10.00">yaclib/config.hpp</text>
</a>
</g>
</g>
<!-- Node1&#45;&gt;Node2 -->
<g id="edge1" class="edge">
<title>Node1&#45;&gt;Node2</title>
<path fill="none" stroke="midnightblue" d="M46.56,-235.36C39.24,-203.32 23.55,-122.78 33,-56 34.27,-47.04 36.89,-37.37 39.45,-29.3"/>
<polygon fill="midnightblue" stroke="midnightblue" points="42.77,-30.4 42.66,-19.8 36.14,-28.16 42.77,-30.4"/>
</g>
<!-- Node3 -->
<g id="node3" class="node">
<title>Node3</title>
<g id="a_node3"><a xlink:href="yielder_8hpp.html" target="_top" xlink:title=" ">
<polygon fill="none" stroke="black" points="66.5,-168.5 66.5,-198.5 155.5,-198.5 155.5,-168.5 66.5,-168.5"/>
<text text-anchor="start" x="74.5" y="-186.5" font-family="Helvetica,sans-Serif" font-size="10.00">yaclib/fault/detail</text>
<text text-anchor="middle" x="111" y="-175.5" font-family="Helvetica,sans-Serif" font-size="10.00">/yielder.hpp</text>
</a>
</g>
</g>
<!-- Node1&#45;&gt;Node3 -->
<g id="edge2" class="edge">
<title>Node1&#45;&gt;Node3</title>
<path fill="none" stroke="midnightblue" d="M63.24,-235.4C71.31,-226.79 81.79,-215.63 90.87,-205.94"/>
<polygon fill="midnightblue" stroke="midnightblue" points="93.5,-208.26 97.79,-198.58 88.39,-203.47 93.5,-208.26"/>
</g>
<!-- Node3&#45;&gt;Node2 -->
<g id="edge3" class="edge">
<title>Node3&#45;&gt;Node2</title>
<path fill="none" stroke="midnightblue" d="M83.33,-168.43C69.73,-159.9 54.66,-147.63 47,-132 30.81,-98.95 36.31,-54.48 41.39,-29.69"/>
<polygon fill="midnightblue" stroke="midnightblue" points="44.84,-30.32 43.62,-19.79 38.01,-28.78 44.84,-30.32"/>
</g>
<!-- Node4 -->
<g id="node4" class="node">
<title>Node4</title>
<g id="a_node4"><a xlink:href="thread_8hpp.html" target="_top" xlink:title=" ">
<polygon fill="none" stroke="black" points="55.5,-112.5 55.5,-131.5 166.5,-131.5 166.5,-112.5 55.5,-112.5"/>
<text text-anchor="middle" x="111" y="-119.5" font-family="Helvetica,sans-Serif" font-size="10.00">yaclib/fault/thread.hpp</text>
</a>
</g>
</g>
<!-- Node3&#45;&gt;Node4 -->
<g id="edge4" class="edge">
<title>Node3&#45;&gt;Node4</title>
<path fill="none" stroke="midnightblue" d="M111,-168.4C111,-160.47 111,-150.46 111,-141.86"/>
<polygon fill="midnightblue" stroke="midnightblue" points="114.5,-141.66 111,-131.66 107.5,-141.66 114.5,-141.66"/>
</g>
<!-- Node8 -->
<g id="node8" class="node">
<title>Node8</title>
<g id="a_node8"><a xlink:title=" ">
<polygon fill="none" stroke="#bfbfbf" points="185,-112.5 185,-131.5 231,-131.5 231,-112.5 185,-112.5"/>
<text text-anchor="middle" x="208" y="-119.5" font-family="Helvetica,sans-Serif" font-size="10.00">atomic</text>
</a>
</g>
</g>
<!-- Node3&#45;&gt;Node8 -->
<g id="edge10" class="edge">
<title>Node3&#45;&gt;Node8</title>
<path fill="none" stroke="midnightblue" d="M133.99,-168.4C149.39,-158.95 169.59,-146.56 185,-137.11"/>
<polygon fill="midnightblue" stroke="midnightblue" points="187.19,-139.87 193.89,-131.66 183.53,-133.9 187.19,-139.87"/>
</g>
<!-- Node9 -->
<g id="node9" class="node">
<title>Node9</title>
<g id="a_node9"><a xlink:title=" ">
<polygon fill="none" stroke="#bfbfbf" points="249.5,-112.5 249.5,-131.5 298.5,-131.5 298.5,-112.5 249.5,-112.5"/>
<text text-anchor="middle" x="274" y="-119.5" font-family="Helvetica,sans-Serif" font-size="10.00">random</text>
</a>
</g>
</g>
<!-- Node3&#45;&gt;Node9 -->
<g id="edge11" class="edge">
<title>Node3&#45;&gt;Node9</title>
<path fill="none" stroke="midnightblue" d="M149.63,-168.4C177.34,-158.28 214.31,-144.79 240.72,-135.15"/>
<polygon fill="midnightblue" stroke="midnightblue" points="242.09,-138.37 250.28,-131.66 239.69,-131.8 242.09,-138.37"/>
</g>
<!-- Node4&#45;&gt;Node2 -->
<g id="edge5" class="edge">
<title>Node4&#45;&gt;Node2</title>
<path fill="none" stroke="midnightblue" d="M105.9,-112.37C95.22,-94.3 70.33,-52.18 56.23,-28.31"/>
<polygon fill="midnightblue" stroke="midnightblue" points="59.18,-26.42 51.08,-19.59 53.15,-29.98 59.18,-26.42"/>
</g>
<!-- Node5 -->
<g id="node5" class="node">
<title>Node5</title>
<g id="a_node5"><a xlink:href="chrono_8hpp.html" target="_top" xlink:title=" ">
<polygon fill="none" stroke="black" points="93.5,-56.5 93.5,-75.5 206.5,-75.5 206.5,-56.5 93.5,-56.5"/>
<text text-anchor="middle" x="150" y="-63.5" font-family="Helvetica,sans-Serif" font-size="10.00">yaclib/fault/chrono.hpp</text>
</a>
</g>
</g>
<!-- Node4&#45;&gt;Node5 -->
<g id="edge6" class="edge">
<title>Node4&#45;&gt;Node5</title>
<path fill="none" stroke="midnightblue" d="M117.44,-112.08C122.95,-104.46 131.03,-93.26 137.76,-83.94"/>
<polygon fill="midnightblue" stroke="midnightblue" points="140.66,-85.91 143.68,-75.75 134.99,-81.81 140.66,-85.91"/>
</g>
<!-- Node7 -->
<g id="node7" class="node">
<title>Node7</title>
<g id="a_node7"><a xlink:title=" ">
<polygon fill="none" stroke="#bfbfbf" points="225,-56.5 225,-75.5 269,-75.5 269,-56.5 225,-56.5"/>
<text text-anchor="middle" x="247" y="-63.5" font-family="Helvetica,sans-Serif" font-size="10.00">thread</text>
</a>
</g>
</g>
<!-- Node4&#45;&gt;Node7 -->
<g id="edge9" class="edge">
<title>Node4&#45;&gt;Node7</title>
<path fill="none" stroke="midnightblue" d="M132.55,-112.44C155.03,-103.52 190.49,-89.44 215.98,-79.32"/>
<polygon fill="midnightblue" stroke="midnightblue" points="217.55,-82.46 225.55,-75.52 214.97,-75.95 217.55,-82.46"/>
</g>
<!-- Node5&#45;&gt;Node2 -->
<g id="edge7" class="edge">
<title>Node5&#45;&gt;Node2</title>
<path fill="none" stroke="midnightblue" d="M133.29,-56.32C116.69,-47.7 91,-34.36 71.78,-24.39"/>
<polygon fill="midnightblue" stroke="midnightblue" points="73.16,-21.16 62.67,-19.65 69.93,-27.37 73.16,-21.16"/>
</g>
<!-- Node6 -->
<g id="node6" class="node">
<title>Node6</title>
<g id="a_node6"><a xlink:title=" ">
<polygon fill="none" stroke="#bfbfbf" points="127,-0.5 127,-19.5 173,-19.5 173,-0.5 127,-0.5"/>
<text text-anchor="middle" x="150" y="-7.5" font-family="Helvetica,sans-Serif" font-size="10.00">chrono</text>
</a>
</g>
</g>
<!-- Node5&#45;&gt;Node6 -->
<g id="edge8" class="edge">
<title>Node5&#45;&gt;Node6</title>
<path fill="none" stroke="midnightblue" d="M150,-56.08C150,-49.01 150,-38.86 150,-29.99"/>
<polygon fill="midnightblue" stroke="midnightblue" points="153.5,-29.75 150,-19.75 146.5,-29.75 153.5,-29.75"/>
</g>
</g>
</svg>
