<?xml version="1.0" encoding="UTF-8" standalone="no"?>
<!DOCTYPE svg PUBLIC "-//W3C//DTD SVG 1.1//EN"
 "http://www.w3.org/Graphics/SVG/1.1/DTD/svg11.dtd">
<!-- Generated by graphviz version 2.50.0 (20220203.2022)
 -->
<!-- Title: include/yaclib/fault/detail/yielder.hpp Pages: 1 -->
<svg width="1183pt" height="329pt"
 viewBox="0.00 0.00 1182.50 329.00" xmlns="http://www.w3.org/2000/svg" xmlns:xlink="http://www.w3.org/1999/xlink">
<g id="graph0" class="graph" transform="scale(1 1) rotate(0) translate(4 325)">
<title>include/yaclib/fault/detail/yielder.hpp</title>
<!-- Node1 -->
<g id="node1" class="node">
<title>Node1</title>
<g id="a_node1"><a xlink:title=" ">
<polygon fill="#bfbfbf" stroke="black" points="600,-290.5 600,-320.5 697,-320.5 697,-290.5 600,-290.5"/>
<text text-anchor="start" x="608" y="-308.5" font-family="Helvetica,sans-Serif" font-size="10.00">include/yaclib/fault</text>
<text text-anchor="middle" x="648.5" y="-297.5" font-family="Helvetica,sans-Serif" font-size="10.00">/detail/yielder.hpp</text>
</a>
</g>
</g>
<!-- Node2 -->
<g id="node2" class="node">
<title>Node2</title>
<g id="a_node2"><a xlink:href="inject__fault_8hpp.html" target="_top" xlink:title=" ">
<polygon fill="none" stroke="black" points="531,-223.5 531,-253.5 642,-253.5 642,-223.5 531,-223.5"/>
<text text-anchor="start" x="539" y="-241.5" font-family="Helvetica,sans-Serif" font-size="10.00">include/yaclib/fault</text>
<text text-anchor="middle" x="586.5" y="-230.5" font-family="Helvetica,sans-Serif" font-size="10.00">/detail/inject_fault.hpp</text>
</a>
</g>
</g>
<!-- Node1&#45;&gt;Node2 -->
<g id="edge1" class="edge">
<title>Node1&#45;&gt;Node2</title>
<path fill="none" stroke="midnightblue" d="M628.02,-283.02C618.78,-273.34 608.13,-262.17 599.93,-253.58"/>
<polygon fill="midnightblue" stroke="midnightblue" points="625.61,-285.58 635.05,-290.4 630.68,-280.74 625.61,-285.58"/>
</g>
<!-- Node20 -->
<g id="node20" class="node">
<title>Node20</title>
<g id="a_node20"><a xlink:href="yielder_8cpp.html" target="_top" xlink:title=" ">
<polygon fill="none" stroke="black" points="660.5,-223.5 660.5,-253.5 760.5,-253.5 760.5,-223.5 660.5,-223.5"/>
<text text-anchor="start" x="668.5" y="-241.5" font-family="Helvetica,sans-Serif" font-size="10.00">src/fault/antagonist</text>
<text text-anchor="middle" x="710.5" y="-230.5" font-family="Helvetica,sans-Serif" font-size="10.00">/yielder.cpp</text>
</a>
</g>
</g>
<!-- Node1&#45;&gt;Node20 -->
<g id="edge19" class="edge">
<title>Node1&#45;&gt;Node20</title>
<path fill="none" stroke="midnightblue" d="M668.98,-283.02C678.22,-273.34 688.87,-262.17 697.07,-253.58"/>
<polygon fill="midnightblue" stroke="midnightblue" points="666.32,-280.74 661.95,-290.4 671.39,-285.58 666.32,-280.74"/>
</g>
<!-- Node3 -->
<g id="node3" class="node">
<title>Node3</title>
<g id="a_node3"><a xlink:href="atomic__base_8hpp.html" target="_top" xlink:title=" ">
<polygon fill="none" stroke="black" points="9,-145.5 9,-186.5 116,-186.5 116,-145.5 9,-145.5"/>
<text text-anchor="start" x="17" y="-174.5" font-family="Helvetica,sans-Serif" font-size="10.00">include/yaclib/fault</text>
<text text-anchor="start" x="17" y="-163.5" font-family="Helvetica,sans-Serif" font-size="10.00">/detail/atomic/atomic</text>
<text text-anchor="middle" x="62.5" y="-152.5" font-family="Helvetica,sans-Serif" font-size="10.00">_base.hpp</text>
</a>
</g>
</g>
<!-- Node2&#45;&gt;Node3 -->
<g id="edge2" class="edge">
<title>Node2&#45;&gt;Node3</title>
<path fill="none" stroke="midnightblue" d="M520.72,-234.52C430.51,-229.48 263.73,-216.74 124.5,-187 121.73,-186.41 118.92,-185.74 116.09,-185.02"/>
<polygon fill="midnightblue" stroke="midnightblue" points="520.63,-238.02 530.81,-235.07 521.01,-231.03 520.63,-238.02"/>
</g>
<!-- Node6 -->
<g id="node6" class="node">
<title>Node6</title>
<g id="a_node6"><a xlink:href="atomic__flag_8hpp.html" target="_top" xlink:title=" ">
<polygon fill="none" stroke="black" points="134,-145.5 134,-186.5 241,-186.5 241,-145.5 134,-145.5"/>
<text text-anchor="start" x="142" y="-174.5" font-family="Helvetica,sans-Serif" font-size="10.00">include/yaclib/fault</text>
<text text-anchor="start" x="142" y="-163.5" font-family="Helvetica,sans-Serif" font-size="10.00">/detail/atomic/atomic</text>
<text text-anchor="middle" x="187.5" y="-152.5" font-family="Helvetica,sans-Serif" font-size="10.00">_flag.hpp</text>
</a>
</g>
</g>
<!-- Node2&#45;&gt;Node6 -->
<g id="edge5" class="edge">
<title>Node2&#45;&gt;Node6</title>
<path fill="none" stroke="midnightblue" d="M520.62,-230.85C452.24,-223.2 342.5,-208.81 249.5,-187 246.75,-186.35 243.94,-185.64 241.12,-184.89"/>
<polygon fill="midnightblue" stroke="midnightblue" points="520.49,-234.36 530.81,-231.98 521.25,-227.4 520.49,-234.36"/>
</g>
<!-- Node7 -->
<g id="node7" class="node">
<title>Node7</title>
<g id="a_node7"><a xlink:href="detail_2mutex_2mutex_8hpp.html" target="_top" xlink:title=" ">
<polygon fill="none" stroke="black" points="259,-151 259,-181 378,-181 378,-151 259,-151"/>
<text text-anchor="start" x="267" y="-169" font-family="Helvetica,sans-Serif" font-size="10.00">include/yaclib/fault</text>
<text text-anchor="middle" x="318.5" y="-158" font-family="Helvetica,sans-Serif" font-size="10.00">/detail/mutex/mutex.hpp</text>
</a>
</g>
</g>
<!-- Node2&#45;&gt;Node7 -->
<g id="edge6" class="edge">
<title>Node2&#45;&gt;Node7</title>
<path fill="none" stroke="midnightblue" d="M520.55,-221.53C481.48,-211.9 431.06,-199.17 386.5,-187 379.62,-185.12 372.36,-183.06 365.25,-181.01"/>
<polygon fill="midnightblue" stroke="midnightblue" points="520.2,-225.05 530.74,-224.03 521.87,-218.25 520.2,-225.05"/>
</g>
<!-- Node9 -->
<g id="node9" class="node">
<title>Node9</title>
<g id="a_node9"><a xlink:href="recursive__mutex_8hpp.html" target="_top" xlink:title=" ">
<polygon fill="none" stroke="black" points="396,-145.5 396,-186.5 511,-186.5 511,-145.5 396,-145.5"/>
<text text-anchor="start" x="404" y="-174.5" font-family="Helvetica,sans-Serif" font-size="10.00">include/yaclib/fault</text>
<text text-anchor="start" x="404" y="-163.5" font-family="Helvetica,sans-Serif" font-size="10.00">/detail/mutex/recursive</text>
<text text-anchor="middle" x="453.5" y="-152.5" font-family="Helvetica,sans-Serif" font-size="10.00">_mutex.hpp</text>
</a>
</g>
</g>
<!-- Node2&#45;&gt;Node9 -->
<g id="edge8" class="edge">
<title>Node2&#45;&gt;Node9</title>
<path fill="none" stroke="midnightblue" d="M550.82,-218.59C532.12,-208.68 509.25,-196.55 490.37,-186.55"/>
<polygon fill="midnightblue" stroke="midnightblue" points="549.43,-221.81 559.91,-223.4 552.71,-215.63 549.43,-221.81"/>
</g>
<!-- Node11 -->
<g id="node11" class="node">
<title>Node11</title>
<g id="a_node11"><a xlink:href="recursive__timed__mutex_8hpp.html" target="_top" xlink:title=" ">
<polygon fill="none" stroke="black" points="529,-145.5 529,-186.5 644,-186.5 644,-145.5 529,-145.5"/>
<text text-anchor="start" x="537" y="-174.5" font-family="Helvetica,sans-Serif" font-size="10.00">include/yaclib/fault</text>
<text text-anchor="start" x="537" y="-163.5" font-family="Helvetica,sans-Serif" font-size="10.00">/detail/mutex/recursive</text>
<text text-anchor="middle" x="586.5" y="-152.5" font-family="Helvetica,sans-Serif" font-size="10.00">_timed_mutex.hpp</text>
</a>
</g>
</g>
<!-- Node2&#45;&gt;Node11 -->
<g id="edge10" class="edge">
<title>Node2&#45;&gt;Node11</title>
<path fill="none" stroke="midnightblue" d="M586.5,-212.98C586.5,-204.35 586.5,-194.76 586.5,-186.59"/>
<polygon fill="midnightblue" stroke="midnightblue" points="583,-213.23 586.5,-223.23 590,-213.23 583,-213.23"/>
</g>
<!-- Node13 -->
<g id="node13" class="node">
<title>Node13</title>
<g id="a_node13"><a xlink:href="detail_2mutex_2shared__mutex_8hpp.html" target="_top" xlink:title=" ">
<polygon fill="none" stroke="black" points="662.5,-145.5 662.5,-186.5 766.5,-186.5 766.5,-145.5 662.5,-145.5"/>
<text text-anchor="start" x="670.5" y="-174.5" font-family="Helvetica,sans-Serif" font-size="10.00">include/yaclib/fault</text>
<text text-anchor="start" x="670.5" y="-163.5" font-family="Helvetica,sans-Serif" font-size="10.00">/detail/mutex/shared</text>
<text text-anchor="middle" x="714.5" y="-152.5" font-family="Helvetica,sans-Serif" font-size="10.00">_mutex.hpp</text>
</a>
</g>
</g>
<!-- Node2&#45;&gt;Node13 -->
<g id="edge12" class="edge">
<title>Node2&#45;&gt;Node13</title>
<path fill="none" stroke="midnightblue" d="M621.05,-218.47C638.92,-208.63 660.72,-196.62 678.77,-186.68"/>
<polygon fill="midnightblue" stroke="midnightblue" points="619.17,-215.51 612.1,-223.4 622.54,-221.64 619.17,-215.51"/>
</g>
<!-- Node15 -->
<g id="node15" class="node">
<title>Node15</title>
<g id="a_node15"><a xlink:href="shared__timed__mutex_8hpp.html" target="_top" xlink:title=" ">
<polygon fill="none" stroke="black" points="784.5,-145.5 784.5,-186.5 888.5,-186.5 888.5,-145.5 784.5,-145.5"/>
<text text-anchor="start" x="792.5" y="-174.5" font-family="Helvetica,sans-Serif" font-size="10.00">include/yaclib/fault</text>
<text text-anchor="start" x="792.5" y="-163.5" font-family="Helvetica,sans-Serif" font-size="10.00">/detail/mutex/shared</text>
<text text-anchor="middle" x="836.5" y="-152.5" font-family="Helvetica,sans-Serif" font-size="10.00">_timed_mutex.hpp</text>
</a>
</g>
</g>
<!-- Node2&#45;&gt;Node15 -->
<g id="edge14" class="edge">
<title>Node2&#45;&gt;Node15</title>
<path fill="none" stroke="midnightblue" d="M652.16,-220.92C688.62,-211.47 734.73,-199.12 775.5,-187 778.38,-186.14 781.34,-185.24 784.32,-184.32"/>
<polygon fill="midnightblue" stroke="midnightblue" points="650.95,-217.61 642.14,-223.5 652.69,-224.39 650.95,-217.61"/>
</g>
<!-- Node17 -->
<g id="node17" class="node">
<title>Node17</title>
<g id="a_node17"><a xlink:href="timed__mutex_8hpp.html" target="_top" xlink:title=" ">
<polygon fill="none" stroke="black" points="907,-151 907,-181 1056,-181 1056,-151 907,-151"/>
<text text-anchor="start" x="915" y="-169" font-family="Helvetica,sans-Serif" font-size="10.00">include/yaclib/fault</text>
<text text-anchor="middle" x="981.5" y="-158" font-family="Helvetica,sans-Serif" font-size="10.00">/detail/mutex/timed_mutex.hpp</text>
</a>
</g>
</g>
<!-- Node2&#45;&gt;Node17 -->
<g id="edge16" class="edge">
<title>Node2&#45;&gt;Node17</title>
<path fill="none" stroke="midnightblue" d="M652.26,-222.96C761.92,-203.22 792.16,-207.21 897.5,-187 906.63,-185.25 916.26,-183.17 925.62,-181.03"/>
<polygon fill="midnightblue" stroke="midnightblue" points="651.32,-219.57 642.11,-224.81 652.58,-226.46 651.32,-219.57"/>
</g>
<!-- Node19 -->
<g id="node19" class="node">
<title>Node19</title>
<g id="a_node19"><a xlink:href="inject__fault_8cpp.html" target="_top" xlink:title=" ">
<polygon fill="none" stroke="black" points="1074.5,-151 1074.5,-181 1174.5,-181 1174.5,-151 1074.5,-151"/>
<text text-anchor="start" x="1082.5" y="-169" font-family="Helvetica,sans-Serif" font-size="10.00">src/fault/antagonist</text>
<text text-anchor="middle" x="1124.5" y="-158" font-family="Helvetica,sans-Serif" font-size="10.00">/inject_fault.cpp</text>
</a>
</g>
</g>
<!-- Node2&#45;&gt;Node19 -->
<g id="edge18" class="edge">
<title>Node2&#45;&gt;Node19</title>
<path fill="none" stroke="midnightblue" d="M652.07,-223.08C835.86,-195.87 887.92,-224.25 1065.5,-187 1072.7,-185.49 1080.23,-183.37 1087.42,-181.07"/>
<polygon fill="midnightblue" stroke="midnightblue" points="651.44,-219.63 642.08,-224.59 652.49,-226.55 651.44,-219.63"/>
</g>
<!-- Node4 -->
<g id="node4" class="node">
<title>Node4</title>
<g id="a_node4"><a xlink:href="detail_2atomic_2atomic_8hpp.html" target="_top" xlink:title=" ">
<polygon fill="none" stroke="black" points="0,-78.5 0,-108.5 125,-108.5 125,-78.5 0,-78.5"/>
<text text-anchor="start" x="8" y="-96.5" font-family="Helvetica,sans-Serif" font-size="10.00">include/yaclib/fault</text>
<text text-anchor="middle" x="62.5" y="-85.5" font-family="Helvetica,sans-Serif" font-size="10.00">/detail/atomic/atomic.hpp</text>
</a>
</g>
</g>
<!-- Node3&#45;&gt;Node4 -->
<g id="edge3" class="edge">
<title>Node3&#45;&gt;Node4</title>
<path fill="none" stroke="midnightblue" d="M62.5,-135.08C62.5,-126.01 62.5,-116.45 62.5,-108.89"/>
<polygon fill="midnightblue" stroke="midnightblue" points="59,-135.36 62.5,-145.36 66,-135.36 59,-135.36"/>
</g>
<!-- Node5 -->
<g id="node5" class="node">
<title>Node5</title>
<g id="a_node5"><a xlink:href="atomic__reference_8hpp.html" target="_top" xlink:title=" ">
<polygon fill="none" stroke="black" points="9,-0.5 9,-41.5 116,-41.5 116,-0.5 9,-0.5"/>
<text text-anchor="start" x="17" y="-29.5" font-family="Helvetica,sans-Serif" font-size="10.00">include/yaclib/fault</text>
<text text-anchor="start" x="17" y="-18.5" font-family="Helvetica,sans-Serif" font-size="10.00">/detail/atomic/atomic</text>
<text text-anchor="middle" x="62.5" y="-7.5" font-family="Helvetica,sans-Serif" font-size="10.00">_reference.hpp</text>
</a>
</g>
</g>
<!-- Node4&#45;&gt;Node5 -->
<g id="edge4" class="edge">
<title>Node4&#45;&gt;Node5</title>
<path fill="none" stroke="midnightblue" d="M62.5,-67.98C62.5,-59.35 62.5,-49.76 62.5,-41.59"/>
<polygon fill="midnightblue" stroke="midnightblue" points="59,-68.23 62.5,-78.23 66,-68.23 59,-68.23"/>
</g>
<!-- Node8 -->
<g id="node8" class="node">
<title>Node8</title>
<g id="a_node8"><a xlink:href="mutex_8cpp.html" target="_top" xlink:title=" ">
<polygon fill="none" stroke="black" points="235.5,-84 235.5,-103 363.5,-103 363.5,-84 235.5,-84"/>
<text text-anchor="middle" x="299.5" y="-91" font-family="Helvetica,sans-Serif" font-size="10.00">src/fault/mutex/mutex.cpp</text>
</a>
</g>
</g>
<!-- Node7&#45;&gt;Node8 -->
<g id="edge7" class="edge">
<title>Node7&#45;&gt;Node8</title>
<path fill="none" stroke="midnightblue" d="M312.03,-140.98C308.53,-128.01 304.43,-112.79 301.9,-103.39"/>
<polygon fill="midnightblue" stroke="midnightblue" points="308.67,-141.99 314.66,-150.73 315.43,-140.17 308.67,-141.99"/>
</g>
<!-- Node10 -->
<g id="node10" class="node">
<title>Node10</title>
<g id="a_node10"><a xlink:href="recursive__mutex_8cpp.html" target="_top" xlink:title=" ">
<polygon fill="none" stroke="black" points="381.5,-78.5 381.5,-108.5 505.5,-108.5 505.5,-78.5 381.5,-78.5"/>
<text text-anchor="start" x="389.5" y="-96.5" font-family="Helvetica,sans-Serif" font-size="10.00">src/fault/mutex/recursive</text>
<text text-anchor="middle" x="443.5" y="-85.5" font-family="Helvetica,sans-Serif" font-size="10.00">_mutex.cpp</text>
</a>
</g>
</g>
<!-- Node9&#45;&gt;Node10 -->
<g id="edge9" class="edge">
<title>Node9&#45;&gt;Node10</title>
<path fill="none" stroke="midnightblue" d="M449.3,-135.38C448,-126.21 446.63,-116.53 445.54,-108.89"/>
<polygon fill="midnightblue" stroke="midnightblue" points="445.84,-135.95 450.71,-145.36 452.78,-134.97 445.84,-135.95"/>
</g>
<!-- Node12 -->
<g id="node12" class="node">
<title>Node12</title>
<g id="a_node12"><a xlink:href="recursive__timed__mutex_8cpp.html" target="_top" xlink:title=" ">
<polygon fill="none" stroke="black" points="523.5,-78.5 523.5,-108.5 647.5,-108.5 647.5,-78.5 523.5,-78.5"/>
<text text-anchor="start" x="531.5" y="-96.5" font-family="Helvetica,sans-Serif" font-size="10.00">src/fault/mutex/recursive</text>
<text text-anchor="middle" x="585.5" y="-85.5" font-family="Helvetica,sans-Serif" font-size="10.00">_timed_mutex.cpp</text>
</a>
</g>
</g>
<!-- Node11&#45;&gt;Node12 -->
<g id="edge11" class="edge">
<title>Node11&#45;&gt;Node12</title>
<path fill="none" stroke="midnightblue" d="M586.08,-135.08C585.95,-126.01 585.81,-116.45 585.7,-108.89"/>
<polygon fill="midnightblue" stroke="midnightblue" points="582.58,-135.41 586.22,-145.36 589.58,-135.31 582.58,-135.41"/>
</g>
<!-- Node14 -->
<g id="node14" class="node">
<title>Node14</title>
<g id="a_node14"><a xlink:href="shared__mutex_8cpp.html" target="_top" xlink:title=" ">
<polygon fill="none" stroke="black" points="666,-78.5 666,-108.5 779,-108.5 779,-78.5 666,-78.5"/>
<text text-anchor="start" x="674" y="-96.5" font-family="Helvetica,sans-Serif" font-size="10.00">src/fault/mutex/shared</text>
<text text-anchor="middle" x="722.5" y="-85.5" font-family="Helvetica,sans-Serif" font-size="10.00">_mutex.cpp</text>
</a>
</g>
</g>
<!-- Node13&#45;&gt;Node14 -->
<g id="edge13" class="edge">
<title>Node13&#45;&gt;Node14</title>
<path fill="none" stroke="midnightblue" d="M717.86,-135.38C718.9,-126.21 720,-116.53 720.87,-108.89"/>
<polygon fill="midnightblue" stroke="midnightblue" points="714.38,-135.03 716.73,-145.36 721.33,-135.82 714.38,-135.03"/>
</g>
<!-- Node16 -->
<g id="node16" class="node">
<title>Node16</title>
<g id="a_node16"><a xlink:href="shared__timed__mutex_8cpp.html" target="_top" xlink:title=" ">
<polygon fill="none" stroke="black" points="797,-78.5 797,-108.5 910,-108.5 910,-78.5 797,-78.5"/>
<text text-anchor="start" x="805" y="-96.5" font-family="Helvetica,sans-Serif" font-size="10.00">src/fault/mutex/shared</text>
<text text-anchor="middle" x="853.5" y="-85.5" font-family="Helvetica,sans-Serif" font-size="10.00">_timed_mutex.cpp</text>
</a>
</g>
</g>
<!-- Node15&#45;&gt;Node16 -->
<g id="edge15" class="edge">
<title>Node15&#45;&gt;Node16</title>
<path fill="none" stroke="midnightblue" d="M843.64,-135.38C845.85,-126.21 848.19,-116.53 850.03,-108.89"/>
<polygon fill="midnightblue" stroke="midnightblue" points="840.18,-134.82 841.24,-145.36 846.98,-136.46 840.18,-134.82"/>
</g>
<!-- Node18 -->
<g id="node18" class="node">
<title>Node18</title>
<g id="a_node18"><a xlink:href="timed__mutex_8cpp.html" target="_top" xlink:title=" ">
<polygon fill="none" stroke="black" points="928.5,-78.5 928.5,-108.5 1036.5,-108.5 1036.5,-78.5 928.5,-78.5"/>
<text text-anchor="start" x="936.5" y="-96.5" font-family="Helvetica,sans-Serif" font-size="10.00">src/fault/mutex/timed</text>
<text text-anchor="middle" x="982.5" y="-85.5" font-family="Helvetica,sans-Serif" font-size="10.00">_mutex.cpp</text>
</a>
</g>
</g>
<!-- Node17&#45;&gt;Node18 -->
<g id="edge17" class="edge">
<title>Node17&#45;&gt;Node18</title>
<path fill="none" stroke="midnightblue" d="M981.84,-140.73C982,-130.07 982.17,-117.91 982.3,-108.75"/>
<polygon fill="midnightblue" stroke="midnightblue" points="978.34,-140.68 981.7,-150.73 985.34,-140.78 978.34,-140.68"/>
</g>
</g>
</svg>
